<?xml version="1.0" encoding="UTF-8"?>
<svg xmlns="http://www.w3.org/2000/svg" xmlns:xlink="http://www.w3.org/1999/xlink" width="1008pt" height="612pt" viewBox="0 0 1008 612" version="1.1">
<g id="surface186">
<rect x="0" y="0" width="1008" height="612" style="fill:rgb(100%,100%,100%);fill-opacity:1;stroke:none;"/>
<path style="fill:none;stroke-width:2.25;stroke-linecap:round;stroke-linejoin:round;stroke:rgb(0%,0%,0%);stroke-opacity:1;stroke-miterlimit:10;" d="M 199.363281 42.050781 L 116.566406 97.246094 L 199.363281 152.445313 L 282.160156 97.246094 Z M 199.363281 42.050781 "/>
<path style="fill:none;stroke-width:2.25;stroke-linecap:round;stroke-linejoin:round;stroke:rgb(0%,0%,0%);stroke-opacity:1;stroke-miterlimit:10;" d="M 551.332031 67.976563 L 511.34375 57.261719 L 482.070313 86.535156 L 492.785156 126.519531 L 532.773438 137.234375 L 562.046875 107.960938 Z M 551.332031 67.976563 "/>
<path style="fill:none;stroke-width:2.25;stroke-linecap:round;stroke-linejoin:round;stroke:rgb(0%,0%,0%);stroke-opacity:1;stroke-miterlimit:10;" d="M 830.953125 83.449219 L 830.523438 83.894531 L 830.105469 84.351563 L 829.703125 84.824219 L 829.316406 85.304688 L 828.945313 85.800781 L 828.589844 86.308594 L 828.25 86.828125 L 827.929688 87.355469 L 827.625 87.894531 L 827.335938 88.445313 L 827.066406 89 L 826.8125 89.566406 L 826.578125 90.140625 L 826.359375 90.71875 L 826.164063 91.304688 L 825.984375 91.898438 L 825.824219 92.496094 L 825.683594 93.101563 L 825.5625 93.707031 L 825.457031 94.316406 L 825.375 94.929688 L 825.3125 95.546875 L 825.265625 96.164063 L 825.242188 96.785156 L 825.238281 97.402344 L 825.253906 98.023438 L 825.285156 98.640625 L 825.339844 99.257813 L 825.414063 99.871094 L 825.507813 100.484375 L 825.621094 101.09375 L 825.75 101.699219 L 825.902344 102.300781 L 826.070313 102.894531 L 826.261719 103.484375 L 826.46875 104.066406 L 826.691406 104.644531 L 826.9375 105.214844 L 827.199219 105.773438 L 827.476563 106.328125 L 827.773438 106.871094 L 828.089844 107.40625 L 828.417969 107.929688 L 828.765625 108.441406 L 829.128906 108.941406 L 829.507813 109.433594 L 829.902344 109.910156 L 830.3125 110.375 L 830.734375 110.828125 L 831.171875 111.265625 L 831.625 111.6875 L 832.089844 112.097656 L 832.566406 112.492188 L 833.058594 112.871094 L 833.558594 113.234375 L 834.070313 113.582031 L 834.59375 113.910156 L 835.128906 114.226563 L 835.671875 114.523438 L 836.226563 114.800781 L 836.785156 115.0625 L 837.355469 115.308594 L 837.933594 115.53125 L 838.515625 115.738281 L 839.105469 115.929688 L 839.699219 116.097656 L 840.300781 116.25 L 840.90625 116.378906 L 841.515625 116.492188 L 842.128906 116.585938 L 842.742188 116.660156 L 843.359375 116.714844 L 843.976563 116.746094 L 844.597656 116.761719 L 845.214844 116.757813 L 845.835938 116.734375 L 846.453125 116.6875 L 847.070313 116.625 L 847.683594 116.542969 L 848.292969 116.4375 L 848.898438 116.316406 L 849.503906 116.175781 L 850.101563 116.015625 L 850.695313 115.835938 L 851.28125 115.640625 L 851.859375 115.421875 L 852.433594 115.1875 L 853 114.933594 L 853.554688 114.664063 L 854.105469 114.375 L 854.644531 114.070313 L 855.171875 113.75 L 855.691406 113.410156 L 856.199219 113.054688 L 856.695313 112.683594 L 857.175781 112.296875 L 857.648438 111.894531 L 858.105469 111.476563 L 858.550781 111.046875 L 844.753906 97.246094 Z M 830.953125 83.449219 "/>
<path style="fill:none;stroke-width:2.25;stroke-linecap:round;stroke-linejoin:round;stroke:rgb(0%,0%,0%);stroke-opacity:1;stroke-miterlimit:10;" d="M 257.910156 229.398438 L 177.933594 207.96875 L 119.386719 266.511719 L 140.816406 346.488281 L 220.792969 367.917969 L 279.339844 309.371094 Z M 257.910156 229.398438 "/>
<path style="fill:none;stroke-width:2.25;stroke-linecap:round;stroke-linejoin:round;stroke:rgb(0%,0%,0%);stroke-opacity:1;stroke-miterlimit:10;" d="M 501.359375 267.242188 L 500.710938 267.910156 L 500.085938 268.597656 L 499.484375 269.304688 L 498.90625 270.03125 L 498.347656 270.773438 L 497.816406 271.535156 L 497.308594 272.3125 L 496.824219 273.105469 L 496.367188 273.914063 L 495.933594 274.734375 L 495.527344 275.570313 L 495.148438 276.417969 L 494.796875 277.277344 L 494.472656 278.148438 L 494.175781 279.027344 L 493.90625 279.917969 L 493.664063 280.816406 L 493.453125 281.71875 L 493.269531 282.628906 L 493.117188 283.546875 L 492.992188 284.46875 L 492.894531 285.390625 L 492.828125 286.316406 L 492.792969 287.246094 L 492.785156 288.175781 L 492.808594 289.101563 L 492.859375 290.03125 L 492.941406 290.957031 L 493.050781 291.878906 L 493.191406 292.796875 L 493.359375 293.710938 L 493.554688 294.617188 L 493.78125 295.519531 L 494.035156 296.410156 L 494.320313 297.296875 L 494.628906 298.171875 L 494.96875 299.039063 L 495.335938 299.890625 L 495.726563 300.734375 L 496.144531 301.5625 L 496.589844 302.378906 L 497.0625 303.179688 L 497.558594 303.964844 L 498.078125 304.734375 L 498.625 305.484375 L 499.191406 306.21875 L 499.785156 306.9375 L 500.398438 307.632813 L 501.03125 308.308594 L 501.691406 308.96875 L 502.367188 309.601563 L 503.0625 310.214844 L 503.78125 310.808594 L 504.515625 311.375 L 505.265625 311.921875 L 506.035156 312.441406 L 506.820313 312.9375 L 507.621094 313.410156 L 508.4375 313.855469 L 509.265625 314.273438 L 510.109375 314.664063 L 510.960938 315.03125 L 511.828125 315.371094 L 512.703125 315.679688 L 513.589844 315.964844 L 514.480469 316.21875 L 515.382813 316.445313 L 516.289063 316.640625 L 517.203125 316.808594 L 518.121094 316.949219 L 519.042969 317.058594 L 519.96875 317.140625 L 520.898438 317.191406 L 521.824219 317.214844 L 522.753906 317.207031 L 523.683594 317.171875 L 524.609375 317.105469 L 525.53125 317.007813 L 526.453125 316.882813 L 527.371094 316.730469 L 528.28125 316.546875 L 529.183594 316.335938 L 530.082031 316.09375 L 530.972656 315.824219 L 531.851563 315.527344 L 532.722656 315.203125 L 533.582031 314.851563 L 534.429688 314.472656 L 535.265625 314.066406 L 536.085938 313.632813 L 536.894531 313.175781 L 537.6875 312.691406 L 538.464844 312.183594 L 539.226563 311.652344 L 539.96875 311.09375 L 540.695313 310.515625 L 541.402344 309.914063 L 542.089844 309.289063 L 542.757813 308.640625 Z M 501.359375 267.242188 "/>
<path style="fill:none;stroke-width:2.25;stroke-linecap:round;stroke-linejoin:round;stroke:rgb(0%,0%,0%);stroke-opacity:1;stroke-miterlimit:10;" d="M 831.742188 300.953125 L 864.265625 307.457031 L 857.761719 274.933594 L 825.238281 268.425781 Z M 831.742188 300.953125 "/>
<path style="fill:none;stroke-width:2.25;stroke-linecap:round;stroke-linejoin:round;stroke:rgb(0%,0%,0%);stroke-opacity:1;stroke-miterlimit:10;" d="M 157.964844 437.238281 L 156.671875 438.574219 L 155.421875 439.949219 L 154.21875 441.359375 L 153.058594 442.8125 L 151.945313 444.300781 L 150.878906 445.820313 L 149.863281 447.375 L 148.894531 448.960938 L 147.980469 450.578125 L 147.113281 452.222656 L 146.300781 453.894531 L 145.542969 455.589844 L 144.839844 457.308594 L 144.191406 459.050781 L 143.597656 460.808594 L 143.058594 462.589844 L 142.578125 464.382813 L 142.15625 466.191406 L 141.789063 468.011719 L 141.480469 469.84375 L 141.230469 471.6875 L 141.039063 473.535156 L 140.90625 475.386719 L 140.832031 477.242188 L 140.820313 479.101563 L 140.863281 480.957031 L 140.964844 482.8125 L 141.128906 484.664063 L 141.347656 486.507813 L 141.628906 488.34375 L 141.964844 490.171875 L 142.359375 491.988281 L 142.8125 493.789063 L 143.320313 495.578125 L 143.886719 497.347656 L 144.507813 499.097656 L 145.183594 500.828125 L 145.917969 502.535156 L 146.703125 504.21875 L 147.539063 505.875 L 148.429688 507.507813 L 149.371094 509.109375 L 150.363281 510.679688 L 151.40625 512.21875 L 152.496094 513.722656 L 153.632813 515.191406 L 154.816406 516.625 L 156.042969 518.019531 L 157.3125 519.371094 L 158.628906 520.6875 L 159.980469 521.957031 L 161.375 523.183594 L 162.808594 524.367188 L 164.277344 525.503906 L 165.78125 526.59375 L 167.320313 527.636719 L 168.890625 528.628906 L 170.492188 529.570313 L 172.125 530.460938 L 173.78125 531.296875 L 175.464844 532.082031 L 177.171875 532.816406 L 178.902344 533.492188 L 180.652344 534.113281 L 182.421875 534.679688 L 184.210938 535.1875 L 186.011719 535.640625 L 187.828125 536.035156 L 189.65625 536.371094 L 191.492188 536.652344 L 193.335938 536.871094 L 195.1875 537.035156 L 197.042969 537.136719 L 198.898438 537.179688 L 200.757813 537.167969 L 202.613281 537.09375 L 204.464844 536.960938 L 206.3125 536.769531 L 208.15625 536.519531 L 209.988281 536.210938 L 211.808594 535.84375 L 213.617188 535.421875 L 215.410156 534.941406 L 217.191406 534.402344 L 218.949219 533.808594 L 220.691406 533.160156 L 222.410156 532.457031 L 224.105469 531.699219 L 225.777344 530.886719 L 227.421875 530.019531 L 229.039063 529.105469 L 230.625 528.136719 L 232.179688 527.121094 L 233.699219 526.054688 L 235.1875 524.941406 L 236.640625 523.78125 L 238.050781 522.578125 L 239.425781 521.328125 L 240.761719 520.035156 Z M 157.964844 437.238281 "/>
<path style="fill:none;stroke-width:2.25;stroke-linecap:round;stroke-linejoin:round;stroke:rgb(0%,0%,0%);stroke-opacity:1;stroke-miterlimit:10;" d="M 502.542969 498.152344 L 551.332031 507.910156 L 541.574219 459.121094 L 492.785156 449.363281 Z M 502.542969 498.152344 "/>
<path style="fill:none;stroke-width:2.25;stroke-linecap:round;stroke-linejoin:round;stroke:rgb(0%,0%,0%);stroke-opacity:1;stroke-miterlimit:10;" d="M 886.148438 437.238281 L 884.132813 435.316406 L 882.027344 433.492188 L 879.835938 431.769531 L 877.566406 430.152344 L 875.222656 428.644531 L 872.808594 427.253906 L 870.332031 425.976563 L 867.796875 424.816406 L 865.210938 423.78125 L 862.578125 422.871094 L 859.90625 422.085938 L 857.195313 421.429688 L 854.460938 420.902344 L 851.703125 420.503906 L 848.929688 420.238281 L 846.144531 420.109375 L 843.359375 420.109375 L 840.574219 420.238281 L 837.800781 420.503906 L 835.042969 420.902344 L 832.308594 421.429688 L 829.597656 422.085938 L 826.925781 422.871094 L 824.292969 423.78125 L 821.707031 424.816406 L 819.171875 425.976563 L 816.695313 427.253906 L 814.28125 428.644531 L 811.9375 430.152344 L 809.667969 431.769531 L 807.476563 433.492188 L 805.371094 435.316406 L 803.355469 437.238281 L 801.429688 439.253906 L 799.605469 441.359375 L 797.882813 443.550781 L 796.265625 445.820313 L 794.761719 448.164063 L 793.367188 450.578125 L 792.089844 453.054688 L 790.933594 455.589844 L 789.898438 458.175781 L 788.984375 460.808594 L 788.199219 463.484375 L 787.542969 466.191406 L 787.015625 468.929688 L 786.621094 471.6875 L 786.355469 474.460938 L 786.222656 477.242188 L 786.222656 480.03125 L 786.355469 482.8125 L 786.621094 485.585938 L 787.015625 488.34375 L 787.542969 491.082031 L 788.199219 493.789063 L 788.984375 496.464844 L 789.898438 499.097656 L 790.933594 501.683594 L 792.089844 504.21875 L 793.367188 506.695313 L 794.761719 509.109375 L 796.265625 511.453125 L 797.882813 513.722656 L 799.605469 515.914063 L 801.429688 518.019531 L 803.355469 520.035156 L 805.371094 521.957031 L 807.476563 523.78125 L 809.667969 525.503906 L 811.9375 527.121094 L 814.28125 528.628906 L 816.695313 530.019531 L 819.171875 531.296875 L 821.707031 532.457031 L 824.292969 533.492188 L 826.925781 534.402344 L 829.597656 535.1875 L 832.308594 535.84375 L 835.042969 536.371094 L 837.800781 536.769531 L 840.574219 537.035156 L 843.359375 537.167969 L 846.144531 537.167969 L 848.929688 537.035156 L 851.703125 536.769531 L 854.460938 536.371094 L 857.195313 535.84375 L 859.90625 535.1875 L 862.578125 534.402344 L 865.210938 533.492188 L 867.796875 532.457031 L 870.332031 531.296875 L 872.808594 530.019531 L 875.222656 528.628906 L 877.566406 527.121094 L 879.835938 525.503906 L 882.027344 523.78125 L 884.132813 521.957031 L 886.148438 520.035156 L 844.753906 478.636719 Z M 886.148438 437.238281 "/>
<path style="fill:none;stroke-width:2.25;stroke-linecap:round;stroke-linejoin:round;stroke:rgb(0%,0%,0%);stroke-opacity:1;stroke-miterlimit:10;" d="M 815.480469 449.363281 L 807.867188 497.429688 L 851.226563 519.523438 L 885.640625 485.113281 L 863.546875 441.75 Z M 815.480469 449.363281 "/>
<path style="fill:none;stroke-width:2.25;stroke-linecap:round;stroke-linejoin:round;stroke:rgb(0%,0%,0%);stroke-opacity:1;stroke-miterlimit:10;" d="M 826.351563 478.636719 L 844.753906 506.234375 L 863.152344 478.636719 L 844.753906 451.039063 Z M 826.351563 478.636719 "/>
<path style="fill:none;stroke-width:2.25;stroke-linecap:round;stroke-linejoin:round;stroke:rgb(0%,0%,0%);stroke-opacity:1;stroke-miterlimit:10;" d="M 786.207031 420.089844 L 770.980469 516.226563 L 857.703125 560.414063 L 926.527344 491.589844 L 882.339844 404.863281 Z M 786.207031 420.089844 "/>
<path style="fill:none;stroke-width:2.25;stroke-linecap:round;stroke-linejoin:round;stroke:rgb(0%,0%,0%);stroke-opacity:1;stroke-miterlimit:10;" d="M 817.152344 478.636719 L 844.753906 520.035156 L 872.351563 478.636719 L 844.753906 437.238281 Z M 817.152344 478.636719 "/>
<path style="fill:none;stroke-width:2.25;stroke-linecap:round;stroke-linejoin:round;stroke:rgb(0%,0%,0%);stroke-opacity:1;stroke-miterlimit:10;" d="M 825.238281 478.636719 L 825.257813 479.566406 L 825.324219 480.492188 L 825.433594 481.414063 L 825.589844 482.332031 L 825.785156 483.238281 L 826.027344 484.136719 L 826.308594 485.019531 L 826.632813 485.890625 L 827 486.742188 L 827.40625 487.578125 L 827.851563 488.394531 L 828.335938 489.1875 L 828.855469 489.957031 L 829.410156 490.699219 L 830.003906 491.417969 L 830.628906 492.105469 L 831.285156 492.761719 L 831.972656 493.386719 L 832.6875 493.976563 L 833.433594 494.535156 L 834.203125 495.054688 L 834.996094 495.539063 L 835.808594 495.984375 L 836.644531 496.386719 L 837.5 496.753906 L 838.371094 497.078125 L 839.253906 497.363281 L 840.152344 497.601563 L 841.058594 497.800781 L 841.976563 497.953125 L 842.898438 498.0625 L 843.824219 498.128906 L 844.753906 498.152344 L 845.679688 498.128906 L 846.605469 498.0625 L 847.53125 497.953125 L 848.445313 497.800781 L 849.351563 497.601563 L 850.25 497.363281 L 851.136719 497.078125 L 852.003906 496.753906 L 852.859375 496.386719 L 853.695313 495.984375 L 854.507813 495.539063 L 855.304688 495.054688 L 856.070313 494.535156 L 856.816406 493.976563 L 857.53125 493.386719 L 858.21875 492.761719 L 858.875 492.105469 L 859.5 491.417969 L 860.09375 490.699219 L 860.648438 489.957031 L 861.167969 489.1875 L 861.652344 488.394531 L 862.097656 487.578125 L 862.503906 486.742188 L 862.871094 485.890625 L 863.195313 485.019531 L 863.476563 484.136719 L 863.71875 483.238281 L 863.914063 482.332031 L 864.070313 481.414063 L 864.179688 480.492188 L 864.246094 479.566406 L 864.265625 478.636719 L 864.246094 477.707031 L 864.179688 476.78125 L 864.070313 475.859375 L 863.914063 474.945313 L 863.71875 474.035156 L 863.476563 473.140625 L 863.195313 472.253906 L 862.871094 471.382813 L 862.503906 470.53125 L 862.097656 469.695313 L 861.652344 468.878906 L 861.167969 468.085938 L 860.648438 467.316406 L 860.09375 466.574219 L 859.5 465.855469 L 858.875 465.167969 L 858.21875 464.511719 L 857.53125 463.886719 L 856.816406 463.296875 L 856.070313 462.738281 L 855.304688 462.21875 L 854.507813 461.734375 L 853.695313 461.289063 L 852.859375 460.886719 L 852.003906 460.519531 L 851.136719 460.195313 L 850.25 459.910156 L 849.351563 459.671875 L 848.445313 459.472656 L 847.53125 459.320313 L 846.605469 459.210938 L 845.679688 459.144531 L 844.753906 459.121094 L 844.753906 478.636719 Z M 825.238281 478.636719 "/>
<path style="fill:none;stroke-width:2.25;stroke-linecap:round;stroke-linejoin:round;stroke:rgb(0%,0%,0%);stroke-opacity:1;stroke-miterlimit:10;" d="M 789.554688 478.636719 L 844.753906 561.433594 L 899.949219 478.636719 L 844.753906 395.839844 Z M 789.554688 478.636719 "/>
<path style="fill:none;stroke-width:2.25;stroke-linecap:round;stroke-linejoin:round;stroke:rgb(0%,0%,0%);stroke-opacity:1;stroke-miterlimit:10;" d="M 815.480469 478.636719 L 815.511719 480.03125 L 815.613281 481.417969 L 815.777344 482.804688 L 816.007813 484.175781 L 816.304688 485.539063 L 816.664063 486.882813 L 817.089844 488.210938 L 817.574219 489.515625 L 818.125 490.796875 L 818.734375 492.050781 L 819.402344 493.273438 L 820.125 494.464844 L 820.90625 495.617188 L 821.742188 496.730469 L 822.628906 497.804688 L 823.566406 498.835938 L 824.550781 499.824219 L 825.582031 500.761719 L 826.65625 501.648438 L 827.773438 502.480469 L 828.925781 503.261719 L 830.117188 503.988281 L 831.339844 504.65625 L 832.589844 505.265625 L 833.871094 505.8125 L 835.179688 506.300781 L 836.503906 506.722656 L 837.851563 507.085938 L 839.210938 507.378906 L 840.585938 507.613281 L 841.96875 507.777344 L 843.359375 507.875 L 844.753906 507.910156 L 846.144531 507.875 L 847.535156 507.777344 L 848.917969 507.613281 L 850.292969 507.378906 L 851.652344 507.085938 L 853 506.722656 L 854.328125 506.300781 L 855.632813 505.8125 L 856.914063 505.265625 L 858.164063 504.65625 L 859.386719 503.988281 L 860.578125 503.261719 L 861.730469 502.480469 L 862.847656 501.648438 L 863.921875 500.761719 L 864.953125 499.824219 L 865.9375 498.835938 L 866.875 497.804688 L 867.761719 496.730469 L 868.597656 495.617188 L 869.378906 494.464844 L 870.101563 493.273438 L 870.769531 492.050781 L 871.378906 490.796875 L 871.929688 489.515625 L 872.414063 488.210938 L 872.839844 486.882813 L 873.199219 485.539063 L 873.496094 484.175781 L 873.726563 482.804688 L 873.890625 481.417969 L 873.992188 480.03125 L 874.023438 478.636719 L 873.992188 477.242188 L 873.890625 475.855469 L 873.726563 474.472656 L 873.496094 473.097656 L 873.199219 471.734375 L 872.839844 470.390625 L 872.414063 469.0625 L 871.929688 467.757813 L 871.378906 466.476563 L 870.769531 465.222656 L 870.101563 464 L 869.378906 462.8125 L 868.597656 461.65625 L 867.761719 460.542969 L 866.875 459.46875 L 865.9375 458.4375 L 864.953125 457.449219 L 863.921875 456.515625 L 862.847656 455.625 L 861.730469 454.792969 L 860.578125 454.011719 L 859.386719 453.285156 L 858.164063 452.617188 L 856.914063 452.007813 L 855.632813 451.460938 L 854.328125 450.972656 L 853 450.550781 L 851.652344 450.1875 L 850.292969 449.894531 L 848.917969 449.660156 L 847.535156 449.496094 L 846.144531 449.398438 L 844.753906 449.363281 L 844.753906 478.636719 Z M 815.480469 478.636719 "/>
<path style="fill:none;stroke-width:2.25;stroke-linecap:round;stroke-linejoin:round;stroke:rgb(0%,0%,0%);stroke-opacity:1;stroke-miterlimit:10;" d="M 887.773438 404.121094 L 801.730469 404.121094 L 844.753906 478.636719 Z M 887.773438 404.121094 "/>
<path style="fill:none;stroke-width:2.25;stroke-linecap:round;stroke-linejoin:round;stroke:rgb(0%,0%,0%);stroke-opacity:1;stroke-miterlimit:10;" d="M 844.753906 478.636719 L 801.730469 553.152344 L 887.773438 553.152344 Z M 844.753906 478.636719 "/>
<path style="fill:none;stroke-width:2.25;stroke-linecap:round;stroke-linejoin:round;stroke:rgb(0%,0%,0%);stroke-opacity:1;stroke-miterlimit:10;" d="M 843.773438 479.613281 L 843.355469 479.199219 L 842.925781 478.792969 L 842.492188 478.390625 L 842.050781 477.996094 L 841.605469 477.609375 L 841.152344 477.230469 L 840.691406 476.855469 L 840.226563 476.492188 L 839.757813 476.132813 L 839.28125 475.78125 L 838.800781 475.4375 L 838.3125 475.105469 L 837.820313 474.777344 L 837.324219 474.457031 L 836.820313 474.144531 L 836.3125 473.839844 L 835.800781 473.546875 L 835.285156 473.257813 L 834.765625 472.980469 L 834.238281 472.707031 L 833.710938 472.445313 L 833.175781 472.191406 L 832.636719 471.945313 L 832.097656 471.710938 L 831.550781 471.480469 L 831 471.261719 L 830.449219 471.050781 L 829.894531 470.847656 L 829.335938 470.65625 L 828.773438 470.46875 L 828.210938 470.292969 L 827.640625 470.128906 L 827.074219 469.972656 L 826.5 469.824219 L 825.925781 469.683594 L 825.347656 469.550781 L 824.769531 469.433594 L 824.191406 469.320313 L 823.609375 469.21875 L 823.023438 469.125 L 822.4375 469.039063 L 821.851563 468.964844 L 821.265625 468.898438 L 820.675781 468.84375 L 820.085938 468.796875 L 819.496094 468.757813 L 818.90625 468.730469 L 818.316406 468.710938 L 817.726563 468.703125 L 817.132813 468.703125 L 816.542969 468.710938 L 815.953125 468.730469 L 815.359375 468.757813 L 814.769531 468.796875 L 814.183594 468.84375 L 813.59375 468.898438 L 813.007813 468.964844 L 812.417969 469.039063 L 811.835938 469.125 L 811.25 469.21875 L 810.667969 469.320313 L 810.089844 469.433594 L 809.507813 469.550781 L 808.933594 469.683594 L 808.359375 469.824219 L 807.785156 469.972656 L 807.214844 470.128906 L 806.648438 470.292969 L 806.085938 470.46875 L 805.523438 470.65625 L 804.964844 470.847656 L 804.410156 471.050781 L 803.855469 471.261719 L 803.308594 471.480469 L 802.761719 471.710938 L 802.222656 471.945313 L 801.683594 472.191406 L 801.148438 472.445313 L 800.621094 472.707031 L 800.09375 472.980469 L 799.574219 473.257813 L 799.054688 473.546875 L 798.542969 473.839844 L 798.039063 474.144531 L 797.535156 474.457031 L 797.039063 474.777344 L 796.546875 475.105469 L 796.058594 475.4375 L 795.578125 475.78125 L 795.101563 476.132813 L 794.628906 476.492188 L 794.167969 476.855469 L 793.707031 477.230469 L 793.253906 477.609375 L 792.808594 477.996094 L 792.367188 478.390625 L 791.933594 478.792969 L 791.503906 479.199219 L 791.082031 479.613281 L 791.503906 479.199219 L 791.933594 478.792969 L 792.367188 478.390625 L 792.808594 477.996094 L 793.253906 477.609375 L 793.707031 477.230469 L 794.167969 476.855469 L 794.628906 476.492188 L 795.101563 476.132813 L 795.578125 475.78125 L 796.058594 475.4375 L 796.546875 475.105469 L 797.039063 474.777344 L 797.535156 474.457031 L 798.039063 474.144531 L 798.542969 473.839844 L 799.054688 473.546875 L 799.574219 473.257813 L 800.09375 472.980469 L 800.621094 472.707031 L 801.148438 472.445313 L 801.683594 472.191406 L 802.222656 471.945313 L 802.761719 471.710938 L 803.308594 471.480469 L 803.855469 471.261719 L 804.410156 471.050781 L 804.964844 470.847656 L 805.523438 470.65625 L 806.085938 470.46875 L 806.648438 470.292969 L 807.214844 470.128906 L 807.785156 469.972656 L 808.359375 469.824219 L 808.933594 469.683594 L 809.507813 469.550781 L 810.089844 469.433594 L 810.667969 469.320313 L 811.25 469.21875 L 811.835938 469.125 L 812.417969 469.039063 L 813.007813 468.964844 L 813.59375 468.898438 L 814.183594 468.84375 L 814.769531 468.796875 L 815.359375 468.757813 L 815.953125 468.730469 L 816.542969 468.710938 L 817.132813 468.703125 L 817.726563 468.703125 L 818.316406 468.710938 L 818.90625 468.730469 L 819.496094 468.757813 L 820.085938 468.796875 L 820.675781 468.84375 L 821.265625 468.898438 L 821.851563 468.964844 L 822.4375 469.039063 L 823.023438 469.125 L 823.609375 469.21875 L 824.191406 469.320313 L 824.769531 469.433594 L 825.347656 469.550781 L 825.925781 469.683594 L 826.5 469.824219 L 827.074219 469.972656 L 827.640625 470.128906 L 828.210938 470.292969 L 828.773438 470.46875 L 829.335938 470.65625 L 829.894531 470.847656 L 830.449219 471.050781 L 831 471.261719 L 831.550781 471.480469 L 832.097656 471.710938 L 832.636719 471.945313 L 833.175781 472.191406 L 833.710938 472.445313 L 834.238281 472.707031 L 834.765625 472.980469 L 835.285156 473.257813 L 835.800781 473.546875 L 836.3125 473.839844 L 836.820313 474.144531 L 837.324219 474.457031 L 837.820313 474.777344 L 838.3125 475.105469 L 838.800781 475.4375 L 839.28125 475.78125 L 839.757813 476.132813 L 840.226563 476.492188 L 840.691406 476.855469 L 841.152344 477.230469 L 841.605469 477.609375 L 842.050781 477.996094 L 842.492188 478.390625 L 842.925781 478.792969 L 843.355469 479.199219 Z M 843.773438 479.613281 "/>
<path style="fill:none;stroke-width:2.25;stroke-linecap:round;stroke-linejoin:round;stroke:rgb(0%,0%,0%);stroke-opacity:1;stroke-miterlimit:10;" d="M 843.246094 480.144531 L 843.667969 480.558594 L 844.09375 480.964844 L 844.527344 481.367188 L 844.96875 481.761719 L 845.417969 482.148438 L 845.867188 482.527344 L 846.328125 482.902344 L 846.792969 483.265625 L 847.261719 483.625 L 847.738281 483.976563 L 848.21875 484.316406 L 848.707031 484.652344 L 849.199219 484.980469 L 849.695313 485.300781 L 850.199219 485.613281 L 850.707031 485.914063 L 851.21875 486.210938 L 851.734375 486.5 L 852.257813 486.777344 L 852.78125 487.050781 L 853.3125 487.3125 L 853.84375 487.566406 L 854.382813 487.8125 L 854.925781 488.046875 L 855.46875 488.277344 L 856.019531 488.496094 L 856.570313 488.707031 L 857.125 488.910156 L 857.683594 489.101563 L 858.246094 489.285156 L 858.8125 489.460938 L 859.378906 489.628906 L 859.949219 489.785156 L 860.519531 489.933594 L 861.09375 490.074219 L 861.671875 490.203125 L 862.25 490.324219 L 862.832031 490.4375 L 863.414063 490.539063 L 863.996094 490.632813 L 864.582031 490.71875 L 865.167969 490.792969 L 865.753906 490.859375 L 866.34375 490.914063 L 866.933594 490.960938 L 867.523438 491 L 868.113281 491.027344 L 868.703125 491.046875 L 869.296875 491.054688 L 869.886719 491.054688 L 870.476563 491.046875 L 871.070313 491.027344 L 871.660156 491 L 872.25 490.960938 L 872.839844 490.914063 L 873.425781 490.859375 L 874.015625 490.792969 L 874.601563 490.71875 L 875.1875 490.632813 L 875.769531 490.539063 L 876.351563 490.4375 L 876.933594 490.324219 L 877.511719 490.203125 L 878.085938 490.074219 L 878.660156 489.933594 L 879.234375 489.785156 L 879.804688 489.628906 L 880.371094 489.460938 L 880.9375 489.285156 L 881.496094 489.101563 L 882.054688 488.910156 L 882.613281 488.707031 L 883.164063 488.496094 L 883.710938 488.277344 L 884.257813 488.046875 L 884.800781 487.8125 L 885.335938 487.566406 L 885.871094 487.3125 L 886.398438 487.050781 L 886.925781 486.777344 L 887.445313 486.5 L 887.964844 486.210938 L 888.476563 485.914063 L 888.984375 485.613281 L 889.484375 485.300781 L 889.980469 484.980469 L 890.472656 484.652344 L 890.960938 484.316406 L 891.441406 483.976563 L 891.917969 483.625 L 892.390625 483.265625 L 892.855469 482.902344 L 893.3125 482.527344 L 893.765625 482.148438 L 894.210938 481.761719 L 894.652344 481.367188 L 895.085938 480.964844 L 895.515625 480.558594 L 895.9375 480.144531 L 895.515625 480.558594 L 895.085938 480.964844 L 894.652344 481.367188 L 894.210938 481.761719 L 893.765625 482.148438 L 893.3125 482.527344 L 892.855469 482.902344 L 892.390625 483.265625 L 891.917969 483.625 L 891.441406 483.976563 L 890.960938 484.316406 L 890.472656 484.652344 L 889.980469 484.980469 L 889.484375 485.300781 L 888.984375 485.613281 L 888.476563 485.914063 L 887.964844 486.210938 L 887.445313 486.5 L 886.925781 486.777344 L 886.398438 487.050781 L 885.871094 487.3125 L 885.335938 487.566406 L 884.800781 487.8125 L 884.257813 488.046875 L 883.710938 488.277344 L 883.164063 488.496094 L 882.613281 488.707031 L 882.054688 488.910156 L 881.496094 489.101563 L 880.9375 489.285156 L 880.371094 489.460938 L 879.804688 489.628906 L 879.234375 489.785156 L 878.660156 489.933594 L 878.085938 490.074219 L 877.511719 490.203125 L 876.933594 490.324219 L 876.351563 490.4375 L 875.769531 490.539063 L 875.1875 490.632813 L 874.601563 490.71875 L 874.015625 490.792969 L 873.425781 490.859375 L 872.839844 490.914063 L 872.25 490.960938 L 871.660156 491 L 871.070313 491.027344 L 870.476563 491.046875 L 869.886719 491.054688 L 869.296875 491.054688 L 868.703125 491.046875 L 868.113281 491.027344 L 867.523438 491 L 866.933594 490.960938 L 866.34375 490.914063 L 865.753906 490.859375 L 865.167969 490.792969 L 864.582031 490.71875 L 863.996094 490.632813 L 863.414063 490.539063 L 862.832031 490.4375 L 862.25 490.324219 L 861.671875 490.203125 L 861.09375 490.074219 L 860.519531 489.933594 L 859.949219 489.785156 L 859.378906 489.628906 L 858.8125 489.460938 L 858.246094 489.285156 L 857.683594 489.101563 L 857.125 488.910156 L 856.570313 488.707031 L 856.019531 488.496094 L 855.46875 488.277344 L 854.925781 488.046875 L 854.382813 487.8125 L 853.84375 487.566406 L 853.3125 487.3125 L 852.78125 487.050781 L 852.257813 486.777344 L 851.734375 486.5 L 851.21875 486.210938 L 850.707031 485.914063 L 850.199219 485.613281 L 849.695313 485.300781 L 849.199219 484.980469 L 848.707031 484.652344 L 848.21875 484.316406 L 847.738281 483.976563 L 847.261719 483.625 L 846.792969 483.265625 L 846.328125 482.902344 L 845.867188 482.527344 L 845.417969 482.148438 L 844.96875 481.761719 L 844.527344 481.367188 L 844.09375 480.964844 L 843.667969 480.558594 Z M 843.246094 480.144531 "/>
<path style="fill:none;stroke-width:2.25;stroke-linecap:round;stroke-linejoin:round;stroke:rgb(0%,0%,0%);stroke-opacity:1;stroke-miterlimit:10;" d="M 791.082031 480.144531 L 791.503906 480.558594 L 791.933594 480.964844 L 792.367188 481.367188 L 792.808594 481.761719 L 793.253906 482.148438 L 793.707031 482.527344 L 794.167969 482.902344 L 794.628906 483.265625 L 795.101563 483.625 L 795.578125 483.976563 L 796.058594 484.316406 L 796.546875 484.652344 L 797.039063 484.980469 L 797.535156 485.300781 L 798.039063 485.613281 L 798.542969 485.914063 L 799.054688 486.210938 L 799.574219 486.5 L 800.09375 486.777344 L 800.621094 487.050781 L 801.148438 487.3125 L 801.683594 487.566406 L 802.222656 487.8125 L 802.761719 488.046875 L 803.308594 488.277344 L 803.855469 488.496094 L 804.410156 488.707031 L 804.964844 488.910156 L 805.523438 489.101563 L 806.085938 489.285156 L 806.648438 489.460938 L 807.214844 489.628906 L 807.785156 489.785156 L 808.359375 489.933594 L 808.933594 490.074219 L 809.507813 490.203125 L 810.089844 490.324219 L 810.667969 490.4375 L 811.25 490.539063 L 811.835938 490.632813 L 812.417969 490.71875 L 813.007813 490.792969 L 813.59375 490.859375 L 814.183594 490.914063 L 814.769531 490.960938 L 815.359375 491 L 815.953125 491.027344 L 816.542969 491.046875 L 817.132813 491.054688 L 817.726563 491.054688 L 818.316406 491.046875 L 818.90625 491.027344 L 819.496094 491 L 820.085938 490.960938 L 820.675781 490.914063 L 821.265625 490.859375 L 821.851563 490.792969 L 822.4375 490.71875 L 823.023438 490.632813 L 823.609375 490.539063 L 824.191406 490.4375 L 824.769531 490.324219 L 825.347656 490.203125 L 825.925781 490.074219 L 826.5 489.933594 L 827.074219 489.785156 L 827.640625 489.628906 L 828.210938 489.460938 L 828.773438 489.285156 L 829.335938 489.101563 L 829.894531 488.910156 L 830.449219 488.707031 L 831 488.496094 L 831.550781 488.277344 L 832.097656 488.046875 L 832.636719 487.8125 L 833.175781 487.566406 L 833.710938 487.3125 L 834.238281 487.050781 L 834.765625 486.777344 L 835.285156 486.5 L 835.800781 486.210938 L 836.3125 485.914063 L 836.820313 485.613281 L 837.324219 485.300781 L 837.820313 484.980469 L 838.3125 484.652344 L 838.800781 484.316406 L 839.28125 483.976563 L 839.757813 483.625 L 840.226563 483.265625 L 840.691406 482.902344 L 841.152344 482.527344 L 841.605469 482.148438 L 842.050781 481.761719 L 842.492188 481.367188 L 842.925781 480.964844 L 843.355469 480.558594 L 843.773438 480.144531 L 843.355469 480.558594 L 842.925781 480.964844 L 842.492188 481.367188 L 842.050781 481.761719 L 841.605469 482.148438 L 841.152344 482.527344 L 840.691406 482.902344 L 840.226563 483.265625 L 839.757813 483.625 L 839.28125 483.976563 L 838.800781 484.316406 L 838.3125 484.652344 L 837.820313 484.980469 L 837.324219 485.300781 L 836.820313 485.613281 L 836.3125 485.914063 L 835.800781 486.210938 L 835.285156 486.5 L 834.765625 486.777344 L 834.238281 487.050781 L 833.710938 487.3125 L 833.175781 487.566406 L 832.636719 487.8125 L 832.097656 488.046875 L 831.550781 488.277344 L 831 488.496094 L 830.449219 488.707031 L 829.894531 488.910156 L 829.335938 489.101563 L 828.773438 489.285156 L 828.210938 489.460938 L 827.640625 489.628906 L 827.074219 489.785156 L 826.5 489.933594 L 825.925781 490.074219 L 825.347656 490.203125 L 824.769531 490.324219 L 824.191406 490.4375 L 823.609375 490.539063 L 823.023438 490.632813 L 822.4375 490.71875 L 821.851563 490.792969 L 821.265625 490.859375 L 820.675781 490.914063 L 820.085938 490.960938 L 819.496094 491 L 818.90625 491.027344 L 818.316406 491.046875 L 817.726563 491.054688 L 817.132813 491.054688 L 816.542969 491.046875 L 815.953125 491.027344 L 815.359375 491 L 814.769531 490.960938 L 814.183594 490.914063 L 813.59375 490.859375 L 813.007813 490.792969 L 812.417969 490.71875 L 811.835938 490.632813 L 811.25 490.539063 L 810.667969 490.4375 L 810.089844 490.324219 L 809.507813 490.203125 L 808.933594 490.074219 L 808.359375 489.933594 L 807.785156 489.785156 L 807.214844 489.628906 L 806.648438 489.460938 L 806.085938 489.285156 L 805.523438 489.101563 L 804.964844 488.910156 L 804.410156 488.707031 L 803.855469 488.496094 L 803.308594 488.277344 L 802.761719 488.046875 L 802.222656 487.8125 L 801.683594 487.566406 L 801.148438 487.3125 L 800.621094 487.050781 L 800.09375 486.777344 L 799.574219 486.5 L 799.054688 486.210938 L 798.542969 485.914063 L 798.039063 485.613281 L 797.535156 485.300781 L 797.039063 484.980469 L 796.546875 484.652344 L 796.058594 484.316406 L 795.578125 483.976563 L 795.101563 483.625 L 794.628906 483.265625 L 794.167969 482.902344 L 793.707031 482.527344 L 793.253906 482.148438 L 792.808594 481.761719 L 792.367188 481.367188 L 791.933594 480.964844 L 791.503906 480.558594 Z M 791.082031 480.144531 "/>
<path style="fill:none;stroke-width:2.25;stroke-linecap:round;stroke-linejoin:round;stroke:rgb(0%,0%,0%);stroke-opacity:1;stroke-miterlimit:10;" d="M 896.433594 479.613281 L 896.011719 479.199219 L 895.585938 478.792969 L 895.148438 478.390625 L 894.710938 477.996094 L 894.261719 477.609375 L 893.808594 477.230469 L 893.351563 476.855469 L 892.886719 476.492188 L 892.414063 476.132813 L 891.941406 475.78125 L 891.457031 475.4375 L 890.972656 475.105469 L 890.480469 474.777344 L 889.980469 474.457031 L 889.480469 474.144531 L 888.972656 473.839844 L 888.460938 473.546875 L 887.945313 473.257813 L 887.421875 472.980469 L 886.898438 472.707031 L 886.367188 472.445313 L 885.832031 472.191406 L 885.296875 471.945313 L 884.753906 471.710938 L 884.210938 471.480469 L 883.660156 471.261719 L 883.109375 471.050781 L 882.550781 470.847656 L 881.992188 470.65625 L 881.433594 470.46875 L 880.867188 470.292969 L 880.300781 470.128906 L 879.730469 469.972656 L 879.160156 469.824219 L 878.585938 469.683594 L 878.007813 469.550781 L 877.429688 469.433594 L 876.847656 469.320313 L 876.265625 469.21875 L 875.683594 469.125 L 875.097656 469.039063 L 874.511719 468.964844 L 873.921875 468.898438 L 873.335938 468.84375 L 872.746094 468.796875 L 872.15625 468.757813 L 871.566406 468.730469 L 870.972656 468.710938 L 870.382813 468.703125 L 869.792969 468.703125 L 869.199219 468.710938 L 868.609375 468.730469 L 868.019531 468.757813 L 867.429688 468.796875 L 866.839844 468.84375 L 866.25 468.898438 L 865.664063 468.964844 L 865.078125 469.039063 L 864.492188 469.125 L 863.910156 469.21875 L 863.328125 469.320313 L 862.746094 469.433594 L 862.167969 469.550781 L 861.589844 469.683594 L 861.015625 469.824219 L 860.445313 469.972656 L 859.875 470.128906 L 859.308594 470.292969 L 858.742188 470.46875 L 858.179688 470.65625 L 857.621094 470.847656 L 857.066406 471.050781 L 856.515625 471.261719 L 855.964844 471.480469 L 855.421875 471.710938 L 854.878906 471.945313 L 854.339844 472.191406 L 853.808594 472.445313 L 853.277344 472.707031 L 852.753906 472.980469 L 852.230469 473.257813 L 851.714844 473.546875 L 851.203125 473.839844 L 850.695313 474.144531 L 850.195313 474.457031 L 849.695313 474.777344 L 849.203125 475.105469 L 848.71875 475.4375 L 848.234375 475.78125 L 847.757813 476.132813 L 847.289063 476.492188 L 846.824219 476.855469 L 846.367188 477.230469 L 845.914063 477.609375 L 845.464844 477.996094 L 845.027344 478.390625 L 844.589844 478.792969 L 844.164063 479.199219 L 843.742188 479.613281 L 844.164063 479.199219 L 844.589844 478.792969 L 845.027344 478.390625 L 845.464844 477.996094 L 845.914063 477.609375 L 846.367188 477.230469 L 846.824219 476.855469 L 847.289063 476.492188 L 847.757813 476.132813 L 848.234375 475.78125 L 848.71875 475.4375 L 849.203125 475.105469 L 849.695313 474.777344 L 850.195313 474.457031 L 850.695313 474.144531 L 851.203125 473.839844 L 851.714844 473.546875 L 852.230469 473.257813 L 852.753906 472.980469 L 853.277344 472.707031 L 853.808594 472.445313 L 854.339844 472.191406 L 854.878906 471.945313 L 855.421875 471.710938 L 855.964844 471.480469 L 856.515625 471.261719 L 857.066406 471.050781 L 857.621094 470.847656 L 858.179688 470.65625 L 858.742188 470.46875 L 859.308594 470.292969 L 859.875 470.128906 L 860.445313 469.972656 L 861.015625 469.824219 L 861.589844 469.683594 L 862.167969 469.550781 L 862.746094 469.433594 L 863.328125 469.320313 L 863.910156 469.21875 L 864.492188 469.125 L 865.078125 469.039063 L 865.664063 468.964844 L 866.25 468.898438 L 866.839844 468.84375 L 867.429688 468.796875 L 868.019531 468.757813 L 868.609375 468.730469 L 869.199219 468.710938 L 869.792969 468.703125 L 870.382813 468.703125 L 870.972656 468.710938 L 871.566406 468.730469 L 872.15625 468.757813 L 872.746094 468.796875 L 873.335938 468.84375 L 873.921875 468.898438 L 874.511719 468.964844 L 875.097656 469.039063 L 875.683594 469.125 L 876.265625 469.21875 L 876.847656 469.320313 L 877.429688 469.433594 L 878.007813 469.550781 L 878.585938 469.683594 L 879.160156 469.824219 L 879.730469 469.972656 L 880.300781 470.128906 L 880.867188 470.292969 L 881.433594 470.46875 L 881.992188 470.65625 L 882.550781 470.847656 L 883.109375 471.050781 L 883.660156 471.261719 L 884.210938 471.480469 L 884.753906 471.710938 L 885.296875 471.945313 L 885.832031 472.191406 L 886.367188 472.445313 L 886.898438 472.707031 L 887.421875 472.980469 L 887.945313 473.257813 L 888.460938 473.546875 L 888.972656 473.839844 L 889.480469 474.144531 L 889.980469 474.457031 L 890.480469 474.777344 L 890.972656 475.105469 L 891.457031 475.4375 L 891.941406 475.78125 L 892.414063 476.132813 L 892.886719 476.492188 L 893.351563 476.855469 L 893.808594 477.230469 L 894.261719 477.609375 L 894.710938 477.996094 L 895.148438 478.390625 L 895.585938 478.792969 L 896.011719 479.199219 Z M 896.433594 479.613281 "/>
<path style="fill:none;stroke-width:2.25;stroke-linecap:round;stroke-linejoin:round;stroke:rgb(0%,0%,0%);stroke-opacity:1;stroke-miterlimit:10;" d="M 843.246094 427.453125 L 842.832031 427.875 L 842.421875 428.300781 L 842.023438 428.734375 L 841.628906 429.175781 L 841.242188 429.621094 L 840.859375 430.074219 L 840.488281 430.535156 L 840.121094 431 L 839.765625 431.46875 L 839.414063 431.945313 L 839.070313 432.425781 L 838.734375 432.914063 L 838.40625 433.40625 L 838.089844 433.902344 L 837.777344 434.40625 L 837.472656 434.914063 L 837.175781 435.425781 L 836.890625 435.941406 L 836.609375 436.464844 L 836.339844 436.988281 L 836.078125 437.519531 L 835.824219 438.050781 L 835.578125 438.589844 L 835.339844 439.132813 L 835.113281 439.675781 L 834.894531 440.226563 L 834.683594 440.777344 L 834.480469 441.332031 L 834.285156 441.890625 L 834.101563 442.453125 L 833.925781 443.019531 L 833.757813 443.585938 L 833.601563 444.15625 L 833.453125 444.726563 L 833.3125 445.300781 L 833.183594 445.878906 L 833.0625 446.457031 L 832.949219 447.039063 L 832.847656 447.621094 L 832.753906 448.203125 L 832.671875 448.789063 L 832.597656 449.375 L 832.53125 449.960938 L 832.472656 450.550781 L 832.425781 451.140625 L 832.390625 451.730469 L 832.363281 452.320313 L 832.34375 452.910156 L 832.332031 453.503906 L 832.332031 454.09375 L 832.34375 454.683594 L 832.363281 455.277344 L 832.390625 455.867188 L 832.425781 456.457031 L 832.472656 457.046875 L 832.53125 457.632813 L 832.597656 458.222656 L 832.671875 458.808594 L 832.753906 459.394531 L 832.847656 459.976563 L 832.949219 460.558594 L 833.0625 461.140625 L 833.183594 461.71875 L 833.3125 462.292969 L 833.453125 462.867188 L 833.601563 463.441406 L 833.757813 464.011719 L 833.925781 464.578125 L 834.101563 465.140625 L 834.285156 465.703125 L 834.480469 466.261719 L 834.683594 466.820313 L 834.894531 467.371094 L 835.113281 467.917969 L 835.339844 468.464844 L 835.578125 469.007813 L 835.824219 469.542969 L 836.078125 470.078125 L 836.339844 470.605469 L 836.609375 471.132813 L 836.890625 471.652344 L 837.175781 472.171875 L 837.472656 472.683594 L 837.777344 473.191406 L 838.089844 473.691406 L 838.40625 474.1875 L 838.734375 474.679688 L 839.070313 475.167969 L 839.414063 475.648438 L 839.765625 476.125 L 840.121094 476.597656 L 840.488281 477.0625 L 840.859375 477.519531 L 841.242188 477.972656 L 841.628906 478.417969 L 842.023438 478.859375 L 842.421875 479.292969 L 842.832031 479.722656 L 843.246094 480.144531 L 842.832031 479.722656 L 842.421875 479.292969 L 842.023438 478.859375 L 841.628906 478.417969 L 841.242188 477.972656 L 840.859375 477.519531 L 840.488281 477.0625 L 840.121094 476.597656 L 839.765625 476.125 L 839.414063 475.648438 L 839.070313 475.167969 L 838.734375 474.679688 L 838.40625 474.1875 L 838.089844 473.691406 L 837.777344 473.191406 L 837.472656 472.683594 L 837.175781 472.171875 L 836.890625 471.652344 L 836.609375 471.132813 L 836.339844 470.605469 L 836.078125 470.078125 L 835.824219 469.542969 L 835.578125 469.007813 L 835.339844 468.464844 L 835.113281 467.917969 L 834.894531 467.371094 L 834.683594 466.820313 L 834.480469 466.261719 L 834.285156 465.703125 L 834.101563 465.140625 L 833.925781 464.578125 L 833.757813 464.011719 L 833.601563 463.441406 L 833.453125 462.867188 L 833.3125 462.292969 L 833.183594 461.71875 L 833.0625 461.140625 L 832.949219 460.558594 L 832.847656 459.976563 L 832.753906 459.394531 L 832.671875 458.808594 L 832.597656 458.222656 L 832.53125 457.632813 L 832.472656 457.046875 L 832.425781 456.457031 L 832.390625 455.867188 L 832.363281 455.277344 L 832.34375 454.683594 L 832.332031 454.09375 L 832.332031 453.503906 L 832.34375 452.910156 L 832.363281 452.320313 L 832.390625 451.730469 L 832.425781 451.140625 L 832.472656 450.550781 L 832.53125 449.960938 L 832.597656 449.375 L 832.671875 448.789063 L 832.753906 448.203125 L 832.847656 447.621094 L 832.949219 447.039063 L 833.0625 446.457031 L 833.183594 445.878906 L 833.3125 445.300781 L 833.453125 444.726563 L 833.601563 444.15625 L 833.757813 443.585938 L 833.925781 443.019531 L 834.101563 442.453125 L 834.285156 441.890625 L 834.480469 441.332031 L 834.683594 440.777344 L 834.894531 440.226563 L 835.113281 439.675781 L 835.339844 439.132813 L 835.578125 438.589844 L 835.824219 438.050781 L 836.078125 437.519531 L 836.339844 436.988281 L 836.609375 436.464844 L 836.890625 435.941406 L 837.175781 435.425781 L 837.472656 434.914063 L 837.777344 434.40625 L 838.089844 433.902344 L 838.40625 433.40625 L 838.734375 432.914063 L 839.070313 432.425781 L 839.414063 431.945313 L 839.765625 431.46875 L 840.121094 431 L 840.488281 430.535156 L 840.859375 430.074219 L 841.242188 429.621094 L 841.628906 429.175781 L 842.023438 428.734375 L 842.421875 428.300781 L 842.832031 427.875 Z M 843.246094 427.453125 "/>
<path style="fill:none;stroke-width:2.25;stroke-linecap:round;stroke-linejoin:round;stroke:rgb(0%,0%,0%);stroke-opacity:1;stroke-miterlimit:10;" d="M 843.773438 532.304688 L 844.191406 531.882813 L 844.597656 531.457031 L 845 531.023438 L 845.394531 530.582031 L 845.78125 530.132813 L 846.160156 529.679688 L 846.53125 529.222656 L 846.898438 528.757813 L 847.257813 528.289063 L 847.605469 527.8125 L 847.949219 527.332031 L 848.285156 526.84375 L 848.613281 526.351563 L 848.933594 525.855469 L 849.242188 525.351563 L 849.546875 524.84375 L 849.84375 524.332031 L 850.128906 523.816406 L 850.410156 523.292969 L 850.679688 522.769531 L 850.941406 522.238281 L 851.195313 521.707031 L 851.441406 521.167969 L 851.679688 520.625 L 851.90625 520.082031 L 852.128906 519.53125 L 852.339844 518.980469 L 852.539063 518.425781 L 852.734375 517.867188 L 852.917969 517.304688 L 853.09375 516.738281 L 853.261719 516.171875 L 853.417969 515.601563 L 853.566406 515.03125 L 853.707031 514.457031 L 853.835938 513.878906 L 853.957031 513.300781 L 854.070313 512.71875 L 854.171875 512.136719 L 854.265625 511.554688 L 854.347656 510.96875 L 854.425781 510.382813 L 854.488281 509.796875 L 854.546875 509.207031 L 854.59375 508.617188 L 854.628906 508.027344 L 854.660156 507.4375 L 854.675781 506.847656 L 854.6875 506.253906 L 854.6875 505.664063 L 854.675781 505.074219 L 854.660156 504.480469 L 854.628906 503.890625 L 854.59375 503.300781 L 854.546875 502.710938 L 854.488281 502.125 L 854.425781 501.535156 L 854.347656 500.949219 L 854.265625 500.363281 L 854.171875 499.78125 L 854.070313 499.199219 L 853.957031 498.617188 L 853.835938 498.039063 L 853.707031 497.464844 L 853.566406 496.886719 L 853.417969 496.316406 L 853.261719 495.746094 L 853.09375 495.179688 L 852.917969 494.613281 L 852.734375 494.054688 L 852.539063 493.496094 L 852.339844 492.9375 L 852.128906 492.386719 L 851.90625 491.839844 L 851.679688 491.292969 L 851.441406 490.75 L 851.195313 490.214844 L 850.941406 489.679688 L 850.679688 489.148438 L 850.410156 488.625 L 850.128906 488.105469 L 849.84375 487.585938 L 849.546875 487.074219 L 849.242188 486.566406 L 848.933594 486.066406 L 848.613281 485.566406 L 848.285156 485.074219 L 847.949219 484.589844 L 847.605469 484.109375 L 847.257813 483.632813 L 846.898438 483.160156 L 846.53125 482.695313 L 846.160156 482.238281 L 845.78125 481.785156 L 845.394531 481.339844 L 845 480.898438 L 844.597656 480.464844 L 844.191406 480.035156 L 843.773438 479.613281 L 844.191406 480.035156 L 844.597656 480.464844 L 845 480.898438 L 845.394531 481.339844 L 845.78125 481.785156 L 846.160156 482.238281 L 846.53125 482.695313 L 846.898438 483.160156 L 847.257813 483.632813 L 847.605469 484.109375 L 847.949219 484.589844 L 848.285156 485.074219 L 848.613281 485.566406 L 848.933594 486.066406 L 849.242188 486.566406 L 849.546875 487.074219 L 849.84375 487.585938 L 850.128906 488.105469 L 850.410156 488.625 L 850.679688 489.148438 L 850.941406 489.679688 L 851.195313 490.214844 L 851.441406 490.75 L 851.679688 491.292969 L 851.90625 491.839844 L 852.128906 492.386719 L 852.339844 492.9375 L 852.539063 493.496094 L 852.734375 494.054688 L 852.917969 494.613281 L 853.09375 495.179688 L 853.261719 495.746094 L 853.417969 496.316406 L 853.566406 496.886719 L 853.707031 497.464844 L 853.835938 498.039063 L 853.957031 498.617188 L 854.070313 499.199219 L 854.171875 499.78125 L 854.265625 500.363281 L 854.347656 500.949219 L 854.425781 501.535156 L 854.488281 502.125 L 854.546875 502.710938 L 854.59375 503.300781 L 854.628906 503.890625 L 854.660156 504.480469 L 854.675781 505.074219 L 854.6875 505.664063 L 854.6875 506.253906 L 854.675781 506.847656 L 854.660156 507.4375 L 854.628906 508.027344 L 854.59375 508.617188 L 854.546875 509.207031 L 854.488281 509.796875 L 854.425781 510.382813 L 854.347656 510.96875 L 854.265625 511.554688 L 854.171875 512.136719 L 854.070313 512.71875 L 853.957031 513.300781 L 853.835938 513.878906 L 853.707031 514.457031 L 853.566406 515.03125 L 853.417969 515.601563 L 853.261719 516.171875 L 853.09375 516.738281 L 852.917969 517.304688 L 852.734375 517.867188 L 852.539063 518.425781 L 852.339844 518.980469 L 852.128906 519.53125 L 851.90625 520.082031 L 851.679688 520.625 L 851.441406 521.167969 L 851.195313 521.707031 L 850.941406 522.238281 L 850.679688 522.769531 L 850.410156 523.292969 L 850.128906 523.816406 L 849.84375 524.332031 L 849.546875 524.84375 L 849.242188 525.351563 L 848.933594 525.855469 L 848.613281 526.351563 L 848.285156 526.84375 L 847.949219 527.332031 L 847.605469 527.8125 L 847.257813 528.289063 L 846.898438 528.757813 L 846.53125 529.222656 L 846.160156 529.679688 L 845.78125 530.132813 L 845.394531 530.582031 L 845 531.023438 L 844.597656 531.457031 L 844.191406 531.882813 Z M 843.773438 532.304688 "/>
<path style="fill:none;stroke-width:2.25;stroke-linecap:round;stroke-linejoin:round;stroke:rgb(0%,0%,0%);stroke-opacity:1;stroke-miterlimit:10;" d="M 843.773438 480.144531 L 844.191406 479.722656 L 844.597656 479.292969 L 845 478.859375 L 845.394531 478.417969 L 845.78125 477.972656 L 846.160156 477.519531 L 846.53125 477.0625 L 846.898438 476.597656 L 847.257813 476.125 L 847.605469 475.648438 L 847.949219 475.167969 L 848.285156 474.679688 L 848.613281 474.1875 L 848.933594 473.691406 L 849.242188 473.191406 L 849.546875 472.683594 L 849.84375 472.171875 L 850.128906 471.652344 L 850.410156 471.132813 L 850.679688 470.605469 L 850.941406 470.078125 L 851.195313 469.542969 L 851.441406 469.007813 L 851.679688 468.464844 L 851.90625 467.917969 L 852.128906 467.371094 L 852.339844 466.820313 L 852.539063 466.261719 L 852.734375 465.703125 L 852.917969 465.140625 L 853.09375 464.578125 L 853.261719 464.011719 L 853.417969 463.441406 L 853.566406 462.867188 L 853.707031 462.292969 L 853.835938 461.71875 L 853.957031 461.140625 L 854.070313 460.558594 L 854.171875 459.976563 L 854.265625 459.394531 L 854.347656 458.808594 L 854.425781 458.222656 L 854.488281 457.632813 L 854.546875 457.046875 L 854.59375 456.457031 L 854.628906 455.867188 L 854.660156 455.277344 L 854.675781 454.683594 L 854.6875 454.09375 L 854.6875 453.503906 L 854.675781 452.910156 L 854.660156 452.320313 L 854.628906 451.730469 L 854.59375 451.140625 L 854.546875 450.550781 L 854.488281 449.960938 L 854.425781 449.375 L 854.347656 448.789063 L 854.265625 448.203125 L 854.171875 447.621094 L 854.070313 447.039063 L 853.957031 446.457031 L 853.835938 445.878906 L 853.707031 445.300781 L 853.566406 444.726563 L 853.417969 444.15625 L 853.261719 443.585938 L 853.09375 443.019531 L 852.917969 442.453125 L 852.734375 441.890625 L 852.539063 441.332031 L 852.339844 440.777344 L 852.128906 440.226563 L 851.90625 439.675781 L 851.679688 439.132813 L 851.441406 438.589844 L 851.195313 438.050781 L 850.941406 437.519531 L 850.679688 436.988281 L 850.410156 436.464844 L 850.128906 435.941406 L 849.84375 435.425781 L 849.546875 434.914063 L 849.242188 434.40625 L 848.933594 433.902344 L 848.613281 433.40625 L 848.285156 432.914063 L 847.949219 432.425781 L 847.605469 431.945313 L 847.257813 431.46875 L 846.898438 431 L 846.53125 430.535156 L 846.160156 430.074219 L 845.78125 429.621094 L 845.394531 429.175781 L 845 428.734375 L 844.597656 428.300781 L 844.191406 427.875 L 843.773438 427.453125 L 844.191406 427.875 L 844.597656 428.300781 L 845 428.734375 L 845.394531 429.175781 L 845.78125 429.621094 L 846.160156 430.074219 L 846.53125 430.535156 L 846.898438 431 L 847.257813 431.46875 L 847.605469 431.945313 L 847.949219 432.425781 L 848.285156 432.914063 L 848.613281 433.40625 L 848.933594 433.902344 L 849.242188 434.40625 L 849.546875 434.914063 L 849.84375 435.425781 L 850.128906 435.941406 L 850.410156 436.464844 L 850.679688 436.988281 L 850.941406 437.519531 L 851.195313 438.050781 L 851.441406 438.589844 L 851.679688 439.132813 L 851.90625 439.675781 L 852.128906 440.226563 L 852.339844 440.777344 L 852.539063 441.332031 L 852.734375 441.890625 L 852.917969 442.453125 L 853.09375 443.019531 L 853.261719 443.585938 L 853.417969 444.15625 L 853.566406 444.726563 L 853.707031 445.300781 L 853.835938 445.878906 L 853.957031 446.457031 L 854.070313 447.039063 L 854.171875 447.621094 L 854.265625 448.203125 L 854.347656 448.789063 L 854.425781 449.375 L 854.488281 449.960938 L 854.546875 450.550781 L 854.59375 451.140625 L 854.628906 451.730469 L 854.660156 452.320313 L 854.675781 452.910156 L 854.6875 453.503906 L 854.6875 454.09375 L 854.675781 454.683594 L 854.660156 455.277344 L 854.628906 455.867188 L 854.59375 456.457031 L 854.546875 457.046875 L 854.488281 457.632813 L 854.425781 458.222656 L 854.347656 458.808594 L 854.265625 459.394531 L 854.171875 459.976563 L 854.070313 460.558594 L 853.957031 461.140625 L 853.835938 461.71875 L 853.707031 462.292969 L 853.566406 462.867188 L 853.417969 463.441406 L 853.261719 464.011719 L 853.09375 464.578125 L 852.917969 465.140625 L 852.734375 465.703125 L 852.539063 466.261719 L 852.339844 466.820313 L 852.128906 467.371094 L 851.90625 467.917969 L 851.679688 468.464844 L 851.441406 469.007813 L 851.195313 469.542969 L 850.941406 470.078125 L 850.679688 470.605469 L 850.410156 471.132813 L 850.128906 471.652344 L 849.84375 472.171875 L 849.546875 472.683594 L 849.242188 473.191406 L 848.933594 473.691406 L 848.613281 474.1875 L 848.285156 474.679688 L 847.949219 475.167969 L 847.605469 475.648438 L 847.257813 476.125 L 846.898438 476.597656 L 846.53125 477.0625 L 846.160156 477.519531 L 845.78125 477.972656 L 845.394531 478.417969 L 845 478.859375 L 844.597656 479.292969 L 844.191406 479.722656 Z M 843.773438 480.144531 "/>
<path style="fill:none;stroke-width:2.25;stroke-linecap:round;stroke-linejoin:round;stroke:rgb(0%,0%,0%);stroke-opacity:1;stroke-miterlimit:10;" d="M 843.742188 479.613281 L 843.328125 480.035156 L 842.917969 480.464844 L 842.519531 480.898438 L 842.125 481.339844 L 841.738281 481.785156 L 841.355469 482.238281 L 840.984375 482.695313 L 840.617188 483.160156 L 840.261719 483.632813 L 839.910156 484.109375 L 839.566406 484.589844 L 839.230469 485.074219 L 838.90625 485.566406 L 838.585938 486.066406 L 838.273438 486.566406 L 837.96875 487.074219 L 837.675781 487.585938 L 837.386719 488.105469 L 837.109375 488.625 L 836.835938 489.148438 L 836.574219 489.679688 L 836.320313 490.214844 L 836.074219 490.75 L 835.835938 491.292969 L 835.609375 491.839844 L 835.390625 492.386719 L 835.179688 492.9375 L 834.976563 493.496094 L 834.78125 494.054688 L 834.597656 494.613281 L 834.421875 495.179688 L 834.257813 495.746094 L 834.097656 496.316406 L 833.949219 496.886719 L 833.8125 497.464844 L 833.679688 498.039063 L 833.558594 498.617188 L 833.449219 499.199219 L 833.34375 499.78125 L 833.25 500.363281 L 833.167969 500.949219 L 833.09375 501.535156 L 833.027344 502.125 L 832.972656 502.710938 L 832.925781 503.300781 L 832.886719 503.890625 L 832.859375 504.480469 L 832.839844 505.074219 L 832.832031 505.664063 L 832.832031 506.253906 L 832.839844 506.847656 L 832.859375 507.4375 L 832.886719 508.027344 L 832.925781 508.617188 L 832.972656 509.207031 L 833.027344 509.796875 L 833.09375 510.382813 L 833.167969 510.96875 L 833.25 511.554688 L 833.34375 512.136719 L 833.449219 512.71875 L 833.558594 513.300781 L 833.679688 513.878906 L 833.8125 514.457031 L 833.949219 515.03125 L 834.097656 515.601563 L 834.257813 516.171875 L 834.421875 516.738281 L 834.597656 517.304688 L 834.78125 517.867188 L 834.976563 518.425781 L 835.179688 518.980469 L 835.390625 519.53125 L 835.609375 520.082031 L 835.835938 520.625 L 836.074219 521.167969 L 836.320313 521.707031 L 836.574219 522.238281 L 836.835938 522.769531 L 837.109375 523.292969 L 837.386719 523.816406 L 837.675781 524.332031 L 837.96875 524.84375 L 838.273438 525.351563 L 838.585938 525.855469 L 838.90625 526.351563 L 839.230469 526.84375 L 839.566406 527.332031 L 839.910156 527.8125 L 840.261719 528.289063 L 840.617188 528.757813 L 840.984375 529.222656 L 841.355469 529.679688 L 841.738281 530.132813 L 842.125 530.582031 L 842.519531 531.023438 L 842.917969 531.457031 L 843.328125 531.882813 L 843.742188 532.304688 L 843.328125 531.882813 L 842.917969 531.457031 L 842.519531 531.023438 L 842.125 530.582031 L 841.738281 530.132813 L 841.355469 529.679688 L 840.984375 529.222656 L 840.617188 528.757813 L 840.261719 528.289063 L 839.910156 527.8125 L 839.566406 527.332031 L 839.230469 526.84375 L 838.90625 526.351563 L 838.585938 525.855469 L 838.273438 525.351563 L 837.96875 524.84375 L 837.675781 524.332031 L 837.386719 523.816406 L 837.109375 523.292969 L 836.835938 522.769531 L 836.574219 522.238281 L 836.320313 521.707031 L 836.074219 521.167969 L 835.835938 520.625 L 835.609375 520.082031 L 835.390625 519.53125 L 835.179688 518.980469 L 834.976563 518.425781 L 834.78125 517.867188 L 834.597656 517.304688 L 834.421875 516.738281 L 834.257813 516.171875 L 834.097656 515.601563 L 833.949219 515.03125 L 833.8125 514.457031 L 833.679688 513.878906 L 833.558594 513.300781 L 833.449219 512.71875 L 833.34375 512.136719 L 833.25 511.554688 L 833.167969 510.96875 L 833.09375 510.382813 L 833.027344 509.796875 L 832.972656 509.207031 L 832.925781 508.617188 L 832.886719 508.027344 L 832.859375 507.4375 L 832.839844 506.847656 L 832.832031 506.253906 L 832.832031 505.664063 L 832.839844 505.074219 L 832.859375 504.480469 L 832.886719 503.890625 L 832.925781 503.300781 L 832.972656 502.710938 L 833.027344 502.125 L 833.09375 501.535156 L 833.167969 500.949219 L 833.25 500.363281 L 833.34375 499.78125 L 833.449219 499.199219 L 833.558594 498.617188 L 833.679688 498.039063 L 833.8125 497.464844 L 833.949219 496.886719 L 834.097656 496.316406 L 834.257813 495.746094 L 834.421875 495.179688 L 834.597656 494.613281 L 834.78125 494.054688 L 834.976563 493.496094 L 835.179688 492.9375 L 835.390625 492.386719 L 835.609375 491.839844 L 835.835938 491.292969 L 836.074219 490.75 L 836.320313 490.214844 L 836.574219 489.679688 L 836.835938 489.148438 L 837.109375 488.625 L 837.386719 488.105469 L 837.675781 487.585938 L 837.96875 487.074219 L 838.273438 486.566406 L 838.585938 486.066406 L 838.90625 485.566406 L 839.230469 485.074219 L 839.566406 484.589844 L 839.910156 484.109375 L 840.261719 483.632813 L 840.617188 483.160156 L 840.984375 482.695313 L 841.355469 482.238281 L 841.738281 481.785156 L 842.125 481.339844 L 842.519531 480.898438 L 842.917969 480.464844 L 843.328125 480.035156 Z M 843.742188 479.613281 "/>
<path style="fill:none;stroke-width:2.25;stroke-linecap:round;stroke-linejoin:round;stroke:rgb(0%,0%,0%);stroke-opacity:1;stroke-miterlimit:10;" d="M 882.011719 441.378906 L 881.414063 440.792969 L 880.808594 440.214844 L 880.195313 439.648438 L 879.570313 439.089844 L 878.941406 438.542969 L 878.300781 438.003906 L 877.652344 437.476563 L 876.992188 436.960938 L 876.328125 436.457031 L 875.65625 435.960938 L 874.972656 435.476563 L 874.285156 435 L 873.589844 434.539063 L 872.886719 434.085938 L 872.175781 433.644531 L 871.457031 433.214844 L 870.734375 432.796875 L 870.003906 432.390625 L 869.265625 431.996094 L 868.523438 431.613281 L 867.773438 431.242188 L 867.019531 430.882813 L 866.261719 430.535156 L 865.492188 430.199219 L 864.722656 429.875 L 863.945313 429.566406 L 863.164063 429.269531 L 862.378906 428.980469 L 861.589844 428.707031 L 860.796875 428.449219 L 859.996094 428.199219 L 859.195313 427.964844 L 858.390625 427.742188 L 857.582031 427.53125 L 856.769531 427.332031 L 855.953125 427.148438 L 855.132813 426.976563 L 854.3125 426.820313 L 853.488281 426.675781 L 852.664063 426.542969 L 851.835938 426.425781 L 851.007813 426.316406 L 850.175781 426.226563 L 849.34375 426.144531 L 848.511719 426.078125 L 847.675781 426.027344 L 846.839844 425.988281 L 846.007813 425.960938 L 845.171875 425.945313 L 844.335938 425.945313 L 843.5 425.960938 L 842.664063 425.988281 L 841.828125 426.027344 L 840.992188 426.078125 L 840.160156 426.144531 L 839.328125 426.226563 L 838.496094 426.316406 L 837.667969 426.425781 L 836.839844 426.542969 L 836.015625 426.675781 L 835.191406 426.820313 L 834.371094 426.976563 L 833.550781 427.148438 L 832.734375 427.332031 L 831.921875 427.53125 L 831.113281 427.742188 L 830.308594 427.964844 L 829.507813 428.199219 L 828.707031 428.449219 L 827.914063 428.707031 L 827.125 428.980469 L 826.339844 429.269531 L 825.558594 429.566406 L 824.78125 429.875 L 824.011719 430.199219 L 823.246094 430.535156 L 822.484375 430.882813 L 821.730469 431.242188 L 820.980469 431.613281 L 820.238281 431.996094 L 819.5 432.390625 L 818.769531 432.796875 L 818.046875 433.214844 L 817.328125 433.644531 L 816.617188 434.085938 L 815.914063 434.539063 L 815.21875 435 L 814.53125 435.476563 L 813.847656 435.960938 L 813.175781 436.457031 L 812.511719 436.960938 L 811.851563 437.476563 L 811.203125 438.003906 L 810.5625 438.542969 L 809.933594 439.089844 L 809.308594 439.648438 L 808.695313 440.214844 L 808.089844 440.792969 L 807.492188 441.378906 L 844.753906 478.636719 Z M 882.011719 441.378906 "/>
<path style="fill:none;stroke-width:2.25;stroke-linecap:round;stroke-linejoin:round;stroke:rgb(0%,0%,0%);stroke-opacity:1;stroke-miterlimit:10;" d="M 807.492188 441.378906 L 806.90625 441.972656 L 806.332031 442.578125 L 805.761719 443.195313 L 805.207031 443.816406 L 804.65625 444.449219 L 804.121094 445.089844 L 803.59375 445.738281 L 803.078125 446.394531 L 802.570313 447.058594 L 802.074219 447.734375 L 801.589844 448.414063 L 801.117188 449.101563 L 800.652344 449.800781 L 800.199219 450.503906 L 799.761719 451.210938 L 799.332031 451.929688 L 798.914063 452.652344 L 798.507813 453.382813 L 798.109375 454.121094 L 797.726563 454.863281 L 797.355469 455.613281 L 796.996094 456.367188 L 796.648438 457.128906 L 796.316406 457.894531 L 795.992188 458.664063 L 795.679688 459.441406 L 795.382813 460.222656 L 795.097656 461.007813 L 794.824219 461.796875 L 794.5625 462.59375 L 794.316406 463.390625 L 794.078125 464.195313 L 793.855469 465 L 793.644531 465.808594 L 793.449219 466.621094 L 793.265625 467.4375 L 793.09375 468.253906 L 792.933594 469.074219 L 792.789063 469.898438 L 792.660156 470.722656 L 792.539063 471.550781 L 792.433594 472.382813 L 792.339844 473.210938 L 792.261719 474.042969 L 792.195313 474.878906 L 792.140625 475.710938 L 792.101563 476.546875 L 792.074219 477.382813 L 792.0625 478.21875 L 792.0625 479.054688 L 792.074219 479.890625 L 792.101563 480.726563 L 792.140625 481.5625 L 792.195313 482.394531 L 792.261719 483.230469 L 792.339844 484.0625 L 792.433594 484.890625 L 792.539063 485.722656 L 792.660156 486.550781 L 792.789063 487.375 L 792.933594 488.199219 L 793.09375 489.019531 L 793.265625 489.835938 L 793.449219 490.652344 L 793.644531 491.464844 L 793.855469 492.273438 L 794.078125 493.082031 L 794.316406 493.882813 L 794.5625 494.679688 L 794.824219 495.476563 L 795.097656 496.265625 L 795.382813 497.050781 L 795.679688 497.832031 L 795.992188 498.609375 L 796.316406 499.378906 L 796.648438 500.144531 L 796.996094 500.90625 L 797.355469 501.660156 L 797.726563 502.410156 L 798.109375 503.152344 L 798.507813 503.890625 L 798.914063 504.621094 L 799.332031 505.34375 L 799.761719 506.0625 L 800.199219 506.769531 L 800.652344 507.472656 L 801.117188 508.171875 L 801.589844 508.859375 L 802.074219 509.539063 L 802.570313 510.214844 L 803.078125 510.878906 L 803.59375 511.535156 L 804.121094 512.183594 L 804.65625 512.824219 L 805.207031 513.457031 L 805.761719 514.082031 L 806.332031 514.695313 L 806.90625 515.300781 L 807.492188 515.894531 L 844.753906 478.636719 Z M 807.492188 441.378906 "/>
<path style="fill:none;stroke-width:2.25;stroke-linecap:round;stroke-linejoin:round;stroke:rgb(0%,0%,0%);stroke-opacity:1;stroke-miterlimit:10;" d="M 807.492188 515.894531 L 808.089844 516.480469 L 808.695313 517.058594 L 809.308594 517.625 L 809.933594 518.183594 L 810.5625 518.730469 L 811.203125 519.269531 L 811.851563 519.796875 L 812.511719 520.3125 L 813.175781 520.816406 L 813.847656 521.3125 L 814.53125 521.800781 L 815.21875 522.273438 L 815.914063 522.734375 L 816.617188 523.1875 L 817.328125 523.628906 L 818.046875 524.058594 L 818.769531 524.476563 L 819.5 524.882813 L 820.238281 525.277344 L 820.980469 525.660156 L 821.730469 526.03125 L 822.484375 526.390625 L 823.246094 526.738281 L 824.011719 527.074219 L 824.78125 527.398438 L 825.558594 527.707031 L 826.339844 528.003906 L 827.125 528.292969 L 827.914063 528.566406 L 828.707031 528.824219 L 829.507813 529.074219 L 830.308594 529.308594 L 831.113281 529.53125 L 831.921875 529.742188 L 832.734375 529.941406 L 833.550781 530.125 L 834.371094 530.296875 L 835.191406 530.453125 L 836.015625 530.597656 L 836.839844 530.730469 L 837.667969 530.847656 L 838.496094 530.957031 L 839.328125 531.046875 L 840.160156 531.128906 L 840.992188 531.195313 L 841.828125 531.246094 L 842.664063 531.285156 L 843.5 531.3125 L 844.335938 531.328125 L 845.171875 531.328125 L 846.007813 531.3125 L 846.839844 531.285156 L 847.675781 531.246094 L 848.511719 531.195313 L 849.34375 531.128906 L 850.175781 531.046875 L 851.007813 530.957031 L 851.835938 530.847656 L 852.664063 530.730469 L 853.488281 530.597656 L 854.3125 530.453125 L 855.132813 530.296875 L 855.953125 530.125 L 856.769531 529.941406 L 857.582031 529.742188 L 858.390625 529.53125 L 859.195313 529.308594 L 859.996094 529.074219 L 860.796875 528.824219 L 861.589844 528.566406 L 862.378906 528.292969 L 863.164063 528.003906 L 863.945313 527.707031 L 864.722656 527.398438 L 865.492188 527.074219 L 866.261719 526.738281 L 867.019531 526.390625 L 867.773438 526.03125 L 868.523438 525.660156 L 869.265625 525.277344 L 870.003906 524.882813 L 870.734375 524.476563 L 871.457031 524.058594 L 872.175781 523.628906 L 872.886719 523.1875 L 873.589844 522.734375 L 874.285156 522.273438 L 874.972656 521.800781 L 875.65625 521.3125 L 876.328125 520.816406 L 876.992188 520.3125 L 877.652344 519.796875 L 878.300781 519.269531 L 878.941406 518.730469 L 879.570313 518.183594 L 880.195313 517.625 L 880.808594 517.058594 L 881.414063 516.480469 L 882.011719 515.894531 L 844.753906 478.636719 Z M 807.492188 515.894531 "/>
<path style="fill:none;stroke-width:2.25;stroke-linecap:round;stroke-linejoin:round;stroke:rgb(0%,0%,0%);stroke-opacity:1;stroke-miterlimit:10;" d="M 882.011719 515.894531 L 882.597656 515.300781 L 883.171875 514.695313 L 883.742188 514.082031 L 884.296875 513.457031 L 884.847656 512.824219 L 885.382813 512.183594 L 885.910156 511.535156 L 886.425781 510.878906 L 886.933594 510.214844 L 887.429688 509.539063 L 887.914063 508.859375 L 888.386719 508.171875 L 888.851563 507.472656 L 889.304688 506.769531 L 889.742188 506.0625 L 890.171875 505.34375 L 890.589844 504.621094 L 890.996094 503.890625 L 891.394531 503.152344 L 891.777344 502.410156 L 892.148438 501.660156 L 892.507813 500.90625 L 892.855469 500.144531 L 893.1875 499.378906 L 893.511719 498.609375 L 893.824219 497.832031 L 894.121094 497.050781 L 894.40625 496.265625 L 894.679688 495.476563 L 894.941406 494.679688 L 895.191406 493.882813 L 895.425781 493.082031 L 895.648438 492.273438 L 895.859375 491.464844 L 896.054688 490.652344 L 896.238281 489.835938 L 896.410156 489.019531 L 896.570313 488.199219 L 896.714844 487.375 L 896.847656 486.550781 L 896.964844 485.722656 L 897.070313 484.890625 L 897.164063 484.0625 L 897.242188 483.230469 L 897.308594 482.394531 L 897.363281 481.5625 L 897.402344 480.726563 L 897.429688 479.890625 L 897.441406 479.054688 L 897.441406 478.21875 L 897.429688 477.382813 L 897.402344 476.546875 L 897.363281 475.710938 L 897.308594 474.878906 L 897.242188 474.042969 L 897.164063 473.210938 L 897.070313 472.382813 L 896.964844 471.550781 L 896.847656 470.722656 L 896.714844 469.898438 L 896.570313 469.074219 L 896.410156 468.253906 L 896.238281 467.4375 L 896.054688 466.621094 L 895.859375 465.808594 L 895.648438 465 L 895.425781 464.195313 L 895.191406 463.390625 L 894.941406 462.59375 L 894.679688 461.796875 L 894.40625 461.007813 L 894.121094 460.222656 L 893.824219 459.441406 L 893.511719 458.664063 L 893.1875 457.894531 L 892.855469 457.128906 L 892.507813 456.367188 L 892.148438 455.613281 L 891.777344 454.863281 L 891.394531 454.121094 L 890.996094 453.382813 L 890.589844 452.652344 L 890.171875 451.929688 L 889.742188 451.210938 L 889.304688 450.503906 L 888.851563 449.800781 L 888.386719 449.101563 L 887.914063 448.414063 L 887.429688 447.734375 L 886.933594 447.058594 L 886.425781 446.394531 L 885.910156 445.738281 L 885.382813 445.089844 L 884.847656 444.449219 L 884.296875 443.816406 L 883.742188 443.195313 L 883.171875 442.578125 L 882.597656 441.972656 L 882.011719 441.378906 L 844.753906 478.636719 Z M 882.011719 515.894531 "/>
</g>
</svg>
