<?xml version="1.0" encoding="UTF-8"?>
<svg xmlns="http://www.w3.org/2000/svg" xmlns:xlink="http://www.w3.org/1999/xlink" width="1008pt" height="612pt" viewBox="0 0 1008 612" version="1.1">
<g id="surface46">
<rect x="0" y="0" width="1008" height="612" style="fill:rgb(100%,100%,100%);fill-opacity:1;stroke:none;"/>
<path style="fill-rule:nonzero;fill:rgb(74.509804%,74.509804%,74.509804%);fill-opacity:1;stroke-width:2.25;stroke-linecap:round;stroke-linejoin:round;stroke:rgb(0%,0%,0%);stroke-opacity:1;stroke-miterlimit:10;" d="M 273.132813 23.480469 L 125.59375 23.480469 L 125.59375 171.015625 L 273.132813 171.015625 Z M 273.132813 23.480469 "/>
<path style="fill-rule:nonzero;fill:rgb(100%,100%,100%);fill-opacity:1;stroke-width:2.25;stroke-linecap:round;stroke-linejoin:round;stroke:rgb(0%,0%,0%);stroke-opacity:1;stroke-miterlimit:10;" d="M 199.363281 42.050781 L 127.605469 97.246094 L 199.363281 152.445313 L 271.121094 97.246094 Z M 199.363281 42.050781 "/>
<path style="fill-rule:nonzero;fill:rgb(74.509804%,74.509804%,74.509804%);fill-opacity:1;stroke-width:2.25;stroke-linecap:round;stroke-linejoin:round;stroke:rgb(0%,0%,0%);stroke-opacity:1;stroke-miterlimit:10;" d="M 595.824219 23.480469 L 448.289063 23.480469 L 448.289063 171.015625 L 595.824219 171.015625 Z M 595.824219 23.480469 "/>
<path style="fill-rule:nonzero;fill:rgb(100%,100%,100%);fill-opacity:1;stroke-width:2.25;stroke-linecap:round;stroke-linejoin:round;stroke:rgb(0%,0%,0%);stroke-opacity:1;stroke-miterlimit:10;" d="M 547.425781 71.878906 L 512.773438 62.59375 L 487.402344 87.960938 L 496.6875 122.617188 L 531.34375 131.902344 L 556.714844 106.535156 Z M 547.425781 71.878906 "/>
<path style="fill-rule:nonzero;fill:rgb(74.509804%,74.509804%,74.509804%);fill-opacity:1;stroke-width:2.25;stroke-linecap:round;stroke-linejoin:round;stroke:rgb(0%,0%,0%);stroke-opacity:1;stroke-miterlimit:10;" d="M 918.519531 23.480469 L 770.984375 23.480469 L 770.984375 171.015625 L 918.519531 171.015625 Z M 918.519531 23.480469 "/>
<path style="fill-rule:nonzero;fill:rgb(100%,100%,100%);fill-opacity:1;stroke-width:2.25;stroke-linecap:round;stroke-linejoin:round;stroke:rgb(0%,0%,0%);stroke-opacity:1;stroke-miterlimit:10;" d="M 827.839844 80.335938 L 827.574219 80.605469 L 827.3125 80.878906 L 827.054688 81.160156 L 826.800781 81.441406 L 826.550781 81.726563 L 826.066406 82.3125 L 825.832031 82.613281 L 825.605469 82.914063 L 825.378906 83.21875 L 825.160156 83.527344 L 824.945313 83.839844 L 824.734375 84.15625 L 824.527344 84.476563 L 824.328125 84.800781 L 824.132813 85.125 L 823.945313 85.453125 L 823.757813 85.785156 L 823.578125 86.121094 L 823.40625 86.457031 L 823.238281 86.796875 L 823.074219 87.140625 L 822.917969 87.484375 L 822.765625 87.832031 L 822.617188 88.183594 L 822.476563 88.535156 L 822.339844 88.890625 L 822.210938 89.246094 L 822.085938 89.605469 L 821.96875 89.964844 L 821.855469 90.328125 L 821.75 90.691406 L 821.648438 91.058594 L 821.554688 91.425781 L 821.464844 91.792969 L 821.378906 92.164063 L 821.300781 92.535156 L 821.230469 92.90625 L 821.164063 93.28125 L 821.105469 93.65625 L 821.050781 94.03125 L 821.003906 94.410156 L 820.960938 94.785156 L 820.925781 95.164063 L 820.894531 95.542969 L 820.871094 95.921875 L 820.851563 96.300781 L 820.839844 96.679688 L 820.832031 97.058594 L 820.832031 97.4375 L 820.839844 97.816406 L 820.851563 98.195313 L 820.871094 98.574219 L 820.894531 98.953125 L 820.925781 99.332031 L 820.960938 99.710938 L 821.003906 100.085938 L 821.050781 100.464844 L 821.105469 100.839844 L 821.164063 101.214844 L 821.230469 101.589844 L 821.300781 101.960938 L 821.378906 102.332031 L 821.464844 102.703125 L 821.554688 103.070313 L 821.648438 103.4375 L 821.75 103.804688 L 821.855469 104.167969 L 821.96875 104.53125 L 822.085938 104.890625 L 822.210938 105.25 L 822.339844 105.605469 L 822.476563 105.960938 L 822.617188 106.3125 L 822.765625 106.664063 L 822.917969 107.011719 L 823.074219 107.355469 L 823.238281 107.699219 L 823.40625 108.039063 L 823.578125 108.375 L 823.757813 108.710938 L 823.945313 109.042969 L 824.132813 109.371094 L 824.328125 109.695313 L 824.527344 110.019531 L 824.734375 110.339844 L 824.945313 110.65625 L 825.160156 110.96875 L 825.378906 111.277344 L 825.605469 111.582031 L 825.832031 111.882813 L 826.066406 112.183594 L 826.550781 112.769531 L 826.800781 113.054688 L 827.054688 113.335938 L 827.3125 113.617188 L 827.574219 113.890625 L 827.839844 114.160156 L 844.753906 97.246094 Z M 827.839844 80.335938 "/>
<path style="fill-rule:nonzero;fill:rgb(74.509804%,74.509804%,74.509804%);fill-opacity:1;stroke-width:2.25;stroke-linecap:round;stroke-linejoin:round;stroke:rgb(0%,0%,0%);stroke-opacity:1;stroke-miterlimit:10;" d="M 273.132813 214.175781 L 125.59375 214.175781 L 125.59375 361.710938 L 273.132813 361.710938 Z M 273.132813 214.175781 "/>
<path style="fill-rule:nonzero;fill:rgb(100%,100%,100%);fill-opacity:1;stroke-width:2.25;stroke-linecap:round;stroke-linejoin:round;stroke:rgb(0%,0%,0%);stroke-opacity:1;stroke-miterlimit:10;" d="M 271.121094 287.941406 L 235.242188 225.800781 L 163.484375 225.800781 L 127.605469 287.941406 L 163.484375 350.085938 L 235.242188 350.085938 Z M 271.121094 287.941406 "/>
<path style="fill-rule:nonzero;fill:rgb(74.509804%,74.509804%,74.509804%);fill-opacity:1;stroke-width:2.25;stroke-linecap:round;stroke-linejoin:round;stroke:rgb(0%,0%,0%);stroke-opacity:1;stroke-miterlimit:10;" d="M 595.824219 214.175781 L 448.289063 214.175781 L 448.289063 361.710938 L 595.824219 361.710938 Z M 595.824219 214.175781 "/>
<path style="fill-rule:nonzero;fill:rgb(100%,100%,100%);fill-opacity:1;stroke-width:2.25;stroke-linecap:round;stroke-linejoin:round;stroke:rgb(0%,0%,0%);stroke-opacity:1;stroke-miterlimit:10;" d="M 522.058594 252.0625 L 521.488281 252.070313 L 520.917969 252.082031 L 520.351563 252.105469 L 519.78125 252.136719 L 519.214844 252.175781 L 518.648438 252.226563 L 518.082031 252.285156 L 517.515625 252.351563 L 516.953125 252.429688 L 516.390625 252.515625 L 515.828125 252.609375 L 515.265625 252.710938 L 514.710938 252.824219 L 514.152344 252.945313 L 513.597656 253.074219 L 513.046875 253.214844 L 512.496094 253.359375 L 511.949219 253.515625 L 511.40625 253.683594 L 510.863281 253.855469 L 510.324219 254.039063 L 509.785156 254.226563 L 509.253906 254.425781 L 508.722656 254.632813 L 508.195313 254.851563 L 507.671875 255.074219 L 507.152344 255.304688 L 506.636719 255.546875 L 506.125 255.796875 L 505.617188 256.050781 L 505.113281 256.316406 L 504.613281 256.589844 L 504.117188 256.871094 L 503.628906 257.160156 L 503.140625 257.457031 L 502.660156 257.757813 L 502.183594 258.070313 L 501.710938 258.390625 L 501.246094 258.714844 L 500.785156 259.050781 L 500.328125 259.390625 L 499.878906 259.738281 L 499.433594 260.09375 L 498.996094 260.457031 L 498.5625 260.828125 L 498.136719 261.203125 L 497.714844 261.585938 L 497.296875 261.976563 L 496.890625 262.371094 L 496.488281 262.773438 L 496.089844 263.183594 L 495.703125 263.597656 L 495.320313 264.019531 L 494.941406 264.445313 L 494.574219 264.878906 L 494.210938 265.320313 L 493.855469 265.765625 L 493.507813 266.214844 L 493.164063 266.667969 L 492.832031 267.132813 L 492.503906 267.597656 L 492.1875 268.070313 L 491.875 268.546875 L 491.570313 269.027344 L 491.273438 269.511719 L 490.984375 270.003906 L 490.707031 270.5 L 490.433594 271 L 490.167969 271.503906 L 489.910156 272.011719 L 489.660156 272.523438 L 489.421875 273.039063 L 489.1875 273.558594 L 488.964844 274.082031 L 488.75 274.609375 L 488.542969 275.136719 L 488.34375 275.671875 L 488.152344 276.207031 L 487.96875 276.746094 L 487.796875 277.289063 L 487.632813 277.835938 L 487.476563 278.382813 L 487.328125 278.929688 L 487.191406 279.484375 L 487.0625 280.039063 L 486.941406 280.59375 L 486.828125 281.152344 L 486.722656 281.710938 L 486.628906 282.273438 L 486.542969 282.835938 L 486.46875 283.402344 L 486.398438 283.964844 L 486.339844 284.53125 L 486.292969 285.097656 L 486.25 285.667969 L 486.21875 286.234375 L 486.199219 286.804688 L 486.183594 287.375 L 486.179688 287.941406 L 522.058594 287.941406 Z M 522.058594 252.0625 "/>
<path style="fill-rule:nonzero;fill:rgb(74.509804%,74.509804%,74.509804%);fill-opacity:1;stroke-width:2.25;stroke-linecap:round;stroke-linejoin:round;stroke:rgb(0%,0%,0%);stroke-opacity:1;stroke-miterlimit:10;" d="M 918.519531 214.175781 L 770.984375 214.175781 L 770.984375 361.710938 L 918.519531 361.710938 Z M 918.519531 214.175781 "/>
<path style="fill-rule:nonzero;fill:rgb(100%,100%,100%);fill-opacity:1;stroke-width:2.25;stroke-linecap:round;stroke-linejoin:round;stroke:rgb(0%,0%,0%);stroke-opacity:1;stroke-miterlimit:10;" d="M 826.351563 287.941406 L 844.753906 311.863281 L 863.152344 287.941406 L 844.753906 264.023438 Z M 826.351563 287.941406 "/>
<path style="fill-rule:nonzero;fill:rgb(74.509804%,74.509804%,74.509804%);fill-opacity:1;stroke-width:2.25;stroke-linecap:round;stroke-linejoin:round;stroke:rgb(0%,0%,0%);stroke-opacity:1;stroke-miterlimit:10;" d="M 273.132813 404.867188 L 125.59375 404.867188 L 125.59375 552.40625 L 273.132813 552.40625 Z M 273.132813 404.867188 "/>
<path style="fill-rule:nonzero;fill:rgb(100%,100%,100%);fill-opacity:1;stroke-width:2.25;stroke-linecap:round;stroke-linejoin:round;stroke:rgb(0%,0%,0%);stroke-opacity:1;stroke-miterlimit:10;" d="M 250.101563 427.898438 L 249.292969 427.097656 L 248.46875 426.3125 L 247.632813 425.539063 L 246.78125 424.78125 L 245.921875 424.035156 L 245.050781 423.304688 L 244.167969 422.585938 L 243.269531 421.882813 L 242.367188 421.191406 L 241.449219 420.515625 L 240.519531 419.855469 L 239.582031 419.210938 L 238.636719 418.582031 L 237.675781 417.964844 L 236.710938 417.363281 L 235.734375 416.78125 L 234.746094 416.210938 L 233.753906 415.65625 L 232.75 415.121094 L 231.738281 414.597656 L 230.71875 414.09375 L 229.6875 413.601563 L 228.652344 413.128906 L 227.609375 412.671875 L 226.558594 412.234375 L 225.503906 411.8125 L 224.441406 411.402344 L 223.371094 411.015625 L 222.292969 410.640625 L 221.210938 410.289063 L 220.125 409.949219 L 219.03125 409.628906 L 217.933594 409.324219 L 216.832031 409.039063 L 215.726563 408.769531 L 214.617188 408.519531 L 213.5 408.285156 L 212.382813 408.070313 L 211.261719 407.875 L 210.136719 407.695313 L 209.011719 407.53125 L 207.882813 407.386719 L 206.75 407.261719 L 205.617188 407.152344 L 204.480469 407.0625 L 203.347656 406.992188 L 202.207031 406.9375 L 201.070313 406.898438 L 199.933594 406.882813 L 198.792969 406.882813 L 197.65625 406.898438 L 196.519531 406.9375 L 195.378906 406.992188 L 194.242188 407.0625 L 193.109375 407.152344 L 191.976563 407.261719 L 190.84375 407.386719 L 189.714844 407.53125 L 188.589844 407.695313 L 187.464844 407.875 L 186.34375 408.070313 L 185.222656 408.285156 L 184.109375 408.519531 L 183 408.769531 L 181.894531 409.039063 L 180.792969 409.324219 L 179.695313 409.628906 L 178.601563 409.949219 L 177.515625 410.289063 L 176.433594 410.640625 L 175.355469 411.015625 L 174.285156 411.402344 L 173.222656 411.8125 L 172.167969 412.234375 L 171.117188 412.671875 L 170.074219 413.128906 L 169.039063 413.601563 L 168.007813 414.09375 L 166.988281 414.597656 L 165.976563 415.121094 L 164.972656 415.65625 L 163.980469 416.210938 L 162.992188 416.78125 L 162.015625 417.363281 L 161.046875 417.964844 L 160.089844 418.582031 L 159.144531 419.210938 L 158.207031 419.855469 L 157.277344 420.515625 L 156.359375 421.191406 L 155.453125 421.882813 L 154.558594 422.585938 L 153.675781 423.304688 L 152.804688 424.035156 L 151.945313 424.78125 L 151.09375 425.539063 L 150.257813 426.3125 L 149.433594 427.097656 L 148.625 427.898438 L 199.363281 478.636719 Z M 250.101563 427.898438 "/>
<path style="fill-rule:nonzero;fill:rgb(74.509804%,74.509804%,74.509804%);fill-opacity:1;stroke-width:2.25;stroke-linecap:round;stroke-linejoin:round;stroke:rgb(0%,0%,0%);stroke-opacity:1;stroke-miterlimit:10;" d="M 595.824219 404.867188 L 448.289063 404.867188 L 448.289063 552.40625 L 595.824219 552.40625 Z M 595.824219 404.867188 "/>
<path style="fill-rule:nonzero;fill:rgb(100%,100%,100%);fill-opacity:1;stroke-width:2.25;stroke-linecap:round;stroke-linejoin:round;stroke:rgb(0%,0%,0%);stroke-opacity:1;stroke-miterlimit:10;" d="M 502.542969 459.121094 L 496.6875 504.007813 L 541.574219 498.152344 L 547.425781 453.265625 Z M 502.542969 459.121094 "/>
</g>
</svg>
