<?xml version="1.0" encoding="UTF-8"?>
<svg xmlns="http://www.w3.org/2000/svg" xmlns:xlink="http://www.w3.org/1999/xlink" width="1008pt" height="612pt" viewBox="0 0 1008 612" version="1.1">
<g id="surface219">
<rect x="0" y="0" width="1008" height="612" style="fill:rgb(100%,100%,100%);fill-opacity:1;stroke:none;"/>
<path style="fill:none;stroke-width:2.25;stroke-linecap:round;stroke-linejoin:round;stroke:rgb(0%,0%,0%);stroke-opacity:1;stroke-miterlimit:10;" d="M 199.363281 42.050781 L 116.566406 97.246094 L 199.363281 152.445313 L 282.160156 97.246094 Z M 199.363281 42.050781 "/>
<path style="fill:none;stroke-width:2.25;stroke-linecap:round;stroke-linejoin:round;stroke:rgb(0%,0%,0%);stroke-opacity:1;stroke-miterlimit:10;" d="M 551.332031 67.976563 L 511.34375 57.261719 L 482.070313 86.535156 L 492.785156 126.519531 L 532.773438 137.234375 L 562.046875 107.960938 Z M 551.332031 67.976563 "/>
<path style="fill:none;stroke-width:2.25;stroke-linecap:round;stroke-linejoin:round;stroke:rgb(0%,0%,0%);stroke-opacity:1;stroke-miterlimit:10;" d="M 830.953125 83.449219 L 830.734375 83.667969 L 830.3125 84.121094 L 830.105469 84.351563 L 829.902344 84.585938 L 829.703125 84.824219 L 829.507813 85.0625 L 829.316406 85.304688 L 829.128906 85.554688 L 828.945313 85.800781 L 828.765625 86.054688 L 828.589844 86.308594 L 828.417969 86.566406 L 828.25 86.828125 L 828.089844 87.089844 L 827.929688 87.355469 L 827.773438 87.625 L 827.625 87.894531 L 827.476563 88.167969 L 827.335938 88.445313 L 827.199219 88.722656 L 827.066406 89 L 826.9375 89.28125 L 826.8125 89.566406 L 826.691406 89.851563 L 826.578125 90.140625 L 826.359375 90.71875 L 826.164063 91.304688 L 826.070313 91.601563 L 825.984375 91.898438 L 825.902344 92.195313 L 825.824219 92.496094 L 825.75 92.796875 L 825.683594 93.101563 L 825.621094 93.402344 L 825.5625 93.707031 L 825.507813 94.011719 L 825.457031 94.316406 L 825.414063 94.625 L 825.375 94.929688 L 825.339844 95.238281 L 825.285156 95.855469 L 825.265625 96.164063 L 825.253906 96.472656 L 825.242188 96.785156 L 825.238281 97.09375 L 825.238281 97.402344 L 825.242188 97.710938 L 825.253906 98.023438 L 825.265625 98.332031 L 825.285156 98.640625 L 825.339844 99.257813 L 825.375 99.566406 L 825.414063 99.871094 L 825.457031 100.179688 L 825.507813 100.484375 L 825.5625 100.789063 L 825.621094 101.09375 L 825.683594 101.394531 L 825.75 101.699219 L 825.824219 102 L 825.902344 102.300781 L 825.984375 102.597656 L 826.070313 102.894531 L 826.164063 103.191406 L 826.359375 103.777344 L 826.578125 104.355469 L 826.691406 104.644531 L 826.8125 104.929688 L 826.9375 105.214844 L 827.066406 105.496094 L 827.199219 105.773438 L 827.335938 106.050781 L 827.476563 106.328125 L 827.625 106.601563 L 827.773438 106.871094 L 827.929688 107.140625 L 828.089844 107.40625 L 828.25 107.667969 L 828.417969 107.929688 L 828.589844 108.1875 L 828.765625 108.441406 L 828.945313 108.695313 L 829.128906 108.941406 L 829.316406 109.191406 L 829.507813 109.433594 L 829.703125 109.671875 L 829.902344 109.910156 L 830.105469 110.144531 L 830.3125 110.375 L 830.734375 110.828125 L 830.953125 111.046875 L 844.753906 97.246094 Z M 830.953125 83.449219 "/>
<path style="fill:none;stroke-width:2.25;stroke-linecap:round;stroke-linejoin:round;stroke:rgb(0%,0%,0%);stroke-opacity:1;stroke-miterlimit:10;" d="M 257.910156 229.398438 L 177.933594 207.96875 L 119.386719 266.511719 L 140.816406 346.488281 L 220.792969 367.917969 L 279.339844 309.371094 Z M 257.910156 229.398438 "/>
<path style="fill:none;stroke-width:2.25;stroke-linecap:round;stroke-linejoin:round;stroke:rgb(0%,0%,0%);stroke-opacity:1;stroke-miterlimit:10;" d="M 501.359375 267.242188 L 501.03125 267.574219 L 500.710938 267.910156 L 500.398438 268.25 L 500.085938 268.597656 L 499.785156 268.949219 L 499.484375 269.304688 L 499.191406 269.664063 L 498.90625 270.03125 L 498.625 270.398438 L 498.347656 270.773438 L 498.078125 271.152344 L 497.816406 271.535156 L 497.558594 271.921875 L 497.308594 272.3125 L 497.0625 272.707031 L 496.824219 273.105469 L 496.589844 273.507813 L 496.367188 273.914063 L 496.144531 274.324219 L 495.933594 274.734375 L 495.726563 275.152344 L 495.527344 275.570313 L 495.335938 275.992188 L 495.148438 276.417969 L 494.96875 276.847656 L 494.796875 277.277344 L 494.628906 277.710938 L 494.472656 278.148438 L 494.320313 278.589844 L 494.175781 279.027344 L 494.035156 279.472656 L 493.90625 279.917969 L 493.78125 280.367188 L 493.664063 280.816406 L 493.554688 281.265625 L 493.453125 281.71875 L 493.359375 282.175781 L 493.269531 282.628906 L 493.191406 283.089844 L 493.117188 283.546875 L 493.050781 284.007813 L 492.992188 284.46875 L 492.941406 284.929688 L 492.894531 285.390625 L 492.859375 285.855469 L 492.828125 286.316406 L 492.808594 286.78125 L 492.792969 287.246094 L 492.785156 287.710938 L 492.785156 288.175781 L 492.792969 288.640625 L 492.808594 289.101563 L 492.828125 289.566406 L 492.859375 290.03125 L 492.894531 290.492188 L 492.941406 290.957031 L 492.992188 291.417969 L 493.050781 291.878906 L 493.117188 292.339844 L 493.191406 292.796875 L 493.269531 293.253906 L 493.359375 293.710938 L 493.453125 294.164063 L 493.554688 294.617188 L 493.664063 295.070313 L 493.78125 295.519531 L 493.90625 295.964844 L 494.035156 296.410156 L 494.175781 296.855469 L 494.320313 297.296875 L 494.472656 297.734375 L 494.628906 298.171875 L 494.796875 298.605469 L 494.96875 299.039063 L 495.148438 299.464844 L 495.335938 299.890625 L 495.527344 300.3125 L 495.726563 300.734375 L 495.933594 301.148438 L 496.144531 301.5625 L 496.367188 301.972656 L 496.589844 302.378906 L 496.824219 302.78125 L 497.0625 303.179688 L 497.308594 303.574219 L 497.558594 303.964844 L 497.816406 304.351563 L 498.078125 304.734375 L 498.347656 305.109375 L 498.625 305.484375 L 498.90625 305.855469 L 499.191406 306.21875 L 499.484375 306.582031 L 499.785156 306.9375 L 500.085938 307.285156 L 500.398438 307.632813 L 500.710938 307.972656 L 501.03125 308.308594 L 501.359375 308.640625 L 522.058594 287.941406 Z M 501.359375 267.242188 "/>
<path style="fill:none;stroke-width:2.25;stroke-linecap:round;stroke-linejoin:round;stroke:rgb(0%,0%,0%);stroke-opacity:1;stroke-miterlimit:10;" d="M 831.742188 300.953125 L 864.265625 307.457031 L 857.761719 274.933594 L 825.238281 268.425781 Z M 831.742188 300.953125 "/>
<path style="fill:none;stroke-width:2.25;stroke-linecap:round;stroke-linejoin:round;stroke:rgb(0%,0%,0%);stroke-opacity:1;stroke-miterlimit:10;" d="M 157.964844 437.238281 L 157.3125 437.902344 L 156.671875 438.574219 L 156.042969 439.253906 L 155.421875 439.949219 L 154.816406 440.648438 L 154.21875 441.359375 L 153.632813 442.082031 L 153.058594 442.8125 L 152.496094 443.550781 L 151.945313 444.300781 L 151.40625 445.054688 L 150.878906 445.820313 L 150.363281 446.59375 L 149.863281 447.375 L 149.371094 448.164063 L 148.894531 448.960938 L 148.429688 449.765625 L 147.980469 450.578125 L 147.539063 451.398438 L 147.113281 452.222656 L 146.703125 453.054688 L 146.300781 453.894531 L 145.917969 454.738281 L 145.542969 455.589844 L 145.183594 456.445313 L 144.839844 457.308594 L 144.507813 458.175781 L 144.191406 459.050781 L 143.886719 459.929688 L 143.597656 460.808594 L 143.320313 461.699219 L 143.058594 462.589844 L 142.8125 463.484375 L 142.578125 464.382813 L 142.359375 465.285156 L 142.15625 466.191406 L 141.964844 467.101563 L 141.789063 468.011719 L 141.628906 468.929688 L 141.480469 469.84375 L 141.347656 470.765625 L 141.230469 471.6875 L 141.128906 472.609375 L 141.039063 473.535156 L 140.964844 474.460938 L 140.90625 475.386719 L 140.863281 476.316406 L 140.832031 477.242188 L 140.820313 478.171875 L 140.820313 479.101563 L 140.832031 480.03125 L 140.863281 480.957031 L 140.90625 481.886719 L 140.964844 482.8125 L 141.039063 483.738281 L 141.128906 484.664063 L 141.230469 485.585938 L 141.347656 486.507813 L 141.480469 487.429688 L 141.628906 488.34375 L 141.789063 489.261719 L 141.964844 490.171875 L 142.15625 491.082031 L 142.359375 491.988281 L 142.578125 492.890625 L 142.8125 493.789063 L 143.058594 494.683594 L 143.320313 495.578125 L 143.597656 496.464844 L 143.886719 497.347656 L 144.191406 498.222656 L 144.507813 499.097656 L 144.839844 499.964844 L 145.183594 500.828125 L 145.542969 501.683594 L 145.917969 502.535156 L 146.300781 503.378906 L 146.703125 504.21875 L 147.113281 505.050781 L 147.539063 505.875 L 147.980469 506.695313 L 148.429688 507.507813 L 148.894531 508.3125 L 149.371094 509.109375 L 149.863281 509.898438 L 150.363281 510.679688 L 150.878906 511.453125 L 151.40625 512.21875 L 151.945313 512.972656 L 152.496094 513.722656 L 153.058594 514.460938 L 153.632813 515.191406 L 154.21875 515.914063 L 154.816406 516.625 L 155.421875 517.324219 L 156.042969 518.019531 L 156.671875 518.699219 L 157.3125 519.371094 L 157.964844 520.035156 L 199.363281 478.636719 Z M 157.964844 437.238281 "/>
<path style="fill:none;stroke-width:2.25;stroke-linecap:round;stroke-linejoin:round;stroke:rgb(0%,0%,0%);stroke-opacity:1;stroke-miterlimit:10;" d="M 502.542969 498.152344 L 551.332031 507.910156 L 541.574219 459.121094 L 492.785156 449.363281 Z M 502.542969 498.152344 "/>
</g>
</svg>
