<?xml version="1.0" encoding="UTF-8"?>
<svg xmlns="http://www.w3.org/2000/svg" xmlns:xlink="http://www.w3.org/1999/xlink" width="1008pt" height="612pt" viewBox="0 0 1008 612" version="1.1">
<g id="surface324">
<rect x="0" y="0" width="1008" height="612" style="fill:rgb(100%,100%,100%);fill-opacity:1;stroke:none;"/>
<path style="fill:none;stroke-width:2.25;stroke-linecap:round;stroke-linejoin:round;stroke:rgb(0%,0%,0%);stroke-opacity:1;stroke-miterlimit:10;" d="M 269.617188 26.992188 L 129.109375 26.992188 L 129.109375 167.503906 L 269.617188 167.503906 Z M 269.617188 26.992188 "/>
<path style="fill:none;stroke-width:2.25;stroke-linecap:round;stroke-linejoin:round;stroke:rgb(0%,0%,0%);stroke-opacity:1;stroke-miterlimit:10;" d="M 199.363281 47.570313 L 139.75 97.246094 L 199.363281 146.925781 L 258.976563 97.246094 Z M 199.363281 47.570313 "/>
<path style="fill-rule:nonzero;fill:rgb(74.509804%,74.509804%,74.509804%);fill-opacity:1;stroke-width:1.5;stroke-linecap:round;stroke-linejoin:round;stroke:rgb(0%,0%,0%);stroke-opacity:1;stroke-miterlimit:10;" d="M 209.296875 97.246094 L 209.277344 96.625 L 209.21875 96.003906 L 209.121094 95.386719 L 208.988281 94.777344 L 208.8125 94.179688 L 208.601563 93.589844 L 208.351563 93.019531 L 208.070313 92.460938 L 207.753906 91.925781 L 207.402344 91.40625 L 207.019531 90.914063 L 206.605469 90.445313 L 206.164063 90.003906 L 205.695313 89.59375 L 205.203125 89.210938 L 204.6875 88.859375 L 204.148438 88.542969 L 203.59375 88.257813 L 203.019531 88.011719 L 202.433594 87.796875 L 201.835938 87.625 L 201.226563 87.488281 L 200.609375 87.390625 L 199.988281 87.332031 L 199.363281 87.3125 L 198.738281 87.332031 L 198.117188 87.390625 L 197.5 87.488281 L 196.890625 87.625 L 196.292969 87.796875 L 195.707031 88.011719 L 195.132813 88.257813 L 194.578125 88.542969 L 194.039063 88.859375 L 193.523438 89.210938 L 193.03125 89.59375 L 192.5625 90.003906 L 192.121094 90.445313 L 191.707031 90.914063 L 191.324219 91.40625 L 190.972656 91.925781 L 190.65625 92.460938 L 190.375 93.019531 L 190.125 93.589844 L 189.914063 94.179688 L 189.738281 94.777344 L 189.605469 95.386719 L 189.507813 96.003906 L 189.445313 96.625 L 189.425781 97.246094 L 189.445313 97.871094 L 189.507813 98.492188 L 189.605469 99.109375 L 189.738281 99.71875 L 189.914063 100.316406 L 190.125 100.90625 L 190.375 101.476563 L 190.65625 102.035156 L 190.972656 102.570313 L 191.324219 103.089844 L 191.707031 103.582031 L 192.121094 104.050781 L 192.5625 104.492188 L 193.03125 104.902344 L 193.523438 105.285156 L 194.039063 105.636719 L 194.578125 105.953125 L 195.132813 106.238281 L 195.707031 106.484375 L 196.292969 106.699219 L 196.890625 106.871094 L 197.5 107.007813 L 198.117188 107.105469 L 198.738281 107.164063 L 199.363281 107.183594 L 199.988281 107.164063 L 200.609375 107.105469 L 201.226563 107.007813 L 201.835938 106.871094 L 202.433594 106.699219 L 203.019531 106.484375 L 203.59375 106.238281 L 204.148438 105.953125 L 204.6875 105.636719 L 205.203125 105.285156 L 205.695313 104.902344 L 206.164063 104.492188 L 206.605469 104.050781 L 207.019531 103.582031 L 207.402344 103.089844 L 207.753906 102.570313 L 208.070313 102.035156 L 208.351563 101.476563 L 208.601563 100.90625 L 208.8125 100.316406 L 208.988281 99.71875 L 209.121094 99.109375 L 209.21875 98.492188 L 209.277344 97.871094 Z M 209.296875 97.246094 "/>
<path style="fill:none;stroke-width:2.25;stroke-linecap:round;stroke-linejoin:round;stroke:rgb(0%,0%,0%);stroke-opacity:1;stroke-miterlimit:10;" d="M 592.3125 26.992188 L 451.800781 26.992188 L 451.800781 167.503906 L 592.3125 167.503906 Z M 592.3125 26.992188 "/>
<path style="fill:none;stroke-width:2.25;stroke-linecap:round;stroke-linejoin:round;stroke:rgb(0%,0%,0%);stroke-opacity:1;stroke-miterlimit:10;" d="M 534.914063 49.261719 L 474.074219 110.105469 L 557.183594 132.375 Z M 534.914063 49.261719 "/>
<path style="fill-rule:nonzero;fill:rgb(0%,0%,0%);fill-opacity:1;stroke-width:1.5;stroke-linecap:round;stroke-linejoin:round;stroke:rgb(0%,0%,0%);stroke-opacity:1;stroke-miterlimit:10;" d="M 531.992188 97.246094 L 531.972656 96.625 L 531.914063 96.003906 L 531.816406 95.386719 L 531.679688 94.777344 L 531.507813 94.179688 L 531.296875 93.589844 L 531.046875 93.019531 L 530.765625 92.460938 L 530.445313 91.925781 L 530.09375 91.40625 L 529.714844 90.914063 L 529.300781 90.445313 L 528.859375 90.003906 L 528.390625 89.59375 L 527.898438 89.210938 L 527.382813 88.859375 L 526.84375 88.542969 L 526.289063 88.257813 L 525.714844 88.011719 L 525.128906 87.796875 L 524.527344 87.625 L 523.917969 87.488281 L 523.304688 87.390625 L 522.679688 87.332031 L 522.058594 87.3125 L 521.433594 87.332031 L 520.8125 87.390625 L 520.195313 87.488281 L 519.585938 87.625 L 518.988281 87.796875 L 518.398438 88.011719 L 517.828125 88.257813 L 517.269531 88.542969 L 516.734375 88.859375 L 516.21875 89.210938 L 515.722656 89.59375 L 515.257813 90.003906 L 514.816406 90.445313 L 514.402344 90.914063 L 514.019531 91.40625 L 513.667969 91.925781 L 513.351563 92.460938 L 513.066406 93.019531 L 512.820313 93.589844 L 512.609375 94.179688 L 512.433594 94.777344 L 512.296875 95.386719 L 512.199219 96.003906 L 512.140625 96.625 L 512.121094 97.246094 L 512.140625 97.871094 L 512.199219 98.492188 L 512.296875 99.109375 L 512.433594 99.71875 L 512.609375 100.316406 L 512.820313 100.90625 L 513.066406 101.476563 L 513.351563 102.035156 L 513.667969 102.570313 L 514.019531 103.089844 L 514.402344 103.582031 L 514.816406 104.050781 L 515.257813 104.492188 L 515.722656 104.902344 L 516.21875 105.285156 L 516.734375 105.636719 L 517.269531 105.953125 L 517.828125 106.238281 L 518.398438 106.484375 L 518.988281 106.699219 L 519.585938 106.871094 L 520.195313 107.007813 L 520.8125 107.105469 L 521.433594 107.164063 L 522.058594 107.183594 L 522.679688 107.164063 L 523.304688 107.105469 L 523.917969 107.007813 L 524.527344 106.871094 L 525.128906 106.699219 L 525.714844 106.484375 L 526.289063 106.238281 L 526.84375 105.953125 L 527.382813 105.636719 L 527.898438 105.285156 L 528.390625 104.902344 L 528.859375 104.492188 L 529.300781 104.050781 L 529.714844 103.582031 L 530.09375 103.089844 L 530.445313 102.570313 L 530.765625 102.035156 L 531.046875 101.476563 L 531.296875 100.90625 L 531.507813 100.316406 L 531.679688 99.71875 L 531.816406 99.109375 L 531.914063 98.492188 L 531.972656 97.871094 Z M 531.992188 97.246094 "/>
<path style="fill:none;stroke-width:2.25;stroke-linecap:round;stroke-linejoin:round;stroke:rgb(0%,0%,0%);stroke-opacity:1;stroke-miterlimit:10;" d="M 915.007813 26.992188 L 774.496094 26.992188 L 774.496094 167.503906 L 915.007813 167.503906 Z M 915.007813 26.992188 "/>
<path style="fill:none;stroke-width:2.25;stroke-linecap:round;stroke-linejoin:round;stroke:rgb(0%,0%,0%);stroke-opacity:1;stroke-miterlimit:10;" d="M 807.492188 59.988281 L 806.90625 60.585938 L 806.332031 61.191406 L 805.761719 61.804688 L 805.207031 62.429688 L 804.65625 63.058594 L 804.121094 63.699219 L 803.59375 64.347656 L 803.078125 65.007813 L 802.570313 65.671875 L 802.074219 66.34375 L 801.589844 67.027344 L 801.117188 67.714844 L 800.652344 68.410156 L 800.199219 69.113281 L 799.761719 69.824219 L 799.332031 70.542969 L 798.914063 71.265625 L 798.507813 71.996094 L 798.109375 72.734375 L 797.726563 73.476563 L 797.355469 74.226563 L 796.996094 74.980469 L 796.648438 75.738281 L 796.316406 76.507813 L 795.992188 77.277344 L 795.679688 78.054688 L 795.382813 78.835938 L 795.097656 79.621094 L 794.824219 80.410156 L 794.5625 81.203125 L 794.316406 82.003906 L 794.078125 82.804688 L 793.855469 83.609375 L 793.644531 84.417969 L 793.449219 85.230469 L 793.265625 86.046875 L 793.09375 86.867188 L 792.933594 87.6875 L 792.789063 88.511719 L 792.660156 89.335938 L 792.539063 90.164063 L 792.433594 90.992188 L 792.339844 91.824219 L 792.261719 92.65625 L 792.195313 93.488281 L 792.140625 94.324219 L 792.101563 95.160156 L 792.074219 95.992188 L 792.0625 96.828125 L 792.0625 97.664063 L 792.074219 98.5 L 792.101563 99.335938 L 792.140625 100.171875 L 792.195313 101.007813 L 792.261719 101.839844 L 792.339844 102.671875 L 792.433594 103.503906 L 792.539063 104.332031 L 792.660156 105.160156 L 792.789063 105.984375 L 792.933594 106.808594 L 793.09375 107.628906 L 793.265625 108.449219 L 793.449219 109.265625 L 793.644531 110.078125 L 793.855469 110.886719 L 794.078125 111.691406 L 794.316406 112.492188 L 794.5625 113.292969 L 794.824219 114.085938 L 795.097656 114.875 L 795.382813 115.660156 L 795.679688 116.441406 L 795.992188 117.21875 L 796.316406 117.988281 L 796.648438 118.753906 L 796.996094 119.515625 L 797.355469 120.269531 L 797.726563 121.019531 L 798.109375 121.761719 L 798.507813 122.5 L 798.914063 123.230469 L 799.332031 123.953125 L 799.761719 124.671875 L 800.199219 125.382813 L 800.652344 126.085938 L 801.117188 126.78125 L 801.589844 127.46875 L 802.074219 128.152344 L 802.570313 128.824219 L 803.078125 129.488281 L 803.59375 130.148438 L 804.121094 130.796875 L 804.65625 131.4375 L 805.207031 132.066406 L 805.761719 132.691406 L 806.332031 133.304688 L 806.90625 133.910156 L 807.492188 134.507813 L 844.753906 97.246094 Z M 807.492188 59.988281 "/>
<path style="fill-rule:nonzero;fill:rgb(100%,100%,100%);fill-opacity:1;stroke-width:1.5;stroke-linecap:round;stroke-linejoin:round;stroke:rgb(0%,0%,0%);stroke-opacity:1;stroke-miterlimit:10;" d="M 854.6875 97.246094 L 854.667969 96.625 L 854.609375 96.003906 L 854.511719 95.386719 L 854.375 94.777344 L 854.203125 94.179688 L 853.988281 93.589844 L 853.742188 93.019531 L 853.457031 92.460938 L 853.140625 91.925781 L 852.789063 91.40625 L 852.40625 90.914063 L 851.996094 90.445313 L 851.554688 90.003906 L 851.085938 89.59375 L 850.59375 89.210938 L 850.074219 88.859375 L 849.539063 88.542969 L 848.980469 88.257813 L 848.410156 88.011719 L 847.820313 87.796875 L 847.222656 87.625 L 846.613281 87.488281 L 845.996094 87.390625 L 845.375 87.332031 L 844.753906 87.3125 L 844.128906 87.332031 L 843.507813 87.390625 L 842.890625 87.488281 L 842.28125 87.625 L 841.683594 87.796875 L 841.09375 88.011719 L 840.523438 88.257813 L 839.964844 88.542969 L 839.429688 88.859375 L 838.910156 89.210938 L 838.417969 89.59375 L 837.949219 90.003906 L 837.507813 90.445313 L 837.097656 90.914063 L 836.714844 91.40625 L 836.363281 91.925781 L 836.046875 92.460938 L 835.761719 93.019531 L 835.515625 93.589844 L 835.300781 94.179688 L 835.128906 94.777344 L 834.992188 95.386719 L 834.894531 96.003906 L 834.835938 96.625 L 834.816406 97.246094 L 834.835938 97.871094 L 834.894531 98.492188 L 834.992188 99.109375 L 835.128906 99.71875 L 835.300781 100.316406 L 835.515625 100.90625 L 835.761719 101.476563 L 836.046875 102.035156 L 836.363281 102.570313 L 836.714844 103.089844 L 837.097656 103.582031 L 837.507813 104.050781 L 837.949219 104.492188 L 838.417969 104.902344 L 838.910156 105.285156 L 839.429688 105.636719 L 839.964844 105.953125 L 840.523438 106.238281 L 841.09375 106.484375 L 841.683594 106.699219 L 842.28125 106.871094 L 842.890625 107.007813 L 843.507813 107.105469 L 844.128906 107.164063 L 844.753906 107.183594 L 845.375 107.164063 L 845.996094 107.105469 L 846.613281 107.007813 L 847.222656 106.871094 L 847.820313 106.699219 L 848.410156 106.484375 L 848.980469 106.238281 L 849.539063 105.953125 L 850.074219 105.636719 L 850.59375 105.285156 L 851.085938 104.902344 L 851.554688 104.492188 L 851.996094 104.050781 L 852.40625 103.582031 L 852.789063 103.089844 L 853.140625 102.570313 L 853.457031 102.035156 L 853.742188 101.476563 L 853.988281 100.90625 L 854.203125 100.316406 L 854.375 99.71875 L 854.511719 99.109375 L 854.609375 98.492188 L 854.667969 97.871094 Z M 854.6875 97.246094 "/>
<path style="fill:none;stroke-width:2.25;stroke-linecap:round;stroke-linejoin:round;stroke:rgb(0%,0%,0%);stroke-opacity:1;stroke-miterlimit:10;" d="M 269.617188 217.6875 L 129.109375 217.6875 L 129.109375 358.199219 L 269.617188 358.199219 Z M 269.617188 217.6875 "/>
<path style="fill:none;stroke-width:2.25;stroke-linecap:round;stroke-linejoin:round;stroke:rgb(0%,0%,0%);stroke-opacity:1;stroke-miterlimit:10;" d="M 242.386719 263.101563 L 156.339844 263.101563 L 199.363281 337.621094 Z M 242.386719 263.101563 "/>
<path style="fill-rule:nonzero;fill:rgb(0%,0%,0%);fill-opacity:1;stroke-width:1.5;stroke-linecap:round;stroke-linejoin:round;stroke:rgb(0%,0%,0%);stroke-opacity:1;stroke-miterlimit:10;" d="M 209.296875 287.941406 L 209.277344 287.320313 L 209.21875 286.695313 L 209.121094 286.082031 L 208.988281 285.472656 L 208.8125 284.871094 L 208.601563 284.285156 L 208.351563 283.710938 L 208.070313 283.15625 L 207.753906 282.617188 L 207.402344 282.101563 L 207.019531 281.609375 L 206.605469 281.140625 L 206.164063 280.699219 L 205.695313 280.285156 L 205.203125 279.90625 L 204.6875 279.554688 L 204.148438 279.234375 L 203.59375 278.953125 L 203.019531 278.703125 L 202.433594 278.492188 L 201.835938 278.320313 L 201.226563 278.183594 L 200.609375 278.085938 L 199.988281 278.027344 L 199.363281 278.007813 L 198.738281 278.027344 L 198.117188 278.085938 L 197.5 278.183594 L 196.890625 278.320313 L 196.292969 278.492188 L 195.707031 278.703125 L 195.132813 278.953125 L 194.578125 279.234375 L 194.039063 279.554688 L 193.523438 279.90625 L 193.03125 280.285156 L 192.5625 280.699219 L 192.121094 281.140625 L 191.707031 281.609375 L 191.324219 282.101563 L 190.972656 282.617188 L 190.65625 283.15625 L 190.375 283.710938 L 190.125 284.285156 L 189.914063 284.871094 L 189.738281 285.472656 L 189.605469 286.082031 L 189.507813 286.695313 L 189.445313 287.320313 L 189.425781 287.941406 L 189.445313 288.566406 L 189.507813 289.1875 L 189.605469 289.804688 L 189.738281 290.414063 L 189.914063 291.011719 L 190.125 291.601563 L 190.375 292.171875 L 190.65625 292.730469 L 190.972656 293.265625 L 191.324219 293.78125 L 191.707031 294.277344 L 192.121094 294.742188 L 192.5625 295.183594 L 193.03125 295.597656 L 193.523438 295.980469 L 194.039063 296.332031 L 194.578125 296.648438 L 195.132813 296.933594 L 195.707031 297.179688 L 196.292969 297.390625 L 196.890625 297.566406 L 197.5 297.703125 L 198.117188 297.800781 L 198.738281 297.859375 L 199.363281 297.878906 L 199.988281 297.859375 L 200.609375 297.800781 L 201.226563 297.703125 L 201.835938 297.566406 L 202.433594 297.390625 L 203.019531 297.179688 L 203.59375 296.933594 L 204.148438 296.648438 L 204.6875 296.332031 L 205.203125 295.980469 L 205.695313 295.597656 L 206.164063 295.183594 L 206.605469 294.742188 L 207.019531 294.277344 L 207.402344 293.78125 L 207.753906 293.265625 L 208.070313 292.730469 L 208.351563 292.171875 L 208.601563 291.601563 L 208.8125 291.011719 L 208.988281 290.414063 L 209.121094 289.804688 L 209.21875 289.1875 L 209.277344 288.566406 Z M 209.296875 287.941406 "/>
<path style="fill:none;stroke-width:2.25;stroke-linecap:round;stroke-linejoin:round;stroke:rgb(0%,0%,0%);stroke-opacity:1;stroke-miterlimit:10;" d="M 592.3125 217.6875 L 451.800781 217.6875 L 451.800781 358.199219 L 592.3125 358.199219 Z M 592.3125 217.6875 "/>
<path style="fill:none;stroke-width:2.25;stroke-linecap:round;stroke-linejoin:round;stroke:rgb(0%,0%,0%);stroke-opacity:1;stroke-miterlimit:10;" d="M 522.058594 235.25 L 521.222656 235.257813 L 520.386719 235.277344 L 519.550781 235.3125 L 518.714844 235.355469 L 517.882813 235.417969 L 517.050781 235.488281 L 516.21875 235.574219 L 515.386719 235.675781 L 514.558594 235.789063 L 513.730469 235.914063 L 512.90625 236.050781 L 512.085938 236.203125 L 511.265625 236.367188 L 510.449219 236.546875 L 509.636719 236.738281 L 508.824219 236.941406 L 508.015625 237.15625 L 507.210938 237.386719 L 506.414063 237.628906 L 505.617188 237.882813 L 504.824219 238.148438 L 504.035156 238.429688 L 503.253906 238.722656 L 502.472656 239.027344 L 501.699219 239.34375 L 500.933594 239.671875 L 500.167969 240.011719 L 499.410156 240.367188 L 498.660156 240.730469 L 497.914063 241.109375 L 497.171875 241.496094 L 496.4375 241.898438 L 495.710938 242.308594 L 494.992188 242.734375 L 494.277344 243.167969 L 493.570313 243.617188 L 492.871094 244.074219 L 492.179688 244.542969 L 491.492188 245.019531 L 490.816406 245.511719 L 490.148438 246.011719 L 489.484375 246.523438 L 488.832031 247.046875 L 488.1875 247.578125 L 487.550781 248.121094 L 486.925781 248.671875 L 486.304688 249.234375 L 485.695313 249.808594 L 485.097656 250.390625 L 484.503906 250.980469 L 483.921875 251.582031 L 483.351563 252.191406 L 482.789063 252.808594 L 482.234375 253.4375 L 481.695313 254.074219 L 481.160156 254.71875 L 480.640625 255.371094 L 480.128906 256.03125 L 479.625 256.703125 L 479.136719 257.378906 L 478.65625 258.0625 L 478.1875 258.753906 L 477.730469 259.457031 L 477.285156 260.164063 L 476.847656 260.875 L 476.425781 261.597656 L 476.011719 262.324219 L 475.613281 263.058594 L 475.222656 263.796875 L 474.847656 264.542969 L 474.480469 265.296875 L 474.128906 266.054688 L 473.785156 266.816406 L 473.457031 267.585938 L 473.140625 268.359375 L 472.835938 269.136719 L 472.542969 269.921875 L 472.265625 270.707031 L 471.996094 271.5 L 471.742188 272.296875 L 471.5 273.097656 L 471.273438 273.902344 L 471.054688 274.710938 L 470.851563 275.519531 L 470.660156 276.332031 L 470.484375 277.152344 L 470.320313 277.96875 L 470.167969 278.792969 L 470.027344 279.617188 L 469.902344 280.445313 L 469.789063 281.273438 L 469.691406 282.101563 L 469.605469 282.933594 L 469.53125 283.765625 L 469.472656 284.601563 L 469.425781 285.433594 L 469.394531 286.269531 L 469.371094 287.105469 L 469.367188 287.941406 L 522.058594 287.941406 Z M 522.058594 235.25 "/>
<path style="fill-rule:nonzero;fill:rgb(100%,100%,100%);fill-opacity:1;stroke-width:1.5;stroke-linecap:round;stroke-linejoin:round;stroke:rgb(0%,0%,0%);stroke-opacity:1;stroke-miterlimit:10;" d="M 531.992188 287.941406 L 531.972656 287.320313 L 531.914063 286.695313 L 531.816406 286.082031 L 531.679688 285.472656 L 531.507813 284.871094 L 531.296875 284.285156 L 531.046875 283.710938 L 530.765625 283.15625 L 530.445313 282.617188 L 530.09375 282.101563 L 529.714844 281.609375 L 529.300781 281.140625 L 528.859375 280.699219 L 528.390625 280.285156 L 527.898438 279.90625 L 527.382813 279.554688 L 526.84375 279.234375 L 526.289063 278.953125 L 525.714844 278.703125 L 525.128906 278.492188 L 524.527344 278.320313 L 523.917969 278.183594 L 523.304688 278.085938 L 522.679688 278.027344 L 522.058594 278.007813 L 521.433594 278.027344 L 520.8125 278.085938 L 520.195313 278.183594 L 519.585938 278.320313 L 518.988281 278.492188 L 518.398438 278.703125 L 517.828125 278.953125 L 517.269531 279.234375 L 516.734375 279.554688 L 516.21875 279.90625 L 515.722656 280.285156 L 515.257813 280.699219 L 514.816406 281.140625 L 514.402344 281.609375 L 514.019531 282.101563 L 513.667969 282.617188 L 513.351563 283.15625 L 513.066406 283.710938 L 512.820313 284.285156 L 512.609375 284.871094 L 512.433594 285.472656 L 512.296875 286.082031 L 512.199219 286.695313 L 512.140625 287.320313 L 512.121094 287.941406 L 512.140625 288.566406 L 512.199219 289.1875 L 512.296875 289.804688 L 512.433594 290.414063 L 512.609375 291.011719 L 512.820313 291.601563 L 513.066406 292.171875 L 513.351563 292.730469 L 513.667969 293.265625 L 514.019531 293.78125 L 514.402344 294.277344 L 514.816406 294.742188 L 515.257813 295.183594 L 515.722656 295.597656 L 516.21875 295.980469 L 516.734375 296.332031 L 517.269531 296.648438 L 517.828125 296.933594 L 518.398438 297.179688 L 518.988281 297.390625 L 519.585938 297.566406 L 520.195313 297.703125 L 520.8125 297.800781 L 521.433594 297.859375 L 522.058594 297.878906 L 522.679688 297.859375 L 523.304688 297.800781 L 523.917969 297.703125 L 524.527344 297.566406 L 525.128906 297.390625 L 525.714844 297.179688 L 526.289063 296.933594 L 526.84375 296.648438 L 527.382813 296.332031 L 527.898438 295.980469 L 528.390625 295.597656 L 528.859375 295.183594 L 529.300781 294.742188 L 529.714844 294.277344 L 530.09375 293.78125 L 530.445313 293.265625 L 530.765625 292.730469 L 531.046875 292.171875 L 531.296875 291.601563 L 531.507813 291.011719 L 531.679688 290.414063 L 531.816406 289.804688 L 531.914063 289.1875 L 531.972656 288.566406 Z M 531.992188 287.941406 "/>
<path style="fill:none;stroke-width:2.25;stroke-linecap:round;stroke-linejoin:round;stroke:rgb(0%,0%,0%);stroke-opacity:1;stroke-miterlimit:10;" d="M 915.007813 217.6875 L 774.496094 217.6875 L 774.496094 358.199219 L 915.007813 358.199219 Z M 915.007813 217.6875 "/>
<path style="fill:none;stroke-width:2.25;stroke-linecap:round;stroke-linejoin:round;stroke:rgb(0%,0%,0%);stroke-opacity:1;stroke-miterlimit:10;" d="M 795.074219 287.941406 L 844.753906 347.554688 L 894.429688 287.941406 L 844.753906 228.328125 Z M 795.074219 287.941406 "/>
<path style="fill-rule:nonzero;fill:rgb(74.509804%,74.509804%,74.509804%);fill-opacity:1;stroke-width:1.5;stroke-linecap:round;stroke-linejoin:round;stroke:rgb(0%,0%,0%);stroke-opacity:1;stroke-miterlimit:10;" d="M 854.6875 287.941406 L 854.667969 287.320313 L 854.609375 286.695313 L 854.511719 286.082031 L 854.375 285.472656 L 854.203125 284.871094 L 853.988281 284.285156 L 853.742188 283.710938 L 853.457031 283.15625 L 853.140625 282.617188 L 852.789063 282.101563 L 852.40625 281.609375 L 851.996094 281.140625 L 851.554688 280.699219 L 851.085938 280.285156 L 850.59375 279.90625 L 850.074219 279.554688 L 849.539063 279.234375 L 848.980469 278.953125 L 848.410156 278.703125 L 847.820313 278.492188 L 847.222656 278.320313 L 846.613281 278.183594 L 845.996094 278.085938 L 845.375 278.027344 L 844.753906 278.007813 L 844.128906 278.027344 L 843.507813 278.085938 L 842.890625 278.183594 L 842.28125 278.320313 L 841.683594 278.492188 L 841.09375 278.703125 L 840.523438 278.953125 L 839.964844 279.234375 L 839.429688 279.554688 L 838.910156 279.90625 L 838.417969 280.285156 L 837.949219 280.699219 L 837.507813 281.140625 L 837.097656 281.609375 L 836.714844 282.101563 L 836.363281 282.617188 L 836.046875 283.15625 L 835.761719 283.710938 L 835.515625 284.285156 L 835.300781 284.871094 L 835.128906 285.472656 L 834.992188 286.082031 L 834.894531 286.695313 L 834.835938 287.320313 L 834.816406 287.941406 L 834.835938 288.566406 L 834.894531 289.1875 L 834.992188 289.804688 L 835.128906 290.414063 L 835.300781 291.011719 L 835.515625 291.601563 L 835.761719 292.171875 L 836.046875 292.730469 L 836.363281 293.265625 L 836.714844 293.78125 L 837.097656 294.277344 L 837.507813 294.742188 L 837.949219 295.183594 L 838.417969 295.597656 L 838.910156 295.980469 L 839.429688 296.332031 L 839.964844 296.648438 L 840.523438 296.933594 L 841.09375 297.179688 L 841.683594 297.390625 L 842.28125 297.566406 L 842.890625 297.703125 L 843.507813 297.800781 L 844.128906 297.859375 L 844.753906 297.878906 L 845.375 297.859375 L 845.996094 297.800781 L 846.613281 297.703125 L 847.222656 297.566406 L 847.820313 297.390625 L 848.410156 297.179688 L 848.980469 296.933594 L 849.539063 296.648438 L 850.074219 296.332031 L 850.59375 295.980469 L 851.085938 295.597656 L 851.554688 295.183594 L 851.996094 294.742188 L 852.40625 294.277344 L 852.789063 293.78125 L 853.140625 293.265625 L 853.457031 292.730469 L 853.742188 292.171875 L 853.988281 291.601563 L 854.203125 291.011719 L 854.375 290.414063 L 854.511719 289.804688 L 854.609375 289.1875 L 854.667969 288.566406 Z M 854.6875 287.941406 "/>
<path style="fill:none;stroke-width:2.25;stroke-linecap:round;stroke-linejoin:round;stroke:rgb(0%,0%,0%);stroke-opacity:1;stroke-miterlimit:10;" d="M 269.617188 408.382813 L 129.109375 408.382813 L 129.109375 548.890625 L 269.617188 548.890625 Z M 269.617188 408.382813 "/>
<path style="fill:none;stroke-width:2.25;stroke-linecap:round;stroke-linejoin:round;stroke:rgb(0%,0%,0%);stroke-opacity:1;stroke-miterlimit:10;" d="M 236.621094 441.378906 L 236.027344 440.792969 L 235.421875 440.214844 L 234.804688 439.648438 L 234.183594 439.089844 L 233.550781 438.542969 L 232.910156 438.003906 L 232.261719 437.476563 L 231.605469 436.960938 L 230.941406 436.457031 L 230.265625 435.960938 L 229.585938 435.476563 L 228.898438 435 L 228.199219 434.539063 L 227.496094 434.085938 L 226.789063 433.644531 L 226.070313 433.214844 L 225.347656 432.796875 L 224.617188 432.390625 L 223.878906 431.996094 L 223.136719 431.613281 L 222.386719 431.242188 L 221.632813 430.882813 L 220.871094 430.535156 L 220.105469 430.199219 L 219.335938 429.875 L 218.558594 429.566406 L 217.777344 429.269531 L 216.992188 428.980469 L 216.203125 428.707031 L 215.40625 428.449219 L 214.609375 428.199219 L 213.804688 427.964844 L 213 427.742188 L 212.191406 427.53125 L 211.378906 427.332031 L 210.5625 427.148438 L 209.746094 426.976563 L 208.925781 426.820313 L 208.101563 426.675781 L 207.277344 426.542969 L 206.449219 426.425781 L 205.617188 426.316406 L 204.789063 426.226563 L 203.957031 426.144531 L 203.121094 426.078125 L 202.289063 426.027344 L 201.453125 425.988281 L 200.617188 425.960938 L 199.78125 425.945313 L 198.945313 425.945313 L 198.109375 425.960938 L 197.273438 425.988281 L 196.4375 426.027344 L 195.605469 426.078125 L 194.769531 426.144531 L 193.9375 426.226563 L 193.109375 426.316406 L 192.277344 426.425781 L 191.449219 426.542969 L 190.625 426.675781 L 189.800781 426.820313 L 188.980469 426.976563 L 188.164063 427.148438 L 187.347656 427.332031 L 186.535156 427.53125 L 185.726563 427.742188 L 184.917969 427.964844 L 184.117188 428.199219 L 183.320313 428.449219 L 182.523438 428.707031 L 181.734375 428.980469 L 180.949219 429.269531 L 180.167969 429.566406 L 179.390625 429.875 L 178.621094 430.199219 L 177.855469 430.535156 L 177.09375 430.882813 L 176.339844 431.242188 L 175.589844 431.613281 L 174.847656 431.996094 L 174.109375 432.390625 L 173.378906 432.796875 L 172.65625 433.214844 L 171.9375 433.644531 L 171.230469 434.085938 L 170.527344 434.539063 L 169.828125 435 L 169.140625 435.476563 L 168.460938 435.960938 L 167.785156 436.457031 L 167.121094 436.960938 L 166.464844 437.476563 L 165.816406 438.003906 L 165.175781 438.542969 L 164.542969 439.089844 L 163.917969 439.648438 L 163.304688 440.214844 L 162.699219 440.792969 L 162.105469 441.378906 L 199.363281 478.636719 Z M 236.621094 441.378906 "/>
<path style="fill-rule:nonzero;fill:rgb(100%,100%,100%);fill-opacity:1;stroke-width:1.5;stroke-linecap:round;stroke-linejoin:round;stroke:rgb(0%,0%,0%);stroke-opacity:1;stroke-miterlimit:10;" d="M 209.296875 478.636719 L 209.277344 478.011719 L 209.21875 477.390625 L 209.121094 476.773438 L 208.988281 476.164063 L 208.8125 475.566406 L 208.601563 474.980469 L 208.351563 474.40625 L 208.070313 473.851563 L 207.753906 473.3125 L 207.402344 472.796875 L 207.019531 472.304688 L 206.605469 471.835938 L 206.164063 471.394531 L 205.695313 470.980469 L 205.203125 470.597656 L 204.6875 470.246094 L 204.148438 469.929688 L 203.59375 469.648438 L 203.019531 469.398438 L 202.433594 469.1875 L 201.835938 469.011719 L 201.226563 468.878906 L 200.609375 468.78125 L 199.988281 468.722656 L 199.363281 468.703125 L 198.738281 468.722656 L 198.117188 468.78125 L 197.5 468.878906 L 196.890625 469.011719 L 196.292969 469.1875 L 195.707031 469.398438 L 195.132813 469.648438 L 194.578125 469.929688 L 194.039063 470.246094 L 193.523438 470.597656 L 193.03125 470.980469 L 192.5625 471.394531 L 192.121094 471.835938 L 191.707031 472.304688 L 191.324219 472.796875 L 190.972656 473.3125 L 190.65625 473.851563 L 190.375 474.40625 L 190.125 474.980469 L 189.914063 475.566406 L 189.738281 476.164063 L 189.605469 476.773438 L 189.507813 477.390625 L 189.445313 478.011719 L 189.425781 478.636719 L 189.445313 479.261719 L 189.507813 479.882813 L 189.605469 480.5 L 189.738281 481.109375 L 189.914063 481.707031 L 190.125 482.292969 L 190.375 482.867188 L 190.65625 483.421875 L 190.972656 483.960938 L 191.324219 484.476563 L 191.707031 484.96875 L 192.121094 485.4375 L 192.5625 485.878906 L 193.03125 486.292969 L 193.523438 486.675781 L 194.039063 487.027344 L 194.578125 487.34375 L 195.132813 487.625 L 195.707031 487.875 L 196.292969 488.085938 L 196.890625 488.261719 L 197.5 488.394531 L 198.117188 488.492188 L 198.738281 488.554688 L 199.363281 488.574219 L 199.988281 488.554688 L 200.609375 488.492188 L 201.226563 488.394531 L 201.835938 488.261719 L 202.433594 488.085938 L 203.019531 487.875 L 203.59375 487.625 L 204.148438 487.34375 L 204.6875 487.027344 L 205.203125 486.675781 L 205.695313 486.292969 L 206.164063 485.878906 L 206.605469 485.4375 L 207.019531 484.96875 L 207.402344 484.476563 L 207.753906 483.960938 L 208.070313 483.421875 L 208.351563 482.867188 L 208.601563 482.292969 L 208.8125 481.707031 L 208.988281 481.109375 L 209.121094 480.5 L 209.21875 479.882813 L 209.277344 479.261719 Z M 209.296875 478.636719 "/>
<path style="fill:none;stroke-width:2.25;stroke-linecap:round;stroke-linejoin:round;stroke:rgb(0%,0%,0%);stroke-opacity:1;stroke-miterlimit:10;" d="M 592.3125 408.382813 L 451.800781 408.382813 L 451.800781 548.890625 L 592.3125 548.890625 Z M 592.3125 408.382813 "/>
<path style="fill:none;stroke-width:2.25;stroke-linecap:round;stroke-linejoin:round;stroke:rgb(0%,0%,0%);stroke-opacity:1;stroke-miterlimit:10;" d="M 486.929688 443.507813 L 479.90625 520.789063 L 557.183594 513.765625 L 564.210938 436.484375 Z M 486.929688 443.507813 "/>
<path style="fill-rule:nonzero;fill:rgb(74.509804%,74.509804%,74.509804%);fill-opacity:1;stroke-width:1.5;stroke-linecap:round;stroke-linejoin:round;stroke:rgb(0%,0%,0%);stroke-opacity:1;stroke-miterlimit:10;" d="M 531.992188 478.636719 L 531.972656 478.011719 L 531.914063 477.390625 L 531.816406 476.773438 L 531.679688 476.164063 L 531.507813 475.566406 L 531.296875 474.980469 L 531.046875 474.40625 L 530.765625 473.851563 L 530.445313 473.3125 L 530.09375 472.796875 L 529.714844 472.304688 L 529.300781 471.835938 L 528.859375 471.394531 L 528.390625 470.980469 L 527.898438 470.597656 L 527.382813 470.246094 L 526.84375 469.929688 L 526.289063 469.648438 L 525.714844 469.398438 L 525.128906 469.1875 L 524.527344 469.011719 L 523.917969 468.878906 L 523.304688 468.78125 L 522.679688 468.722656 L 522.058594 468.703125 L 521.433594 468.722656 L 520.8125 468.78125 L 520.195313 468.878906 L 519.585938 469.011719 L 518.988281 469.1875 L 518.398438 469.398438 L 517.828125 469.648438 L 517.269531 469.929688 L 516.734375 470.246094 L 516.21875 470.597656 L 515.722656 470.980469 L 515.257813 471.394531 L 514.816406 471.835938 L 514.402344 472.304688 L 514.019531 472.796875 L 513.667969 473.3125 L 513.351563 473.851563 L 513.066406 474.40625 L 512.820313 474.980469 L 512.609375 475.566406 L 512.433594 476.164063 L 512.296875 476.773438 L 512.199219 477.390625 L 512.140625 478.011719 L 512.121094 478.636719 L 512.140625 479.261719 L 512.199219 479.882813 L 512.296875 480.5 L 512.433594 481.109375 L 512.609375 481.707031 L 512.820313 482.292969 L 513.066406 482.867188 L 513.351563 483.421875 L 513.667969 483.960938 L 514.019531 484.476563 L 514.402344 484.96875 L 514.816406 485.4375 L 515.257813 485.878906 L 515.722656 486.292969 L 516.21875 486.675781 L 516.734375 487.027344 L 517.269531 487.34375 L 517.828125 487.625 L 518.398438 487.875 L 518.988281 488.085938 L 519.585938 488.261719 L 520.195313 488.394531 L 520.8125 488.492188 L 521.433594 488.554688 L 522.058594 488.574219 L 522.679688 488.554688 L 523.304688 488.492188 L 523.917969 488.394531 L 524.527344 488.261719 L 525.128906 488.085938 L 525.714844 487.875 L 526.289063 487.625 L 526.84375 487.34375 L 527.382813 487.027344 L 527.898438 486.675781 L 528.390625 486.292969 L 528.859375 485.878906 L 529.300781 485.4375 L 529.714844 484.96875 L 530.09375 484.476563 L 530.445313 483.960938 L 530.765625 483.421875 L 531.046875 482.867188 L 531.296875 482.292969 L 531.507813 481.707031 L 531.679688 481.109375 L 531.816406 480.5 L 531.914063 479.882813 L 531.972656 479.261719 Z M 531.992188 478.636719 "/>
</g>
</svg>
