<?xml version="1.0" encoding="UTF-8"?>
<svg xmlns="http://www.w3.org/2000/svg" xmlns:xlink="http://www.w3.org/1999/xlink" width="504pt" height="504pt" viewBox="0 0 504 504" version="1.1">
<defs>
<clipPath id="clip1">
  <path d="M 47.519531 58 L 183.207031 58 L 183.207031 61 L 47.519531 61 Z M 47.519531 58 "/>
</clipPath>
<clipPath id="clip2">
  <path d="M 202.214844 97 L 337.902344 97 L 337.902344 101 L 202.214844 101 Z M 202.214844 97 "/>
</clipPath>
<clipPath id="clip3">
  <path d="M 356.910156 58 L 492.597656 58 L 492.597656 61 L 356.910156 61 Z M 356.910156 58 "/>
</clipPath>
<clipPath id="clip4">
  <path d="M 356.910156 97 L 492.597656 97 L 492.597656 101 L 356.910156 101 Z M 356.910156 97 "/>
</clipPath>
<clipPath id="clip5">
  <path d="M 133 166.097656 L 137 166.097656 L 137 301.785156 L 133 301.785156 Z M 133 166.097656 "/>
</clipPath>
<clipPath id="clip6">
  <path d="M 249 166.097656 L 252 166.097656 L 252 301.785156 L 249 301.785156 Z M 249 166.097656 "/>
</clipPath>
<clipPath id="clip7">
  <path d="M 443 166.097656 L 446 166.097656 L 446 301.785156 L 443 301.785156 Z M 443 166.097656 "/>
</clipPath>
<clipPath id="clip8">
  <path d="M 403 166.097656 L 407 166.097656 L 407 301.785156 L 403 301.785156 Z M 403 166.097656 "/>
</clipPath>
<clipPath id="clip9">
  <path d="M 47.519531 367 L 183.207031 367 L 183.207031 371 L 47.519531 371 Z M 47.519531 367 "/>
</clipPath>
<clipPath id="clip10">
  <path d="M 133 320.792969 L 137 320.792969 L 137 456.480469 L 133 456.480469 Z M 133 320.792969 "/>
</clipPath>
<clipPath id="clip11">
  <path d="M 202.214844 407 L 337.902344 407 L 337.902344 410 L 202.214844 410 Z M 202.214844 407 "/>
</clipPath>
<clipPath id="clip12">
  <path d="M 249 320.792969 L 252 320.792969 L 252 456.480469 L 249 456.480469 Z M 249 320.792969 "/>
</clipPath>
</defs>
<g id="surface51">
<rect x="0" y="0" width="504" height="504" style="fill:rgb(100%,100%,100%);fill-opacity:1;stroke:none;"/>
<g clip-path="url(#clip1)" clip-rule="nonzero">
<path style="fill:none;stroke-width:2.25;stroke-linecap:round;stroke-linejoin:round;stroke:rgb(0%,0%,0%);stroke-opacity:1;stroke-dasharray:9,9;stroke-miterlimit:10;" d="M 44.691406 59.617188 L 186.03125 59.617188 L 44.691406 59.617188 "/>
</g>
<path style="fill:none;stroke-width:1.5;stroke-linecap:round;stroke-linejoin:round;stroke:rgb(0%,0%,0%);stroke-opacity:1;stroke-miterlimit:10;" d="M 170.328125 36.0625 L 170.304688 35.320313 L 170.234375 34.585938 L 170.121094 33.855469 L 169.957031 33.132813 L 169.753906 32.421875 L 169.5 31.726563 L 169.207031 31.046875 L 168.871094 30.386719 L 168.496094 29.75 L 168.078125 29.136719 L 167.625 28.554688 L 167.136719 27.996094 L 166.613281 27.476563 L 166.058594 26.984375 L 165.472656 26.53125 L 164.863281 26.117188 L 164.226563 25.738281 L 163.566406 25.402344 L 162.886719 25.109375 L 162.191406 24.859375 L 161.480469 24.652344 L 160.757813 24.492188 L 160.027344 24.375 L 159.289063 24.304688 L 158.550781 24.28125 L 157.8125 24.304688 L 157.074219 24.375 L 156.34375 24.492188 L 155.621094 24.652344 L 154.910156 24.859375 L 154.214844 25.109375 L 153.535156 25.402344 L 152.875 25.738281 L 152.238281 26.117188 L 151.628906 26.53125 L 151.042969 26.984375 L 150.488281 27.476563 L 149.964844 27.996094 L 149.476563 28.554688 L 149.023438 29.136719 L 148.605469 29.75 L 148.230469 30.386719 L 147.894531 31.046875 L 147.597656 31.726563 L 147.347656 32.421875 L 147.140625 33.132813 L 146.980469 33.855469 L 146.863281 34.585938 L 146.796875 35.320313 L 146.773438 36.0625 L 146.796875 36.800781 L 146.863281 37.535156 L 146.980469 38.269531 L 147.140625 38.988281 L 147.347656 39.699219 L 147.597656 40.398438 L 147.894531 41.074219 L 148.230469 41.734375 L 148.605469 42.371094 L 149.023438 42.984375 L 149.476563 43.570313 L 149.964844 44.125 L 150.488281 44.648438 L 151.042969 45.136719 L 151.628906 45.589844 L 152.238281 46.003906 L 152.875 46.382813 L 153.535156 46.71875 L 154.214844 47.011719 L 154.910156 47.261719 L 155.621094 47.46875 L 156.34375 47.628906 L 157.074219 47.746094 L 157.8125 47.816406 L 158.550781 47.839844 L 159.289063 47.816406 L 160.027344 47.746094 L 160.757813 47.628906 L 161.480469 47.46875 L 162.191406 47.261719 L 162.886719 47.011719 L 163.566406 46.71875 L 164.226563 46.382813 L 164.863281 46.003906 L 165.472656 45.589844 L 166.058594 45.136719 L 166.613281 44.648438 L 167.136719 44.125 L 167.625 43.570313 L 168.078125 42.984375 L 168.496094 42.371094 L 168.871094 41.734375 L 169.207031 41.074219 L 169.5 40.398438 L 169.753906 39.699219 L 169.957031 38.988281 L 170.121094 38.269531 L 170.234375 37.535156 L 170.304688 36.800781 L 170.328125 36.0625 "/>
<path style="fill:none;stroke-width:1.5;stroke-linecap:round;stroke-linejoin:round;stroke:rgb(0%,0%,0%);stroke-opacity:1;stroke-miterlimit:10;" d="M 127.140625 79.246094 L 127.117188 78.507813 L 127.046875 77.773438 L 126.933594 77.039063 L 126.773438 76.320313 L 126.566406 75.609375 L 126.3125 74.910156 L 126.019531 74.234375 L 125.683594 73.574219 L 125.308594 72.9375 L 124.890625 72.324219 L 124.4375 71.738281 L 123.949219 71.183594 L 123.425781 70.660156 L 122.871094 70.171875 L 122.285156 69.71875 L 121.675781 69.304688 L 121.039063 68.925781 L 120.378906 68.589844 L 119.699219 68.296875 L 119.003906 68.046875 L 118.292969 67.839844 L 117.570313 67.679688 L 116.839844 67.5625 L 116.101563 67.492188 L 115.363281 67.46875 L 114.625 67.492188 L 113.886719 67.5625 L 113.15625 67.679688 L 112.433594 67.839844 L 111.722656 68.046875 L 111.027344 68.296875 L 110.347656 68.589844 L 109.6875 68.925781 L 109.050781 69.304688 L 108.441406 69.71875 L 107.855469 70.171875 L 107.300781 70.660156 L 106.777344 71.183594 L 106.289063 71.738281 L 105.835938 72.324219 L 105.417969 72.9375 L 105.042969 73.574219 L 104.707031 74.234375 L 104.410156 74.910156 L 104.160156 75.609375 L 103.953125 76.320313 L 103.792969 77.039063 L 103.679688 77.773438 L 103.609375 78.507813 L 103.585938 79.246094 L 103.609375 79.988281 L 103.679688 80.722656 L 103.792969 81.453125 L 103.953125 82.175781 L 104.160156 82.886719 L 104.410156 83.582031 L 104.707031 84.261719 L 105.042969 84.921875 L 105.417969 85.558594 L 105.835938 86.171875 L 106.289063 86.753906 L 106.777344 87.3125 L 107.300781 87.835938 L 107.855469 88.324219 L 108.441406 88.777344 L 109.050781 89.191406 L 109.6875 89.570313 L 110.347656 89.90625 L 111.027344 90.199219 L 111.722656 90.449219 L 112.433594 90.65625 L 113.15625 90.816406 L 113.886719 90.933594 L 114.625 91.003906 L 115.363281 91.027344 L 116.101563 91.003906 L 116.839844 90.933594 L 117.570313 90.816406 L 118.292969 90.65625 L 119.003906 90.449219 L 119.699219 90.199219 L 120.378906 89.90625 L 121.039063 89.570313 L 121.675781 89.191406 L 122.285156 88.777344 L 122.871094 88.324219 L 123.425781 87.835938 L 123.949219 87.3125 L 124.4375 86.753906 L 124.890625 86.171875 L 125.308594 85.558594 L 125.683594 84.921875 L 126.019531 84.261719 L 126.3125 83.582031 L 126.566406 82.886719 L 126.773438 82.175781 L 126.933594 81.453125 L 127.046875 80.722656 L 127.117188 79.988281 L 127.140625 79.246094 "/>
<path style="fill:none;stroke-width:2.25;stroke-linecap:round;stroke-linejoin:round;stroke:rgb(0%,0%,0%);stroke-opacity:1;stroke-miterlimit:10;" d="M 63.847656 114.105469 L 80.503906 130.765625 L 63.847656 114.105469 "/>
<path style="fill:none;stroke-width:2.25;stroke-linecap:round;stroke-linejoin:round;stroke:rgb(0%,0%,0%);stroke-opacity:1;stroke-miterlimit:10;" d="M 63.847656 130.765625 L 80.503906 114.105469 L 63.847656 130.765625 "/>
<g clip-path="url(#clip2)" clip-rule="nonzero">
<path style="fill:none;stroke-width:2.25;stroke-linecap:round;stroke-linejoin:round;stroke:rgb(0%,0%,0%);stroke-opacity:1;stroke-dasharray:9,9;stroke-miterlimit:10;" d="M 199.386719 98.878906 L 340.726563 98.878906 L 199.386719 98.878906 "/>
</g>
<path style="fill:none;stroke-width:1.5;stroke-linecap:round;stroke-linejoin:round;stroke:rgb(0%,0%,0%);stroke-opacity:1;stroke-miterlimit:10;" d="M 325.023438 36.0625 L 325 35.320313 L 324.929688 34.585938 L 324.816406 33.855469 L 324.652344 33.132813 L 324.445313 32.421875 L 324.195313 31.726563 L 323.902344 31.046875 L 323.566406 30.386719 L 323.191406 29.75 L 322.773438 29.136719 L 322.320313 28.554688 L 321.832031 27.996094 L 321.308594 27.476563 L 320.753906 26.984375 L 320.167969 26.53125 L 319.554688 26.117188 L 318.917969 25.738281 L 318.261719 25.402344 L 317.582031 25.109375 L 316.882813 24.859375 L 316.175781 24.652344 L 315.453125 24.492188 L 314.722656 24.375 L 313.984375 24.304688 L 313.246094 24.28125 L 312.503906 24.304688 L 311.769531 24.375 L 311.039063 24.492188 L 310.316406 24.652344 L 309.605469 24.859375 L 308.910156 25.109375 L 308.230469 25.402344 L 307.570313 25.738281 L 306.933594 26.117188 L 306.320313 26.53125 L 305.738281 26.984375 L 305.183594 27.476563 L 304.660156 27.996094 L 304.167969 28.554688 L 303.714844 29.136719 L 303.300781 29.75 L 302.921875 30.386719 L 302.585938 31.046875 L 302.292969 31.726563 L 302.042969 32.421875 L 301.835938 33.132813 L 301.675781 33.855469 L 301.558594 34.585938 L 301.488281 35.320313 L 301.464844 36.0625 L 301.488281 36.800781 L 301.558594 37.535156 L 301.675781 38.269531 L 301.835938 38.988281 L 302.042969 39.699219 L 302.292969 40.398438 L 302.585938 41.074219 L 302.921875 41.734375 L 303.300781 42.371094 L 303.714844 42.984375 L 304.167969 43.570313 L 304.660156 44.125 L 305.183594 44.648438 L 305.738281 45.136719 L 306.320313 45.589844 L 306.933594 46.003906 L 307.570313 46.382813 L 308.230469 46.71875 L 308.910156 47.011719 L 309.605469 47.261719 L 310.316406 47.46875 L 311.039063 47.628906 L 311.769531 47.746094 L 312.503906 47.816406 L 313.246094 47.839844 L 313.984375 47.816406 L 314.722656 47.746094 L 315.453125 47.628906 L 316.175781 47.46875 L 316.882813 47.261719 L 317.582031 47.011719 L 318.261719 46.71875 L 318.917969 46.382813 L 319.554688 46.003906 L 320.167969 45.589844 L 320.753906 45.136719 L 321.308594 44.648438 L 321.832031 44.125 L 322.320313 43.570313 L 322.773438 42.984375 L 323.191406 42.371094 L 323.566406 41.734375 L 323.902344 41.074219 L 324.195313 40.398438 L 324.445313 39.699219 L 324.652344 38.988281 L 324.816406 38.269531 L 324.929688 37.535156 L 325 36.800781 L 325.023438 36.0625 "/>
<path style="fill:none;stroke-width:1.5;stroke-linecap:round;stroke-linejoin:round;stroke:rgb(0%,0%,0%);stroke-opacity:1;stroke-miterlimit:10;" d="M 281.835938 79.246094 L 281.8125 78.507813 L 281.742188 77.773438 L 281.628906 77.039063 L 281.464844 76.320313 L 281.257813 75.609375 L 281.007813 74.910156 L 280.714844 74.234375 L 280.378906 73.574219 L 280.003906 72.9375 L 279.585938 72.324219 L 279.132813 71.738281 L 278.644531 71.183594 L 278.121094 70.660156 L 277.566406 70.171875 L 276.980469 69.71875 L 276.367188 69.304688 L 275.730469 68.925781 L 275.074219 68.589844 L 274.394531 68.296875 L 273.699219 68.046875 L 272.988281 67.839844 L 272.265625 67.679688 L 271.535156 67.5625 L 270.796875 67.492188 L 270.058594 67.46875 L 269.316406 67.492188 L 268.582031 67.5625 L 267.851563 67.679688 L 267.128906 67.839844 L 266.417969 68.046875 L 265.722656 68.296875 L 265.042969 68.589844 L 264.382813 68.925781 L 263.746094 69.304688 L 263.132813 69.71875 L 262.550781 70.171875 L 261.996094 70.660156 L 261.472656 71.183594 L 260.980469 71.738281 L 260.527344 72.324219 L 260.113281 72.9375 L 259.734375 73.574219 L 259.398438 74.234375 L 259.105469 74.910156 L 258.855469 75.609375 L 258.648438 76.320313 L 258.488281 77.039063 L 258.371094 77.773438 L 258.300781 78.507813 L 258.277344 79.246094 L 258.300781 79.988281 L 258.371094 80.722656 L 258.488281 81.453125 L 258.648438 82.175781 L 258.855469 82.886719 L 259.105469 83.582031 L 259.398438 84.261719 L 259.734375 84.921875 L 260.113281 85.558594 L 260.527344 86.171875 L 260.980469 86.753906 L 261.472656 87.3125 L 261.996094 87.835938 L 262.550781 88.324219 L 263.132813 88.777344 L 263.746094 89.191406 L 264.382813 89.570313 L 265.042969 89.90625 L 265.722656 90.199219 L 266.417969 90.449219 L 267.128906 90.65625 L 267.851563 90.816406 L 268.582031 90.933594 L 269.316406 91.003906 L 270.058594 91.027344 L 270.796875 91.003906 L 271.535156 90.933594 L 272.265625 90.816406 L 272.988281 90.65625 L 273.699219 90.449219 L 274.394531 90.199219 L 275.074219 89.90625 L 275.730469 89.570313 L 276.367188 89.191406 L 276.980469 88.777344 L 277.566406 88.324219 L 278.121094 87.835938 L 278.644531 87.3125 L 279.132813 86.753906 L 279.585938 86.171875 L 280.003906 85.558594 L 280.378906 84.921875 L 280.714844 84.261719 L 281.007813 83.582031 L 281.257813 82.886719 L 281.464844 82.175781 L 281.628906 81.453125 L 281.742188 80.722656 L 281.8125 79.988281 L 281.835938 79.246094 "/>
<path style="fill:none;stroke-width:2.25;stroke-linecap:round;stroke-linejoin:round;stroke:rgb(0%,0%,0%);stroke-opacity:1;stroke-miterlimit:10;" d="M 304.917969 114.105469 L 321.574219 130.765625 L 304.917969 114.105469 "/>
<path style="fill:none;stroke-width:2.25;stroke-linecap:round;stroke-linejoin:round;stroke:rgb(0%,0%,0%);stroke-opacity:1;stroke-miterlimit:10;" d="M 304.917969 130.765625 L 321.574219 114.105469 L 304.917969 130.765625 "/>
<g clip-path="url(#clip3)" clip-rule="nonzero">
<path style="fill:none;stroke-width:2.25;stroke-linecap:round;stroke-linejoin:round;stroke:rgb(0%,0%,0%);stroke-opacity:1;stroke-dasharray:9,9;stroke-miterlimit:10;" d="M 354.082031 59.617188 L 495.421875 59.617188 L 354.082031 59.617188 "/>
</g>
<g clip-path="url(#clip4)" clip-rule="nonzero">
<path style="fill:none;stroke-width:2.25;stroke-linecap:round;stroke-linejoin:round;stroke:rgb(0%,0%,0%);stroke-opacity:1;stroke-dasharray:9,9;stroke-miterlimit:10;" d="M 354.082031 98.878906 L 495.421875 98.878906 L 354.082031 98.878906 "/>
</g>
<path style="fill:none;stroke-width:1.5;stroke-linecap:round;stroke-linejoin:round;stroke:rgb(0%,0%,0%);stroke-opacity:1;stroke-miterlimit:10;" d="M 479.71875 36.0625 L 479.695313 35.320313 L 479.625 34.585938 L 479.507813 33.855469 L 479.347656 33.132813 L 479.140625 32.421875 L 478.890625 31.726563 L 478.597656 31.046875 L 478.261719 30.386719 L 477.882813 29.75 L 477.46875 29.136719 L 477.015625 28.554688 L 476.523438 27.996094 L 476.003906 27.476563 L 475.445313 26.984375 L 474.863281 26.53125 L 474.25 26.117188 L 473.613281 25.738281 L 472.953125 25.402344 L 472.273438 25.109375 L 471.578125 24.859375 L 470.867188 24.652344 L 470.144531 24.492188 L 469.414063 24.375 L 468.679688 24.304688 L 467.9375 24.28125 L 467.199219 24.304688 L 466.464844 24.375 L 465.730469 24.492188 L 465.011719 24.652344 L 464.300781 24.859375 L 463.601563 25.109375 L 462.925781 25.402344 L 462.265625 25.738281 L 461.628906 26.117188 L 461.015625 26.53125 L 460.429688 26.984375 L 459.875 27.476563 L 459.351563 27.996094 L 458.863281 28.554688 L 458.410156 29.136719 L 457.996094 29.75 L 457.617188 30.386719 L 457.28125 31.046875 L 456.988281 31.726563 L 456.738281 32.421875 L 456.53125 33.132813 L 456.371094 33.855469 L 456.253906 34.585938 L 456.183594 35.320313 L 456.160156 36.0625 L 456.183594 36.800781 L 456.253906 37.535156 L 456.371094 38.269531 L 456.53125 38.988281 L 456.738281 39.699219 L 456.988281 40.398438 L 457.28125 41.074219 L 457.617188 41.734375 L 457.996094 42.371094 L 458.410156 42.984375 L 458.863281 43.570313 L 459.351563 44.125 L 459.875 44.648438 L 460.429688 45.136719 L 461.015625 45.589844 L 461.628906 46.003906 L 462.265625 46.382813 L 462.925781 46.71875 L 463.601563 47.011719 L 464.300781 47.261719 L 465.011719 47.46875 L 465.730469 47.628906 L 466.464844 47.746094 L 467.199219 47.816406 L 467.9375 47.839844 L 468.679688 47.816406 L 469.414063 47.746094 L 470.144531 47.628906 L 470.867188 47.46875 L 471.578125 47.261719 L 472.273438 47.011719 L 472.953125 46.71875 L 473.613281 46.382813 L 474.25 46.003906 L 474.863281 45.589844 L 475.445313 45.136719 L 476.003906 44.648438 L 476.523438 44.125 L 477.015625 43.570313 L 477.46875 42.984375 L 477.882813 42.371094 L 478.261719 41.734375 L 478.597656 41.074219 L 478.890625 40.398438 L 479.140625 39.699219 L 479.347656 38.988281 L 479.507813 38.269531 L 479.625 37.535156 L 479.695313 36.800781 L 479.71875 36.0625 "/>
<path style="fill:none;stroke-width:1.5;stroke-linecap:round;stroke-linejoin:round;stroke:rgb(0%,0%,0%);stroke-opacity:1;stroke-miterlimit:10;" d="M 436.53125 79.246094 L 436.507813 78.507813 L 436.4375 77.773438 L 436.320313 77.039063 L 436.160156 76.320313 L 435.953125 75.609375 L 435.703125 74.910156 L 435.410156 74.234375 L 435.074219 73.574219 L 434.695313 72.9375 L 434.28125 72.324219 L 433.828125 71.738281 L 433.339844 71.183594 L 432.816406 70.660156 L 432.261719 70.171875 L 431.675781 69.71875 L 431.0625 69.304688 L 430.425781 68.925781 L 429.765625 68.589844 L 429.089844 68.296875 L 428.390625 68.046875 L 427.679688 67.839844 L 426.960938 67.679688 L 426.226563 67.5625 L 425.492188 67.492188 L 424.753906 67.46875 L 424.011719 67.492188 L 423.277344 67.5625 L 422.546875 67.679688 L 421.824219 67.839844 L 421.113281 68.046875 L 420.417969 68.296875 L 419.738281 68.589844 L 419.078125 68.925781 L 418.441406 69.304688 L 417.828125 69.71875 L 417.246094 70.171875 L 416.6875 70.660156 L 416.164063 71.183594 L 415.675781 71.738281 L 415.222656 72.324219 L 414.808594 72.9375 L 414.429688 73.574219 L 414.09375 74.234375 L 413.800781 74.910156 L 413.550781 75.609375 L 413.34375 76.320313 L 413.183594 77.039063 L 413.066406 77.773438 L 412.996094 78.507813 L 412.972656 79.246094 L 412.996094 79.988281 L 413.066406 80.722656 L 413.183594 81.453125 L 413.34375 82.175781 L 413.550781 82.886719 L 413.800781 83.582031 L 414.09375 84.261719 L 414.429688 84.921875 L 414.808594 85.558594 L 415.222656 86.171875 L 415.675781 86.753906 L 416.164063 87.3125 L 416.6875 87.835938 L 417.246094 88.324219 L 417.828125 88.777344 L 418.441406 89.191406 L 419.078125 89.570313 L 419.738281 89.90625 L 420.417969 90.199219 L 421.113281 90.449219 L 421.824219 90.65625 L 422.546875 90.816406 L 423.277344 90.933594 L 424.011719 91.003906 L 424.753906 91.027344 L 425.492188 91.003906 L 426.226563 90.933594 L 426.960938 90.816406 L 427.679688 90.65625 L 428.390625 90.449219 L 429.089844 90.199219 L 429.765625 89.90625 L 430.425781 89.570313 L 431.0625 89.191406 L 431.675781 88.777344 L 432.261719 88.324219 L 432.816406 87.835938 L 433.339844 87.3125 L 433.828125 86.753906 L 434.28125 86.171875 L 434.695313 85.558594 L 435.074219 84.921875 L 435.410156 84.261719 L 435.703125 83.582031 L 435.953125 82.886719 L 436.160156 82.175781 L 436.320313 81.453125 L 436.4375 80.722656 L 436.507813 79.988281 L 436.53125 79.246094 "/>
<g clip-path="url(#clip5)" clip-rule="nonzero">
<path style="fill:none;stroke-width:2.25;stroke-linecap:round;stroke-linejoin:round;stroke:rgb(0%,0%,0%);stroke-opacity:1;stroke-dasharray:9,9;stroke-miterlimit:10;" d="M 134.992188 304.613281 L 134.992188 163.273438 L 134.992188 304.613281 "/>
</g>
<path style="fill:none;stroke-width:1.5;stroke-linecap:round;stroke-linejoin:round;stroke:rgb(0%,0%,0%);stroke-opacity:1;stroke-miterlimit:10;" d="M 170.328125 190.753906 L 170.304688 190.015625 L 170.234375 189.277344 L 170.121094 188.546875 L 169.957031 187.824219 L 169.753906 187.117188 L 169.5 186.417969 L 169.207031 185.738281 L 168.871094 185.082031 L 168.496094 184.445313 L 168.078125 183.832031 L 167.625 183.246094 L 167.136719 182.691406 L 166.613281 182.167969 L 166.058594 181.679688 L 165.472656 181.226563 L 164.863281 180.808594 L 164.226563 180.433594 L 163.566406 180.097656 L 162.886719 179.804688 L 162.191406 179.554688 L 161.480469 179.347656 L 160.757813 179.183594 L 160.027344 179.070313 L 159.289063 179 L 158.550781 178.976563 L 157.8125 179 L 157.074219 179.070313 L 156.34375 179.183594 L 155.621094 179.347656 L 154.910156 179.554688 L 154.214844 179.804688 L 153.535156 180.097656 L 152.875 180.433594 L 152.238281 180.808594 L 151.628906 181.226563 L 151.042969 181.679688 L 150.488281 182.167969 L 149.964844 182.691406 L 149.476563 183.246094 L 149.023438 183.832031 L 148.605469 184.445313 L 148.230469 185.082031 L 147.894531 185.738281 L 147.597656 186.417969 L 147.347656 187.117188 L 147.140625 187.824219 L 146.980469 188.546875 L 146.863281 189.277344 L 146.796875 190.015625 L 146.773438 190.753906 L 146.796875 191.496094 L 146.863281 192.230469 L 146.980469 192.960938 L 147.140625 193.683594 L 147.347656 194.394531 L 147.597656 195.089844 L 147.894531 195.769531 L 148.230469 196.429688 L 148.605469 197.066406 L 149.023438 197.679688 L 149.476563 198.261719 L 149.964844 198.816406 L 150.488281 199.339844 L 151.042969 199.832031 L 151.628906 200.285156 L 152.238281 200.699219 L 152.875 201.078125 L 153.535156 201.414063 L 154.214844 201.707031 L 154.910156 201.957031 L 155.621094 202.164063 L 156.34375 202.324219 L 157.074219 202.441406 L 157.8125 202.511719 L 158.550781 202.535156 L 159.289063 202.511719 L 160.027344 202.441406 L 160.757813 202.324219 L 161.480469 202.164063 L 162.191406 201.957031 L 162.886719 201.707031 L 163.566406 201.414063 L 164.226563 201.078125 L 164.863281 200.699219 L 165.472656 200.285156 L 166.058594 199.832031 L 166.613281 199.339844 L 167.136719 198.816406 L 167.625 198.261719 L 168.078125 197.679688 L 168.496094 197.066406 L 168.871094 196.429688 L 169.207031 195.769531 L 169.5 195.089844 L 169.753906 194.394531 L 169.957031 193.683594 L 170.121094 192.960938 L 170.234375 192.230469 L 170.304688 191.496094 L 170.328125 190.753906 "/>
<path style="fill:none;stroke-width:2.25;stroke-linecap:round;stroke-linejoin:round;stroke:rgb(0%,0%,0%);stroke-opacity:1;stroke-miterlimit:10;" d="M 150.222656 268.800781 L 166.878906 285.457031 L 150.222656 268.800781 "/>
<path style="fill:none;stroke-width:2.25;stroke-linecap:round;stroke-linejoin:round;stroke:rgb(0%,0%,0%);stroke-opacity:1;stroke-miterlimit:10;" d="M 150.222656 285.457031 L 166.878906 268.800781 L 150.222656 285.457031 "/>
<path style="fill:none;stroke-width:2.25;stroke-linecap:round;stroke-linejoin:round;stroke:rgb(0%,0%,0%);stroke-opacity:1;stroke-miterlimit:10;" d="M 63.847656 268.800781 L 80.503906 285.457031 L 63.847656 268.800781 "/>
<path style="fill:none;stroke-width:2.25;stroke-linecap:round;stroke-linejoin:round;stroke:rgb(0%,0%,0%);stroke-opacity:1;stroke-miterlimit:10;" d="M 63.847656 285.457031 L 80.503906 268.800781 L 63.847656 285.457031 "/>
<g clip-path="url(#clip6)" clip-rule="nonzero">
<path style="fill:none;stroke-width:2.25;stroke-linecap:round;stroke-linejoin:round;stroke:rgb(0%,0%,0%);stroke-opacity:1;stroke-dasharray:9,9;stroke-miterlimit:10;" d="M 250.425781 304.613281 L 250.425781 163.273438 L 250.425781 304.613281 "/>
</g>
<path style="fill:none;stroke-width:1.5;stroke-linecap:round;stroke-linejoin:round;stroke:rgb(0%,0%,0%);stroke-opacity:1;stroke-miterlimit:10;" d="M 325.023438 190.753906 L 325 190.015625 L 324.929688 189.277344 L 324.816406 188.546875 L 324.652344 187.824219 L 324.445313 187.117188 L 324.195313 186.417969 L 323.902344 185.738281 L 323.566406 185.082031 L 323.191406 184.445313 L 322.773438 183.832031 L 322.320313 183.246094 L 321.832031 182.691406 L 321.308594 182.167969 L 320.753906 181.679688 L 320.167969 181.226563 L 319.554688 180.808594 L 318.917969 180.433594 L 318.261719 180.097656 L 317.582031 179.804688 L 316.882813 179.554688 L 316.175781 179.347656 L 315.453125 179.183594 L 314.722656 179.070313 L 313.984375 179 L 313.246094 178.976563 L 312.503906 179 L 311.769531 179.070313 L 311.039063 179.183594 L 310.316406 179.347656 L 309.605469 179.554688 L 308.910156 179.804688 L 308.230469 180.097656 L 307.570313 180.433594 L 306.933594 180.808594 L 306.320313 181.226563 L 305.738281 181.679688 L 305.183594 182.167969 L 304.660156 182.691406 L 304.167969 183.246094 L 303.714844 183.832031 L 303.300781 184.445313 L 302.921875 185.082031 L 302.585938 185.738281 L 302.292969 186.417969 L 302.042969 187.117188 L 301.835938 187.824219 L 301.675781 188.546875 L 301.558594 189.277344 L 301.488281 190.015625 L 301.464844 190.753906 L 301.488281 191.496094 L 301.558594 192.230469 L 301.675781 192.960938 L 301.835938 193.683594 L 302.042969 194.394531 L 302.292969 195.089844 L 302.585938 195.769531 L 302.921875 196.429688 L 303.300781 197.066406 L 303.714844 197.679688 L 304.167969 198.261719 L 304.660156 198.816406 L 305.183594 199.339844 L 305.738281 199.832031 L 306.320313 200.285156 L 306.933594 200.699219 L 307.570313 201.078125 L 308.230469 201.414063 L 308.910156 201.707031 L 309.605469 201.957031 L 310.316406 202.164063 L 311.039063 202.324219 L 311.769531 202.441406 L 312.503906 202.511719 L 313.246094 202.535156 L 313.984375 202.511719 L 314.722656 202.441406 L 315.453125 202.324219 L 316.175781 202.164063 L 316.882813 201.957031 L 317.582031 201.707031 L 318.261719 201.414063 L 318.917969 201.078125 L 319.554688 200.699219 L 320.167969 200.285156 L 320.753906 199.832031 L 321.308594 199.339844 L 321.832031 198.816406 L 322.320313 198.261719 L 322.773438 197.679688 L 323.191406 197.066406 L 323.566406 196.429688 L 323.902344 195.769531 L 324.195313 195.089844 L 324.445313 194.394531 L 324.652344 193.683594 L 324.816406 192.960938 L 324.929688 192.230469 L 325 191.496094 L 325.023438 190.753906 "/>
<path style="fill:none;stroke-width:1.5;stroke-linecap:round;stroke-linejoin:round;stroke:rgb(0%,0%,0%);stroke-opacity:1;stroke-miterlimit:10;" d="M 281.835938 233.941406 L 281.8125 233.203125 L 281.742188 232.464844 L 281.628906 231.734375 L 281.464844 231.011719 L 281.257813 230.300781 L 281.007813 229.605469 L 280.714844 228.925781 L 280.378906 228.269531 L 280.003906 227.632813 L 279.585938 227.019531 L 279.132813 226.433594 L 278.644531 225.878906 L 278.121094 225.355469 L 277.566406 224.867188 L 276.980469 224.414063 L 276.367188 223.996094 L 275.730469 223.621094 L 275.074219 223.285156 L 274.394531 222.992188 L 273.699219 222.742188 L 272.988281 222.535156 L 272.265625 222.371094 L 271.535156 222.257813 L 270.796875 222.1875 L 270.058594 222.164063 L 269.316406 222.1875 L 268.582031 222.257813 L 267.851563 222.371094 L 267.128906 222.535156 L 266.417969 222.742188 L 265.722656 222.992188 L 265.042969 223.285156 L 264.382813 223.621094 L 263.746094 223.996094 L 263.132813 224.414063 L 262.550781 224.867188 L 261.996094 225.355469 L 261.472656 225.878906 L 260.980469 226.433594 L 260.527344 227.019531 L 260.113281 227.632813 L 259.734375 228.269531 L 259.398438 228.925781 L 259.105469 229.605469 L 258.855469 230.300781 L 258.648438 231.011719 L 258.488281 231.734375 L 258.371094 232.464844 L 258.300781 233.203125 L 258.277344 233.941406 L 258.300781 234.683594 L 258.371094 235.417969 L 258.488281 236.148438 L 258.648438 236.871094 L 258.855469 237.582031 L 259.105469 238.277344 L 259.398438 238.957031 L 259.734375 239.617188 L 260.113281 240.253906 L 260.527344 240.867188 L 260.980469 241.449219 L 261.472656 242.003906 L 261.996094 242.527344 L 262.550781 243.019531 L 263.132813 243.472656 L 263.746094 243.886719 L 264.382813 244.265625 L 265.042969 244.601563 L 265.722656 244.894531 L 266.417969 245.144531 L 267.128906 245.351563 L 267.851563 245.511719 L 268.582031 245.628906 L 269.316406 245.699219 L 270.058594 245.722656 L 270.796875 245.699219 L 271.535156 245.628906 L 272.265625 245.511719 L 272.988281 245.351563 L 273.699219 245.144531 L 274.394531 244.894531 L 275.074219 244.601563 L 275.730469 244.265625 L 276.367188 243.886719 L 276.980469 243.472656 L 277.566406 243.019531 L 278.121094 242.527344 L 278.644531 242.003906 L 279.132813 241.449219 L 279.585938 240.867188 L 280.003906 240.253906 L 280.378906 239.617188 L 280.714844 238.957031 L 281.007813 238.277344 L 281.257813 237.582031 L 281.464844 236.871094 L 281.628906 236.148438 L 281.742188 235.417969 L 281.8125 234.683594 L 281.835938 233.941406 "/>
<path style="fill:none;stroke-width:2.25;stroke-linecap:round;stroke-linejoin:round;stroke:rgb(0%,0%,0%);stroke-opacity:1;stroke-miterlimit:10;" d="M 218.542969 268.800781 L 235.199219 285.457031 L 218.542969 268.800781 "/>
<path style="fill:none;stroke-width:2.25;stroke-linecap:round;stroke-linejoin:round;stroke:rgb(0%,0%,0%);stroke-opacity:1;stroke-miterlimit:10;" d="M 218.542969 285.457031 L 235.199219 268.800781 L 218.542969 285.457031 "/>
<g clip-path="url(#clip7)" clip-rule="nonzero">
<path style="fill:none;stroke-width:2.25;stroke-linecap:round;stroke-linejoin:round;stroke:rgb(0%,0%,0%);stroke-opacity:1;stroke-dasharray:9,9;stroke-miterlimit:10;" d="M 444.382813 304.613281 L 444.382813 163.273438 L 444.382813 304.613281 "/>
</g>
<g clip-path="url(#clip8)" clip-rule="nonzero">
<path style="fill:none;stroke-width:2.25;stroke-linecap:round;stroke-linejoin:round;stroke:rgb(0%,0%,0%);stroke-opacity:1;stroke-dasharray:9,9;stroke-miterlimit:10;" d="M 405.121094 304.613281 L 405.121094 163.273438 L 405.121094 304.613281 "/>
</g>
<path style="fill:none;stroke-width:1.5;stroke-linecap:round;stroke-linejoin:round;stroke:rgb(0%,0%,0%);stroke-opacity:1;stroke-miterlimit:10;" d="M 479.71875 190.753906 L 479.695313 190.015625 L 479.625 189.277344 L 479.507813 188.546875 L 479.347656 187.824219 L 479.140625 187.117188 L 478.890625 186.417969 L 478.597656 185.738281 L 478.261719 185.082031 L 477.882813 184.445313 L 477.46875 183.832031 L 477.015625 183.246094 L 476.523438 182.691406 L 476.003906 182.167969 L 475.445313 181.679688 L 474.863281 181.226563 L 474.25 180.808594 L 473.613281 180.433594 L 472.953125 180.097656 L 472.273438 179.804688 L 471.578125 179.554688 L 470.867188 179.347656 L 470.144531 179.183594 L 469.414063 179.070313 L 468.679688 179 L 467.9375 178.976563 L 467.199219 179 L 466.464844 179.070313 L 465.730469 179.183594 L 465.011719 179.347656 L 464.300781 179.554688 L 463.601563 179.804688 L 462.925781 180.097656 L 462.265625 180.433594 L 461.628906 180.808594 L 461.015625 181.226563 L 460.429688 181.679688 L 459.875 182.167969 L 459.351563 182.691406 L 458.863281 183.246094 L 458.410156 183.832031 L 457.996094 184.445313 L 457.617188 185.082031 L 457.28125 185.738281 L 456.988281 186.417969 L 456.738281 187.117188 L 456.53125 187.824219 L 456.371094 188.546875 L 456.253906 189.277344 L 456.183594 190.015625 L 456.160156 190.753906 L 456.183594 191.496094 L 456.253906 192.230469 L 456.371094 192.960938 L 456.53125 193.683594 L 456.738281 194.394531 L 456.988281 195.089844 L 457.28125 195.769531 L 457.617188 196.429688 L 457.996094 197.066406 L 458.410156 197.679688 L 458.863281 198.261719 L 459.351563 198.816406 L 459.875 199.339844 L 460.429688 199.832031 L 461.015625 200.285156 L 461.628906 200.699219 L 462.265625 201.078125 L 462.925781 201.414063 L 463.601563 201.707031 L 464.300781 201.957031 L 465.011719 202.164063 L 465.730469 202.324219 L 466.464844 202.441406 L 467.199219 202.511719 L 467.9375 202.535156 L 468.679688 202.511719 L 469.414063 202.441406 L 470.144531 202.324219 L 470.867188 202.164063 L 471.578125 201.957031 L 472.273438 201.707031 L 472.953125 201.414063 L 473.613281 201.078125 L 474.25 200.699219 L 474.863281 200.285156 L 475.445313 199.832031 L 476.003906 199.339844 L 476.523438 198.816406 L 477.015625 198.261719 L 477.46875 197.679688 L 477.882813 197.066406 L 478.261719 196.429688 L 478.597656 195.769531 L 478.890625 195.089844 L 479.140625 194.394531 L 479.347656 193.683594 L 479.507813 192.960938 L 479.625 192.230469 L 479.695313 191.496094 L 479.71875 190.753906 "/>
<path style="fill:none;stroke-width:2.25;stroke-linecap:round;stroke-linejoin:round;stroke:rgb(0%,0%,0%);stroke-opacity:1;stroke-miterlimit:10;" d="M 373.234375 268.800781 L 389.894531 285.457031 L 373.234375 268.800781 "/>
<path style="fill:none;stroke-width:2.25;stroke-linecap:round;stroke-linejoin:round;stroke:rgb(0%,0%,0%);stroke-opacity:1;stroke-miterlimit:10;" d="M 373.234375 285.457031 L 389.894531 268.800781 L 373.234375 285.457031 "/>
<g clip-path="url(#clip9)" clip-rule="nonzero">
<path style="fill:none;stroke-width:2.25;stroke-linecap:round;stroke-linejoin:round;stroke:rgb(0%,0%,0%);stroke-opacity:1;stroke-dasharray:9,9;stroke-miterlimit:10;" d="M 44.691406 369.007813 L 186.03125 369.007813 L 44.691406 369.007813 "/>
</g>
<g clip-path="url(#clip10)" clip-rule="nonzero">
<path style="fill:none;stroke-width:2.25;stroke-linecap:round;stroke-linejoin:round;stroke:rgb(0%,0%,0%);stroke-opacity:1;stroke-dasharray:9,9;stroke-miterlimit:10;" d="M 134.992188 459.308594 L 134.992188 317.96875 L 134.992188 459.308594 "/>
</g>
<path style="fill:none;stroke-width:1.5;stroke-linecap:round;stroke-linejoin:round;stroke:rgb(0%,0%,0%);stroke-opacity:1;stroke-miterlimit:10;" d="M 170.328125 345.449219 L 170.304688 344.710938 L 170.234375 343.972656 L 170.121094 343.242188 L 169.957031 342.519531 L 169.753906 341.808594 L 169.5 341.113281 L 169.207031 340.433594 L 168.871094 339.773438 L 168.496094 339.136719 L 168.078125 338.527344 L 167.625 337.941406 L 167.136719 337.386719 L 166.613281 336.863281 L 166.058594 336.375 L 165.472656 335.921875 L 164.863281 335.503906 L 164.226563 335.128906 L 163.566406 334.792969 L 162.886719 334.5 L 162.191406 334.246094 L 161.480469 334.042969 L 160.757813 333.878906 L 160.027344 333.765625 L 159.289063 333.695313 L 158.550781 333.671875 L 157.8125 333.695313 L 157.074219 333.765625 L 156.34375 333.878906 L 155.621094 334.042969 L 154.910156 334.246094 L 154.214844 334.5 L 153.535156 334.792969 L 152.875 335.128906 L 152.238281 335.503906 L 151.628906 335.921875 L 151.042969 336.375 L 150.488281 336.863281 L 149.964844 337.386719 L 149.476563 337.941406 L 149.023438 338.527344 L 148.605469 339.136719 L 148.230469 339.773438 L 147.894531 340.433594 L 147.597656 341.113281 L 147.347656 341.808594 L 147.140625 342.519531 L 146.980469 343.242188 L 146.863281 343.972656 L 146.796875 344.710938 L 146.773438 345.449219 L 146.796875 346.1875 L 146.863281 346.925781 L 146.980469 347.65625 L 147.140625 348.378906 L 147.347656 349.089844 L 147.597656 349.785156 L 147.894531 350.464844 L 148.230469 351.125 L 148.605469 351.761719 L 149.023438 352.371094 L 149.476563 352.957031 L 149.964844 353.511719 L 150.488281 354.035156 L 151.042969 354.523438 L 151.628906 354.976563 L 152.238281 355.394531 L 152.875 355.769531 L 153.535156 356.105469 L 154.214844 356.402344 L 154.910156 356.652344 L 155.621094 356.859375 L 156.34375 357.019531 L 157.074219 357.136719 L 157.8125 357.203125 L 158.550781 357.226563 L 159.289063 357.203125 L 160.027344 357.136719 L 160.757813 357.019531 L 161.480469 356.859375 L 162.191406 356.652344 L 162.886719 356.402344 L 163.566406 356.105469 L 164.226563 355.769531 L 164.863281 355.394531 L 165.472656 354.976563 L 166.058594 354.523438 L 166.613281 354.035156 L 167.136719 353.511719 L 167.625 352.957031 L 168.078125 352.371094 L 168.496094 351.761719 L 168.871094 351.125 L 169.207031 350.464844 L 169.5 349.785156 L 169.753906 349.089844 L 169.957031 348.378906 L 170.121094 347.65625 L 170.234375 346.925781 L 170.304688 346.1875 L 170.328125 345.449219 "/>
<path style="fill:none;stroke-width:2.25;stroke-linecap:round;stroke-linejoin:round;stroke:rgb(0%,0%,0%);stroke-opacity:1;stroke-miterlimit:10;" d="M 63.847656 423.496094 L 80.503906 440.152344 L 63.847656 423.496094 "/>
<path style="fill:none;stroke-width:2.25;stroke-linecap:round;stroke-linejoin:round;stroke:rgb(0%,0%,0%);stroke-opacity:1;stroke-miterlimit:10;" d="M 63.847656 440.152344 L 80.503906 423.496094 L 63.847656 440.152344 "/>
<g clip-path="url(#clip11)" clip-rule="nonzero">
<path style="fill:none;stroke-width:2.25;stroke-linecap:round;stroke-linejoin:round;stroke:rgb(0%,0%,0%);stroke-opacity:1;stroke-dasharray:9,9;stroke-miterlimit:10;" d="M 199.386719 408.265625 L 340.726563 408.265625 L 199.386719 408.265625 "/>
</g>
<g clip-path="url(#clip12)" clip-rule="nonzero">
<path style="fill:none;stroke-width:2.25;stroke-linecap:round;stroke-linejoin:round;stroke:rgb(0%,0%,0%);stroke-opacity:1;stroke-dasharray:9,9;stroke-miterlimit:10;" d="M 250.425781 459.308594 L 250.425781 317.96875 L 250.425781 459.308594 "/>
</g>
<path style="fill:none;stroke-width:1.5;stroke-linecap:round;stroke-linejoin:round;stroke:rgb(0%,0%,0%);stroke-opacity:1;stroke-miterlimit:10;" d="M 325.023438 345.449219 L 325 344.710938 L 324.929688 343.972656 L 324.816406 343.242188 L 324.652344 342.519531 L 324.445313 341.808594 L 324.195313 341.113281 L 323.902344 340.433594 L 323.566406 339.773438 L 323.191406 339.136719 L 322.773438 338.527344 L 322.320313 337.941406 L 321.832031 337.386719 L 321.308594 336.863281 L 320.753906 336.375 L 320.167969 335.921875 L 319.554688 335.503906 L 318.917969 335.128906 L 318.261719 334.792969 L 317.582031 334.5 L 316.882813 334.246094 L 316.175781 334.042969 L 315.453125 333.878906 L 314.722656 333.765625 L 313.984375 333.695313 L 313.246094 333.671875 L 312.503906 333.695313 L 311.769531 333.765625 L 311.039063 333.878906 L 310.316406 334.042969 L 309.605469 334.246094 L 308.910156 334.5 L 308.230469 334.792969 L 307.570313 335.128906 L 306.933594 335.503906 L 306.320313 335.921875 L 305.738281 336.375 L 305.183594 336.863281 L 304.660156 337.386719 L 304.167969 337.941406 L 303.714844 338.527344 L 303.300781 339.136719 L 302.921875 339.773438 L 302.585938 340.433594 L 302.292969 341.113281 L 302.042969 341.808594 L 301.835938 342.519531 L 301.675781 343.242188 L 301.558594 343.972656 L 301.488281 344.710938 L 301.464844 345.449219 L 301.488281 346.1875 L 301.558594 346.925781 L 301.675781 347.65625 L 301.835938 348.378906 L 302.042969 349.089844 L 302.292969 349.785156 L 302.585938 350.464844 L 302.921875 351.125 L 303.300781 351.761719 L 303.714844 352.371094 L 304.167969 352.957031 L 304.660156 353.511719 L 305.183594 354.035156 L 305.738281 354.523438 L 306.320313 354.976563 L 306.933594 355.394531 L 307.570313 355.769531 L 308.230469 356.105469 L 308.910156 356.402344 L 309.605469 356.652344 L 310.316406 356.859375 L 311.039063 357.019531 L 311.769531 357.136719 L 312.503906 357.203125 L 313.246094 357.226563 L 313.984375 357.203125 L 314.722656 357.136719 L 315.453125 357.019531 L 316.175781 356.859375 L 316.882813 356.652344 L 317.582031 356.402344 L 318.261719 356.105469 L 318.917969 355.769531 L 319.554688 355.394531 L 320.167969 354.976563 L 320.753906 354.523438 L 321.308594 354.035156 L 321.832031 353.511719 L 322.320313 352.957031 L 322.773438 352.371094 L 323.191406 351.761719 L 323.566406 351.125 L 323.902344 350.464844 L 324.195313 349.785156 L 324.445313 349.089844 L 324.652344 348.378906 L 324.816406 347.65625 L 324.929688 346.925781 L 325 346.1875 L 325.023438 345.449219 "/>
<path style="fill:none;stroke-width:1.5;stroke-linecap:round;stroke-linejoin:round;stroke:rgb(0%,0%,0%);stroke-opacity:1;stroke-miterlimit:10;" d="M 281.835938 388.636719 L 281.8125 387.898438 L 281.742188 387.160156 L 281.628906 386.429688 L 281.464844 385.707031 L 281.257813 384.996094 L 281.007813 384.300781 L 280.714844 383.621094 L 280.378906 382.960938 L 280.003906 382.324219 L 279.585938 381.714844 L 279.132813 381.128906 L 278.644531 380.574219 L 278.121094 380.050781 L 277.566406 379.5625 L 276.980469 379.109375 L 276.367188 378.691406 L 275.730469 378.316406 L 275.074219 377.980469 L 274.394531 377.6875 L 273.699219 377.433594 L 272.988281 377.226563 L 272.265625 377.066406 L 271.535156 376.953125 L 270.796875 376.882813 L 270.058594 376.859375 L 269.316406 376.882813 L 268.582031 376.953125 L 267.851563 377.066406 L 267.128906 377.226563 L 266.417969 377.433594 L 265.722656 377.6875 L 265.042969 377.980469 L 264.382813 378.316406 L 263.746094 378.691406 L 263.132813 379.109375 L 262.550781 379.5625 L 261.996094 380.050781 L 261.472656 380.574219 L 260.980469 381.128906 L 260.527344 381.714844 L 260.113281 382.324219 L 259.734375 382.960938 L 259.398438 383.621094 L 259.105469 384.300781 L 258.855469 384.996094 L 258.648438 385.707031 L 258.488281 386.429688 L 258.371094 387.160156 L 258.300781 387.898438 L 258.277344 388.636719 L 258.300781 389.375 L 258.371094 390.113281 L 258.488281 390.84375 L 258.648438 391.566406 L 258.855469 392.277344 L 259.105469 392.972656 L 259.398438 393.652344 L 259.734375 394.3125 L 260.113281 394.949219 L 260.527344 395.558594 L 260.980469 396.144531 L 261.472656 396.699219 L 261.996094 397.222656 L 262.550781 397.710938 L 263.132813 398.164063 L 263.746094 398.582031 L 264.382813 398.957031 L 265.042969 399.292969 L 265.722656 399.589844 L 266.417969 399.839844 L 267.128906 400.046875 L 267.851563 400.207031 L 268.582031 400.320313 L 269.316406 400.390625 L 270.058594 400.414063 L 270.796875 400.390625 L 271.535156 400.320313 L 272.265625 400.207031 L 272.988281 400.046875 L 273.699219 399.839844 L 274.394531 399.589844 L 275.074219 399.292969 L 275.730469 398.957031 L 276.367188 398.582031 L 276.980469 398.164063 L 277.566406 397.710938 L 278.121094 397.222656 L 278.644531 396.699219 L 279.132813 396.144531 L 279.585938 395.558594 L 280.003906 394.949219 L 280.378906 394.3125 L 280.714844 393.652344 L 281.007813 392.972656 L 281.257813 392.277344 L 281.464844 391.566406 L 281.628906 390.84375 L 281.742188 390.113281 L 281.8125 389.375 L 281.835938 388.636719 "/>
</g>
</svg>
