<?xml version="1.0" encoding="UTF-8"?>
<svg xmlns="http://www.w3.org/2000/svg" xmlns:xlink="http://www.w3.org/1999/xlink" width="504pt" height="504pt" viewBox="0 0 504 504" version="1.1">
<g id="surface1">
<rect x="0" y="0" width="504" height="504" style="fill:rgb(100%,100%,100%);fill-opacity:1;stroke:none;"/>
<path style="fill:none;stroke-width:1.5;stroke-linecap:round;stroke-linejoin:round;stroke:rgb(0%,0%,0%);stroke-opacity:1;stroke-miterlimit:10;" d="M 138.917969 79.246094 L 138.875 77.769531 L 138.734375 76.296875 L 138.503906 74.832031 L 138.179688 73.390625 L 137.765625 71.96875 L 137.265625 70.578125 L 136.679688 69.21875 L 136.007813 67.898438 L 135.253906 66.625 L 134.421875 65.402344 L 133.515625 64.230469 L 132.535156 63.121094 L 131.488281 62.074219 L 130.378906 61.097656 L 129.210938 60.191406 L 127.984375 59.359375 L 126.710938 58.605469 L 125.394531 57.933594 L 124.035156 57.34375 L 122.644531 56.84375 L 121.222656 56.429688 L 119.777344 56.109375 L 118.316406 55.878906 L 116.84375 55.738281 L 115.363281 55.691406 L 113.882813 55.738281 L 112.410156 55.878906 L 110.949219 56.109375 L 109.503906 56.429688 L 108.082031 56.84375 L 106.691406 57.34375 L 105.332031 57.933594 L 104.015625 58.605469 L 102.742188 59.359375 L 101.515625 60.191406 L 100.347656 61.097656 L 99.238281 62.074219 L 98.191406 63.121094 L 97.210938 64.230469 L 96.304688 65.402344 L 95.472656 66.625 L 94.71875 67.898438 L 94.046875 69.21875 L 93.460938 70.578125 L 92.960938 71.96875 L 92.546875 73.390625 L 92.222656 74.832031 L 91.992188 76.296875 L 91.851563 77.769531 L 91.804688 79.246094 L 91.851563 80.726563 L 91.992188 82.199219 L 92.222656 83.660156 L 92.546875 85.105469 L 92.960938 86.527344 L 93.460938 87.917969 L 94.046875 89.277344 L 94.71875 90.597656 L 95.472656 91.871094 L 96.304688 93.09375 L 97.210938 94.261719 L 98.191406 95.375 L 99.238281 96.421875 L 100.347656 97.398438 L 101.515625 98.304688 L 102.742188 99.136719 L 104.015625 99.890625 L 105.332031 100.5625 L 106.691406 101.152344 L 108.082031 101.652344 L 109.503906 102.066406 L 110.949219 102.386719 L 112.410156 102.617188 L 113.882813 102.757813 L 115.363281 102.804688 L 116.84375 102.757813 L 118.316406 102.617188 L 119.777344 102.386719 L 121.222656 102.066406 L 122.644531 101.652344 L 124.035156 101.152344 L 125.394531 100.5625 L 126.710938 99.890625 L 127.984375 99.136719 L 129.210938 98.304688 L 130.378906 97.398438 L 131.488281 96.421875 L 132.535156 95.375 L 133.515625 94.261719 L 134.421875 93.09375 L 135.253906 91.871094 L 136.007813 90.597656 L 136.679688 89.277344 L 137.265625 87.917969 L 137.765625 86.527344 L 138.179688 85.105469 L 138.503906 83.660156 L 138.734375 82.199219 L 138.875 80.726563 Z M 138.917969 79.246094 "/>
<path style="fill:none;stroke-width:2.25;stroke-linecap:round;stroke-linejoin:round;stroke:rgb(0%,0%,0%);stroke-opacity:1;stroke-miterlimit:10;" d="M 115.363281 20.355469 L 59.355469 61.050781 L 80.746094 126.890625 L 149.980469 126.890625 L 171.371094 61.050781 Z M 115.363281 20.355469 "/>
<path style="fill-rule:nonzero;fill:rgb(100%,100%,100%);fill-opacity:1;stroke-width:2.25;stroke-linecap:round;stroke-linejoin:round;stroke:rgb(0%,0%,0%);stroke-opacity:1;stroke-miterlimit:10;" d="M 286.714844 62.589844 L 253.402344 62.589844 L 253.402344 95.90625 L 286.714844 95.90625 Z M 286.714844 62.589844 "/>
<path style="fill:none;stroke-width:2.25;stroke-linecap:round;stroke-linejoin:round;stroke:rgb(0%,0%,0%);stroke-opacity:1;stroke-miterlimit:10;" d="M 311.699219 37.605469 L 254.816406 22.363281 L 213.171875 64.003906 L 228.414063 120.890625 L 285.300781 136.132813 L 326.941406 94.492188 Z M 311.699219 37.605469 "/>
<path style="fill-rule:nonzero;fill:rgb(100%,100%,100%);fill-opacity:1;stroke-width:1.5;stroke-linecap:round;stroke-linejoin:round;stroke:rgb(0%,0%,0%);stroke-opacity:1;stroke-miterlimit:10;" d="M 448.308594 79.246094 L 448.261719 77.769531 L 448.121094 76.296875 L 447.890625 74.832031 L 447.570313 73.390625 L 447.15625 71.96875 L 446.65625 70.578125 L 446.066406 69.21875 L 445.394531 67.898438 L 444.640625 66.625 L 443.808594 65.402344 L 442.902344 64.230469 L 441.925781 63.121094 L 440.878906 62.074219 L 439.769531 61.097656 L 438.597656 60.191406 L 437.375 59.359375 L 436.101563 58.605469 L 434.78125 57.933594 L 433.421875 57.34375 L 432.03125 56.84375 L 430.609375 56.429688 L 429.167969 56.109375 L 427.703125 55.878906 L 426.230469 55.738281 L 424.753906 55.691406 L 423.273438 55.738281 L 421.800781 55.878906 L 420.339844 56.109375 L 418.894531 56.429688 L 417.472656 56.84375 L 416.082031 57.34375 L 414.722656 57.933594 L 413.402344 58.605469 L 412.128906 59.359375 L 410.90625 60.191406 L 409.738281 61.097656 L 408.625 62.074219 L 407.578125 63.121094 L 406.601563 64.230469 L 405.695313 65.402344 L 404.863281 66.625 L 404.109375 67.898438 L 403.4375 69.21875 L 402.847656 70.578125 L 402.347656 71.96875 L 401.933594 73.390625 L 401.613281 74.832031 L 401.382813 76.296875 L 401.242188 77.769531 L 401.195313 79.246094 L 401.242188 80.726563 L 401.382813 82.199219 L 401.613281 83.660156 L 401.933594 85.105469 L 402.347656 86.527344 L 402.847656 87.917969 L 403.4375 89.277344 L 404.109375 90.597656 L 404.863281 91.871094 L 405.695313 93.09375 L 406.601563 94.261719 L 407.578125 95.375 L 408.625 96.421875 L 409.738281 97.398438 L 410.90625 98.304688 L 412.128906 99.136719 L 413.402344 99.890625 L 414.722656 100.5625 L 416.082031 101.152344 L 417.472656 101.652344 L 418.894531 102.066406 L 420.339844 102.386719 L 421.800781 102.617188 L 423.273438 102.757813 L 424.753906 102.804688 L 426.230469 102.757813 L 427.703125 102.617188 L 429.167969 102.386719 L 430.609375 102.066406 L 432.03125 101.652344 L 433.421875 101.152344 L 434.78125 100.5625 L 436.101563 99.890625 L 437.375 99.136719 L 438.597656 98.304688 L 439.769531 97.398438 L 440.878906 96.421875 L 441.925781 95.375 L 442.902344 94.261719 L 443.808594 93.09375 L 444.640625 91.871094 L 445.394531 90.597656 L 446.066406 89.277344 L 446.65625 87.917969 L 447.15625 86.527344 L 447.570313 85.105469 L 447.890625 83.660156 L 448.121094 82.199219 L 448.261719 80.726563 Z M 448.308594 79.246094 "/>
<path style="fill:none;stroke-width:2.25;stroke-linecap:round;stroke-linejoin:round;stroke:rgb(0%,0%,0%);stroke-opacity:1;stroke-miterlimit:10;" d="M 383.109375 37.605469 L 383.109375 120.890625 L 466.394531 120.890625 L 466.394531 37.605469 Z M 383.109375 37.605469 "/>
<path style="fill:none;stroke-width:1.5;stroke-linecap:round;stroke-linejoin:round;stroke:rgb(0%,0%,0%);stroke-opacity:1;stroke-miterlimit:10;" d="M 138.917969 233.941406 L 138.875 232.464844 L 138.734375 230.988281 L 138.503906 229.527344 L 138.179688 228.085938 L 137.765625 226.664063 L 137.265625 225.269531 L 136.679688 223.914063 L 136.007813 222.59375 L 135.253906 221.320313 L 134.421875 220.097656 L 133.515625 218.925781 L 132.535156 217.816406 L 131.488281 216.769531 L 130.378906 215.792969 L 129.210938 214.882813 L 127.984375 214.054688 L 126.710938 213.300781 L 125.394531 212.628906 L 124.035156 212.039063 L 122.644531 211.539063 L 121.222656 211.125 L 119.777344 210.804688 L 118.316406 210.570313 L 116.84375 210.433594 L 115.363281 210.386719 L 113.882813 210.433594 L 112.410156 210.570313 L 110.949219 210.804688 L 109.503906 211.125 L 108.082031 211.539063 L 106.691406 212.039063 L 105.332031 212.628906 L 104.015625 213.300781 L 102.742188 214.054688 L 101.515625 214.882813 L 100.347656 215.792969 L 99.238281 216.769531 L 98.191406 217.816406 L 97.210938 218.925781 L 96.304688 220.097656 L 95.472656 221.320313 L 94.71875 222.59375 L 94.046875 223.914063 L 93.460938 225.269531 L 92.960938 226.664063 L 92.546875 228.085938 L 92.222656 229.527344 L 91.992188 230.988281 L 91.851563 232.464844 L 91.804688 233.941406 L 91.851563 235.421875 L 91.992188 236.894531 L 92.222656 238.355469 L 92.546875 239.800781 L 92.960938 241.222656 L 93.460938 242.613281 L 94.046875 243.972656 L 94.71875 245.289063 L 95.472656 246.566406 L 96.304688 247.789063 L 97.210938 248.957031 L 98.191406 250.066406 L 99.238281 251.113281 L 100.347656 252.09375 L 101.515625 253 L 102.742188 253.832031 L 104.015625 254.585938 L 105.332031 255.257813 L 106.691406 255.84375 L 108.082031 256.347656 L 109.503906 256.757813 L 110.949219 257.082031 L 112.410156 257.3125 L 113.882813 257.453125 L 115.363281 257.5 L 116.84375 257.453125 L 118.316406 257.3125 L 119.777344 257.082031 L 121.222656 256.757813 L 122.644531 256.347656 L 124.035156 255.84375 L 125.394531 255.257813 L 126.710938 254.585938 L 127.984375 253.832031 L 129.210938 253 L 130.378906 252.09375 L 131.488281 251.113281 L 132.535156 250.066406 L 133.515625 248.957031 L 134.421875 247.789063 L 135.253906 246.566406 L 136.007813 245.289063 L 136.679688 243.972656 L 137.265625 242.613281 L 137.765625 241.222656 L 138.179688 239.800781 L 138.503906 238.355469 L 138.734375 236.894531 L 138.875 235.421875 Z M 138.917969 233.941406 "/>
<path style="fill:none;stroke-width:2.25;stroke-linecap:round;stroke-linejoin:round;stroke:rgb(0%,0%,0%);stroke-opacity:1;stroke-miterlimit:10;" d="M 115.363281 175.050781 L 56.472656 233.941406 L 115.363281 292.835938 L 174.253906 233.941406 Z M 115.363281 175.050781 "/>
<path style="fill-rule:nonzero;fill:rgb(74.509804%,74.509804%,74.509804%);fill-opacity:1;stroke-width:2.25;stroke-linecap:round;stroke-linejoin:round;stroke:rgb(0%,0%,0%);stroke-opacity:1;stroke-miterlimit:10;" d="M 286.714844 217.285156 L 253.402344 217.285156 L 253.402344 250.597656 L 286.714844 250.597656 Z M 286.714844 217.285156 "/>
<path style="fill:none;stroke-width:2.25;stroke-linecap:round;stroke-linejoin:round;stroke:rgb(0%,0%,0%);stroke-opacity:1;stroke-miterlimit:10;" d="M 211.164063 233.941406 L 251.859375 289.953125 L 317.703125 268.558594 L 317.703125 199.328125 L 251.859375 177.933594 Z M 211.164063 233.941406 "/>
<path style="fill-rule:nonzero;fill:rgb(74.509804%,74.509804%,74.509804%);fill-opacity:1;stroke-width:1.5;stroke-linecap:round;stroke-linejoin:round;stroke:rgb(0%,0%,0%);stroke-opacity:1;stroke-miterlimit:10;" d="M 448.308594 233.941406 L 448.261719 232.464844 L 448.121094 230.988281 L 447.890625 229.527344 L 447.570313 228.085938 L 447.15625 226.664063 L 446.65625 225.269531 L 446.066406 223.914063 L 445.394531 222.59375 L 444.640625 221.320313 L 443.808594 220.097656 L 442.902344 218.925781 L 441.925781 217.816406 L 440.878906 216.769531 L 439.769531 215.792969 L 438.597656 214.882813 L 437.375 214.054688 L 436.101563 213.300781 L 434.78125 212.628906 L 433.421875 212.039063 L 432.03125 211.539063 L 430.609375 211.125 L 429.167969 210.804688 L 427.703125 210.570313 L 426.230469 210.433594 L 424.753906 210.386719 L 423.273438 210.433594 L 421.800781 210.570313 L 420.339844 210.804688 L 418.894531 211.125 L 417.472656 211.539063 L 416.082031 212.039063 L 414.722656 212.628906 L 413.402344 213.300781 L 412.128906 214.054688 L 410.90625 214.882813 L 409.738281 215.792969 L 408.625 216.769531 L 407.578125 217.816406 L 406.601563 218.925781 L 405.695313 220.097656 L 404.863281 221.320313 L 404.109375 222.59375 L 403.4375 223.914063 L 402.847656 225.269531 L 402.347656 226.664063 L 401.933594 228.085938 L 401.613281 229.527344 L 401.382813 230.988281 L 401.242188 232.464844 L 401.195313 233.941406 L 401.242188 235.421875 L 401.382813 236.894531 L 401.613281 238.355469 L 401.933594 239.800781 L 402.347656 241.222656 L 402.847656 242.613281 L 403.4375 243.972656 L 404.109375 245.289063 L 404.863281 246.566406 L 405.695313 247.789063 L 406.601563 248.957031 L 407.578125 250.066406 L 408.625 251.113281 L 409.738281 252.09375 L 410.90625 253 L 412.128906 253.832031 L 413.402344 254.585938 L 414.722656 255.257813 L 416.082031 255.84375 L 417.472656 256.347656 L 418.894531 256.757813 L 420.339844 257.082031 L 421.800781 257.3125 L 423.273438 257.453125 L 424.753906 257.5 L 426.230469 257.453125 L 427.703125 257.3125 L 429.167969 257.082031 L 430.609375 256.757813 L 432.03125 256.347656 L 433.421875 255.84375 L 434.78125 255.257813 L 436.101563 254.585938 L 437.375 253.832031 L 438.597656 253 L 439.769531 252.09375 L 440.878906 251.113281 L 441.925781 250.066406 L 442.902344 248.957031 L 443.808594 247.789063 L 444.640625 246.566406 L 445.394531 245.289063 L 446.066406 243.972656 L 446.65625 242.613281 L 447.15625 241.222656 L 447.570313 239.800781 L 447.890625 238.355469 L 448.121094 236.894531 L 448.261719 235.421875 Z M 448.308594 233.941406 "/>
<path style="fill:none;stroke-width:2.25;stroke-linecap:round;stroke-linejoin:round;stroke:rgb(0%,0%,0%);stroke-opacity:1;stroke-miterlimit:10;" d="M 383.109375 192.300781 L 367.867188 249.183594 L 409.507813 290.828125 L 466.394531 275.585938 L 481.636719 218.699219 L 439.996094 177.058594 Z M 383.109375 192.300781 "/>
<path style="fill:none;stroke-width:1.5;stroke-linecap:round;stroke-linejoin:round;stroke:rgb(0%,0%,0%);stroke-opacity:1;stroke-miterlimit:10;" d="M 138.917969 388.636719 L 138.875 387.15625 L 138.734375 385.683594 L 138.503906 384.222656 L 138.179688 382.777344 L 137.765625 381.355469 L 137.265625 379.964844 L 136.679688 378.605469 L 136.007813 377.289063 L 135.253906 376.015625 L 134.421875 374.789063 L 133.515625 373.621094 L 132.535156 372.511719 L 131.488281 371.464844 L 130.378906 370.484375 L 129.210938 369.578125 L 127.984375 368.746094 L 126.710938 367.992188 L 125.394531 367.320313 L 124.035156 366.734375 L 122.644531 366.234375 L 121.222656 365.820313 L 119.777344 365.496094 L 118.316406 365.265625 L 116.84375 365.125 L 115.363281 365.082031 L 113.882813 365.125 L 112.410156 365.265625 L 110.949219 365.496094 L 109.503906 365.820313 L 108.082031 366.234375 L 106.691406 366.734375 L 105.332031 367.320313 L 104.015625 367.992188 L 102.742188 368.746094 L 101.515625 369.578125 L 100.347656 370.484375 L 99.238281 371.464844 L 98.191406 372.511719 L 97.210938 373.621094 L 96.304688 374.789063 L 95.472656 376.015625 L 94.71875 377.289063 L 94.046875 378.605469 L 93.460938 379.964844 L 92.960938 381.355469 L 92.546875 382.777344 L 92.222656 384.222656 L 91.992188 385.683594 L 91.851563 387.15625 L 91.804688 388.636719 L 91.851563 390.117188 L 91.992188 391.589844 L 92.222656 393.050781 L 92.546875 394.496094 L 92.960938 395.917969 L 93.460938 397.308594 L 94.046875 398.667969 L 94.71875 399.984375 L 95.472656 401.257813 L 96.304688 402.484375 L 97.210938 403.652344 L 98.191406 404.761719 L 99.238281 405.808594 L 100.347656 406.789063 L 101.515625 407.695313 L 102.742188 408.527344 L 104.015625 409.28125 L 105.332031 409.953125 L 106.691406 410.539063 L 108.082031 411.039063 L 109.503906 411.453125 L 110.949219 411.777344 L 112.410156 412.007813 L 113.882813 412.148438 L 115.363281 412.195313 L 116.84375 412.148438 L 118.316406 412.007813 L 119.777344 411.777344 L 121.222656 411.453125 L 122.644531 411.039063 L 124.035156 410.539063 L 125.394531 409.953125 L 126.710938 409.28125 L 127.984375 408.527344 L 129.210938 407.695313 L 130.378906 406.789063 L 131.488281 405.808594 L 132.535156 404.761719 L 133.515625 403.652344 L 134.421875 402.484375 L 135.253906 401.257813 L 136.007813 399.984375 L 136.679688 398.667969 L 137.265625 397.308594 L 137.765625 395.917969 L 138.179688 394.496094 L 138.503906 393.050781 L 138.734375 391.589844 L 138.875 390.117188 Z M 138.917969 388.636719 "/>
<path style="fill:none;stroke-width:2.25;stroke-linecap:round;stroke-linejoin:round;stroke:rgb(0%,0%,0%);stroke-opacity:1;stroke-miterlimit:10;" d="M 115.363281 329.746094 L 64.363281 359.191406 L 64.363281 418.082031 L 115.363281 447.527344 L 166.363281 418.082031 L 166.363281 359.191406 Z M 115.363281 329.746094 "/>
<path style="fill-rule:nonzero;fill:rgb(0%,0%,0%);fill-opacity:1;stroke-width:2.25;stroke-linecap:round;stroke-linejoin:round;stroke:rgb(0%,0%,0%);stroke-opacity:1;stroke-miterlimit:10;" d="M 286.714844 371.980469 L 253.402344 371.980469 L 253.402344 405.292969 L 286.714844 405.292969 Z M 286.714844 371.980469 "/>
<path style="fill:none;stroke-width:2.25;stroke-linecap:round;stroke-linejoin:round;stroke:rgb(0%,0%,0%);stroke-opacity:1;stroke-miterlimit:10;" d="M 211.164063 388.636719 L 270.058594 447.527344 L 328.949219 388.636719 L 270.058594 329.746094 Z M 211.164063 388.636719 "/>
</g>
</svg>
