<?xml version="1.0" encoding="UTF-8"?>
<svg xmlns="http://www.w3.org/2000/svg" xmlns:xlink="http://www.w3.org/1999/xlink" width="1008pt" height="612pt" viewBox="0 0 1008 612" version="1.1">
<defs>
<clipPath id="clip1">
  <path d="M 114 202.097656 L 285 202.097656 L 285 373.785156 L 114 373.785156 Z M 114 202.097656 "/>
</clipPath>
<clipPath id="clip2">
  <path d="M 436 202.097656 L 608 202.097656 L 608 373.785156 L 436 373.785156 Z M 436 202.097656 "/>
</clipPath>
<clipPath id="clip3">
  <path d="M 759 202.097656 L 930 202.097656 L 930 373.785156 L 759 373.785156 Z M 759 202.097656 "/>
</clipPath>
</defs>
<g id="surface41">
<rect x="0" y="0" width="1008" height="612" style="fill:rgb(100%,100%,100%);fill-opacity:1;stroke:none;"/>
<path style="fill-rule:nonzero;fill:rgb(74.509804%,74.509804%,74.509804%);fill-opacity:1;stroke-width:1.5;stroke-linecap:round;stroke-linejoin:round;stroke:rgb(0%,0%,0%);stroke-opacity:1;stroke-miterlimit:10;" d="M 283.816406 97.246094 L 283.648438 91.945313 L 283.148438 86.664063 L 282.320313 81.421875 L 281.164063 76.246094 L 279.683594 71.152344 L 277.886719 66.160156 L 275.777344 61.289063 L 273.371094 56.5625 L 270.667969 51.996094 L 267.6875 47.609375 L 264.433594 43.417969 L 260.925781 39.4375 L 257.175781 35.683594 L 253.195313 32.175781 L 249.003906 28.925781 L 244.613281 25.941406 L 240.046875 23.242188 L 235.320313 20.832031 L 230.453125 18.726563 L 225.460938 16.929688 L 220.367188 15.449219 L 215.1875 14.292969 L 209.949219 13.460938 L 204.664063 12.960938 L 199.363281 12.796875 L 194.058594 12.960938 L 188.777344 13.460938 L 183.539063 14.292969 L 178.359375 15.449219 L 173.265625 16.929688 L 168.273438 18.726563 L 163.40625 20.832031 L 158.679688 23.242188 L 154.113281 25.941406 L 149.722656 28.925781 L 145.53125 32.175781 L 141.550781 35.683594 L 137.800781 39.4375 L 134.292969 43.417969 L 131.039063 47.609375 L 128.058594 51.996094 L 125.355469 56.5625 L 122.949219 61.289063 L 120.839844 66.160156 L 119.042969 71.152344 L 117.5625 76.246094 L 116.40625 81.421875 L 115.578125 86.664063 L 115.078125 91.945313 L 114.910156 97.246094 L 115.078125 102.550781 L 115.578125 107.832031 L 116.40625 113.074219 L 117.5625 118.25 L 119.042969 123.34375 L 120.839844 128.335938 L 122.949219 133.207031 L 125.355469 137.933594 L 128.058594 142.5 L 131.039063 146.886719 L 134.292969 151.078125 L 137.800781 155.058594 L 141.550781 158.8125 L 145.53125 162.320313 L 149.722656 165.570313 L 154.113281 168.554688 L 158.679688 171.253906 L 163.40625 173.664063 L 168.273438 175.769531 L 173.265625 177.566406 L 178.359375 179.046875 L 183.539063 180.203125 L 188.777344 181.035156 L 194.058594 181.535156 L 199.363281 181.699219 L 204.664063 181.535156 L 209.949219 181.035156 L 215.1875 180.203125 L 220.367188 179.046875 L 225.460938 177.566406 L 230.453125 175.769531 L 235.320313 173.664063 L 240.046875 171.253906 L 244.613281 168.554688 L 249.003906 165.570313 L 253.195313 162.320313 L 257.175781 158.8125 L 260.925781 155.058594 L 264.433594 151.078125 L 267.6875 146.886719 L 270.667969 142.5 L 273.371094 137.933594 L 275.777344 133.207031 L 277.886719 128.335938 L 279.683594 123.34375 L 281.164063 118.25 L 282.320313 113.074219 L 283.148438 107.832031 L 283.648438 102.550781 Z M 283.816406 97.246094 "/>
<path style="fill-rule:nonzero;fill:rgb(100%,100%,100%);fill-opacity:1;stroke-width:2.25;stroke-linecap:round;stroke-linejoin:round;stroke:rgb(0%,0%,0%);stroke-opacity:1;stroke-miterlimit:10;" d="M 240.761719 55.851563 L 238.746094 53.925781 L 236.640625 52.101563 L 234.449219 50.378906 L 232.179688 48.761719 L 229.835938 47.257813 L 227.421875 45.863281 L 224.945313 44.585938 L 222.410156 43.429688 L 219.824219 42.394531 L 217.191406 41.480469 L 214.515625 40.695313 L 211.808594 40.039063 L 209.070313 39.511719 L 206.3125 39.117188 L 203.539063 38.851563 L 200.757813 38.71875 L 197.96875 38.71875 L 195.1875 38.851563 L 192.414063 39.117188 L 189.65625 39.511719 L 186.917969 40.039063 L 184.210938 40.695313 L 181.535156 41.480469 L 178.902344 42.394531 L 176.316406 43.429688 L 173.78125 44.585938 L 171.304688 45.863281 L 168.890625 47.257813 L 166.546875 48.761719 L 164.277344 50.378906 L 162.085938 52.101563 L 159.980469 53.925781 L 157.964844 55.851563 L 156.042969 57.867188 L 154.21875 59.972656 L 152.496094 62.164063 L 150.878906 64.433594 L 149.371094 66.777344 L 147.980469 69.191406 L 146.703125 71.667969 L 145.542969 74.203125 L 144.507813 76.789063 L 143.597656 79.421875 L 142.8125 82.09375 L 142.15625 84.804688 L 141.628906 87.539063 L 141.230469 90.296875 L 140.964844 93.070313 L 140.832031 95.855469 L 140.832031 98.640625 L 140.964844 101.425781 L 141.230469 104.199219 L 141.628906 106.957031 L 142.15625 109.691406 L 142.8125 112.402344 L 143.597656 115.074219 L 144.507813 117.707031 L 145.542969 120.292969 L 146.703125 122.828125 L 147.980469 125.304688 L 149.371094 127.71875 L 150.878906 130.0625 L 152.496094 132.332031 L 154.21875 134.523438 L 156.042969 136.628906 L 157.964844 138.644531 L 159.980469 140.570313 L 162.085938 142.394531 L 164.277344 144.117188 L 166.546875 145.734375 L 168.890625 147.238281 L 171.304688 148.632813 L 173.78125 149.910156 L 176.316406 151.066406 L 178.902344 152.101563 L 181.535156 153.015625 L 184.210938 153.800781 L 186.917969 154.457031 L 189.65625 154.984375 L 192.414063 155.378906 L 195.1875 155.644531 L 197.96875 155.777344 L 200.757813 155.777344 L 203.539063 155.644531 L 206.3125 155.378906 L 209.070313 154.984375 L 211.808594 154.457031 L 214.515625 153.800781 L 217.191406 153.015625 L 219.824219 152.101563 L 222.410156 151.066406 L 224.945313 149.910156 L 227.421875 148.632813 L 229.835938 147.238281 L 232.179688 145.734375 L 234.449219 144.117188 L 236.640625 142.394531 L 238.746094 140.570313 L 240.761719 138.644531 L 199.363281 97.246094 Z M 240.761719 55.851563 "/>
<path style="fill-rule:nonzero;fill:rgb(74.509804%,74.509804%,74.509804%);fill-opacity:1;stroke-width:1.5;stroke-linecap:round;stroke-linejoin:round;stroke:rgb(0%,0%,0%);stroke-opacity:1;stroke-miterlimit:10;" d="M 606.511719 97.246094 L 606.34375 91.945313 L 605.84375 86.664063 L 605.015625 81.421875 L 603.855469 76.246094 L 602.375 71.152344 L 600.578125 66.160156 L 598.472656 61.289063 L 596.0625 56.5625 L 593.363281 51.996094 L 590.382813 47.609375 L 587.128906 43.417969 L 583.621094 39.4375 L 579.867188 35.683594 L 575.890625 32.175781 L 571.699219 28.925781 L 567.308594 25.941406 L 562.742188 23.242188 L 558.015625 20.832031 L 553.148438 18.726563 L 548.15625 16.929688 L 543.058594 15.449219 L 537.882813 14.292969 L 532.640625 13.460938 L 527.359375 12.960938 L 522.058594 12.796875 L 516.753906 12.960938 L 511.472656 13.460938 L 506.234375 14.292969 L 501.054688 15.449219 L 495.960938 16.929688 L 490.96875 18.726563 L 486.097656 20.832031 L 481.371094 23.242188 L 476.804688 25.941406 L 472.417969 28.925781 L 468.226563 32.175781 L 464.246094 35.683594 L 460.496094 39.4375 L 456.984375 43.417969 L 453.734375 47.609375 L 450.753906 51.996094 L 448.050781 56.5625 L 445.644531 61.289063 L 443.535156 66.160156 L 441.738281 71.152344 L 440.257813 76.246094 L 439.101563 81.421875 L 438.269531 86.664063 L 437.773438 91.945313 L 437.605469 97.246094 L 437.773438 102.550781 L 438.269531 107.832031 L 439.101563 113.074219 L 440.257813 118.25 L 441.738281 123.34375 L 443.535156 128.335938 L 445.644531 133.207031 L 448.050781 137.933594 L 450.753906 142.5 L 453.734375 146.886719 L 456.984375 151.078125 L 460.496094 155.058594 L 464.246094 158.8125 L 468.226563 162.320313 L 472.417969 165.570313 L 476.804688 168.554688 L 481.371094 171.253906 L 486.097656 173.664063 L 490.96875 175.769531 L 495.960938 177.566406 L 501.054688 179.046875 L 506.234375 180.203125 L 511.472656 181.035156 L 516.753906 181.535156 L 522.058594 181.699219 L 527.359375 181.535156 L 532.640625 181.035156 L 537.882813 180.203125 L 543.058594 179.046875 L 548.15625 177.566406 L 553.148438 175.769531 L 558.015625 173.664063 L 562.742188 171.253906 L 567.308594 168.554688 L 571.699219 165.570313 L 575.890625 162.320313 L 579.867188 158.8125 L 583.621094 155.058594 L 587.128906 151.078125 L 590.382813 146.886719 L 593.363281 142.5 L 596.0625 137.933594 L 598.472656 133.207031 L 600.578125 128.335938 L 602.375 123.34375 L 603.855469 118.25 L 605.015625 113.074219 L 605.84375 107.832031 L 606.34375 102.550781 Z M 606.511719 97.246094 "/>
<path style="fill-rule:nonzero;fill:rgb(100%,100%,100%);fill-opacity:1;stroke-width:2.25;stroke-linecap:round;stroke-linejoin:round;stroke:rgb(0%,0%,0%);stroke-opacity:1;stroke-miterlimit:10;" d="M 492.785156 67.976563 L 485.171875 116.042969 L 528.535156 138.136719 L 562.945313 103.722656 L 540.851563 60.363281 Z M 492.785156 67.976563 "/>
<path style="fill-rule:nonzero;fill:rgb(74.509804%,74.509804%,74.509804%);fill-opacity:1;stroke-width:1.5;stroke-linecap:round;stroke-linejoin:round;stroke:rgb(0%,0%,0%);stroke-opacity:1;stroke-miterlimit:10;" d="M 929.203125 97.246094 L 929.039063 91.945313 L 928.539063 86.664063 L 927.707031 81.421875 L 926.550781 76.246094 L 925.070313 71.152344 L 923.273438 66.160156 L 921.167969 61.289063 L 918.757813 56.5625 L 916.058594 51.996094 L 913.074219 47.609375 L 909.824219 43.417969 L 906.316406 39.4375 L 902.5625 35.683594 L 898.582031 32.175781 L 894.390625 28.925781 L 890.003906 25.941406 L 885.4375 23.242188 L 880.710938 20.832031 L 875.839844 18.726563 L 870.847656 16.929688 L 865.753906 15.449219 L 860.578125 14.292969 L 855.335938 13.460938 L 850.054688 12.960938 L 844.753906 12.796875 L 839.449219 12.960938 L 834.167969 13.460938 L 828.925781 14.292969 L 823.75 15.449219 L 818.65625 16.929688 L 813.664063 18.726563 L 808.792969 20.832031 L 804.066406 23.242188 L 799.5 25.941406 L 795.113281 28.925781 L 790.921875 32.175781 L 786.941406 35.683594 L 783.1875 39.4375 L 779.679688 43.417969 L 776.429688 47.609375 L 773.445313 51.996094 L 770.746094 56.5625 L 768.335938 61.289063 L 766.230469 66.160156 L 764.433594 71.152344 L 762.953125 76.246094 L 761.796875 81.421875 L 760.964844 86.664063 L 760.464844 91.945313 L 760.300781 97.246094 L 760.464844 102.550781 L 760.964844 107.832031 L 761.796875 113.074219 L 762.953125 118.25 L 764.433594 123.34375 L 766.230469 128.335938 L 768.335938 133.207031 L 770.746094 137.933594 L 773.445313 142.5 L 776.429688 146.886719 L 779.679688 151.078125 L 783.1875 155.058594 L 786.941406 158.8125 L 790.921875 162.320313 L 795.113281 165.570313 L 799.5 168.554688 L 804.066406 171.253906 L 808.792969 173.664063 L 813.664063 175.769531 L 818.65625 177.566406 L 823.75 179.046875 L 828.925781 180.203125 L 834.167969 181.035156 L 839.449219 181.535156 L 844.753906 181.699219 L 850.054688 181.535156 L 855.335938 181.035156 L 860.578125 180.203125 L 865.753906 179.046875 L 870.847656 177.566406 L 875.839844 175.769531 L 880.710938 173.664063 L 885.4375 171.253906 L 890.003906 168.554688 L 894.390625 165.570313 L 898.582031 162.320313 L 902.5625 158.8125 L 906.316406 155.058594 L 909.824219 151.078125 L 913.074219 146.886719 L 916.058594 142.5 L 918.757813 137.933594 L 921.167969 133.207031 L 923.273438 128.335938 L 925.070313 123.34375 L 926.550781 118.25 L 927.707031 113.074219 L 928.539063 107.832031 L 929.039063 102.550781 Z M 929.203125 97.246094 "/>
<path style="fill-rule:nonzero;fill:rgb(100%,100%,100%);fill-opacity:1;stroke-width:2.25;stroke-linecap:round;stroke-linejoin:round;stroke:rgb(0%,0%,0%);stroke-opacity:1;stroke-miterlimit:10;" d="M 826.351563 97.246094 L 844.753906 124.847656 L 863.152344 97.246094 L 844.753906 69.648438 Z M 826.351563 97.246094 "/>
<path style=" stroke:none;fill-rule:nonzero;fill:rgb(74.509804%,74.509804%,74.509804%);fill-opacity:1;" d="M 283.816406 287.941406 L 283.648438 282.640625 L 283.148438 277.359375 L 282.320313 272.117188 L 281.164063 266.941406 L 279.683594 261.84375 L 277.886719 256.851563 L 275.777344 251.984375 L 273.371094 247.257813 L 270.667969 242.691406 L 267.6875 238.300781 L 264.433594 234.109375 L 260.925781 230.132813 L 257.175781 226.378906 L 253.195313 222.871094 L 249.003906 219.617188 L 244.613281 216.636719 L 240.046875 213.9375 L 235.320313 211.527344 L 230.453125 209.421875 L 225.460938 207.625 L 220.367188 206.144531 L 215.1875 204.984375 L 209.949219 204.15625 L 204.664063 203.65625 L 199.363281 203.488281 L 194.058594 203.65625 L 188.777344 204.15625 L 183.539063 204.984375 L 178.359375 206.144531 L 173.265625 207.625 L 168.273438 209.421875 L 163.40625 211.527344 L 158.679688 213.9375 L 154.113281 216.636719 L 149.722656 219.617188 L 145.53125 222.871094 L 141.550781 226.378906 L 137.800781 230.132813 L 134.292969 234.109375 L 131.039063 238.300781 L 128.058594 242.691406 L 125.355469 247.257813 L 122.949219 251.984375 L 120.839844 256.851563 L 119.042969 261.84375 L 117.5625 266.941406 L 116.40625 272.117188 L 115.578125 277.359375 L 115.078125 282.640625 L 114.910156 287.941406 L 115.078125 293.246094 L 115.578125 298.527344 L 116.40625 303.765625 L 117.5625 308.945313 L 119.042969 314.039063 L 120.839844 319.03125 L 122.949219 323.902344 L 125.355469 328.628906 L 128.058594 333.195313 L 131.039063 337.582031 L 134.292969 341.773438 L 137.800781 345.753906 L 141.550781 349.503906 L 145.53125 353.015625 L 149.722656 356.265625 L 154.113281 359.246094 L 158.679688 361.949219 L 163.40625 364.355469 L 168.273438 366.464844 L 173.265625 368.261719 L 178.359375 369.742188 L 183.539063 370.898438 L 188.777344 371.730469 L 194.058594 372.226563 L 199.363281 372.394531 L 204.664063 372.226563 L 209.949219 371.730469 L 215.1875 370.898438 L 220.367188 369.742188 L 225.460938 368.261719 L 230.453125 366.464844 L 235.320313 364.355469 L 240.046875 361.949219 L 244.613281 359.246094 L 249.003906 356.265625 L 253.195313 353.015625 L 257.175781 349.503906 L 260.925781 345.753906 L 264.433594 341.773438 L 267.6875 337.582031 L 270.667969 333.195313 L 273.371094 328.628906 L 275.777344 323.902344 L 277.886719 319.03125 L 279.683594 314.039063 L 281.164063 308.945313 L 282.320313 303.765625 L 283.148438 298.527344 L 283.648438 293.246094 Z M 283.816406 287.941406 "/>
<g clip-path="url(#clip1)" clip-rule="nonzero">
<path style="fill:none;stroke-width:1.5;stroke-linecap:round;stroke-linejoin:round;stroke:rgb(0%,0%,0%);stroke-opacity:1;stroke-miterlimit:10;" d="M 283.816406 287.941406 L 283.648438 282.640625 L 283.148438 277.359375 L 282.320313 272.117188 L 281.164063 266.941406 L 279.683594 261.84375 L 277.886719 256.851563 L 275.777344 251.984375 L 273.371094 247.257813 L 270.667969 242.691406 L 267.6875 238.300781 L 264.433594 234.109375 L 260.925781 230.132813 L 257.175781 226.378906 L 253.195313 222.871094 L 249.003906 219.617188 L 244.613281 216.636719 L 240.046875 213.9375 L 235.320313 211.527344 L 230.453125 209.421875 L 225.460938 207.625 L 220.367188 206.144531 L 215.1875 204.984375 L 209.949219 204.15625 L 204.664063 203.65625 L 199.363281 203.488281 L 194.058594 203.65625 L 188.777344 204.15625 L 183.539063 204.984375 L 178.359375 206.144531 L 173.265625 207.625 L 168.273438 209.421875 L 163.40625 211.527344 L 158.679688 213.9375 L 154.113281 216.636719 L 149.722656 219.617188 L 145.53125 222.871094 L 141.550781 226.378906 L 137.800781 230.132813 L 134.292969 234.109375 L 131.039063 238.300781 L 128.058594 242.691406 L 125.355469 247.257813 L 122.949219 251.984375 L 120.839844 256.851563 L 119.042969 261.84375 L 117.5625 266.941406 L 116.40625 272.117188 L 115.578125 277.359375 L 115.078125 282.640625 L 114.910156 287.941406 L 115.078125 293.246094 L 115.578125 298.527344 L 116.40625 303.765625 L 117.5625 308.945313 L 119.042969 314.039063 L 120.839844 319.03125 L 122.949219 323.902344 L 125.355469 328.628906 L 128.058594 333.195313 L 131.039063 337.582031 L 134.292969 341.773438 L 137.800781 345.753906 L 141.550781 349.503906 L 145.53125 353.015625 L 149.722656 356.265625 L 154.113281 359.246094 L 158.679688 361.949219 L 163.40625 364.355469 L 168.273438 366.464844 L 173.265625 368.261719 L 178.359375 369.742188 L 183.539063 370.898438 L 188.777344 371.730469 L 194.058594 372.226563 L 199.363281 372.394531 L 204.664063 372.226563 L 209.949219 371.730469 L 215.1875 370.898438 L 220.367188 369.742188 L 225.460938 368.261719 L 230.453125 366.464844 L 235.320313 364.355469 L 240.046875 361.949219 L 244.613281 359.246094 L 249.003906 356.265625 L 253.195313 353.015625 L 257.175781 349.503906 L 260.925781 345.753906 L 264.433594 341.773438 L 267.6875 337.582031 L 270.667969 333.195313 L 273.371094 328.628906 L 275.777344 323.902344 L 277.886719 319.03125 L 279.683594 314.039063 L 281.164063 308.945313 L 282.320313 303.765625 L 283.148438 298.527344 L 283.648438 293.246094 Z M 283.816406 287.941406 "/>
</g>
<path style="fill-rule:nonzero;fill:rgb(100%,100%,100%);fill-opacity:1;stroke-width:2.25;stroke-linecap:round;stroke-linejoin:round;stroke:rgb(0%,0%,0%);stroke-opacity:1;stroke-miterlimit:10;" d="M 199.363281 205.144531 L 120.621094 262.355469 L 150.695313 354.925781 L 248.03125 354.925781 L 278.105469 262.355469 Z M 199.363281 205.144531 "/>
<path style=" stroke:none;fill-rule:nonzero;fill:rgb(74.509804%,74.509804%,74.509804%);fill-opacity:1;" d="M 606.511719 287.941406 L 606.34375 282.640625 L 605.84375 277.359375 L 605.015625 272.117188 L 603.855469 266.941406 L 602.375 261.84375 L 600.578125 256.851563 L 598.472656 251.984375 L 596.0625 247.257813 L 593.363281 242.691406 L 590.382813 238.300781 L 587.128906 234.109375 L 583.621094 230.132813 L 579.867188 226.378906 L 575.890625 222.871094 L 571.699219 219.617188 L 567.308594 216.636719 L 562.742188 213.9375 L 558.015625 211.527344 L 553.148438 209.421875 L 548.15625 207.625 L 543.058594 206.144531 L 537.882813 204.984375 L 532.640625 204.15625 L 527.359375 203.65625 L 522.058594 203.488281 L 516.753906 203.65625 L 511.472656 204.15625 L 506.234375 204.984375 L 501.054688 206.144531 L 495.960938 207.625 L 490.96875 209.421875 L 486.097656 211.527344 L 481.371094 213.9375 L 476.804688 216.636719 L 472.417969 219.617188 L 468.226563 222.871094 L 464.246094 226.378906 L 460.496094 230.132813 L 456.984375 234.109375 L 453.734375 238.300781 L 450.753906 242.691406 L 448.050781 247.257813 L 445.644531 251.984375 L 443.535156 256.851563 L 441.738281 261.84375 L 440.257813 266.941406 L 439.101563 272.117188 L 438.269531 277.359375 L 437.773438 282.640625 L 437.605469 287.941406 L 437.773438 293.246094 L 438.269531 298.527344 L 439.101563 303.765625 L 440.257813 308.945313 L 441.738281 314.039063 L 443.535156 319.03125 L 445.644531 323.902344 L 448.050781 328.628906 L 450.753906 333.195313 L 453.734375 337.582031 L 456.984375 341.773438 L 460.496094 345.753906 L 464.246094 349.503906 L 468.226563 353.015625 L 472.417969 356.265625 L 476.804688 359.246094 L 481.371094 361.949219 L 486.097656 364.355469 L 490.96875 366.464844 L 495.960938 368.261719 L 501.054688 369.742188 L 506.234375 370.898438 L 511.472656 371.730469 L 516.753906 372.226563 L 522.058594 372.394531 L 527.359375 372.226563 L 532.640625 371.730469 L 537.882813 370.898438 L 543.058594 369.742188 L 548.15625 368.261719 L 553.148438 366.464844 L 558.015625 364.355469 L 562.742188 361.949219 L 567.308594 359.246094 L 571.699219 356.265625 L 575.890625 353.015625 L 579.867188 349.503906 L 583.621094 345.753906 L 587.128906 341.773438 L 590.382813 337.582031 L 593.363281 333.195313 L 596.0625 328.628906 L 598.472656 323.902344 L 600.578125 319.03125 L 602.375 314.039063 L 603.855469 308.945313 L 605.015625 303.765625 L 605.84375 298.527344 L 606.34375 293.246094 Z M 606.511719 287.941406 "/>
<g clip-path="url(#clip2)" clip-rule="nonzero">
<path style="fill:none;stroke-width:1.5;stroke-linecap:round;stroke-linejoin:round;stroke:rgb(0%,0%,0%);stroke-opacity:1;stroke-miterlimit:10;" d="M 606.511719 287.941406 L 606.34375 282.640625 L 605.84375 277.359375 L 605.015625 272.117188 L 603.855469 266.941406 L 602.375 261.84375 L 600.578125 256.851563 L 598.472656 251.984375 L 596.0625 247.257813 L 593.363281 242.691406 L 590.382813 238.300781 L 587.128906 234.109375 L 583.621094 230.132813 L 579.867188 226.378906 L 575.890625 222.871094 L 571.699219 219.617188 L 567.308594 216.636719 L 562.742188 213.9375 L 558.015625 211.527344 L 553.148438 209.421875 L 548.15625 207.625 L 543.058594 206.144531 L 537.882813 204.984375 L 532.640625 204.15625 L 527.359375 203.65625 L 522.058594 203.488281 L 516.753906 203.65625 L 511.472656 204.15625 L 506.234375 204.984375 L 501.054688 206.144531 L 495.960938 207.625 L 490.96875 209.421875 L 486.097656 211.527344 L 481.371094 213.9375 L 476.804688 216.636719 L 472.417969 219.617188 L 468.226563 222.871094 L 464.246094 226.378906 L 460.496094 230.132813 L 456.984375 234.109375 L 453.734375 238.300781 L 450.753906 242.691406 L 448.050781 247.257813 L 445.644531 251.984375 L 443.535156 256.851563 L 441.738281 261.84375 L 440.257813 266.941406 L 439.101563 272.117188 L 438.269531 277.359375 L 437.773438 282.640625 L 437.605469 287.941406 L 437.773438 293.246094 L 438.269531 298.527344 L 439.101563 303.765625 L 440.257813 308.945313 L 441.738281 314.039063 L 443.535156 319.03125 L 445.644531 323.902344 L 448.050781 328.628906 L 450.753906 333.195313 L 453.734375 337.582031 L 456.984375 341.773438 L 460.496094 345.753906 L 464.246094 349.503906 L 468.226563 353.015625 L 472.417969 356.265625 L 476.804688 359.246094 L 481.371094 361.949219 L 486.097656 364.355469 L 490.96875 366.464844 L 495.960938 368.261719 L 501.054688 369.742188 L 506.234375 370.898438 L 511.472656 371.730469 L 516.753906 372.226563 L 522.058594 372.394531 L 527.359375 372.226563 L 532.640625 371.730469 L 537.882813 370.898438 L 543.058594 369.742188 L 548.15625 368.261719 L 553.148438 366.464844 L 558.015625 364.355469 L 562.742188 361.949219 L 567.308594 359.246094 L 571.699219 356.265625 L 575.890625 353.015625 L 579.867188 349.503906 L 583.621094 345.753906 L 587.128906 341.773438 L 590.382813 337.582031 L 593.363281 333.195313 L 596.0625 328.628906 L 598.472656 323.902344 L 600.578125 319.03125 L 602.375 314.039063 L 603.855469 308.945313 L 605.015625 303.765625 L 605.84375 298.527344 L 606.34375 293.246094 Z M 606.511719 287.941406 "/>
</g>
<path style="fill-rule:nonzero;fill:rgb(100%,100%,100%);fill-opacity:1;stroke-width:2.25;stroke-linecap:round;stroke-linejoin:round;stroke:rgb(0%,0%,0%);stroke-opacity:1;stroke-miterlimit:10;" d="M 502.542969 268.425781 L 492.785156 317.214844 L 541.574219 307.457031 L 551.332031 258.667969 Z M 502.542969 268.425781 "/>
<path style=" stroke:none;fill-rule:nonzero;fill:rgb(74.509804%,74.509804%,74.509804%);fill-opacity:1;" d="M 929.203125 287.941406 L 929.039063 282.640625 L 928.539063 277.359375 L 927.707031 272.117188 L 926.550781 266.941406 L 925.070313 261.84375 L 923.273438 256.851563 L 921.167969 251.984375 L 918.757813 247.257813 L 916.058594 242.691406 L 913.074219 238.300781 L 909.824219 234.109375 L 906.316406 230.132813 L 902.5625 226.378906 L 898.582031 222.871094 L 894.390625 219.617188 L 890.003906 216.636719 L 885.4375 213.9375 L 880.710938 211.527344 L 875.839844 209.421875 L 870.847656 207.625 L 865.753906 206.144531 L 860.578125 204.984375 L 855.335938 204.15625 L 850.054688 203.65625 L 844.753906 203.488281 L 839.449219 203.65625 L 834.167969 204.15625 L 828.925781 204.984375 L 823.75 206.144531 L 818.65625 207.625 L 813.664063 209.421875 L 808.792969 211.527344 L 804.066406 213.9375 L 799.5 216.636719 L 795.113281 219.617188 L 790.921875 222.871094 L 786.941406 226.378906 L 783.1875 230.132813 L 779.679688 234.109375 L 776.429688 238.300781 L 773.445313 242.691406 L 770.746094 247.257813 L 768.335938 251.984375 L 766.230469 256.851563 L 764.433594 261.84375 L 762.953125 266.941406 L 761.796875 272.117188 L 760.964844 277.359375 L 760.464844 282.640625 L 760.300781 287.941406 L 760.464844 293.246094 L 760.964844 298.527344 L 761.796875 303.765625 L 762.953125 308.945313 L 764.433594 314.039063 L 766.230469 319.03125 L 768.335938 323.902344 L 770.746094 328.628906 L 773.445313 333.195313 L 776.429688 337.582031 L 779.679688 341.773438 L 783.1875 345.753906 L 786.941406 349.503906 L 790.921875 353.015625 L 795.113281 356.265625 L 799.5 359.246094 L 804.066406 361.949219 L 808.792969 364.355469 L 813.664063 366.464844 L 818.65625 368.261719 L 823.75 369.742188 L 828.925781 370.898438 L 834.167969 371.730469 L 839.449219 372.226563 L 844.753906 372.394531 L 850.054688 372.226563 L 855.335938 371.730469 L 860.578125 370.898438 L 865.753906 369.742188 L 870.847656 368.261719 L 875.839844 366.464844 L 880.710938 364.355469 L 885.4375 361.949219 L 890.003906 359.246094 L 894.390625 356.265625 L 898.582031 353.015625 L 902.5625 349.503906 L 906.316406 345.753906 L 909.824219 341.773438 L 913.074219 337.582031 L 916.058594 333.195313 L 918.757813 328.628906 L 921.167969 323.902344 L 923.273438 319.03125 L 925.070313 314.039063 L 926.550781 308.945313 L 927.707031 303.765625 L 928.539063 298.527344 L 929.039063 293.246094 Z M 929.203125 287.941406 "/>
<g clip-path="url(#clip3)" clip-rule="nonzero">
<path style="fill:none;stroke-width:1.5;stroke-linecap:round;stroke-linejoin:round;stroke:rgb(0%,0%,0%);stroke-opacity:1;stroke-miterlimit:10;" d="M 929.203125 287.941406 L 929.039063 282.640625 L 928.539063 277.359375 L 927.707031 272.117188 L 926.550781 266.941406 L 925.070313 261.84375 L 923.273438 256.851563 L 921.167969 251.984375 L 918.757813 247.257813 L 916.058594 242.691406 L 913.074219 238.300781 L 909.824219 234.109375 L 906.316406 230.132813 L 902.5625 226.378906 L 898.582031 222.871094 L 894.390625 219.617188 L 890.003906 216.636719 L 885.4375 213.9375 L 880.710938 211.527344 L 875.839844 209.421875 L 870.847656 207.625 L 865.753906 206.144531 L 860.578125 204.984375 L 855.335938 204.15625 L 850.054688 203.65625 L 844.753906 203.488281 L 839.449219 203.65625 L 834.167969 204.15625 L 828.925781 204.984375 L 823.75 206.144531 L 818.65625 207.625 L 813.664063 209.421875 L 808.792969 211.527344 L 804.066406 213.9375 L 799.5 216.636719 L 795.113281 219.617188 L 790.921875 222.871094 L 786.941406 226.378906 L 783.1875 230.132813 L 779.679688 234.109375 L 776.429688 238.300781 L 773.445313 242.691406 L 770.746094 247.257813 L 768.335938 251.984375 L 766.230469 256.851563 L 764.433594 261.84375 L 762.953125 266.941406 L 761.796875 272.117188 L 760.964844 277.359375 L 760.464844 282.640625 L 760.300781 287.941406 L 760.464844 293.246094 L 760.964844 298.527344 L 761.796875 303.765625 L 762.953125 308.945313 L 764.433594 314.039063 L 766.230469 319.03125 L 768.335938 323.902344 L 770.746094 328.628906 L 773.445313 333.195313 L 776.429688 337.582031 L 779.679688 341.773438 L 783.1875 345.753906 L 786.941406 349.503906 L 790.921875 353.015625 L 795.113281 356.265625 L 799.5 359.246094 L 804.066406 361.949219 L 808.792969 364.355469 L 813.664063 366.464844 L 818.65625 368.261719 L 823.75 369.742188 L 828.925781 370.898438 L 834.167969 371.730469 L 839.449219 372.226563 L 844.753906 372.394531 L 850.054688 372.226563 L 855.335938 371.730469 L 860.578125 370.898438 L 865.753906 369.742188 L 870.847656 368.261719 L 875.839844 366.464844 L 880.710938 364.355469 L 885.4375 361.949219 L 890.003906 359.246094 L 894.390625 356.265625 L 898.582031 353.015625 L 902.5625 349.503906 L 906.316406 345.753906 L 909.824219 341.773438 L 913.074219 337.582031 L 916.058594 333.195313 L 918.757813 328.628906 L 921.167969 323.902344 L 923.273438 319.03125 L 925.070313 314.039063 L 926.550781 308.945313 L 927.707031 303.765625 L 928.539063 298.527344 L 929.039063 293.246094 Z M 929.203125 287.941406 "/>
</g>
<path style="fill-rule:nonzero;fill:rgb(100%,100%,100%);fill-opacity:1;stroke-width:2.25;stroke-linecap:round;stroke-linejoin:round;stroke:rgb(0%,0%,0%);stroke-opacity:1;stroke-miterlimit:10;" d="M 830.953125 274.144531 L 830.3125 274.816406 L 829.703125 275.515625 L 829.128906 276.246094 L 828.589844 277.003906 L 828.089844 277.785156 L 827.625 278.589844 L 827.199219 279.414063 L 826.8125 280.261719 L 826.46875 281.121094 L 826.164063 282 L 825.902344 282.890625 L 825.683594 283.792969 L 825.507813 284.707031 L 825.375 285.625 L 825.285156 286.550781 L 825.242188 287.476563 L 825.242188 288.40625 L 825.285156 289.335938 L 825.375 290.257813 L 825.507813 291.179688 L 825.683594 292.089844 L 825.902344 292.992188 L 826.164063 293.882813 L 826.46875 294.761719 L 826.8125 295.625 L 827.199219 296.46875 L 827.625 297.296875 L 828.089844 298.097656 L 828.589844 298.882813 L 829.128906 299.636719 L 829.703125 300.367188 L 830.3125 301.070313 L 830.953125 301.742188 L 831.625 302.382813 L 832.328125 302.992188 L 833.058594 303.566406 L 833.8125 304.105469 L 834.59375 304.605469 L 835.398438 305.070313 L 836.226563 305.496094 L 837.070313 305.882813 L 837.933594 306.226563 L 838.808594 306.53125 L 839.699219 306.792969 L 840.605469 307.011719 L 841.515625 307.1875 L 842.433594 307.320313 L 843.359375 307.40625 L 844.289063 307.453125 L 845.214844 307.453125 L 846.144531 307.40625 L 847.070313 307.320313 L 847.988281 307.1875 L 848.898438 307.011719 L 849.804688 306.792969 L 850.695313 306.53125 L 851.570313 306.226563 L 852.433594 305.882813 L 853.277344 305.496094 L 854.105469 305.070313 L 854.910156 304.605469 L 855.691406 304.105469 L 856.445313 303.566406 L 857.175781 302.992188 L 857.878906 302.382813 L 858.550781 301.742188 L 859.191406 301.070313 L 859.800781 300.367188 L 860.375 299.636719 L 860.914063 298.882813 L 861.414063 298.097656 L 861.878906 297.296875 L 862.304688 296.46875 L 862.691406 295.625 L 863.035156 294.761719 L 863.339844 293.882813 L 863.601563 292.992188 L 863.820313 292.089844 L 863.996094 291.179688 L 864.128906 290.257813 L 864.21875 289.335938 L 864.261719 288.40625 L 864.261719 287.476563 L 864.21875 286.550781 L 864.128906 285.625 L 863.996094 284.707031 L 863.820313 283.792969 L 863.601563 282.890625 L 863.339844 282 L 863.035156 281.121094 L 862.691406 280.261719 L 862.304688 279.414063 L 861.878906 278.589844 L 861.414063 277.785156 L 860.914063 277.003906 L 860.375 276.246094 L 859.800781 275.515625 L 859.191406 274.816406 L 858.550781 274.144531 L 844.753906 287.941406 Z M 830.953125 274.144531 "/>
<path style="fill-rule:nonzero;fill:rgb(74.509804%,74.509804%,74.509804%);fill-opacity:1;stroke-width:1.5;stroke-linecap:round;stroke-linejoin:round;stroke:rgb(0%,0%,0%);stroke-opacity:1;stroke-miterlimit:10;" d="M 283.816406 478.636719 L 283.648438 473.335938 L 283.148438 468.050781 L 282.320313 462.8125 L 281.164063 457.632813 L 279.683594 452.539063 L 277.886719 447.546875 L 275.777344 442.679688 L 273.371094 437.953125 L 270.667969 433.386719 L 267.6875 428.996094 L 264.433594 424.804688 L 260.925781 420.824219 L 257.175781 417.074219 L 253.195313 413.566406 L 249.003906 410.3125 L 244.613281 407.332031 L 240.046875 404.628906 L 235.320313 402.222656 L 230.453125 400.113281 L 225.460938 398.316406 L 220.367188 396.835938 L 215.1875 395.679688 L 209.949219 394.851563 L 204.664063 394.351563 L 199.363281 394.183594 L 194.058594 394.351563 L 188.777344 394.851563 L 183.539063 395.679688 L 178.359375 396.835938 L 173.265625 398.316406 L 168.273438 400.113281 L 163.40625 402.222656 L 158.679688 404.628906 L 154.113281 407.332031 L 149.722656 410.3125 L 145.53125 413.566406 L 141.550781 417.074219 L 137.800781 420.824219 L 134.292969 424.804688 L 131.039063 428.996094 L 128.058594 433.386719 L 125.355469 437.953125 L 122.949219 442.679688 L 120.839844 447.546875 L 119.042969 452.539063 L 117.5625 457.632813 L 116.40625 462.8125 L 115.578125 468.050781 L 115.078125 473.335938 L 114.910156 478.636719 L 115.078125 483.941406 L 115.578125 489.222656 L 116.40625 494.460938 L 117.5625 499.640625 L 119.042969 504.734375 L 120.839844 509.726563 L 122.949219 514.59375 L 125.355469 519.320313 L 128.058594 523.886719 L 131.039063 528.277344 L 134.292969 532.46875 L 137.800781 536.449219 L 141.550781 540.199219 L 145.53125 543.707031 L 149.722656 546.960938 L 154.113281 549.941406 L 158.679688 552.644531 L 163.40625 555.050781 L 168.273438 557.160156 L 173.265625 558.957031 L 178.359375 560.4375 L 183.539063 561.59375 L 188.777344 562.421875 L 194.058594 562.921875 L 199.363281 563.089844 L 204.664063 562.921875 L 209.949219 562.421875 L 215.1875 561.59375 L 220.367188 560.4375 L 225.460938 558.957031 L 230.453125 557.160156 L 235.320313 555.050781 L 240.046875 552.644531 L 244.613281 549.941406 L 249.003906 546.960938 L 253.195313 543.707031 L 257.175781 540.199219 L 260.925781 536.449219 L 264.433594 532.46875 L 267.6875 528.277344 L 270.667969 523.886719 L 273.371094 519.320313 L 275.777344 514.59375 L 277.886719 509.726563 L 279.683594 504.734375 L 281.164063 499.640625 L 282.320313 494.460938 L 283.148438 489.222656 L 283.648438 483.941406 Z M 283.816406 478.636719 "/>
<path style="fill-rule:nonzero;fill:rgb(100%,100%,100%);fill-opacity:1;stroke-width:2.25;stroke-linecap:round;stroke-linejoin:round;stroke:rgb(0%,0%,0%);stroke-opacity:1;stroke-miterlimit:10;" d="M 199.363281 423.4375 L 116.566406 478.636719 L 199.363281 533.835938 L 282.160156 478.636719 Z M 199.363281 423.4375 "/>
<path style="fill-rule:nonzero;fill:rgb(74.509804%,74.509804%,74.509804%);fill-opacity:1;stroke-width:1.5;stroke-linecap:round;stroke-linejoin:round;stroke:rgb(0%,0%,0%);stroke-opacity:1;stroke-miterlimit:10;" d="M 606.511719 478.636719 L 606.34375 473.335938 L 605.84375 468.050781 L 605.015625 462.8125 L 603.855469 457.632813 L 602.375 452.539063 L 600.578125 447.546875 L 598.472656 442.679688 L 596.0625 437.953125 L 593.363281 433.386719 L 590.382813 428.996094 L 587.128906 424.804688 L 583.621094 420.824219 L 579.867188 417.074219 L 575.890625 413.566406 L 571.699219 410.3125 L 567.308594 407.332031 L 562.742188 404.628906 L 558.015625 402.222656 L 553.148438 400.113281 L 548.15625 398.316406 L 543.058594 396.835938 L 537.882813 395.679688 L 532.640625 394.851563 L 527.359375 394.351563 L 522.058594 394.183594 L 516.753906 394.351563 L 511.472656 394.851563 L 506.234375 395.679688 L 501.054688 396.835938 L 495.960938 398.316406 L 490.96875 400.113281 L 486.097656 402.222656 L 481.371094 404.628906 L 476.804688 407.332031 L 472.417969 410.3125 L 468.226563 413.566406 L 464.246094 417.074219 L 460.496094 420.824219 L 456.984375 424.804688 L 453.734375 428.996094 L 450.753906 433.386719 L 448.050781 437.953125 L 445.644531 442.679688 L 443.535156 447.546875 L 441.738281 452.539063 L 440.257813 457.632813 L 439.101563 462.8125 L 438.269531 468.050781 L 437.773438 473.335938 L 437.605469 478.636719 L 437.773438 483.941406 L 438.269531 489.222656 L 439.101563 494.460938 L 440.257813 499.640625 L 441.738281 504.734375 L 443.535156 509.726563 L 445.644531 514.59375 L 448.050781 519.320313 L 450.753906 523.886719 L 453.734375 528.277344 L 456.984375 532.46875 L 460.496094 536.449219 L 464.246094 540.199219 L 468.226563 543.707031 L 472.417969 546.960938 L 476.804688 549.941406 L 481.371094 552.644531 L 486.097656 555.050781 L 490.96875 557.160156 L 495.960938 558.957031 L 501.054688 560.4375 L 506.234375 561.59375 L 511.472656 562.421875 L 516.753906 562.921875 L 522.058594 563.089844 L 527.359375 562.921875 L 532.640625 562.421875 L 537.882813 561.59375 L 543.058594 560.4375 L 548.15625 558.957031 L 553.148438 557.160156 L 558.015625 555.050781 L 562.742188 552.644531 L 567.308594 549.941406 L 571.699219 546.960938 L 575.890625 543.707031 L 579.867188 540.199219 L 583.621094 536.449219 L 587.128906 532.46875 L 590.382813 528.277344 L 593.363281 523.886719 L 596.0625 519.320313 L 598.472656 514.59375 L 600.578125 509.726563 L 602.375 504.734375 L 603.855469 499.640625 L 605.015625 494.460938 L 605.84375 489.222656 L 606.34375 483.941406 Z M 606.511719 478.636719 "/>
<path style="fill-rule:nonzero;fill:rgb(100%,100%,100%);fill-opacity:1;stroke-width:2.25;stroke-linecap:round;stroke-linejoin:round;stroke:rgb(0%,0%,0%);stroke-opacity:1;stroke-miterlimit:10;" d="M 522.058594 449.363281 L 520.664063 449.398438 L 519.273438 449.496094 L 517.890625 449.660156 L 516.519531 449.894531 L 515.15625 450.1875 L 513.808594 450.550781 L 512.484375 450.972656 L 511.179688 451.460938 L 509.898438 452.007813 L 508.644531 452.617188 L 507.421875 453.285156 L 506.230469 454.011719 L 505.078125 454.792969 L 503.960938 455.625 L 502.886719 456.515625 L 501.855469 457.449219 L 500.871094 458.4375 L 499.933594 459.46875 L 499.046875 460.542969 L 498.210938 461.65625 L 497.433594 462.8125 L 496.707031 464 L 496.039063 465.222656 L 495.429688 466.476563 L 494.882813 467.757813 L 494.394531 469.0625 L 493.96875 470.390625 L 493.609375 471.734375 L 493.3125 473.097656 L 493.082031 474.472656 L 492.917969 475.855469 L 492.816406 477.242188 L 492.785156 478.636719 L 492.816406 480.03125 L 492.917969 481.417969 L 493.082031 482.804688 L 493.3125 484.175781 L 493.609375 485.539063 L 493.96875 486.882813 L 494.394531 488.210938 L 494.882813 489.515625 L 495.429688 490.796875 L 496.039063 492.050781 L 496.707031 493.273438 L 497.433594 494.464844 L 498.210938 495.617188 L 499.046875 496.730469 L 499.933594 497.804688 L 500.871094 498.835938 L 501.855469 499.824219 L 502.886719 500.761719 L 503.960938 501.648438 L 505.078125 502.480469 L 506.230469 503.261719 L 507.421875 503.988281 L 508.644531 504.65625 L 509.898438 505.265625 L 511.179688 505.8125 L 512.484375 506.300781 L 513.808594 506.722656 L 515.15625 507.085938 L 516.519531 507.378906 L 517.890625 507.613281 L 519.273438 507.777344 L 520.664063 507.875 L 522.058594 507.910156 L 523.449219 507.875 L 524.839844 507.777344 L 526.222656 507.613281 L 527.597656 507.378906 L 528.957031 507.085938 L 530.304688 506.722656 L 531.632813 506.300781 L 532.9375 505.8125 L 534.21875 505.265625 L 535.472656 504.65625 L 536.695313 503.988281 L 537.882813 503.261719 L 539.039063 502.480469 L 540.152344 501.648438 L 541.226563 500.761719 L 542.257813 499.824219 L 543.242188 498.835938 L 544.179688 497.804688 L 545.066406 496.730469 L 545.902344 495.617188 L 546.683594 494.464844 L 547.410156 493.273438 L 548.078125 492.050781 L 548.683594 490.796875 L 549.234375 489.515625 L 549.71875 488.210938 L 550.144531 486.882813 L 550.503906 485.539063 L 550.800781 484.175781 L 551.03125 482.804688 L 551.199219 481.417969 L 551.296875 480.03125 L 551.332031 478.636719 L 522.058594 478.636719 Z M 522.058594 449.363281 "/>
</g>
</svg>
