<?xml version="1.0" encoding="UTF-8"?>
<svg xmlns="http://www.w3.org/2000/svg" xmlns:xlink="http://www.w3.org/1999/xlink" width="1008pt" height="612pt" viewBox="0 0 1008 612" version="1.1">
<g id="surface41">
<rect x="0" y="0" width="1008" height="612" style="fill:rgb(100%,100%,100%);fill-opacity:1;stroke:none;"/>
<path style="fill:none;stroke-width:2.25;stroke-linecap:round;stroke-linejoin:round;stroke:rgb(0%,0%,0%);stroke-opacity:1;stroke-miterlimit:10;" d="M 240.761719 55.851563 L 238.746094 53.925781 L 236.640625 52.101563 L 234.449219 50.378906 L 232.179688 48.761719 L 229.835938 47.257813 L 227.421875 45.863281 L 224.945313 44.585938 L 222.410156 43.429688 L 219.824219 42.394531 L 217.191406 41.480469 L 214.515625 40.695313 L 211.808594 40.039063 L 209.070313 39.511719 L 206.3125 39.117188 L 203.539063 38.851563 L 200.757813 38.71875 L 197.96875 38.71875 L 195.1875 38.851563 L 192.414063 39.117188 L 189.65625 39.511719 L 186.917969 40.039063 L 184.210938 40.695313 L 181.535156 41.480469 L 178.902344 42.394531 L 176.316406 43.429688 L 173.78125 44.585938 L 171.304688 45.863281 L 168.890625 47.257813 L 166.546875 48.761719 L 164.277344 50.378906 L 162.085938 52.101563 L 159.980469 53.925781 L 157.964844 55.851563 L 156.042969 57.867188 L 154.21875 59.972656 L 152.496094 62.164063 L 150.878906 64.433594 L 149.371094 66.777344 L 147.980469 69.191406 L 146.703125 71.667969 L 145.542969 74.203125 L 144.507813 76.789063 L 143.597656 79.421875 L 142.8125 82.09375 L 142.15625 84.804688 L 141.628906 87.539063 L 141.230469 90.296875 L 140.964844 93.070313 L 140.832031 95.855469 L 140.832031 98.640625 L 140.964844 101.425781 L 141.230469 104.199219 L 141.628906 106.957031 L 142.15625 109.691406 L 142.8125 112.402344 L 143.597656 115.074219 L 144.507813 117.707031 L 145.542969 120.292969 L 146.703125 122.828125 L 147.980469 125.304688 L 149.371094 127.71875 L 150.878906 130.0625 L 152.496094 132.332031 L 154.21875 134.523438 L 156.042969 136.628906 L 157.964844 138.644531 L 159.980469 140.570313 L 162.085938 142.394531 L 164.277344 144.117188 L 166.546875 145.734375 L 168.890625 147.238281 L 171.304688 148.632813 L 173.78125 149.910156 L 176.316406 151.066406 L 178.902344 152.101563 L 181.535156 153.015625 L 184.210938 153.800781 L 186.917969 154.457031 L 189.65625 154.984375 L 192.414063 155.378906 L 195.1875 155.644531 L 197.96875 155.777344 L 200.757813 155.777344 L 203.539063 155.644531 L 206.3125 155.378906 L 209.070313 154.984375 L 211.808594 154.457031 L 214.515625 153.800781 L 217.191406 153.015625 L 219.824219 152.101563 L 222.410156 151.066406 L 224.945313 149.910156 L 227.421875 148.632813 L 229.835938 147.238281 L 232.179688 145.734375 L 234.449219 144.117188 L 236.640625 142.394531 L 238.746094 140.570313 L 240.761719 138.644531 L 199.363281 97.246094 Z M 240.761719 55.851563 "/>
<path style="fill:none;stroke-width:2.25;stroke-linecap:round;stroke-linejoin:round;stroke:rgb(0%,0%,0%);stroke-opacity:1;stroke-miterlimit:10;" d="M 492.785156 67.976563 L 485.171875 116.042969 L 528.535156 138.136719 L 562.945313 103.722656 L 540.851563 60.363281 Z M 492.785156 67.976563 "/>
<path style="fill:none;stroke-width:2.25;stroke-linecap:round;stroke-linejoin:round;stroke:rgb(0%,0%,0%);stroke-opacity:1;stroke-miterlimit:10;" d="M 826.351563 97.246094 L 844.753906 124.847656 L 863.152344 97.246094 L 844.753906 69.648438 Z M 826.351563 97.246094 "/>
<path style="fill:none;stroke-width:2.25;stroke-linecap:round;stroke-linejoin:round;stroke:rgb(0%,0%,0%);stroke-opacity:1;stroke-miterlimit:10;" d="M 140.816406 229.398438 L 125.589844 325.53125 L 212.316406 369.71875 L 281.140625 300.894531 L 236.953125 214.171875 Z M 140.816406 229.398438 "/>
<path style="fill:none;stroke-width:2.25;stroke-linecap:round;stroke-linejoin:round;stroke:rgb(0%,0%,0%);stroke-opacity:1;stroke-miterlimit:10;" d="M 494.457031 287.941406 L 522.058594 329.339844 L 549.65625 287.941406 L 522.058594 246.542969 Z M 494.457031 287.941406 "/>
<path style="fill:none;stroke-width:2.25;stroke-linecap:round;stroke-linejoin:round;stroke:rgb(0%,0%,0%);stroke-opacity:1;stroke-miterlimit:10;" d="M 825.238281 287.941406 L 825.257813 288.871094 L 825.324219 289.796875 L 825.433594 290.71875 L 825.589844 291.636719 L 825.785156 292.542969 L 826.027344 293.441406 L 826.308594 294.324219 L 826.632813 295.195313 L 827 296.050781 L 827.40625 296.886719 L 827.851563 297.699219 L 828.335938 298.492188 L 828.855469 299.261719 L 829.410156 300.007813 L 830.003906 300.722656 L 830.628906 301.410156 L 831.285156 302.066406 L 831.972656 302.691406 L 832.6875 303.28125 L 833.433594 303.839844 L 834.203125 304.359375 L 834.996094 304.84375 L 835.808594 305.289063 L 836.644531 305.695313 L 837.5 306.058594 L 838.371094 306.382813 L 839.253906 306.667969 L 840.152344 306.90625 L 841.058594 307.105469 L 841.976563 307.257813 L 842.898438 307.371094 L 843.824219 307.4375 L 844.753906 307.457031 L 845.679688 307.4375 L 846.605469 307.371094 L 847.53125 307.257813 L 848.445313 307.105469 L 849.351563 306.90625 L 850.25 306.667969 L 851.136719 306.382813 L 852.003906 306.058594 L 852.859375 305.695313 L 853.695313 305.289063 L 854.507813 304.84375 L 855.304688 304.359375 L 856.070313 303.839844 L 856.816406 303.28125 L 857.53125 302.691406 L 858.21875 302.066406 L 858.875 301.410156 L 859.5 300.722656 L 860.09375 300.007813 L 860.648438 299.261719 L 861.167969 298.492188 L 861.652344 297.699219 L 862.097656 296.886719 L 862.503906 296.050781 L 862.871094 295.195313 L 863.195313 294.324219 L 863.476563 293.441406 L 863.71875 292.542969 L 863.914063 291.636719 L 864.070313 290.71875 L 864.179688 289.796875 L 864.246094 288.871094 L 864.265625 287.941406 L 864.246094 287.015625 L 864.179688 286.085938 L 864.070313 285.164063 L 863.914063 284.25 L 863.71875 283.339844 L 863.476563 282.445313 L 863.195313 281.558594 L 862.871094 280.6875 L 862.503906 279.835938 L 862.097656 279 L 861.652344 278.183594 L 861.167969 277.390625 L 860.648438 276.621094 L 860.09375 275.878906 L 859.5 275.164063 L 858.875 274.476563 L 858.21875 273.820313 L 857.53125 273.195313 L 856.816406 272.601563 L 856.070313 272.046875 L 855.304688 271.523438 L 854.507813 271.042969 L 853.695313 270.597656 L 852.859375 270.191406 L 852.003906 269.824219 L 851.136719 269.5 L 850.25 269.21875 L 849.351563 268.976563 L 848.445313 268.78125 L 847.53125 268.625 L 846.605469 268.515625 L 845.679688 268.449219 L 844.753906 268.425781 L 844.753906 287.941406 Z M 825.238281 287.941406 "/>
<path style="fill:none;stroke-width:2.25;stroke-linecap:round;stroke-linejoin:round;stroke:rgb(0%,0%,0%);stroke-opacity:1;stroke-miterlimit:10;" d="M 144.164063 478.636719 L 199.363281 561.433594 L 254.5625 478.636719 L 199.363281 395.839844 Z M 144.164063 478.636719 "/>
<path style="fill:none;stroke-width:2.25;stroke-linecap:round;stroke-linejoin:round;stroke:rgb(0%,0%,0%);stroke-opacity:1;stroke-miterlimit:10;" d="M 492.785156 478.636719 L 492.816406 480.03125 L 492.917969 481.417969 L 493.082031 482.804688 L 493.3125 484.175781 L 493.609375 485.539063 L 493.96875 486.882813 L 494.394531 488.210938 L 494.882813 489.515625 L 495.429688 490.796875 L 496.039063 492.050781 L 496.707031 493.273438 L 497.433594 494.464844 L 498.210938 495.617188 L 499.046875 496.730469 L 499.933594 497.804688 L 500.871094 498.835938 L 501.855469 499.824219 L 502.886719 500.761719 L 503.960938 501.648438 L 505.078125 502.480469 L 506.230469 503.261719 L 507.421875 503.988281 L 508.644531 504.65625 L 509.898438 505.265625 L 511.179688 505.8125 L 512.484375 506.300781 L 513.808594 506.722656 L 515.15625 507.085938 L 516.519531 507.378906 L 517.890625 507.613281 L 519.273438 507.777344 L 520.664063 507.875 L 522.058594 507.910156 L 523.449219 507.875 L 524.839844 507.777344 L 526.222656 507.613281 L 527.597656 507.378906 L 528.957031 507.085938 L 530.304688 506.722656 L 531.632813 506.300781 L 532.9375 505.8125 L 534.21875 505.265625 L 535.472656 504.65625 L 536.695313 503.988281 L 537.882813 503.261719 L 539.039063 502.480469 L 540.152344 501.648438 L 541.226563 500.761719 L 542.257813 499.824219 L 543.242188 498.835938 L 544.179688 497.804688 L 545.066406 496.730469 L 545.902344 495.617188 L 546.683594 494.464844 L 547.410156 493.273438 L 548.078125 492.050781 L 548.683594 490.796875 L 549.234375 489.515625 L 549.71875 488.210938 L 550.144531 486.882813 L 550.503906 485.539063 L 550.800781 484.175781 L 551.03125 482.804688 L 551.199219 481.417969 L 551.296875 480.03125 L 551.332031 478.636719 L 551.296875 477.242188 L 551.199219 475.855469 L 551.03125 474.472656 L 550.800781 473.097656 L 550.503906 471.734375 L 550.144531 470.390625 L 549.71875 469.0625 L 549.234375 467.757813 L 548.683594 466.476563 L 548.078125 465.222656 L 547.410156 464 L 546.683594 462.8125 L 545.902344 461.65625 L 545.066406 460.542969 L 544.179688 459.46875 L 543.242188 458.4375 L 542.257813 457.449219 L 541.226563 456.515625 L 540.152344 455.625 L 539.039063 454.792969 L 537.882813 454.011719 L 536.695313 453.285156 L 535.472656 452.617188 L 534.21875 452.007813 L 532.9375 451.460938 L 531.632813 450.972656 L 530.304688 450.550781 L 528.957031 450.1875 L 527.597656 449.894531 L 526.222656 449.660156 L 524.839844 449.496094 L 523.449219 449.398438 L 522.058594 449.363281 L 522.058594 478.636719 Z M 492.785156 478.636719 "/>
</g>
</svg>
