<?xml version="1.0" encoding="UTF-8"?>
<svg xmlns="http://www.w3.org/2000/svg" xmlns:xlink="http://www.w3.org/1999/xlink" width="1008pt" height="612pt" viewBox="0 0 1008 612" version="1.1">
<defs>
<clipPath id="clip1">
  <path d="M 436 202.097656 L 608 202.097656 L 608 373.785156 L 436 373.785156 Z M 436 202.097656 "/>
</clipPath>
</defs>
<g id="surface61">
<rect x="0" y="0" width="1008" height="612" style="fill:rgb(100%,100%,100%);fill-opacity:1;stroke:none;"/>
<path style="fill:none;stroke-width:2.25;stroke-linecap:round;stroke-linejoin:round;stroke:rgb(0%,0%,0%);stroke-opacity:1;stroke-miterlimit:10;" d="M 199.363281 17.761719 L 123.769531 72.6875 L 152.644531 161.550781 L 246.082031 161.550781 L 274.957031 72.6875 Z M 199.363281 17.761719 "/>
<path style="fill:none;stroke-width:2.25;stroke-linecap:round;stroke-linejoin:round;stroke:rgb(0%,0%,0%);stroke-opacity:1;stroke-miterlimit:10;" d="M 236.621094 59.988281 L 234.804688 58.257813 L 232.910156 56.617188 L 230.941406 55.066406 L 228.898438 53.613281 L 226.789063 52.257813 L 224.617188 51.003906 L 222.386719 49.851563 L 220.105469 48.8125 L 217.777344 47.878906 L 215.40625 47.058594 L 213 46.351563 L 210.5625 45.761719 L 208.101563 45.285156 L 205.617188 44.929688 L 203.121094 44.691406 L 200.617188 44.570313 L 198.109375 44.570313 L 195.605469 44.691406 L 193.109375 44.929688 L 190.625 45.285156 L 188.164063 45.761719 L 185.726563 46.351563 L 183.320313 47.058594 L 180.949219 47.878906 L 178.621094 48.8125 L 176.339844 49.851563 L 174.109375 51.003906 L 171.9375 52.257813 L 169.828125 53.613281 L 167.785156 55.066406 L 165.816406 56.617188 L 163.917969 58.257813 L 162.105469 59.988281 L 160.375 61.804688 L 158.730469 63.699219 L 157.183594 65.671875 L 155.726563 67.714844 L 154.371094 69.824219 L 153.117188 71.996094 L 151.96875 74.226563 L 150.925781 76.507813 L 149.996094 78.835938 L 149.175781 81.203125 L 148.46875 83.609375 L 147.875 86.046875 L 147.402344 88.511719 L 147.042969 90.992188 L 146.804688 93.488281 L 146.6875 95.992188 L 146.6875 98.5 L 146.804688 101.007813 L 147.042969 103.503906 L 147.402344 105.984375 L 147.875 108.449219 L 148.46875 110.886719 L 149.175781 113.292969 L 149.996094 115.660156 L 150.925781 117.988281 L 151.96875 120.269531 L 153.117188 122.5 L 154.371094 124.671875 L 155.726563 126.78125 L 157.183594 128.824219 L 158.730469 130.796875 L 160.375 132.691406 L 162.105469 134.507813 L 163.917969 136.238281 L 165.816406 137.878906 L 167.785156 139.429688 L 169.828125 140.882813 L 171.9375 142.238281 L 174.109375 143.492188 L 176.339844 144.644531 L 178.621094 145.683594 L 180.949219 146.617188 L 183.320313 147.4375 L 185.726563 148.144531 L 188.164063 148.734375 L 190.625 149.210938 L 193.109375 149.566406 L 195.605469 149.804688 L 198.109375 149.925781 L 200.617188 149.925781 L 203.121094 149.804688 L 205.617188 149.566406 L 208.101563 149.210938 L 210.5625 148.734375 L 213 148.144531 L 215.40625 147.4375 L 217.777344 146.617188 L 220.105469 145.683594 L 222.386719 144.644531 L 224.617188 143.492188 L 226.789063 142.238281 L 228.898438 140.882813 L 230.941406 139.429688 L 232.910156 137.878906 L 234.804688 136.238281 L 236.621094 134.507813 L 199.363281 97.246094 Z M 236.621094 59.988281 "/>
<path style="fill-rule:nonzero;fill:rgb(74.509804%,74.509804%,74.509804%);fill-opacity:1;stroke-width:1.5;stroke-linecap:round;stroke-linejoin:round;stroke:rgb(0%,0%,0%);stroke-opacity:1;stroke-miterlimit:10;" d="M 209.296875 97.246094 L 209.277344 96.625 L 209.21875 96.003906 L 209.121094 95.386719 L 208.988281 94.777344 L 208.8125 94.179688 L 208.601563 93.589844 L 208.351563 93.019531 L 208.070313 92.460938 L 207.753906 91.925781 L 207.402344 91.40625 L 207.019531 90.914063 L 206.605469 90.445313 L 206.164063 90.003906 L 205.695313 89.59375 L 205.203125 89.210938 L 204.6875 88.859375 L 204.148438 88.542969 L 203.59375 88.257813 L 203.019531 88.011719 L 202.433594 87.796875 L 201.835938 87.625 L 201.226563 87.488281 L 200.609375 87.390625 L 199.988281 87.332031 L 199.363281 87.3125 L 198.738281 87.332031 L 198.117188 87.390625 L 197.5 87.488281 L 196.890625 87.625 L 196.292969 87.796875 L 195.707031 88.011719 L 195.132813 88.257813 L 194.578125 88.542969 L 194.039063 88.859375 L 193.523438 89.210938 L 193.03125 89.59375 L 192.5625 90.003906 L 192.121094 90.445313 L 191.707031 90.914063 L 191.324219 91.40625 L 190.972656 91.925781 L 190.65625 92.460938 L 190.375 93.019531 L 190.125 93.589844 L 189.914063 94.179688 L 189.738281 94.777344 L 189.605469 95.386719 L 189.507813 96.003906 L 189.445313 96.625 L 189.425781 97.246094 L 189.445313 97.871094 L 189.507813 98.492188 L 189.605469 99.109375 L 189.738281 99.71875 L 189.914063 100.316406 L 190.125 100.90625 L 190.375 101.476563 L 190.65625 102.035156 L 190.972656 102.570313 L 191.324219 103.089844 L 191.707031 103.582031 L 192.121094 104.050781 L 192.5625 104.492188 L 193.03125 104.902344 L 193.523438 105.285156 L 194.039063 105.636719 L 194.578125 105.953125 L 195.132813 106.238281 L 195.707031 106.484375 L 196.292969 106.699219 L 196.890625 106.871094 L 197.5 107.007813 L 198.117188 107.105469 L 198.738281 107.164063 L 199.363281 107.183594 L 199.988281 107.164063 L 200.609375 107.105469 L 201.226563 107.007813 L 201.835938 106.871094 L 202.433594 106.699219 L 203.019531 106.484375 L 203.59375 106.238281 L 204.148438 105.953125 L 204.6875 105.636719 L 205.203125 105.285156 L 205.695313 104.902344 L 206.164063 104.492188 L 206.605469 104.050781 L 207.019531 103.582031 L 207.402344 103.089844 L 207.753906 102.570313 L 208.070313 102.035156 L 208.351563 101.476563 L 208.601563 100.90625 L 208.8125 100.316406 L 208.988281 99.71875 L 209.121094 99.109375 L 209.21875 98.492188 L 209.277344 97.871094 Z M 209.296875 97.246094 "/>
<path style="fill:none;stroke-width:2.25;stroke-linecap:round;stroke-linejoin:round;stroke:rgb(0%,0%,0%);stroke-opacity:1;stroke-miterlimit:10;" d="M 606.511719 97.246094 L 564.285156 24.109375 L 479.832031 24.109375 L 437.605469 97.246094 L 479.832031 170.386719 L 564.285156 170.386719 Z M 606.511719 97.246094 "/>
<path style="fill:none;stroke-width:2.25;stroke-linecap:round;stroke-linejoin:round;stroke:rgb(0%,0%,0%);stroke-opacity:1;stroke-miterlimit:10;" d="M 522.058594 44.558594 L 519.550781 44.617188 L 517.050781 44.796875 L 514.558594 45.09375 L 512.085938 45.507813 L 509.636719 46.042969 L 507.210938 46.691406 L 504.824219 47.453125 L 502.472656 48.332031 L 500.167969 49.320313 L 497.914063 50.414063 L 495.710938 51.617188 L 493.570313 52.921875 L 491.492188 54.328125 L 489.484375 55.828125 L 487.550781 57.425781 L 485.695313 59.113281 L 483.921875 60.886719 L 482.234375 62.742188 L 480.640625 64.675781 L 479.136719 66.683594 L 477.730469 68.761719 L 476.425781 70.902344 L 475.222656 73.101563 L 474.128906 75.359375 L 473.140625 77.664063 L 472.265625 80.015625 L 471.5 82.402344 L 470.851563 84.824219 L 470.320313 87.277344 L 469.902344 89.75 L 469.605469 92.238281 L 469.425781 94.742188 L 469.367188 97.246094 L 469.425781 99.753906 L 469.605469 102.257813 L 469.902344 104.746094 L 470.320313 107.21875 L 470.851563 109.671875 L 471.5 112.09375 L 472.265625 114.480469 L 473.140625 116.832031 L 474.128906 119.136719 L 475.222656 121.390625 L 476.425781 123.59375 L 477.730469 125.734375 L 479.136719 127.8125 L 480.640625 129.820313 L 482.234375 131.753906 L 483.921875 133.609375 L 485.695313 135.382813 L 487.550781 137.070313 L 489.484375 138.667969 L 491.492188 140.167969 L 493.570313 141.574219 L 495.710938 142.878906 L 497.914063 144.082031 L 500.167969 145.175781 L 502.472656 146.164063 L 504.824219 147.042969 L 507.210938 147.804688 L 509.636719 148.453125 L 512.085938 148.988281 L 514.558594 149.402344 L 517.050781 149.699219 L 519.550781 149.878906 L 522.058594 149.9375 L 524.566406 149.878906 L 527.066406 149.699219 L 529.554688 149.402344 L 532.03125 148.988281 L 534.480469 148.453125 L 536.902344 147.804688 L 539.292969 147.042969 L 541.640625 146.164063 L 543.945313 145.175781 L 546.203125 144.082031 L 548.402344 142.878906 L 550.542969 141.574219 L 552.621094 140.167969 L 554.628906 138.667969 L 556.5625 137.070313 L 558.417969 135.382813 L 560.191406 133.609375 L 561.878906 131.753906 L 563.476563 129.820313 L 564.980469 127.8125 L 566.382813 125.734375 L 567.691406 123.59375 L 568.890625 121.390625 L 569.988281 119.136719 L 570.972656 116.832031 L 571.851563 114.480469 L 572.613281 112.09375 L 573.261719 109.671875 L 573.796875 107.21875 L 574.210938 104.746094 L 574.511719 102.257813 L 574.6875 99.753906 L 574.75 97.246094 L 522.058594 97.246094 Z M 522.058594 44.558594 "/>
<path style="fill-rule:nonzero;fill:rgb(0%,0%,0%);fill-opacity:1;stroke-width:1.5;stroke-linecap:round;stroke-linejoin:round;stroke:rgb(0%,0%,0%);stroke-opacity:1;stroke-miterlimit:10;" d="M 531.992188 97.246094 L 531.972656 96.625 L 531.914063 96.003906 L 531.816406 95.386719 L 531.679688 94.777344 L 531.507813 94.179688 L 531.296875 93.589844 L 531.046875 93.019531 L 530.765625 92.460938 L 530.445313 91.925781 L 530.09375 91.40625 L 529.714844 90.914063 L 529.300781 90.445313 L 528.859375 90.003906 L 528.390625 89.59375 L 527.898438 89.210938 L 527.382813 88.859375 L 526.84375 88.542969 L 526.289063 88.257813 L 525.714844 88.011719 L 525.128906 87.796875 L 524.527344 87.625 L 523.917969 87.488281 L 523.304688 87.390625 L 522.679688 87.332031 L 522.058594 87.3125 L 521.433594 87.332031 L 520.8125 87.390625 L 520.195313 87.488281 L 519.585938 87.625 L 518.988281 87.796875 L 518.398438 88.011719 L 517.828125 88.257813 L 517.269531 88.542969 L 516.734375 88.859375 L 516.21875 89.210938 L 515.722656 89.59375 L 515.257813 90.003906 L 514.816406 90.445313 L 514.402344 90.914063 L 514.019531 91.40625 L 513.667969 91.925781 L 513.351563 92.460938 L 513.066406 93.019531 L 512.820313 93.589844 L 512.609375 94.179688 L 512.433594 94.777344 L 512.296875 95.386719 L 512.199219 96.003906 L 512.140625 96.625 L 512.121094 97.246094 L 512.140625 97.871094 L 512.199219 98.492188 L 512.296875 99.109375 L 512.433594 99.71875 L 512.609375 100.316406 L 512.820313 100.90625 L 513.066406 101.476563 L 513.351563 102.035156 L 513.667969 102.570313 L 514.019531 103.089844 L 514.402344 103.582031 L 514.816406 104.050781 L 515.257813 104.492188 L 515.722656 104.902344 L 516.21875 105.285156 L 516.734375 105.636719 L 517.269531 105.953125 L 517.828125 106.238281 L 518.398438 106.484375 L 518.988281 106.699219 L 519.585938 106.871094 L 520.195313 107.007813 L 520.8125 107.105469 L 521.433594 107.164063 L 522.058594 107.183594 L 522.679688 107.164063 L 523.304688 107.105469 L 523.917969 107.007813 L 524.527344 106.871094 L 525.128906 106.699219 L 525.714844 106.484375 L 526.289063 106.238281 L 526.84375 105.953125 L 527.382813 105.636719 L 527.898438 105.285156 L 528.390625 104.902344 L 528.859375 104.492188 L 529.300781 104.050781 L 529.714844 103.582031 L 530.09375 103.089844 L 530.445313 102.570313 L 530.765625 102.035156 L 531.046875 101.476563 L 531.296875 100.90625 L 531.507813 100.316406 L 531.679688 99.71875 L 531.816406 99.109375 L 531.914063 98.492188 L 531.972656 97.871094 Z M 531.992188 97.246094 "/>
<path style="fill:none;stroke-width:1.5;stroke-linecap:round;stroke-linejoin:round;stroke:rgb(0%,0%,0%);stroke-opacity:1;stroke-miterlimit:10;" d="M 929.203125 97.246094 L 929.039063 91.945313 L 928.539063 86.664063 L 927.707031 81.421875 L 926.550781 76.246094 L 925.070313 71.152344 L 923.273438 66.160156 L 921.167969 61.289063 L 918.757813 56.5625 L 916.058594 51.996094 L 913.074219 47.609375 L 909.824219 43.417969 L 906.316406 39.4375 L 902.5625 35.683594 L 898.582031 32.175781 L 894.390625 28.925781 L 890.003906 25.941406 L 885.4375 23.242188 L 880.710938 20.832031 L 875.839844 18.726563 L 870.847656 16.929688 L 865.753906 15.449219 L 860.578125 14.292969 L 855.335938 13.460938 L 850.054688 12.960938 L 844.753906 12.796875 L 839.449219 12.960938 L 834.167969 13.460938 L 828.925781 14.292969 L 823.75 15.449219 L 818.65625 16.929688 L 813.664063 18.726563 L 808.792969 20.832031 L 804.066406 23.242188 L 799.5 25.941406 L 795.113281 28.925781 L 790.921875 32.175781 L 786.941406 35.683594 L 783.1875 39.4375 L 779.679688 43.417969 L 776.429688 47.609375 L 773.445313 51.996094 L 770.746094 56.5625 L 768.335938 61.289063 L 766.230469 66.160156 L 764.433594 71.152344 L 762.953125 76.246094 L 761.796875 81.421875 L 760.964844 86.664063 L 760.464844 91.945313 L 760.300781 97.246094 L 760.464844 102.550781 L 760.964844 107.832031 L 761.796875 113.074219 L 762.953125 118.25 L 764.433594 123.34375 L 766.230469 128.335938 L 768.335938 133.207031 L 770.746094 137.933594 L 773.445313 142.5 L 776.429688 146.886719 L 779.679688 151.078125 L 783.1875 155.058594 L 786.941406 158.8125 L 790.921875 162.320313 L 795.113281 165.570313 L 799.5 168.554688 L 804.066406 171.253906 L 808.792969 173.664063 L 813.664063 175.769531 L 818.65625 177.566406 L 823.75 179.046875 L 828.925781 180.203125 L 834.167969 181.035156 L 839.449219 181.535156 L 844.753906 181.699219 L 850.054688 181.535156 L 855.335938 181.035156 L 860.578125 180.203125 L 865.753906 179.046875 L 870.847656 177.566406 L 875.839844 175.769531 L 880.710938 173.664063 L 885.4375 171.253906 L 890.003906 168.554688 L 894.390625 165.570313 L 898.582031 162.320313 L 902.5625 158.8125 L 906.316406 155.058594 L 909.824219 151.078125 L 913.074219 146.886719 L 916.058594 142.5 L 918.757813 137.933594 L 921.167969 133.207031 L 923.273438 128.335938 L 925.070313 123.34375 L 926.550781 118.25 L 927.707031 113.074219 L 928.539063 107.832031 L 929.039063 102.550781 Z M 929.203125 97.246094 "/>
<path style="fill:none;stroke-width:2.25;stroke-linecap:round;stroke-linejoin:round;stroke:rgb(0%,0%,0%);stroke-opacity:1;stroke-miterlimit:10;" d="M 807.492188 59.988281 L 805.761719 61.804688 L 804.121094 63.699219 L 802.570313 65.671875 L 801.117188 67.714844 L 799.761719 69.824219 L 798.507813 71.996094 L 797.355469 74.226563 L 796.316406 76.507813 L 795.382813 78.835938 L 794.5625 81.203125 L 793.855469 83.609375 L 793.265625 86.046875 L 792.789063 88.511719 L 792.433594 90.992188 L 792.195313 93.488281 L 792.074219 95.992188 L 792.074219 98.5 L 792.195313 101.007813 L 792.433594 103.503906 L 792.789063 105.984375 L 793.265625 108.449219 L 793.855469 110.886719 L 794.5625 113.292969 L 795.382813 115.660156 L 796.316406 117.988281 L 797.355469 120.269531 L 798.507813 122.5 L 799.761719 124.671875 L 801.117188 126.78125 L 802.570313 128.824219 L 804.121094 130.796875 L 805.761719 132.691406 L 807.492188 134.507813 L 809.308594 136.238281 L 811.203125 137.878906 L 813.175781 139.429688 L 815.21875 140.882813 L 817.328125 142.238281 L 819.5 143.492188 L 821.730469 144.644531 L 824.011719 145.683594 L 826.339844 146.617188 L 828.707031 147.4375 L 831.113281 148.144531 L 833.550781 148.734375 L 836.015625 149.210938 L 838.496094 149.566406 L 840.992188 149.804688 L 843.5 149.925781 L 846.007813 149.925781 L 848.511719 149.804688 L 851.007813 149.566406 L 853.488281 149.210938 L 855.953125 148.734375 L 858.390625 148.144531 L 860.796875 147.4375 L 863.164063 146.617188 L 865.492188 145.683594 L 867.773438 144.644531 L 870.003906 143.492188 L 872.175781 142.238281 L 874.285156 140.882813 L 876.328125 139.429688 L 878.300781 137.878906 L 880.195313 136.238281 L 882.011719 134.507813 L 883.742188 132.691406 L 885.382813 130.796875 L 886.933594 128.824219 L 888.386719 126.78125 L 889.742188 124.671875 L 890.996094 122.5 L 892.148438 120.269531 L 893.1875 117.988281 L 894.121094 115.660156 L 894.941406 113.292969 L 895.648438 110.886719 L 896.238281 108.449219 L 896.714844 105.984375 L 897.070313 103.503906 L 897.308594 101.007813 L 897.429688 98.5 L 897.429688 95.992188 L 897.308594 93.488281 L 897.070313 90.992188 L 896.714844 88.511719 L 896.238281 86.046875 L 895.648438 83.609375 L 894.941406 81.203125 L 894.121094 78.835938 L 893.1875 76.507813 L 892.148438 74.226563 L 890.996094 71.996094 L 889.742188 69.824219 L 888.386719 67.714844 L 886.933594 65.671875 L 885.382813 63.699219 L 883.742188 61.804688 L 882.011719 59.988281 L 844.753906 97.246094 Z M 807.492188 59.988281 "/>
<path style="fill-rule:nonzero;fill:rgb(100%,100%,100%);fill-opacity:1;stroke-width:1.5;stroke-linecap:round;stroke-linejoin:round;stroke:rgb(0%,0%,0%);stroke-opacity:1;stroke-miterlimit:10;" d="M 854.6875 97.246094 L 854.667969 96.625 L 854.609375 96.003906 L 854.511719 95.386719 L 854.375 94.777344 L 854.203125 94.179688 L 853.988281 93.589844 L 853.742188 93.019531 L 853.457031 92.460938 L 853.140625 91.925781 L 852.789063 91.40625 L 852.40625 90.914063 L 851.996094 90.445313 L 851.554688 90.003906 L 851.085938 89.59375 L 850.59375 89.210938 L 850.074219 88.859375 L 849.539063 88.542969 L 848.980469 88.257813 L 848.410156 88.011719 L 847.820313 87.796875 L 847.222656 87.625 L 846.613281 87.488281 L 845.996094 87.390625 L 845.375 87.332031 L 844.753906 87.3125 L 844.128906 87.332031 L 843.507813 87.390625 L 842.890625 87.488281 L 842.28125 87.625 L 841.683594 87.796875 L 841.09375 88.011719 L 840.523438 88.257813 L 839.964844 88.542969 L 839.429688 88.859375 L 838.910156 89.210938 L 838.417969 89.59375 L 837.949219 90.003906 L 837.507813 90.445313 L 837.097656 90.914063 L 836.714844 91.40625 L 836.363281 91.925781 L 836.046875 92.460938 L 835.761719 93.019531 L 835.515625 93.589844 L 835.300781 94.179688 L 835.128906 94.777344 L 834.992188 95.386719 L 834.894531 96.003906 L 834.835938 96.625 L 834.816406 97.246094 L 834.835938 97.871094 L 834.894531 98.492188 L 834.992188 99.109375 L 835.128906 99.71875 L 835.300781 100.316406 L 835.515625 100.90625 L 835.761719 101.476563 L 836.046875 102.035156 L 836.363281 102.570313 L 836.714844 103.089844 L 837.097656 103.582031 L 837.507813 104.050781 L 837.949219 104.492188 L 838.417969 104.902344 L 838.910156 105.285156 L 839.429688 105.636719 L 839.964844 105.953125 L 840.523438 106.238281 L 841.09375 106.484375 L 841.683594 106.699219 L 842.28125 106.871094 L 842.890625 107.007813 L 843.507813 107.105469 L 844.128906 107.164063 L 844.753906 107.183594 L 845.375 107.164063 L 845.996094 107.105469 L 846.613281 107.007813 L 847.222656 106.871094 L 847.820313 106.699219 L 848.410156 106.484375 L 848.980469 106.238281 L 849.539063 105.953125 L 850.074219 105.636719 L 850.59375 105.285156 L 851.085938 104.902344 L 851.554688 104.492188 L 851.996094 104.050781 L 852.40625 103.582031 L 852.789063 103.089844 L 853.140625 102.570313 L 853.457031 102.035156 L 853.742188 101.476563 L 853.988281 100.90625 L 854.203125 100.316406 L 854.375 99.71875 L 854.511719 99.109375 L 854.609375 98.492188 L 854.667969 97.871094 Z M 854.6875 97.246094 "/>
<path style="fill:none;stroke-width:2.25;stroke-linecap:round;stroke-linejoin:round;stroke:rgb(0%,0%,0%);stroke-opacity:1;stroke-miterlimit:10;" d="M 283.816406 287.941406 L 241.589844 214.804688 L 157.136719 214.804688 L 114.910156 287.941406 L 157.136719 361.082031 L 241.589844 361.082031 Z M 283.816406 287.941406 "/>
<path style="fill:none;stroke-width:2.25;stroke-linecap:round;stroke-linejoin:round;stroke:rgb(0%,0%,0%);stroke-opacity:1;stroke-miterlimit:10;" d="M 199.363281 235.25 L 196.855469 235.3125 L 194.355469 235.488281 L 191.863281 235.789063 L 189.390625 236.203125 L 186.941406 236.738281 L 184.519531 237.386719 L 182.128906 238.148438 L 179.78125 239.027344 L 177.472656 240.011719 L 175.21875 241.109375 L 173.019531 242.308594 L 170.875 243.617188 L 168.800781 245.019531 L 166.792969 246.523438 L 164.859375 248.121094 L 163.003906 249.808594 L 161.230469 251.582031 L 159.542969 253.4375 L 157.945313 255.371094 L 156.441406 257.378906 L 155.035156 259.457031 L 153.730469 261.597656 L 152.53125 263.796875 L 151.433594 266.054688 L 150.445313 268.359375 L 149.570313 270.707031 L 148.804688 273.097656 L 148.15625 275.519531 L 147.625 277.96875 L 147.207031 280.445313 L 146.910156 282.933594 L 146.730469 285.433594 L 146.671875 287.941406 L 146.730469 290.449219 L 146.910156 292.949219 L 147.207031 295.441406 L 147.625 297.914063 L 148.15625 300.363281 L 148.804688 302.789063 L 149.570313 305.175781 L 150.445313 307.527344 L 151.433594 309.832031 L 152.53125 312.085938 L 153.730469 314.289063 L 155.035156 316.429688 L 156.441406 318.507813 L 157.945313 320.515625 L 159.542969 322.449219 L 161.230469 324.304688 L 163.003906 326.078125 L 164.859375 327.765625 L 166.792969 329.359375 L 168.800781 330.863281 L 170.875 332.269531 L 173.019531 333.574219 L 175.21875 334.777344 L 177.472656 335.871094 L 179.78125 336.859375 L 182.128906 337.734375 L 184.519531 338.5 L 186.941406 339.148438 L 189.390625 339.679688 L 191.863281 340.097656 L 194.355469 340.394531 L 196.855469 340.574219 L 199.363281 340.632813 L 201.871094 340.574219 L 204.371094 340.394531 L 206.863281 340.097656 L 209.335938 339.679688 L 211.785156 339.148438 L 214.207031 338.5 L 216.597656 337.734375 L 218.945313 336.859375 L 221.25 335.871094 L 223.507813 334.777344 L 225.707031 333.574219 L 227.851563 332.269531 L 229.925781 330.863281 L 231.933594 329.359375 L 233.867188 327.765625 L 235.722656 326.078125 L 237.496094 324.304688 L 239.183594 322.449219 L 240.78125 320.515625 L 242.285156 318.507813 L 243.691406 316.429688 L 244.996094 314.289063 L 246.195313 312.085938 L 247.292969 309.832031 L 248.28125 307.527344 L 249.15625 305.175781 L 249.921875 302.789063 L 250.570313 300.363281 L 251.101563 297.914063 L 251.519531 295.441406 L 251.816406 292.949219 L 251.996094 290.449219 L 252.054688 287.941406 L 199.363281 287.941406 Z M 199.363281 235.25 "/>
<path style="fill-rule:nonzero;fill:rgb(0%,0%,0%);fill-opacity:1;stroke-width:1.5;stroke-linecap:round;stroke-linejoin:round;stroke:rgb(0%,0%,0%);stroke-opacity:1;stroke-miterlimit:10;" d="M 209.296875 287.941406 L 209.277344 287.320313 L 209.21875 286.695313 L 209.121094 286.082031 L 208.988281 285.472656 L 208.8125 284.871094 L 208.601563 284.285156 L 208.351563 283.710938 L 208.070313 283.15625 L 207.753906 282.617188 L 207.402344 282.101563 L 207.019531 281.609375 L 206.605469 281.140625 L 206.164063 280.699219 L 205.695313 280.285156 L 205.203125 279.90625 L 204.6875 279.554688 L 204.148438 279.234375 L 203.59375 278.953125 L 203.019531 278.703125 L 202.433594 278.492188 L 201.835938 278.320313 L 201.226563 278.183594 L 200.609375 278.085938 L 199.988281 278.027344 L 199.363281 278.007813 L 198.738281 278.027344 L 198.117188 278.085938 L 197.5 278.183594 L 196.890625 278.320313 L 196.292969 278.492188 L 195.707031 278.703125 L 195.132813 278.953125 L 194.578125 279.234375 L 194.039063 279.554688 L 193.523438 279.90625 L 193.03125 280.285156 L 192.5625 280.699219 L 192.121094 281.140625 L 191.707031 281.609375 L 191.324219 282.101563 L 190.972656 282.617188 L 190.65625 283.15625 L 190.375 283.710938 L 190.125 284.285156 L 189.914063 284.871094 L 189.738281 285.472656 L 189.605469 286.082031 L 189.507813 286.695313 L 189.445313 287.320313 L 189.425781 287.941406 L 189.445313 288.566406 L 189.507813 289.1875 L 189.605469 289.804688 L 189.738281 290.414063 L 189.914063 291.011719 L 190.125 291.601563 L 190.375 292.171875 L 190.65625 292.730469 L 190.972656 293.265625 L 191.324219 293.78125 L 191.707031 294.277344 L 192.121094 294.742188 L 192.5625 295.183594 L 193.03125 295.597656 L 193.523438 295.980469 L 194.039063 296.332031 L 194.578125 296.648438 L 195.132813 296.933594 L 195.707031 297.179688 L 196.292969 297.390625 L 196.890625 297.566406 L 197.5 297.703125 L 198.117188 297.800781 L 198.738281 297.859375 L 199.363281 297.878906 L 199.988281 297.859375 L 200.609375 297.800781 L 201.226563 297.703125 L 201.835938 297.566406 L 202.433594 297.390625 L 203.019531 297.179688 L 203.59375 296.933594 L 204.148438 296.648438 L 204.6875 296.332031 L 205.203125 295.980469 L 205.695313 295.597656 L 206.164063 295.183594 L 206.605469 294.742188 L 207.019531 294.277344 L 207.402344 293.78125 L 207.753906 293.265625 L 208.070313 292.730469 L 208.351563 292.171875 L 208.601563 291.601563 L 208.8125 291.011719 L 208.988281 290.414063 L 209.121094 289.804688 L 209.21875 289.1875 L 209.277344 288.566406 Z M 209.296875 287.941406 "/>
<g clip-path="url(#clip1)" clip-rule="nonzero">
<path style="fill:none;stroke-width:1.5;stroke-linecap:round;stroke-linejoin:round;stroke:rgb(0%,0%,0%);stroke-opacity:1;stroke-miterlimit:10;" d="M 606.511719 287.941406 L 606.34375 282.640625 L 605.84375 277.359375 L 605.015625 272.117188 L 603.855469 266.941406 L 602.375 261.84375 L 600.578125 256.851563 L 598.472656 251.984375 L 596.0625 247.257813 L 593.363281 242.691406 L 590.382813 238.300781 L 587.128906 234.109375 L 583.621094 230.132813 L 579.867188 226.378906 L 575.890625 222.871094 L 571.699219 219.617188 L 567.308594 216.636719 L 562.742188 213.9375 L 558.015625 211.527344 L 553.148438 209.421875 L 548.15625 207.625 L 543.058594 206.144531 L 537.882813 204.984375 L 532.640625 204.15625 L 527.359375 203.65625 L 522.058594 203.488281 L 516.753906 203.65625 L 511.472656 204.15625 L 506.234375 204.984375 L 501.054688 206.144531 L 495.960938 207.625 L 490.96875 209.421875 L 486.097656 211.527344 L 481.371094 213.9375 L 476.804688 216.636719 L 472.417969 219.617188 L 468.226563 222.871094 L 464.246094 226.378906 L 460.496094 230.132813 L 456.984375 234.109375 L 453.734375 238.300781 L 450.753906 242.691406 L 448.050781 247.257813 L 445.644531 251.984375 L 443.535156 256.851563 L 441.738281 261.84375 L 440.257813 266.941406 L 439.101563 272.117188 L 438.269531 277.359375 L 437.773438 282.640625 L 437.605469 287.941406 L 437.773438 293.246094 L 438.269531 298.527344 L 439.101563 303.765625 L 440.257813 308.945313 L 441.738281 314.039063 L 443.535156 319.03125 L 445.644531 323.902344 L 448.050781 328.628906 L 450.753906 333.195313 L 453.734375 337.582031 L 456.984375 341.773438 L 460.496094 345.753906 L 464.246094 349.503906 L 468.226563 353.015625 L 472.417969 356.265625 L 476.804688 359.246094 L 481.371094 361.949219 L 486.097656 364.355469 L 490.96875 366.464844 L 495.960938 368.261719 L 501.054688 369.742188 L 506.234375 370.898438 L 511.472656 371.730469 L 516.753906 372.226563 L 522.058594 372.394531 L 527.359375 372.226563 L 532.640625 371.730469 L 537.882813 370.898438 L 543.058594 369.742188 L 548.15625 368.261719 L 553.148438 366.464844 L 558.015625 364.355469 L 562.742188 361.949219 L 567.308594 359.246094 L 571.699219 356.265625 L 575.890625 353.015625 L 579.867188 349.503906 L 583.621094 345.753906 L 587.128906 341.773438 L 590.382813 337.582031 L 593.363281 333.195313 L 596.0625 328.628906 L 598.472656 323.902344 L 600.578125 319.03125 L 602.375 314.039063 L 603.855469 308.945313 L 605.015625 303.765625 L 605.84375 298.527344 L 606.34375 293.246094 Z M 606.511719 287.941406 "/>
</g>
<path style="fill:none;stroke-width:2.25;stroke-linecap:round;stroke-linejoin:round;stroke:rgb(0%,0%,0%);stroke-opacity:1;stroke-miterlimit:10;" d="M 484.800781 250.683594 L 483.070313 252.5 L 481.425781 254.394531 L 479.875 256.367188 L 478.421875 258.410156 L 477.066406 260.519531 L 475.8125 262.691406 L 474.664063 264.917969 L 473.621094 267.199219 L 472.6875 269.527344 L 471.867188 271.898438 L 471.160156 274.304688 L 470.570313 276.742188 L 470.097656 279.203125 L 469.738281 281.6875 L 469.5 284.183594 L 469.382813 286.6875 L 469.382813 289.195313 L 469.5 291.703125 L 469.738281 294.199219 L 470.097656 296.679688 L 470.570313 299.144531 L 471.160156 301.578125 L 471.867188 303.984375 L 472.6875 306.355469 L 473.621094 308.683594 L 474.664063 310.964844 L 475.8125 313.195313 L 477.066406 315.367188 L 478.421875 317.476563 L 479.875 319.519531 L 481.425781 321.492188 L 483.070313 323.386719 L 484.800781 325.199219 L 486.613281 326.929688 L 488.507813 328.574219 L 490.480469 330.125 L 492.523438 331.578125 L 494.632813 332.933594 L 496.804688 334.1875 L 499.035156 335.335938 L 501.316406 336.378906 L 503.644531 337.3125 L 506.015625 338.132813 L 508.421875 338.839844 L 510.855469 339.429688 L 513.320313 339.902344 L 515.800781 340.261719 L 518.296875 340.5 L 520.804688 340.617188 L 523.3125 340.617188 L 525.816406 340.5 L 528.3125 340.261719 L 530.796875 339.902344 L 533.257813 339.429688 L 535.695313 338.839844 L 538.101563 338.132813 L 540.472656 337.3125 L 542.800781 336.378906 L 545.082031 335.335938 L 547.308594 334.1875 L 549.480469 332.933594 L 551.589844 331.578125 L 553.632813 330.125 L 555.605469 328.574219 L 557.5 326.929688 L 559.316406 325.199219 L 561.046875 323.386719 L 562.6875 321.492188 L 564.238281 319.519531 L 565.695313 317.476563 L 567.050781 315.367188 L 568.304688 313.195313 L 569.453125 310.964844 L 570.496094 308.683594 L 571.425781 306.355469 L 572.246094 303.984375 L 572.953125 301.578125 L 573.542969 299.144531 L 574.019531 296.679688 L 574.375 294.199219 L 574.613281 291.703125 L 574.734375 289.195313 L 574.734375 286.6875 L 574.613281 284.183594 L 574.375 281.6875 L 574.019531 279.203125 L 573.542969 276.742188 L 572.953125 274.304688 L 572.246094 271.898438 L 571.425781 269.527344 L 570.496094 267.199219 L 569.453125 264.917969 L 568.304688 262.691406 L 567.050781 260.519531 L 565.695313 258.410156 L 564.238281 256.367188 L 562.6875 254.394531 L 561.046875 252.5 L 559.316406 250.683594 L 522.058594 287.941406 Z M 484.800781 250.683594 "/>
<path style="fill-rule:nonzero;fill:rgb(100%,100%,100%);fill-opacity:1;stroke-width:1.5;stroke-linecap:round;stroke-linejoin:round;stroke:rgb(0%,0%,0%);stroke-opacity:1;stroke-miterlimit:10;" d="M 531.992188 287.941406 L 531.972656 287.320313 L 531.914063 286.695313 L 531.816406 286.082031 L 531.679688 285.472656 L 531.507813 284.871094 L 531.296875 284.285156 L 531.046875 283.710938 L 530.765625 283.15625 L 530.445313 282.617188 L 530.09375 282.101563 L 529.714844 281.609375 L 529.300781 281.140625 L 528.859375 280.699219 L 528.390625 280.285156 L 527.898438 279.90625 L 527.382813 279.554688 L 526.84375 279.234375 L 526.289063 278.953125 L 525.714844 278.703125 L 525.128906 278.492188 L 524.527344 278.320313 L 523.917969 278.183594 L 523.304688 278.085938 L 522.679688 278.027344 L 522.058594 278.007813 L 521.433594 278.027344 L 520.8125 278.085938 L 520.195313 278.183594 L 519.585938 278.320313 L 518.988281 278.492188 L 518.398438 278.703125 L 517.828125 278.953125 L 517.269531 279.234375 L 516.734375 279.554688 L 516.21875 279.90625 L 515.722656 280.285156 L 515.257813 280.699219 L 514.816406 281.140625 L 514.402344 281.609375 L 514.019531 282.101563 L 513.667969 282.617188 L 513.351563 283.15625 L 513.066406 283.710938 L 512.820313 284.285156 L 512.609375 284.871094 L 512.433594 285.472656 L 512.296875 286.082031 L 512.199219 286.695313 L 512.140625 287.320313 L 512.121094 287.941406 L 512.140625 288.566406 L 512.199219 289.1875 L 512.296875 289.804688 L 512.433594 290.414063 L 512.609375 291.011719 L 512.820313 291.601563 L 513.066406 292.171875 L 513.351563 292.730469 L 513.667969 293.265625 L 514.019531 293.78125 L 514.402344 294.277344 L 514.816406 294.742188 L 515.257813 295.183594 L 515.722656 295.597656 L 516.21875 295.980469 L 516.734375 296.332031 L 517.269531 296.648438 L 517.828125 296.933594 L 518.398438 297.179688 L 518.988281 297.390625 L 519.585938 297.566406 L 520.195313 297.703125 L 520.8125 297.800781 L 521.433594 297.859375 L 522.058594 297.878906 L 522.679688 297.859375 L 523.304688 297.800781 L 523.917969 297.703125 L 524.527344 297.566406 L 525.128906 297.390625 L 525.714844 297.179688 L 526.289063 296.933594 L 526.84375 296.648438 L 527.382813 296.332031 L 527.898438 295.980469 L 528.390625 295.597656 L 528.859375 295.183594 L 529.300781 294.742188 L 529.714844 294.277344 L 530.09375 293.78125 L 530.445313 293.265625 L 530.765625 292.730469 L 531.046875 292.171875 L 531.296875 291.601563 L 531.507813 291.011719 L 531.679688 290.414063 L 531.816406 289.804688 L 531.914063 289.1875 L 531.972656 288.566406 Z M 531.992188 287.941406 "/>
<path style="fill:none;stroke-width:2.25;stroke-linecap:round;stroke-linejoin:round;stroke:rgb(0%,0%,0%);stroke-opacity:1;stroke-miterlimit:10;" d="M 844.753906 208.457031 L 769.15625 263.378906 L 798.03125 352.246094 L 891.472656 352.246094 L 920.347656 263.378906 Z M 844.753906 208.457031 "/>
<path style="fill:none;stroke-width:2.25;stroke-linecap:round;stroke-linejoin:round;stroke:rgb(0%,0%,0%);stroke-opacity:1;stroke-miterlimit:10;" d="M 792.0625 287.941406 L 792.121094 290.449219 L 792.300781 292.949219 L 792.597656 295.441406 L 793.011719 297.914063 L 793.546875 300.363281 L 794.195313 302.789063 L 794.957031 305.175781 L 795.835938 307.527344 L 796.824219 309.832031 L 797.917969 312.085938 L 799.121094 314.289063 L 800.425781 316.429688 L 801.832031 318.507813 L 803.332031 320.515625 L 804.929688 322.449219 L 806.617188 324.304688 L 808.390625 326.078125 L 810.246094 327.765625 L 812.179688 329.359375 L 814.1875 330.863281 L 816.265625 332.269531 L 818.40625 333.574219 L 820.609375 334.777344 L 822.863281 335.871094 L 825.167969 336.859375 L 827.519531 337.734375 L 829.90625 338.5 L 832.328125 339.148438 L 834.78125 339.679688 L 837.253906 340.097656 L 839.742188 340.394531 L 842.246094 340.574219 L 844.753906 340.632813 L 847.257813 340.574219 L 849.761719 340.394531 L 852.25 340.097656 L 854.722656 339.679688 L 857.175781 339.148438 L 859.597656 338.5 L 861.984375 337.734375 L 864.335938 336.859375 L 866.640625 335.871094 L 868.898438 334.777344 L 871.097656 333.574219 L 873.238281 332.269531 L 875.316406 330.863281 L 877.324219 329.359375 L 879.257813 327.765625 L 881.113281 326.078125 L 882.886719 324.304688 L 884.574219 322.449219 L 886.171875 320.515625 L 887.671875 318.507813 L 889.078125 316.429688 L 890.382813 314.289063 L 891.585938 312.085938 L 892.679688 309.832031 L 893.667969 307.527344 L 894.546875 305.175781 L 895.308594 302.789063 L 895.957031 300.363281 L 896.492188 297.914063 L 896.90625 295.441406 L 897.203125 292.949219 L 897.382813 290.449219 L 897.441406 287.941406 L 897.382813 285.433594 L 897.203125 282.933594 L 896.90625 280.445313 L 896.492188 277.96875 L 895.957031 275.519531 L 895.308594 273.097656 L 894.546875 270.707031 L 893.667969 268.359375 L 892.679688 266.054688 L 891.585938 263.796875 L 890.382813 261.597656 L 889.078125 259.457031 L 887.671875 257.378906 L 886.171875 255.371094 L 884.574219 253.4375 L 882.886719 251.582031 L 881.113281 249.808594 L 879.257813 248.121094 L 877.324219 246.523438 L 875.316406 245.019531 L 873.238281 243.617188 L 871.097656 242.308594 L 868.898438 241.109375 L 866.640625 240.011719 L 864.335938 239.027344 L 861.984375 238.148438 L 859.597656 237.386719 L 857.175781 236.738281 L 854.722656 236.203125 L 852.25 235.789063 L 849.761719 235.488281 L 847.257813 235.3125 L 844.753906 235.25 L 844.753906 287.941406 Z M 792.0625 287.941406 "/>
<path style="fill-rule:nonzero;fill:rgb(74.509804%,74.509804%,74.509804%);fill-opacity:1;stroke-width:1.5;stroke-linecap:round;stroke-linejoin:round;stroke:rgb(0%,0%,0%);stroke-opacity:1;stroke-miterlimit:10;" d="M 854.6875 287.941406 L 854.667969 287.320313 L 854.609375 286.695313 L 854.511719 286.082031 L 854.375 285.472656 L 854.203125 284.871094 L 853.988281 284.285156 L 853.742188 283.710938 L 853.457031 283.15625 L 853.140625 282.617188 L 852.789063 282.101563 L 852.40625 281.609375 L 851.996094 281.140625 L 851.554688 280.699219 L 851.085938 280.285156 L 850.59375 279.90625 L 850.074219 279.554688 L 849.539063 279.234375 L 848.980469 278.953125 L 848.410156 278.703125 L 847.820313 278.492188 L 847.222656 278.320313 L 846.613281 278.183594 L 845.996094 278.085938 L 845.375 278.027344 L 844.753906 278.007813 L 844.128906 278.027344 L 843.507813 278.085938 L 842.890625 278.183594 L 842.28125 278.320313 L 841.683594 278.492188 L 841.09375 278.703125 L 840.523438 278.953125 L 839.964844 279.234375 L 839.429688 279.554688 L 838.910156 279.90625 L 838.417969 280.285156 L 837.949219 280.699219 L 837.507813 281.140625 L 837.097656 281.609375 L 836.714844 282.101563 L 836.363281 282.617188 L 836.046875 283.15625 L 835.761719 283.710938 L 835.515625 284.285156 L 835.300781 284.871094 L 835.128906 285.472656 L 834.992188 286.082031 L 834.894531 286.695313 L 834.835938 287.320313 L 834.816406 287.941406 L 834.835938 288.566406 L 834.894531 289.1875 L 834.992188 289.804688 L 835.128906 290.414063 L 835.300781 291.011719 L 835.515625 291.601563 L 835.761719 292.171875 L 836.046875 292.730469 L 836.363281 293.265625 L 836.714844 293.78125 L 837.097656 294.277344 L 837.507813 294.742188 L 837.949219 295.183594 L 838.417969 295.597656 L 838.910156 295.980469 L 839.429688 296.332031 L 839.964844 296.648438 L 840.523438 296.933594 L 841.09375 297.179688 L 841.683594 297.390625 L 842.28125 297.566406 L 842.890625 297.703125 L 843.507813 297.800781 L 844.128906 297.859375 L 844.753906 297.878906 L 845.375 297.859375 L 845.996094 297.800781 L 846.613281 297.703125 L 847.222656 297.566406 L 847.820313 297.390625 L 848.410156 297.179688 L 848.980469 296.933594 L 849.539063 296.648438 L 850.074219 296.332031 L 850.59375 295.980469 L 851.085938 295.597656 L 851.554688 295.183594 L 851.996094 294.742188 L 852.40625 294.277344 L 852.789063 293.78125 L 853.140625 293.265625 L 853.457031 292.730469 L 853.742188 292.171875 L 853.988281 291.601563 L 854.203125 291.011719 L 854.375 290.414063 L 854.511719 289.804688 L 854.609375 289.1875 L 854.667969 288.566406 Z M 854.6875 287.941406 "/>
<path style="fill:none;stroke-width:1.5;stroke-linecap:round;stroke-linejoin:round;stroke:rgb(0%,0%,0%);stroke-opacity:1;stroke-miterlimit:10;" d="M 283.816406 478.636719 L 283.648438 473.335938 L 283.148438 468.050781 L 282.320313 462.8125 L 281.164063 457.632813 L 279.683594 452.539063 L 277.886719 447.546875 L 275.777344 442.679688 L 273.371094 437.953125 L 270.667969 433.386719 L 267.6875 428.996094 L 264.433594 424.804688 L 260.925781 420.824219 L 257.175781 417.074219 L 253.195313 413.566406 L 249.003906 410.3125 L 244.613281 407.332031 L 240.046875 404.628906 L 235.320313 402.222656 L 230.453125 400.113281 L 225.460938 398.316406 L 220.367188 396.835938 L 215.1875 395.679688 L 209.949219 394.851563 L 204.664063 394.351563 L 199.363281 394.183594 L 194.058594 394.351563 L 188.777344 394.851563 L 183.539063 395.679688 L 178.359375 396.835938 L 173.265625 398.316406 L 168.273438 400.113281 L 163.40625 402.222656 L 158.679688 404.628906 L 154.113281 407.332031 L 149.722656 410.3125 L 145.53125 413.566406 L 141.550781 417.074219 L 137.800781 420.824219 L 134.292969 424.804688 L 131.039063 428.996094 L 128.058594 433.386719 L 125.355469 437.953125 L 122.949219 442.679688 L 120.839844 447.546875 L 119.042969 452.539063 L 117.5625 457.632813 L 116.40625 462.8125 L 115.578125 468.050781 L 115.078125 473.335938 L 114.910156 478.636719 L 115.078125 483.941406 L 115.578125 489.222656 L 116.40625 494.460938 L 117.5625 499.640625 L 119.042969 504.734375 L 120.839844 509.726563 L 122.949219 514.59375 L 125.355469 519.320313 L 128.058594 523.886719 L 131.039063 528.277344 L 134.292969 532.46875 L 137.800781 536.449219 L 141.550781 540.199219 L 145.53125 543.707031 L 149.722656 546.960938 L 154.113281 549.941406 L 158.679688 552.644531 L 163.40625 555.050781 L 168.273438 557.160156 L 173.265625 558.957031 L 178.359375 560.4375 L 183.539063 561.59375 L 188.777344 562.421875 L 194.058594 562.921875 L 199.363281 563.089844 L 204.664063 562.921875 L 209.949219 562.421875 L 215.1875 561.59375 L 220.367188 560.4375 L 225.460938 558.957031 L 230.453125 557.160156 L 235.320313 555.050781 L 240.046875 552.644531 L 244.613281 549.941406 L 249.003906 546.960938 L 253.195313 543.707031 L 257.175781 540.199219 L 260.925781 536.449219 L 264.433594 532.46875 L 267.6875 528.277344 L 270.667969 523.886719 L 273.371094 519.320313 L 275.777344 514.59375 L 277.886719 509.726563 L 279.683594 504.734375 L 281.164063 499.640625 L 282.320313 494.460938 L 283.148438 489.222656 L 283.648438 483.941406 Z M 283.816406 478.636719 "/>
<path style="fill:none;stroke-width:2.25;stroke-linecap:round;stroke-linejoin:round;stroke:rgb(0%,0%,0%);stroke-opacity:1;stroke-miterlimit:10;" d="M 162.105469 441.378906 L 160.375 443.195313 L 158.730469 445.089844 L 157.183594 447.058594 L 155.726563 449.101563 L 154.371094 451.210938 L 153.117188 453.382813 L 151.96875 455.613281 L 150.925781 457.894531 L 149.996094 460.222656 L 149.175781 462.59375 L 148.46875 465 L 147.875 467.4375 L 147.402344 469.898438 L 147.042969 472.382813 L 146.804688 474.878906 L 146.6875 477.382813 L 146.6875 479.890625 L 146.804688 482.394531 L 147.042969 484.890625 L 147.402344 487.375 L 147.875 489.835938 L 148.46875 492.273438 L 149.175781 494.679688 L 149.996094 497.050781 L 150.925781 499.378906 L 151.96875 501.660156 L 153.117188 503.890625 L 154.371094 506.0625 L 155.726563 508.171875 L 157.183594 510.214844 L 158.730469 512.183594 L 160.375 514.082031 L 162.105469 515.894531 L 163.917969 517.625 L 165.816406 519.269531 L 167.785156 520.816406 L 169.828125 522.273438 L 171.9375 523.628906 L 174.109375 524.882813 L 176.339844 526.03125 L 178.621094 527.074219 L 180.949219 528.003906 L 183.320313 528.824219 L 185.726563 529.53125 L 188.164063 530.125 L 190.625 530.597656 L 193.109375 530.957031 L 195.605469 531.195313 L 198.109375 531.3125 L 200.617188 531.3125 L 203.121094 531.195313 L 205.617188 530.957031 L 208.101563 530.597656 L 210.5625 530.125 L 213 529.53125 L 215.40625 528.824219 L 217.777344 528.003906 L 220.105469 527.074219 L 222.386719 526.03125 L 224.617188 524.882813 L 226.789063 523.628906 L 228.898438 522.273438 L 230.941406 520.816406 L 232.910156 519.269531 L 234.804688 517.625 L 236.621094 515.894531 L 238.351563 514.082031 L 239.996094 512.183594 L 241.542969 510.214844 L 243 508.171875 L 244.355469 506.0625 L 245.609375 503.890625 L 246.757813 501.660156 L 247.800781 499.378906 L 248.730469 497.050781 L 249.550781 494.679688 L 250.257813 492.273438 L 250.851563 489.835938 L 251.324219 487.375 L 251.683594 484.890625 L 251.921875 482.394531 L 252.039063 479.890625 L 252.039063 477.382813 L 251.921875 474.878906 L 251.683594 472.382813 L 251.324219 469.898438 L 250.851563 467.4375 L 250.257813 465 L 249.550781 462.59375 L 248.730469 460.222656 L 247.800781 457.894531 L 246.757813 455.613281 L 245.609375 453.382813 L 244.355469 451.210938 L 243 449.101563 L 241.542969 447.058594 L 239.996094 445.089844 L 238.351563 443.195313 L 236.621094 441.378906 L 199.363281 478.636719 Z M 162.105469 441.378906 "/>
<path style="fill-rule:nonzero;fill:rgb(100%,100%,100%);fill-opacity:1;stroke-width:1.5;stroke-linecap:round;stroke-linejoin:round;stroke:rgb(0%,0%,0%);stroke-opacity:1;stroke-miterlimit:10;" d="M 209.296875 478.636719 L 209.277344 478.011719 L 209.21875 477.390625 L 209.121094 476.773438 L 208.988281 476.164063 L 208.8125 475.566406 L 208.601563 474.980469 L 208.351563 474.40625 L 208.070313 473.851563 L 207.753906 473.3125 L 207.402344 472.796875 L 207.019531 472.304688 L 206.605469 471.835938 L 206.164063 471.394531 L 205.695313 470.980469 L 205.203125 470.597656 L 204.6875 470.246094 L 204.148438 469.929688 L 203.59375 469.648438 L 203.019531 469.398438 L 202.433594 469.1875 L 201.835938 469.011719 L 201.226563 468.878906 L 200.609375 468.78125 L 199.988281 468.722656 L 199.363281 468.703125 L 198.738281 468.722656 L 198.117188 468.78125 L 197.5 468.878906 L 196.890625 469.011719 L 196.292969 469.1875 L 195.707031 469.398438 L 195.132813 469.648438 L 194.578125 469.929688 L 194.039063 470.246094 L 193.523438 470.597656 L 193.03125 470.980469 L 192.5625 471.394531 L 192.121094 471.835938 L 191.707031 472.304688 L 191.324219 472.796875 L 190.972656 473.3125 L 190.65625 473.851563 L 190.375 474.40625 L 190.125 474.980469 L 189.914063 475.566406 L 189.738281 476.164063 L 189.605469 476.773438 L 189.507813 477.390625 L 189.445313 478.011719 L 189.425781 478.636719 L 189.445313 479.261719 L 189.507813 479.882813 L 189.605469 480.5 L 189.738281 481.109375 L 189.914063 481.707031 L 190.125 482.292969 L 190.375 482.867188 L 190.65625 483.421875 L 190.972656 483.960938 L 191.324219 484.476563 L 191.707031 484.96875 L 192.121094 485.4375 L 192.5625 485.878906 L 193.03125 486.292969 L 193.523438 486.675781 L 194.039063 487.027344 L 194.578125 487.34375 L 195.132813 487.625 L 195.707031 487.875 L 196.292969 488.085938 L 196.890625 488.261719 L 197.5 488.394531 L 198.117188 488.492188 L 198.738281 488.554688 L 199.363281 488.574219 L 199.988281 488.554688 L 200.609375 488.492188 L 201.226563 488.394531 L 201.835938 488.261719 L 202.433594 488.085938 L 203.019531 487.875 L 203.59375 487.625 L 204.148438 487.34375 L 204.6875 487.027344 L 205.203125 486.675781 L 205.695313 486.292969 L 206.164063 485.878906 L 206.605469 485.4375 L 207.019531 484.96875 L 207.402344 484.476563 L 207.753906 483.960938 L 208.070313 483.421875 L 208.351563 482.867188 L 208.601563 482.292969 L 208.8125 481.707031 L 208.988281 481.109375 L 209.121094 480.5 L 209.21875 479.882813 L 209.277344 479.261719 Z M 209.296875 478.636719 "/>
<path style="fill:none;stroke-width:2.25;stroke-linecap:round;stroke-linejoin:round;stroke:rgb(0%,0%,0%);stroke-opacity:1;stroke-miterlimit:10;" d="M 522.058594 399.152344 L 446.464844 454.074219 L 475.335938 542.941406 L 568.777344 542.941406 L 597.652344 454.074219 Z M 522.058594 399.152344 "/>
<path style="fill:none;stroke-width:2.25;stroke-linecap:round;stroke-linejoin:round;stroke:rgb(0%,0%,0%);stroke-opacity:1;stroke-miterlimit:10;" d="M 469.367188 478.636719 L 469.425781 481.144531 L 469.605469 483.644531 L 469.902344 486.136719 L 470.320313 488.609375 L 470.851563 491.058594 L 471.5 493.480469 L 472.265625 495.871094 L 473.140625 498.21875 L 474.128906 500.527344 L 475.222656 502.78125 L 476.425781 504.980469 L 477.730469 507.125 L 479.136719 509.199219 L 480.640625 511.207031 L 482.234375 513.140625 L 483.921875 514.996094 L 485.695313 516.769531 L 487.550781 518.457031 L 489.484375 520.054688 L 491.492188 521.558594 L 493.570313 522.964844 L 495.710938 524.269531 L 497.914063 525.46875 L 500.167969 526.566406 L 502.472656 527.554688 L 504.824219 528.429688 L 507.210938 529.195313 L 509.636719 529.84375 L 512.085938 530.375 L 514.558594 530.792969 L 517.050781 531.089844 L 519.550781 531.269531 L 522.058594 531.328125 L 524.566406 531.269531 L 527.066406 531.089844 L 529.554688 530.792969 L 532.03125 530.375 L 534.480469 529.84375 L 536.902344 529.195313 L 539.292969 528.429688 L 541.640625 527.554688 L 543.945313 526.566406 L 546.203125 525.46875 L 548.402344 524.269531 L 550.542969 522.964844 L 552.621094 521.558594 L 554.628906 520.054688 L 556.5625 518.457031 L 558.417969 516.769531 L 560.191406 514.996094 L 561.878906 513.140625 L 563.476563 511.207031 L 564.980469 509.199219 L 566.382813 507.125 L 567.691406 504.980469 L 568.890625 502.78125 L 569.988281 500.527344 L 570.972656 498.21875 L 571.851563 495.871094 L 572.613281 493.480469 L 573.261719 491.058594 L 573.796875 488.609375 L 574.210938 486.136719 L 574.511719 483.644531 L 574.6875 481.144531 L 574.75 478.636719 L 574.6875 476.128906 L 574.511719 473.628906 L 574.210938 471.136719 L 573.796875 468.664063 L 573.261719 466.214844 L 572.613281 463.792969 L 571.851563 461.402344 L 570.972656 459.054688 L 569.988281 456.75 L 568.890625 454.492188 L 567.691406 452.292969 L 566.382813 450.148438 L 564.980469 448.074219 L 563.476563 446.066406 L 561.878906 444.132813 L 560.191406 442.277344 L 558.417969 440.503906 L 556.5625 438.816406 L 554.628906 437.21875 L 552.621094 435.714844 L 550.542969 434.308594 L 548.402344 433.003906 L 546.203125 431.804688 L 543.945313 430.707031 L 541.640625 429.71875 L 539.292969 428.84375 L 536.902344 428.078125 L 534.480469 427.429688 L 532.03125 426.898438 L 529.554688 426.480469 L 527.066406 426.183594 L 524.566406 426.003906 L 522.058594 425.945313 L 522.058594 478.636719 Z M 469.367188 478.636719 "/>
<path style="fill-rule:nonzero;fill:rgb(74.509804%,74.509804%,74.509804%);fill-opacity:1;stroke-width:1.5;stroke-linecap:round;stroke-linejoin:round;stroke:rgb(0%,0%,0%);stroke-opacity:1;stroke-miterlimit:10;" d="M 531.992188 478.636719 L 531.972656 478.011719 L 531.914063 477.390625 L 531.816406 476.773438 L 531.679688 476.164063 L 531.507813 475.566406 L 531.296875 474.980469 L 531.046875 474.40625 L 530.765625 473.851563 L 530.445313 473.3125 L 530.09375 472.796875 L 529.714844 472.304688 L 529.300781 471.835938 L 528.859375 471.394531 L 528.390625 470.980469 L 527.898438 470.597656 L 527.382813 470.246094 L 526.84375 469.929688 L 526.289063 469.648438 L 525.714844 469.398438 L 525.128906 469.1875 L 524.527344 469.011719 L 523.917969 468.878906 L 523.304688 468.78125 L 522.679688 468.722656 L 522.058594 468.703125 L 521.433594 468.722656 L 520.8125 468.78125 L 520.195313 468.878906 L 519.585938 469.011719 L 518.988281 469.1875 L 518.398438 469.398438 L 517.828125 469.648438 L 517.269531 469.929688 L 516.734375 470.246094 L 516.21875 470.597656 L 515.722656 470.980469 L 515.257813 471.394531 L 514.816406 471.835938 L 514.402344 472.304688 L 514.019531 472.796875 L 513.667969 473.3125 L 513.351563 473.851563 L 513.066406 474.40625 L 512.820313 474.980469 L 512.609375 475.566406 L 512.433594 476.164063 L 512.296875 476.773438 L 512.199219 477.390625 L 512.140625 478.011719 L 512.121094 478.636719 L 512.140625 479.261719 L 512.199219 479.882813 L 512.296875 480.5 L 512.433594 481.109375 L 512.609375 481.707031 L 512.820313 482.292969 L 513.066406 482.867188 L 513.351563 483.421875 L 513.667969 483.960938 L 514.019531 484.476563 L 514.402344 484.96875 L 514.816406 485.4375 L 515.257813 485.878906 L 515.722656 486.292969 L 516.21875 486.675781 L 516.734375 487.027344 L 517.269531 487.34375 L 517.828125 487.625 L 518.398438 487.875 L 518.988281 488.085938 L 519.585938 488.261719 L 520.195313 488.394531 L 520.8125 488.492188 L 521.433594 488.554688 L 522.058594 488.574219 L 522.679688 488.554688 L 523.304688 488.492188 L 523.917969 488.394531 L 524.527344 488.261719 L 525.128906 488.085938 L 525.714844 487.875 L 526.289063 487.625 L 526.84375 487.34375 L 527.382813 487.027344 L 527.898438 486.675781 L 528.390625 486.292969 L 528.859375 485.878906 L 529.300781 485.4375 L 529.714844 484.96875 L 530.09375 484.476563 L 530.445313 483.960938 L 530.765625 483.421875 L 531.046875 482.867188 L 531.296875 482.292969 L 531.507813 481.707031 L 531.679688 481.109375 L 531.816406 480.5 L 531.914063 479.882813 L 531.972656 479.261719 Z M 531.992188 478.636719 "/>
</g>
</svg>
