<?xml version="1.0" encoding="UTF-8"?>
<svg xmlns="http://www.w3.org/2000/svg" xmlns:xlink="http://www.w3.org/1999/xlink" width="504pt" height="504pt" viewBox="0 0 504 504" version="1.1">
<g id="surface26">
<rect x="0" y="0" width="504" height="504" style="fill:rgb(100%,100%,100%);fill-opacity:1;stroke:none;"/>
<path style="fill:none;stroke-width:2.25;stroke-linecap:round;stroke-linejoin:round;stroke:rgb(0%,0%,0%);stroke-opacity:1;stroke-miterlimit:10;" d="M 73.71875 122.433594 L 157.007813 122.433594 L 73.71875 122.433594 "/>
<path style="fill:none;stroke-width:2.25;stroke-linecap:round;stroke-linejoin:round;stroke:rgb(0%,0%,0%);stroke-opacity:1;stroke-miterlimit:10;" d="M 144.808594 49.800781 L 144.339844 49.339844 L 143.859375 48.882813 L 143.375 48.433594 L 142.882813 47.992188 L 142.382813 47.5625 L 141.875 47.136719 L 141.363281 46.71875 L 140.84375 46.3125 L 140.320313 45.910156 L 139.785156 45.519531 L 139.25 45.136719 L 138.703125 44.761719 L 138.152344 44.394531 L 137.597656 44.039063 L 137.035156 43.691406 L 136.46875 43.351563 L 135.898438 43.019531 L 135.320313 42.699219 L 134.738281 42.386719 L 134.152344 42.085938 L 133.558594 41.789063 L 132.960938 41.507813 L 132.359375 41.234375 L 131.753906 40.96875 L 131.144531 40.710938 L 130.53125 40.464844 L 129.914063 40.230469 L 129.296875 40.003906 L 128.671875 39.789063 L 128.042969 39.582031 L 127.410156 39.386719 L 126.777344 39.199219 L 126.140625 39.023438 L 125.5 38.859375 L 124.859375 38.703125 L 124.214844 38.558594 L 123.566406 38.421875 L 122.917969 38.296875 L 122.269531 38.183594 L 121.617188 38.078125 L 120.960938 37.984375 L 120.308594 37.898438 L 119.648438 37.828125 L 118.992188 37.765625 L 118.332031 37.710938 L 117.675781 37.667969 L 117.015625 37.636719 L 116.355469 37.617188 L 115.695313 37.605469 L 115.03125 37.605469 L 114.371094 37.617188 L 113.710938 37.636719 L 113.050781 37.667969 L 112.390625 37.710938 L 111.734375 37.765625 L 111.074219 37.828125 L 110.417969 37.898438 L 109.765625 37.984375 L 109.109375 38.078125 L 108.457031 38.183594 L 107.808594 38.296875 L 107.15625 38.421875 L 106.511719 38.558594 L 105.867188 38.703125 L 105.226563 38.859375 L 104.585938 39.023438 L 103.949219 39.199219 L 103.316406 39.386719 L 102.683594 39.582031 L 102.054688 39.789063 L 101.429688 40.003906 L 100.8125 40.230469 L 100.191406 40.464844 L 99.578125 40.710938 L 98.96875 40.96875 L 98.367188 41.234375 L 97.765625 41.507813 L 97.167969 41.789063 L 96.574219 42.085938 L 95.988281 42.386719 L 95.40625 42.699219 L 94.828125 43.019531 L 94.257813 43.351563 L 93.691406 43.691406 L 93.128906 44.039063 L 92.570313 44.394531 L 92.023438 44.761719 L 91.476563 45.136719 L 90.941406 45.519531 L 90.40625 45.910156 L 89.882813 46.3125 L 89.363281 46.71875 L 88.851563 47.136719 L 88.34375 47.5625 L 87.84375 47.992188 L 87.351563 48.433594 L 86.867188 48.882813 L 86.386719 49.339844 L 85.917969 49.800781 L 115.363281 79.246094 L 144.808594 49.800781 "/>
<path style="fill:none;stroke-width:2.25;stroke-linecap:round;stroke-linejoin:round;stroke:rgb(0%,0%,0%);stroke-opacity:1;stroke-miterlimit:10;" d="M 85.917969 49.800781 L 85.453125 50.273438 L 84.996094 50.75 L 84.550781 51.238281 L 84.109375 51.730469 L 83.675781 52.226563 L 83.25 52.734375 L 82.835938 53.246094 L 82.425781 53.765625 L 82.027344 54.292969 L 81.632813 54.824219 L 81.25 55.363281 L 80.875 55.90625 L 80.511719 56.457031 L 80.152344 57.011719 L 79.804688 57.574219 L 79.464844 58.140625 L 79.136719 58.714844 L 78.8125 59.289063 L 78.503906 59.875 L 78.199219 60.460938 L 77.90625 61.050781 L 77.621094 61.648438 L 77.347656 62.25 L 77.082031 62.855469 L 76.828125 63.464844 L 76.582031 64.078125 L 76.347656 64.695313 L 76.121094 65.316406 L 75.902344 65.941406 L 75.699219 66.570313 L 75.5 67.199219 L 75.316406 67.832031 L 75.140625 68.46875 L 74.972656 69.109375 L 74.816406 69.75 L 74.671875 70.394531 L 74.535156 71.042969 L 74.410156 71.691406 L 74.296875 72.34375 L 74.191406 72.996094 L 74.097656 73.648438 L 74.015625 74.304688 L 73.941406 74.960938 L 73.878906 75.617188 L 73.828125 76.277344 L 73.785156 76.9375 L 73.753906 77.597656 L 73.730469 78.257813 L 73.722656 78.917969 L 73.722656 79.578125 L 73.730469 80.238281 L 73.753906 80.898438 L 73.785156 81.558594 L 73.828125 82.21875 L 73.878906 82.878906 L 73.941406 83.535156 L 74.015625 84.191406 L 74.097656 84.847656 L 74.191406 85.5 L 74.296875 86.152344 L 74.410156 86.804688 L 74.535156 87.453125 L 74.671875 88.101563 L 74.816406 88.746094 L 74.972656 89.386719 L 75.140625 90.027344 L 75.316406 90.664063 L 75.5 91.296875 L 75.699219 91.925781 L 75.902344 92.554688 L 76.121094 93.179688 L 76.347656 93.800781 L 76.582031 94.417969 L 76.828125 95.03125 L 77.082031 95.640625 L 77.347656 96.246094 L 77.621094 96.847656 L 77.90625 97.445313 L 78.199219 98.035156 L 78.503906 98.621094 L 78.8125 99.207031 L 79.136719 99.78125 L 79.464844 100.355469 L 79.804688 100.921875 L 80.152344 101.484375 L 80.511719 102.039063 L 80.875 102.589844 L 81.25 103.132813 L 81.632813 103.671875 L 82.027344 104.203125 L 82.425781 104.730469 L 82.835938 105.25 L 83.25 105.761719 L 83.675781 106.269531 L 84.109375 106.765625 L 84.550781 107.257813 L 84.996094 107.746094 L 85.453125 108.222656 L 85.917969 108.695313 L 115.363281 79.246094 L 85.917969 49.800781 "/>
<path style="fill:none;stroke-width:2.25;stroke-linecap:round;stroke-linejoin:round;stroke:rgb(0%,0%,0%);stroke-opacity:1;stroke-miterlimit:10;" d="M 144.808594 108.695313 L 145.273438 108.222656 L 145.726563 107.746094 L 146.175781 107.257813 L 146.617188 106.765625 L 147.050781 106.269531 L 147.476563 105.761719 L 147.890625 105.25 L 148.300781 104.730469 L 148.699219 104.203125 L 149.089844 103.671875 L 149.476563 103.132813 L 149.847656 102.589844 L 150.214844 102.039063 L 150.574219 101.484375 L 150.921875 100.921875 L 151.261719 100.355469 L 151.589844 99.78125 L 151.914063 99.207031 L 152.222656 98.621094 L 152.527344 98.035156 L 152.820313 97.445313 L 153.105469 96.847656 L 153.378906 96.246094 L 153.644531 95.640625 L 153.898438 95.03125 L 154.144531 94.417969 L 154.378906 93.800781 L 154.605469 93.179688 L 154.824219 92.554688 L 155.027344 91.925781 L 155.226563 91.296875 L 155.410156 90.664063 L 155.585938 90.027344 L 155.753906 89.386719 L 155.910156 88.746094 L 156.054688 88.101563 L 156.191406 87.453125 L 156.316406 86.804688 L 156.429688 86.152344 L 156.535156 85.5 L 156.628906 84.847656 L 156.710938 84.191406 L 156.785156 83.535156 L 156.847656 82.878906 L 156.898438 82.21875 L 156.941406 81.558594 L 156.972656 80.898438 L 156.992188 80.238281 L 157.003906 79.578125 L 157.003906 78.917969 L 156.992188 78.257813 L 156.972656 77.597656 L 156.941406 76.9375 L 156.898438 76.277344 L 156.847656 75.617188 L 156.785156 74.960938 L 156.710938 74.304688 L 156.628906 73.648438 L 156.535156 72.996094 L 156.429688 72.34375 L 156.316406 71.691406 L 156.191406 71.042969 L 156.054688 70.394531 L 155.910156 69.75 L 155.753906 69.109375 L 155.585938 68.46875 L 155.410156 67.832031 L 155.226563 67.199219 L 155.027344 66.570313 L 154.824219 65.941406 L 154.605469 65.316406 L 154.378906 64.695313 L 154.144531 64.078125 L 153.898438 63.464844 L 153.644531 62.855469 L 153.378906 62.25 L 153.105469 61.648438 L 152.820313 61.050781 L 152.527344 60.460938 L 152.222656 59.875 L 151.914063 59.289063 L 151.589844 58.714844 L 151.261719 58.140625 L 150.921875 57.574219 L 150.574219 57.011719 L 150.214844 56.457031 L 149.847656 55.90625 L 149.476563 55.363281 L 149.089844 54.824219 L 148.699219 54.292969 L 148.300781 53.765625 L 147.890625 53.246094 L 147.476563 52.734375 L 147.050781 52.226563 L 146.617188 51.730469 L 146.175781 51.238281 L 145.726563 50.75 L 145.273438 50.273438 L 144.808594 49.800781 L 115.363281 79.246094 L 144.808594 108.695313 "/>
<path style="fill:none;stroke-width:2.25;stroke-linecap:round;stroke-linejoin:round;stroke:rgb(0%,0%,0%);stroke-opacity:1;stroke-miterlimit:10;" d="M 313.246094 120.890625 L 313.246094 37.605469 L 313.246094 120.890625 "/>
<path style="fill:none;stroke-width:2.25;stroke-linecap:round;stroke-linejoin:round;stroke:rgb(0%,0%,0%);stroke-opacity:1;stroke-miterlimit:10;" d="M 299.503906 49.800781 L 299.03125 49.339844 L 298.554688 48.882813 L 298.070313 48.433594 L 297.578125 47.992188 L 297.078125 47.5625 L 296.570313 47.136719 L 296.058594 46.71875 L 295.539063 46.3125 L 295.011719 45.910156 L 294.480469 45.519531 L 293.941406 45.136719 L 293.398438 44.761719 L 292.847656 44.394531 L 292.292969 44.039063 L 291.730469 43.691406 L 291.164063 43.351563 L 290.59375 43.019531 L 290.015625 42.699219 L 289.433594 42.386719 L 288.84375 42.085938 L 288.253906 41.789063 L 287.65625 41.507813 L 287.054688 41.234375 L 286.449219 40.96875 L 285.839844 40.710938 L 285.226563 40.464844 L 284.609375 40.230469 L 283.988281 40.003906 L 283.363281 39.789063 L 282.738281 39.582031 L 282.105469 39.386719 L 281.472656 39.199219 L 280.835938 39.023438 L 280.195313 38.859375 L 279.554688 38.703125 L 278.910156 38.558594 L 278.261719 38.421875 L 277.613281 38.296875 L 276.964844 38.183594 L 276.3125 38.078125 L 275.65625 37.984375 L 275 37.898438 L 274.34375 37.828125 L 273.6875 37.765625 L 273.027344 37.710938 L 272.367188 37.667969 L 271.710938 37.636719 L 271.046875 37.617188 L 270.386719 37.605469 L 269.726563 37.605469 L 269.066406 37.617188 L 268.40625 37.636719 L 267.746094 37.667969 L 267.085938 37.710938 L 266.429688 37.765625 L 265.769531 37.828125 L 265.113281 37.898438 L 264.457031 37.984375 L 263.804688 38.078125 L 263.152344 38.183594 L 262.5 38.296875 L 261.851563 38.421875 L 261.207031 38.558594 L 260.5625 38.703125 L 259.917969 38.859375 L 259.28125 39.023438 L 258.644531 39.199219 L 258.007813 39.386719 L 257.378906 39.582031 L 256.75 39.789063 L 256.125 40.003906 L 255.503906 40.230469 L 254.886719 40.464844 L 254.273438 40.710938 L 253.664063 40.96875 L 253.058594 41.234375 L 252.457031 41.507813 L 251.863281 41.789063 L 251.269531 42.085938 L 250.683594 42.386719 L 250.101563 42.699219 L 249.523438 43.019531 L 248.949219 43.351563 L 248.382813 43.691406 L 247.824219 44.039063 L 247.265625 44.394531 L 246.714844 44.761719 L 246.171875 45.136719 L 245.632813 45.519531 L 245.101563 45.910156 L 244.578125 46.3125 L 244.058594 46.71875 L 243.542969 47.136719 L 243.039063 47.5625 L 242.539063 47.992188 L 242.046875 48.433594 L 241.5625 48.882813 L 241.082031 49.339844 L 240.613281 49.800781 L 270.058594 79.246094 L 299.503906 49.800781 "/>
<path style="fill:none;stroke-width:2.25;stroke-linecap:round;stroke-linejoin:round;stroke:rgb(0%,0%,0%);stroke-opacity:1;stroke-miterlimit:10;" d="M 240.613281 49.800781 L 240.148438 50.273438 L 239.691406 50.75 L 239.242188 51.238281 L 238.804688 51.730469 L 238.371094 52.226563 L 237.945313 52.734375 L 237.53125 53.246094 L 237.121094 53.765625 L 236.722656 54.292969 L 236.328125 54.824219 L 235.945313 55.363281 L 235.570313 55.90625 L 235.207031 56.457031 L 234.847656 57.011719 L 234.5 57.574219 L 234.160156 58.140625 L 233.828125 58.714844 L 233.507813 59.289063 L 233.195313 59.875 L 232.894531 60.460938 L 232.601563 61.050781 L 232.316406 61.648438 L 232.042969 62.25 L 231.777344 62.855469 L 231.523438 63.464844 L 231.277344 64.078125 L 231.039063 64.695313 L 230.816406 65.316406 L 230.597656 65.941406 L 230.390625 66.570313 L 230.195313 67.199219 L 230.011719 67.832031 L 229.832031 68.46875 L 229.667969 69.109375 L 229.511719 69.75 L 229.367188 70.394531 L 229.230469 71.042969 L 229.105469 71.691406 L 228.992188 72.34375 L 228.886719 72.996094 L 228.792969 73.648438 L 228.710938 74.304688 L 228.636719 74.960938 L 228.574219 75.617188 L 228.519531 76.277344 L 228.480469 76.9375 L 228.449219 77.597656 L 228.425781 78.257813 L 228.417969 78.917969 L 228.417969 79.578125 L 228.425781 80.238281 L 228.449219 80.898438 L 228.480469 81.558594 L 228.519531 82.21875 L 228.574219 82.878906 L 228.636719 83.535156 L 228.710938 84.191406 L 228.792969 84.847656 L 228.886719 85.5 L 228.992188 86.152344 L 229.105469 86.804688 L 229.230469 87.453125 L 229.367188 88.101563 L 229.511719 88.746094 L 229.667969 89.386719 L 229.832031 90.027344 L 230.011719 90.664063 L 230.195313 91.296875 L 230.390625 91.925781 L 230.597656 92.554688 L 230.816406 93.179688 L 231.039063 93.800781 L 231.277344 94.417969 L 231.523438 95.03125 L 231.777344 95.640625 L 232.042969 96.246094 L 232.316406 96.847656 L 232.601563 97.445313 L 232.894531 98.035156 L 233.195313 98.621094 L 233.507813 99.207031 L 233.828125 99.78125 L 234.160156 100.355469 L 234.5 100.921875 L 234.847656 101.484375 L 235.207031 102.039063 L 235.570313 102.589844 L 235.945313 103.132813 L 236.328125 103.671875 L 236.722656 104.203125 L 237.121094 104.730469 L 237.53125 105.25 L 237.945313 105.761719 L 238.371094 106.269531 L 238.804688 106.765625 L 239.242188 107.257813 L 239.691406 107.746094 L 240.148438 108.222656 L 240.613281 108.695313 L 270.058594 79.246094 L 240.613281 49.800781 "/>
<path style="fill:none;stroke-width:2.25;stroke-linecap:round;stroke-linejoin:round;stroke:rgb(0%,0%,0%);stroke-opacity:1;stroke-miterlimit:10;" d="M 240.613281 108.695313 L 241.082031 109.15625 L 241.5625 109.613281 L 242.046875 110.0625 L 242.539063 110.503906 L 243.039063 110.933594 L 243.542969 111.359375 L 244.058594 111.777344 L 244.578125 112.183594 L 245.101563 112.585938 L 245.632813 112.976563 L 246.171875 113.359375 L 246.714844 113.734375 L 247.265625 114.101563 L 247.824219 114.457031 L 248.382813 114.804688 L 248.949219 115.144531 L 249.523438 115.476563 L 250.101563 115.796875 L 250.683594 116.109375 L 251.269531 116.410156 L 251.863281 116.707031 L 252.457031 116.988281 L 253.058594 117.261719 L 253.664063 117.527344 L 254.273438 117.785156 L 254.886719 118.03125 L 255.503906 118.265625 L 256.125 118.492188 L 256.75 118.707031 L 257.378906 118.914063 L 258.007813 119.109375 L 258.644531 119.296875 L 259.28125 119.472656 L 259.917969 119.636719 L 260.5625 119.792969 L 261.207031 119.9375 L 261.851563 120.074219 L 262.5 120.199219 L 263.152344 120.3125 L 263.804688 120.417969 L 264.457031 120.511719 L 265.113281 120.597656 L 265.769531 120.667969 L 266.429688 120.730469 L 267.085938 120.785156 L 267.746094 120.828125 L 268.40625 120.859375 L 269.066406 120.878906 L 269.726563 120.890625 L 270.386719 120.890625 L 271.046875 120.878906 L 271.710938 120.859375 L 272.367188 120.828125 L 273.027344 120.785156 L 273.6875 120.730469 L 274.34375 120.667969 L 275 120.597656 L 275.65625 120.511719 L 276.3125 120.417969 L 276.964844 120.3125 L 277.613281 120.199219 L 278.261719 120.074219 L 278.910156 119.9375 L 279.554688 119.792969 L 280.195313 119.636719 L 280.835938 119.472656 L 281.472656 119.296875 L 282.105469 119.109375 L 282.738281 118.914063 L 283.363281 118.707031 L 283.988281 118.492188 L 284.609375 118.265625 L 285.226563 118.03125 L 285.839844 117.785156 L 286.449219 117.527344 L 287.054688 117.261719 L 287.65625 116.988281 L 288.253906 116.707031 L 288.84375 116.410156 L 289.433594 116.109375 L 290.015625 115.796875 L 290.59375 115.476563 L 291.164063 115.144531 L 291.730469 114.804688 L 292.292969 114.457031 L 292.847656 114.101563 L 293.398438 113.734375 L 293.941406 113.359375 L 294.480469 112.976563 L 295.011719 112.585938 L 295.539063 112.183594 L 296.058594 111.777344 L 296.570313 111.359375 L 297.078125 110.933594 L 297.578125 110.503906 L 298.070313 110.0625 L 298.554688 109.613281 L 299.03125 109.15625 L 299.503906 108.695313 L 270.058594 79.246094 L 240.613281 108.695313 "/>
<path style="fill:none;stroke-width:2.25;stroke-linecap:round;stroke-linejoin:round;stroke:rgb(0%,0%,0%);stroke-opacity:1;stroke-miterlimit:10;" d="M 383.109375 122.433594 L 466.394531 122.433594 L 383.109375 122.433594 "/>
<path style="fill:none;stroke-width:2.25;stroke-linecap:round;stroke-linejoin:round;stroke:rgb(0%,0%,0%);stroke-opacity:1;stroke-miterlimit:10;" d="M 467.9375 120.890625 L 467.9375 37.605469 L 467.9375 120.890625 "/>
<path style="fill:none;stroke-width:2.25;stroke-linecap:round;stroke-linejoin:round;stroke:rgb(0%,0%,0%);stroke-opacity:1;stroke-miterlimit:10;" d="M 454.199219 49.800781 L 453.726563 49.339844 L 453.25 48.882813 L 452.761719 48.433594 L 452.269531 47.992188 L 451.773438 47.5625 L 451.265625 47.136719 L 450.753906 46.71875 L 450.234375 46.3125 L 449.707031 45.910156 L 449.175781 45.519531 L 448.636719 45.136719 L 448.09375 44.761719 L 447.542969 44.394531 L 446.988281 44.039063 L 446.425781 43.691406 L 445.859375 43.351563 L 445.285156 43.019531 L 444.710938 42.699219 L 444.125 42.386719 L 443.539063 42.085938 L 442.949219 41.789063 L 442.351563 41.507813 L 441.75 41.234375 L 441.144531 40.96875 L 440.535156 40.710938 L 439.921875 40.464844 L 439.304688 40.230469 L 438.683594 40.003906 L 438.058594 39.789063 L 437.429688 39.582031 L 436.800781 39.386719 L 436.167969 39.199219 L 435.53125 39.023438 L 434.890625 38.859375 L 434.25 38.703125 L 433.605469 38.558594 L 432.957031 38.421875 L 432.308594 38.296875 L 431.65625 38.183594 L 431.003906 38.078125 L 430.351563 37.984375 L 429.695313 37.898438 L 429.039063 37.828125 L 428.382813 37.765625 L 427.722656 37.710938 L 427.0625 37.667969 L 426.402344 37.636719 L 425.742188 37.617188 L 425.082031 37.605469 L 424.421875 37.605469 L 423.761719 37.617188 L 423.101563 37.636719 L 422.441406 37.667969 L 421.78125 37.710938 L 421.121094 37.765625 L 420.464844 37.828125 L 419.808594 37.898438 L 419.152344 37.984375 L 418.5 38.078125 L 417.847656 38.183594 L 417.195313 38.296875 L 416.546875 38.421875 L 415.898438 38.558594 L 415.253906 38.703125 L 414.613281 38.859375 L 413.972656 39.023438 L 413.335938 39.199219 L 412.703125 39.386719 L 412.074219 39.582031 L 411.445313 39.789063 L 410.820313 40.003906 L 410.199219 40.230469 L 409.582031 40.464844 L 408.96875 40.710938 L 408.359375 40.96875 L 407.753906 41.234375 L 407.152344 41.507813 L 406.554688 41.789063 L 405.964844 42.085938 L 405.378906 42.386719 L 404.792969 42.699219 L 404.21875 43.019531 L 403.644531 43.351563 L 403.078125 43.691406 L 402.515625 44.039063 L 401.960938 44.394531 L 401.410156 44.761719 L 400.867188 45.136719 L 400.328125 45.519531 L 399.796875 45.910156 L 399.269531 46.3125 L 398.75 46.71875 L 398.238281 47.136719 L 397.730469 47.5625 L 397.234375 47.992188 L 396.742188 48.433594 L 396.253906 48.882813 L 395.777344 49.339844 L 395.304688 49.800781 L 424.753906 79.246094 L 454.199219 49.800781 "/>
<path style="fill:none;stroke-width:2.25;stroke-linecap:round;stroke-linejoin:round;stroke:rgb(0%,0%,0%);stroke-opacity:1;stroke-miterlimit:10;" d="M 395.304688 49.800781 L 394.84375 50.273438 L 394.386719 50.75 L 393.9375 51.238281 L 393.496094 51.730469 L 393.066406 52.226563 L 392.640625 52.734375 L 392.222656 53.246094 L 391.816406 53.765625 L 391.414063 54.292969 L 391.023438 54.824219 L 390.640625 55.363281 L 390.265625 55.90625 L 389.898438 56.457031 L 389.542969 57.011719 L 389.195313 57.574219 L 388.855469 58.140625 L 388.523438 58.714844 L 388.203125 59.289063 L 387.890625 59.875 L 387.589844 60.460938 L 387.292969 61.050781 L 387.011719 61.648438 L 386.738281 62.25 L 386.472656 62.855469 L 386.214844 63.464844 L 385.96875 64.078125 L 385.734375 64.695313 L 385.507813 65.316406 L 385.292969 65.941406 L 385.085938 66.570313 L 384.890625 67.199219 L 384.703125 67.832031 L 384.527344 68.46875 L 384.363281 69.109375 L 384.207031 69.75 L 384.0625 70.394531 L 383.925781 71.042969 L 383.800781 71.691406 L 383.6875 72.34375 L 383.582031 72.996094 L 383.488281 73.648438 L 383.402344 74.304688 L 383.332031 74.960938 L 383.269531 75.617188 L 383.214844 76.277344 L 383.171875 76.9375 L 383.140625 77.597656 L 383.121094 78.257813 L 383.109375 78.917969 L 383.109375 79.578125 L 383.121094 80.238281 L 383.140625 80.898438 L 383.171875 81.558594 L 383.214844 82.21875 L 383.269531 82.878906 L 383.332031 83.535156 L 383.402344 84.191406 L 383.488281 84.847656 L 383.582031 85.5 L 383.6875 86.152344 L 383.800781 86.804688 L 383.925781 87.453125 L 384.0625 88.101563 L 384.207031 88.746094 L 384.363281 89.386719 L 384.527344 90.027344 L 384.703125 90.664063 L 384.890625 91.296875 L 385.085938 91.925781 L 385.292969 92.554688 L 385.507813 93.179688 L 385.734375 93.800781 L 385.96875 94.417969 L 386.214844 95.03125 L 386.472656 95.640625 L 386.738281 96.246094 L 387.011719 96.847656 L 387.292969 97.445313 L 387.589844 98.035156 L 387.890625 98.621094 L 388.203125 99.207031 L 388.523438 99.78125 L 388.855469 100.355469 L 389.195313 100.921875 L 389.542969 101.484375 L 389.898438 102.039063 L 390.265625 102.589844 L 390.640625 103.132813 L 391.023438 103.671875 L 391.414063 104.203125 L 391.816406 104.730469 L 392.222656 105.25 L 392.640625 105.761719 L 393.066406 106.269531 L 393.496094 106.765625 L 393.9375 107.257813 L 394.386719 107.746094 L 394.84375 108.222656 L 395.304688 108.695313 L 424.753906 79.246094 L 395.304688 49.800781 "/>
<path style="fill:none;stroke-width:2.25;stroke-linecap:round;stroke-linejoin:round;stroke:rgb(0%,0%,0%);stroke-opacity:1;stroke-miterlimit:10;" d="M 73.71875 190.753906 L 157.007813 190.753906 L 73.71875 190.753906 "/>
<path style="fill:none;stroke-width:2.25;stroke-linecap:round;stroke-linejoin:round;stroke:rgb(0%,0%,0%);stroke-opacity:1;stroke-miterlimit:10;" d="M 144.808594 204.496094 L 144.339844 204.03125 L 143.859375 203.578125 L 143.375 203.128906 L 142.882813 202.6875 L 142.382813 202.253906 L 141.875 201.832031 L 141.363281 201.414063 L 140.84375 201.003906 L 140.320313 200.605469 L 139.785156 200.214844 L 139.25 199.832031 L 138.703125 199.457031 L 138.152344 199.089844 L 137.597656 198.734375 L 137.035156 198.382813 L 136.46875 198.046875 L 135.898438 197.714844 L 135.320313 197.394531 L 134.738281 197.082031 L 134.152344 196.777344 L 133.558594 196.484375 L 132.960938 196.203125 L 132.359375 195.925781 L 131.753906 195.660156 L 131.144531 195.40625 L 130.53125 195.160156 L 129.914063 194.925781 L 129.296875 194.699219 L 128.671875 194.484375 L 128.042969 194.277344 L 127.410156 194.082031 L 126.777344 193.894531 L 126.140625 193.71875 L 125.5 193.550781 L 124.859375 193.398438 L 124.214844 193.25 L 123.566406 193.117188 L 122.917969 192.992188 L 122.269531 192.875 L 121.617188 192.773438 L 120.960938 192.679688 L 120.308594 192.59375 L 119.648438 192.519531 L 118.992188 192.457031 L 118.332031 192.40625 L 117.675781 192.363281 L 117.015625 192.332031 L 116.355469 192.3125 L 115.695313 192.300781 L 115.03125 192.300781 L 114.371094 192.3125 L 113.710938 192.332031 L 113.050781 192.363281 L 112.390625 192.40625 L 111.734375 192.457031 L 111.074219 192.519531 L 110.417969 192.59375 L 109.765625 192.679688 L 109.109375 192.773438 L 108.457031 192.875 L 107.808594 192.992188 L 107.15625 193.117188 L 106.511719 193.25 L 105.867188 193.398438 L 105.226563 193.550781 L 104.585938 193.71875 L 103.949219 193.894531 L 103.316406 194.082031 L 102.683594 194.277344 L 102.054688 194.484375 L 101.429688 194.699219 L 100.8125 194.925781 L 100.191406 195.160156 L 99.578125 195.40625 L 98.96875 195.660156 L 98.367188 195.925781 L 97.765625 196.203125 L 97.167969 196.484375 L 96.574219 196.777344 L 95.988281 197.082031 L 95.40625 197.394531 L 94.828125 197.714844 L 94.257813 198.046875 L 93.691406 198.382813 L 93.128906 198.734375 L 92.570313 199.089844 L 92.023438 199.457031 L 91.476563 199.832031 L 90.941406 200.214844 L 90.40625 200.605469 L 89.882813 201.003906 L 89.363281 201.414063 L 88.851563 201.832031 L 88.34375 202.253906 L 87.84375 202.6875 L 87.351563 203.128906 L 86.867188 203.578125 L 86.386719 204.03125 L 85.917969 204.496094 L 115.363281 233.941406 L 144.808594 204.496094 "/>
<path style="fill:none;stroke-width:2.25;stroke-linecap:round;stroke-linejoin:round;stroke:rgb(0%,0%,0%);stroke-opacity:1;stroke-miterlimit:10;" d="M 85.917969 263.386719 L 86.386719 263.851563 L 86.867188 264.308594 L 87.351563 264.757813 L 87.84375 265.195313 L 88.34375 265.628906 L 88.851563 266.054688 L 89.363281 266.46875 L 89.882813 266.878906 L 90.40625 267.277344 L 90.941406 267.671875 L 91.476563 268.054688 L 92.023438 268.429688 L 92.570313 268.792969 L 93.128906 269.152344 L 93.691406 269.5 L 94.257813 269.839844 L 94.828125 270.171875 L 95.40625 270.492188 L 95.988281 270.804688 L 96.574219 271.105469 L 97.167969 271.398438 L 97.765625 271.683594 L 98.367188 271.957031 L 98.96875 272.222656 L 99.578125 272.476563 L 100.191406 272.722656 L 100.8125 272.960938 L 101.429688 273.183594 L 102.054688 273.402344 L 102.683594 273.609375 L 103.316406 273.804688 L 103.949219 273.988281 L 104.585938 274.167969 L 105.226563 274.332031 L 105.867188 274.488281 L 106.511719 274.632813 L 107.15625 274.769531 L 107.808594 274.894531 L 108.457031 275.007813 L 109.109375 275.113281 L 109.765625 275.207031 L 110.417969 275.289063 L 111.074219 275.363281 L 111.734375 275.425781 L 112.390625 275.480469 L 113.050781 275.519531 L 113.710938 275.550781 L 114.371094 275.574219 L 115.03125 275.582031 L 115.695313 275.582031 L 116.355469 275.574219 L 117.015625 275.550781 L 117.675781 275.519531 L 118.332031 275.480469 L 118.992188 275.425781 L 119.648438 275.363281 L 120.308594 275.289063 L 120.960938 275.207031 L 121.617188 275.113281 L 122.269531 275.007813 L 122.917969 274.894531 L 123.566406 274.769531 L 124.214844 274.632813 L 124.859375 274.488281 L 125.5 274.332031 L 126.140625 274.167969 L 126.777344 273.988281 L 127.410156 273.804688 L 128.042969 273.609375 L 128.671875 273.402344 L 129.296875 273.183594 L 129.914063 272.960938 L 130.53125 272.722656 L 131.144531 272.476563 L 131.753906 272.222656 L 132.359375 271.957031 L 132.960938 271.683594 L 133.558594 271.398438 L 134.152344 271.105469 L 134.738281 270.804688 L 135.320313 270.492188 L 135.898438 270.171875 L 136.46875 269.839844 L 137.035156 269.5 L 137.597656 269.152344 L 138.152344 268.792969 L 138.703125 268.429688 L 139.25 268.054688 L 139.785156 267.671875 L 140.320313 267.277344 L 140.84375 266.878906 L 141.363281 266.46875 L 141.875 266.054688 L 142.382813 265.628906 L 142.882813 265.195313 L 143.375 264.757813 L 143.859375 264.308594 L 144.339844 263.851563 L 144.808594 263.386719 L 115.363281 233.941406 L 85.917969 263.386719 "/>
<path style="fill:none;stroke-width:2.25;stroke-linecap:round;stroke-linejoin:round;stroke:rgb(0%,0%,0%);stroke-opacity:1;stroke-miterlimit:10;" d="M 144.808594 263.386719 L 145.273438 262.917969 L 145.726563 262.4375 L 146.175781 261.953125 L 146.617188 261.460938 L 147.050781 260.960938 L 147.476563 260.457031 L 147.890625 259.941406 L 148.300781 259.421875 L 148.699219 258.898438 L 149.089844 258.367188 L 149.476563 257.828125 L 149.847656 257.285156 L 150.214844 256.734375 L 150.574219 256.175781 L 150.921875 255.617188 L 151.261719 255.050781 L 151.589844 254.476563 L 151.914063 253.898438 L 152.222656 253.316406 L 152.527344 252.730469 L 152.820313 252.136719 L 153.105469 251.542969 L 153.378906 250.941406 L 153.644531 250.335938 L 153.898438 249.726563 L 154.144531 249.113281 L 154.378906 248.496094 L 154.605469 247.875 L 154.824219 247.25 L 155.027344 246.621094 L 155.226563 245.992188 L 155.410156 245.355469 L 155.585938 244.71875 L 155.753906 244.082031 L 155.910156 243.4375 L 156.054688 242.792969 L 156.191406 242.148438 L 156.316406 241.5 L 156.429688 240.847656 L 156.535156 240.195313 L 156.628906 239.542969 L 156.710938 238.886719 L 156.785156 238.230469 L 156.847656 237.570313 L 156.898438 236.914063 L 156.941406 236.253906 L 156.972656 235.59375 L 156.992188 234.933594 L 157.003906 234.273438 L 157.003906 233.613281 L 156.992188 232.953125 L 156.972656 232.289063 L 156.941406 231.632813 L 156.898438 230.972656 L 156.847656 230.3125 L 156.785156 229.65625 L 156.710938 229 L 156.628906 228.34375 L 156.535156 227.6875 L 156.429688 227.035156 L 156.316406 226.386719 L 156.191406 225.738281 L 156.054688 225.089844 L 155.910156 224.445313 L 155.753906 223.804688 L 155.585938 223.164063 L 155.410156 222.527344 L 155.226563 221.894531 L 155.027344 221.261719 L 154.824219 220.636719 L 154.605469 220.011719 L 154.378906 219.390625 L 154.144531 218.773438 L 153.898438 218.160156 L 153.644531 217.550781 L 153.378906 216.945313 L 153.105469 216.34375 L 152.820313 215.746094 L 152.527344 215.15625 L 152.222656 214.566406 L 151.914063 213.984375 L 151.589844 213.40625 L 151.261719 212.835938 L 150.921875 212.269531 L 150.574219 211.707031 L 150.214844 211.152344 L 149.847656 210.601563 L 149.476563 210.058594 L 149.089844 209.519531 L 148.699219 208.988281 L 148.300781 208.460938 L 147.890625 207.941406 L 147.476563 207.429688 L 147.050781 206.921875 L 146.617188 206.421875 L 146.175781 205.929688 L 145.726563 205.445313 L 145.273438 204.96875 L 144.808594 204.496094 L 115.363281 233.941406 L 144.808594 263.386719 "/>
<path style="fill:none;stroke-width:2.25;stroke-linecap:round;stroke-linejoin:round;stroke:rgb(0%,0%,0%);stroke-opacity:1;stroke-miterlimit:10;" d="M 226.871094 275.585938 L 226.871094 192.300781 L 226.871094 275.585938 "/>
<path style="fill:none;stroke-width:2.25;stroke-linecap:round;stroke-linejoin:round;stroke:rgb(0%,0%,0%);stroke-opacity:1;stroke-miterlimit:10;" d="M 299.503906 204.496094 L 299.03125 204.03125 L 298.554688 203.578125 L 298.070313 203.128906 L 297.578125 202.6875 L 297.078125 202.253906 L 296.570313 201.832031 L 296.058594 201.414063 L 295.539063 201.003906 L 295.011719 200.605469 L 294.480469 200.214844 L 293.941406 199.832031 L 293.398438 199.457031 L 292.847656 199.089844 L 292.292969 198.734375 L 291.730469 198.382813 L 291.164063 198.046875 L 290.59375 197.714844 L 290.015625 197.394531 L 289.433594 197.082031 L 288.84375 196.777344 L 288.253906 196.484375 L 287.65625 196.203125 L 287.054688 195.925781 L 286.449219 195.660156 L 285.839844 195.40625 L 285.226563 195.160156 L 284.609375 194.925781 L 283.988281 194.699219 L 283.363281 194.484375 L 282.738281 194.277344 L 282.105469 194.082031 L 281.472656 193.894531 L 280.835938 193.71875 L 280.195313 193.550781 L 279.554688 193.398438 L 278.910156 193.25 L 278.261719 193.117188 L 277.613281 192.992188 L 276.964844 192.875 L 276.3125 192.773438 L 275.65625 192.679688 L 275 192.59375 L 274.34375 192.519531 L 273.6875 192.457031 L 273.027344 192.40625 L 272.367188 192.363281 L 271.710938 192.332031 L 271.046875 192.3125 L 270.386719 192.300781 L 269.726563 192.300781 L 269.066406 192.3125 L 268.40625 192.332031 L 267.746094 192.363281 L 267.085938 192.40625 L 266.429688 192.457031 L 265.769531 192.519531 L 265.113281 192.59375 L 264.457031 192.679688 L 263.804688 192.773438 L 263.152344 192.875 L 262.5 192.992188 L 261.851563 193.117188 L 261.207031 193.25 L 260.5625 193.398438 L 259.917969 193.550781 L 259.28125 193.71875 L 258.644531 193.894531 L 258.007813 194.082031 L 257.378906 194.277344 L 256.75 194.484375 L 256.125 194.699219 L 255.503906 194.925781 L 254.886719 195.160156 L 254.273438 195.40625 L 253.664063 195.660156 L 253.058594 195.925781 L 252.457031 196.203125 L 251.863281 196.484375 L 251.269531 196.777344 L 250.683594 197.082031 L 250.101563 197.394531 L 249.523438 197.714844 L 248.949219 198.046875 L 248.382813 198.382813 L 247.824219 198.734375 L 247.265625 199.089844 L 246.714844 199.457031 L 246.171875 199.832031 L 245.632813 200.214844 L 245.101563 200.605469 L 244.578125 201.003906 L 244.058594 201.414063 L 243.542969 201.832031 L 243.039063 202.253906 L 242.539063 202.6875 L 242.046875 203.128906 L 241.5625 203.578125 L 241.082031 204.03125 L 240.613281 204.496094 L 270.058594 233.941406 L 299.503906 204.496094 "/>
<path style="fill:none;stroke-width:2.25;stroke-linecap:round;stroke-linejoin:round;stroke:rgb(0%,0%,0%);stroke-opacity:1;stroke-miterlimit:10;" d="M 240.613281 204.496094 L 240.148438 204.96875 L 239.691406 205.445313 L 239.242188 205.929688 L 238.804688 206.421875 L 238.371094 206.921875 L 237.945313 207.429688 L 237.53125 207.941406 L 237.121094 208.460938 L 236.722656 208.988281 L 236.328125 209.519531 L 235.945313 210.058594 L 235.570313 210.601563 L 235.207031 211.152344 L 234.847656 211.707031 L 234.5 212.269531 L 234.160156 212.835938 L 233.828125 213.40625 L 233.507813 213.984375 L 233.195313 214.566406 L 232.894531 215.15625 L 232.601563 215.746094 L 232.316406 216.34375 L 232.042969 216.945313 L 231.777344 217.550781 L 231.523438 218.160156 L 231.277344 218.773438 L 231.039063 219.390625 L 230.816406 220.011719 L 230.597656 220.636719 L 230.390625 221.261719 L 230.195313 221.894531 L 230.011719 222.527344 L 229.832031 223.164063 L 229.667969 223.804688 L 229.511719 224.445313 L 229.367188 225.089844 L 229.230469 225.738281 L 229.105469 226.386719 L 228.992188 227.035156 L 228.886719 227.6875 L 228.792969 228.34375 L 228.710938 229 L 228.636719 229.65625 L 228.574219 230.3125 L 228.519531 230.972656 L 228.480469 231.632813 L 228.449219 232.289063 L 228.425781 232.953125 L 228.417969 233.613281 L 228.417969 234.273438 L 228.425781 234.933594 L 228.449219 235.59375 L 228.480469 236.253906 L 228.519531 236.914063 L 228.574219 237.570313 L 228.636719 238.230469 L 228.710938 238.886719 L 228.792969 239.542969 L 228.886719 240.195313 L 228.992188 240.847656 L 229.105469 241.5 L 229.230469 242.148438 L 229.367188 242.792969 L 229.511719 243.4375 L 229.667969 244.082031 L 229.832031 244.71875 L 230.011719 245.355469 L 230.195313 245.992188 L 230.390625 246.621094 L 230.597656 247.25 L 230.816406 247.875 L 231.039063 248.496094 L 231.277344 249.113281 L 231.523438 249.726563 L 231.777344 250.335938 L 232.042969 250.941406 L 232.316406 251.542969 L 232.601563 252.136719 L 232.894531 252.730469 L 233.195313 253.316406 L 233.507813 253.898438 L 233.828125 254.476563 L 234.160156 255.050781 L 234.5 255.617188 L 234.847656 256.175781 L 235.207031 256.734375 L 235.570313 257.285156 L 235.945313 257.828125 L 236.328125 258.367188 L 236.722656 258.898438 L 237.121094 259.421875 L 237.53125 259.941406 L 237.945313 260.457031 L 238.371094 260.960938 L 238.804688 261.460938 L 239.242188 261.953125 L 239.691406 262.4375 L 240.148438 262.917969 L 240.613281 263.386719 L 270.058594 233.941406 L 240.613281 204.496094 "/>
<path style="fill:none;stroke-width:2.25;stroke-linecap:round;stroke-linejoin:round;stroke:rgb(0%,0%,0%);stroke-opacity:1;stroke-miterlimit:10;" d="M 299.503906 263.386719 L 299.96875 262.917969 L 300.421875 262.4375 L 300.871094 261.953125 L 301.3125 261.460938 L 301.746094 260.960938 L 302.167969 260.457031 L 302.585938 259.941406 L 302.996094 259.421875 L 303.394531 258.898438 L 303.785156 258.367188 L 304.167969 257.828125 L 304.542969 257.285156 L 304.910156 256.734375 L 305.265625 256.175781 L 305.617188 255.617188 L 305.953125 255.050781 L 306.285156 254.476563 L 306.605469 253.898438 L 306.917969 253.316406 L 307.222656 252.730469 L 307.515625 252.136719 L 307.796875 251.542969 L 308.074219 250.941406 L 308.339844 250.335938 L 308.59375 249.726563 L 308.839844 249.113281 L 309.074219 248.496094 L 309.300781 247.875 L 309.515625 247.25 L 309.722656 246.621094 L 309.917969 245.992188 L 310.105469 245.355469 L 310.28125 244.71875 L 310.449219 244.082031 L 310.601563 243.4375 L 310.75 242.792969 L 310.882813 242.148438 L 311.007813 241.5 L 311.125 240.847656 L 311.226563 240.195313 L 311.320313 239.542969 L 311.40625 238.886719 L 311.480469 238.230469 L 311.542969 237.570313 L 311.59375 236.914063 L 311.636719 236.253906 L 311.667969 235.59375 L 311.6875 234.933594 L 311.699219 234.273438 L 311.699219 233.613281 L 311.6875 232.953125 L 311.667969 232.289063 L 311.636719 231.632813 L 311.59375 230.972656 L 311.542969 230.3125 L 311.480469 229.65625 L 311.40625 229 L 311.320313 228.34375 L 311.226563 227.6875 L 311.125 227.035156 L 311.007813 226.386719 L 310.882813 225.738281 L 310.75 225.089844 L 310.601563 224.445313 L 310.449219 223.804688 L 310.28125 223.164063 L 310.105469 222.527344 L 309.917969 221.894531 L 309.722656 221.261719 L 309.515625 220.636719 L 309.300781 220.011719 L 309.074219 219.390625 L 308.839844 218.773438 L 308.59375 218.160156 L 308.339844 217.550781 L 308.074219 216.945313 L 307.796875 216.34375 L 307.515625 215.746094 L 307.222656 215.15625 L 306.917969 214.566406 L 306.605469 213.984375 L 306.285156 213.40625 L 305.953125 212.835938 L 305.617188 212.269531 L 305.265625 211.707031 L 304.910156 211.152344 L 304.542969 210.601563 L 304.167969 210.058594 L 303.785156 209.519531 L 303.394531 208.988281 L 302.996094 208.460938 L 302.585938 207.941406 L 302.167969 207.429688 L 301.746094 206.921875 L 301.3125 206.421875 L 300.871094 205.929688 L 300.421875 205.445313 L 299.96875 204.96875 L 299.503906 204.496094 L 270.058594 233.941406 L 299.503906 263.386719 "/>
<path style="fill:none;stroke-width:2.25;stroke-linecap:round;stroke-linejoin:round;stroke:rgb(0%,0%,0%);stroke-opacity:1;stroke-miterlimit:10;" d="M 383.109375 190.753906 L 466.394531 190.753906 L 383.109375 190.753906 "/>
<path style="fill:none;stroke-width:2.25;stroke-linecap:round;stroke-linejoin:round;stroke:rgb(0%,0%,0%);stroke-opacity:1;stroke-miterlimit:10;" d="M 381.566406 275.585938 L 381.566406 192.300781 L 381.566406 275.585938 "/>
<path style="fill:none;stroke-width:2.25;stroke-linecap:round;stroke-linejoin:round;stroke:rgb(0%,0%,0%);stroke-opacity:1;stroke-miterlimit:10;" d="M 454.199219 204.496094 L 453.726563 204.03125 L 453.25 203.578125 L 452.761719 203.128906 L 452.269531 202.6875 L 451.773438 202.253906 L 451.265625 201.832031 L 450.753906 201.414063 L 450.234375 201.003906 L 449.707031 200.605469 L 449.175781 200.214844 L 448.636719 199.832031 L 448.09375 199.457031 L 447.542969 199.089844 L 446.988281 198.734375 L 446.425781 198.382813 L 445.859375 198.046875 L 445.285156 197.714844 L 444.710938 197.394531 L 444.125 197.082031 L 443.539063 196.777344 L 442.949219 196.484375 L 442.351563 196.203125 L 441.75 195.925781 L 441.144531 195.660156 L 440.535156 195.40625 L 439.921875 195.160156 L 439.304688 194.925781 L 438.683594 194.699219 L 438.058594 194.484375 L 437.429688 194.277344 L 436.800781 194.082031 L 436.167969 193.894531 L 435.53125 193.71875 L 434.890625 193.550781 L 434.25 193.398438 L 433.605469 193.25 L 432.957031 193.117188 L 432.308594 192.992188 L 431.65625 192.875 L 431.003906 192.773438 L 430.351563 192.679688 L 429.695313 192.59375 L 429.039063 192.519531 L 428.382813 192.457031 L 427.722656 192.40625 L 427.0625 192.363281 L 426.402344 192.332031 L 425.742188 192.3125 L 425.082031 192.300781 L 424.421875 192.300781 L 423.761719 192.3125 L 423.101563 192.332031 L 422.441406 192.363281 L 421.78125 192.40625 L 421.121094 192.457031 L 420.464844 192.519531 L 419.808594 192.59375 L 419.152344 192.679688 L 418.5 192.773438 L 417.847656 192.875 L 417.195313 192.992188 L 416.546875 193.117188 L 415.898438 193.25 L 415.253906 193.398438 L 414.613281 193.550781 L 413.972656 193.71875 L 413.335938 193.894531 L 412.703125 194.082031 L 412.074219 194.277344 L 411.445313 194.484375 L 410.820313 194.699219 L 410.199219 194.925781 L 409.582031 195.160156 L 408.96875 195.40625 L 408.359375 195.660156 L 407.753906 195.925781 L 407.152344 196.203125 L 406.554688 196.484375 L 405.964844 196.777344 L 405.378906 197.082031 L 404.792969 197.394531 L 404.21875 197.714844 L 403.644531 198.046875 L 403.078125 198.382813 L 402.515625 198.734375 L 401.960938 199.089844 L 401.410156 199.457031 L 400.867188 199.832031 L 400.328125 200.214844 L 399.796875 200.605469 L 399.269531 201.003906 L 398.75 201.414063 L 398.238281 201.832031 L 397.730469 202.253906 L 397.234375 202.6875 L 396.742188 203.128906 L 396.253906 203.578125 L 395.777344 204.03125 L 395.304688 204.496094 L 424.753906 233.941406 L 454.199219 204.496094 "/>
<path style="fill:none;stroke-width:2.25;stroke-linecap:round;stroke-linejoin:round;stroke:rgb(0%,0%,0%);stroke-opacity:1;stroke-miterlimit:10;" d="M 454.199219 263.386719 L 454.660156 262.917969 L 455.117188 262.4375 L 455.566406 261.953125 L 456.007813 261.460938 L 456.4375 260.960938 L 456.863281 260.457031 L 457.28125 259.941406 L 457.6875 259.421875 L 458.089844 258.898438 L 458.480469 258.367188 L 458.863281 257.828125 L 459.238281 257.285156 L 459.605469 256.734375 L 459.960938 256.175781 L 460.308594 255.617188 L 460.648438 255.050781 L 460.980469 254.476563 L 461.300781 253.898438 L 461.613281 253.316406 L 461.914063 252.730469 L 462.210938 252.136719 L 462.492188 251.542969 L 462.765625 250.941406 L 463.03125 250.335938 L 463.289063 249.726563 L 463.535156 249.113281 L 463.769531 248.496094 L 463.996094 247.875 L 464.210938 247.25 L 464.417969 246.621094 L 464.613281 245.992188 L 464.800781 245.355469 L 464.976563 244.71875 L 465.140625 244.082031 L 465.296875 243.4375 L 465.441406 242.792969 L 465.578125 242.148438 L 465.703125 241.5 L 465.816406 240.847656 L 465.921875 240.195313 L 466.015625 239.542969 L 466.101563 238.886719 L 466.171875 238.230469 L 466.234375 237.570313 L 466.289063 236.914063 L 466.332031 236.253906 L 466.363281 235.59375 L 466.382813 234.933594 L 466.394531 234.273438 L 466.394531 233.613281 L 466.382813 232.953125 L 466.363281 232.289063 L 466.332031 231.632813 L 466.289063 230.972656 L 466.234375 230.3125 L 466.171875 229.65625 L 466.101563 229 L 466.015625 228.34375 L 465.921875 227.6875 L 465.816406 227.035156 L 465.703125 226.386719 L 465.578125 225.738281 L 465.441406 225.089844 L 465.296875 224.445313 L 465.140625 223.804688 L 464.976563 223.164063 L 464.800781 222.527344 L 464.613281 221.894531 L 464.417969 221.261719 L 464.210938 220.636719 L 463.996094 220.011719 L 463.769531 219.390625 L 463.535156 218.773438 L 463.289063 218.160156 L 463.03125 217.550781 L 462.765625 216.945313 L 462.492188 216.34375 L 462.210938 215.746094 L 461.914063 215.15625 L 461.613281 214.566406 L 461.300781 213.984375 L 460.980469 213.40625 L 460.648438 212.835938 L 460.308594 212.269531 L 459.960938 211.707031 L 459.605469 211.152344 L 459.238281 210.601563 L 458.863281 210.058594 L 458.480469 209.519531 L 458.089844 208.988281 L 457.6875 208.460938 L 457.28125 207.941406 L 456.863281 207.429688 L 456.4375 206.921875 L 456.007813 206.421875 L 455.566406 205.929688 L 455.117188 205.445313 L 454.660156 204.96875 L 454.199219 204.496094 L 424.753906 233.941406 L 454.199219 263.386719 "/>
<path style="fill:none;stroke-width:2.25;stroke-linecap:round;stroke-linejoin:round;stroke:rgb(0%,0%,0%);stroke-opacity:1;stroke-miterlimit:10;" d="M 73.71875 431.824219 L 157.007813 431.824219 L 73.71875 431.824219 "/>
<path style="fill:none;stroke-width:2.25;stroke-linecap:round;stroke-linejoin:round;stroke:rgb(0%,0%,0%);stroke-opacity:1;stroke-miterlimit:10;" d="M 73.71875 345.449219 L 157.007813 345.449219 L 73.71875 345.449219 "/>
<path style="fill:none;stroke-width:2.25;stroke-linecap:round;stroke-linejoin:round;stroke:rgb(0%,0%,0%);stroke-opacity:1;stroke-miterlimit:10;" d="M 144.808594 359.191406 L 144.339844 358.726563 L 143.859375 358.273438 L 143.375 357.824219 L 142.882813 357.382813 L 142.382813 356.949219 L 141.875 356.523438 L 141.363281 356.109375 L 140.84375 355.699219 L 140.320313 355.300781 L 139.785156 354.910156 L 139.25 354.523438 L 138.703125 354.152344 L 138.152344 353.785156 L 137.597656 353.425781 L 137.035156 353.078125 L 136.46875 352.738281 L 135.898438 352.410156 L 135.320313 352.085938 L 134.738281 351.777344 L 134.152344 351.472656 L 133.558594 351.179688 L 132.960938 350.894531 L 132.359375 350.621094 L 131.753906 350.355469 L 131.144531 350.101563 L 130.53125 349.855469 L 129.914063 349.621094 L 129.296875 349.394531 L 128.671875 349.175781 L 128.042969 348.972656 L 127.410156 348.773438 L 126.777344 348.589844 L 126.140625 348.414063 L 125.5 348.246094 L 124.859375 348.089844 L 124.214844 347.945313 L 123.566406 347.808594 L 122.917969 347.683594 L 122.269531 347.570313 L 121.617188 347.464844 L 120.960938 347.371094 L 120.308594 347.289063 L 119.648438 347.214844 L 118.992188 347.152344 L 118.332031 347.101563 L 117.675781 347.058594 L 117.015625 347.027344 L 116.355469 347.007813 L 115.695313 346.996094 L 115.03125 346.996094 L 114.371094 347.007813 L 113.710938 347.027344 L 113.050781 347.058594 L 112.390625 347.101563 L 111.734375 347.152344 L 111.074219 347.214844 L 110.417969 347.289063 L 109.765625 347.371094 L 109.109375 347.464844 L 108.457031 347.570313 L 107.808594 347.683594 L 107.15625 347.808594 L 106.511719 347.945313 L 105.867188 348.089844 L 105.226563 348.246094 L 104.585938 348.414063 L 103.949219 348.589844 L 103.316406 348.773438 L 102.683594 348.972656 L 102.054688 349.175781 L 101.429688 349.394531 L 100.8125 349.621094 L 100.191406 349.855469 L 99.578125 350.101563 L 98.96875 350.355469 L 98.367188 350.621094 L 97.765625 350.894531 L 97.167969 351.179688 L 96.574219 351.472656 L 95.988281 351.777344 L 95.40625 352.085938 L 94.828125 352.410156 L 94.257813 352.738281 L 93.691406 353.078125 L 93.128906 353.425781 L 92.570313 353.785156 L 92.023438 354.152344 L 91.476563 354.523438 L 90.941406 354.910156 L 90.40625 355.300781 L 89.882813 355.699219 L 89.363281 356.109375 L 88.851563 356.523438 L 88.34375 356.949219 L 87.84375 357.382813 L 87.351563 357.824219 L 86.867188 358.273438 L 86.386719 358.726563 L 85.917969 359.191406 L 115.363281 388.636719 L 144.808594 359.191406 "/>
<path style="fill:none;stroke-width:2.25;stroke-linecap:round;stroke-linejoin:round;stroke:rgb(0%,0%,0%);stroke-opacity:1;stroke-miterlimit:10;" d="M 144.808594 418.082031 L 145.273438 417.613281 L 145.726563 417.132813 L 146.175781 416.648438 L 146.617188 416.15625 L 147.050781 415.65625 L 147.476563 415.148438 L 147.890625 414.636719 L 148.300781 414.117188 L 148.699219 413.59375 L 149.089844 413.058594 L 149.476563 412.523438 L 149.847656 411.976563 L 150.214844 411.429688 L 150.574219 410.871094 L 150.921875 410.308594 L 151.261719 409.742188 L 151.589844 409.171875 L 151.914063 408.59375 L 152.222656 408.011719 L 152.527344 407.425781 L 152.820313 406.832031 L 153.105469 406.234375 L 153.378906 405.632813 L 153.644531 405.03125 L 153.898438 404.421875 L 154.144531 403.808594 L 154.378906 403.1875 L 154.605469 402.570313 L 154.824219 401.945313 L 155.027344 401.316406 L 155.226563 400.683594 L 155.410156 400.050781 L 155.585938 399.414063 L 155.753906 398.773438 L 155.910156 398.132813 L 156.054688 397.488281 L 156.191406 396.84375 L 156.316406 396.191406 L 156.429688 395.542969 L 156.535156 394.890625 L 156.628906 394.234375 L 156.710938 393.582031 L 156.785156 392.925781 L 156.847656 392.265625 L 156.898438 391.609375 L 156.941406 390.949219 L 156.972656 390.289063 L 156.992188 389.628906 L 157.003906 388.96875 L 157.003906 388.304688 L 156.992188 387.644531 L 156.972656 386.984375 L 156.941406 386.324219 L 156.898438 385.667969 L 156.847656 385.007813 L 156.785156 384.351563 L 156.710938 383.691406 L 156.628906 383.039063 L 156.535156 382.382813 L 156.429688 381.730469 L 156.316406 381.082031 L 156.191406 380.433594 L 156.054688 379.785156 L 155.910156 379.140625 L 155.753906 378.5 L 155.585938 377.859375 L 155.410156 377.222656 L 155.226563 376.589844 L 155.027344 375.957031 L 154.824219 375.328125 L 154.605469 374.703125 L 154.378906 374.085938 L 154.144531 373.46875 L 153.898438 372.855469 L 153.644531 372.246094 L 153.378906 371.640625 L 153.105469 371.039063 L 152.820313 370.441406 L 152.527344 369.847656 L 152.222656 369.261719 L 151.914063 368.679688 L 151.589844 368.101563 L 151.261719 367.53125 L 150.921875 366.964844 L 150.574219 366.402344 L 150.214844 365.847656 L 149.847656 365.296875 L 149.476563 364.75 L 149.089844 364.214844 L 148.699219 363.679688 L 148.300781 363.15625 L 147.890625 362.636719 L 147.476563 362.125 L 147.050781 361.617188 L 146.617188 361.117188 L 146.175781 360.625 L 145.726563 360.140625 L 145.273438 359.660156 L 144.808594 359.191406 L 115.363281 388.636719 L 144.808594 418.082031 "/>
<path style="fill:none;stroke-width:2.25;stroke-linecap:round;stroke-linejoin:round;stroke:rgb(0%,0%,0%);stroke-opacity:1;stroke-miterlimit:10;" d="M 313.246094 430.28125 L 313.246094 346.992188 L 313.246094 430.28125 "/>
<path style="fill:none;stroke-width:2.25;stroke-linecap:round;stroke-linejoin:round;stroke:rgb(0%,0%,0%);stroke-opacity:1;stroke-miterlimit:10;" d="M 226.871094 430.28125 L 226.871094 346.992188 L 226.871094 430.28125 "/>
<path style="fill:none;stroke-width:2.25;stroke-linecap:round;stroke-linejoin:round;stroke:rgb(0%,0%,0%);stroke-opacity:1;stroke-miterlimit:10;" d="M 299.503906 359.191406 L 299.03125 358.726563 L 298.554688 358.273438 L 298.070313 357.824219 L 297.578125 357.382813 L 297.078125 356.949219 L 296.570313 356.523438 L 296.058594 356.109375 L 295.539063 355.699219 L 295.011719 355.300781 L 294.480469 354.910156 L 293.941406 354.523438 L 293.398438 354.152344 L 292.847656 353.785156 L 292.292969 353.425781 L 291.730469 353.078125 L 291.164063 352.738281 L 290.59375 352.410156 L 290.015625 352.085938 L 289.433594 351.777344 L 288.84375 351.472656 L 288.253906 351.179688 L 287.65625 350.894531 L 287.054688 350.621094 L 286.449219 350.355469 L 285.839844 350.101563 L 285.226563 349.855469 L 284.609375 349.621094 L 283.988281 349.394531 L 283.363281 349.175781 L 282.738281 348.972656 L 282.105469 348.773438 L 281.472656 348.589844 L 280.835938 348.414063 L 280.195313 348.246094 L 279.554688 348.089844 L 278.910156 347.945313 L 278.261719 347.808594 L 277.613281 347.683594 L 276.964844 347.570313 L 276.3125 347.464844 L 275.65625 347.371094 L 275 347.289063 L 274.34375 347.214844 L 273.6875 347.152344 L 273.027344 347.101563 L 272.367188 347.058594 L 271.710938 347.027344 L 271.046875 347.007813 L 270.386719 346.996094 L 269.726563 346.996094 L 269.066406 347.007813 L 268.40625 347.027344 L 267.746094 347.058594 L 267.085938 347.101563 L 266.429688 347.152344 L 265.769531 347.214844 L 265.113281 347.289063 L 264.457031 347.371094 L 263.804688 347.464844 L 263.152344 347.570313 L 262.5 347.683594 L 261.851563 347.808594 L 261.207031 347.945313 L 260.5625 348.089844 L 259.917969 348.246094 L 259.28125 348.414063 L 258.644531 348.589844 L 258.007813 348.773438 L 257.378906 348.972656 L 256.75 349.175781 L 256.125 349.394531 L 255.503906 349.621094 L 254.886719 349.855469 L 254.273438 350.101563 L 253.664063 350.355469 L 253.058594 350.621094 L 252.457031 350.894531 L 251.863281 351.179688 L 251.269531 351.472656 L 250.683594 351.777344 L 250.101563 352.085938 L 249.523438 352.410156 L 248.949219 352.738281 L 248.382813 353.078125 L 247.824219 353.425781 L 247.265625 353.785156 L 246.714844 354.152344 L 246.171875 354.523438 L 245.632813 354.910156 L 245.101563 355.300781 L 244.578125 355.699219 L 244.058594 356.109375 L 243.542969 356.523438 L 243.039063 356.949219 L 242.539063 357.382813 L 242.046875 357.824219 L 241.5625 358.273438 L 241.082031 358.726563 L 240.613281 359.191406 L 270.058594 388.636719 L 299.503906 359.191406 "/>
<path style="fill:none;stroke-width:2.25;stroke-linecap:round;stroke-linejoin:round;stroke:rgb(0%,0%,0%);stroke-opacity:1;stroke-miterlimit:10;" d="M 240.613281 359.191406 L 240.148438 359.660156 L 239.691406 360.140625 L 239.242188 360.625 L 238.804688 361.117188 L 238.371094 361.617188 L 237.945313 362.125 L 237.53125 362.636719 L 237.121094 363.15625 L 236.722656 363.679688 L 236.328125 364.214844 L 235.945313 364.75 L 235.570313 365.296875 L 235.207031 365.847656 L 234.847656 366.402344 L 234.5 366.964844 L 234.160156 367.53125 L 233.828125 368.101563 L 233.507813 368.679688 L 233.195313 369.261719 L 232.894531 369.847656 L 232.601563 370.441406 L 232.316406 371.039063 L 232.042969 371.640625 L 231.777344 372.246094 L 231.523438 372.855469 L 231.277344 373.46875 L 231.039063 374.085938 L 230.816406 374.703125 L 230.597656 375.328125 L 230.390625 375.957031 L 230.195313 376.589844 L 230.011719 377.222656 L 229.832031 377.859375 L 229.667969 378.5 L 229.511719 379.140625 L 229.367188 379.785156 L 229.230469 380.433594 L 229.105469 381.082031 L 228.992188 381.730469 L 228.886719 382.382813 L 228.792969 383.039063 L 228.710938 383.691406 L 228.636719 384.351563 L 228.574219 385.007813 L 228.519531 385.667969 L 228.480469 386.324219 L 228.449219 386.984375 L 228.425781 387.644531 L 228.417969 388.304688 L 228.417969 388.96875 L 228.425781 389.628906 L 228.449219 390.289063 L 228.480469 390.949219 L 228.519531 391.609375 L 228.574219 392.265625 L 228.636719 392.925781 L 228.710938 393.582031 L 228.792969 394.234375 L 228.886719 394.890625 L 228.992188 395.542969 L 229.105469 396.191406 L 229.230469 396.84375 L 229.367188 397.488281 L 229.511719 398.132813 L 229.667969 398.773438 L 229.832031 399.414063 L 230.011719 400.050781 L 230.195313 400.683594 L 230.390625 401.316406 L 230.597656 401.945313 L 230.816406 402.570313 L 231.039063 403.1875 L 231.277344 403.808594 L 231.523438 404.421875 L 231.777344 405.03125 L 232.042969 405.632813 L 232.316406 406.234375 L 232.601563 406.832031 L 232.894531 407.425781 L 233.195313 408.011719 L 233.507813 408.59375 L 233.828125 409.171875 L 234.160156 409.742188 L 234.5 410.308594 L 234.847656 410.871094 L 235.207031 411.429688 L 235.570313 411.976563 L 235.945313 412.523438 L 236.328125 413.058594 L 236.722656 413.59375 L 237.121094 414.117188 L 237.53125 414.636719 L 237.945313 415.148438 L 238.371094 415.65625 L 238.804688 416.15625 L 239.242188 416.648438 L 239.691406 417.132813 L 240.148438 417.613281 L 240.613281 418.082031 L 270.058594 388.636719 L 240.613281 359.191406 "/>
</g>
</svg>
