<?xml version="1.0" encoding="UTF-8"?>
<svg xmlns="http://www.w3.org/2000/svg" xmlns:xlink="http://www.w3.org/1999/xlink" width="504pt" height="504pt" viewBox="0 0 504 504" version="1.1">
<g id="surface16">
<rect x="0" y="0" width="504" height="504" style="fill:rgb(100%,100%,100%);fill-opacity:1;stroke:none;"/>
<path style="fill:none;stroke-width:2.25;stroke-linecap:round;stroke-linejoin:round;stroke:rgb(0%,0%,0%);stroke-opacity:1;stroke-miterlimit:10;" d="M 115.363281 20.355469 L 59.355469 61.050781 L 80.746094 126.890625 L 149.980469 126.890625 L 171.371094 61.050781 Z M 115.363281 20.355469 "/>
<path style="fill-rule:nonzero;fill:rgb(100%,100%,100%);fill-opacity:1;stroke-width:2.25;stroke-linecap:round;stroke-linejoin:round;stroke:rgb(0%,0%,0%);stroke-opacity:1;stroke-miterlimit:10;" d="M 115.363281 67.46875 L 104.160156 75.609375 L 108.441406 88.777344 L 122.285156 88.777344 L 126.566406 75.609375 Z M 115.363281 67.46875 "/>
<path style="fill-rule:nonzero;fill:rgb(100%,100%,100%);fill-opacity:1;stroke-width:1.5;stroke-linecap:round;stroke-linejoin:round;stroke:rgb(0%,0%,0%);stroke-opacity:1;stroke-miterlimit:10;" d="M 309.320313 79.246094 L 309.242188 76.78125 L 309.007813 74.328125 L 308.625 71.890625 L 308.085938 69.484375 L 307.398438 67.117188 L 306.5625 64.796875 L 305.582031 62.53125 L 304.460938 60.332031 L 303.207031 58.210938 L 301.820313 56.171875 L 300.308594 54.222656 L 298.675781 52.371094 L 296.933594 50.628906 L 295.082031 48.996094 L 293.132813 47.484375 L 291.09375 46.097656 L 288.972656 44.84375 L 286.773438 43.722656 L 284.511719 42.742188 L 282.191406 41.910156 L 279.820313 41.21875 L 277.414063 40.683594 L 274.976563 40.296875 L 272.523438 40.0625 L 270.058594 39.988281 L 267.59375 40.0625 L 265.136719 40.296875 L 262.699219 40.683594 L 260.292969 41.21875 L 257.925781 41.910156 L 255.605469 42.742188 L 253.339844 43.722656 L 251.144531 44.84375 L 249.019531 46.097656 L 246.980469 47.484375 L 245.03125 48.996094 L 243.179688 50.628906 L 241.4375 52.371094 L 239.804688 54.222656 L 238.292969 56.171875 L 236.910156 58.210938 L 235.652344 60.332031 L 234.53125 62.53125 L 233.554688 64.796875 L 232.71875 67.117188 L 232.03125 69.484375 L 231.492188 71.890625 L 231.105469 74.328125 L 230.875 76.78125 L 230.796875 79.246094 L 230.875 81.714844 L 231.105469 84.167969 L 231.492188 86.605469 L 232.03125 89.011719 L 232.71875 91.378906 L 233.554688 93.699219 L 234.53125 95.964844 L 235.652344 98.164063 L 236.910156 100.285156 L 238.292969 102.324219 L 239.804688 104.273438 L 241.4375 106.125 L 243.179688 107.867188 L 245.03125 109.5 L 246.980469 111.011719 L 249.019531 112.398438 L 251.144531 113.652344 L 253.339844 114.773438 L 255.605469 115.753906 L 257.925781 116.585938 L 260.292969 117.277344 L 262.699219 117.8125 L 265.136719 118.199219 L 267.59375 118.429688 L 270.058594 118.507813 L 272.523438 118.429688 L 274.976563 118.199219 L 277.414063 117.8125 L 279.820313 117.277344 L 282.191406 116.585938 L 284.511719 115.753906 L 286.773438 114.773438 L 288.972656 113.652344 L 291.09375 112.398438 L 293.132813 111.011719 L 295.082031 109.5 L 296.933594 107.867188 L 298.675781 106.125 L 300.308594 104.273438 L 301.820313 102.324219 L 303.207031 100.285156 L 304.460938 98.164063 L 305.582031 95.964844 L 306.5625 93.699219 L 307.398438 91.378906 L 308.085938 89.011719 L 308.625 86.605469 L 309.007813 84.167969 L 309.242188 81.714844 Z M 309.320313 79.246094 "/>
<path style="fill-rule:nonzero;fill:rgb(100%,100%,100%);fill-opacity:1;stroke-width:2.25;stroke-linecap:round;stroke-linejoin:round;stroke:rgb(0%,0%,0%);stroke-opacity:1;stroke-miterlimit:10;" d="M 278.386719 70.917969 L 267.007813 67.871094 L 258.679688 76.199219 L 261.730469 87.578125 L 273.105469 90.625 L 281.433594 82.296875 Z M 278.386719 70.917969 "/>
<path style="fill-rule:nonzero;fill:rgb(100%,100%,100%);fill-opacity:1;stroke-width:2.25;stroke-linecap:round;stroke-linejoin:round;stroke:rgb(0%,0%,0%);stroke-opacity:1;stroke-miterlimit:10;" d="M 424.753906 20.355469 L 368.742188 61.050781 L 390.136719 126.890625 L 459.367188 126.890625 L 480.761719 61.050781 Z M 424.753906 20.355469 "/>
<path style="fill-rule:nonzero;fill:rgb(100%,100%,100%);fill-opacity:1;stroke-width:2.25;stroke-linecap:round;stroke-linejoin:round;stroke:rgb(0%,0%,0%);stroke-opacity:1;stroke-miterlimit:10;" d="M 416.421875 70.917969 L 416.421875 87.578125 L 433.082031 87.578125 L 433.082031 70.917969 Z M 416.421875 70.917969 "/>
<path style="fill:none;stroke-width:2.25;stroke-linecap:round;stroke-linejoin:round;stroke:rgb(0%,0%,0%);stroke-opacity:1;stroke-miterlimit:10;" d="M 115.363281 175.050781 L 59.355469 215.742188 L 80.746094 281.585938 L 149.980469 281.585938 L 171.371094 215.742188 Z M 115.363281 175.050781 "/>
<path style="fill-rule:nonzero;fill:rgb(100%,100%,100%);fill-opacity:1;stroke-width:2.25;stroke-linecap:round;stroke-linejoin:round;stroke:rgb(0%,0%,0%);stroke-opacity:1;stroke-miterlimit:10;" d="M 115.363281 222.164063 L 103.585938 233.941406 L 115.363281 245.722656 L 127.140625 233.941406 Z M 115.363281 222.164063 "/>
<path style="fill-rule:nonzero;fill:rgb(74.509804%,74.509804%,74.509804%);fill-opacity:1;stroke-width:1.5;stroke-linecap:round;stroke-linejoin:round;stroke:rgb(0%,0%,0%);stroke-opacity:1;stroke-miterlimit:10;" d="M 309.320313 233.941406 L 309.242188 231.476563 L 309.007813 229.023438 L 308.625 226.585938 L 308.085938 224.179688 L 307.398438 221.808594 L 306.5625 219.488281 L 305.582031 217.226563 L 304.460938 215.027344 L 303.207031 212.90625 L 301.820313 210.867188 L 300.308594 208.917969 L 298.675781 207.066406 L 296.933594 205.324219 L 295.082031 203.691406 L 293.132813 202.179688 L 291.09375 200.792969 L 288.972656 199.539063 L 286.773438 198.417969 L 284.511719 197.4375 L 282.191406 196.601563 L 279.820313 195.914063 L 277.414063 195.375 L 274.976563 194.992188 L 272.523438 194.757813 L 270.058594 194.679688 L 267.59375 194.757813 L 265.136719 194.992188 L 262.699219 195.375 L 260.292969 195.914063 L 257.925781 196.601563 L 255.605469 197.4375 L 253.339844 198.417969 L 251.144531 199.539063 L 249.019531 200.792969 L 246.980469 202.179688 L 245.03125 203.691406 L 243.179688 205.324219 L 241.4375 207.066406 L 239.804688 208.917969 L 238.292969 210.867188 L 236.910156 212.90625 L 235.652344 215.027344 L 234.53125 217.226563 L 233.554688 219.488281 L 232.71875 221.808594 L 232.03125 224.179688 L 231.492188 226.585938 L 231.105469 229.023438 L 230.875 231.476563 L 230.796875 233.941406 L 230.875 236.40625 L 231.105469 238.863281 L 231.492188 241.300781 L 232.03125 243.707031 L 232.71875 246.074219 L 233.554688 248.394531 L 234.53125 250.660156 L 235.652344 252.855469 L 236.910156 254.980469 L 238.292969 257.019531 L 239.804688 258.96875 L 241.4375 260.820313 L 243.179688 262.5625 L 245.03125 264.195313 L 246.980469 265.707031 L 249.019531 267.089844 L 251.144531 268.347656 L 253.339844 269.46875 L 255.605469 270.445313 L 257.925781 271.28125 L 260.292969 271.96875 L 262.699219 272.507813 L 265.136719 272.894531 L 267.59375 273.125 L 270.058594 273.203125 L 272.523438 273.125 L 274.976563 272.894531 L 277.414063 272.507813 L 279.820313 271.96875 L 282.191406 271.28125 L 284.511719 270.445313 L 286.773438 269.46875 L 288.972656 268.347656 L 291.09375 267.089844 L 293.132813 265.707031 L 295.082031 264.195313 L 296.933594 262.5625 L 298.675781 260.820313 L 300.308594 258.96875 L 301.820313 257.019531 L 303.207031 254.980469 L 304.460938 252.855469 L 305.582031 250.660156 L 306.5625 248.394531 L 307.398438 246.074219 L 308.085938 243.707031 L 308.625 241.300781 L 309.007813 238.863281 L 309.242188 236.40625 Z M 309.320313 233.941406 "/>
<path style="fill-rule:nonzero;fill:rgb(100%,100%,100%);fill-opacity:1;stroke-width:2.25;stroke-linecap:round;stroke-linejoin:round;stroke:rgb(0%,0%,0%);stroke-opacity:1;stroke-miterlimit:10;" d="M 258.277344 233.941406 L 266.417969 245.144531 L 279.585938 240.867188 L 279.585938 227.019531 L 266.417969 222.742188 Z M 258.277344 233.941406 "/>
<path style="fill-rule:nonzero;fill:rgb(74.509804%,74.509804%,74.509804%);fill-opacity:1;stroke-width:2.25;stroke-linecap:round;stroke-linejoin:round;stroke:rgb(0%,0%,0%);stroke-opacity:1;stroke-miterlimit:10;" d="M 424.753906 175.050781 L 368.742188 215.742188 L 390.136719 281.585938 L 459.367188 281.585938 L 480.761719 215.742188 Z M 424.753906 175.050781 "/>
<path style="fill-rule:nonzero;fill:rgb(100%,100%,100%);fill-opacity:1;stroke-width:2.25;stroke-linecap:round;stroke-linejoin:round;stroke:rgb(0%,0%,0%);stroke-opacity:1;stroke-miterlimit:10;" d="M 416.421875 225.613281 L 413.375 236.992188 L 421.703125 245.320313 L 433.082031 242.269531 L 436.128906 230.894531 L 427.800781 222.566406 Z M 416.421875 225.613281 "/>
<path style="fill:none;stroke-width:2.25;stroke-linecap:round;stroke-linejoin:round;stroke:rgb(0%,0%,0%);stroke-opacity:1;stroke-miterlimit:10;" d="M 115.363281 329.746094 L 59.355469 370.4375 L 80.746094 436.28125 L 149.980469 436.28125 L 171.371094 370.4375 Z M 115.363281 329.746094 "/>
<path style="fill-rule:nonzero;fill:rgb(100%,100%,100%);fill-opacity:1;stroke-width:2.25;stroke-linecap:round;stroke-linejoin:round;stroke:rgb(0%,0%,0%);stroke-opacity:1;stroke-miterlimit:10;" d="M 115.363281 376.859375 L 105.164063 382.746094 L 105.164063 394.527344 L 115.363281 400.414063 L 125.5625 394.527344 L 125.5625 382.746094 Z M 115.363281 376.859375 "/>
<path style="fill-rule:nonzero;fill:rgb(0%,0%,0%);fill-opacity:1;stroke-width:1.5;stroke-linecap:round;stroke-linejoin:round;stroke:rgb(0%,0%,0%);stroke-opacity:1;stroke-miterlimit:10;" d="M 309.320313 388.636719 L 309.242188 386.171875 L 309.007813 383.714844 L 308.625 381.28125 L 308.085938 378.871094 L 307.398438 376.503906 L 306.5625 374.183594 L 305.582031 371.921875 L 304.460938 369.722656 L 303.207031 367.601563 L 301.820313 365.558594 L 300.308594 363.609375 L 298.675781 361.761719 L 296.933594 360.015625 L 295.082031 358.386719 L 293.132813 356.875 L 291.09375 355.488281 L 288.972656 354.230469 L 286.773438 353.113281 L 284.511719 352.132813 L 282.191406 351.296875 L 279.820313 350.609375 L 277.414063 350.070313 L 274.976563 349.683594 L 272.523438 349.453125 L 270.058594 349.375 L 267.59375 349.453125 L 265.136719 349.683594 L 262.699219 350.070313 L 260.292969 350.609375 L 257.925781 351.296875 L 255.605469 352.132813 L 253.339844 353.113281 L 251.144531 354.230469 L 249.019531 355.488281 L 246.980469 356.875 L 245.03125 358.386719 L 243.179688 360.015625 L 241.4375 361.761719 L 239.804688 363.609375 L 238.292969 365.558594 L 236.910156 367.601563 L 235.652344 369.722656 L 234.53125 371.921875 L 233.554688 374.183594 L 232.71875 376.503906 L 232.03125 378.871094 L 231.492188 381.28125 L 231.105469 383.714844 L 230.875 386.171875 L 230.796875 388.636719 L 230.875 391.101563 L 231.105469 393.558594 L 231.492188 395.992188 L 232.03125 398.402344 L 232.71875 400.769531 L 233.554688 403.089844 L 234.53125 405.351563 L 235.652344 407.550781 L 236.910156 409.675781 L 238.292969 411.714844 L 239.804688 413.664063 L 241.4375 415.511719 L 243.179688 417.257813 L 245.03125 418.886719 L 246.980469 420.398438 L 249.019531 421.785156 L 251.144531 423.042969 L 253.339844 424.160156 L 255.605469 425.140625 L 257.925781 425.976563 L 260.292969 426.664063 L 262.699219 427.203125 L 265.136719 427.589844 L 267.59375 427.820313 L 270.058594 427.898438 L 272.523438 427.820313 L 274.976563 427.589844 L 277.414063 427.203125 L 279.820313 426.664063 L 282.191406 425.976563 L 284.511719 425.140625 L 286.773438 424.160156 L 288.972656 423.042969 L 291.09375 421.785156 L 293.132813 420.398438 L 295.082031 418.886719 L 296.933594 417.257813 L 298.675781 415.511719 L 300.308594 413.664063 L 301.820313 411.714844 L 303.207031 409.675781 L 304.460938 407.550781 L 305.582031 405.351563 L 306.5625 403.089844 L 307.398438 400.769531 L 308.085938 398.402344 L 308.625 395.992188 L 309.007813 393.558594 L 309.242188 391.101563 Z M 309.320313 388.636719 "/>
<path style="fill-rule:nonzero;fill:rgb(100%,100%,100%);fill-opacity:1;stroke-width:2.25;stroke-linecap:round;stroke-linejoin:round;stroke:rgb(0%,0%,0%);stroke-opacity:1;stroke-miterlimit:10;" d="M 258.277344 388.636719 L 270.058594 400.414063 L 281.835938 388.636719 L 270.058594 376.859375 Z M 258.277344 388.636719 "/>
</g>
</svg>
