<?xml version="1.0" encoding="UTF-8"?>
<svg xmlns="http://www.w3.org/2000/svg" xmlns:xlink="http://www.w3.org/1999/xlink" width="504pt" height="504pt" viewBox="0 0 504 504" version="1.1">
<defs>
<clipPath id="clip1">
  <path d="M 73.441406 73.441406 L 430.5625 73.441406 L 430.5625 430.5625 L 73.441406 430.5625 Z M 73.441406 73.441406 "/>
</clipPath>
<clipPath id="clip2">
  <path d="M 73.441406 73.441406 L 110 73.441406 L 110 430.5625 L 73.441406 430.5625 Z M 73.441406 73.441406 "/>
</clipPath>
<clipPath id="clip3">
  <path d="M 73.441406 73.441406 L 111 73.441406 L 111 430.5625 L 73.441406 430.5625 Z M 73.441406 73.441406 "/>
</clipPath>
<clipPath id="clip4">
  <path d="M 73.441406 73.441406 L 76 73.441406 L 76 430.5625 L 73.441406 430.5625 Z M 73.441406 73.441406 "/>
</clipPath>
<clipPath id="clip5">
  <path d="M 73.441406 73.441406 L 111 73.441406 L 111 430.5625 L 73.441406 430.5625 Z M 73.441406 73.441406 "/>
</clipPath>
<clipPath id="clip6">
  <path d="M 73.441406 73.441406 L 145 73.441406 L 145 430.5625 L 73.441406 430.5625 Z M 73.441406 73.441406 "/>
</clipPath>
<clipPath id="clip7">
  <path d="M 73.441406 73.441406 L 179 73.441406 L 179 430.5625 L 73.441406 430.5625 Z M 73.441406 73.441406 "/>
</clipPath>
<clipPath id="clip8">
  <path d="M 73.441406 73.441406 L 213 73.441406 L 213 430.5625 L 73.441406 430.5625 Z M 73.441406 73.441406 "/>
</clipPath>
<clipPath id="clip9">
  <path d="M 73.441406 73.441406 L 247 73.441406 L 247 430.5625 L 73.441406 430.5625 Z M 73.441406 73.441406 "/>
</clipPath>
<clipPath id="clip10">
  <path d="M 73.441406 73.441406 L 281 73.441406 L 281 430.5625 L 73.441406 430.5625 Z M 73.441406 73.441406 "/>
</clipPath>
<clipPath id="clip11">
  <path d="M 73.441406 73.441406 L 315 73.441406 L 315 430.5625 L 73.441406 430.5625 Z M 73.441406 73.441406 "/>
</clipPath>
<clipPath id="clip12">
  <path d="M 73.441406 73.441406 L 349 73.441406 L 349 430.5625 L 73.441406 430.5625 Z M 73.441406 73.441406 "/>
</clipPath>
<clipPath id="clip13">
  <path d="M 73.441406 73.441406 L 383 73.441406 L 383 430.5625 L 73.441406 430.5625 Z M 73.441406 73.441406 "/>
</clipPath>
<clipPath id="clip14">
  <path d="M 73.441406 73.441406 L 417 73.441406 L 417 430.5625 L 73.441406 430.5625 Z M 73.441406 73.441406 "/>
</clipPath>
<clipPath id="clip15">
  <path d="M 73.441406 73.441406 L 430.5625 73.441406 L 430.5625 430.5625 L 73.441406 430.5625 Z M 73.441406 73.441406 "/>
</clipPath>
<clipPath id="clip16">
  <path d="M 102 73.441406 L 430.5625 73.441406 L 430.5625 430.5625 L 102 430.5625 Z M 102 73.441406 "/>
</clipPath>
<clipPath id="clip17">
  <path d="M 136 73.441406 L 430.5625 73.441406 L 430.5625 430.5625 L 136 430.5625 Z M 136 73.441406 "/>
</clipPath>
<clipPath id="clip18">
  <path d="M 170 73.441406 L 430.5625 73.441406 L 430.5625 430.5625 L 170 430.5625 Z M 170 73.441406 "/>
</clipPath>
<clipPath id="clip19">
  <path d="M 204 73.441406 L 430.5625 73.441406 L 430.5625 430.5625 L 204 430.5625 Z M 204 73.441406 "/>
</clipPath>
<clipPath id="clip20">
  <path d="M 238 73.441406 L 430.5625 73.441406 L 430.5625 430.5625 L 238 430.5625 Z M 238 73.441406 "/>
</clipPath>
<clipPath id="clip21">
  <path d="M 272 73.441406 L 430.5625 73.441406 L 430.5625 430.5625 L 272 430.5625 Z M 272 73.441406 "/>
</clipPath>
<clipPath id="clip22">
  <path d="M 306 73.441406 L 430.5625 73.441406 L 430.5625 430.5625 L 306 430.5625 Z M 306 73.441406 "/>
</clipPath>
<clipPath id="clip23">
  <path d="M 340 73.441406 L 430.5625 73.441406 L 430.5625 430.5625 L 340 430.5625 Z M 340 73.441406 "/>
</clipPath>
<clipPath id="clip24">
  <path d="M 374 73.441406 L 430.5625 73.441406 L 430.5625 430.5625 L 374 430.5625 Z M 374 73.441406 "/>
</clipPath>
<clipPath id="clip25">
  <path d="M 408 73.441406 L 430.5625 73.441406 L 430.5625 430.5625 L 408 430.5625 Z M 408 73.441406 "/>
</clipPath>
<clipPath id="clip26">
  <path d="M 73.441406 73.441406 L 111 73.441406 L 111 430.5625 L 73.441406 430.5625 Z M 73.441406 73.441406 "/>
</clipPath>
<clipPath id="clip27">
  <path d="M 73.441406 73.441406 L 76 73.441406 L 76 430.5625 L 73.441406 430.5625 Z M 73.441406 73.441406 "/>
</clipPath>
<clipPath id="clip28">
  <path d="M 73.441406 73.441406 L 111 73.441406 L 111 430.5625 L 73.441406 430.5625 Z M 73.441406 73.441406 "/>
</clipPath>
<clipPath id="clip29">
  <path d="M 73.441406 73.441406 L 145 73.441406 L 145 430.5625 L 73.441406 430.5625 Z M 73.441406 73.441406 "/>
</clipPath>
<clipPath id="clip30">
  <path d="M 73.441406 73.441406 L 179 73.441406 L 179 430.5625 L 73.441406 430.5625 Z M 73.441406 73.441406 "/>
</clipPath>
<clipPath id="clip31">
  <path d="M 73.441406 73.441406 L 213 73.441406 L 213 430.5625 L 73.441406 430.5625 Z M 73.441406 73.441406 "/>
</clipPath>
<clipPath id="clip32">
  <path d="M 73.441406 73.441406 L 247 73.441406 L 247 430.5625 L 73.441406 430.5625 Z M 73.441406 73.441406 "/>
</clipPath>
<clipPath id="clip33">
  <path d="M 73.441406 73.441406 L 281 73.441406 L 281 430.5625 L 73.441406 430.5625 Z M 73.441406 73.441406 "/>
</clipPath>
<clipPath id="clip34">
  <path d="M 73.441406 73.441406 L 315 73.441406 L 315 430.5625 L 73.441406 430.5625 Z M 73.441406 73.441406 "/>
</clipPath>
<clipPath id="clip35">
  <path d="M 73.441406 73.441406 L 349 73.441406 L 349 430.5625 L 73.441406 430.5625 Z M 73.441406 73.441406 "/>
</clipPath>
<clipPath id="clip36">
  <path d="M 73.441406 73.441406 L 383 73.441406 L 383 430.5625 L 73.441406 430.5625 Z M 73.441406 73.441406 "/>
</clipPath>
<clipPath id="clip37">
  <path d="M 73.441406 73.441406 L 417 73.441406 L 417 430.5625 L 73.441406 430.5625 Z M 73.441406 73.441406 "/>
</clipPath>
<clipPath id="clip38">
  <path d="M 73.441406 73.441406 L 430.5625 73.441406 L 430.5625 430.5625 L 73.441406 430.5625 Z M 73.441406 73.441406 "/>
</clipPath>
<clipPath id="clip39">
  <path d="M 102 73.441406 L 430.5625 73.441406 L 430.5625 430.5625 L 102 430.5625 Z M 102 73.441406 "/>
</clipPath>
<clipPath id="clip40">
  <path d="M 136 73.441406 L 430.5625 73.441406 L 430.5625 430.5625 L 136 430.5625 Z M 136 73.441406 "/>
</clipPath>
<clipPath id="clip41">
  <path d="M 170 73.441406 L 430.5625 73.441406 L 430.5625 430.5625 L 170 430.5625 Z M 170 73.441406 "/>
</clipPath>
<clipPath id="clip42">
  <path d="M 204 73.441406 L 430.5625 73.441406 L 430.5625 430.5625 L 204 430.5625 Z M 204 73.441406 "/>
</clipPath>
<clipPath id="clip43">
  <path d="M 238 73.441406 L 430.5625 73.441406 L 430.5625 430.5625 L 238 430.5625 Z M 238 73.441406 "/>
</clipPath>
<clipPath id="clip44">
  <path d="M 272 73.441406 L 430.5625 73.441406 L 430.5625 430.5625 L 272 430.5625 Z M 272 73.441406 "/>
</clipPath>
<clipPath id="clip45">
  <path d="M 306 73.441406 L 430.5625 73.441406 L 430.5625 430.5625 L 306 430.5625 Z M 306 73.441406 "/>
</clipPath>
<clipPath id="clip46">
  <path d="M 340 73.441406 L 430.5625 73.441406 L 430.5625 430.5625 L 340 430.5625 Z M 340 73.441406 "/>
</clipPath>
<clipPath id="clip47">
  <path d="M 374 73.441406 L 430.5625 73.441406 L 430.5625 430.5625 L 374 430.5625 Z M 374 73.441406 "/>
</clipPath>
<clipPath id="clip48">
  <path d="M 408 73.441406 L 430.5625 73.441406 L 430.5625 430.5625 L 408 430.5625 Z M 408 73.441406 "/>
</clipPath>
<clipPath id="clip49">
  <path d="M 310.351563 310.351563 L 427.058594 310.351563 L 427.058594 427.058594 L 310.351563 427.058594 Z M 310.351563 310.351563 "/>
</clipPath>
</defs>
<g id="surface147">
<rect x="0" y="0" width="504" height="504" style="fill:rgb(100%,100%,100%);fill-opacity:1;stroke:none;"/>
<g clip-path="url(#clip1)" clip-rule="nonzero">
<rect x="0" y="0" width="504" height="504" style="fill:rgb(0%,60.392157%,80.392157%);fill-opacity:1;stroke:none;"/>
<path style="fill:none;stroke-width:2.25;stroke-linecap:round;stroke-linejoin:round;stroke:rgb(0%,0%,0%);stroke-opacity:1;stroke-miterlimit:10;" d="M -137.019531 -166.195313 L 835.53125 -166.195313 L 835.53125 806.351563 L -137.019531 806.351563 Z M -137.019531 -166.195313 "/>
</g>
<g clip-path="url(#clip2)" clip-rule="nonzero">
<path style=" stroke:none;fill-rule:nonzero;fill:rgb(100%,84.313725%,0%);fill-opacity:1;" d="M -578.121094 -91.847656 L 109.574219 595.847656 Z M -578.121094 -91.847656 "/>
</g>
<g clip-path="url(#clip3)" clip-rule="nonzero">
<path style="fill:none;stroke-width:2.25;stroke-linecap:round;stroke-linejoin:round;stroke:rgb(0%,0%,0%);stroke-opacity:1;stroke-miterlimit:10;" d="M -578.121094 -91.847656 L 109.574219 595.847656 Z M -578.121094 -91.847656 "/>
</g>
<g clip-path="url(#clip4)" clip-rule="nonzero">
<path style="fill:none;stroke-width:2.25;stroke-linecap:round;stroke-linejoin:round;stroke:rgb(0%,0%,0%);stroke-opacity:1;stroke-miterlimit:10;" d="M -475.3125 -23.078125 L 74.84375 527.078125 Z M -475.3125 -23.078125 "/>
</g>
<g clip-path="url(#clip5)" clip-rule="nonzero">
<path style="fill:none;stroke-width:2.25;stroke-linecap:round;stroke-linejoin:round;stroke:rgb(0%,0%,0%);stroke-opacity:1;stroke-miterlimit:10;" d="M -441.273438 -23.078125 L 108.882813 527.078125 Z M -441.273438 -23.078125 "/>
</g>
<g clip-path="url(#clip6)" clip-rule="nonzero">
<path style="fill:none;stroke-width:2.25;stroke-linecap:round;stroke-linejoin:round;stroke:rgb(0%,0%,0%);stroke-opacity:1;stroke-miterlimit:10;" d="M -407.234375 -23.078125 L 142.921875 527.078125 Z M -407.234375 -23.078125 "/>
</g>
<g clip-path="url(#clip7)" clip-rule="nonzero">
<path style="fill:none;stroke-width:2.25;stroke-linecap:round;stroke-linejoin:round;stroke:rgb(0%,0%,0%);stroke-opacity:1;stroke-miterlimit:10;" d="M -373.195313 -23.078125 L 176.960938 527.078125 Z M -373.195313 -23.078125 "/>
</g>
<g clip-path="url(#clip8)" clip-rule="nonzero">
<path style="fill:none;stroke-width:2.25;stroke-linecap:round;stroke-linejoin:round;stroke:rgb(0%,0%,0%);stroke-opacity:1;stroke-miterlimit:10;" d="M -339.15625 -23.078125 L 211 527.078125 Z M -339.15625 -23.078125 "/>
</g>
<g clip-path="url(#clip9)" clip-rule="nonzero">
<path style="fill:none;stroke-width:2.25;stroke-linecap:round;stroke-linejoin:round;stroke:rgb(0%,0%,0%);stroke-opacity:1;stroke-miterlimit:10;" d="M -305.117188 -23.078125 L 245.039063 527.078125 Z M -305.117188 -23.078125 "/>
</g>
<g clip-path="url(#clip10)" clip-rule="nonzero">
<path style="fill:none;stroke-width:2.25;stroke-linecap:round;stroke-linejoin:round;stroke:rgb(0%,0%,0%);stroke-opacity:1;stroke-miterlimit:10;" d="M -271.078125 -23.078125 L 279.078125 527.078125 Z M -271.078125 -23.078125 "/>
</g>
<g clip-path="url(#clip11)" clip-rule="nonzero">
<path style="fill:none;stroke-width:2.25;stroke-linecap:round;stroke-linejoin:round;stroke:rgb(0%,0%,0%);stroke-opacity:1;stroke-miterlimit:10;" d="M -237.039063 -23.078125 L 313.117188 527.078125 Z M -237.039063 -23.078125 "/>
</g>
<g clip-path="url(#clip12)" clip-rule="nonzero">
<path style="fill:none;stroke-width:2.25;stroke-linecap:round;stroke-linejoin:round;stroke:rgb(0%,0%,0%);stroke-opacity:1;stroke-miterlimit:10;" d="M -203 -23.078125 L 347.15625 527.078125 Z M -203 -23.078125 "/>
</g>
<g clip-path="url(#clip13)" clip-rule="nonzero">
<path style="fill:none;stroke-width:2.25;stroke-linecap:round;stroke-linejoin:round;stroke:rgb(0%,0%,0%);stroke-opacity:1;stroke-miterlimit:10;" d="M -168.960938 -23.078125 L 381.195313 527.078125 Z M -168.960938 -23.078125 "/>
</g>
<g clip-path="url(#clip14)" clip-rule="nonzero">
<path style="fill:none;stroke-width:2.25;stroke-linecap:round;stroke-linejoin:round;stroke:rgb(0%,0%,0%);stroke-opacity:1;stroke-miterlimit:10;" d="M -134.921875 -23.078125 L 415.234375 527.078125 Z M -134.921875 -23.078125 "/>
</g>
<g clip-path="url(#clip15)" clip-rule="nonzero">
<path style="fill:none;stroke-width:2.25;stroke-linecap:round;stroke-linejoin:round;stroke:rgb(0%,0%,0%);stroke-opacity:1;stroke-miterlimit:10;" d="M -100.882813 -23.078125 L 449.273438 527.078125 Z M -100.882813 -23.078125 "/>
<path style="fill:none;stroke-width:2.25;stroke-linecap:round;stroke-linejoin:round;stroke:rgb(0%,0%,0%);stroke-opacity:1;stroke-miterlimit:10;" d="M -66.84375 -23.078125 L 483.3125 527.078125 Z M -66.84375 -23.078125 "/>
<path style="fill:none;stroke-width:2.25;stroke-linecap:round;stroke-linejoin:round;stroke:rgb(0%,0%,0%);stroke-opacity:1;stroke-miterlimit:10;" d="M -32.804688 -23.078125 L 517.351563 527.078125 Z M -32.804688 -23.078125 "/>
<path style="fill:none;stroke-width:2.25;stroke-linecap:round;stroke-linejoin:round;stroke:rgb(0%,0%,0%);stroke-opacity:1;stroke-miterlimit:10;" d="M 1.234375 -23.078125 L 551.390625 527.078125 Z M 1.234375 -23.078125 "/>
<path style="fill:none;stroke-width:2.25;stroke-linecap:round;stroke-linejoin:round;stroke:rgb(0%,0%,0%);stroke-opacity:1;stroke-miterlimit:10;" d="M 35.273438 -23.078125 L 585.429688 527.078125 Z M 35.273438 -23.078125 "/>
<path style="fill:none;stroke-width:2.25;stroke-linecap:round;stroke-linejoin:round;stroke:rgb(0%,0%,0%);stroke-opacity:1;stroke-miterlimit:10;" d="M 69.3125 -23.078125 L 619.46875 527.078125 Z M 69.3125 -23.078125 "/>
</g>
<g clip-path="url(#clip16)" clip-rule="nonzero">
<path style="fill:none;stroke-width:2.25;stroke-linecap:round;stroke-linejoin:round;stroke:rgb(0%,0%,0%);stroke-opacity:1;stroke-miterlimit:10;" d="M 103.351563 -23.078125 L 653.511719 527.078125 Z M 103.351563 -23.078125 "/>
</g>
<g clip-path="url(#clip17)" clip-rule="nonzero">
<path style="fill:none;stroke-width:2.25;stroke-linecap:round;stroke-linejoin:round;stroke:rgb(0%,0%,0%);stroke-opacity:1;stroke-miterlimit:10;" d="M 137.390625 -23.078125 L 687.550781 527.078125 Z M 137.390625 -23.078125 "/>
</g>
<g clip-path="url(#clip18)" clip-rule="nonzero">
<path style="fill:none;stroke-width:2.25;stroke-linecap:round;stroke-linejoin:round;stroke:rgb(0%,0%,0%);stroke-opacity:1;stroke-miterlimit:10;" d="M 171.429688 -23.078125 L 721.589844 527.078125 Z M 171.429688 -23.078125 "/>
</g>
<g clip-path="url(#clip19)" clip-rule="nonzero">
<path style="fill:none;stroke-width:2.25;stroke-linecap:round;stroke-linejoin:round;stroke:rgb(0%,0%,0%);stroke-opacity:1;stroke-miterlimit:10;" d="M 205.46875 -23.078125 L 755.628906 527.078125 Z M 205.46875 -23.078125 "/>
</g>
<g clip-path="url(#clip20)" clip-rule="nonzero">
<path style="fill:none;stroke-width:2.25;stroke-linecap:round;stroke-linejoin:round;stroke:rgb(0%,0%,0%);stroke-opacity:1;stroke-miterlimit:10;" d="M 239.511719 -23.078125 L 789.667969 527.078125 Z M 239.511719 -23.078125 "/>
</g>
<g clip-path="url(#clip21)" clip-rule="nonzero">
<path style="fill:none;stroke-width:2.25;stroke-linecap:round;stroke-linejoin:round;stroke:rgb(0%,0%,0%);stroke-opacity:1;stroke-miterlimit:10;" d="M 273.550781 -23.078125 L 823.707031 527.078125 Z M 273.550781 -23.078125 "/>
</g>
<g clip-path="url(#clip22)" clip-rule="nonzero">
<path style="fill:none;stroke-width:2.25;stroke-linecap:round;stroke-linejoin:round;stroke:rgb(0%,0%,0%);stroke-opacity:1;stroke-miterlimit:10;" d="M 307.589844 -23.078125 L 857.746094 527.078125 Z M 307.589844 -23.078125 "/>
</g>
<g clip-path="url(#clip23)" clip-rule="nonzero">
<path style="fill:none;stroke-width:2.25;stroke-linecap:round;stroke-linejoin:round;stroke:rgb(0%,0%,0%);stroke-opacity:1;stroke-miterlimit:10;" d="M 341.628906 -23.078125 L 891.785156 527.078125 Z M 341.628906 -23.078125 "/>
</g>
<g clip-path="url(#clip24)" clip-rule="nonzero">
<path style="fill:none;stroke-width:2.25;stroke-linecap:round;stroke-linejoin:round;stroke:rgb(0%,0%,0%);stroke-opacity:1;stroke-miterlimit:10;" d="M 375.667969 -23.078125 L 925.824219 527.078125 Z M 375.667969 -23.078125 "/>
</g>
<g clip-path="url(#clip25)" clip-rule="nonzero">
<path style="fill:none;stroke-width:2.25;stroke-linecap:round;stroke-linejoin:round;stroke:rgb(0%,0%,0%);stroke-opacity:1;stroke-miterlimit:10;" d="M 409.707031 -23.078125 L 959.863281 527.078125 Z M 409.707031 -23.078125 "/>
</g>
<g clip-path="url(#clip26)" clip-rule="nonzero">
<path style="fill:none;stroke-width:2.25;stroke-linecap:round;stroke-linejoin:round;stroke:rgb(0%,0%,0%);stroke-opacity:1;stroke-miterlimit:10;" d="M -578.121094 595.847656 L 109.574219 -91.847656 Z M -578.121094 595.847656 "/>
</g>
<g clip-path="url(#clip27)" clip-rule="nonzero">
<path style="fill:none;stroke-width:2.25;stroke-linecap:round;stroke-linejoin:round;stroke:rgb(0%,0%,0%);stroke-opacity:1;stroke-miterlimit:10;" d="M -475.3125 527.078125 L 74.84375 -23.078125 Z M -475.3125 527.078125 "/>
</g>
<g clip-path="url(#clip28)" clip-rule="nonzero">
<path style="fill:none;stroke-width:2.25;stroke-linecap:round;stroke-linejoin:round;stroke:rgb(0%,0%,0%);stroke-opacity:1;stroke-miterlimit:10;" d="M -441.273438 527.078125 L 108.882813 -23.078125 Z M -441.273438 527.078125 "/>
</g>
<g clip-path="url(#clip29)" clip-rule="nonzero">
<path style="fill:none;stroke-width:2.25;stroke-linecap:round;stroke-linejoin:round;stroke:rgb(0%,0%,0%);stroke-opacity:1;stroke-miterlimit:10;" d="M -407.234375 527.078125 L 142.921875 -23.078125 Z M -407.234375 527.078125 "/>
</g>
<g clip-path="url(#clip30)" clip-rule="nonzero">
<path style="fill:none;stroke-width:2.25;stroke-linecap:round;stroke-linejoin:round;stroke:rgb(0%,0%,0%);stroke-opacity:1;stroke-miterlimit:10;" d="M -373.195313 527.078125 L 176.960938 -23.078125 Z M -373.195313 527.078125 "/>
</g>
<g clip-path="url(#clip31)" clip-rule="nonzero">
<path style="fill:none;stroke-width:2.25;stroke-linecap:round;stroke-linejoin:round;stroke:rgb(0%,0%,0%);stroke-opacity:1;stroke-miterlimit:10;" d="M -339.15625 527.078125 L 211 -23.078125 Z M -339.15625 527.078125 "/>
</g>
<g clip-path="url(#clip32)" clip-rule="nonzero">
<path style="fill:none;stroke-width:2.25;stroke-linecap:round;stroke-linejoin:round;stroke:rgb(0%,0%,0%);stroke-opacity:1;stroke-miterlimit:10;" d="M -305.117188 527.078125 L 245.039063 -23.078125 Z M -305.117188 527.078125 "/>
</g>
<g clip-path="url(#clip33)" clip-rule="nonzero">
<path style="fill:none;stroke-width:2.25;stroke-linecap:round;stroke-linejoin:round;stroke:rgb(0%,0%,0%);stroke-opacity:1;stroke-miterlimit:10;" d="M -271.078125 527.078125 L 279.078125 -23.078125 Z M -271.078125 527.078125 "/>
</g>
<g clip-path="url(#clip34)" clip-rule="nonzero">
<path style="fill:none;stroke-width:2.25;stroke-linecap:round;stroke-linejoin:round;stroke:rgb(0%,0%,0%);stroke-opacity:1;stroke-miterlimit:10;" d="M -237.039063 527.078125 L 313.117188 -23.078125 Z M -237.039063 527.078125 "/>
</g>
<g clip-path="url(#clip35)" clip-rule="nonzero">
<path style="fill:none;stroke-width:2.25;stroke-linecap:round;stroke-linejoin:round;stroke:rgb(0%,0%,0%);stroke-opacity:1;stroke-miterlimit:10;" d="M -203 527.078125 L 347.15625 -23.078125 Z M -203 527.078125 "/>
</g>
<g clip-path="url(#clip36)" clip-rule="nonzero">
<path style="fill:none;stroke-width:2.25;stroke-linecap:round;stroke-linejoin:round;stroke:rgb(0%,0%,0%);stroke-opacity:1;stroke-miterlimit:10;" d="M -168.960938 527.078125 L 381.195313 -23.078125 Z M -168.960938 527.078125 "/>
</g>
<g clip-path="url(#clip37)" clip-rule="nonzero">
<path style="fill:none;stroke-width:2.25;stroke-linecap:round;stroke-linejoin:round;stroke:rgb(0%,0%,0%);stroke-opacity:1;stroke-miterlimit:10;" d="M -134.921875 527.078125 L 415.234375 -23.078125 Z M -134.921875 527.078125 "/>
</g>
<g clip-path="url(#clip38)" clip-rule="nonzero">
<path style="fill:none;stroke-width:2.25;stroke-linecap:round;stroke-linejoin:round;stroke:rgb(0%,0%,0%);stroke-opacity:1;stroke-miterlimit:10;" d="M -100.882813 527.078125 L 449.273438 -23.078125 Z M -100.882813 527.078125 "/>
<path style="fill:none;stroke-width:2.25;stroke-linecap:round;stroke-linejoin:round;stroke:rgb(0%,0%,0%);stroke-opacity:1;stroke-miterlimit:10;" d="M -66.84375 527.078125 L 483.3125 -23.078125 Z M -66.84375 527.078125 "/>
<path style="fill:none;stroke-width:2.25;stroke-linecap:round;stroke-linejoin:round;stroke:rgb(0%,0%,0%);stroke-opacity:1;stroke-miterlimit:10;" d="M -32.804688 527.078125 L 517.351563 -23.078125 Z M -32.804688 527.078125 "/>
<path style="fill:none;stroke-width:2.25;stroke-linecap:round;stroke-linejoin:round;stroke:rgb(0%,0%,0%);stroke-opacity:1;stroke-miterlimit:10;" d="M 1.234375 527.078125 L 551.390625 -23.078125 Z M 1.234375 527.078125 "/>
<path style="fill:none;stroke-width:2.25;stroke-linecap:round;stroke-linejoin:round;stroke:rgb(0%,0%,0%);stroke-opacity:1;stroke-miterlimit:10;" d="M 35.273438 527.078125 L 585.429688 -23.078125 Z M 35.273438 527.078125 "/>
<path style="fill:none;stroke-width:2.25;stroke-linecap:round;stroke-linejoin:round;stroke:rgb(0%,0%,0%);stroke-opacity:1;stroke-miterlimit:10;" d="M 69.3125 527.078125 L 619.46875 -23.078125 Z M 69.3125 527.078125 "/>
</g>
<g clip-path="url(#clip39)" clip-rule="nonzero">
<path style="fill:none;stroke-width:2.25;stroke-linecap:round;stroke-linejoin:round;stroke:rgb(0%,0%,0%);stroke-opacity:1;stroke-miterlimit:10;" d="M 103.351563 527.078125 L 653.511719 -23.078125 Z M 103.351563 527.078125 "/>
</g>
<g clip-path="url(#clip40)" clip-rule="nonzero">
<path style="fill:none;stroke-width:2.25;stroke-linecap:round;stroke-linejoin:round;stroke:rgb(0%,0%,0%);stroke-opacity:1;stroke-miterlimit:10;" d="M 137.390625 527.078125 L 687.550781 -23.078125 Z M 137.390625 527.078125 "/>
</g>
<g clip-path="url(#clip41)" clip-rule="nonzero">
<path style="fill:none;stroke-width:2.25;stroke-linecap:round;stroke-linejoin:round;stroke:rgb(0%,0%,0%);stroke-opacity:1;stroke-miterlimit:10;" d="M 171.429688 527.078125 L 721.589844 -23.078125 Z M 171.429688 527.078125 "/>
</g>
<g clip-path="url(#clip42)" clip-rule="nonzero">
<path style="fill:none;stroke-width:2.25;stroke-linecap:round;stroke-linejoin:round;stroke:rgb(0%,0%,0%);stroke-opacity:1;stroke-miterlimit:10;" d="M 205.46875 527.078125 L 755.628906 -23.078125 Z M 205.46875 527.078125 "/>
</g>
<g clip-path="url(#clip43)" clip-rule="nonzero">
<path style="fill:none;stroke-width:2.25;stroke-linecap:round;stroke-linejoin:round;stroke:rgb(0%,0%,0%);stroke-opacity:1;stroke-miterlimit:10;" d="M 239.511719 527.078125 L 789.667969 -23.078125 Z M 239.511719 527.078125 "/>
</g>
<g clip-path="url(#clip44)" clip-rule="nonzero">
<path style="fill:none;stroke-width:2.25;stroke-linecap:round;stroke-linejoin:round;stroke:rgb(0%,0%,0%);stroke-opacity:1;stroke-miterlimit:10;" d="M 273.550781 527.078125 L 823.707031 -23.078125 Z M 273.550781 527.078125 "/>
</g>
<g clip-path="url(#clip45)" clip-rule="nonzero">
<path style="fill:none;stroke-width:2.25;stroke-linecap:round;stroke-linejoin:round;stroke:rgb(0%,0%,0%);stroke-opacity:1;stroke-miterlimit:10;" d="M 307.589844 527.078125 L 857.746094 -23.078125 Z M 307.589844 527.078125 "/>
</g>
<g clip-path="url(#clip46)" clip-rule="nonzero">
<path style="fill:none;stroke-width:2.25;stroke-linecap:round;stroke-linejoin:round;stroke:rgb(0%,0%,0%);stroke-opacity:1;stroke-miterlimit:10;" d="M 341.628906 527.078125 L 891.785156 -23.078125 Z M 341.628906 527.078125 "/>
</g>
<g clip-path="url(#clip47)" clip-rule="nonzero">
<path style="fill:none;stroke-width:2.25;stroke-linecap:round;stroke-linejoin:round;stroke:rgb(0%,0%,0%);stroke-opacity:1;stroke-miterlimit:10;" d="M 375.667969 527.078125 L 925.824219 -23.078125 Z M 375.667969 527.078125 "/>
</g>
<g clip-path="url(#clip48)" clip-rule="nonzero">
<path style="fill:none;stroke-width:2.25;stroke-linecap:round;stroke-linejoin:round;stroke:rgb(0%,0%,0%);stroke-opacity:1;stroke-miterlimit:10;" d="M 409.707031 527.078125 L 959.863281 -23.078125 Z M 409.707031 527.078125 "/>
</g>
<g clip-path="url(#clip49)" clip-rule="nonzero">
<path style=" stroke:none;fill-rule:nonzero;fill:rgb(100%,100%,100%);fill-opacity:1;" d="M 506.246094 231.167969 L 231.167969 231.167969 L 231.167969 506.246094 L 506.246094 506.246094 Z M 506.246094 231.167969 "/>
</g>
</g>
</svg>
