<?xml version="1.0" encoding="UTF-8"?>
<svg xmlns="http://www.w3.org/2000/svg" xmlns:xlink="http://www.w3.org/1999/xlink" width="1006pt" height="597pt" viewBox="0 0 1006 597" version="1.1">
<g id="surface681">
<rect x="0" y="0" width="1006" height="597" style="fill:rgb(100%,100%,100%);fill-opacity:1;stroke:none;"/>
<path style="fill:none;stroke-width:0.75;stroke-linecap:round;stroke-linejoin:round;stroke:rgb(0%,0%,0%);stroke-opacity:1;stroke-miterlimit:10;" d="M 530.359375 447.433594 L 532.347656 449.417969 Z M 530.359375 447.433594 "/>
<path style="fill:none;stroke-width:0.75;stroke-linecap:round;stroke-linejoin:round;stroke:rgb(0%,0%,0%);stroke-opacity:1;stroke-miterlimit:10;" d="M 530.359375 432.742188 L 547.039063 449.417969 Z M 530.359375 432.742188 "/>
<path style="fill:none;stroke-width:0.75;stroke-linecap:round;stroke-linejoin:round;stroke:rgb(0%,0%,0%);stroke-opacity:1;stroke-miterlimit:10;" d="M 530.359375 418.050781 L 561.730469 449.417969 Z M 530.359375 418.050781 "/>
<path style="fill:none;stroke-width:0.75;stroke-linecap:round;stroke-linejoin:round;stroke:rgb(0%,0%,0%);stroke-opacity:1;stroke-miterlimit:10;" d="M 530.359375 403.359375 L 576.421875 449.417969 Z M 530.359375 403.359375 "/>
<path style="fill:none;stroke-width:0.75;stroke-linecap:round;stroke-linejoin:round;stroke:rgb(0%,0%,0%);stroke-opacity:1;stroke-miterlimit:10;" d="M 530.359375 388.667969 L 591.109375 449.417969 Z M 530.359375 388.667969 "/>
<path style="fill:none;stroke-width:0.75;stroke-linecap:round;stroke-linejoin:round;stroke:rgb(0%,0%,0%);stroke-opacity:1;stroke-miterlimit:10;" d="M 530.359375 373.976563 L 605.800781 449.417969 Z M 530.359375 373.976563 "/>
<path style="fill:none;stroke-width:0.75;stroke-linecap:round;stroke-linejoin:round;stroke:rgb(0%,0%,0%);stroke-opacity:1;stroke-miterlimit:10;" d="M 530.359375 359.285156 L 620.492188 449.417969 Z M 530.359375 359.285156 "/>
<path style="fill:none;stroke-width:0.75;stroke-linecap:round;stroke-linejoin:round;stroke:rgb(0%,0%,0%);stroke-opacity:1;stroke-miterlimit:10;" d="M 530.359375 344.59375 L 635.183594 449.417969 Z M 530.359375 344.59375 "/>
<path style="fill:none;stroke-width:0.75;stroke-linecap:round;stroke-linejoin:round;stroke:rgb(0%,0%,0%);stroke-opacity:1;stroke-miterlimit:10;" d="M 530.359375 329.902344 L 649.875 449.417969 Z M 530.359375 329.902344 "/>
<path style="fill:none;stroke-width:0.75;stroke-linecap:round;stroke-linejoin:round;stroke:rgb(0%,0%,0%);stroke-opacity:1;stroke-miterlimit:10;" d="M 530.359375 315.214844 L 661.035156 445.886719 Z M 530.359375 315.214844 "/>
<path style="fill:none;stroke-width:0.75;stroke-linecap:round;stroke-linejoin:round;stroke:rgb(0%,0%,0%);stroke-opacity:1;stroke-miterlimit:10;" d="M 530.359375 300.523438 L 664.636719 434.800781 Z M 530.359375 300.523438 "/>
<path style="fill:none;stroke-width:0.75;stroke-linecap:round;stroke-linejoin:round;stroke:rgb(0%,0%,0%);stroke-opacity:1;stroke-miterlimit:10;" d="M 530.359375 285.832031 L 668.238281 423.710938 Z M 530.359375 285.832031 "/>
<path style="fill:none;stroke-width:0.75;stroke-linecap:round;stroke-linejoin:round;stroke:rgb(0%,0%,0%);stroke-opacity:1;stroke-miterlimit:10;" d="M 530.359375 271.140625 L 671.84375 412.621094 Z M 530.359375 271.140625 "/>
<path style="fill:none;stroke-width:0.75;stroke-linecap:round;stroke-linejoin:round;stroke:rgb(0%,0%,0%);stroke-opacity:1;stroke-miterlimit:10;" d="M 530.359375 256.449219 L 675.445313 401.535156 Z M 530.359375 256.449219 "/>
<path style="fill:none;stroke-width:0.75;stroke-linecap:round;stroke-linejoin:round;stroke:rgb(0%,0%,0%);stroke-opacity:1;stroke-miterlimit:10;" d="M 530.359375 241.757813 L 679.046875 390.445313 Z M 530.359375 241.757813 "/>
<path style="fill:none;stroke-width:0.75;stroke-linecap:round;stroke-linejoin:round;stroke:rgb(0%,0%,0%);stroke-opacity:1;stroke-miterlimit:10;" d="M 530.359375 227.066406 L 682.652344 379.359375 Z M 530.359375 227.066406 "/>
<path style="fill:none;stroke-width:0.75;stroke-linecap:round;stroke-linejoin:round;stroke:rgb(0%,0%,0%);stroke-opacity:1;stroke-miterlimit:10;" d="M 530.359375 212.375 L 686.253906 368.269531 Z M 530.359375 212.375 "/>
<path style="fill:none;stroke-width:0.75;stroke-linecap:round;stroke-linejoin:round;stroke:rgb(0%,0%,0%);stroke-opacity:1;stroke-miterlimit:10;" d="M 530.359375 197.683594 L 689.855469 357.183594 Z M 530.359375 197.683594 "/>
<path style="fill:none;stroke-width:0.75;stroke-linecap:round;stroke-linejoin:round;stroke:rgb(0%,0%,0%);stroke-opacity:1;stroke-miterlimit:10;" d="M 530.359375 182.996094 L 693.460938 346.09375 Z M 530.359375 182.996094 "/>
<path style="fill:none;stroke-width:0.75;stroke-linecap:round;stroke-linejoin:round;stroke:rgb(0%,0%,0%);stroke-opacity:1;stroke-miterlimit:10;" d="M 530.359375 168.304688 L 697.0625 335.003906 Z M 530.359375 168.304688 "/>
<path style="fill:none;stroke-width:0.75;stroke-linecap:round;stroke-linejoin:round;stroke:rgb(0%,0%,0%);stroke-opacity:1;stroke-miterlimit:10;" d="M 530.359375 153.613281 L 700.664063 323.917969 Z M 530.359375 153.613281 "/>
<path style="fill:none;stroke-width:0.75;stroke-linecap:round;stroke-linejoin:round;stroke:rgb(0%,0%,0%);stroke-opacity:1;stroke-miterlimit:10;" d="M 530.359375 138.921875 L 704.269531 312.828125 Z M 530.359375 138.921875 "/>
<path style="fill:none;stroke-width:0.75;stroke-linecap:round;stroke-linejoin:round;stroke:rgb(0%,0%,0%);stroke-opacity:1;stroke-miterlimit:10;" d="M 530.359375 124.230469 L 707.871094 301.742188 Z M 530.359375 124.230469 "/>
<path style="fill:none;stroke-width:0.75;stroke-linecap:round;stroke-linejoin:round;stroke:rgb(0%,0%,0%);stroke-opacity:1;stroke-miterlimit:10;" d="M 530.359375 109.539063 L 711.472656 290.652344 Z M 530.359375 109.539063 "/>
<path style="fill:none;stroke-width:0.75;stroke-linecap:round;stroke-linejoin:round;stroke:rgb(0%,0%,0%);stroke-opacity:1;stroke-miterlimit:10;" d="M 530.359375 94.847656 L 715.074219 279.5625 Z M 530.359375 94.847656 "/>
<path style="fill:none;stroke-width:0.75;stroke-linecap:round;stroke-linejoin:round;stroke:rgb(0%,0%,0%);stroke-opacity:1;stroke-miterlimit:10;" d="M 530.359375 80.15625 L 718.679688 268.476563 Z M 530.359375 80.15625 "/>
<path style="fill:none;stroke-width:0.75;stroke-linecap:round;stroke-linejoin:round;stroke:rgb(0%,0%,0%);stroke-opacity:1;stroke-miterlimit:10;" d="M 530.359375 65.464844 L 722.28125 257.386719 Z M 530.359375 65.464844 "/>
<path style="fill:none;stroke-width:0.75;stroke-linecap:round;stroke-linejoin:round;stroke:rgb(0%,0%,0%);stroke-opacity:1;stroke-miterlimit:10;" d="M 530.359375 50.777344 L 725.882813 246.300781 Z M 530.359375 50.777344 "/>
<path style="fill:none;stroke-width:0.75;stroke-linecap:round;stroke-linejoin:round;stroke:rgb(0%,0%,0%);stroke-opacity:1;stroke-miterlimit:10;" d="M 729.488281 235.210938 L 584.082031 89.808594 Z M 729.488281 235.210938 "/>
<path style="fill:none;stroke-width:0.75;stroke-linecap:round;stroke-linejoin:round;stroke:rgb(0%,0%,0%);stroke-opacity:1;stroke-miterlimit:10;" d="M 733.089844 224.125 L 637.804688 128.839844 Z M 733.089844 224.125 "/>
<path style="fill:none;stroke-width:0.75;stroke-linecap:round;stroke-linejoin:round;stroke:rgb(0%,0%,0%);stroke-opacity:1;stroke-miterlimit:10;" d="M 736.691406 213.035156 L 691.527344 167.871094 Z M 736.691406 213.035156 "/>
<path style="fill:none;stroke-width:2.25;stroke-linecap:round;stroke-linejoin:round;stroke:rgb(0%,0%,0%);stroke-opacity:1;stroke-miterlimit:10;" d="M 530.359375 50.777344 L 320.78125 203.042969 L 400.832031 449.417969 L 659.886719 449.417969 L 739.9375 203.042969 Z M 530.359375 50.777344 "/>
<path style="fill:none;stroke-width:2.25;stroke-linecap:round;stroke-linejoin:round;stroke:rgb(0%,0%,0%);stroke-opacity:1;stroke-miterlimit:10;" d="M 941.707031 491.503906 L 941.707031 50.777344 Z M 941.707031 491.503906 "/>
<path style="fill:none;stroke-width:2.25;stroke-linecap:round;stroke-linejoin:round;stroke:rgb(0%,0%,0%);stroke-opacity:1;stroke-miterlimit:10;" d="M 119.011719 491.503906 L 119.011719 50.777344 Z M 119.011719 491.503906 "/>
<path style="fill:none;stroke-width:2.25;stroke-linecap:round;stroke-linejoin:round;stroke:rgb(0%,0%,0%);stroke-opacity:1;stroke-miterlimit:10;" d="M 89.628906 491.503906 L 971.089844 491.503906 Z M 89.628906 491.503906 "/>
<path style="fill:none;stroke-width:1.5;stroke-linecap:round;stroke-linejoin:round;stroke:rgb(0%,0%,0%);stroke-opacity:1;stroke-miterlimit:10;" d="M 677.269531 271.140625 L 676.980469 261.914063 L 676.109375 252.726563 L 674.667969 243.613281 L 672.652344 234.605469 L 670.078125 225.742188 L 666.953125 217.058594 L 663.289063 208.589844 L 659.097656 200.367188 L 654.398438 192.421875 L 649.210938 184.789063 L 643.554688 177.496094 L 637.453125 170.574219 L 630.925781 164.046875 L 624.003906 157.945313 L 616.710938 152.289063 L 609.078125 147.101563 L 601.132813 142.402344 L 592.910156 138.210938 L 584.441406 134.546875 L 575.757813 131.421875 L 566.894531 128.847656 L 557.886719 126.832031 L 548.773438 125.390625 L 539.585938 124.519531 L 530.359375 124.230469 L 521.136719 124.519531 L 511.949219 125.390625 L 502.832031 126.832031 L 493.824219 128.847656 L 484.960938 131.421875 L 476.277344 134.546875 L 467.808594 138.210938 L 459.585938 142.402344 L 451.640625 147.101563 L 444.007813 152.289063 L 436.714844 157.945313 L 429.792969 164.046875 L 423.265625 170.574219 L 417.164063 177.496094 L 411.507813 184.789063 L 406.320313 192.421875 L 401.621094 200.367188 L 397.433594 208.589844 L 393.765625 217.058594 L 390.640625 225.742188 L 388.066406 234.605469 L 386.050781 243.613281 L 384.609375 252.726563 L 383.738281 261.914063 L 383.449219 271.140625 L 383.738281 280.363281 L 384.609375 289.550781 L 386.050781 298.667969 L 388.066406 307.675781 L 390.640625 316.539063 L 393.765625 325.222656 L 397.433594 333.691406 L 401.621094 341.914063 L 406.320313 349.859375 L 411.507813 357.492188 L 417.164063 364.785156 L 423.265625 371.707031 L 429.792969 378.234375 L 436.714844 384.335938 L 444.007813 389.992188 L 451.640625 395.179688 L 459.585938 399.878906 L 467.808594 404.066406 L 476.277344 407.734375 L 484.960938 410.859375 L 493.824219 413.433594 L 502.832031 415.449219 L 511.949219 416.890625 L 521.136719 417.761719 L 530.359375 418.050781 L 539.585938 417.761719 L 548.773438 416.890625 L 557.886719 415.449219 L 566.894531 413.433594 L 575.757813 410.859375 L 584.441406 407.734375 L 592.910156 404.066406 L 601.132813 399.878906 L 609.078125 395.179688 L 616.710938 389.992188 L 624.003906 384.335938 L 630.925781 378.234375 L 637.453125 371.707031 L 643.554688 364.785156 L 649.210938 357.492188 L 654.398438 349.859375 L 659.097656 341.914063 L 663.289063 333.691406 L 666.953125 325.222656 L 670.078125 316.539063 L 672.652344 307.675781 L 674.667969 298.667969 L 676.109375 289.550781 L 676.980469 280.363281 Z M 677.269531 271.140625 "/>
</g>
</svg>
