<?xml version="1.0" encoding="UTF-8"?>
<svg xmlns="http://www.w3.org/2000/svg" xmlns:xlink="http://www.w3.org/1999/xlink" width="504pt" height="504pt" viewBox="0 0 504 504" version="1.1">
<g id="surface2111">
<rect x="0" y="0" width="504" height="504" style="fill:rgb(100%,100%,100%);fill-opacity:1;stroke:none;"/>
<path style="fill-rule:nonzero;fill:rgb(74.509804%,74.509804%,74.509804%);fill-opacity:1;stroke-width:2.25;stroke-linecap:round;stroke-linejoin:round;stroke:rgb(0%,0%,0%);stroke-opacity:1;stroke-miterlimit:10;" d="M 456.175781 47.824219 L 47.824219 47.824219 L 47.824219 456.175781 L 456.175781 456.175781 Z M 456.175781 47.824219 "/>
<path style="fill-rule:nonzero;fill:rgb(100%,100%,100%);fill-opacity:1;stroke-width:2.25;stroke-linecap:round;stroke-linejoin:round;stroke:rgb(0%,0%,0%);stroke-opacity:1;stroke-miterlimit:10;" d="M 252 152.695313 L 250.425781 152.707031 L 248.847656 152.746094 L 247.273438 152.808594 L 245.703125 152.894531 L 244.128906 153.007813 L 242.558594 153.144531 L 240.992188 153.304688 L 239.429688 153.492188 L 237.867188 153.707031 L 236.308594 153.941406 L 234.753906 154.203125 L 233.207031 154.488281 L 231.660156 154.800781 L 230.121094 155.132813 L 228.585938 155.492188 L 227.058594 155.878906 L 225.539063 156.285156 L 224.023438 156.71875 L 222.515625 157.171875 L 221.011719 157.652344 L 219.519531 158.15625 L 218.035156 158.683594 L 216.558594 159.234375 L 215.09375 159.808594 L 213.632813 160.40625 L 212.183594 161.023438 L 210.746094 161.667969 L 209.320313 162.335938 L 207.902344 163.023438 L 206.496094 163.734375 L 205.101563 164.464844 L 203.71875 165.222656 L 202.347656 166 L 200.988281 166.796875 L 199.644531 167.617188 L 198.3125 168.457031 L 196.992188 169.320313 L 195.6875 170.203125 L 194.398438 171.109375 L 193.121094 172.03125 L 191.859375 172.976563 L 190.613281 173.941406 L 189.382813 174.925781 L 188.167969 175.925781 L 186.96875 176.949219 L 185.785156 177.992188 L 184.621094 179.050781 L 183.472656 180.128906 L 182.339844 181.226563 L 181.226563 182.339844 L 180.128906 183.472656 L 179.050781 184.621094 L 177.992188 185.785156 L 176.949219 186.96875 L 175.925781 188.167969 L 174.925781 189.382813 L 173.941406 190.613281 L 172.976563 191.859375 L 172.03125 193.121094 L 171.109375 194.398438 L 170.203125 195.6875 L 169.320313 196.992188 L 168.457031 198.3125 L 167.617188 199.644531 L 166.796875 200.988281 L 166 202.347656 L 165.222656 203.71875 L 164.464844 205.101563 L 163.734375 206.496094 L 163.023438 207.902344 L 162.335938 209.320313 L 161.667969 210.746094 L 161.023438 212.183594 L 160.40625 213.632813 L 159.808594 215.09375 L 159.234375 216.558594 L 158.683594 218.035156 L 158.15625 219.519531 L 157.652344 221.011719 L 157.171875 222.515625 L 156.71875 224.023438 L 156.285156 225.539063 L 155.878906 227.058594 L 155.492188 228.585938 L 155.132813 230.121094 L 154.800781 231.660156 L 154.488281 233.207031 L 154.203125 234.753906 L 153.941406 236.308594 L 153.707031 237.867188 L 153.492188 239.429688 L 153.304688 240.992188 L 153.144531 242.558594 L 153.007813 244.128906 L 152.894531 245.703125 L 152.808594 247.273438 L 152.746094 248.847656 L 152.707031 250.425781 L 152.695313 252 L 252 252 Z M 252 152.695313 "/>
</g>
</svg>
