<?xml version="1.0" encoding="UTF-8"?>
<svg xmlns="http://www.w3.org/2000/svg" xmlns:xlink="http://www.w3.org/1999/xlink" width="504pt" height="504pt" viewBox="0 0 504 504" version="1.1">
<g id="surface2471">
<rect x="0" y="0" width="504" height="504" style="fill:rgb(100%,100%,100%);fill-opacity:1;stroke:none;"/>
<path style="fill:none;stroke-width:0.75;stroke-linecap:round;stroke-linejoin:round;stroke:rgb(0%,0%,0%);stroke-opacity:1;stroke-miterlimit:10;" d="M 252 320.75 L 264.722656 333.472656 Z M 252 320.75 "/>
<path style="fill:none;stroke-width:0.75;stroke-linecap:round;stroke-linejoin:round;stroke:rgb(0%,0%,0%);stroke-opacity:1;stroke-miterlimit:10;" d="M 252 307 L 275.917969 330.917969 Z M 252 307 "/>
<path style="fill:none;stroke-width:0.75;stroke-linecap:round;stroke-linejoin:round;stroke:rgb(0%,0%,0%);stroke-opacity:1;stroke-miterlimit:10;" d="M 252 293.25 L 285.921875 327.171875 Z M 252 293.25 "/>
<path style="fill:none;stroke-width:0.75;stroke-linecap:round;stroke-linejoin:round;stroke:rgb(0%,0%,0%);stroke-opacity:1;stroke-miterlimit:10;" d="M 252 279.5 L 294.917969 322.417969 Z M 252 279.5 "/>
<path style="fill:none;stroke-width:0.75;stroke-linecap:round;stroke-linejoin:round;stroke:rgb(0%,0%,0%);stroke-opacity:1;stroke-miterlimit:10;" d="M 252 265.75 L 303.027344 316.777344 Z M 252 265.75 "/>
<path style="fill:none;stroke-width:0.75;stroke-linecap:round;stroke-linejoin:round;stroke:rgb(0%,0%,0%);stroke-opacity:1;stroke-miterlimit:10;" d="M 252 252 L 310.308594 310.308594 Z M 252 252 "/>
<path style="fill:none;stroke-width:0.75;stroke-linecap:round;stroke-linejoin:round;stroke:rgb(0%,0%,0%);stroke-opacity:1;stroke-miterlimit:10;" d="M 252 238.25 L 316.777344 303.027344 Z M 252 238.25 "/>
<path style="fill:none;stroke-width:0.75;stroke-linecap:round;stroke-linejoin:round;stroke:rgb(0%,0%,0%);stroke-opacity:1;stroke-miterlimit:10;" d="M 252 224.5 L 322.417969 294.917969 Z M 252 224.5 "/>
<path style="fill:none;stroke-width:0.75;stroke-linecap:round;stroke-linejoin:round;stroke:rgb(0%,0%,0%);stroke-opacity:1;stroke-miterlimit:10;" d="M 252 210.75 L 327.171875 285.921875 Z M 252 210.75 "/>
<path style="fill:none;stroke-width:0.75;stroke-linecap:round;stroke-linejoin:round;stroke:rgb(0%,0%,0%);stroke-opacity:1;stroke-miterlimit:10;" d="M 252 197 L 330.917969 275.917969 Z M 252 197 "/>
<path style="fill:none;stroke-width:0.75;stroke-linecap:round;stroke-linejoin:round;stroke:rgb(0%,0%,0%);stroke-opacity:1;stroke-miterlimit:10;" d="M 252 183.25 L 333.472656 264.722656 Z M 252 183.25 "/>
<path style="fill:none;stroke-width:0.75;stroke-linecap:round;stroke-linejoin:round;stroke:rgb(0%,0%,0%);stroke-opacity:1;stroke-miterlimit:10;" d="M 334.5 252 L 252 169.5 Z M 334.5 252 "/>
<path style="fill:none;stroke-width:0.75;stroke-linecap:round;stroke-linejoin:round;stroke:rgb(0%,0%,0%);stroke-opacity:1;stroke-miterlimit:10;" d="M 333.085938 236.835938 L 267.164063 170.914063 Z M 333.085938 236.835938 "/>
<path style="fill:none;stroke-width:0.75;stroke-linecap:round;stroke-linejoin:round;stroke:rgb(0%,0%,0%);stroke-opacity:1;stroke-miterlimit:10;" d="M 326.414063 216.414063 L 287.585938 177.585938 Z M 326.414063 216.414063 "/>
<path style="fill:none;stroke-width:0.75;stroke-linecap:round;stroke-linejoin:round;stroke:rgb(0%,0%,0%);stroke-opacity:1;stroke-miterlimit:10;" d="M 177.585938 287.585938 L 216.414063 326.414063 Z M 177.585938 287.585938 "/>
<path style="fill:none;stroke-width:0.75;stroke-linecap:round;stroke-linejoin:round;stroke:rgb(0%,0%,0%);stroke-opacity:1;stroke-miterlimit:10;" d="M 170.914063 267.164063 L 236.835938 333.085938 Z M 170.914063 267.164063 "/>
<path style="fill:none;stroke-width:0.75;stroke-linecap:round;stroke-linejoin:round;stroke:rgb(0%,0%,0%);stroke-opacity:1;stroke-miterlimit:10;" d="M 170.527344 239.277344 L 252 320.75 Z M 170.527344 239.277344 "/>
<path style="fill:none;stroke-width:0.75;stroke-linecap:round;stroke-linejoin:round;stroke:rgb(0%,0%,0%);stroke-opacity:1;stroke-miterlimit:10;" d="M 173.082031 228.082031 L 252 307 Z M 173.082031 228.082031 "/>
<path style="fill:none;stroke-width:0.75;stroke-linecap:round;stroke-linejoin:round;stroke:rgb(0%,0%,0%);stroke-opacity:1;stroke-miterlimit:10;" d="M 176.828125 218.078125 L 252 293.25 Z M 176.828125 218.078125 "/>
<path style="fill:none;stroke-width:0.75;stroke-linecap:round;stroke-linejoin:round;stroke:rgb(0%,0%,0%);stroke-opacity:1;stroke-miterlimit:10;" d="M 181.582031 209.082031 L 252 279.5 Z M 181.582031 209.082031 "/>
<path style="fill:none;stroke-width:0.75;stroke-linecap:round;stroke-linejoin:round;stroke:rgb(0%,0%,0%);stroke-opacity:1;stroke-miterlimit:10;" d="M 187.222656 200.972656 L 252 265.75 Z M 187.222656 200.972656 "/>
<path style="fill:none;stroke-width:0.75;stroke-linecap:round;stroke-linejoin:round;stroke:rgb(0%,0%,0%);stroke-opacity:1;stroke-miterlimit:10;" d="M 252 252 L 193.691406 193.691406 Z M 252 252 "/>
<path style="fill:none;stroke-width:0.75;stroke-linecap:round;stroke-linejoin:round;stroke:rgb(0%,0%,0%);stroke-opacity:1;stroke-miterlimit:10;" d="M 252 238.25 L 200.972656 187.222656 Z M 252 238.25 "/>
<path style="fill:none;stroke-width:0.75;stroke-linecap:round;stroke-linejoin:round;stroke:rgb(0%,0%,0%);stroke-opacity:1;stroke-miterlimit:10;" d="M 252 224.5 L 209.082031 181.582031 Z M 252 224.5 "/>
<path style="fill:none;stroke-width:0.75;stroke-linecap:round;stroke-linejoin:round;stroke:rgb(0%,0%,0%);stroke-opacity:1;stroke-miterlimit:10;" d="M 252 210.75 L 218.078125 176.828125 Z M 252 210.75 "/>
<path style="fill:none;stroke-width:0.75;stroke-linecap:round;stroke-linejoin:round;stroke:rgb(0%,0%,0%);stroke-opacity:1;stroke-miterlimit:10;" d="M 252 197 L 228.082031 173.082031 Z M 252 197 "/>
<path style="fill:none;stroke-width:0.75;stroke-linecap:round;stroke-linejoin:round;stroke:rgb(0%,0%,0%);stroke-opacity:1;stroke-miterlimit:10;" d="M 252 183.25 L 239.277344 170.527344 Z M 252 183.25 "/>
<path style="fill:none;stroke-width:1.5;stroke-linecap:round;stroke-linejoin:round;stroke:rgb(0%,0%,0%);stroke-opacity:1;stroke-miterlimit:10;" d="M 334.5 252 L 334.335938 246.820313 L 333.847656 241.660156 L 333.039063 236.542969 L 331.90625 231.484375 L 330.460938 226.507813 L 328.707031 221.628906 L 326.648438 216.875 L 324.296875 212.253906 L 321.65625 207.792969 L 318.742188 203.507813 L 315.566406 199.414063 L 312.140625 195.523438 L 308.476563 191.859375 L 304.585938 188.433594 L 300.492188 185.257813 L 296.207031 182.34375 L 291.746094 179.703125 L 287.125 177.351563 L 282.371094 175.292969 L 277.492188 173.539063 L 272.515625 172.09375 L 267.457031 170.960938 L 262.339844 170.152344 L 257.179688 169.664063 L 252 169.5 L 246.820313 169.664063 L 241.660156 170.152344 L 236.542969 170.960938 L 231.484375 172.09375 L 226.507813 173.539063 L 221.628906 175.292969 L 216.875 177.351563 L 212.253906 179.703125 L 207.792969 182.34375 L 203.507813 185.257813 L 199.414063 188.433594 L 195.523438 191.859375 L 191.859375 195.523438 L 188.433594 199.414063 L 185.257813 203.507813 L 182.34375 207.792969 L 179.703125 212.253906 L 177.351563 216.875 L 175.292969 221.628906 L 173.539063 226.507813 L 172.09375 231.484375 L 170.960938 236.542969 L 170.152344 241.660156 L 169.664063 246.820313 L 169.5 252 L 169.664063 257.179688 L 170.152344 262.339844 L 170.960938 267.457031 L 172.09375 272.515625 L 173.539063 277.492188 L 175.292969 282.371094 L 177.351563 287.125 L 179.703125 291.746094 L 182.34375 296.207031 L 185.257813 300.492188 L 188.433594 304.585938 L 191.859375 308.476563 L 195.523438 312.140625 L 199.414063 315.566406 L 203.507813 318.742188 L 207.792969 321.65625 L 212.253906 324.296875 L 216.875 326.648438 L 221.628906 328.707031 L 226.507813 330.460938 L 231.484375 331.90625 L 236.542969 333.039063 L 241.660156 333.847656 L 246.820313 334.335938 L 252 334.5 L 257.179688 334.335938 L 262.339844 333.847656 L 267.457031 333.039063 L 272.515625 331.90625 L 277.492188 330.460938 L 282.371094 328.707031 L 287.125 326.648438 L 291.746094 324.296875 L 296.207031 321.65625 L 300.492188 318.742188 L 304.585938 315.566406 L 308.476563 312.140625 L 312.140625 308.476563 L 315.566406 304.585938 L 318.742188 300.492188 L 321.65625 296.207031 L 324.296875 291.746094 L 326.648438 287.125 L 328.707031 282.371094 L 330.460938 277.492188 L 331.90625 272.515625 L 333.039063 267.457031 L 333.847656 262.339844 L 334.335938 257.179688 Z M 334.5 252 "/>
<path style="fill:none;stroke-width:2.25;stroke-linecap:round;stroke-linejoin:round;stroke:rgb(0%,0%,0%);stroke-opacity:1;stroke-miterlimit:10;" d="M 106.160156 106.160156 L 52.777344 305.382813 L 198.617188 451.222656 L 397.839844 397.839844 L 451.222656 198.617188 L 305.382813 52.777344 Z M 106.160156 106.160156 "/>
</g>
</svg>
