<?xml version="1.0" encoding="UTF-8"?>
<svg xmlns="http://www.w3.org/2000/svg" xmlns:xlink="http://www.w3.org/1999/xlink" width="504pt" height="504pt" viewBox="0 0 504 504" version="1.1">
<g id="surface2186">
<rect x="0" y="0" width="504" height="504" style="fill:rgb(100%,100%,100%);fill-opacity:1;stroke:none;"/>
<path style="fill:none;stroke-width:2.25;stroke-linecap:round;stroke-linejoin:round;stroke:rgb(0%,0%,0%);stroke-opacity:1;stroke-miterlimit:10;" d="M 446.453125 57.546875 L 57.546875 57.546875 L 57.546875 446.453125 L 446.453125 446.453125 Z M 446.453125 57.546875 "/>
<path style="fill:none;stroke-width:2.25;stroke-linecap:round;stroke-linejoin:round;stroke:rgb(0%,0%,0%);stroke-opacity:1;stroke-miterlimit:10;" d="M 183.25 132.921875 L 183.25 371.078125 L 389.5 252 Z M 183.25 132.921875 "/>
<path style="fill-rule:nonzero;fill:rgb(0%,0%,0%);fill-opacity:1;stroke-width:1.5;stroke-linecap:round;stroke-linejoin:round;stroke:rgb(0%,0%,0%);stroke-opacity:1;stroke-miterlimit:10;" d="M 279.5 252 L 279.445313 250.273438 L 279.28125 248.554688 L 279.011719 246.847656 L 278.636719 245.160156 L 278.152344 243.503906 L 277.570313 241.875 L 276.882813 240.292969 L 276.097656 238.75 L 275.21875 237.265625 L 274.246094 235.835938 L 273.1875 234.472656 L 272.046875 233.175781 L 270.824219 231.953125 L 269.527344 230.8125 L 268.164063 229.753906 L 266.734375 228.78125 L 265.25 227.902344 L 263.707031 227.117188 L 262.125 226.429688 L 260.496094 225.847656 L 258.839844 225.363281 L 257.152344 224.988281 L 255.445313 224.71875 L 253.726563 224.554688 L 252 224.5 L 250.273438 224.554688 L 248.554688 224.71875 L 246.847656 224.988281 L 245.160156 225.363281 L 243.503906 225.847656 L 241.875 226.429688 L 240.292969 227.117188 L 238.75 227.902344 L 237.265625 228.78125 L 235.835938 229.753906 L 234.472656 230.8125 L 233.175781 231.953125 L 231.953125 233.175781 L 230.8125 234.472656 L 229.753906 235.835938 L 228.78125 237.265625 L 227.902344 238.75 L 227.117188 240.292969 L 226.429688 241.875 L 225.847656 243.503906 L 225.363281 245.160156 L 224.988281 246.847656 L 224.71875 248.554688 L 224.554688 250.273438 L 224.5 252 L 224.554688 253.726563 L 224.71875 255.445313 L 224.988281 257.152344 L 225.363281 258.839844 L 225.847656 260.496094 L 226.429688 262.125 L 227.117188 263.707031 L 227.902344 265.25 L 228.78125 266.734375 L 229.753906 268.164063 L 230.8125 269.527344 L 231.953125 270.824219 L 233.175781 272.046875 L 234.472656 273.1875 L 235.835938 274.246094 L 237.265625 275.21875 L 238.75 276.097656 L 240.292969 276.882813 L 241.875 277.570313 L 243.503906 278.152344 L 245.160156 278.636719 L 246.847656 279.011719 L 248.554688 279.28125 L 250.273438 279.445313 L 252 279.5 L 253.726563 279.445313 L 255.445313 279.28125 L 257.152344 279.011719 L 258.839844 278.636719 L 260.496094 278.152344 L 262.125 277.570313 L 263.707031 276.882813 L 265.25 276.097656 L 266.734375 275.21875 L 268.164063 274.246094 L 269.527344 273.1875 L 270.824219 272.046875 L 272.046875 270.824219 L 273.1875 269.527344 L 274.246094 268.164063 L 275.21875 266.734375 L 276.097656 265.25 L 276.882813 263.707031 L 277.570313 262.125 L 278.152344 260.496094 L 278.636719 258.839844 L 279.011719 257.152344 L 279.28125 255.445313 L 279.445313 253.726563 Z M 279.5 252 "/>
</g>
</svg>
