<?xml version="1.0" encoding="UTF-8"?>
<svg xmlns="http://www.w3.org/2000/svg" xmlns:xlink="http://www.w3.org/1999/xlink" width="504pt" height="504pt" viewBox="0 0 504 504" version="1.1">
<g id="surface2201">
<rect x="0" y="0" width="504" height="504" style="fill:rgb(100%,100%,100%);fill-opacity:1;stroke:none;"/>
<path style="fill:none;stroke-width:2.25;stroke-linecap:round;stroke-linejoin:round;stroke:rgb(0%,0%,0%);stroke-opacity:1;stroke-miterlimit:10;" d="M 446.453125 57.546875 L 57.546875 57.546875 L 57.546875 446.453125 L 446.453125 446.453125 Z M 446.453125 57.546875 "/>
<path style="fill:none;stroke-width:2.25;stroke-linecap:round;stroke-linejoin:round;stroke:rgb(0%,0%,0%);stroke-opacity:1;stroke-miterlimit:10;" d="M 355.125 148.875 L 353.476563 147.25 L 351.800781 145.65625 L 350.101563 144.085938 L 348.375 142.542969 L 346.628906 141.027344 L 344.855469 139.539063 L 343.058594 138.082031 L 341.242188 136.648438 L 339.398438 135.25 L 337.535156 133.875 L 335.652344 132.535156 L 333.746094 131.222656 L 331.816406 129.941406 L 329.871094 128.6875 L 327.90625 127.46875 L 325.921875 126.28125 L 323.917969 125.125 L 321.894531 124 L 319.855469 122.90625 L 317.796875 121.84375 L 315.722656 120.816406 L 313.636719 119.824219 L 311.53125 118.863281 L 309.410156 117.933594 L 307.277344 117.039063 L 305.128906 116.179688 L 302.964844 115.355469 L 300.792969 114.5625 L 298.605469 113.804688 L 296.40625 113.085938 L 294.195313 112.398438 L 291.976563 111.746094 L 289.746094 111.128906 L 287.507813 110.546875 L 285.257813 110 L 283 109.492188 L 280.734375 109.019531 L 278.464844 108.582031 L 276.183594 108.179688 L 273.898438 107.8125 L 271.609375 107.484375 L 269.3125 107.191406 L 267.015625 106.933594 L 264.710938 106.714844 L 262.402344 106.53125 L 260.09375 106.382813 L 257.785156 106.273438 L 255.46875 106.199219 L 253.15625 106.164063 L 250.84375 106.164063 L 248.53125 106.199219 L 246.214844 106.273438 L 243.90625 106.382813 L 241.597656 106.53125 L 239.289063 106.714844 L 236.984375 106.933594 L 234.6875 107.191406 L 232.390625 107.484375 L 230.101563 107.8125 L 227.816406 108.179688 L 225.535156 108.582031 L 223.265625 109.019531 L 221 109.492188 L 218.742188 110 L 216.492188 110.546875 L 214.253906 111.128906 L 212.023438 111.746094 L 209.804688 112.398438 L 207.59375 113.085938 L 205.394531 113.804688 L 203.207031 114.5625 L 201.035156 115.355469 L 198.871094 116.179688 L 196.722656 117.039063 L 194.589844 117.933594 L 192.46875 118.863281 L 190.363281 119.824219 L 188.277344 120.816406 L 186.203125 121.84375 L 184.144531 122.90625 L 182.105469 124 L 180.082031 125.125 L 178.078125 126.28125 L 176.09375 127.46875 L 174.128906 128.6875 L 172.183594 129.941406 L 170.253906 131.222656 L 168.347656 132.535156 L 166.464844 133.875 L 164.601563 135.25 L 162.757813 136.648438 L 160.941406 138.082031 L 159.144531 139.539063 L 157.371094 141.027344 L 155.625 142.542969 L 153.898438 144.085938 L 152.199219 145.65625 L 150.523438 147.25 L 148.875 148.875 L 252 252 Z M 355.125 148.875 "/>
<path style="fill-rule:nonzero;fill:rgb(100%,100%,100%);fill-opacity:1;stroke-width:1.5;stroke-linecap:round;stroke-linejoin:round;stroke:rgb(0%,0%,0%);stroke-opacity:1;stroke-miterlimit:10;" d="M 279.5 252 L 279.445313 250.273438 L 279.28125 248.554688 L 279.011719 246.847656 L 278.636719 245.160156 L 278.152344 243.503906 L 277.570313 241.875 L 276.882813 240.292969 L 276.097656 238.75 L 275.21875 237.265625 L 274.246094 235.835938 L 273.1875 234.472656 L 272.046875 233.175781 L 270.824219 231.953125 L 269.527344 230.8125 L 268.164063 229.753906 L 266.734375 228.78125 L 265.25 227.902344 L 263.707031 227.117188 L 262.125 226.429688 L 260.496094 225.847656 L 258.839844 225.363281 L 257.152344 224.988281 L 255.445313 224.71875 L 253.726563 224.554688 L 252 224.5 L 250.273438 224.554688 L 248.554688 224.71875 L 246.847656 224.988281 L 245.160156 225.363281 L 243.503906 225.847656 L 241.875 226.429688 L 240.292969 227.117188 L 238.75 227.902344 L 237.265625 228.78125 L 235.835938 229.753906 L 234.472656 230.8125 L 233.175781 231.953125 L 231.953125 233.175781 L 230.8125 234.472656 L 229.753906 235.835938 L 228.78125 237.265625 L 227.902344 238.75 L 227.117188 240.292969 L 226.429688 241.875 L 225.847656 243.503906 L 225.363281 245.160156 L 224.988281 246.847656 L 224.71875 248.554688 L 224.554688 250.273438 L 224.5 252 L 224.554688 253.726563 L 224.71875 255.445313 L 224.988281 257.152344 L 225.363281 258.839844 L 225.847656 260.496094 L 226.429688 262.125 L 227.117188 263.707031 L 227.902344 265.25 L 228.78125 266.734375 L 229.753906 268.164063 L 230.8125 269.527344 L 231.953125 270.824219 L 233.175781 272.046875 L 234.472656 273.1875 L 235.835938 274.246094 L 237.265625 275.21875 L 238.75 276.097656 L 240.292969 276.882813 L 241.875 277.570313 L 243.503906 278.152344 L 245.160156 278.636719 L 246.847656 279.011719 L 248.554688 279.28125 L 250.273438 279.445313 L 252 279.5 L 253.726563 279.445313 L 255.445313 279.28125 L 257.152344 279.011719 L 258.839844 278.636719 L 260.496094 278.152344 L 262.125 277.570313 L 263.707031 276.882813 L 265.25 276.097656 L 266.734375 275.21875 L 268.164063 274.246094 L 269.527344 273.1875 L 270.824219 272.046875 L 272.046875 270.824219 L 273.1875 269.527344 L 274.246094 268.164063 L 275.21875 266.734375 L 276.097656 265.25 L 276.882813 263.707031 L 277.570313 262.125 L 278.152344 260.496094 L 278.636719 258.839844 L 279.011719 257.152344 L 279.28125 255.445313 L 279.445313 253.726563 Z M 279.5 252 "/>
</g>
</svg>
