<?xml version="1.0" encoding="UTF-8"?>
<svg xmlns="http://www.w3.org/2000/svg" xmlns:xlink="http://www.w3.org/1999/xlink" width="504pt" height="504pt" viewBox="0 0 504 504" version="1.1">
<defs>
<clipPath id="clip1">
  <path d="M 14.398438 79 L 353 79 L 353 226 L 14.398438 226 Z M 14.398438 79 "/>
</clipPath>
<clipPath id="clip2">
  <path d="M 144 285 L 489.597656 285 L 489.597656 432 L 144 432 Z M 144 285 "/>
</clipPath>
</defs>
<g id="surface1811">
<rect x="0" y="0" width="504" height="504" style="fill:rgb(100%,100%,100%);fill-opacity:1;stroke:none;"/>
<path style="fill:none;stroke-width:1.5;stroke-linecap:round;stroke-linejoin:round;stroke:rgb(0%,0%,0%);stroke-opacity:1;stroke-miterlimit:10;" d="M 444.5 100.75 L 444.417969 98.160156 L 444.175781 95.578125 L 443.769531 93.019531 L 443.203125 90.492188 L 442.480469 88.003906 L 441.601563 85.566406 L 440.574219 83.1875 L 439.398438 80.878906 L 438.078125 78.648438 L 436.621094 76.503906 L 435.035156 74.457031 L 433.320313 72.511719 L 431.488281 70.679688 L 429.542969 68.964844 L 427.496094 67.378906 L 425.351563 65.921875 L 423.121094 64.601563 L 420.8125 63.425781 L 418.433594 62.398438 L 415.996094 61.519531 L 413.507813 60.796875 L 410.980469 60.230469 L 408.421875 59.824219 L 405.839844 59.582031 L 403.25 59.5 L 400.660156 59.582031 L 398.078125 59.824219 L 395.519531 60.230469 L 392.992188 60.796875 L 390.503906 61.519531 L 388.066406 62.398438 L 385.6875 63.425781 L 383.378906 64.601563 L 381.148438 65.921875 L 379.003906 67.378906 L 376.957031 68.964844 L 375.011719 70.679688 L 373.179688 72.511719 L 371.464844 74.457031 L 369.878906 76.503906 L 368.421875 78.648438 L 367.101563 80.878906 L 365.925781 83.1875 L 364.898438 85.566406 L 364.019531 88.003906 L 363.296875 90.492188 L 362.730469 93.019531 L 362.324219 95.578125 L 362.082031 98.160156 L 362 100.75 L 362.082031 103.339844 L 362.324219 105.921875 L 362.730469 108.480469 L 363.296875 111.007813 L 364.019531 113.496094 L 364.898438 115.933594 L 365.925781 118.3125 L 367.101563 120.621094 L 368.421875 122.851563 L 369.878906 124.996094 L 371.464844 127.042969 L 373.179688 128.988281 L 375.011719 130.820313 L 376.957031 132.535156 L 379.003906 134.121094 L 381.148438 135.578125 L 383.378906 136.898438 L 385.6875 138.074219 L 388.066406 139.101563 L 390.503906 139.980469 L 392.992188 140.703125 L 395.519531 141.269531 L 398.078125 141.675781 L 400.660156 141.917969 L 403.25 142 L 405.839844 141.917969 L 408.421875 141.675781 L 410.980469 141.269531 L 413.507813 140.703125 L 415.996094 139.980469 L 418.433594 139.101563 L 420.8125 138.074219 L 423.121094 136.898438 L 425.351563 135.578125 L 427.496094 134.121094 L 429.542969 132.535156 L 431.488281 130.820313 L 433.320313 128.988281 L 435.035156 127.042969 L 436.621094 124.996094 L 438.078125 122.851563 L 439.398438 120.621094 L 440.574219 118.3125 L 441.601563 115.933594 L 442.480469 113.496094 L 443.203125 111.007813 L 443.769531 108.480469 L 444.175781 105.921875 L 444.417969 103.339844 Z M 444.5 100.75 "/>
<path style="fill:none;stroke-width:1.5;stroke-linecap:round;stroke-linejoin:round;stroke:rgb(0%,0%,0%);stroke-opacity:1;stroke-miterlimit:10;" d="M 293.25 252 L 293.167969 249.410156 L 292.925781 246.828125 L 292.519531 244.269531 L 291.953125 241.742188 L 291.230469 239.253906 L 290.351563 236.816406 L 289.324219 234.4375 L 288.148438 232.128906 L 286.828125 229.898438 L 285.371094 227.753906 L 283.785156 225.707031 L 282.070313 223.761719 L 280.238281 221.929688 L 278.292969 220.214844 L 276.246094 218.628906 L 274.101563 217.171875 L 271.871094 215.851563 L 269.5625 214.675781 L 267.183594 213.648438 L 264.746094 212.769531 L 262.257813 212.046875 L 259.730469 211.480469 L 257.171875 211.074219 L 254.589844 210.832031 L 252 210.75 L 249.410156 210.832031 L 246.828125 211.074219 L 244.269531 211.480469 L 241.742188 212.046875 L 239.253906 212.769531 L 236.816406 213.648438 L 234.4375 214.675781 L 232.128906 215.851563 L 229.898438 217.171875 L 227.753906 218.628906 L 225.707031 220.214844 L 223.761719 221.929688 L 221.929688 223.761719 L 220.214844 225.707031 L 218.628906 227.753906 L 217.171875 229.898438 L 215.851563 232.128906 L 214.675781 234.4375 L 213.648438 236.816406 L 212.769531 239.253906 L 212.046875 241.742188 L 211.480469 244.269531 L 211.074219 246.828125 L 210.832031 249.410156 L 210.75 252 L 210.832031 254.589844 L 211.074219 257.171875 L 211.480469 259.730469 L 212.046875 262.257813 L 212.769531 264.746094 L 213.648438 267.183594 L 214.675781 269.5625 L 215.851563 271.871094 L 217.171875 274.101563 L 218.628906 276.246094 L 220.214844 278.292969 L 221.929688 280.238281 L 223.761719 282.070313 L 225.707031 283.785156 L 227.753906 285.371094 L 229.898438 286.828125 L 232.128906 288.148438 L 234.4375 289.324219 L 236.816406 290.351563 L 239.253906 291.230469 L 241.742188 291.953125 L 244.269531 292.519531 L 246.828125 292.925781 L 249.410156 293.167969 L 252 293.25 L 254.589844 293.167969 L 257.171875 292.925781 L 259.730469 292.519531 L 262.257813 291.953125 L 264.746094 291.230469 L 267.183594 290.351563 L 269.5625 289.324219 L 271.871094 288.148438 L 274.101563 286.828125 L 276.246094 285.371094 L 278.292969 283.785156 L 280.238281 282.070313 L 282.070313 280.238281 L 283.785156 278.292969 L 285.371094 276.246094 L 286.828125 274.101563 L 288.148438 271.871094 L 289.324219 269.5625 L 290.351563 267.183594 L 291.230469 264.746094 L 291.953125 262.257813 L 292.519531 259.730469 L 292.925781 257.171875 L 293.167969 254.589844 Z M 293.25 252 "/>
<path style="fill:none;stroke-width:2.25;stroke-linecap:round;stroke-linejoin:round;stroke:rgb(0%,0%,0%);stroke-opacity:1;stroke-miterlimit:10;" d="M 71.582031 374.082031 L 129.917969 432.417969 Z M 71.582031 374.082031 "/>
<path style="fill:none;stroke-width:2.25;stroke-linecap:round;stroke-linejoin:round;stroke:rgb(0%,0%,0%);stroke-opacity:1;stroke-miterlimit:10;" d="M 71.582031 432.417969 L 129.917969 374.082031 Z M 71.582031 432.417969 "/>
<path style="fill:none;stroke-width:2.25;stroke-linecap:round;stroke-linejoin:round;stroke:rgb(0%,0%,0%);stroke-opacity:1;stroke-dasharray:9,9;stroke-miterlimit:10;" d="M 210.75 183.25 L 293.25 183.25 Z M 210.75 183.25 "/>
<g clip-path="url(#clip1)" clip-rule="nonzero">
<path style="fill:none;stroke-width:2.25;stroke-linecap:round;stroke-linejoin:round;stroke:rgb(0%,0%,0%);stroke-opacity:1;stroke-miterlimit:10;" d="M 351.382813 152.617188 L 348.585938 149.863281 L 345.742188 147.152344 L 342.859375 144.488281 L 339.933594 141.867188 L 336.964844 139.296875 L 333.957031 136.773438 L 330.90625 134.296875 L 327.820313 131.871094 L 324.695313 129.492188 L 321.535156 127.164063 L 318.335938 124.886719 L 315.101563 122.65625 L 311.832031 120.484375 L 308.527344 118.359375 L 305.191406 116.289063 L 301.820313 114.273438 L 298.421875 112.308594 L 294.988281 110.398438 L 291.527344 108.542969 L 288.039063 106.746094 L 284.519531 105 L 280.972656 103.3125 L 277.402344 101.683594 L 273.804688 100.109375 L 270.179688 98.589844 L 266.535156 97.132813 L 262.867188 95.730469 L 259.175781 94.386719 L 255.464844 93.101563 L 251.734375 91.878906 L 247.984375 90.710938 L 244.21875 89.605469 L 240.433594 88.558594 L 236.632813 87.570313 L 232.816406 86.644531 L 228.984375 85.78125 L 225.140625 84.976563 L 221.285156 84.234375 L 217.417969 83.550781 L 213.539063 82.929688 L 209.652344 82.371094 L 205.757813 81.875 L 201.855469 81.441406 L 197.945313 81.066406 L 194.03125 80.753906 L 190.113281 80.507813 L 186.191406 80.320313 L 182.265625 80.195313 L 178.339844 80.132813 L 174.410156 80.132813 L 170.484375 80.195313 L 166.558594 80.320313 L 162.636719 80.507813 L 158.71875 80.753906 L 154.804688 81.066406 L 150.894531 81.441406 L 146.992188 81.875 L 143.097656 82.371094 L 139.210938 82.929688 L 135.332031 83.550781 L 131.464844 84.234375 L 127.609375 84.976563 L 123.765625 85.78125 L 119.933594 86.644531 L 116.117188 87.570313 L 112.316406 88.558594 L 108.53125 89.605469 L 104.765625 90.710938 L 101.015625 91.878906 L 97.285156 93.101563 L 93.574219 94.386719 L 89.882813 95.730469 L 86.214844 97.132813 L 82.570313 98.589844 L 78.945313 100.109375 L 75.347656 101.683594 L 71.777344 103.3125 L 68.230469 105 L 64.710938 106.746094 L 61.222656 108.542969 L 57.761719 110.398438 L 54.328125 112.308594 L 50.929688 114.273438 L 47.558594 116.289063 L 44.222656 118.359375 L 40.917969 120.484375 L 37.648438 122.65625 L 34.414063 124.886719 L 31.214844 127.164063 L 28.054688 129.492188 L 24.929688 131.871094 L 21.84375 134.296875 L 18.792969 136.773438 L 15.785156 139.296875 L 12.816406 141.867188 L 9.890625 144.488281 L 7.007813 147.152344 L 4.164063 149.863281 L 1.367188 152.617188 L 73.25 224.5 L 74.898438 222.875 L 76.574219 221.28125 L 78.273438 219.710938 L 80 218.167969 L 81.746094 216.652344 L 83.519531 215.164063 L 85.316406 213.707031 L 87.132813 212.273438 L 88.976563 210.875 L 90.839844 209.5 L 92.722656 208.160156 L 94.628906 206.847656 L 96.558594 205.566406 L 98.503906 204.3125 L 100.46875 203.09375 L 102.453125 201.90625 L 104.457031 200.75 L 106.480469 199.625 L 108.519531 198.53125 L 110.578125 197.46875 L 112.652344 196.441406 L 114.738281 195.449219 L 116.84375 194.488281 L 118.964844 193.558594 L 121.097656 192.664063 L 123.246094 191.804688 L 125.410156 190.980469 L 127.582031 190.1875 L 129.769531 189.429688 L 131.96875 188.710938 L 134.179688 188.023438 L 136.398438 187.371094 L 138.628906 186.753906 L 140.867188 186.171875 L 143.117188 185.625 L 145.375 185.117188 L 147.640625 184.644531 L 149.910156 184.207031 L 152.191406 183.804688 L 154.476563 183.4375 L 156.765625 183.109375 L 159.0625 182.816406 L 161.359375 182.558594 L 163.664063 182.339844 L 165.972656 182.15625 L 168.28125 182.007813 L 170.589844 181.898438 L 172.90625 181.824219 L 175.21875 181.789063 L 177.53125 181.789063 L 179.84375 181.824219 L 182.160156 181.898438 L 184.46875 182.007813 L 186.777344 182.15625 L 189.085938 182.339844 L 191.390625 182.558594 L 193.6875 182.816406 L 195.984375 183.109375 L 198.273438 183.4375 L 200.558594 183.804688 L 202.839844 184.207031 L 205.109375 184.644531 L 207.375 185.117188 L 209.632813 185.625 L 211.882813 186.171875 L 214.121094 186.753906 L 216.351563 187.371094 L 218.570313 188.023438 L 220.78125 188.710938 L 222.980469 189.429688 L 225.167969 190.1875 L 227.339844 190.980469 L 229.503906 191.804688 L 231.652344 192.664063 L 233.785156 193.558594 L 235.90625 194.488281 L 238.011719 195.449219 L 240.097656 196.441406 L 242.171875 197.46875 L 244.230469 198.53125 L 246.269531 199.625 L 248.292969 200.75 L 250.296875 201.90625 L 252.28125 203.09375 L 254.246094 204.3125 L 256.191406 205.566406 L 258.121094 206.847656 L 260.027344 208.160156 L 261.910156 209.5 L 263.773438 210.875 L 265.617188 212.273438 L 267.433594 213.707031 L 269.230469 215.164063 L 271.003906 216.652344 L 272.75 218.167969 L 274.476563 219.710938 L 276.175781 221.28125 L 277.851563 222.875 L 279.5 224.5 Z M 351.382813 152.617188 "/>
</g>
<g clip-path="url(#clip2)" clip-rule="nonzero">
<path style="fill:none;stroke-width:2.25;stroke-linecap:round;stroke-linejoin:round;stroke:rgb(0%,0%,0%);stroke-opacity:1;stroke-miterlimit:10;" d="M 145.742188 358.257813 L 148.539063 361.011719 L 151.382813 363.722656 L 154.265625 366.386719 L 157.191406 369.007813 L 160.160156 371.578125 L 163.167969 374.101563 L 166.21875 376.578125 L 169.304688 379.003906 L 172.429688 381.382813 L 175.589844 383.710938 L 178.789063 385.988281 L 182.023438 388.21875 L 185.292969 390.390625 L 188.597656 392.515625 L 191.933594 394.585938 L 195.304688 396.601563 L 198.703125 398.566406 L 202.136719 400.476563 L 205.597656 402.332031 L 209.085938 404.128906 L 212.605469 405.875 L 216.152344 407.5625 L 219.722656 409.191406 L 223.320313 410.765625 L 226.945313 412.285156 L 230.589844 413.742188 L 234.257813 415.144531 L 237.949219 416.488281 L 241.660156 417.773438 L 245.390625 418.996094 L 249.140625 420.164063 L 252.90625 421.269531 L 256.691406 422.316406 L 260.492188 423.304688 L 264.308594 424.230469 L 268.140625 425.09375 L 271.984375 425.898438 L 275.839844 426.640625 L 279.707031 427.324219 L 283.585938 427.945313 L 287.472656 428.503906 L 291.367188 429 L 295.269531 429.433594 L 299.179688 429.808594 L 303.09375 430.121094 L 307.011719 430.367188 L 310.933594 430.554688 L 314.859375 430.679688 L 318.785156 430.742188 L 322.714844 430.742188 L 326.640625 430.679688 L 330.566406 430.554688 L 334.488281 430.367188 L 338.40625 430.121094 L 342.320313 429.808594 L 346.230469 429.433594 L 350.132813 429 L 354.027344 428.503906 L 357.914063 427.945313 L 361.792969 427.324219 L 365.660156 426.640625 L 369.515625 425.898438 L 373.359375 425.09375 L 377.191406 424.230469 L 381.007813 423.304688 L 384.808594 422.316406 L 388.59375 421.269531 L 392.359375 420.164063 L 396.109375 418.996094 L 399.839844 417.773438 L 403.550781 416.488281 L 407.242188 415.144531 L 410.910156 413.742188 L 414.554688 412.285156 L 418.179688 410.765625 L 421.777344 409.191406 L 425.347656 407.5625 L 428.894531 405.875 L 432.414063 404.128906 L 435.902344 402.332031 L 439.363281 400.476563 L 442.796875 398.566406 L 446.195313 396.601563 L 449.566406 394.585938 L 452.902344 392.515625 L 456.207031 390.390625 L 459.476563 388.21875 L 462.710938 385.988281 L 465.910156 383.710938 L 469.070313 381.382813 L 472.195313 379.003906 L 475.28125 376.578125 L 478.332031 374.101563 L 481.339844 371.578125 L 484.308594 369.007813 L 487.234375 366.386719 L 490.117188 363.722656 L 492.960938 361.011719 L 495.757813 358.257813 L 423.875 286.375 L 422.226563 288 L 420.550781 289.59375 L 418.851563 291.164063 L 417.125 292.707031 L 415.378906 294.222656 L 413.605469 295.710938 L 411.808594 297.167969 L 409.992188 298.601563 L 408.148438 300 L 406.285156 301.375 L 404.402344 302.714844 L 402.496094 304.027344 L 400.566406 305.308594 L 398.621094 306.5625 L 396.65625 307.78125 L 394.671875 308.96875 L 392.667969 310.125 L 390.644531 311.25 L 388.605469 312.34375 L 386.546875 313.40625 L 384.472656 314.433594 L 382.386719 315.425781 L 380.28125 316.386719 L 378.160156 317.316406 L 376.027344 318.210938 L 373.878906 319.070313 L 371.714844 319.894531 L 369.542969 320.6875 L 367.355469 321.445313 L 365.15625 322.164063 L 362.945313 322.851563 L 360.726563 323.503906 L 358.496094 324.121094 L 356.257813 324.703125 L 354.007813 325.25 L 351.75 325.757813 L 349.484375 326.230469 L 347.214844 326.667969 L 344.933594 327.070313 L 342.648438 327.4375 L 340.359375 327.765625 L 338.0625 328.058594 L 335.765625 328.316406 L 333.460938 328.535156 L 331.152344 328.71875 L 328.84375 328.867188 L 326.535156 328.976563 L 324.21875 329.050781 L 321.90625 329.085938 L 319.59375 329.085938 L 317.28125 329.050781 L 314.964844 328.976563 L 312.65625 328.867188 L 310.347656 328.71875 L 308.039063 328.535156 L 305.734375 328.316406 L 303.4375 328.058594 L 301.140625 327.765625 L 298.851563 327.4375 L 296.566406 327.070313 L 294.285156 326.667969 L 292.015625 326.230469 L 289.75 325.757813 L 287.492188 325.25 L 285.242188 324.703125 L 283.003906 324.121094 L 280.773438 323.503906 L 278.554688 322.851563 L 276.34375 322.164063 L 274.144531 321.445313 L 271.957031 320.6875 L 269.785156 319.894531 L 267.621094 319.070313 L 265.472656 318.210938 L 263.339844 317.316406 L 261.21875 316.386719 L 259.113281 315.425781 L 257.027344 314.433594 L 254.953125 313.40625 L 252.894531 312.34375 L 250.855469 311.25 L 248.832031 310.125 L 246.828125 308.96875 L 244.84375 307.78125 L 242.878906 306.5625 L 240.933594 305.308594 L 239.003906 304.027344 L 237.097656 302.714844 L 235.214844 301.375 L 233.351563 300 L 231.507813 298.601563 L 229.691406 297.167969 L 227.894531 295.710938 L 226.121094 294.222656 L 224.375 292.707031 L 222.648438 291.164063 L 220.949219 289.59375 L 219.273438 288 L 217.625 286.375 Z M 145.742188 358.257813 "/>
</g>
</g>
</svg>
