<?xml version="1.0" encoding="UTF-8"?>
<svg xmlns="http://www.w3.org/2000/svg" xmlns:xlink="http://www.w3.org/1999/xlink" width="504pt" height="504pt" viewBox="0 0 504 504" version="1.1">
<defs>
<clipPath id="clip1">
  <path d="M 319 14.398438 L 322 14.398438 L 322 489.597656 L 319 489.597656 Z M 319 14.398438 "/>
</clipPath>
<clipPath id="clip2">
  <path d="M 182 14.398438 L 185 14.398438 L 185 489.597656 L 182 489.597656 Z M 182 14.398438 "/>
</clipPath>
</defs>
<g id="surface1816">
<rect x="0" y="0" width="504" height="504" style="fill:rgb(100%,100%,100%);fill-opacity:1;stroke:none;"/>
<path style="fill:none;stroke-width:1.5;stroke-linecap:round;stroke-linejoin:round;stroke:rgb(0%,0%,0%);stroke-opacity:1;stroke-miterlimit:10;" d="M 444.5 100.75 L 444.417969 98.160156 L 444.175781 95.578125 L 443.769531 93.019531 L 443.203125 90.492188 L 442.480469 88.003906 L 441.601563 85.566406 L 440.574219 83.1875 L 439.398438 80.878906 L 438.078125 78.648438 L 436.621094 76.503906 L 435.035156 74.457031 L 433.320313 72.511719 L 431.488281 70.679688 L 429.542969 68.964844 L 427.496094 67.378906 L 425.351563 65.921875 L 423.121094 64.601563 L 420.8125 63.425781 L 418.433594 62.398438 L 415.996094 61.519531 L 413.507813 60.796875 L 410.980469 60.230469 L 408.421875 59.824219 L 405.839844 59.582031 L 403.25 59.5 L 400.660156 59.582031 L 398.078125 59.824219 L 395.519531 60.230469 L 392.992188 60.796875 L 390.503906 61.519531 L 388.066406 62.398438 L 385.6875 63.425781 L 383.378906 64.601563 L 381.148438 65.921875 L 379.003906 67.378906 L 376.957031 68.964844 L 375.011719 70.679688 L 373.179688 72.511719 L 371.464844 74.457031 L 369.878906 76.503906 L 368.421875 78.648438 L 367.101563 80.878906 L 365.925781 83.1875 L 364.898438 85.566406 L 364.019531 88.003906 L 363.296875 90.492188 L 362.730469 93.019531 L 362.324219 95.578125 L 362.082031 98.160156 L 362 100.75 L 362.082031 103.339844 L 362.324219 105.921875 L 362.730469 108.480469 L 363.296875 111.007813 L 364.019531 113.496094 L 364.898438 115.933594 L 365.925781 118.3125 L 367.101563 120.621094 L 368.421875 122.851563 L 369.878906 124.996094 L 371.464844 127.042969 L 373.179688 128.988281 L 375.011719 130.820313 L 376.957031 132.535156 L 379.003906 134.121094 L 381.148438 135.578125 L 383.378906 136.898438 L 385.6875 138.074219 L 388.066406 139.101563 L 390.503906 139.980469 L 392.992188 140.703125 L 395.519531 141.269531 L 398.078125 141.675781 L 400.660156 141.917969 L 403.25 142 L 405.839844 141.917969 L 408.421875 141.675781 L 410.980469 141.269531 L 413.507813 140.703125 L 415.996094 139.980469 L 418.433594 139.101563 L 420.8125 138.074219 L 423.121094 136.898438 L 425.351563 135.578125 L 427.496094 134.121094 L 429.542969 132.535156 L 431.488281 130.820313 L 433.320313 128.988281 L 435.035156 127.042969 L 436.621094 124.996094 L 438.078125 122.851563 L 439.398438 120.621094 L 440.574219 118.3125 L 441.601563 115.933594 L 442.480469 113.496094 L 443.203125 111.007813 L 443.769531 108.480469 L 444.175781 105.921875 L 444.417969 103.339844 Z M 444.5 100.75 "/>
<path style="fill:none;stroke-width:2.25;stroke-linecap:round;stroke-linejoin:round;stroke:rgb(0%,0%,0%);stroke-opacity:1;stroke-dasharray:9,9;stroke-miterlimit:10;" d="M 210.75 183.25 L 293.25 183.25 Z M 210.75 183.25 "/>
<g clip-path="url(#clip1)" clip-rule="nonzero">
<path style="fill:none;stroke-width:2.25;stroke-linecap:round;stroke-linejoin:round;stroke:rgb(0%,0%,0%);stroke-opacity:1;stroke-dasharray:9,9;stroke-miterlimit:10;" d="M 320.75 499.5 L 320.75 4.5 Z M 320.75 499.5 "/>
</g>
<g clip-path="url(#clip2)" clip-rule="nonzero">
<path style="fill:none;stroke-width:2.25;stroke-linecap:round;stroke-linejoin:round;stroke:rgb(0%,0%,0%);stroke-opacity:1;stroke-dasharray:9,9;stroke-miterlimit:10;" d="M 183.25 499.5 L 183.25 4.5 Z M 183.25 499.5 "/>
</g>
</g>
</svg>
