<?xml version="1.0" encoding="UTF-8"?>
<svg xmlns="http://www.w3.org/2000/svg" xmlns:xlink="http://www.w3.org/1999/xlink" width="504pt" height="504pt" viewBox="0 0 504 504" version="1.1">
<g id="surface1761">
<rect x="0" y="0" width="504" height="504" style="fill:rgb(100%,100%,100%);fill-opacity:1;stroke:none;"/>
<path style="fill:none;stroke-width:2.25;stroke-linecap:round;stroke-linejoin:round;stroke:rgb(0%,0%,0%);stroke-opacity:1;stroke-miterlimit:10;" d="M 403.25 397.839844 L 403.25 106.160156 Z M 403.25 397.839844 "/>
<path style="fill:none;stroke-width:2.25;stroke-linecap:round;stroke-linejoin:round;stroke:rgb(0%,0%,0%);stroke-opacity:1;stroke-miterlimit:10;" d="M 397.839844 106.160156 L 395.507813 103.863281 L 393.140625 101.605469 L 390.734375 99.386719 L 388.296875 97.203125 L 385.824219 95.058594 L 383.316406 92.957031 L 380.777344 90.894531 L 378.207031 88.871094 L 375.601563 86.886719 L 372.964844 84.949219 L 370.300781 83.050781 L 367.605469 81.195313 L 364.878906 79.382813 L 362.128906 77.613281 L 359.347656 75.886719 L 356.539063 74.207031 L 353.703125 72.570313 L 350.84375 70.980469 L 347.960938 69.433594 L 345.050781 67.933594 L 342.121094 66.480469 L 339.164063 65.074219 L 336.1875 63.714844 L 333.191406 62.402344 L 330.171875 61.136719 L 327.132813 59.921875 L 324.078125 58.753906 L 321 57.636719 L 317.910156 56.566406 L 314.800781 55.542969 L 311.675781 54.570313 L 308.535156 53.648438 L 305.382813 52.777344 L 302.214844 51.957031 L 299.035156 51.183594 L 295.839844 50.464844 L 292.636719 49.792969 L 289.425781 49.175781 L 286.203125 48.605469 L 282.972656 48.089844 L 279.730469 47.621094 L 276.484375 47.207031 L 273.234375 46.847656 L 269.976563 46.535156 L 266.714844 46.277344 L 263.449219 46.066406 L 260.179688 45.914063 L 256.910156 45.808594 L 253.636719 45.757813 L 250.363281 45.757813 L 247.089844 45.808594 L 243.820313 45.914063 L 240.550781 46.066406 L 237.285156 46.277344 L 234.023438 46.535156 L 230.765625 46.847656 L 227.515625 47.207031 L 224.269531 47.621094 L 221.027344 48.089844 L 217.796875 48.605469 L 214.574219 49.175781 L 211.363281 49.792969 L 208.160156 50.464844 L 204.964844 51.183594 L 201.785156 51.957031 L 198.617188 52.777344 L 195.464844 53.648438 L 192.324219 54.570313 L 189.199219 55.542969 L 186.089844 56.566406 L 183 57.636719 L 179.921875 58.753906 L 176.867188 59.921875 L 173.828125 61.136719 L 170.808594 62.402344 L 167.8125 63.714844 L 164.835938 65.074219 L 161.878906 66.480469 L 158.949219 67.933594 L 156.039063 69.433594 L 153.15625 70.980469 L 150.296875 72.570313 L 147.460938 74.207031 L 144.652344 75.886719 L 141.871094 77.613281 L 139.121094 79.382813 L 136.394531 81.195313 L 133.699219 83.050781 L 131.035156 84.949219 L 128.398438 86.886719 L 125.792969 88.871094 L 123.222656 90.894531 L 120.683594 92.957031 L 118.175781 95.058594 L 115.703125 97.203125 L 113.265625 99.386719 L 110.859375 101.605469 L 108.492188 103.863281 L 106.160156 106.160156 L 252 252 Z M 397.839844 106.160156 "/>
<path style="fill:none;stroke-width:2.25;stroke-linecap:round;stroke-linejoin:round;stroke:rgb(0%,0%,0%);stroke-opacity:1;stroke-miterlimit:10;" d="M 106.160156 106.160156 L 103.863281 108.492188 L 101.605469 110.859375 L 99.386719 113.265625 L 97.203125 115.703125 L 95.058594 118.175781 L 92.957031 120.683594 L 90.894531 123.222656 L 88.871094 125.792969 L 86.886719 128.398438 L 84.949219 131.035156 L 83.050781 133.699219 L 81.195313 136.394531 L 79.382813 139.121094 L 77.613281 141.871094 L 75.886719 144.652344 L 74.207031 147.460938 L 72.570313 150.296875 L 70.980469 153.15625 L 69.433594 156.039063 L 67.933594 158.949219 L 66.480469 161.878906 L 65.074219 164.835938 L 63.714844 167.8125 L 62.402344 170.808594 L 61.136719 173.828125 L 59.921875 176.867188 L 58.753906 179.921875 L 57.636719 183 L 56.566406 186.089844 L 55.542969 189.199219 L 54.570313 192.324219 L 53.648438 195.464844 L 52.777344 198.617188 L 51.957031 201.785156 L 51.183594 204.964844 L 50.464844 208.160156 L 49.792969 211.363281 L 49.175781 214.574219 L 48.605469 217.796875 L 48.089844 221.027344 L 47.621094 224.269531 L 47.207031 227.515625 L 46.847656 230.765625 L 46.535156 234.023438 L 46.277344 237.285156 L 46.066406 240.550781 L 45.914063 243.820313 L 45.808594 247.089844 L 45.757813 250.363281 L 45.757813 253.636719 L 45.808594 256.910156 L 45.914063 260.179688 L 46.066406 263.449219 L 46.277344 266.714844 L 46.535156 269.976563 L 46.847656 273.234375 L 47.207031 276.484375 L 47.621094 279.730469 L 48.089844 282.972656 L 48.605469 286.203125 L 49.175781 289.425781 L 49.792969 292.636719 L 50.464844 295.839844 L 51.183594 299.035156 L 51.957031 302.214844 L 52.777344 305.382813 L 53.648438 308.535156 L 54.570313 311.675781 L 55.542969 314.800781 L 56.566406 317.910156 L 57.636719 321 L 58.753906 324.078125 L 59.921875 327.132813 L 61.136719 330.171875 L 62.402344 333.191406 L 63.714844 336.1875 L 65.074219 339.164063 L 66.480469 342.121094 L 67.933594 345.050781 L 69.433594 347.960938 L 70.980469 350.84375 L 72.570313 353.703125 L 74.207031 356.539063 L 75.886719 359.347656 L 77.613281 362.128906 L 79.382813 364.878906 L 81.195313 367.605469 L 83.050781 370.300781 L 84.949219 372.964844 L 86.886719 375.601563 L 88.871094 378.207031 L 90.894531 380.777344 L 92.957031 383.316406 L 95.058594 385.824219 L 97.203125 388.296875 L 99.386719 390.734375 L 101.605469 393.140625 L 103.863281 395.507813 L 106.160156 397.839844 L 252 252 Z M 106.160156 106.160156 "/>
<path style="fill:none;stroke-width:2.25;stroke-linecap:round;stroke-linejoin:round;stroke:rgb(0%,0%,0%);stroke-opacity:1;stroke-miterlimit:10;" d="M 106.160156 397.839844 L 108.492188 400.136719 L 110.859375 402.394531 L 113.265625 404.613281 L 115.703125 406.796875 L 118.175781 408.941406 L 120.683594 411.042969 L 123.222656 413.105469 L 125.792969 415.128906 L 128.398438 417.113281 L 131.035156 419.050781 L 133.699219 420.949219 L 136.394531 422.804688 L 139.121094 424.617188 L 141.871094 426.386719 L 144.652344 428.113281 L 147.460938 429.792969 L 150.296875 431.429688 L 153.15625 433.019531 L 156.039063 434.566406 L 158.949219 436.066406 L 161.878906 437.519531 L 164.835938 438.925781 L 167.8125 440.285156 L 170.808594 441.597656 L 173.828125 442.863281 L 176.867188 444.078125 L 179.921875 445.246094 L 183 446.363281 L 186.089844 447.433594 L 189.199219 448.457031 L 192.324219 449.429688 L 195.464844 450.351563 L 198.617188 451.222656 L 201.785156 452.042969 L 204.964844 452.816406 L 208.160156 453.535156 L 211.363281 454.207031 L 214.574219 454.824219 L 217.796875 455.394531 L 221.027344 455.910156 L 224.269531 456.378906 L 227.515625 456.792969 L 230.765625 457.152344 L 234.023438 457.464844 L 237.285156 457.722656 L 240.550781 457.933594 L 243.820313 458.085938 L 247.089844 458.191406 L 250.363281 458.242188 L 253.636719 458.242188 L 256.910156 458.191406 L 260.179688 458.085938 L 263.449219 457.933594 L 266.714844 457.722656 L 269.976563 457.464844 L 273.234375 457.152344 L 276.484375 456.792969 L 279.730469 456.378906 L 282.972656 455.910156 L 286.203125 455.394531 L 289.425781 454.824219 L 292.636719 454.207031 L 295.839844 453.535156 L 299.035156 452.816406 L 302.214844 452.042969 L 305.382813 451.222656 L 308.535156 450.351563 L 311.675781 449.429688 L 314.800781 448.457031 L 317.910156 447.433594 L 321 446.363281 L 324.078125 445.246094 L 327.132813 444.078125 L 330.171875 442.863281 L 333.191406 441.597656 L 336.1875 440.285156 L 339.164063 438.925781 L 342.121094 437.519531 L 345.050781 436.066406 L 347.960938 434.566406 L 350.84375 433.019531 L 353.703125 431.429688 L 356.539063 429.792969 L 359.347656 428.113281 L 362.128906 426.386719 L 364.878906 424.617188 L 367.605469 422.804688 L 370.300781 420.949219 L 372.964844 419.050781 L 375.601563 417.113281 L 378.207031 415.128906 L 380.777344 413.105469 L 383.316406 411.042969 L 385.824219 408.941406 L 388.296875 406.796875 L 390.734375 404.613281 L 393.140625 402.394531 L 395.507813 400.136719 L 397.839844 397.839844 L 252 252 Z M 106.160156 397.839844 "/>
</g>
</svg>
