<?xml version="1.0" encoding="UTF-8"?>
<svg xmlns="http://www.w3.org/2000/svg" xmlns:xlink="http://www.w3.org/1999/xlink" width="504pt" height="504pt" viewBox="0 0 504 504" version="1.1">
<defs>
<clipPath id="clip1">
  <path d="M 319 14.398438 L 322 14.398438 L 322 489.597656 L 319 489.597656 Z M 319 14.398438 "/>
</clipPath>
<clipPath id="clip2">
  <path d="M 182 14.398438 L 185 14.398438 L 185 489.597656 L 182 489.597656 Z M 182 14.398438 "/>
</clipPath>
</defs>
<g id="surface1821">
<rect x="0" y="0" width="504" height="504" style="fill:rgb(100%,100%,100%);fill-opacity:1;stroke:none;"/>
<path style="fill:none;stroke-width:1.5;stroke-linecap:round;stroke-linejoin:round;stroke:rgb(0%,0%,0%);stroke-opacity:1;stroke-miterlimit:10;" d="M 142 100.75 L 141.917969 98.160156 L 141.675781 95.578125 L 141.269531 93.019531 L 140.703125 90.492188 L 139.980469 88.003906 L 139.101563 85.566406 L 138.074219 83.1875 L 136.898438 80.878906 L 135.578125 78.648438 L 134.121094 76.503906 L 132.535156 74.457031 L 130.820313 72.511719 L 128.988281 70.679688 L 127.042969 68.964844 L 124.996094 67.378906 L 122.851563 65.921875 L 120.621094 64.601563 L 118.3125 63.425781 L 115.933594 62.398438 L 113.496094 61.519531 L 111.007813 60.796875 L 108.480469 60.230469 L 105.921875 59.824219 L 103.339844 59.582031 L 100.75 59.5 L 98.160156 59.582031 L 95.578125 59.824219 L 93.019531 60.230469 L 90.492188 60.796875 L 88.003906 61.519531 L 85.566406 62.398438 L 83.1875 63.425781 L 80.878906 64.601563 L 78.648438 65.921875 L 76.503906 67.378906 L 74.457031 68.964844 L 72.511719 70.679688 L 70.679688 72.511719 L 68.964844 74.457031 L 67.378906 76.503906 L 65.921875 78.648438 L 64.601563 80.878906 L 63.425781 83.1875 L 62.398438 85.566406 L 61.519531 88.003906 L 60.796875 90.492188 L 60.230469 93.019531 L 59.824219 95.578125 L 59.582031 98.160156 L 59.5 100.75 L 59.582031 103.339844 L 59.824219 105.921875 L 60.230469 108.480469 L 60.796875 111.007813 L 61.519531 113.496094 L 62.398438 115.933594 L 63.425781 118.3125 L 64.601563 120.621094 L 65.921875 122.851563 L 67.378906 124.996094 L 68.964844 127.042969 L 70.679688 128.988281 L 72.511719 130.820313 L 74.457031 132.535156 L 76.503906 134.121094 L 78.648438 135.578125 L 80.878906 136.898438 L 83.1875 138.074219 L 85.566406 139.101563 L 88.003906 139.980469 L 90.492188 140.703125 L 93.019531 141.269531 L 95.578125 141.675781 L 98.160156 141.917969 L 100.75 142 L 103.339844 141.917969 L 105.921875 141.675781 L 108.480469 141.269531 L 111.007813 140.703125 L 113.496094 139.980469 L 115.933594 139.101563 L 118.3125 138.074219 L 120.621094 136.898438 L 122.851563 135.578125 L 124.996094 134.121094 L 127.042969 132.535156 L 128.988281 130.820313 L 130.820313 128.988281 L 132.535156 127.042969 L 134.121094 124.996094 L 135.578125 122.851563 L 136.898438 120.621094 L 138.074219 118.3125 L 139.101563 115.933594 L 139.980469 113.496094 L 140.703125 111.007813 L 141.269531 108.480469 L 141.675781 105.921875 L 141.917969 103.339844 Z M 142 100.75 "/>
<path style="fill:none;stroke-width:2.25;stroke-linecap:round;stroke-linejoin:round;stroke:rgb(0%,0%,0%);stroke-opacity:1;stroke-dasharray:9,9;stroke-miterlimit:10;" d="M 210.75 183.25 L 293.25 183.25 Z M 210.75 183.25 "/>
<path style="fill:none;stroke-width:2.25;stroke-linecap:round;stroke-linejoin:round;stroke:rgb(0%,0%,0%);stroke-opacity:1;stroke-dasharray:9,9;stroke-miterlimit:10;" d="M 210.75 320.75 L 293.25 320.75 Z M 210.75 320.75 "/>
<g clip-path="url(#clip1)" clip-rule="nonzero">
<path style="fill:none;stroke-width:2.25;stroke-linecap:round;stroke-linejoin:round;stroke:rgb(0%,0%,0%);stroke-opacity:1;stroke-dasharray:9,9;stroke-miterlimit:10;" d="M 320.75 499.5 L 320.75 4.5 Z M 320.75 499.5 "/>
</g>
<g clip-path="url(#clip2)" clip-rule="nonzero">
<path style="fill:none;stroke-width:2.25;stroke-linecap:round;stroke-linejoin:round;stroke:rgb(0%,0%,0%);stroke-opacity:1;stroke-dasharray:9,9;stroke-miterlimit:10;" d="M 183.25 499.5 L 183.25 4.5 Z M 183.25 499.5 "/>
</g>
</g>
</svg>
