<?xml version="1.0" encoding="UTF-8"?>
<svg xmlns="http://www.w3.org/2000/svg" xmlns:xlink="http://www.w3.org/1999/xlink" width="504pt" height="504pt" viewBox="0 0 504 504" version="1.1">
<g id="surface1721">
<rect x="0" y="0" width="504" height="504" style="fill:rgb(100%,100%,100%);fill-opacity:1;stroke:none;"/>
<path style="fill:none;stroke-width:2.25;stroke-linecap:round;stroke-linejoin:round;stroke:rgb(0%,0%,0%);stroke-opacity:1;stroke-miterlimit:10;" d="M 142 397.839844 L 142 106.160156 Z M 142 397.839844 "/>
<path style="fill:none;stroke-width:2.25;stroke-linecap:round;stroke-linejoin:round;stroke:rgb(0%,0%,0%);stroke-opacity:1;stroke-miterlimit:10;" d="M 362 397.839844 L 362 106.160156 Z M 362 397.839844 "/>
<path style="fill:none;stroke-width:2.25;stroke-linecap:round;stroke-linejoin:round;stroke:rgb(0%,0%,0%);stroke-opacity:1;stroke-miterlimit:10;" d="M 252 397.839844 L 252 106.160156 Z M 252 397.839844 "/>
<path style="fill:none;stroke-width:2.25;stroke-linecap:round;stroke-linejoin:round;stroke:rgb(0%,0%,0%);stroke-opacity:1;stroke-miterlimit:10;" d="M 247.828125 110.328125 L 246.683594 111.496094 L 245.550781 112.679688 L 244.441406 113.882813 L 243.351563 115.101563 L 242.28125 116.339844 L 241.226563 117.589844 L 240.195313 118.859375 L 239.183594 120.148438 L 238.195313 121.449219 L 237.222656 122.765625 L 236.273438 124.101563 L 235.347656 125.449219 L 234.441406 126.808594 L 233.554688 128.1875 L 232.695313 129.578125 L 231.851563 130.980469 L 231.035156 132.398438 L 230.238281 133.828125 L 229.464844 135.269531 L 228.71875 136.722656 L 227.992188 138.191406 L 227.285156 139.667969 L 226.605469 141.15625 L 225.953125 142.65625 L 225.320313 144.164063 L 224.710938 145.683594 L 224.128906 147.210938 L 223.566406 148.75 L 223.03125 150.296875 L 222.523438 151.851563 L 222.035156 153.414063 L 221.574219 154.980469 L 221.140625 156.558594 L 220.726563 158.144531 L 220.34375 159.734375 L 219.980469 161.328125 L 219.648438 162.929688 L 219.335938 164.539063 L 219.054688 166.148438 L 218.792969 167.765625 L 218.5625 169.382813 L 218.355469 171.007813 L 218.171875 172.632813 L 218.015625 174.261719 L 217.886719 175.894531 L 217.785156 177.527344 L 217.707031 179.160156 L 217.652344 180.796875 L 217.628906 182.433594 L 217.628906 184.066406 L 217.652344 185.703125 L 217.707031 187.339844 L 217.785156 188.972656 L 217.886719 190.605469 L 218.015625 192.238281 L 218.171875 193.867188 L 218.355469 195.492188 L 218.5625 197.117188 L 218.792969 198.734375 L 219.054688 200.351563 L 219.335938 201.960938 L 219.648438 203.570313 L 219.980469 205.171875 L 220.34375 206.765625 L 220.726563 208.355469 L 221.140625 209.941406 L 221.574219 211.519531 L 222.035156 213.085938 L 222.523438 214.648438 L 223.03125 216.203125 L 223.566406 217.75 L 224.128906 219.289063 L 224.710938 220.816406 L 225.320313 222.335938 L 225.953125 223.84375 L 226.605469 225.34375 L 227.285156 226.832031 L 227.992188 228.308594 L 228.71875 229.777344 L 229.464844 231.230469 L 230.238281 232.671875 L 231.035156 234.101563 L 231.851563 235.519531 L 232.695313 236.921875 L 233.554688 238.3125 L 234.441406 239.691406 L 235.347656 241.050781 L 236.273438 242.398438 L 237.222656 243.734375 L 238.195313 245.050781 L 239.183594 246.351563 L 240.195313 247.640625 L 241.226563 248.910156 L 242.28125 250.160156 L 243.351563 251.398438 L 244.441406 252.617188 L 245.550781 253.820313 L 246.683594 255.003906 L 247.828125 256.171875 L 246.683594 255.003906 L 245.550781 253.820313 L 244.441406 252.617188 L 243.351563 251.398438 L 242.28125 250.160156 L 241.226563 248.910156 L 240.195313 247.640625 L 239.183594 246.351563 L 238.195313 245.050781 L 237.222656 243.734375 L 236.273438 242.398438 L 235.347656 241.050781 L 234.441406 239.691406 L 233.554688 238.3125 L 232.695313 236.921875 L 231.851563 235.519531 L 231.035156 234.101563 L 230.238281 232.671875 L 229.464844 231.230469 L 228.71875 229.777344 L 227.992188 228.308594 L 227.285156 226.832031 L 226.605469 225.34375 L 225.953125 223.84375 L 225.320313 222.335938 L 224.710938 220.816406 L 224.128906 219.289063 L 223.566406 217.75 L 223.03125 216.203125 L 222.523438 214.648438 L 222.035156 213.085938 L 221.574219 211.519531 L 221.140625 209.941406 L 220.726563 208.355469 L 220.34375 206.765625 L 219.980469 205.171875 L 219.648438 203.570313 L 219.335938 201.960938 L 219.054688 200.351563 L 218.792969 198.734375 L 218.5625 197.117188 L 218.355469 195.492188 L 218.171875 193.867188 L 218.015625 192.238281 L 217.886719 190.605469 L 217.785156 188.972656 L 217.707031 187.339844 L 217.652344 185.703125 L 217.628906 184.066406 L 217.628906 182.433594 L 217.652344 180.796875 L 217.707031 179.160156 L 217.785156 177.527344 L 217.886719 175.894531 L 218.015625 174.261719 L 218.171875 172.632813 L 218.355469 171.007813 L 218.5625 169.382813 L 218.792969 167.765625 L 219.054688 166.148438 L 219.335938 164.539063 L 219.648438 162.929688 L 219.980469 161.328125 L 220.34375 159.734375 L 220.726563 158.144531 L 221.140625 156.558594 L 221.574219 154.980469 L 222.035156 153.414063 L 222.523438 151.851563 L 223.03125 150.296875 L 223.566406 148.75 L 224.128906 147.210938 L 224.710938 145.683594 L 225.320313 144.164063 L 225.953125 142.65625 L 226.605469 141.15625 L 227.285156 139.667969 L 227.992188 138.191406 L 228.71875 136.722656 L 229.464844 135.269531 L 230.238281 133.828125 L 231.035156 132.398438 L 231.851563 130.980469 L 232.695313 129.578125 L 233.554688 128.1875 L 234.441406 126.808594 L 235.347656 125.449219 L 236.273438 124.101563 L 237.222656 122.765625 L 238.195313 121.449219 L 239.183594 120.148438 L 240.195313 118.859375 L 241.226563 117.589844 L 242.28125 116.339844 L 243.351563 115.101563 L 244.441406 113.882813 L 245.550781 112.679688 L 246.683594 111.496094 Z M 247.828125 110.328125 "/>
<path style="fill:none;stroke-width:2.25;stroke-linecap:round;stroke-linejoin:round;stroke:rgb(0%,0%,0%);stroke-opacity:1;stroke-miterlimit:10;" d="M 249.296875 400.546875 L 250.441406 399.378906 L 251.574219 398.195313 L 252.683594 396.992188 L 253.773438 395.773438 L 254.84375 394.535156 L 255.898438 393.285156 L 256.929688 392.015625 L 257.941406 390.726563 L 258.929688 389.425781 L 259.902344 388.109375 L 260.851563 386.773438 L 261.777344 385.425781 L 262.683594 384.066406 L 263.570313 382.6875 L 264.429688 381.296875 L 265.273438 379.894531 L 266.089844 378.476563 L 266.886719 377.046875 L 267.660156 375.605469 L 268.40625 374.152344 L 269.132813 372.683594 L 269.839844 371.207031 L 270.519531 369.71875 L 271.171875 368.21875 L 271.804688 366.710938 L 272.414063 365.191406 L 272.996094 363.664063 L 273.558594 362.125 L 274.09375 360.578125 L 274.601563 359.023438 L 275.089844 357.460938 L 275.550781 355.894531 L 275.984375 354.316406 L 276.398438 352.730469 L 276.78125 351.140625 L 277.144531 349.546875 L 277.476563 347.945313 L 277.789063 346.335938 L 278.070313 344.726563 L 278.332031 343.109375 L 278.5625 341.492188 L 278.769531 339.867188 L 278.953125 338.242188 L 279.109375 336.613281 L 279.238281 334.980469 L 279.339844 333.347656 L 279.417969 331.714844 L 279.472656 330.078125 L 279.496094 328.441406 L 279.496094 326.808594 L 279.472656 325.171875 L 279.417969 323.535156 L 279.339844 321.902344 L 279.238281 320.269531 L 279.109375 318.636719 L 278.953125 317.007813 L 278.769531 315.382813 L 278.5625 313.757813 L 278.332031 312.140625 L 278.070313 310.523438 L 277.789063 308.914063 L 277.476563 307.304688 L 277.144531 305.703125 L 276.78125 304.109375 L 276.398438 302.519531 L 275.984375 300.933594 L 275.550781 299.355469 L 275.089844 297.789063 L 274.601563 296.226563 L 274.09375 294.671875 L 273.558594 293.125 L 272.996094 291.585938 L 272.414063 290.058594 L 271.804688 288.539063 L 271.171875 287.03125 L 270.519531 285.53125 L 269.839844 284.042969 L 269.132813 282.566406 L 268.40625 281.097656 L 267.660156 279.644531 L 266.886719 278.203125 L 266.089844 276.773438 L 265.273438 275.355469 L 264.429688 273.953125 L 263.570313 272.5625 L 262.683594 271.183594 L 261.777344 269.824219 L 260.851563 268.476563 L 259.902344 267.140625 L 258.929688 265.824219 L 257.941406 264.523438 L 256.929688 263.234375 L 255.898438 261.964844 L 254.84375 260.714844 L 253.773438 259.476563 L 252.683594 258.257813 L 251.574219 257.054688 L 250.441406 255.871094 L 249.296875 254.703125 L 250.441406 255.871094 L 251.574219 257.054688 L 252.683594 258.257813 L 253.773438 259.476563 L 254.84375 260.714844 L 255.898438 261.964844 L 256.929688 263.234375 L 257.941406 264.523438 L 258.929688 265.824219 L 259.902344 267.140625 L 260.851563 268.476563 L 261.777344 269.824219 L 262.683594 271.183594 L 263.570313 272.5625 L 264.429688 273.953125 L 265.273438 275.355469 L 266.089844 276.773438 L 266.886719 278.203125 L 267.660156 279.644531 L 268.40625 281.097656 L 269.132813 282.566406 L 269.839844 284.042969 L 270.519531 285.53125 L 271.171875 287.03125 L 271.804688 288.539063 L 272.414063 290.058594 L 272.996094 291.585938 L 273.558594 293.125 L 274.09375 294.671875 L 274.601563 296.226563 L 275.089844 297.789063 L 275.550781 299.355469 L 275.984375 300.933594 L 276.398438 302.519531 L 276.78125 304.109375 L 277.144531 305.703125 L 277.476563 307.304688 L 277.789063 308.914063 L 278.070313 310.523438 L 278.332031 312.140625 L 278.5625 313.757813 L 278.769531 315.382813 L 278.953125 317.007813 L 279.109375 318.636719 L 279.238281 320.269531 L 279.339844 321.902344 L 279.417969 323.535156 L 279.472656 325.171875 L 279.496094 326.808594 L 279.496094 328.441406 L 279.472656 330.078125 L 279.417969 331.714844 L 279.339844 333.347656 L 279.238281 334.980469 L 279.109375 336.613281 L 278.953125 338.242188 L 278.769531 339.867188 L 278.5625 341.492188 L 278.332031 343.109375 L 278.070313 344.726563 L 277.789063 346.335938 L 277.476563 347.945313 L 277.144531 349.546875 L 276.78125 351.140625 L 276.398438 352.730469 L 275.984375 354.316406 L 275.550781 355.894531 L 275.089844 357.460938 L 274.601563 359.023438 L 274.09375 360.578125 L 273.558594 362.125 L 272.996094 363.664063 L 272.414063 365.191406 L 271.804688 366.710938 L 271.171875 368.21875 L 270.519531 369.71875 L 269.839844 371.207031 L 269.132813 372.683594 L 268.40625 374.152344 L 267.660156 375.605469 L 266.886719 377.046875 L 266.089844 378.476563 L 265.273438 379.894531 L 264.429688 381.296875 L 263.570313 382.6875 L 262.683594 384.066406 L 261.777344 385.425781 L 260.851563 386.773438 L 259.902344 388.109375 L 258.929688 389.425781 L 257.941406 390.726563 L 256.929688 392.015625 L 255.898438 393.285156 L 254.84375 394.535156 L 253.773438 395.773438 L 252.683594 396.992188 L 251.574219 398.195313 L 250.441406 399.378906 Z M 249.296875 400.546875 "/>
<path style="fill:none;stroke-width:2.25;stroke-linecap:round;stroke-linejoin:round;stroke:rgb(0%,0%,0%);stroke-opacity:1;stroke-miterlimit:10;" d="M 249.296875 256.171875 L 250.441406 255.003906 L 251.574219 253.820313 L 252.683594 252.617188 L 253.773438 251.398438 L 254.84375 250.160156 L 255.898438 248.910156 L 256.929688 247.640625 L 257.941406 246.351563 L 258.929688 245.050781 L 259.902344 243.734375 L 260.851563 242.398438 L 261.777344 241.050781 L 262.683594 239.691406 L 263.570313 238.3125 L 264.429688 236.921875 L 265.273438 235.519531 L 266.089844 234.101563 L 266.886719 232.671875 L 267.660156 231.230469 L 268.40625 229.777344 L 269.132813 228.308594 L 269.839844 226.832031 L 270.519531 225.34375 L 271.171875 223.84375 L 271.804688 222.335938 L 272.414063 220.816406 L 272.996094 219.289063 L 273.558594 217.75 L 274.09375 216.203125 L 274.601563 214.648438 L 275.089844 213.085938 L 275.550781 211.519531 L 275.984375 209.941406 L 276.398438 208.355469 L 276.78125 206.765625 L 277.144531 205.171875 L 277.476563 203.570313 L 277.789063 201.960938 L 278.070313 200.351563 L 278.332031 198.734375 L 278.5625 197.117188 L 278.769531 195.492188 L 278.953125 193.867188 L 279.109375 192.238281 L 279.238281 190.605469 L 279.339844 188.972656 L 279.417969 187.339844 L 279.472656 185.703125 L 279.496094 184.066406 L 279.496094 182.433594 L 279.472656 180.796875 L 279.417969 179.160156 L 279.339844 177.527344 L 279.238281 175.894531 L 279.109375 174.261719 L 278.953125 172.632813 L 278.769531 171.007813 L 278.5625 169.382813 L 278.332031 167.765625 L 278.070313 166.148438 L 277.789063 164.539063 L 277.476563 162.929688 L 277.144531 161.328125 L 276.78125 159.734375 L 276.398438 158.144531 L 275.984375 156.558594 L 275.550781 154.980469 L 275.089844 153.414063 L 274.601563 151.851563 L 274.09375 150.296875 L 273.558594 148.75 L 272.996094 147.210938 L 272.414063 145.683594 L 271.804688 144.164063 L 271.171875 142.65625 L 270.519531 141.15625 L 269.839844 139.667969 L 269.132813 138.191406 L 268.40625 136.722656 L 267.660156 135.269531 L 266.886719 133.828125 L 266.089844 132.398438 L 265.273438 130.980469 L 264.429688 129.578125 L 263.570313 128.1875 L 262.683594 126.808594 L 261.777344 125.449219 L 260.851563 124.101563 L 259.902344 122.765625 L 258.929688 121.449219 L 257.941406 120.148438 L 256.929688 118.859375 L 255.898438 117.589844 L 254.84375 116.339844 L 253.773438 115.101563 L 252.683594 113.882813 L 251.574219 112.679688 L 250.441406 111.496094 L 249.296875 110.328125 L 250.441406 111.496094 L 251.574219 112.679688 L 252.683594 113.882813 L 253.773438 115.101563 L 254.84375 116.339844 L 255.898438 117.589844 L 256.929688 118.859375 L 257.941406 120.148438 L 258.929688 121.449219 L 259.902344 122.765625 L 260.851563 124.101563 L 261.777344 125.449219 L 262.683594 126.808594 L 263.570313 128.1875 L 264.429688 129.578125 L 265.273438 130.980469 L 266.089844 132.398438 L 266.886719 133.828125 L 267.660156 135.269531 L 268.40625 136.722656 L 269.132813 138.191406 L 269.839844 139.667969 L 270.519531 141.15625 L 271.171875 142.65625 L 271.804688 144.164063 L 272.414063 145.683594 L 272.996094 147.210938 L 273.558594 148.75 L 274.09375 150.296875 L 274.601563 151.851563 L 275.089844 153.414063 L 275.550781 154.980469 L 275.984375 156.558594 L 276.398438 158.144531 L 276.78125 159.734375 L 277.144531 161.328125 L 277.476563 162.929688 L 277.789063 164.539063 L 278.070313 166.148438 L 278.332031 167.765625 L 278.5625 169.382813 L 278.769531 171.007813 L 278.953125 172.632813 L 279.109375 174.261719 L 279.238281 175.894531 L 279.339844 177.527344 L 279.417969 179.160156 L 279.472656 180.796875 L 279.496094 182.433594 L 279.496094 184.066406 L 279.472656 185.703125 L 279.417969 187.339844 L 279.339844 188.972656 L 279.238281 190.605469 L 279.109375 192.238281 L 278.953125 193.867188 L 278.769531 195.492188 L 278.5625 197.117188 L 278.332031 198.734375 L 278.070313 200.351563 L 277.789063 201.960938 L 277.476563 203.570313 L 277.144531 205.171875 L 276.78125 206.765625 L 276.398438 208.355469 L 275.984375 209.941406 L 275.550781 211.519531 L 275.089844 213.085938 L 274.601563 214.648438 L 274.09375 216.203125 L 273.558594 217.75 L 272.996094 219.289063 L 272.414063 220.816406 L 271.804688 222.335938 L 271.171875 223.84375 L 270.519531 225.34375 L 269.839844 226.832031 L 269.132813 228.308594 L 268.40625 229.777344 L 267.660156 231.230469 L 266.886719 232.671875 L 266.089844 234.101563 L 265.273438 235.519531 L 264.429688 236.921875 L 263.570313 238.3125 L 262.683594 239.691406 L 261.777344 241.050781 L 260.851563 242.398438 L 259.902344 243.734375 L 258.929688 245.050781 L 257.941406 246.351563 L 256.929688 247.640625 L 255.898438 248.910156 L 254.84375 250.160156 L 253.773438 251.398438 L 252.683594 252.617188 L 251.574219 253.820313 L 250.441406 255.003906 Z M 249.296875 256.171875 "/>
<path style="fill:none;stroke-width:2.25;stroke-linecap:round;stroke-linejoin:round;stroke:rgb(0%,0%,0%);stroke-opacity:1;stroke-miterlimit:10;" d="M 249.203125 254.703125 L 248.058594 255.871094 L 246.925781 257.054688 L 245.816406 258.257813 L 244.726563 259.476563 L 243.65625 260.714844 L 242.601563 261.964844 L 241.570313 263.234375 L 240.558594 264.523438 L 239.570313 265.824219 L 238.597656 267.140625 L 237.648438 268.476563 L 236.722656 269.824219 L 235.816406 271.183594 L 234.929688 272.5625 L 234.070313 273.953125 L 233.226563 275.355469 L 232.410156 276.773438 L 231.613281 278.203125 L 230.839844 279.644531 L 230.09375 281.097656 L 229.367188 282.566406 L 228.660156 284.042969 L 227.980469 285.53125 L 227.328125 287.03125 L 226.695313 288.539063 L 226.085938 290.058594 L 225.503906 291.585938 L 224.941406 293.125 L 224.40625 294.671875 L 223.898438 296.226563 L 223.410156 297.789063 L 222.949219 299.355469 L 222.515625 300.933594 L 222.101563 302.519531 L 221.71875 304.109375 L 221.355469 305.703125 L 221.023438 307.304688 L 220.710938 308.914063 L 220.429688 310.523438 L 220.167969 312.140625 L 219.9375 313.757813 L 219.730469 315.382813 L 219.546875 317.007813 L 219.390625 318.636719 L 219.261719 320.269531 L 219.160156 321.902344 L 219.082031 323.535156 L 219.027344 325.171875 L 219.003906 326.808594 L 219.003906 328.441406 L 219.027344 330.078125 L 219.082031 331.714844 L 219.160156 333.347656 L 219.261719 334.980469 L 219.390625 336.613281 L 219.546875 338.242188 L 219.730469 339.867188 L 219.9375 341.492188 L 220.167969 343.109375 L 220.429688 344.726563 L 220.710938 346.335938 L 221.023438 347.945313 L 221.355469 349.546875 L 221.71875 351.140625 L 222.101563 352.730469 L 222.515625 354.316406 L 222.949219 355.894531 L 223.410156 357.460938 L 223.898438 359.023438 L 224.40625 360.578125 L 224.941406 362.125 L 225.503906 363.664063 L 226.085938 365.191406 L 226.695313 366.710938 L 227.328125 368.21875 L 227.980469 369.71875 L 228.660156 371.207031 L 229.367188 372.683594 L 230.09375 374.152344 L 230.839844 375.605469 L 231.613281 377.046875 L 232.410156 378.476563 L 233.226563 379.894531 L 234.070313 381.296875 L 234.929688 382.6875 L 235.816406 384.066406 L 236.722656 385.425781 L 237.648438 386.773438 L 238.597656 388.109375 L 239.570313 389.425781 L 240.558594 390.726563 L 241.570313 392.015625 L 242.601563 393.285156 L 243.65625 394.535156 L 244.726563 395.773438 L 245.816406 396.992188 L 246.925781 398.195313 L 248.058594 399.378906 L 249.203125 400.546875 L 248.058594 399.378906 L 246.925781 398.195313 L 245.816406 396.992188 L 244.726563 395.773438 L 243.65625 394.535156 L 242.601563 393.285156 L 241.570313 392.015625 L 240.558594 390.726563 L 239.570313 389.425781 L 238.597656 388.109375 L 237.648438 386.773438 L 236.722656 385.425781 L 235.816406 384.066406 L 234.929688 382.6875 L 234.070313 381.296875 L 233.226563 379.894531 L 232.410156 378.476563 L 231.613281 377.046875 L 230.839844 375.605469 L 230.09375 374.152344 L 229.367188 372.683594 L 228.660156 371.207031 L 227.980469 369.71875 L 227.328125 368.21875 L 226.695313 366.710938 L 226.085938 365.191406 L 225.503906 363.664063 L 224.941406 362.125 L 224.40625 360.578125 L 223.898438 359.023438 L 223.410156 357.460938 L 222.949219 355.894531 L 222.515625 354.316406 L 222.101563 352.730469 L 221.71875 351.140625 L 221.355469 349.546875 L 221.023438 347.945313 L 220.710938 346.335938 L 220.429688 344.726563 L 220.167969 343.109375 L 219.9375 341.492188 L 219.730469 339.867188 L 219.546875 338.242188 L 219.390625 336.613281 L 219.261719 334.980469 L 219.160156 333.347656 L 219.082031 331.714844 L 219.027344 330.078125 L 219.003906 328.441406 L 219.003906 326.808594 L 219.027344 325.171875 L 219.082031 323.535156 L 219.160156 321.902344 L 219.261719 320.269531 L 219.390625 318.636719 L 219.546875 317.007813 L 219.730469 315.382813 L 219.9375 313.757813 L 220.167969 312.140625 L 220.429688 310.523438 L 220.710938 308.914063 L 221.023438 307.304688 L 221.355469 305.703125 L 221.71875 304.109375 L 222.101563 302.519531 L 222.515625 300.933594 L 222.949219 299.355469 L 223.410156 297.789063 L 223.898438 296.226563 L 224.40625 294.671875 L 224.941406 293.125 L 225.503906 291.585938 L 226.085938 290.058594 L 226.695313 288.539063 L 227.328125 287.03125 L 227.980469 285.53125 L 228.660156 284.042969 L 229.367188 282.566406 L 230.09375 281.097656 L 230.839844 279.644531 L 231.613281 278.203125 L 232.410156 276.773438 L 233.226563 275.355469 L 234.070313 273.953125 L 234.929688 272.5625 L 235.816406 271.183594 L 236.722656 269.824219 L 237.648438 268.476563 L 238.597656 267.140625 L 239.570313 265.824219 L 240.558594 264.523438 L 241.570313 263.234375 L 242.601563 261.964844 L 243.65625 260.714844 L 244.726563 259.476563 L 245.816406 258.257813 L 246.925781 257.054688 L 248.058594 255.871094 Z M 249.203125 254.703125 "/>
</g>
</svg>
