<?xml version="1.0" encoding="UTF-8"?>
<svg xmlns="http://www.w3.org/2000/svg" xmlns:xlink="http://www.w3.org/1999/xlink" width="504pt" height="504pt" viewBox="0 0 504 504" version="1.1">
<g id="surface1781">
<rect x="0" y="0" width="504" height="504" style="fill:rgb(100%,100%,100%);fill-opacity:1;stroke:none;"/>
<path style="fill:none;stroke-width:2.25;stroke-linecap:round;stroke-linejoin:round;stroke:rgb(0%,0%,0%);stroke-opacity:1;stroke-miterlimit:10;" d="M 106.160156 403.25 L 397.839844 403.25 Z M 106.160156 403.25 "/>
<path style="fill:none;stroke-width:2.25;stroke-linecap:round;stroke-linejoin:round;stroke:rgb(0%,0%,0%);stroke-opacity:1;stroke-miterlimit:10;" d="M 403.25 397.839844 L 403.25 106.160156 Z M 403.25 397.839844 "/>
<path style="fill:none;stroke-width:2.25;stroke-linecap:round;stroke-linejoin:round;stroke:rgb(0%,0%,0%);stroke-opacity:1;stroke-miterlimit:10;" d="M 106.160156 100.75 L 397.839844 100.75 Z M 106.160156 100.75 "/>
<path style="fill:none;stroke-width:2.25;stroke-linecap:round;stroke-linejoin:round;stroke:rgb(0%,0%,0%);stroke-opacity:1;stroke-miterlimit:10;" d="M 100.75 397.839844 L 100.75 106.160156 Z M 100.75 397.839844 "/>
<path style="fill:none;stroke-width:2.25;stroke-linecap:round;stroke-linejoin:round;stroke:rgb(0%,0%,0%);stroke-opacity:1;stroke-miterlimit:10;" d="M 252 45.75 L 248.726563 45.777344 L 245.457031 45.855469 L 242.1875 45.984375 L 238.917969 46.164063 L 235.65625 46.398438 L 232.394531 46.683594 L 229.140625 47.019531 L 225.890625 47.410156 L 222.648438 47.847656 L 219.414063 48.339844 L 216.183594 48.882813 L 212.96875 49.476563 L 209.757813 50.121094 L 206.5625 50.816406 L 203.375 51.5625 L 200.199219 52.359375 L 197.039063 53.207031 L 193.894531 54.105469 L 190.761719 55.050781 L 187.644531 56.046875 L 184.542969 57.09375 L 181.457031 58.1875 L 178.390625 59.332031 L 175.34375 60.523438 L 172.316406 61.765625 L 169.308594 63.050781 L 166.320313 64.386719 L 163.355469 65.769531 L 160.410156 67.203125 L 157.492188 68.675781 L 154.59375 70.199219 L 151.722656 71.769531 L 148.875 73.382813 L 146.054688 75.039063 L 143.257813 76.742188 L 140.492188 78.492188 L 137.753906 80.28125 L 135.042969 82.117188 L 132.363281 83.992188 L 129.710938 85.914063 L 127.09375 87.875 L 124.503906 89.875 L 121.949219 91.917969 L 119.425781 94.003906 L 116.933594 96.125 L 114.480469 98.289063 L 112.058594 100.492188 L 109.671875 102.730469 L 107.320313 105.007813 L 105.007813 107.320313 L 102.730469 109.671875 L 100.492188 112.058594 L 98.289063 114.480469 L 96.125 116.933594 L 94.003906 119.425781 L 91.917969 121.949219 L 89.875 124.503906 L 87.875 127.09375 L 85.914063 129.710938 L 83.992188 132.363281 L 82.117188 135.042969 L 80.28125 137.753906 L 78.492188 140.492188 L 76.742188 143.257813 L 75.039063 146.054688 L 73.382813 148.875 L 71.769531 151.722656 L 70.199219 154.59375 L 68.675781 157.492188 L 67.203125 160.410156 L 65.769531 163.355469 L 64.386719 166.320313 L 63.050781 169.308594 L 61.765625 172.316406 L 60.523438 175.34375 L 59.332031 178.390625 L 58.1875 181.457031 L 57.09375 184.542969 L 56.046875 187.644531 L 55.050781 190.761719 L 54.105469 193.894531 L 53.207031 197.039063 L 52.359375 200.199219 L 51.5625 203.375 L 50.816406 206.5625 L 50.121094 209.757813 L 49.476563 212.96875 L 48.882813 216.183594 L 48.339844 219.414063 L 47.847656 222.648438 L 47.410156 225.890625 L 47.019531 229.140625 L 46.683594 232.394531 L 46.398438 235.65625 L 46.164063 238.917969 L 45.984375 242.1875 L 45.855469 245.457031 L 45.777344 248.726563 L 45.75 252 L 252 252 Z M 252 45.75 "/>
</g>
</svg>
