<?xml version="1.0" encoding="UTF-8"?>
<svg xmlns="http://www.w3.org/2000/svg" xmlns:xlink="http://www.w3.org/1999/xlink" width="504pt" height="504pt" viewBox="0 0 504 504" version="1.1">
<g id="surface1746">
<rect x="0" y="0" width="504" height="504" style="fill:rgb(100%,100%,100%);fill-opacity:1;stroke:none;"/>
<path style="fill:none;stroke-width:2.25;stroke-linecap:round;stroke-linejoin:round;stroke:rgb(0%,0%,0%);stroke-opacity:1;stroke-miterlimit:10;" d="M 106.160156 403.25 L 397.839844 403.25 Z M 106.160156 403.25 "/>
<path style="fill:none;stroke-width:2.25;stroke-linecap:round;stroke-linejoin:round;stroke:rgb(0%,0%,0%);stroke-opacity:1;stroke-miterlimit:10;" d="M 403.25 397.839844 L 403.25 106.160156 Z M 403.25 397.839844 "/>
<path style="fill:none;stroke-width:2.25;stroke-linecap:round;stroke-linejoin:round;stroke:rgb(0%,0%,0%);stroke-opacity:1;stroke-miterlimit:10;" d="M 106.160156 100.75 L 397.839844 100.75 Z M 106.160156 100.75 "/>
<path style="fill:none;stroke-width:2.25;stroke-linecap:round;stroke-linejoin:round;stroke:rgb(0%,0%,0%);stroke-opacity:1;stroke-miterlimit:10;" d="M 100.75 397.839844 L 100.75 106.160156 Z M 100.75 397.839844 "/>
<path style="fill:none;stroke-width:2.25;stroke-linecap:round;stroke-linejoin:round;stroke:rgb(0%,0%,0%);stroke-opacity:1;stroke-miterlimit:10;" d="M 397.839844 106.160156 L 395.507813 103.863281 L 393.140625 101.605469 L 390.734375 99.386719 L 388.296875 97.203125 L 385.824219 95.058594 L 383.316406 92.957031 L 380.777344 90.894531 L 378.207031 88.871094 L 375.601563 86.886719 L 372.964844 84.949219 L 370.300781 83.050781 L 367.605469 81.195313 L 364.878906 79.382813 L 362.128906 77.613281 L 359.347656 75.886719 L 356.539063 74.207031 L 353.703125 72.570313 L 350.84375 70.980469 L 347.960938 69.433594 L 345.050781 67.933594 L 342.121094 66.480469 L 339.164063 65.074219 L 336.1875 63.714844 L 333.191406 62.402344 L 330.171875 61.136719 L 327.132813 59.921875 L 324.078125 58.753906 L 321 57.636719 L 317.910156 56.566406 L 314.800781 55.542969 L 311.675781 54.570313 L 308.535156 53.648438 L 305.382813 52.777344 L 302.214844 51.957031 L 299.035156 51.183594 L 295.839844 50.464844 L 292.636719 49.792969 L 289.425781 49.175781 L 286.203125 48.605469 L 282.972656 48.089844 L 279.730469 47.621094 L 276.484375 47.207031 L 273.234375 46.847656 L 269.976563 46.535156 L 266.714844 46.277344 L 263.449219 46.066406 L 260.179688 45.914063 L 256.910156 45.808594 L 253.636719 45.757813 L 250.363281 45.757813 L 247.089844 45.808594 L 243.820313 45.914063 L 240.550781 46.066406 L 237.285156 46.277344 L 234.023438 46.535156 L 230.765625 46.847656 L 227.515625 47.207031 L 224.269531 47.621094 L 221.027344 48.089844 L 217.796875 48.605469 L 214.574219 49.175781 L 211.363281 49.792969 L 208.160156 50.464844 L 204.964844 51.183594 L 201.785156 51.957031 L 198.617188 52.777344 L 195.464844 53.648438 L 192.324219 54.570313 L 189.199219 55.542969 L 186.089844 56.566406 L 183 57.636719 L 179.921875 58.753906 L 176.867188 59.921875 L 173.828125 61.136719 L 170.808594 62.402344 L 167.8125 63.714844 L 164.835938 65.074219 L 161.878906 66.480469 L 158.949219 67.933594 L 156.039063 69.433594 L 153.15625 70.980469 L 150.296875 72.570313 L 147.460938 74.207031 L 144.652344 75.886719 L 141.871094 77.613281 L 139.121094 79.382813 L 136.394531 81.195313 L 133.699219 83.050781 L 131.035156 84.949219 L 128.398438 86.886719 L 125.792969 88.871094 L 123.222656 90.894531 L 120.683594 92.957031 L 118.175781 95.058594 L 115.703125 97.203125 L 113.265625 99.386719 L 110.859375 101.605469 L 108.492188 103.863281 L 106.160156 106.160156 L 252 252 Z M 397.839844 106.160156 "/>
</g>
</svg>
