<?xml version="1.0" encoding="UTF-8"?>
<svg xmlns="http://www.w3.org/2000/svg" xmlns:xlink="http://www.w3.org/1999/xlink" width="504pt" height="504pt" viewBox="0 0 504 504" version="1.1">
<defs>
<clipPath id="clip1">
  <path d="M 182 14.398438 L 185 14.398438 L 185 489.597656 L 182 489.597656 Z M 182 14.398438 "/>
</clipPath>
</defs>
<g id="surface1796">
<rect x="0" y="0" width="504" height="504" style="fill:rgb(100%,100%,100%);fill-opacity:1;stroke:none;"/>
<path style="fill:none;stroke-width:1.5;stroke-linecap:round;stroke-linejoin:round;stroke:rgb(0%,0%,0%);stroke-opacity:1;stroke-miterlimit:10;" d="M 444.5 100.75 L 444.417969 98.160156 L 444.175781 95.578125 L 443.769531 93.019531 L 443.203125 90.492188 L 442.480469 88.003906 L 441.601563 85.566406 L 440.574219 83.1875 L 439.398438 80.878906 L 438.078125 78.648438 L 436.621094 76.503906 L 435.035156 74.457031 L 433.320313 72.511719 L 431.488281 70.679688 L 429.542969 68.964844 L 427.496094 67.378906 L 425.351563 65.921875 L 423.121094 64.601563 L 420.8125 63.425781 L 418.433594 62.398438 L 415.996094 61.519531 L 413.507813 60.796875 L 410.980469 60.230469 L 408.421875 59.824219 L 405.839844 59.582031 L 403.25 59.5 L 400.660156 59.582031 L 398.078125 59.824219 L 395.519531 60.230469 L 392.992188 60.796875 L 390.503906 61.519531 L 388.066406 62.398438 L 385.6875 63.425781 L 383.378906 64.601563 L 381.148438 65.921875 L 379.003906 67.378906 L 376.957031 68.964844 L 375.011719 70.679688 L 373.179688 72.511719 L 371.464844 74.457031 L 369.878906 76.503906 L 368.421875 78.648438 L 367.101563 80.878906 L 365.925781 83.1875 L 364.898438 85.566406 L 364.019531 88.003906 L 363.296875 90.492188 L 362.730469 93.019531 L 362.324219 95.578125 L 362.082031 98.160156 L 362 100.75 L 362.082031 103.339844 L 362.324219 105.921875 L 362.730469 108.480469 L 363.296875 111.007813 L 364.019531 113.496094 L 364.898438 115.933594 L 365.925781 118.3125 L 367.101563 120.621094 L 368.421875 122.851563 L 369.878906 124.996094 L 371.464844 127.042969 L 373.179688 128.988281 L 375.011719 130.820313 L 376.957031 132.535156 L 379.003906 134.121094 L 381.148438 135.578125 L 383.378906 136.898438 L 385.6875 138.074219 L 388.066406 139.101563 L 390.503906 139.980469 L 392.992188 140.703125 L 395.519531 141.269531 L 398.078125 141.675781 L 400.660156 141.917969 L 403.25 142 L 405.839844 141.917969 L 408.421875 141.675781 L 410.980469 141.269531 L 413.507813 140.703125 L 415.996094 139.980469 L 418.433594 139.101563 L 420.8125 138.074219 L 423.121094 136.898438 L 425.351563 135.578125 L 427.496094 134.121094 L 429.542969 132.535156 L 431.488281 130.820313 L 433.320313 128.988281 L 435.035156 127.042969 L 436.621094 124.996094 L 438.078125 122.851563 L 439.398438 120.621094 L 440.574219 118.3125 L 441.601563 115.933594 L 442.480469 113.496094 L 443.203125 111.007813 L 443.769531 108.480469 L 444.175781 105.921875 L 444.417969 103.339844 Z M 444.5 100.75 "/>
<path style="fill:none;stroke-width:1.5;stroke-linecap:round;stroke-linejoin:round;stroke:rgb(0%,0%,0%);stroke-opacity:1;stroke-miterlimit:10;" d="M 293.25 252 L 293.167969 249.410156 L 292.925781 246.828125 L 292.519531 244.269531 L 291.953125 241.742188 L 291.230469 239.253906 L 290.351563 236.816406 L 289.324219 234.4375 L 288.148438 232.128906 L 286.828125 229.898438 L 285.371094 227.753906 L 283.785156 225.707031 L 282.070313 223.761719 L 280.238281 221.929688 L 278.292969 220.214844 L 276.246094 218.628906 L 274.101563 217.171875 L 271.871094 215.851563 L 269.5625 214.675781 L 267.183594 213.648438 L 264.746094 212.769531 L 262.257813 212.046875 L 259.730469 211.480469 L 257.171875 211.074219 L 254.589844 210.832031 L 252 210.75 L 249.410156 210.832031 L 246.828125 211.074219 L 244.269531 211.480469 L 241.742188 212.046875 L 239.253906 212.769531 L 236.816406 213.648438 L 234.4375 214.675781 L 232.128906 215.851563 L 229.898438 217.171875 L 227.753906 218.628906 L 225.707031 220.214844 L 223.761719 221.929688 L 221.929688 223.761719 L 220.214844 225.707031 L 218.628906 227.753906 L 217.171875 229.898438 L 215.851563 232.128906 L 214.675781 234.4375 L 213.648438 236.816406 L 212.769531 239.253906 L 212.046875 241.742188 L 211.480469 244.269531 L 211.074219 246.828125 L 210.832031 249.410156 L 210.75 252 L 210.832031 254.589844 L 211.074219 257.171875 L 211.480469 259.730469 L 212.046875 262.257813 L 212.769531 264.746094 L 213.648438 267.183594 L 214.675781 269.5625 L 215.851563 271.871094 L 217.171875 274.101563 L 218.628906 276.246094 L 220.214844 278.292969 L 221.929688 280.238281 L 223.761719 282.070313 L 225.707031 283.785156 L 227.753906 285.371094 L 229.898438 286.828125 L 232.128906 288.148438 L 234.4375 289.324219 L 236.816406 290.351563 L 239.253906 291.230469 L 241.742188 291.953125 L 244.269531 292.519531 L 246.828125 292.925781 L 249.410156 293.167969 L 252 293.25 L 254.589844 293.167969 L 257.171875 292.925781 L 259.730469 292.519531 L 262.257813 291.953125 L 264.746094 291.230469 L 267.183594 290.351563 L 269.5625 289.324219 L 271.871094 288.148438 L 274.101563 286.828125 L 276.246094 285.371094 L 278.292969 283.785156 L 280.238281 282.070313 L 282.070313 280.238281 L 283.785156 278.292969 L 285.371094 276.246094 L 286.828125 274.101563 L 288.148438 271.871094 L 289.324219 269.5625 L 290.351563 267.183594 L 291.230469 264.746094 L 291.953125 262.257813 L 292.519531 259.730469 L 292.925781 257.171875 L 293.167969 254.589844 Z M 293.25 252 "/>
<path style="fill:none;stroke-width:2.25;stroke-linecap:round;stroke-linejoin:round;stroke:rgb(0%,0%,0%);stroke-opacity:1;stroke-miterlimit:10;" d="M 71.582031 374.082031 L 129.917969 432.417969 Z M 71.582031 374.082031 "/>
<path style="fill:none;stroke-width:2.25;stroke-linecap:round;stroke-linejoin:round;stroke:rgb(0%,0%,0%);stroke-opacity:1;stroke-miterlimit:10;" d="M 71.582031 432.417969 L 129.917969 374.082031 Z M 71.582031 432.417969 "/>
<g clip-path="url(#clip1)" clip-rule="nonzero">
<path style="fill:none;stroke-width:2.25;stroke-linecap:round;stroke-linejoin:round;stroke:rgb(0%,0%,0%);stroke-opacity:1;stroke-dasharray:9,9;stroke-miterlimit:10;" d="M 183.25 499.5 L 183.25 4.5 Z M 183.25 499.5 "/>
</g>
</g>
</svg>
