<?xml version="1.0" encoding="UTF-8"?>
<svg xmlns="http://www.w3.org/2000/svg" xmlns:xlink="http://www.w3.org/1999/xlink" width="504pt" height="504pt" viewBox="0 0 504 504" version="1.1">
<g id="surface2166">
<rect x="0" y="0" width="504" height="504" style="fill:rgb(100%,100%,100%);fill-opacity:1;stroke:none;"/>
<path style="fill:none;stroke-width:1.5;stroke-linecap:round;stroke-linejoin:round;stroke:rgb(0%,0%,0%);stroke-opacity:1;stroke-miterlimit:10;" d="M 485.75 252 L 485.289063 237.324219 L 483.90625 222.703125 L 481.609375 208.199219 L 478.40625 193.867188 L 474.308594 179.765625 L 469.335938 165.949219 L 463.503906 152.472656 L 456.835938 139.390625 L 449.363281 126.75 L 441.109375 114.605469 L 432.109375 103.003906 L 422.394531 91.988281 L 412.011719 81.605469 L 400.996094 71.890625 L 389.394531 62.890625 L 377.25 54.636719 L 364.609375 47.164063 L 351.527344 40.496094 L 338.050781 34.664063 L 324.234375 29.691406 L 310.132813 25.59375 L 295.800781 22.390625 L 281.296875 20.09375 L 266.675781 18.710938 L 252 18.25 L 237.324219 18.710938 L 222.703125 20.09375 L 208.199219 22.390625 L 193.867188 25.59375 L 179.765625 29.691406 L 165.949219 34.664063 L 152.472656 40.496094 L 139.390625 47.164063 L 126.75 54.636719 L 114.605469 62.890625 L 103.003906 71.890625 L 91.988281 81.605469 L 81.605469 91.988281 L 71.890625 103.003906 L 62.890625 114.605469 L 54.636719 126.75 L 47.164063 139.390625 L 40.496094 152.472656 L 34.664063 165.949219 L 29.691406 179.765625 L 25.59375 193.867188 L 22.390625 208.199219 L 20.09375 222.703125 L 18.710938 237.324219 L 18.25 252 L 18.710938 266.675781 L 20.09375 281.296875 L 22.390625 295.800781 L 25.59375 310.132813 L 29.691406 324.234375 L 34.664063 338.050781 L 40.496094 351.527344 L 47.164063 364.609375 L 54.636719 377.25 L 62.890625 389.394531 L 71.890625 400.996094 L 81.605469 412.011719 L 91.988281 422.394531 L 103.003906 432.109375 L 114.605469 441.109375 L 126.75 449.363281 L 139.390625 456.835938 L 152.472656 463.503906 L 165.949219 469.335938 L 179.765625 474.308594 L 193.867188 478.40625 L 208.199219 481.609375 L 222.703125 483.90625 L 237.324219 485.289063 L 252 485.75 L 266.675781 485.289063 L 281.296875 483.90625 L 295.800781 481.609375 L 310.132813 478.40625 L 324.234375 474.308594 L 338.050781 469.335938 L 351.527344 463.503906 L 364.609375 456.835938 L 377.25 449.363281 L 389.394531 441.109375 L 400.996094 432.109375 L 412.011719 422.394531 L 422.394531 412.011719 L 432.109375 400.996094 L 441.109375 389.394531 L 449.363281 377.25 L 456.835938 364.609375 L 463.503906 351.527344 L 469.335938 338.050781 L 474.308594 324.234375 L 478.40625 310.132813 L 481.609375 295.800781 L 483.90625 281.296875 L 485.289063 266.675781 Z M 485.75 252 "/>
<path style="fill:none;stroke-width:2.25;stroke-linecap:round;stroke-linejoin:round;stroke:rgb(0%,0%,0%);stroke-opacity:1;stroke-miterlimit:10;" d="M 252 32 L 42.765625 184.015625 L 122.6875 429.984375 L 381.3125 429.984375 L 461.234375 184.015625 Z M 252 32 "/>
<path style="fill:none;stroke-width:2.25;stroke-linecap:round;stroke-linejoin:round;stroke:rgb(0%,0%,0%);stroke-opacity:1;stroke-miterlimit:10;" d="M 355.125 148.875 L 350.101563 144.085938 L 344.855469 139.539063 L 339.398438 135.25 L 333.746094 131.222656 L 327.90625 127.46875 L 321.894531 124 L 315.722656 120.816406 L 309.410156 117.933594 L 302.964844 115.355469 L 296.40625 113.085938 L 289.746094 111.128906 L 283 109.492188 L 276.183594 108.179688 L 269.3125 107.191406 L 262.402344 106.53125 L 255.46875 106.199219 L 248.53125 106.199219 L 241.597656 106.53125 L 234.6875 107.191406 L 227.816406 108.179688 L 221 109.492188 L 214.253906 111.128906 L 207.59375 113.085938 L 201.035156 115.355469 L 194.589844 117.933594 L 188.277344 120.816406 L 182.105469 124 L 176.09375 127.46875 L 170.253906 131.222656 L 164.601563 135.25 L 159.144531 139.539063 L 153.898438 144.085938 L 148.875 148.875 L 144.085938 153.898438 L 139.539063 159.144531 L 135.25 164.601563 L 131.222656 170.253906 L 127.46875 176.09375 L 124 182.105469 L 120.816406 188.277344 L 117.933594 194.589844 L 115.355469 201.035156 L 113.085938 207.59375 L 111.128906 214.253906 L 109.492188 221 L 108.179688 227.816406 L 107.191406 234.6875 L 106.53125 241.597656 L 106.199219 248.53125 L 106.199219 255.46875 L 106.53125 262.402344 L 107.191406 269.3125 L 108.179688 276.183594 L 109.492188 283 L 111.128906 289.746094 L 113.085938 296.40625 L 115.355469 302.964844 L 117.933594 309.410156 L 120.816406 315.722656 L 124 321.894531 L 127.46875 327.90625 L 131.222656 333.746094 L 135.25 339.398438 L 139.539063 344.855469 L 144.085938 350.101563 L 148.875 355.125 L 153.898438 359.914063 L 159.144531 364.460938 L 164.601563 368.75 L 170.253906 372.777344 L 176.09375 376.53125 L 182.105469 380 L 188.277344 383.183594 L 194.589844 386.066406 L 201.035156 388.644531 L 207.59375 390.914063 L 214.253906 392.871094 L 221 394.507813 L 227.816406 395.820313 L 234.6875 396.808594 L 241.597656 397.46875 L 248.53125 397.800781 L 255.46875 397.800781 L 262.402344 397.46875 L 269.3125 396.808594 L 276.183594 395.820313 L 283 394.507813 L 289.746094 392.871094 L 296.40625 390.914063 L 302.964844 388.644531 L 309.410156 386.066406 L 315.722656 383.183594 L 321.894531 380 L 327.90625 376.53125 L 333.746094 372.777344 L 339.398438 368.75 L 344.855469 364.460938 L 350.101563 359.914063 L 355.125 355.125 L 252 252 Z M 355.125 148.875 "/>
<path style="fill-rule:nonzero;fill:rgb(74.509804%,74.509804%,74.509804%);fill-opacity:1;stroke-width:1.5;stroke-linecap:round;stroke-linejoin:round;stroke:rgb(0%,0%,0%);stroke-opacity:1;stroke-miterlimit:10;" d="M 279.5 252 L 279.445313 250.273438 L 279.28125 248.554688 L 279.011719 246.847656 L 278.636719 245.160156 L 278.152344 243.503906 L 277.570313 241.875 L 276.882813 240.292969 L 276.097656 238.75 L 275.21875 237.265625 L 274.246094 235.835938 L 273.1875 234.472656 L 272.046875 233.175781 L 270.824219 231.953125 L 269.527344 230.8125 L 268.164063 229.753906 L 266.734375 228.78125 L 265.25 227.902344 L 263.707031 227.117188 L 262.125 226.429688 L 260.496094 225.847656 L 258.839844 225.363281 L 257.152344 224.988281 L 255.445313 224.71875 L 253.726563 224.554688 L 252 224.5 L 250.273438 224.554688 L 248.554688 224.71875 L 246.847656 224.988281 L 245.160156 225.363281 L 243.503906 225.847656 L 241.875 226.429688 L 240.292969 227.117188 L 238.75 227.902344 L 237.265625 228.78125 L 235.835938 229.753906 L 234.472656 230.8125 L 233.175781 231.953125 L 231.953125 233.175781 L 230.8125 234.472656 L 229.753906 235.835938 L 228.78125 237.265625 L 227.902344 238.75 L 227.117188 240.292969 L 226.429688 241.875 L 225.847656 243.503906 L 225.363281 245.160156 L 224.988281 246.847656 L 224.71875 248.554688 L 224.554688 250.273438 L 224.5 252 L 224.554688 253.726563 L 224.71875 255.445313 L 224.988281 257.152344 L 225.363281 258.839844 L 225.847656 260.496094 L 226.429688 262.125 L 227.117188 263.707031 L 227.902344 265.25 L 228.78125 266.734375 L 229.753906 268.164063 L 230.8125 269.527344 L 231.953125 270.824219 L 233.175781 272.046875 L 234.472656 273.1875 L 235.835938 274.246094 L 237.265625 275.21875 L 238.75 276.097656 L 240.292969 276.882813 L 241.875 277.570313 L 243.503906 278.152344 L 245.160156 278.636719 L 246.847656 279.011719 L 248.554688 279.28125 L 250.273438 279.445313 L 252 279.5 L 253.726563 279.445313 L 255.445313 279.28125 L 257.152344 279.011719 L 258.839844 278.636719 L 260.496094 278.152344 L 262.125 277.570313 L 263.707031 276.882813 L 265.25 276.097656 L 266.734375 275.21875 L 268.164063 274.246094 L 269.527344 273.1875 L 270.824219 272.046875 L 272.046875 270.824219 L 273.1875 269.527344 L 274.246094 268.164063 L 275.21875 266.734375 L 276.097656 265.25 L 276.882813 263.707031 L 277.570313 262.125 L 278.152344 260.496094 L 278.636719 258.839844 L 279.011719 257.152344 L 279.28125 255.445313 L 279.445313 253.726563 Z M 279.5 252 "/>
</g>
</svg>
