<?xml version="1.0" encoding="UTF-8"?>
<svg xmlns="http://www.w3.org/2000/svg" xmlns:xlink="http://www.w3.org/1999/xlink" width="504pt" height="504pt" viewBox="0 0 504 504" version="1.1">
<g id="surface2146">
<rect x="0" y="0" width="504" height="504" style="fill:rgb(100%,100%,100%);fill-opacity:1;stroke:none;"/>
<path style="fill:none;stroke-width:2.25;stroke-linecap:round;stroke-linejoin:round;stroke:rgb(0%,0%,0%);stroke-opacity:1;stroke-miterlimit:10;" d="M 485.75 252 L 368.875 49.566406 L 135.125 49.566406 L 18.25 252 L 135.125 454.433594 L 368.875 454.433594 Z M 485.75 252 "/>
<path style="fill:none;stroke-width:2.25;stroke-linecap:round;stroke-linejoin:round;stroke:rgb(0%,0%,0%);stroke-opacity:1;stroke-miterlimit:10;" d="M 148.875 355.125 L 153.898438 359.914063 L 159.144531 364.460938 L 164.601563 368.75 L 170.253906 372.777344 L 176.09375 376.53125 L 182.105469 380 L 188.277344 383.183594 L 194.589844 386.066406 L 201.035156 388.644531 L 207.59375 390.914063 L 214.253906 392.871094 L 221 394.507813 L 227.816406 395.820313 L 234.6875 396.808594 L 241.597656 397.46875 L 248.53125 397.800781 L 255.46875 397.800781 L 262.402344 397.46875 L 269.3125 396.808594 L 276.183594 395.820313 L 283 394.507813 L 289.746094 392.871094 L 296.40625 390.914063 L 302.964844 388.644531 L 309.410156 386.066406 L 315.722656 383.183594 L 321.894531 380 L 327.90625 376.53125 L 333.746094 372.777344 L 339.398438 368.75 L 344.855469 364.460938 L 350.101563 359.914063 L 355.125 355.125 L 359.914063 350.101563 L 364.460938 344.855469 L 368.75 339.398438 L 372.777344 333.746094 L 376.53125 327.90625 L 380 321.894531 L 383.183594 315.722656 L 386.066406 309.410156 L 388.644531 302.964844 L 390.914063 296.40625 L 392.871094 289.746094 L 394.507813 283 L 395.820313 276.183594 L 396.808594 269.3125 L 397.46875 262.402344 L 397.800781 255.46875 L 397.800781 248.53125 L 397.46875 241.597656 L 396.808594 234.6875 L 395.820313 227.816406 L 394.507813 221 L 392.871094 214.253906 L 390.914063 207.59375 L 388.644531 201.035156 L 386.066406 194.589844 L 383.183594 188.277344 L 380 182.105469 L 376.53125 176.09375 L 372.777344 170.253906 L 368.75 164.601563 L 364.460938 159.144531 L 359.914063 153.898438 L 355.125 148.875 L 350.101563 144.085938 L 344.855469 139.539063 L 339.398438 135.25 L 333.746094 131.222656 L 327.90625 127.46875 L 321.894531 124 L 315.722656 120.816406 L 309.410156 117.933594 L 302.964844 115.355469 L 296.40625 113.085938 L 289.746094 111.128906 L 283 109.492188 L 276.183594 108.179688 L 269.3125 107.191406 L 262.402344 106.53125 L 255.46875 106.199219 L 248.53125 106.199219 L 241.597656 106.53125 L 234.6875 107.191406 L 227.816406 108.179688 L 221 109.492188 L 214.253906 111.128906 L 207.59375 113.085938 L 201.035156 115.355469 L 194.589844 117.933594 L 188.277344 120.816406 L 182.105469 124 L 176.09375 127.46875 L 170.253906 131.222656 L 164.601563 135.25 L 159.144531 139.539063 L 153.898438 144.085938 L 148.875 148.875 L 252 252 Z M 148.875 355.125 "/>
<path style="fill-rule:nonzero;fill:rgb(0%,0%,0%);fill-opacity:1;stroke-width:1.5;stroke-linecap:round;stroke-linejoin:round;stroke:rgb(0%,0%,0%);stroke-opacity:1;stroke-miterlimit:10;" d="M 279.5 252 L 279.445313 250.273438 L 279.28125 248.554688 L 279.011719 246.847656 L 278.636719 245.160156 L 278.152344 243.503906 L 277.570313 241.875 L 276.882813 240.292969 L 276.097656 238.75 L 275.21875 237.265625 L 274.246094 235.835938 L 273.1875 234.472656 L 272.046875 233.175781 L 270.824219 231.953125 L 269.527344 230.8125 L 268.164063 229.753906 L 266.734375 228.78125 L 265.25 227.902344 L 263.707031 227.117188 L 262.125 226.429688 L 260.496094 225.847656 L 258.839844 225.363281 L 257.152344 224.988281 L 255.445313 224.71875 L 253.726563 224.554688 L 252 224.5 L 250.273438 224.554688 L 248.554688 224.71875 L 246.847656 224.988281 L 245.160156 225.363281 L 243.503906 225.847656 L 241.875 226.429688 L 240.292969 227.117188 L 238.75 227.902344 L 237.265625 228.78125 L 235.835938 229.753906 L 234.472656 230.8125 L 233.175781 231.953125 L 231.953125 233.175781 L 230.8125 234.472656 L 229.753906 235.835938 L 228.78125 237.265625 L 227.902344 238.75 L 227.117188 240.292969 L 226.429688 241.875 L 225.847656 243.503906 L 225.363281 245.160156 L 224.988281 246.847656 L 224.71875 248.554688 L 224.554688 250.273438 L 224.5 252 L 224.554688 253.726563 L 224.71875 255.445313 L 224.988281 257.152344 L 225.363281 258.839844 L 225.847656 260.496094 L 226.429688 262.125 L 227.117188 263.707031 L 227.902344 265.25 L 228.78125 266.734375 L 229.753906 268.164063 L 230.8125 269.527344 L 231.953125 270.824219 L 233.175781 272.046875 L 234.472656 273.1875 L 235.835938 274.246094 L 237.265625 275.21875 L 238.75 276.097656 L 240.292969 276.882813 L 241.875 277.570313 L 243.503906 278.152344 L 245.160156 278.636719 L 246.847656 279.011719 L 248.554688 279.28125 L 250.273438 279.445313 L 252 279.5 L 253.726563 279.445313 L 255.445313 279.28125 L 257.152344 279.011719 L 258.839844 278.636719 L 260.496094 278.152344 L 262.125 277.570313 L 263.707031 276.882813 L 265.25 276.097656 L 266.734375 275.21875 L 268.164063 274.246094 L 269.527344 273.1875 L 270.824219 272.046875 L 272.046875 270.824219 L 273.1875 269.527344 L 274.246094 268.164063 L 275.21875 266.734375 L 276.097656 265.25 L 276.882813 263.707031 L 277.570313 262.125 L 278.152344 260.496094 L 278.636719 258.839844 L 279.011719 257.152344 L 279.28125 255.445313 L 279.445313 253.726563 Z M 279.5 252 "/>
</g>
</svg>
