<?xml version="1.0" encoding="UTF-8"?>
<svg xmlns="http://www.w3.org/2000/svg" xmlns:xlink="http://www.w3.org/1999/xlink" width="504pt" height="504pt" viewBox="0 0 504 504" version="1.1">
<g id="surface2151">
<rect x="0" y="0" width="504" height="504" style="fill:rgb(100%,100%,100%);fill-opacity:1;stroke:none;"/>
<path style="fill:none;stroke-width:2.25;stroke-linecap:round;stroke-linejoin:round;stroke:rgb(0%,0%,0%);stroke-opacity:1;stroke-miterlimit:10;" d="M 252 32 L 42.765625 184.015625 L 122.6875 429.984375 L 381.3125 429.984375 L 461.234375 184.015625 Z M 252 32 "/>
<path style="fill:none;stroke-width:2.25;stroke-linecap:round;stroke-linejoin:round;stroke:rgb(0%,0%,0%);stroke-opacity:1;stroke-miterlimit:10;" d="M 106.160156 252 L 106.324219 258.9375 L 106.820313 265.863281 L 107.644531 272.753906 L 108.792969 279.601563 L 110.269531 286.382813 L 112.066406 293.089844 L 114.179688 299.699219 L 116.605469 306.203125 L 119.339844 312.585938 L 122.371094 318.828125 L 125.699219 324.921875 L 129.3125 330.847656 L 133.203125 336.597656 L 137.363281 342.152344 L 141.78125 347.503906 L 146.449219 352.640625 L 151.359375 357.550781 L 156.496094 362.21875 L 161.847656 366.636719 L 167.402344 370.796875 L 173.152344 374.6875 L 179.078125 378.300781 L 185.171875 381.628906 L 191.414063 384.660156 L 197.796875 387.394531 L 204.300781 389.820313 L 210.910156 391.933594 L 217.617188 393.730469 L 224.398438 395.207031 L 231.246094 396.355469 L 238.136719 397.179688 L 245.0625 397.675781 L 252 397.839844 L 258.9375 397.675781 L 265.863281 397.179688 L 272.753906 396.355469 L 279.601563 395.207031 L 286.382813 393.730469 L 293.089844 391.933594 L 299.699219 389.820313 L 306.203125 387.394531 L 312.585938 384.660156 L 318.828125 381.628906 L 324.921875 378.300781 L 330.847656 374.6875 L 336.597656 370.796875 L 342.152344 366.636719 L 347.503906 362.21875 L 352.640625 357.550781 L 357.550781 352.640625 L 362.21875 347.503906 L 366.636719 342.152344 L 370.796875 336.597656 L 374.6875 330.847656 L 378.300781 324.921875 L 381.628906 318.828125 L 384.660156 312.585938 L 387.394531 306.203125 L 389.820313 299.699219 L 391.933594 293.089844 L 393.730469 286.382813 L 395.207031 279.601563 L 396.355469 272.753906 L 397.179688 265.863281 L 397.675781 258.9375 L 397.839844 252 L 397.675781 245.0625 L 397.179688 238.136719 L 396.355469 231.246094 L 395.207031 224.398438 L 393.730469 217.617188 L 391.933594 210.910156 L 389.820313 204.300781 L 387.394531 197.796875 L 384.660156 191.414063 L 381.628906 185.171875 L 378.300781 179.078125 L 374.6875 173.152344 L 370.796875 167.402344 L 366.636719 161.847656 L 362.21875 156.496094 L 357.550781 151.359375 L 352.640625 146.449219 L 347.503906 141.78125 L 342.152344 137.363281 L 336.597656 133.203125 L 330.847656 129.3125 L 324.921875 125.699219 L 318.828125 122.371094 L 312.585938 119.339844 L 306.203125 116.605469 L 299.699219 114.179688 L 293.089844 112.066406 L 286.382813 110.269531 L 279.601563 108.792969 L 272.753906 107.644531 L 265.863281 106.820313 L 258.9375 106.324219 L 252 106.160156 L 252 252 Z M 106.160156 252 "/>
<path style="fill-rule:nonzero;fill:rgb(74.509804%,74.509804%,74.509804%);fill-opacity:1;stroke-width:1.5;stroke-linecap:round;stroke-linejoin:round;stroke:rgb(0%,0%,0%);stroke-opacity:1;stroke-miterlimit:10;" d="M 279.5 252 L 279.445313 250.273438 L 279.28125 248.554688 L 279.011719 246.847656 L 278.636719 245.160156 L 278.152344 243.503906 L 277.570313 241.875 L 276.882813 240.292969 L 276.097656 238.75 L 275.21875 237.265625 L 274.246094 235.835938 L 273.1875 234.472656 L 272.046875 233.175781 L 270.824219 231.953125 L 269.527344 230.8125 L 268.164063 229.753906 L 266.734375 228.78125 L 265.25 227.902344 L 263.707031 227.117188 L 262.125 226.429688 L 260.496094 225.847656 L 258.839844 225.363281 L 257.152344 224.988281 L 255.445313 224.71875 L 253.726563 224.554688 L 252 224.5 L 250.273438 224.554688 L 248.554688 224.71875 L 246.847656 224.988281 L 245.160156 225.363281 L 243.503906 225.847656 L 241.875 226.429688 L 240.292969 227.117188 L 238.75 227.902344 L 237.265625 228.78125 L 235.835938 229.753906 L 234.472656 230.8125 L 233.175781 231.953125 L 231.953125 233.175781 L 230.8125 234.472656 L 229.753906 235.835938 L 228.78125 237.265625 L 227.902344 238.75 L 227.117188 240.292969 L 226.429688 241.875 L 225.847656 243.503906 L 225.363281 245.160156 L 224.988281 246.847656 L 224.71875 248.554688 L 224.554688 250.273438 L 224.5 252 L 224.554688 253.726563 L 224.71875 255.445313 L 224.988281 257.152344 L 225.363281 258.839844 L 225.847656 260.496094 L 226.429688 262.125 L 227.117188 263.707031 L 227.902344 265.25 L 228.78125 266.734375 L 229.753906 268.164063 L 230.8125 269.527344 L 231.953125 270.824219 L 233.175781 272.046875 L 234.472656 273.1875 L 235.835938 274.246094 L 237.265625 275.21875 L 238.75 276.097656 L 240.292969 276.882813 L 241.875 277.570313 L 243.503906 278.152344 L 245.160156 278.636719 L 246.847656 279.011719 L 248.554688 279.28125 L 250.273438 279.445313 L 252 279.5 L 253.726563 279.445313 L 255.445313 279.28125 L 257.152344 279.011719 L 258.839844 278.636719 L 260.496094 278.152344 L 262.125 277.570313 L 263.707031 276.882813 L 265.25 276.097656 L 266.734375 275.21875 L 268.164063 274.246094 L 269.527344 273.1875 L 270.824219 272.046875 L 272.046875 270.824219 L 273.1875 269.527344 L 274.246094 268.164063 L 275.21875 266.734375 L 276.097656 265.25 L 276.882813 263.707031 L 277.570313 262.125 L 278.152344 260.496094 L 278.636719 258.839844 L 279.011719 257.152344 L 279.28125 255.445313 L 279.445313 253.726563 Z M 279.5 252 "/>
</g>
</svg>
