<?xml version="1.0" encoding="UTF-8"?>
<svg xmlns="http://www.w3.org/2000/svg" xmlns:xlink="http://www.w3.org/1999/xlink" width="504pt" height="504pt" viewBox="0 0 504 504" version="1.1">
<g id="surface2086">
<rect x="0" y="0" width="504" height="504" style="fill:rgb(100%,100%,100%);fill-opacity:1;stroke:none;"/>
<path style="fill-rule:nonzero;fill:rgb(74.509804%,74.509804%,74.509804%);fill-opacity:1;stroke-width:1.5;stroke-linecap:round;stroke-linejoin:round;stroke:rgb(0%,0%,0%);stroke-opacity:1;stroke-miterlimit:10;" d="M 485.75 252 L 485.289063 237.324219 L 483.90625 222.703125 L 481.609375 208.199219 L 478.40625 193.867188 L 474.308594 179.765625 L 469.335938 165.949219 L 463.503906 152.472656 L 456.835938 139.390625 L 449.363281 126.75 L 441.109375 114.605469 L 432.109375 103.003906 L 422.394531 91.988281 L 412.011719 81.605469 L 400.996094 71.890625 L 389.394531 62.890625 L 377.25 54.636719 L 364.609375 47.164063 L 351.527344 40.496094 L 338.050781 34.664063 L 324.234375 29.691406 L 310.132813 25.59375 L 295.800781 22.390625 L 281.296875 20.09375 L 266.675781 18.710938 L 252 18.25 L 237.324219 18.710938 L 222.703125 20.09375 L 208.199219 22.390625 L 193.867188 25.59375 L 179.765625 29.691406 L 165.949219 34.664063 L 152.472656 40.496094 L 139.390625 47.164063 L 126.75 54.636719 L 114.605469 62.890625 L 103.003906 71.890625 L 91.988281 81.605469 L 81.605469 91.988281 L 71.890625 103.003906 L 62.890625 114.605469 L 54.636719 126.75 L 47.164063 139.390625 L 40.496094 152.472656 L 34.664063 165.949219 L 29.691406 179.765625 L 25.59375 193.867188 L 22.390625 208.199219 L 20.09375 222.703125 L 18.710938 237.324219 L 18.25 252 L 18.710938 266.675781 L 20.09375 281.296875 L 22.390625 295.800781 L 25.59375 310.132813 L 29.691406 324.234375 L 34.664063 338.050781 L 40.496094 351.527344 L 47.164063 364.609375 L 54.636719 377.25 L 62.890625 389.394531 L 71.890625 400.996094 L 81.605469 412.011719 L 91.988281 422.394531 L 103.003906 432.109375 L 114.605469 441.109375 L 126.75 449.363281 L 139.390625 456.835938 L 152.472656 463.503906 L 165.949219 469.335938 L 179.765625 474.308594 L 193.867188 478.40625 L 208.199219 481.609375 L 222.703125 483.90625 L 237.324219 485.289063 L 252 485.75 L 266.675781 485.289063 L 281.296875 483.90625 L 295.800781 481.609375 L 310.132813 478.40625 L 324.234375 474.308594 L 338.050781 469.335938 L 351.527344 463.503906 L 364.609375 456.835938 L 377.25 449.363281 L 389.394531 441.109375 L 400.996094 432.109375 L 412.011719 422.394531 L 422.394531 412.011719 L 432.109375 400.996094 L 441.109375 389.394531 L 449.363281 377.25 L 456.835938 364.609375 L 463.503906 351.527344 L 469.335938 338.050781 L 474.308594 324.234375 L 478.40625 310.132813 L 481.609375 295.800781 L 483.90625 281.296875 L 485.289063 266.675781 Z M 485.75 252 "/>
<path style="fill-rule:nonzero;fill:rgb(100%,100%,100%);fill-opacity:1;stroke-width:2.25;stroke-linecap:round;stroke-linejoin:round;stroke:rgb(0%,0%,0%);stroke-opacity:1;stroke-miterlimit:10;" d="M 252 99.222656 L 22.832031 252 L 252 404.777344 L 481.167969 252 Z M 252 99.222656 "/>
<path style="fill-rule:nonzero;fill:rgb(100%,100%,100%);fill-opacity:1;stroke-width:2.25;stroke-linecap:round;stroke-linejoin:round;stroke:rgb(0%,0%,0%);stroke-opacity:1;stroke-miterlimit:10;" d="M 366.582031 137.417969 L 361 132.09375 L 355.171875 127.042969 L 349.109375 122.277344 L 342.828125 117.800781 L 336.339844 113.632813 L 329.660156 109.777344 L 322.804688 106.242188 L 315.789063 103.039063 L 308.628906 100.171875 L 301.339844 97.648438 L 293.941406 95.476563 L 286.445313 93.65625 L 278.871094 92.199219 L 271.238281 91.101563 L 263.558594 90.367188 L 255.855469 90 L 248.144531 90 L 240.441406 90.367188 L 232.761719 91.101563 L 225.128906 92.199219 L 217.554688 93.65625 L 210.058594 95.476563 L 202.660156 97.648438 L 195.371094 100.171875 L 188.210938 103.039063 L 181.195313 106.242188 L 174.339844 109.777344 L 167.660156 113.632813 L 161.171875 117.800781 L 154.890625 122.277344 L 148.828125 127.042969 L 143 132.09375 L 137.417969 137.417969 L 132.09375 143 L 127.042969 148.828125 L 122.277344 154.890625 L 117.800781 161.171875 L 113.632813 167.660156 L 109.777344 174.339844 L 106.242188 181.195313 L 103.039063 188.210938 L 100.171875 195.371094 L 97.648438 202.660156 L 95.476563 210.058594 L 93.65625 217.554688 L 92.199219 225.128906 L 91.101563 232.761719 L 90.367188 240.441406 L 90 248.144531 L 90 255.855469 L 90.367188 263.558594 L 91.101563 271.238281 L 92.199219 278.871094 L 93.65625 286.445313 L 95.476563 293.941406 L 97.648438 301.339844 L 100.171875 308.628906 L 103.039063 315.789063 L 106.242188 322.804688 L 109.777344 329.660156 L 113.632813 336.339844 L 117.800781 342.828125 L 122.277344 349.109375 L 127.042969 355.171875 L 132.09375 361 L 137.417969 366.582031 L 143 371.90625 L 148.828125 376.957031 L 154.890625 381.722656 L 161.171875 386.199219 L 167.660156 390.367188 L 174.339844 394.222656 L 181.195313 397.757813 L 188.210938 400.960938 L 195.371094 403.828125 L 202.660156 406.351563 L 210.058594 408.523438 L 217.554688 410.34375 L 225.128906 411.800781 L 232.761719 412.898438 L 240.441406 413.632813 L 248.144531 414 L 255.855469 414 L 263.558594 413.632813 L 271.238281 412.898438 L 278.871094 411.800781 L 286.445313 410.34375 L 293.941406 408.523438 L 301.339844 406.351563 L 308.628906 403.828125 L 315.789063 400.960938 L 322.804688 397.757813 L 329.660156 394.222656 L 336.339844 390.367188 L 342.828125 386.199219 L 349.109375 381.722656 L 355.171875 376.957031 L 361 371.90625 L 366.582031 366.582031 L 252 252 Z M 366.582031 137.417969 "/>
</g>
</svg>
