<?xml version="1.0" encoding="UTF-8"?>
<svg xmlns="http://www.w3.org/2000/svg" xmlns:xlink="http://www.w3.org/1999/xlink" width="504pt" height="504pt" viewBox="0 0 504 504" version="1.1">
<g id="surface2071">
<rect x="0" y="0" width="504" height="504" style="fill:rgb(100%,100%,100%);fill-opacity:1;stroke:none;"/>
<path style="fill-rule:nonzero;fill:rgb(74.509804%,74.509804%,74.509804%);fill-opacity:1;stroke-width:1.5;stroke-linecap:round;stroke-linejoin:round;stroke:rgb(0%,0%,0%);stroke-opacity:1;stroke-miterlimit:10;" d="M 485.75 252 L 485.289063 237.324219 L 483.90625 222.703125 L 481.609375 208.199219 L 478.40625 193.867188 L 474.308594 179.765625 L 469.335938 165.949219 L 463.503906 152.472656 L 456.835938 139.390625 L 449.363281 126.75 L 441.109375 114.605469 L 432.109375 103.003906 L 422.394531 91.988281 L 412.011719 81.605469 L 400.996094 71.890625 L 389.394531 62.890625 L 377.25 54.636719 L 364.609375 47.164063 L 351.527344 40.496094 L 338.050781 34.664063 L 324.234375 29.691406 L 310.132813 25.59375 L 295.800781 22.390625 L 281.296875 20.09375 L 266.675781 18.710938 L 252 18.25 L 237.324219 18.710938 L 222.703125 20.09375 L 208.199219 22.390625 L 193.867188 25.59375 L 179.765625 29.691406 L 165.949219 34.664063 L 152.472656 40.496094 L 139.390625 47.164063 L 126.75 54.636719 L 114.605469 62.890625 L 103.003906 71.890625 L 91.988281 81.605469 L 81.605469 91.988281 L 71.890625 103.003906 L 62.890625 114.605469 L 54.636719 126.75 L 47.164063 139.390625 L 40.496094 152.472656 L 34.664063 165.949219 L 29.691406 179.765625 L 25.59375 193.867188 L 22.390625 208.199219 L 20.09375 222.703125 L 18.710938 237.324219 L 18.25 252 L 18.710938 266.675781 L 20.09375 281.296875 L 22.390625 295.800781 L 25.59375 310.132813 L 29.691406 324.234375 L 34.664063 338.050781 L 40.496094 351.527344 L 47.164063 364.609375 L 54.636719 377.25 L 62.890625 389.394531 L 71.890625 400.996094 L 81.605469 412.011719 L 91.988281 422.394531 L 103.003906 432.109375 L 114.605469 441.109375 L 126.75 449.363281 L 139.390625 456.835938 L 152.472656 463.503906 L 165.949219 469.335938 L 179.765625 474.308594 L 193.867188 478.40625 L 208.199219 481.609375 L 222.703125 483.90625 L 237.324219 485.289063 L 252 485.75 L 266.675781 485.289063 L 281.296875 483.90625 L 295.800781 481.609375 L 310.132813 478.40625 L 324.234375 474.308594 L 338.050781 469.335938 L 351.527344 463.503906 L 364.609375 456.835938 L 377.25 449.363281 L 389.394531 441.109375 L 400.996094 432.109375 L 412.011719 422.394531 L 422.394531 412.011719 L 432.109375 400.996094 L 441.109375 389.394531 L 449.363281 377.25 L 456.835938 364.609375 L 463.503906 351.527344 L 469.335938 338.050781 L 474.308594 324.234375 L 478.40625 310.132813 L 481.609375 295.800781 L 483.90625 281.296875 L 485.289063 266.675781 Z M 485.75 252 "/>
<path style="fill-rule:nonzero;fill:rgb(100%,100%,100%);fill-opacity:1;stroke-width:2.25;stroke-linecap:round;stroke-linejoin:round;stroke:rgb(0%,0%,0%);stroke-opacity:1;stroke-miterlimit:10;" d="M 213.804688 213.804688 L 212.03125 215.667969 L 210.347656 217.609375 L 208.757813 219.628906 L 207.265625 221.722656 L 205.878906 223.886719 L 204.59375 226.113281 L 203.414063 228.398438 L 202.347656 230.738281 L 201.390625 233.125 L 200.550781 235.554688 L 199.824219 238.019531 L 199.21875 240.519531 L 198.734375 243.042969 L 198.367188 245.585938 L 198.121094 248.148438 L 198 250.714844 L 198 253.285156 L 198.121094 255.851563 L 198.367188 258.414063 L 198.734375 260.957031 L 199.21875 263.480469 L 199.824219 265.980469 L 200.550781 268.445313 L 201.390625 270.875 L 202.347656 273.261719 L 203.414063 275.601563 L 204.59375 277.886719 L 205.878906 280.113281 L 207.265625 282.277344 L 208.757813 284.371094 L 210.347656 286.390625 L 212.03125 288.332031 L 213.804688 290.195313 L 215.667969 291.96875 L 217.609375 293.652344 L 219.628906 295.242188 L 221.722656 296.734375 L 223.886719 298.121094 L 226.113281 299.40625 L 228.398438 300.585938 L 230.738281 301.652344 L 233.125 302.609375 L 235.554688 303.449219 L 238.019531 304.175781 L 240.519531 304.78125 L 243.042969 305.265625 L 245.585938 305.632813 L 248.148438 305.878906 L 250.714844 306 L 253.285156 306 L 255.851563 305.878906 L 258.414063 305.632813 L 260.957031 305.265625 L 263.480469 304.78125 L 265.980469 304.175781 L 268.445313 303.449219 L 270.875 302.609375 L 273.261719 301.652344 L 275.601563 300.585938 L 277.886719 299.40625 L 280.113281 298.121094 L 282.277344 296.734375 L 284.371094 295.242188 L 286.390625 293.652344 L 288.332031 291.96875 L 290.195313 290.195313 L 291.96875 288.332031 L 293.652344 286.390625 L 295.242188 284.371094 L 296.734375 282.277344 L 298.121094 280.113281 L 299.40625 277.886719 L 300.585938 275.601563 L 301.652344 273.261719 L 302.609375 270.875 L 303.449219 268.445313 L 304.175781 265.980469 L 304.78125 263.480469 L 305.265625 260.957031 L 305.632813 258.414063 L 305.878906 255.851563 L 306 253.285156 L 306 250.714844 L 305.878906 248.148438 L 305.632813 245.585938 L 305.265625 243.042969 L 304.78125 240.519531 L 304.175781 238.019531 L 303.449219 235.554688 L 302.609375 233.125 L 301.652344 230.738281 L 300.585938 228.398438 L 299.40625 226.113281 L 298.121094 223.886719 L 296.734375 221.722656 L 295.242188 219.628906 L 293.652344 217.609375 L 291.96875 215.667969 L 290.195313 213.804688 L 252 252 Z M 213.804688 213.804688 "/>
</g>
</svg>
