<?xml version="1.0" encoding="UTF-8"?>
<svg xmlns="http://www.w3.org/2000/svg" xmlns:xlink="http://www.w3.org/1999/xlink" width="504pt" height="504pt" viewBox="0 0 504 504" version="1.1">
<g id="surface2076">
<rect x="0" y="0" width="504" height="504" style="fill:rgb(100%,100%,100%);fill-opacity:1;stroke:none;"/>
<path style="fill-rule:nonzero;fill:rgb(74.509804%,74.509804%,74.509804%);fill-opacity:1;stroke-width:1.5;stroke-linecap:round;stroke-linejoin:round;stroke:rgb(0%,0%,0%);stroke-opacity:1;stroke-miterlimit:10;" d="M 485.75 252 L 485.289063 237.324219 L 483.90625 222.703125 L 481.609375 208.199219 L 478.40625 193.867188 L 474.308594 179.765625 L 469.335938 165.949219 L 463.503906 152.472656 L 456.835938 139.390625 L 449.363281 126.75 L 441.109375 114.605469 L 432.109375 103.003906 L 422.394531 91.988281 L 412.011719 81.605469 L 400.996094 71.890625 L 389.394531 62.890625 L 377.25 54.636719 L 364.609375 47.164063 L 351.527344 40.496094 L 338.050781 34.664063 L 324.234375 29.691406 L 310.132813 25.59375 L 295.800781 22.390625 L 281.296875 20.09375 L 266.675781 18.710938 L 252 18.25 L 237.324219 18.710938 L 222.703125 20.09375 L 208.199219 22.390625 L 193.867188 25.59375 L 179.765625 29.691406 L 165.949219 34.664063 L 152.472656 40.496094 L 139.390625 47.164063 L 126.75 54.636719 L 114.605469 62.890625 L 103.003906 71.890625 L 91.988281 81.605469 L 81.605469 91.988281 L 71.890625 103.003906 L 62.890625 114.605469 L 54.636719 126.75 L 47.164063 139.390625 L 40.496094 152.472656 L 34.664063 165.949219 L 29.691406 179.765625 L 25.59375 193.867188 L 22.390625 208.199219 L 20.09375 222.703125 L 18.710938 237.324219 L 18.25 252 L 18.710938 266.675781 L 20.09375 281.296875 L 22.390625 295.800781 L 25.59375 310.132813 L 29.691406 324.234375 L 34.664063 338.050781 L 40.496094 351.527344 L 47.164063 364.609375 L 54.636719 377.25 L 62.890625 389.394531 L 71.890625 400.996094 L 81.605469 412.011719 L 91.988281 422.394531 L 103.003906 432.109375 L 114.605469 441.109375 L 126.75 449.363281 L 139.390625 456.835938 L 152.472656 463.503906 L 165.949219 469.335938 L 179.765625 474.308594 L 193.867188 478.40625 L 208.199219 481.609375 L 222.703125 483.90625 L 237.324219 485.289063 L 252 485.75 L 266.675781 485.289063 L 281.296875 483.90625 L 295.800781 481.609375 L 310.132813 478.40625 L 324.234375 474.308594 L 338.050781 469.335938 L 351.527344 463.503906 L 364.609375 456.835938 L 377.25 449.363281 L 389.394531 441.109375 L 400.996094 432.109375 L 412.011719 422.394531 L 422.394531 412.011719 L 432.109375 400.996094 L 441.109375 389.394531 L 449.363281 377.25 L 456.835938 364.609375 L 463.503906 351.527344 L 469.335938 338.050781 L 474.308594 324.234375 L 478.40625 310.132813 L 481.609375 295.800781 L 483.90625 281.296875 L 485.289063 266.675781 Z M 485.75 252 "/>
<path style="fill-rule:nonzero;fill:rgb(100%,100%,100%);fill-opacity:1;stroke-width:2.25;stroke-linecap:round;stroke-linejoin:round;stroke:rgb(0%,0%,0%);stroke-opacity:1;stroke-miterlimit:10;" d="M 252 170.976563 L 248.144531 171.070313 L 244.296875 171.34375 L 240.46875 171.800781 L 236.667969 172.441406 L 232.898438 173.261719 L 229.171875 174.257813 L 225.5 175.433594 L 221.886719 176.78125 L 218.34375 178.300781 L 214.875 179.984375 L 211.488281 181.832031 L 208.195313 183.839844 L 205.003906 186 L 201.914063 188.3125 L 198.941406 190.765625 L 196.089844 193.359375 L 193.359375 196.089844 L 190.765625 198.941406 L 188.3125 201.914063 L 186 205.003906 L 183.839844 208.195313 L 181.832031 211.488281 L 179.984375 214.875 L 178.300781 218.34375 L 176.78125 221.886719 L 175.433594 225.5 L 174.257813 229.171875 L 173.261719 232.898438 L 172.441406 236.667969 L 171.800781 240.46875 L 171.34375 244.296875 L 171.070313 248.144531 L 170.976563 252 L 171.070313 255.855469 L 171.34375 259.703125 L 171.800781 263.53125 L 172.441406 267.332031 L 173.261719 271.101563 L 174.257813 274.828125 L 175.433594 278.5 L 176.78125 282.113281 L 178.300781 285.65625 L 179.984375 289.125 L 181.832031 292.511719 L 183.839844 295.804688 L 186 298.996094 L 188.3125 302.085938 L 190.765625 305.058594 L 193.359375 307.910156 L 196.089844 310.640625 L 198.941406 313.234375 L 201.914063 315.6875 L 205.003906 318 L 208.195313 320.160156 L 211.488281 322.167969 L 214.875 324.015625 L 218.34375 325.699219 L 221.886719 327.21875 L 225.5 328.566406 L 229.171875 329.742188 L 232.898438 330.738281 L 236.667969 331.558594 L 240.46875 332.199219 L 244.296875 332.65625 L 248.144531 332.929688 L 252 333.023438 L 255.855469 332.929688 L 259.703125 332.65625 L 263.53125 332.199219 L 267.332031 331.558594 L 271.101563 330.738281 L 274.828125 329.742188 L 278.5 328.566406 L 282.113281 327.21875 L 285.65625 325.699219 L 289.125 324.015625 L 292.511719 322.167969 L 295.804688 320.160156 L 298.996094 318 L 302.085938 315.6875 L 305.058594 313.234375 L 307.910156 310.640625 L 310.640625 307.910156 L 313.234375 305.058594 L 315.6875 302.085938 L 318 298.996094 L 320.160156 295.804688 L 322.167969 292.511719 L 324.015625 289.125 L 325.699219 285.65625 L 327.21875 282.113281 L 328.566406 278.5 L 329.742188 274.828125 L 330.738281 271.101563 L 331.558594 267.332031 L 332.199219 263.53125 L 332.65625 259.703125 L 332.929688 255.855469 L 333.023438 252 L 252 252 Z M 252 170.976563 "/>
</g>
</svg>
