<?xml version="1.0" encoding="UTF-8"?>
<svg xmlns="http://www.w3.org/2000/svg" xmlns:xlink="http://www.w3.org/1999/xlink" width="504pt" height="504pt" viewBox="0 0 504 504" version="1.1">
<g id="surface1921">
<rect x="0" y="0" width="504" height="504" style="fill:rgb(100%,100%,100%);fill-opacity:1;stroke:none;"/>
<path style="fill:none;stroke-width:2.25;stroke-linecap:round;stroke-linejoin:round;stroke:rgb(0%,0%,0%);stroke-opacity:1;stroke-miterlimit:10;" d="M 446.453125 57.546875 L 57.546875 57.546875 L 57.546875 446.453125 L 446.453125 446.453125 Z M 446.453125 57.546875 "/>
<path style="fill:none;stroke-width:2.25;stroke-linecap:round;stroke-linejoin:round;stroke:rgb(0%,0%,0%);stroke-opacity:1;stroke-dasharray:2.25,6.75;stroke-miterlimit:10;" d="M 417.285156 86.714844 L 86.714844 86.714844 L 86.714844 417.285156 L 417.285156 417.285156 Z M 417.285156 86.714844 "/>
<path style="fill:none;stroke-width:2.25;stroke-linecap:round;stroke-linejoin:round;stroke:rgb(0%,0%,0%);stroke-opacity:1;stroke-miterlimit:10;" d="M 249.296875 254.703125 L 248.128906 253.558594 L 246.945313 252.425781 L 245.742188 251.316406 L 244.523438 250.226563 L 243.285156 249.15625 L 242.035156 248.101563 L 240.765625 247.070313 L 239.476563 246.058594 L 238.175781 245.070313 L 236.859375 244.097656 L 235.523438 243.148438 L 234.175781 242.222656 L 232.816406 241.316406 L 231.4375 240.429688 L 230.046875 239.570313 L 228.644531 238.726563 L 227.226563 237.910156 L 225.796875 237.113281 L 224.355469 236.339844 L 222.902344 235.59375 L 221.433594 234.867188 L 219.957031 234.160156 L 218.46875 233.480469 L 216.96875 232.828125 L 215.460938 232.195313 L 213.941406 231.585938 L 212.414063 231.003906 L 210.875 230.441406 L 209.328125 229.90625 L 207.773438 229.398438 L 206.210938 228.910156 L 204.644531 228.449219 L 203.066406 228.015625 L 201.480469 227.601563 L 199.890625 227.21875 L 198.296875 226.855469 L 196.695313 226.523438 L 195.085938 226.210938 L 193.476563 225.929688 L 191.859375 225.667969 L 190.242188 225.4375 L 188.617188 225.230469 L 186.992188 225.046875 L 185.363281 224.890625 L 183.730469 224.761719 L 182.097656 224.660156 L 180.464844 224.582031 L 178.828125 224.527344 L 177.191406 224.503906 L 175.558594 224.503906 L 173.921875 224.527344 L 172.285156 224.582031 L 170.652344 224.660156 L 169.019531 224.761719 L 167.386719 224.890625 L 165.757813 225.046875 L 164.132813 225.230469 L 162.507813 225.4375 L 160.890625 225.667969 L 159.273438 225.929688 L 157.664063 226.210938 L 156.054688 226.523438 L 154.453125 226.855469 L 152.859375 227.21875 L 151.269531 227.601563 L 149.683594 228.015625 L 148.105469 228.449219 L 146.539063 228.910156 L 144.976563 229.398438 L 143.421875 229.90625 L 141.875 230.441406 L 140.335938 231.003906 L 138.808594 231.585938 L 137.289063 232.195313 L 135.78125 232.828125 L 134.28125 233.480469 L 132.792969 234.160156 L 131.316406 234.867188 L 129.847656 235.59375 L 128.394531 236.339844 L 126.953125 237.113281 L 125.523438 237.910156 L 124.105469 238.726563 L 122.703125 239.570313 L 121.3125 240.429688 L 119.933594 241.316406 L 118.574219 242.222656 L 117.226563 243.148438 L 115.890625 244.097656 L 114.574219 245.070313 L 113.273438 246.058594 L 111.984375 247.070313 L 110.714844 248.101563 L 109.464844 249.15625 L 108.226563 250.226563 L 107.007813 251.316406 L 105.804688 252.425781 L 104.621094 253.558594 L 103.453125 254.703125 L 104.621094 253.558594 L 105.804688 252.425781 L 107.007813 251.316406 L 108.226563 250.226563 L 109.464844 249.15625 L 110.714844 248.101563 L 111.984375 247.070313 L 113.273438 246.058594 L 114.574219 245.070313 L 115.890625 244.097656 L 117.226563 243.148438 L 118.574219 242.222656 L 119.933594 241.316406 L 121.3125 240.429688 L 122.703125 239.570313 L 124.105469 238.726563 L 125.523438 237.910156 L 126.953125 237.113281 L 128.394531 236.339844 L 129.847656 235.59375 L 131.316406 234.867188 L 132.792969 234.160156 L 134.28125 233.480469 L 135.78125 232.828125 L 137.289063 232.195313 L 138.808594 231.585938 L 140.335938 231.003906 L 141.875 230.441406 L 143.421875 229.90625 L 144.976563 229.398438 L 146.539063 228.910156 L 148.105469 228.449219 L 149.683594 228.015625 L 151.269531 227.601563 L 152.859375 227.21875 L 154.453125 226.855469 L 156.054688 226.523438 L 157.664063 226.210938 L 159.273438 225.929688 L 160.890625 225.667969 L 162.507813 225.4375 L 164.132813 225.230469 L 165.757813 225.046875 L 167.386719 224.890625 L 169.019531 224.761719 L 170.652344 224.660156 L 172.285156 224.582031 L 173.921875 224.527344 L 175.558594 224.503906 L 177.191406 224.503906 L 178.828125 224.527344 L 180.464844 224.582031 L 182.097656 224.660156 L 183.730469 224.761719 L 185.363281 224.890625 L 186.992188 225.046875 L 188.617188 225.230469 L 190.242188 225.4375 L 191.859375 225.667969 L 193.476563 225.929688 L 195.085938 226.210938 L 196.695313 226.523438 L 198.296875 226.855469 L 199.890625 227.21875 L 201.480469 227.601563 L 203.066406 228.015625 L 204.644531 228.449219 L 206.210938 228.910156 L 207.773438 229.398438 L 209.328125 229.90625 L 210.875 230.441406 L 212.414063 231.003906 L 213.941406 231.585938 L 215.460938 232.195313 L 216.96875 232.828125 L 218.46875 233.480469 L 219.957031 234.160156 L 221.433594 234.867188 L 222.902344 235.59375 L 224.355469 236.339844 L 225.796875 237.113281 L 227.226563 237.910156 L 228.644531 238.726563 L 230.046875 239.570313 L 231.4375 240.429688 L 232.816406 241.316406 L 234.175781 242.222656 L 235.523438 243.148438 L 236.859375 244.097656 L 238.175781 245.070313 L 239.476563 246.058594 L 240.765625 247.070313 L 242.035156 248.101563 L 243.285156 249.15625 L 244.523438 250.226563 L 245.742188 251.316406 L 246.945313 252.425781 L 248.128906 253.558594 Z M 249.296875 254.703125 "/>
<path style="fill:none;stroke-width:2.25;stroke-linecap:round;stroke-linejoin:round;stroke:rgb(0%,0%,0%);stroke-opacity:1;stroke-miterlimit:10;" d="M 247.828125 256.171875 L 248.996094 257.316406 L 250.179688 258.449219 L 251.382813 259.558594 L 252.601563 260.648438 L 253.839844 261.71875 L 255.089844 262.773438 L 256.359375 263.804688 L 257.648438 264.816406 L 258.949219 265.804688 L 260.265625 266.777344 L 261.601563 267.726563 L 262.949219 268.652344 L 264.308594 269.558594 L 265.6875 270.445313 L 267.078125 271.304688 L 268.480469 272.148438 L 269.898438 272.964844 L 271.328125 273.761719 L 272.769531 274.535156 L 274.222656 275.28125 L 275.691406 276.007813 L 277.167969 276.714844 L 278.65625 277.394531 L 280.15625 278.046875 L 281.664063 278.679688 L 283.183594 279.289063 L 284.710938 279.871094 L 286.25 280.433594 L 287.796875 280.96875 L 289.351563 281.476563 L 290.914063 281.964844 L 292.480469 282.425781 L 294.058594 282.859375 L 295.644531 283.273438 L 297.234375 283.65625 L 298.828125 284.019531 L 300.429688 284.351563 L 302.039063 284.664063 L 303.648438 284.945313 L 305.265625 285.207031 L 306.882813 285.4375 L 308.507813 285.644531 L 310.132813 285.828125 L 311.761719 285.984375 L 313.394531 286.113281 L 315.027344 286.214844 L 316.660156 286.292969 L 318.296875 286.347656 L 319.933594 286.371094 L 321.566406 286.371094 L 323.203125 286.347656 L 324.839844 286.292969 L 326.472656 286.214844 L 328.105469 286.113281 L 329.738281 285.984375 L 331.367188 285.828125 L 332.992188 285.644531 L 334.617188 285.4375 L 336.234375 285.207031 L 337.851563 284.945313 L 339.460938 284.664063 L 341.070313 284.351563 L 342.671875 284.019531 L 344.265625 283.65625 L 345.855469 283.273438 L 347.441406 282.859375 L 349.019531 282.425781 L 350.585938 281.964844 L 352.148438 281.476563 L 353.703125 280.96875 L 355.25 280.433594 L 356.789063 279.871094 L 358.316406 279.289063 L 359.835938 278.679688 L 361.34375 278.046875 L 362.84375 277.394531 L 364.332031 276.714844 L 365.808594 276.007813 L 367.277344 275.28125 L 368.730469 274.535156 L 370.171875 273.761719 L 371.601563 272.964844 L 373.019531 272.148438 L 374.421875 271.304688 L 375.8125 270.445313 L 377.191406 269.558594 L 378.550781 268.652344 L 379.898438 267.726563 L 381.234375 266.777344 L 382.550781 265.804688 L 383.851563 264.816406 L 385.140625 263.804688 L 386.410156 262.773438 L 387.660156 261.71875 L 388.898438 260.648438 L 390.117188 259.558594 L 391.320313 258.449219 L 392.503906 257.316406 L 393.671875 256.171875 L 392.503906 257.316406 L 391.320313 258.449219 L 390.117188 259.558594 L 388.898438 260.648438 L 387.660156 261.71875 L 386.410156 262.773438 L 385.140625 263.804688 L 383.851563 264.816406 L 382.550781 265.804688 L 381.234375 266.777344 L 379.898438 267.726563 L 378.550781 268.652344 L 377.191406 269.558594 L 375.8125 270.445313 L 374.421875 271.304688 L 373.019531 272.148438 L 371.601563 272.964844 L 370.171875 273.761719 L 368.730469 274.535156 L 367.277344 275.28125 L 365.808594 276.007813 L 364.332031 276.714844 L 362.84375 277.394531 L 361.34375 278.046875 L 359.835938 278.679688 L 358.316406 279.289063 L 356.789063 279.871094 L 355.25 280.433594 L 353.703125 280.96875 L 352.148438 281.476563 L 350.585938 281.964844 L 349.019531 282.425781 L 347.441406 282.859375 L 345.855469 283.273438 L 344.265625 283.65625 L 342.671875 284.019531 L 341.070313 284.351563 L 339.460938 284.664063 L 337.851563 284.945313 L 336.234375 285.207031 L 334.617188 285.4375 L 332.992188 285.644531 L 331.367188 285.828125 L 329.738281 285.984375 L 328.105469 286.113281 L 326.472656 286.214844 L 324.839844 286.292969 L 323.203125 286.347656 L 321.566406 286.371094 L 319.933594 286.371094 L 318.296875 286.347656 L 316.660156 286.292969 L 315.027344 286.214844 L 313.394531 286.113281 L 311.761719 285.984375 L 310.132813 285.828125 L 308.507813 285.644531 L 306.882813 285.4375 L 305.265625 285.207031 L 303.648438 284.945313 L 302.039063 284.664063 L 300.429688 284.351563 L 298.828125 284.019531 L 297.234375 283.65625 L 295.644531 283.273438 L 294.058594 282.859375 L 292.480469 282.425781 L 290.914063 281.964844 L 289.351563 281.476563 L 287.796875 280.96875 L 286.25 280.433594 L 284.710938 279.871094 L 283.183594 279.289063 L 281.664063 278.679688 L 280.15625 278.046875 L 278.65625 277.394531 L 277.167969 276.714844 L 275.691406 276.007813 L 274.222656 275.28125 L 272.769531 274.535156 L 271.328125 273.761719 L 269.898438 272.964844 L 268.480469 272.148438 L 267.078125 271.304688 L 265.6875 270.445313 L 264.308594 269.558594 L 262.949219 268.652344 L 261.601563 267.726563 L 260.265625 266.777344 L 258.949219 265.804688 L 257.648438 264.816406 L 256.359375 263.804688 L 255.089844 262.773438 L 253.839844 261.71875 L 252.601563 260.648438 L 251.382813 259.558594 L 250.179688 258.449219 L 248.996094 257.316406 Z M 247.828125 256.171875 "/>
<path style="fill:none;stroke-width:2.25;stroke-linecap:round;stroke-linejoin:round;stroke:rgb(0%,0%,0%);stroke-opacity:1;stroke-miterlimit:10;" d="M 103.453125 256.171875 L 104.621094 257.316406 L 105.804688 258.449219 L 107.007813 259.558594 L 108.226563 260.648438 L 109.464844 261.71875 L 110.714844 262.773438 L 111.984375 263.804688 L 113.273438 264.816406 L 114.574219 265.804688 L 115.890625 266.777344 L 117.226563 267.726563 L 118.574219 268.652344 L 119.933594 269.558594 L 121.3125 270.445313 L 122.703125 271.304688 L 124.105469 272.148438 L 125.523438 272.964844 L 126.953125 273.761719 L 128.394531 274.535156 L 129.847656 275.28125 L 131.316406 276.007813 L 132.792969 276.714844 L 134.28125 277.394531 L 135.78125 278.046875 L 137.289063 278.679688 L 138.808594 279.289063 L 140.335938 279.871094 L 141.875 280.433594 L 143.421875 280.96875 L 144.976563 281.476563 L 146.539063 281.964844 L 148.105469 282.425781 L 149.683594 282.859375 L 151.269531 283.273438 L 152.859375 283.65625 L 154.453125 284.019531 L 156.054688 284.351563 L 157.664063 284.664063 L 159.273438 284.945313 L 160.890625 285.207031 L 162.507813 285.4375 L 164.132813 285.644531 L 165.757813 285.828125 L 167.386719 285.984375 L 169.019531 286.113281 L 170.652344 286.214844 L 172.285156 286.292969 L 173.921875 286.347656 L 175.558594 286.371094 L 177.191406 286.371094 L 178.828125 286.347656 L 180.464844 286.292969 L 182.097656 286.214844 L 183.730469 286.113281 L 185.363281 285.984375 L 186.992188 285.828125 L 188.617188 285.644531 L 190.242188 285.4375 L 191.859375 285.207031 L 193.476563 284.945313 L 195.085938 284.664063 L 196.695313 284.351563 L 198.296875 284.019531 L 199.890625 283.65625 L 201.480469 283.273438 L 203.066406 282.859375 L 204.644531 282.425781 L 206.210938 281.964844 L 207.773438 281.476563 L 209.328125 280.96875 L 210.875 280.433594 L 212.414063 279.871094 L 213.941406 279.289063 L 215.460938 278.679688 L 216.96875 278.046875 L 218.46875 277.394531 L 219.957031 276.714844 L 221.433594 276.007813 L 222.902344 275.28125 L 224.355469 274.535156 L 225.796875 273.761719 L 227.226563 272.964844 L 228.644531 272.148438 L 230.046875 271.304688 L 231.4375 270.445313 L 232.816406 269.558594 L 234.175781 268.652344 L 235.523438 267.726563 L 236.859375 266.777344 L 238.175781 265.804688 L 239.476563 264.816406 L 240.765625 263.804688 L 242.035156 262.773438 L 243.285156 261.71875 L 244.523438 260.648438 L 245.742188 259.558594 L 246.945313 258.449219 L 248.128906 257.316406 L 249.296875 256.171875 L 248.128906 257.316406 L 246.945313 258.449219 L 245.742188 259.558594 L 244.523438 260.648438 L 243.285156 261.71875 L 242.035156 262.773438 L 240.765625 263.804688 L 239.476563 264.816406 L 238.175781 265.804688 L 236.859375 266.777344 L 235.523438 267.726563 L 234.175781 268.652344 L 232.816406 269.558594 L 231.4375 270.445313 L 230.046875 271.304688 L 228.644531 272.148438 L 227.226563 272.964844 L 225.796875 273.761719 L 224.355469 274.535156 L 222.902344 275.28125 L 221.433594 276.007813 L 219.957031 276.714844 L 218.46875 277.394531 L 216.96875 278.046875 L 215.460938 278.679688 L 213.941406 279.289063 L 212.414063 279.871094 L 210.875 280.433594 L 209.328125 280.96875 L 207.773438 281.476563 L 206.210938 281.964844 L 204.644531 282.425781 L 203.066406 282.859375 L 201.480469 283.273438 L 199.890625 283.65625 L 198.296875 284.019531 L 196.695313 284.351563 L 195.085938 284.664063 L 193.476563 284.945313 L 191.859375 285.207031 L 190.242188 285.4375 L 188.617188 285.644531 L 186.992188 285.828125 L 185.363281 285.984375 L 183.730469 286.113281 L 182.097656 286.214844 L 180.464844 286.292969 L 178.828125 286.347656 L 177.191406 286.371094 L 175.558594 286.371094 L 173.921875 286.347656 L 172.285156 286.292969 L 170.652344 286.214844 L 169.019531 286.113281 L 167.386719 285.984375 L 165.757813 285.828125 L 164.132813 285.644531 L 162.507813 285.4375 L 160.890625 285.207031 L 159.273438 284.945313 L 157.664063 284.664063 L 156.054688 284.351563 L 154.453125 284.019531 L 152.859375 283.65625 L 151.269531 283.273438 L 149.683594 282.859375 L 148.105469 282.425781 L 146.539063 281.964844 L 144.976563 281.476563 L 143.421875 280.96875 L 141.875 280.433594 L 140.335938 279.871094 L 138.808594 279.289063 L 137.289063 278.679688 L 135.78125 278.046875 L 134.28125 277.394531 L 132.792969 276.714844 L 131.316406 276.007813 L 129.847656 275.28125 L 128.394531 274.535156 L 126.953125 273.761719 L 125.523438 272.964844 L 124.105469 272.148438 L 122.703125 271.304688 L 121.3125 270.445313 L 119.933594 269.558594 L 118.574219 268.652344 L 117.226563 267.726563 L 115.890625 266.777344 L 114.574219 265.804688 L 113.273438 264.816406 L 111.984375 263.804688 L 110.714844 262.773438 L 109.464844 261.71875 L 108.226563 260.648438 L 107.007813 259.558594 L 105.804688 258.449219 L 104.621094 257.316406 Z M 103.453125 256.171875 "/>
<path style="fill:none;stroke-width:2.25;stroke-linecap:round;stroke-linejoin:round;stroke:rgb(0%,0%,0%);stroke-opacity:1;stroke-miterlimit:10;" d="M 395.046875 254.703125 L 393.878906 253.558594 L 392.695313 252.425781 L 391.492188 251.316406 L 390.273438 250.226563 L 389.035156 249.15625 L 387.785156 248.101563 L 386.515625 247.070313 L 385.226563 246.058594 L 383.925781 245.070313 L 382.609375 244.097656 L 381.273438 243.148438 L 379.925781 242.222656 L 378.566406 241.316406 L 377.1875 240.429688 L 375.796875 239.570313 L 374.394531 238.726563 L 372.976563 237.910156 L 371.546875 237.113281 L 370.105469 236.339844 L 368.652344 235.59375 L 367.183594 234.867188 L 365.707031 234.160156 L 364.21875 233.480469 L 362.71875 232.828125 L 361.210938 232.195313 L 359.691406 231.585938 L 358.164063 231.003906 L 356.625 230.441406 L 355.078125 229.90625 L 353.523438 229.398438 L 351.960938 228.910156 L 350.394531 228.449219 L 348.816406 228.015625 L 347.230469 227.601563 L 345.640625 227.21875 L 344.046875 226.855469 L 342.445313 226.523438 L 340.835938 226.210938 L 339.226563 225.929688 L 337.609375 225.667969 L 335.992188 225.4375 L 334.367188 225.230469 L 332.742188 225.046875 L 331.113281 224.890625 L 329.480469 224.761719 L 327.847656 224.660156 L 326.214844 224.582031 L 324.578125 224.527344 L 322.941406 224.503906 L 321.308594 224.503906 L 319.671875 224.527344 L 318.035156 224.582031 L 316.402344 224.660156 L 314.769531 224.761719 L 313.136719 224.890625 L 311.507813 225.046875 L 309.882813 225.230469 L 308.257813 225.4375 L 306.640625 225.667969 L 305.023438 225.929688 L 303.414063 226.210938 L 301.804688 226.523438 L 300.203125 226.855469 L 298.609375 227.21875 L 297.019531 227.601563 L 295.433594 228.015625 L 293.855469 228.449219 L 292.289063 228.910156 L 290.726563 229.398438 L 289.171875 229.90625 L 287.625 230.441406 L 286.085938 231.003906 L 284.558594 231.585938 L 283.039063 232.195313 L 281.53125 232.828125 L 280.03125 233.480469 L 278.542969 234.160156 L 277.066406 234.867188 L 275.597656 235.59375 L 274.144531 236.339844 L 272.703125 237.113281 L 271.273438 237.910156 L 269.855469 238.726563 L 268.453125 239.570313 L 267.0625 240.429688 L 265.683594 241.316406 L 264.324219 242.222656 L 262.976563 243.148438 L 261.640625 244.097656 L 260.324219 245.070313 L 259.023438 246.058594 L 257.734375 247.070313 L 256.464844 248.101563 L 255.214844 249.15625 L 253.976563 250.226563 L 252.757813 251.316406 L 251.554688 252.425781 L 250.371094 253.558594 L 249.203125 254.703125 L 250.371094 253.558594 L 251.554688 252.425781 L 252.757813 251.316406 L 253.976563 250.226563 L 255.214844 249.15625 L 256.464844 248.101563 L 257.734375 247.070313 L 259.023438 246.058594 L 260.324219 245.070313 L 261.640625 244.097656 L 262.976563 243.148438 L 264.324219 242.222656 L 265.683594 241.316406 L 267.0625 240.429688 L 268.453125 239.570313 L 269.855469 238.726563 L 271.273438 237.910156 L 272.703125 237.113281 L 274.144531 236.339844 L 275.597656 235.59375 L 277.066406 234.867188 L 278.542969 234.160156 L 280.03125 233.480469 L 281.53125 232.828125 L 283.039063 232.195313 L 284.558594 231.585938 L 286.085938 231.003906 L 287.625 230.441406 L 289.171875 229.90625 L 290.726563 229.398438 L 292.289063 228.910156 L 293.855469 228.449219 L 295.433594 228.015625 L 297.019531 227.601563 L 298.609375 227.21875 L 300.203125 226.855469 L 301.804688 226.523438 L 303.414063 226.210938 L 305.023438 225.929688 L 306.640625 225.667969 L 308.257813 225.4375 L 309.882813 225.230469 L 311.507813 225.046875 L 313.136719 224.890625 L 314.769531 224.761719 L 316.402344 224.660156 L 318.035156 224.582031 L 319.671875 224.527344 L 321.308594 224.503906 L 322.941406 224.503906 L 324.578125 224.527344 L 326.214844 224.582031 L 327.847656 224.660156 L 329.480469 224.761719 L 331.113281 224.890625 L 332.742188 225.046875 L 334.367188 225.230469 L 335.992188 225.4375 L 337.609375 225.667969 L 339.226563 225.929688 L 340.835938 226.210938 L 342.445313 226.523438 L 344.046875 226.855469 L 345.640625 227.21875 L 347.230469 227.601563 L 348.816406 228.015625 L 350.394531 228.449219 L 351.960938 228.910156 L 353.523438 229.398438 L 355.078125 229.90625 L 356.625 230.441406 L 358.164063 231.003906 L 359.691406 231.585938 L 361.210938 232.195313 L 362.71875 232.828125 L 364.21875 233.480469 L 365.707031 234.160156 L 367.183594 234.867188 L 368.652344 235.59375 L 370.105469 236.339844 L 371.546875 237.113281 L 372.976563 237.910156 L 374.394531 238.726563 L 375.796875 239.570313 L 377.1875 240.429688 L 378.566406 241.316406 L 379.925781 242.222656 L 381.273438 243.148438 L 382.609375 244.097656 L 383.925781 245.070313 L 385.226563 246.058594 L 386.515625 247.070313 L 387.785156 248.101563 L 389.035156 249.15625 L 390.273438 250.226563 L 391.492188 251.316406 L 392.695313 252.425781 L 393.878906 253.558594 Z M 395.046875 254.703125 "/>
</g>
</svg>
