<?xml version="1.0" encoding="UTF-8"?>
<svg xmlns="http://www.w3.org/2000/svg" xmlns:xlink="http://www.w3.org/1999/xlink" width="504pt" height="504pt" viewBox="0 0 504 504" version="1.1">
<g id="surface1986">
<rect x="0" y="0" width="504" height="504" style="fill:rgb(100%,100%,100%);fill-opacity:1;stroke:none;"/>
<path style="fill:none;stroke-width:2.25;stroke-linecap:round;stroke-linejoin:round;stroke:rgb(0%,0%,0%);stroke-opacity:1;stroke-miterlimit:10;" d="M 252 45.75 L 55.84375 188.265625 L 130.769531 418.859375 L 373.230469 418.859375 L 448.15625 188.265625 Z M 252 45.75 "/>
<path style="fill:none;stroke-width:2.25;stroke-linecap:round;stroke-linejoin:round;stroke:rgb(0%,0%,0%);stroke-opacity:1;stroke-dasharray:2.25,6.75;stroke-miterlimit:10;" d="M 252 73.25 L 82 196.761719 L 146.933594 396.613281 L 357.066406 396.613281 L 422 196.761719 Z M 252 73.25 "/>
<path style="fill:none;stroke-width:2.25;stroke-linecap:round;stroke-linejoin:round;stroke:rgb(0%,0%,0%);stroke-opacity:1;stroke-miterlimit:10;" d="M 252 18.25 L 29.691406 179.765625 L 114.605469 441.109375 L 389.394531 441.109375 L 474.308594 179.765625 Z M 252 18.25 "/>
<path style="fill-rule:nonzero;fill:rgb(0%,0%,0%);fill-opacity:1;stroke-width:0.75;stroke-linecap:round;stroke-linejoin:round;stroke:rgb(0%,0%,0%);stroke-opacity:1;stroke-miterlimit:10;" d="M 403.25 73.25 L 403.304688 74.976563 L 403.46875 76.695313 L 403.738281 78.402344 L 404.113281 80.089844 L 404.597656 81.746094 L 405.179688 83.375 L 405.867188 84.957031 L 406.652344 86.5 L 407.53125 87.984375 L 408.503906 89.414063 L 409.5625 90.777344 L 410.703125 92.074219 L 411.925781 93.296875 L 413.222656 94.4375 L 414.585938 95.496094 L 416.015625 96.46875 L 417.5 97.347656 L 419.042969 98.132813 L 420.625 98.820313 L 422.253906 99.402344 L 423.910156 99.886719 L 425.597656 100.261719 L 427.304688 100.53125 L 429.023438 100.695313 L 430.75 100.75 L 432.476563 100.695313 L 434.195313 100.53125 L 435.902344 100.261719 L 437.589844 99.886719 L 439.246094 99.402344 L 440.875 98.820313 L 442.457031 98.132813 L 444 97.347656 L 445.484375 96.46875 L 446.914063 95.496094 L 448.277344 94.4375 L 449.574219 93.296875 L 450.796875 92.074219 L 451.9375 90.777344 L 452.996094 89.414063 L 453.96875 87.984375 L 454.847656 86.5 L 455.632813 84.957031 L 456.320313 83.375 L 456.902344 81.746094 L 457.386719 80.089844 L 457.761719 78.402344 L 458.03125 76.695313 L 458.195313 74.976563 L 458.25 73.25 L 458.195313 71.523438 L 458.03125 69.804688 L 457.761719 68.097656 L 457.386719 66.410156 L 456.902344 64.753906 L 456.320313 63.125 L 455.632813 61.542969 L 454.847656 60 L 453.96875 58.515625 L 452.996094 57.085938 L 451.9375 55.722656 L 450.796875 54.425781 L 449.574219 53.203125 L 448.277344 52.0625 L 446.914063 51.003906 L 445.484375 50.03125 L 444 49.152344 L 442.457031 48.367188 L 440.875 47.679688 L 439.246094 47.097656 L 437.589844 46.613281 L 435.902344 46.238281 L 434.195313 45.96875 L 432.476563 45.804688 L 430.75 45.75 L 429.023438 45.804688 L 427.304688 45.96875 L 425.597656 46.238281 L 423.910156 46.613281 L 422.253906 47.097656 L 420.625 47.679688 L 419.042969 48.367188 L 417.5 49.152344 L 416.015625 50.03125 L 414.585938 51.003906 L 413.222656 52.0625 L 411.925781 53.203125 L 410.703125 54.425781 L 409.5625 55.722656 L 408.503906 57.085938 L 407.53125 58.515625 L 406.652344 60 L 405.867188 61.542969 L 405.179688 63.125 L 404.597656 64.753906 L 404.113281 66.410156 L 403.738281 68.097656 L 403.46875 69.804688 L 403.304688 71.523438 Z M 403.25 73.25 "/>
<path style="fill-rule:nonzero;fill:rgb(0%,0%,0%);fill-opacity:1;stroke-width:0.75;stroke-linecap:round;stroke-linejoin:round;stroke:rgb(0%,0%,0%);stroke-opacity:1;stroke-miterlimit:10;" d="M 45.75 73.25 L 45.804688 74.976563 L 45.96875 76.695313 L 46.238281 78.402344 L 46.613281 80.089844 L 47.097656 81.746094 L 47.679688 83.375 L 48.367188 84.957031 L 49.152344 86.5 L 50.03125 87.984375 L 51.003906 89.414063 L 52.0625 90.777344 L 53.203125 92.074219 L 54.425781 93.296875 L 55.722656 94.4375 L 57.085938 95.496094 L 58.515625 96.46875 L 60 97.347656 L 61.542969 98.132813 L 63.125 98.820313 L 64.753906 99.402344 L 66.410156 99.886719 L 68.097656 100.261719 L 69.804688 100.53125 L 71.523438 100.695313 L 73.25 100.75 L 74.976563 100.695313 L 76.695313 100.53125 L 78.402344 100.261719 L 80.089844 99.886719 L 81.746094 99.402344 L 83.375 98.820313 L 84.957031 98.132813 L 86.5 97.347656 L 87.984375 96.46875 L 89.414063 95.496094 L 90.777344 94.4375 L 92.074219 93.296875 L 93.296875 92.074219 L 94.4375 90.777344 L 95.496094 89.414063 L 96.46875 87.984375 L 97.347656 86.5 L 98.132813 84.957031 L 98.820313 83.375 L 99.402344 81.746094 L 99.886719 80.089844 L 100.261719 78.402344 L 100.53125 76.695313 L 100.695313 74.976563 L 100.75 73.25 L 100.695313 71.523438 L 100.53125 69.804688 L 100.261719 68.097656 L 99.886719 66.410156 L 99.402344 64.753906 L 98.820313 63.125 L 98.132813 61.542969 L 97.347656 60 L 96.46875 58.515625 L 95.496094 57.085938 L 94.4375 55.722656 L 93.296875 54.425781 L 92.074219 53.203125 L 90.777344 52.0625 L 89.414063 51.003906 L 87.984375 50.03125 L 86.5 49.152344 L 84.957031 48.367188 L 83.375 47.679688 L 81.746094 47.097656 L 80.089844 46.613281 L 78.402344 46.238281 L 76.695313 45.96875 L 74.976563 45.804688 L 73.25 45.75 L 71.523438 45.804688 L 69.804688 45.96875 L 68.097656 46.238281 L 66.410156 46.613281 L 64.753906 47.097656 L 63.125 47.679688 L 61.542969 48.367188 L 60 49.152344 L 58.515625 50.03125 L 57.085938 51.003906 L 55.722656 52.0625 L 54.425781 53.203125 L 53.203125 54.425781 L 52.0625 55.722656 L 51.003906 57.085938 L 50.03125 58.515625 L 49.152344 60 L 48.367188 61.542969 L 47.679688 63.125 L 47.097656 64.753906 L 46.613281 66.410156 L 46.238281 68.097656 L 45.96875 69.804688 L 45.804688 71.523438 Z M 45.75 73.25 "/>
<path style="fill-rule:nonzero;fill:rgb(0%,0%,0%);fill-opacity:1;stroke-width:0.75;stroke-linecap:round;stroke-linejoin:round;stroke:rgb(0%,0%,0%);stroke-opacity:1;stroke-miterlimit:10;" d="M 403.25 430.75 L 403.304688 432.476563 L 403.46875 434.195313 L 403.738281 435.902344 L 404.113281 437.589844 L 404.597656 439.246094 L 405.179688 440.875 L 405.867188 442.457031 L 406.652344 444 L 407.53125 445.484375 L 408.503906 446.914063 L 409.5625 448.277344 L 410.703125 449.574219 L 411.925781 450.796875 L 413.222656 451.9375 L 414.585938 452.996094 L 416.015625 453.96875 L 417.5 454.847656 L 419.042969 455.632813 L 420.625 456.320313 L 422.253906 456.902344 L 423.910156 457.386719 L 425.597656 457.761719 L 427.304688 458.03125 L 429.023438 458.195313 L 430.75 458.25 L 432.476563 458.195313 L 434.195313 458.03125 L 435.902344 457.761719 L 437.589844 457.386719 L 439.246094 456.902344 L 440.875 456.320313 L 442.457031 455.632813 L 444 454.847656 L 445.484375 453.96875 L 446.914063 452.996094 L 448.277344 451.9375 L 449.574219 450.796875 L 450.796875 449.574219 L 451.9375 448.277344 L 452.996094 446.914063 L 453.96875 445.484375 L 454.847656 444 L 455.632813 442.457031 L 456.320313 440.875 L 456.902344 439.246094 L 457.386719 437.589844 L 457.761719 435.902344 L 458.03125 434.195313 L 458.195313 432.476563 L 458.25 430.75 L 458.195313 429.023438 L 458.03125 427.304688 L 457.761719 425.597656 L 457.386719 423.910156 L 456.902344 422.253906 L 456.320313 420.625 L 455.632813 419.042969 L 454.847656 417.5 L 453.96875 416.015625 L 452.996094 414.585938 L 451.9375 413.222656 L 450.796875 411.925781 L 449.574219 410.703125 L 448.277344 409.5625 L 446.914063 408.503906 L 445.484375 407.53125 L 444 406.652344 L 442.457031 405.867188 L 440.875 405.179688 L 439.246094 404.597656 L 437.589844 404.113281 L 435.902344 403.738281 L 434.195313 403.46875 L 432.476563 403.304688 L 430.75 403.25 L 429.023438 403.304688 L 427.304688 403.46875 L 425.597656 403.738281 L 423.910156 404.113281 L 422.253906 404.597656 L 420.625 405.179688 L 419.042969 405.867188 L 417.5 406.652344 L 416.015625 407.53125 L 414.585938 408.503906 L 413.222656 409.5625 L 411.925781 410.703125 L 410.703125 411.925781 L 409.5625 413.222656 L 408.503906 414.585938 L 407.53125 416.015625 L 406.652344 417.5 L 405.867188 419.042969 L 405.179688 420.625 L 404.597656 422.253906 L 404.113281 423.910156 L 403.738281 425.597656 L 403.46875 427.304688 L 403.304688 429.023438 Z M 403.25 430.75 "/>
<path style="fill-rule:nonzero;fill:rgb(0%,0%,0%);fill-opacity:1;stroke-width:0.75;stroke-linecap:round;stroke-linejoin:round;stroke:rgb(0%,0%,0%);stroke-opacity:1;stroke-miterlimit:10;" d="M 45.75 430.75 L 45.804688 432.476563 L 45.96875 434.195313 L 46.238281 435.902344 L 46.613281 437.589844 L 47.097656 439.246094 L 47.679688 440.875 L 48.367188 442.457031 L 49.152344 444 L 50.03125 445.484375 L 51.003906 446.914063 L 52.0625 448.277344 L 53.203125 449.574219 L 54.425781 450.796875 L 55.722656 451.9375 L 57.085938 452.996094 L 58.515625 453.96875 L 60 454.847656 L 61.542969 455.632813 L 63.125 456.320313 L 64.753906 456.902344 L 66.410156 457.386719 L 68.097656 457.761719 L 69.804688 458.03125 L 71.523438 458.195313 L 73.25 458.25 L 74.976563 458.195313 L 76.695313 458.03125 L 78.402344 457.761719 L 80.089844 457.386719 L 81.746094 456.902344 L 83.375 456.320313 L 84.957031 455.632813 L 86.5 454.847656 L 87.984375 453.96875 L 89.414063 452.996094 L 90.777344 451.9375 L 92.074219 450.796875 L 93.296875 449.574219 L 94.4375 448.277344 L 95.496094 446.914063 L 96.46875 445.484375 L 97.347656 444 L 98.132813 442.457031 L 98.820313 440.875 L 99.402344 439.246094 L 99.886719 437.589844 L 100.261719 435.902344 L 100.53125 434.195313 L 100.695313 432.476563 L 100.75 430.75 L 100.695313 429.023438 L 100.53125 427.304688 L 100.261719 425.597656 L 99.886719 423.910156 L 99.402344 422.253906 L 98.820313 420.625 L 98.132813 419.042969 L 97.347656 417.5 L 96.46875 416.015625 L 95.496094 414.585938 L 94.4375 413.222656 L 93.296875 411.925781 L 92.074219 410.703125 L 90.777344 409.5625 L 89.414063 408.503906 L 87.984375 407.53125 L 86.5 406.652344 L 84.957031 405.867188 L 83.375 405.179688 L 81.746094 404.597656 L 80.089844 404.113281 L 78.402344 403.738281 L 76.695313 403.46875 L 74.976563 403.304688 L 73.25 403.25 L 71.523438 403.304688 L 69.804688 403.46875 L 68.097656 403.738281 L 66.410156 404.113281 L 64.753906 404.597656 L 63.125 405.179688 L 61.542969 405.867188 L 60 406.652344 L 58.515625 407.53125 L 57.085938 408.503906 L 55.722656 409.5625 L 54.425781 410.703125 L 53.203125 411.925781 L 52.0625 413.222656 L 51.003906 414.585938 L 50.03125 416.015625 L 49.152344 417.5 L 48.367188 419.042969 L 47.679688 420.625 L 47.097656 422.253906 L 46.613281 423.910156 L 46.238281 425.597656 L 45.96875 427.304688 L 45.804688 429.023438 Z M 45.75 430.75 "/>
<path style="fill:none;stroke-width:2.25;stroke-linecap:round;stroke-linejoin:round;stroke:rgb(0%,0%,0%);stroke-opacity:1;stroke-dasharray:9,9;stroke-miterlimit:10;" d="M 183.25 183.25 L 320.75 183.25 Z M 183.25 183.25 "/>
</g>
</svg>
