<?xml version="1.0" encoding="UTF-8"?>
<svg xmlns="http://www.w3.org/2000/svg" xmlns:xlink="http://www.w3.org/1999/xlink" width="504pt" height="504pt" viewBox="0 0 504 504" version="1.1">
<g id="surface2011">
<rect x="0" y="0" width="504" height="504" style="fill:rgb(100%,100%,100%);fill-opacity:1;stroke:none;"/>
<path style="fill:none;stroke-width:2.25;stroke-linecap:round;stroke-linejoin:round;stroke:rgb(0%,0%,0%);stroke-opacity:1;stroke-miterlimit:10;" d="M 252 45.75 L 55.84375 188.265625 L 130.769531 418.859375 L 373.230469 418.859375 L 448.15625 188.265625 Z M 252 45.75 "/>
<path style="fill:none;stroke-width:2.25;stroke-linecap:round;stroke-linejoin:round;stroke:rgb(0%,0%,0%);stroke-opacity:1;stroke-dasharray:9,9;stroke-miterlimit:10;" d="M 183.25 183.25 L 320.75 183.25 Z M 183.25 183.25 "/>
<path style="fill:none;stroke-width:2.25;stroke-linecap:round;stroke-linejoin:round;stroke:rgb(0%,0%,0%);stroke-opacity:1;stroke-dasharray:9,9;stroke-miterlimit:10;" d="M 183.25 320.75 L 320.75 320.75 Z M 183.25 320.75 "/>
<path style="fill:none;stroke-width:2.25;stroke-linecap:round;stroke-linejoin:round;stroke:rgb(0%,0%,0%);stroke-opacity:1;stroke-dasharray:9,9;stroke-miterlimit:10;" d="M 183.25 320.75 L 183.25 183.25 Z M 183.25 320.75 "/>
<path style="fill:none;stroke-width:2.25;stroke-linecap:round;stroke-linejoin:round;stroke:rgb(0%,0%,0%);stroke-opacity:1;stroke-miterlimit:10;" d="M 247.828125 110.328125 L 246.683594 111.496094 L 245.550781 112.679688 L 244.441406 113.882813 L 243.351563 115.101563 L 242.28125 116.339844 L 241.226563 117.589844 L 240.195313 118.859375 L 239.183594 120.148438 L 238.195313 121.449219 L 237.222656 122.765625 L 236.273438 124.101563 L 235.347656 125.449219 L 234.441406 126.808594 L 233.554688 128.1875 L 232.695313 129.578125 L 231.851563 130.980469 L 231.035156 132.398438 L 230.238281 133.828125 L 229.464844 135.269531 L 228.71875 136.722656 L 227.992188 138.191406 L 227.285156 139.667969 L 226.605469 141.15625 L 225.953125 142.65625 L 225.320313 144.164063 L 224.710938 145.683594 L 224.128906 147.210938 L 223.566406 148.75 L 223.03125 150.296875 L 222.523438 151.851563 L 222.035156 153.414063 L 221.574219 154.980469 L 221.140625 156.558594 L 220.726563 158.144531 L 220.34375 159.734375 L 219.980469 161.328125 L 219.648438 162.929688 L 219.335938 164.539063 L 219.054688 166.148438 L 218.792969 167.765625 L 218.5625 169.382813 L 218.355469 171.007813 L 218.171875 172.632813 L 218.015625 174.261719 L 217.886719 175.894531 L 217.785156 177.527344 L 217.707031 179.160156 L 217.652344 180.796875 L 217.628906 182.433594 L 217.628906 184.066406 L 217.652344 185.703125 L 217.707031 187.339844 L 217.785156 188.972656 L 217.886719 190.605469 L 218.015625 192.238281 L 218.171875 193.867188 L 218.355469 195.492188 L 218.5625 197.117188 L 218.792969 198.734375 L 219.054688 200.351563 L 219.335938 201.960938 L 219.648438 203.570313 L 219.980469 205.171875 L 220.34375 206.765625 L 220.726563 208.355469 L 221.140625 209.941406 L 221.574219 211.519531 L 222.035156 213.085938 L 222.523438 214.648438 L 223.03125 216.203125 L 223.566406 217.75 L 224.128906 219.289063 L 224.710938 220.816406 L 225.320313 222.335938 L 225.953125 223.84375 L 226.605469 225.34375 L 227.285156 226.832031 L 227.992188 228.308594 L 228.71875 229.777344 L 229.464844 231.230469 L 230.238281 232.671875 L 231.035156 234.101563 L 231.851563 235.519531 L 232.695313 236.921875 L 233.554688 238.3125 L 234.441406 239.691406 L 235.347656 241.050781 L 236.273438 242.398438 L 237.222656 243.734375 L 238.195313 245.050781 L 239.183594 246.351563 L 240.195313 247.640625 L 241.226563 248.910156 L 242.28125 250.160156 L 243.351563 251.398438 L 244.441406 252.617188 L 245.550781 253.820313 L 246.683594 255.003906 L 247.828125 256.171875 L 246.683594 255.003906 L 245.550781 253.820313 L 244.441406 252.617188 L 243.351563 251.398438 L 242.28125 250.160156 L 241.226563 248.910156 L 240.195313 247.640625 L 239.183594 246.351563 L 238.195313 245.050781 L 237.222656 243.734375 L 236.273438 242.398438 L 235.347656 241.050781 L 234.441406 239.691406 L 233.554688 238.3125 L 232.695313 236.921875 L 231.851563 235.519531 L 231.035156 234.101563 L 230.238281 232.671875 L 229.464844 231.230469 L 228.71875 229.777344 L 227.992188 228.308594 L 227.285156 226.832031 L 226.605469 225.34375 L 225.953125 223.84375 L 225.320313 222.335938 L 224.710938 220.816406 L 224.128906 219.289063 L 223.566406 217.75 L 223.03125 216.203125 L 222.523438 214.648438 L 222.035156 213.085938 L 221.574219 211.519531 L 221.140625 209.941406 L 220.726563 208.355469 L 220.34375 206.765625 L 219.980469 205.171875 L 219.648438 203.570313 L 219.335938 201.960938 L 219.054688 200.351563 L 218.792969 198.734375 L 218.5625 197.117188 L 218.355469 195.492188 L 218.171875 193.867188 L 218.015625 192.238281 L 217.886719 190.605469 L 217.785156 188.972656 L 217.707031 187.339844 L 217.652344 185.703125 L 217.628906 184.066406 L 217.628906 182.433594 L 217.652344 180.796875 L 217.707031 179.160156 L 217.785156 177.527344 L 217.886719 175.894531 L 218.015625 174.261719 L 218.171875 172.632813 L 218.355469 171.007813 L 218.5625 169.382813 L 218.792969 167.765625 L 219.054688 166.148438 L 219.335938 164.539063 L 219.648438 162.929688 L 219.980469 161.328125 L 220.34375 159.734375 L 220.726563 158.144531 L 221.140625 156.558594 L 221.574219 154.980469 L 222.035156 153.414063 L 222.523438 151.851563 L 223.03125 150.296875 L 223.566406 148.75 L 224.128906 147.210938 L 224.710938 145.683594 L 225.320313 144.164063 L 225.953125 142.65625 L 226.605469 141.15625 L 227.285156 139.667969 L 227.992188 138.191406 L 228.71875 136.722656 L 229.464844 135.269531 L 230.238281 133.828125 L 231.035156 132.398438 L 231.851563 130.980469 L 232.695313 129.578125 L 233.554688 128.1875 L 234.441406 126.808594 L 235.347656 125.449219 L 236.273438 124.101563 L 237.222656 122.765625 L 238.195313 121.449219 L 239.183594 120.148438 L 240.195313 118.859375 L 241.226563 117.589844 L 242.28125 116.339844 L 243.351563 115.101563 L 244.441406 113.882813 L 245.550781 112.679688 L 246.683594 111.496094 Z M 247.828125 110.328125 "/>
<path style="fill:none;stroke-width:2.25;stroke-linecap:round;stroke-linejoin:round;stroke:rgb(0%,0%,0%);stroke-opacity:1;stroke-miterlimit:10;" d="M 249.296875 400.546875 L 250.441406 399.378906 L 251.574219 398.195313 L 252.683594 396.992188 L 253.773438 395.773438 L 254.84375 394.535156 L 255.898438 393.285156 L 256.929688 392.015625 L 257.941406 390.726563 L 258.929688 389.425781 L 259.902344 388.109375 L 260.851563 386.773438 L 261.777344 385.425781 L 262.683594 384.066406 L 263.570313 382.6875 L 264.429688 381.296875 L 265.273438 379.894531 L 266.089844 378.476563 L 266.886719 377.046875 L 267.660156 375.605469 L 268.40625 374.152344 L 269.132813 372.683594 L 269.839844 371.207031 L 270.519531 369.71875 L 271.171875 368.21875 L 271.804688 366.710938 L 272.414063 365.191406 L 272.996094 363.664063 L 273.558594 362.125 L 274.09375 360.578125 L 274.601563 359.023438 L 275.089844 357.460938 L 275.550781 355.894531 L 275.984375 354.316406 L 276.398438 352.730469 L 276.78125 351.140625 L 277.144531 349.546875 L 277.476563 347.945313 L 277.789063 346.335938 L 278.070313 344.726563 L 278.332031 343.109375 L 278.5625 341.492188 L 278.769531 339.867188 L 278.953125 338.242188 L 279.109375 336.613281 L 279.238281 334.980469 L 279.339844 333.347656 L 279.417969 331.714844 L 279.472656 330.078125 L 279.496094 328.441406 L 279.496094 326.808594 L 279.472656 325.171875 L 279.417969 323.535156 L 279.339844 321.902344 L 279.238281 320.269531 L 279.109375 318.636719 L 278.953125 317.007813 L 278.769531 315.382813 L 278.5625 313.757813 L 278.332031 312.140625 L 278.070313 310.523438 L 277.789063 308.914063 L 277.476563 307.304688 L 277.144531 305.703125 L 276.78125 304.109375 L 276.398438 302.519531 L 275.984375 300.933594 L 275.550781 299.355469 L 275.089844 297.789063 L 274.601563 296.226563 L 274.09375 294.671875 L 273.558594 293.125 L 272.996094 291.585938 L 272.414063 290.058594 L 271.804688 288.539063 L 271.171875 287.03125 L 270.519531 285.53125 L 269.839844 284.042969 L 269.132813 282.566406 L 268.40625 281.097656 L 267.660156 279.644531 L 266.886719 278.203125 L 266.089844 276.773438 L 265.273438 275.355469 L 264.429688 273.953125 L 263.570313 272.5625 L 262.683594 271.183594 L 261.777344 269.824219 L 260.851563 268.476563 L 259.902344 267.140625 L 258.929688 265.824219 L 257.941406 264.523438 L 256.929688 263.234375 L 255.898438 261.964844 L 254.84375 260.714844 L 253.773438 259.476563 L 252.683594 258.257813 L 251.574219 257.054688 L 250.441406 255.871094 L 249.296875 254.703125 L 250.441406 255.871094 L 251.574219 257.054688 L 252.683594 258.257813 L 253.773438 259.476563 L 254.84375 260.714844 L 255.898438 261.964844 L 256.929688 263.234375 L 257.941406 264.523438 L 258.929688 265.824219 L 259.902344 267.140625 L 260.851563 268.476563 L 261.777344 269.824219 L 262.683594 271.183594 L 263.570313 272.5625 L 264.429688 273.953125 L 265.273438 275.355469 L 266.089844 276.773438 L 266.886719 278.203125 L 267.660156 279.644531 L 268.40625 281.097656 L 269.132813 282.566406 L 269.839844 284.042969 L 270.519531 285.53125 L 271.171875 287.03125 L 271.804688 288.539063 L 272.414063 290.058594 L 272.996094 291.585938 L 273.558594 293.125 L 274.09375 294.671875 L 274.601563 296.226563 L 275.089844 297.789063 L 275.550781 299.355469 L 275.984375 300.933594 L 276.398438 302.519531 L 276.78125 304.109375 L 277.144531 305.703125 L 277.476563 307.304688 L 277.789063 308.914063 L 278.070313 310.523438 L 278.332031 312.140625 L 278.5625 313.757813 L 278.769531 315.382813 L 278.953125 317.007813 L 279.109375 318.636719 L 279.238281 320.269531 L 279.339844 321.902344 L 279.417969 323.535156 L 279.472656 325.171875 L 279.496094 326.808594 L 279.496094 328.441406 L 279.472656 330.078125 L 279.417969 331.714844 L 279.339844 333.347656 L 279.238281 334.980469 L 279.109375 336.613281 L 278.953125 338.242188 L 278.769531 339.867188 L 278.5625 341.492188 L 278.332031 343.109375 L 278.070313 344.726563 L 277.789063 346.335938 L 277.476563 347.945313 L 277.144531 349.546875 L 276.78125 351.140625 L 276.398438 352.730469 L 275.984375 354.316406 L 275.550781 355.894531 L 275.089844 357.460938 L 274.601563 359.023438 L 274.09375 360.578125 L 273.558594 362.125 L 272.996094 363.664063 L 272.414063 365.191406 L 271.804688 366.710938 L 271.171875 368.21875 L 270.519531 369.71875 L 269.839844 371.207031 L 269.132813 372.683594 L 268.40625 374.152344 L 267.660156 375.605469 L 266.886719 377.046875 L 266.089844 378.476563 L 265.273438 379.894531 L 264.429688 381.296875 L 263.570313 382.6875 L 262.683594 384.066406 L 261.777344 385.425781 L 260.851563 386.773438 L 259.902344 388.109375 L 258.929688 389.425781 L 257.941406 390.726563 L 256.929688 392.015625 L 255.898438 393.285156 L 254.84375 394.535156 L 253.773438 395.773438 L 252.683594 396.992188 L 251.574219 398.195313 L 250.441406 399.378906 Z M 249.296875 400.546875 "/>
</g>
</svg>
