<?xml version="1.0" encoding="UTF-8"?>
<svg xmlns="http://www.w3.org/2000/svg" xmlns:xlink="http://www.w3.org/1999/xlink" width="504pt" height="504pt" viewBox="0 0 504 504" version="1.1">
<g id="surface1936">
<rect x="0" y="0" width="504" height="504" style="fill:rgb(100%,100%,100%);fill-opacity:1;stroke:none;"/>
<path style="fill-rule:nonzero;fill:rgb(0%,0%,0%);fill-opacity:1;stroke-width:0.75;stroke-linecap:round;stroke-linejoin:round;stroke:rgb(0%,0%,0%);stroke-opacity:1;stroke-miterlimit:10;" d="M 403.25 73.25 L 403.304688 74.976563 L 403.46875 76.695313 L 403.738281 78.402344 L 404.113281 80.089844 L 404.597656 81.746094 L 405.179688 83.375 L 405.867188 84.957031 L 406.652344 86.5 L 407.53125 87.984375 L 408.503906 89.414063 L 409.5625 90.777344 L 410.703125 92.074219 L 411.925781 93.296875 L 413.222656 94.4375 L 414.585938 95.496094 L 416.015625 96.46875 L 417.5 97.347656 L 419.042969 98.132813 L 420.625 98.820313 L 422.253906 99.402344 L 423.910156 99.886719 L 425.597656 100.261719 L 427.304688 100.53125 L 429.023438 100.695313 L 430.75 100.75 L 432.476563 100.695313 L 434.195313 100.53125 L 435.902344 100.261719 L 437.589844 99.886719 L 439.246094 99.402344 L 440.875 98.820313 L 442.457031 98.132813 L 444 97.347656 L 445.484375 96.46875 L 446.914063 95.496094 L 448.277344 94.4375 L 449.574219 93.296875 L 450.796875 92.074219 L 451.9375 90.777344 L 452.996094 89.414063 L 453.96875 87.984375 L 454.847656 86.5 L 455.632813 84.957031 L 456.320313 83.375 L 456.902344 81.746094 L 457.386719 80.089844 L 457.761719 78.402344 L 458.03125 76.695313 L 458.195313 74.976563 L 458.25 73.25 L 458.195313 71.523438 L 458.03125 69.804688 L 457.761719 68.097656 L 457.386719 66.410156 L 456.902344 64.753906 L 456.320313 63.125 L 455.632813 61.542969 L 454.847656 60 L 453.96875 58.515625 L 452.996094 57.085938 L 451.9375 55.722656 L 450.796875 54.425781 L 449.574219 53.203125 L 448.277344 52.0625 L 446.914063 51.003906 L 445.484375 50.03125 L 444 49.152344 L 442.457031 48.367188 L 440.875 47.679688 L 439.246094 47.097656 L 437.589844 46.613281 L 435.902344 46.238281 L 434.195313 45.96875 L 432.476563 45.804688 L 430.75 45.75 L 429.023438 45.804688 L 427.304688 45.96875 L 425.597656 46.238281 L 423.910156 46.613281 L 422.253906 47.097656 L 420.625 47.679688 L 419.042969 48.367188 L 417.5 49.152344 L 416.015625 50.03125 L 414.585938 51.003906 L 413.222656 52.0625 L 411.925781 53.203125 L 410.703125 54.425781 L 409.5625 55.722656 L 408.503906 57.085938 L 407.53125 58.515625 L 406.652344 60 L 405.867188 61.542969 L 405.179688 63.125 L 404.597656 64.753906 L 404.113281 66.410156 L 403.738281 68.097656 L 403.46875 69.804688 L 403.304688 71.523438 Z M 403.25 73.25 "/>
<path style="fill-rule:nonzero;fill:rgb(0%,0%,0%);fill-opacity:1;stroke-width:0.75;stroke-linecap:round;stroke-linejoin:round;stroke:rgb(0%,0%,0%);stroke-opacity:1;stroke-miterlimit:10;" d="M 45.75 73.25 L 45.804688 74.976563 L 45.96875 76.695313 L 46.238281 78.402344 L 46.613281 80.089844 L 47.097656 81.746094 L 47.679688 83.375 L 48.367188 84.957031 L 49.152344 86.5 L 50.03125 87.984375 L 51.003906 89.414063 L 52.0625 90.777344 L 53.203125 92.074219 L 54.425781 93.296875 L 55.722656 94.4375 L 57.085938 95.496094 L 58.515625 96.46875 L 60 97.347656 L 61.542969 98.132813 L 63.125 98.820313 L 64.753906 99.402344 L 66.410156 99.886719 L 68.097656 100.261719 L 69.804688 100.53125 L 71.523438 100.695313 L 73.25 100.75 L 74.976563 100.695313 L 76.695313 100.53125 L 78.402344 100.261719 L 80.089844 99.886719 L 81.746094 99.402344 L 83.375 98.820313 L 84.957031 98.132813 L 86.5 97.347656 L 87.984375 96.46875 L 89.414063 95.496094 L 90.777344 94.4375 L 92.074219 93.296875 L 93.296875 92.074219 L 94.4375 90.777344 L 95.496094 89.414063 L 96.46875 87.984375 L 97.347656 86.5 L 98.132813 84.957031 L 98.820313 83.375 L 99.402344 81.746094 L 99.886719 80.089844 L 100.261719 78.402344 L 100.53125 76.695313 L 100.695313 74.976563 L 100.75 73.25 L 100.695313 71.523438 L 100.53125 69.804688 L 100.261719 68.097656 L 99.886719 66.410156 L 99.402344 64.753906 L 98.820313 63.125 L 98.132813 61.542969 L 97.347656 60 L 96.46875 58.515625 L 95.496094 57.085938 L 94.4375 55.722656 L 93.296875 54.425781 L 92.074219 53.203125 L 90.777344 52.0625 L 89.414063 51.003906 L 87.984375 50.03125 L 86.5 49.152344 L 84.957031 48.367188 L 83.375 47.679688 L 81.746094 47.097656 L 80.089844 46.613281 L 78.402344 46.238281 L 76.695313 45.96875 L 74.976563 45.804688 L 73.25 45.75 L 71.523438 45.804688 L 69.804688 45.96875 L 68.097656 46.238281 L 66.410156 46.613281 L 64.753906 47.097656 L 63.125 47.679688 L 61.542969 48.367188 L 60 49.152344 L 58.515625 50.03125 L 57.085938 51.003906 L 55.722656 52.0625 L 54.425781 53.203125 L 53.203125 54.425781 L 52.0625 55.722656 L 51.003906 57.085938 L 50.03125 58.515625 L 49.152344 60 L 48.367188 61.542969 L 47.679688 63.125 L 47.097656 64.753906 L 46.613281 66.410156 L 46.238281 68.097656 L 45.96875 69.804688 L 45.804688 71.523438 Z M 45.75 73.25 "/>
<path style="fill-rule:nonzero;fill:rgb(0%,0%,0%);fill-opacity:1;stroke-width:0.75;stroke-linecap:round;stroke-linejoin:round;stroke:rgb(0%,0%,0%);stroke-opacity:1;stroke-miterlimit:10;" d="M 403.25 430.75 L 403.304688 432.476563 L 403.46875 434.195313 L 403.738281 435.902344 L 404.113281 437.589844 L 404.597656 439.246094 L 405.179688 440.875 L 405.867188 442.457031 L 406.652344 444 L 407.53125 445.484375 L 408.503906 446.914063 L 409.5625 448.277344 L 410.703125 449.574219 L 411.925781 450.796875 L 413.222656 451.9375 L 414.585938 452.996094 L 416.015625 453.96875 L 417.5 454.847656 L 419.042969 455.632813 L 420.625 456.320313 L 422.253906 456.902344 L 423.910156 457.386719 L 425.597656 457.761719 L 427.304688 458.03125 L 429.023438 458.195313 L 430.75 458.25 L 432.476563 458.195313 L 434.195313 458.03125 L 435.902344 457.761719 L 437.589844 457.386719 L 439.246094 456.902344 L 440.875 456.320313 L 442.457031 455.632813 L 444 454.847656 L 445.484375 453.96875 L 446.914063 452.996094 L 448.277344 451.9375 L 449.574219 450.796875 L 450.796875 449.574219 L 451.9375 448.277344 L 452.996094 446.914063 L 453.96875 445.484375 L 454.847656 444 L 455.632813 442.457031 L 456.320313 440.875 L 456.902344 439.246094 L 457.386719 437.589844 L 457.761719 435.902344 L 458.03125 434.195313 L 458.195313 432.476563 L 458.25 430.75 L 458.195313 429.023438 L 458.03125 427.304688 L 457.761719 425.597656 L 457.386719 423.910156 L 456.902344 422.253906 L 456.320313 420.625 L 455.632813 419.042969 L 454.847656 417.5 L 453.96875 416.015625 L 452.996094 414.585938 L 451.9375 413.222656 L 450.796875 411.925781 L 449.574219 410.703125 L 448.277344 409.5625 L 446.914063 408.503906 L 445.484375 407.53125 L 444 406.652344 L 442.457031 405.867188 L 440.875 405.179688 L 439.246094 404.597656 L 437.589844 404.113281 L 435.902344 403.738281 L 434.195313 403.46875 L 432.476563 403.304688 L 430.75 403.25 L 429.023438 403.304688 L 427.304688 403.46875 L 425.597656 403.738281 L 423.910156 404.113281 L 422.253906 404.597656 L 420.625 405.179688 L 419.042969 405.867188 L 417.5 406.652344 L 416.015625 407.53125 L 414.585938 408.503906 L 413.222656 409.5625 L 411.925781 410.703125 L 410.703125 411.925781 L 409.5625 413.222656 L 408.503906 414.585938 L 407.53125 416.015625 L 406.652344 417.5 L 405.867188 419.042969 L 405.179688 420.625 L 404.597656 422.253906 L 404.113281 423.910156 L 403.738281 425.597656 L 403.46875 427.304688 L 403.304688 429.023438 Z M 403.25 430.75 "/>
<path style="fill-rule:nonzero;fill:rgb(0%,0%,0%);fill-opacity:1;stroke-width:0.75;stroke-linecap:round;stroke-linejoin:round;stroke:rgb(0%,0%,0%);stroke-opacity:1;stroke-miterlimit:10;" d="M 45.75 430.75 L 45.804688 432.476563 L 45.96875 434.195313 L 46.238281 435.902344 L 46.613281 437.589844 L 47.097656 439.246094 L 47.679688 440.875 L 48.367188 442.457031 L 49.152344 444 L 50.03125 445.484375 L 51.003906 446.914063 L 52.0625 448.277344 L 53.203125 449.574219 L 54.425781 450.796875 L 55.722656 451.9375 L 57.085938 452.996094 L 58.515625 453.96875 L 60 454.847656 L 61.542969 455.632813 L 63.125 456.320313 L 64.753906 456.902344 L 66.410156 457.386719 L 68.097656 457.761719 L 69.804688 458.03125 L 71.523438 458.195313 L 73.25 458.25 L 74.976563 458.195313 L 76.695313 458.03125 L 78.402344 457.761719 L 80.089844 457.386719 L 81.746094 456.902344 L 83.375 456.320313 L 84.957031 455.632813 L 86.5 454.847656 L 87.984375 453.96875 L 89.414063 452.996094 L 90.777344 451.9375 L 92.074219 450.796875 L 93.296875 449.574219 L 94.4375 448.277344 L 95.496094 446.914063 L 96.46875 445.484375 L 97.347656 444 L 98.132813 442.457031 L 98.820313 440.875 L 99.402344 439.246094 L 99.886719 437.589844 L 100.261719 435.902344 L 100.53125 434.195313 L 100.695313 432.476563 L 100.75 430.75 L 100.695313 429.023438 L 100.53125 427.304688 L 100.261719 425.597656 L 99.886719 423.910156 L 99.402344 422.253906 L 98.820313 420.625 L 98.132813 419.042969 L 97.347656 417.5 L 96.46875 416.015625 L 95.496094 414.585938 L 94.4375 413.222656 L 93.296875 411.925781 L 92.074219 410.703125 L 90.777344 409.5625 L 89.414063 408.503906 L 87.984375 407.53125 L 86.5 406.652344 L 84.957031 405.867188 L 83.375 405.179688 L 81.746094 404.597656 L 80.089844 404.113281 L 78.402344 403.738281 L 76.695313 403.46875 L 74.976563 403.304688 L 73.25 403.25 L 71.523438 403.304688 L 69.804688 403.46875 L 68.097656 403.738281 L 66.410156 404.113281 L 64.753906 404.597656 L 63.125 405.179688 L 61.542969 405.867188 L 60 406.652344 L 58.515625 407.53125 L 57.085938 408.503906 L 55.722656 409.5625 L 54.425781 410.703125 L 53.203125 411.925781 L 52.0625 413.222656 L 51.003906 414.585938 L 50.03125 416.015625 L 49.152344 417.5 L 48.367188 419.042969 L 47.679688 420.625 L 47.097656 422.253906 L 46.613281 423.910156 L 46.238281 425.597656 L 45.96875 427.304688 L 45.804688 429.023438 Z M 45.75 430.75 "/>
<path style="fill:none;stroke-width:2.25;stroke-linecap:round;stroke-linejoin:round;stroke:rgb(0%,0%,0%);stroke-opacity:1;stroke-miterlimit:10;" d="M 148.875 148.875 L 355.125 355.125 Z M 148.875 148.875 "/>
<path style="fill:none;stroke-width:2.25;stroke-linecap:round;stroke-linejoin:round;stroke:rgb(0%,0%,0%);stroke-opacity:1;stroke-miterlimit:10;" d="M 249.296875 254.703125 L 248.128906 253.558594 L 246.945313 252.425781 L 245.742188 251.316406 L 244.523438 250.226563 L 243.285156 249.15625 L 242.035156 248.101563 L 240.765625 247.070313 L 239.476563 246.058594 L 238.175781 245.070313 L 236.859375 244.097656 L 235.523438 243.148438 L 234.175781 242.222656 L 232.816406 241.316406 L 231.4375 240.429688 L 230.046875 239.570313 L 228.644531 238.726563 L 227.226563 237.910156 L 225.796875 237.113281 L 224.355469 236.339844 L 222.902344 235.59375 L 221.433594 234.867188 L 219.957031 234.160156 L 218.46875 233.480469 L 216.96875 232.828125 L 215.460938 232.195313 L 213.941406 231.585938 L 212.414063 231.003906 L 210.875 230.441406 L 209.328125 229.90625 L 207.773438 229.398438 L 206.210938 228.910156 L 204.644531 228.449219 L 203.066406 228.015625 L 201.480469 227.601563 L 199.890625 227.21875 L 198.296875 226.855469 L 196.695313 226.523438 L 195.085938 226.210938 L 193.476563 225.929688 L 191.859375 225.667969 L 190.242188 225.4375 L 188.617188 225.230469 L 186.992188 225.046875 L 185.363281 224.890625 L 183.730469 224.761719 L 182.097656 224.660156 L 180.464844 224.582031 L 178.828125 224.527344 L 177.191406 224.503906 L 175.558594 224.503906 L 173.921875 224.527344 L 172.285156 224.582031 L 170.652344 224.660156 L 169.019531 224.761719 L 167.386719 224.890625 L 165.757813 225.046875 L 164.132813 225.230469 L 162.507813 225.4375 L 160.890625 225.667969 L 159.273438 225.929688 L 157.664063 226.210938 L 156.054688 226.523438 L 154.453125 226.855469 L 152.859375 227.21875 L 151.269531 227.601563 L 149.683594 228.015625 L 148.105469 228.449219 L 146.539063 228.910156 L 144.976563 229.398438 L 143.421875 229.90625 L 141.875 230.441406 L 140.335938 231.003906 L 138.808594 231.585938 L 137.289063 232.195313 L 135.78125 232.828125 L 134.28125 233.480469 L 132.792969 234.160156 L 131.316406 234.867188 L 129.847656 235.59375 L 128.394531 236.339844 L 126.953125 237.113281 L 125.523438 237.910156 L 124.105469 238.726563 L 122.703125 239.570313 L 121.3125 240.429688 L 119.933594 241.316406 L 118.574219 242.222656 L 117.226563 243.148438 L 115.890625 244.097656 L 114.574219 245.070313 L 113.273438 246.058594 L 111.984375 247.070313 L 110.714844 248.101563 L 109.464844 249.15625 L 108.226563 250.226563 L 107.007813 251.316406 L 105.804688 252.425781 L 104.621094 253.558594 L 103.453125 254.703125 L 104.621094 253.558594 L 105.804688 252.425781 L 107.007813 251.316406 L 108.226563 250.226563 L 109.464844 249.15625 L 110.714844 248.101563 L 111.984375 247.070313 L 113.273438 246.058594 L 114.574219 245.070313 L 115.890625 244.097656 L 117.226563 243.148438 L 118.574219 242.222656 L 119.933594 241.316406 L 121.3125 240.429688 L 122.703125 239.570313 L 124.105469 238.726563 L 125.523438 237.910156 L 126.953125 237.113281 L 128.394531 236.339844 L 129.847656 235.59375 L 131.316406 234.867188 L 132.792969 234.160156 L 134.28125 233.480469 L 135.78125 232.828125 L 137.289063 232.195313 L 138.808594 231.585938 L 140.335938 231.003906 L 141.875 230.441406 L 143.421875 229.90625 L 144.976563 229.398438 L 146.539063 228.910156 L 148.105469 228.449219 L 149.683594 228.015625 L 151.269531 227.601563 L 152.859375 227.21875 L 154.453125 226.855469 L 156.054688 226.523438 L 157.664063 226.210938 L 159.273438 225.929688 L 160.890625 225.667969 L 162.507813 225.4375 L 164.132813 225.230469 L 165.757813 225.046875 L 167.386719 224.890625 L 169.019531 224.761719 L 170.652344 224.660156 L 172.285156 224.582031 L 173.921875 224.527344 L 175.558594 224.503906 L 177.191406 224.503906 L 178.828125 224.527344 L 180.464844 224.582031 L 182.097656 224.660156 L 183.730469 224.761719 L 185.363281 224.890625 L 186.992188 225.046875 L 188.617188 225.230469 L 190.242188 225.4375 L 191.859375 225.667969 L 193.476563 225.929688 L 195.085938 226.210938 L 196.695313 226.523438 L 198.296875 226.855469 L 199.890625 227.21875 L 201.480469 227.601563 L 203.066406 228.015625 L 204.644531 228.449219 L 206.210938 228.910156 L 207.773438 229.398438 L 209.328125 229.90625 L 210.875 230.441406 L 212.414063 231.003906 L 213.941406 231.585938 L 215.460938 232.195313 L 216.96875 232.828125 L 218.46875 233.480469 L 219.957031 234.160156 L 221.433594 234.867188 L 222.902344 235.59375 L 224.355469 236.339844 L 225.796875 237.113281 L 227.226563 237.910156 L 228.644531 238.726563 L 230.046875 239.570313 L 231.4375 240.429688 L 232.816406 241.316406 L 234.175781 242.222656 L 235.523438 243.148438 L 236.859375 244.097656 L 238.175781 245.070313 L 239.476563 246.058594 L 240.765625 247.070313 L 242.035156 248.101563 L 243.285156 249.15625 L 244.523438 250.226563 L 245.742188 251.316406 L 246.945313 252.425781 L 248.128906 253.558594 Z M 249.296875 254.703125 "/>
<path style="fill:none;stroke-width:2.25;stroke-linecap:round;stroke-linejoin:round;stroke:rgb(0%,0%,0%);stroke-opacity:1;stroke-miterlimit:10;" d="M 247.828125 256.171875 L 248.996094 257.316406 L 250.179688 258.449219 L 251.382813 259.558594 L 252.601563 260.648438 L 253.839844 261.71875 L 255.089844 262.773438 L 256.359375 263.804688 L 257.648438 264.816406 L 258.949219 265.804688 L 260.265625 266.777344 L 261.601563 267.726563 L 262.949219 268.652344 L 264.308594 269.558594 L 265.6875 270.445313 L 267.078125 271.304688 L 268.480469 272.148438 L 269.898438 272.964844 L 271.328125 273.761719 L 272.769531 274.535156 L 274.222656 275.28125 L 275.691406 276.007813 L 277.167969 276.714844 L 278.65625 277.394531 L 280.15625 278.046875 L 281.664063 278.679688 L 283.183594 279.289063 L 284.710938 279.871094 L 286.25 280.433594 L 287.796875 280.96875 L 289.351563 281.476563 L 290.914063 281.964844 L 292.480469 282.425781 L 294.058594 282.859375 L 295.644531 283.273438 L 297.234375 283.65625 L 298.828125 284.019531 L 300.429688 284.351563 L 302.039063 284.664063 L 303.648438 284.945313 L 305.265625 285.207031 L 306.882813 285.4375 L 308.507813 285.644531 L 310.132813 285.828125 L 311.761719 285.984375 L 313.394531 286.113281 L 315.027344 286.214844 L 316.660156 286.292969 L 318.296875 286.347656 L 319.933594 286.371094 L 321.566406 286.371094 L 323.203125 286.347656 L 324.839844 286.292969 L 326.472656 286.214844 L 328.105469 286.113281 L 329.738281 285.984375 L 331.367188 285.828125 L 332.992188 285.644531 L 334.617188 285.4375 L 336.234375 285.207031 L 337.851563 284.945313 L 339.460938 284.664063 L 341.070313 284.351563 L 342.671875 284.019531 L 344.265625 283.65625 L 345.855469 283.273438 L 347.441406 282.859375 L 349.019531 282.425781 L 350.585938 281.964844 L 352.148438 281.476563 L 353.703125 280.96875 L 355.25 280.433594 L 356.789063 279.871094 L 358.316406 279.289063 L 359.835938 278.679688 L 361.34375 278.046875 L 362.84375 277.394531 L 364.332031 276.714844 L 365.808594 276.007813 L 367.277344 275.28125 L 368.730469 274.535156 L 370.171875 273.761719 L 371.601563 272.964844 L 373.019531 272.148438 L 374.421875 271.304688 L 375.8125 270.445313 L 377.191406 269.558594 L 378.550781 268.652344 L 379.898438 267.726563 L 381.234375 266.777344 L 382.550781 265.804688 L 383.851563 264.816406 L 385.140625 263.804688 L 386.410156 262.773438 L 387.660156 261.71875 L 388.898438 260.648438 L 390.117188 259.558594 L 391.320313 258.449219 L 392.503906 257.316406 L 393.671875 256.171875 L 392.503906 257.316406 L 391.320313 258.449219 L 390.117188 259.558594 L 388.898438 260.648438 L 387.660156 261.71875 L 386.410156 262.773438 L 385.140625 263.804688 L 383.851563 264.816406 L 382.550781 265.804688 L 381.234375 266.777344 L 379.898438 267.726563 L 378.550781 268.652344 L 377.191406 269.558594 L 375.8125 270.445313 L 374.421875 271.304688 L 373.019531 272.148438 L 371.601563 272.964844 L 370.171875 273.761719 L 368.730469 274.535156 L 367.277344 275.28125 L 365.808594 276.007813 L 364.332031 276.714844 L 362.84375 277.394531 L 361.34375 278.046875 L 359.835938 278.679688 L 358.316406 279.289063 L 356.789063 279.871094 L 355.25 280.433594 L 353.703125 280.96875 L 352.148438 281.476563 L 350.585938 281.964844 L 349.019531 282.425781 L 347.441406 282.859375 L 345.855469 283.273438 L 344.265625 283.65625 L 342.671875 284.019531 L 341.070313 284.351563 L 339.460938 284.664063 L 337.851563 284.945313 L 336.234375 285.207031 L 334.617188 285.4375 L 332.992188 285.644531 L 331.367188 285.828125 L 329.738281 285.984375 L 328.105469 286.113281 L 326.472656 286.214844 L 324.839844 286.292969 L 323.203125 286.347656 L 321.566406 286.371094 L 319.933594 286.371094 L 318.296875 286.347656 L 316.660156 286.292969 L 315.027344 286.214844 L 313.394531 286.113281 L 311.761719 285.984375 L 310.132813 285.828125 L 308.507813 285.644531 L 306.882813 285.4375 L 305.265625 285.207031 L 303.648438 284.945313 L 302.039063 284.664063 L 300.429688 284.351563 L 298.828125 284.019531 L 297.234375 283.65625 L 295.644531 283.273438 L 294.058594 282.859375 L 292.480469 282.425781 L 290.914063 281.964844 L 289.351563 281.476563 L 287.796875 280.96875 L 286.25 280.433594 L 284.710938 279.871094 L 283.183594 279.289063 L 281.664063 278.679688 L 280.15625 278.046875 L 278.65625 277.394531 L 277.167969 276.714844 L 275.691406 276.007813 L 274.222656 275.28125 L 272.769531 274.535156 L 271.328125 273.761719 L 269.898438 272.964844 L 268.480469 272.148438 L 267.078125 271.304688 L 265.6875 270.445313 L 264.308594 269.558594 L 262.949219 268.652344 L 261.601563 267.726563 L 260.265625 266.777344 L 258.949219 265.804688 L 257.648438 264.816406 L 256.359375 263.804688 L 255.089844 262.773438 L 253.839844 261.71875 L 252.601563 260.648438 L 251.382813 259.558594 L 250.179688 258.449219 L 248.996094 257.316406 Z M 247.828125 256.171875 "/>
<path style="fill:none;stroke-width:2.25;stroke-linecap:round;stroke-linejoin:round;stroke:rgb(0%,0%,0%);stroke-opacity:1;stroke-miterlimit:10;" d="M 103.453125 256.171875 L 104.621094 257.316406 L 105.804688 258.449219 L 107.007813 259.558594 L 108.226563 260.648438 L 109.464844 261.71875 L 110.714844 262.773438 L 111.984375 263.804688 L 113.273438 264.816406 L 114.574219 265.804688 L 115.890625 266.777344 L 117.226563 267.726563 L 118.574219 268.652344 L 119.933594 269.558594 L 121.3125 270.445313 L 122.703125 271.304688 L 124.105469 272.148438 L 125.523438 272.964844 L 126.953125 273.761719 L 128.394531 274.535156 L 129.847656 275.28125 L 131.316406 276.007813 L 132.792969 276.714844 L 134.28125 277.394531 L 135.78125 278.046875 L 137.289063 278.679688 L 138.808594 279.289063 L 140.335938 279.871094 L 141.875 280.433594 L 143.421875 280.96875 L 144.976563 281.476563 L 146.539063 281.964844 L 148.105469 282.425781 L 149.683594 282.859375 L 151.269531 283.273438 L 152.859375 283.65625 L 154.453125 284.019531 L 156.054688 284.351563 L 157.664063 284.664063 L 159.273438 284.945313 L 160.890625 285.207031 L 162.507813 285.4375 L 164.132813 285.644531 L 165.757813 285.828125 L 167.386719 285.984375 L 169.019531 286.113281 L 170.652344 286.214844 L 172.285156 286.292969 L 173.921875 286.347656 L 175.558594 286.371094 L 177.191406 286.371094 L 178.828125 286.347656 L 180.464844 286.292969 L 182.097656 286.214844 L 183.730469 286.113281 L 185.363281 285.984375 L 186.992188 285.828125 L 188.617188 285.644531 L 190.242188 285.4375 L 191.859375 285.207031 L 193.476563 284.945313 L 195.085938 284.664063 L 196.695313 284.351563 L 198.296875 284.019531 L 199.890625 283.65625 L 201.480469 283.273438 L 203.066406 282.859375 L 204.644531 282.425781 L 206.210938 281.964844 L 207.773438 281.476563 L 209.328125 280.96875 L 210.875 280.433594 L 212.414063 279.871094 L 213.941406 279.289063 L 215.460938 278.679688 L 216.96875 278.046875 L 218.46875 277.394531 L 219.957031 276.714844 L 221.433594 276.007813 L 222.902344 275.28125 L 224.355469 274.535156 L 225.796875 273.761719 L 227.226563 272.964844 L 228.644531 272.148438 L 230.046875 271.304688 L 231.4375 270.445313 L 232.816406 269.558594 L 234.175781 268.652344 L 235.523438 267.726563 L 236.859375 266.777344 L 238.175781 265.804688 L 239.476563 264.816406 L 240.765625 263.804688 L 242.035156 262.773438 L 243.285156 261.71875 L 244.523438 260.648438 L 245.742188 259.558594 L 246.945313 258.449219 L 248.128906 257.316406 L 249.296875 256.171875 L 248.128906 257.316406 L 246.945313 258.449219 L 245.742188 259.558594 L 244.523438 260.648438 L 243.285156 261.71875 L 242.035156 262.773438 L 240.765625 263.804688 L 239.476563 264.816406 L 238.175781 265.804688 L 236.859375 266.777344 L 235.523438 267.726563 L 234.175781 268.652344 L 232.816406 269.558594 L 231.4375 270.445313 L 230.046875 271.304688 L 228.644531 272.148438 L 227.226563 272.964844 L 225.796875 273.761719 L 224.355469 274.535156 L 222.902344 275.28125 L 221.433594 276.007813 L 219.957031 276.714844 L 218.46875 277.394531 L 216.96875 278.046875 L 215.460938 278.679688 L 213.941406 279.289063 L 212.414063 279.871094 L 210.875 280.433594 L 209.328125 280.96875 L 207.773438 281.476563 L 206.210938 281.964844 L 204.644531 282.425781 L 203.066406 282.859375 L 201.480469 283.273438 L 199.890625 283.65625 L 198.296875 284.019531 L 196.695313 284.351563 L 195.085938 284.664063 L 193.476563 284.945313 L 191.859375 285.207031 L 190.242188 285.4375 L 188.617188 285.644531 L 186.992188 285.828125 L 185.363281 285.984375 L 183.730469 286.113281 L 182.097656 286.214844 L 180.464844 286.292969 L 178.828125 286.347656 L 177.191406 286.371094 L 175.558594 286.371094 L 173.921875 286.347656 L 172.285156 286.292969 L 170.652344 286.214844 L 169.019531 286.113281 L 167.386719 285.984375 L 165.757813 285.828125 L 164.132813 285.644531 L 162.507813 285.4375 L 160.890625 285.207031 L 159.273438 284.945313 L 157.664063 284.664063 L 156.054688 284.351563 L 154.453125 284.019531 L 152.859375 283.65625 L 151.269531 283.273438 L 149.683594 282.859375 L 148.105469 282.425781 L 146.539063 281.964844 L 144.976563 281.476563 L 143.421875 280.96875 L 141.875 280.433594 L 140.335938 279.871094 L 138.808594 279.289063 L 137.289063 278.679688 L 135.78125 278.046875 L 134.28125 277.394531 L 132.792969 276.714844 L 131.316406 276.007813 L 129.847656 275.28125 L 128.394531 274.535156 L 126.953125 273.761719 L 125.523438 272.964844 L 124.105469 272.148438 L 122.703125 271.304688 L 121.3125 270.445313 L 119.933594 269.558594 L 118.574219 268.652344 L 117.226563 267.726563 L 115.890625 266.777344 L 114.574219 265.804688 L 113.273438 264.816406 L 111.984375 263.804688 L 110.714844 262.773438 L 109.464844 261.71875 L 108.226563 260.648438 L 107.007813 259.558594 L 105.804688 258.449219 L 104.621094 257.316406 Z M 103.453125 256.171875 "/>
<path style="fill:none;stroke-width:2.25;stroke-linecap:round;stroke-linejoin:round;stroke:rgb(0%,0%,0%);stroke-opacity:1;stroke-miterlimit:10;" d="M 395.046875 254.703125 L 393.878906 253.558594 L 392.695313 252.425781 L 391.492188 251.316406 L 390.273438 250.226563 L 389.035156 249.15625 L 387.785156 248.101563 L 386.515625 247.070313 L 385.226563 246.058594 L 383.925781 245.070313 L 382.609375 244.097656 L 381.273438 243.148438 L 379.925781 242.222656 L 378.566406 241.316406 L 377.1875 240.429688 L 375.796875 239.570313 L 374.394531 238.726563 L 372.976563 237.910156 L 371.546875 237.113281 L 370.105469 236.339844 L 368.652344 235.59375 L 367.183594 234.867188 L 365.707031 234.160156 L 364.21875 233.480469 L 362.71875 232.828125 L 361.210938 232.195313 L 359.691406 231.585938 L 358.164063 231.003906 L 356.625 230.441406 L 355.078125 229.90625 L 353.523438 229.398438 L 351.960938 228.910156 L 350.394531 228.449219 L 348.816406 228.015625 L 347.230469 227.601563 L 345.640625 227.21875 L 344.046875 226.855469 L 342.445313 226.523438 L 340.835938 226.210938 L 339.226563 225.929688 L 337.609375 225.667969 L 335.992188 225.4375 L 334.367188 225.230469 L 332.742188 225.046875 L 331.113281 224.890625 L 329.480469 224.761719 L 327.847656 224.660156 L 326.214844 224.582031 L 324.578125 224.527344 L 322.941406 224.503906 L 321.308594 224.503906 L 319.671875 224.527344 L 318.035156 224.582031 L 316.402344 224.660156 L 314.769531 224.761719 L 313.136719 224.890625 L 311.507813 225.046875 L 309.882813 225.230469 L 308.257813 225.4375 L 306.640625 225.667969 L 305.023438 225.929688 L 303.414063 226.210938 L 301.804688 226.523438 L 300.203125 226.855469 L 298.609375 227.21875 L 297.019531 227.601563 L 295.433594 228.015625 L 293.855469 228.449219 L 292.289063 228.910156 L 290.726563 229.398438 L 289.171875 229.90625 L 287.625 230.441406 L 286.085938 231.003906 L 284.558594 231.585938 L 283.039063 232.195313 L 281.53125 232.828125 L 280.03125 233.480469 L 278.542969 234.160156 L 277.066406 234.867188 L 275.597656 235.59375 L 274.144531 236.339844 L 272.703125 237.113281 L 271.273438 237.910156 L 269.855469 238.726563 L 268.453125 239.570313 L 267.0625 240.429688 L 265.683594 241.316406 L 264.324219 242.222656 L 262.976563 243.148438 L 261.640625 244.097656 L 260.324219 245.070313 L 259.023438 246.058594 L 257.734375 247.070313 L 256.464844 248.101563 L 255.214844 249.15625 L 253.976563 250.226563 L 252.757813 251.316406 L 251.554688 252.425781 L 250.371094 253.558594 L 249.203125 254.703125 L 250.371094 253.558594 L 251.554688 252.425781 L 252.757813 251.316406 L 253.976563 250.226563 L 255.214844 249.15625 L 256.464844 248.101563 L 257.734375 247.070313 L 259.023438 246.058594 L 260.324219 245.070313 L 261.640625 244.097656 L 262.976563 243.148438 L 264.324219 242.222656 L 265.683594 241.316406 L 267.0625 240.429688 L 268.453125 239.570313 L 269.855469 238.726563 L 271.273438 237.910156 L 272.703125 237.113281 L 274.144531 236.339844 L 275.597656 235.59375 L 277.066406 234.867188 L 278.542969 234.160156 L 280.03125 233.480469 L 281.53125 232.828125 L 283.039063 232.195313 L 284.558594 231.585938 L 286.085938 231.003906 L 287.625 230.441406 L 289.171875 229.90625 L 290.726563 229.398438 L 292.289063 228.910156 L 293.855469 228.449219 L 295.433594 228.015625 L 297.019531 227.601563 L 298.609375 227.21875 L 300.203125 226.855469 L 301.804688 226.523438 L 303.414063 226.210938 L 305.023438 225.929688 L 306.640625 225.667969 L 308.257813 225.4375 L 309.882813 225.230469 L 311.507813 225.046875 L 313.136719 224.890625 L 314.769531 224.761719 L 316.402344 224.660156 L 318.035156 224.582031 L 319.671875 224.527344 L 321.308594 224.503906 L 322.941406 224.503906 L 324.578125 224.527344 L 326.214844 224.582031 L 327.847656 224.660156 L 329.480469 224.761719 L 331.113281 224.890625 L 332.742188 225.046875 L 334.367188 225.230469 L 335.992188 225.4375 L 337.609375 225.667969 L 339.226563 225.929688 L 340.835938 226.210938 L 342.445313 226.523438 L 344.046875 226.855469 L 345.640625 227.21875 L 347.230469 227.601563 L 348.816406 228.015625 L 350.394531 228.449219 L 351.960938 228.910156 L 353.523438 229.398438 L 355.078125 229.90625 L 356.625 230.441406 L 358.164063 231.003906 L 359.691406 231.585938 L 361.210938 232.195313 L 362.71875 232.828125 L 364.21875 233.480469 L 365.707031 234.160156 L 367.183594 234.867188 L 368.652344 235.59375 L 370.105469 236.339844 L 371.546875 237.113281 L 372.976563 237.910156 L 374.394531 238.726563 L 375.796875 239.570313 L 377.1875 240.429688 L 378.566406 241.316406 L 379.925781 242.222656 L 381.273438 243.148438 L 382.609375 244.097656 L 383.925781 245.070313 L 385.226563 246.058594 L 386.515625 247.070313 L 387.785156 248.101563 L 389.035156 249.15625 L 390.273438 250.226563 L 391.492188 251.316406 L 392.695313 252.425781 L 393.878906 253.558594 Z M 395.046875 254.703125 "/>
<path style="fill:none;stroke-width:2.25;stroke-linecap:round;stroke-linejoin:round;stroke:rgb(0%,0%,0%);stroke-opacity:1;stroke-miterlimit:10;" d="M 148.875 355.125 L 355.125 148.875 Z M 148.875 355.125 "/>
</g>
</svg>
