<?xml version="1.0" encoding="UTF-8"?>
<svg xmlns="http://www.w3.org/2000/svg" xmlns:xlink="http://www.w3.org/1999/xlink" width="504pt" height="504pt" viewBox="0 0 504 504" version="1.1">
<g id="surface2401">
<rect x="0" y="0" width="504" height="504" style="fill:rgb(100%,100%,100%);fill-opacity:1;stroke:none;"/>
<path style="fill-rule:nonzero;fill:rgb(0%,0%,0%);fill-opacity:1;stroke-width:2.25;stroke-linecap:round;stroke-linejoin:round;stroke:rgb(0%,0%,0%);stroke-opacity:1;stroke-miterlimit:10;" d="M 252 106.160156 L 247.371094 106.234375 L 242.75 106.453125 L 238.136719 106.820313 L 233.539063 107.332031 L 228.957031 107.992188 L 224.398438 108.792969 L 219.871094 109.742188 L 215.371094 110.832031 L 210.910156 112.066406 L 206.492188 113.441406 L 202.121094 114.953125 L 197.796875 116.605469 L 193.527344 118.394531 L 189.320313 120.316406 L 185.171875 122.371094 L 181.09375 124.558594 L 177.085938 126.871094 L 173.152344 129.3125 L 169.300781 131.875 L 165.53125 134.558594 L 161.847656 137.363281 L 158.253906 140.28125 L 154.757813 143.308594 L 151.359375 146.449219 L 148.058594 149.695313 L 144.867188 153.046875 L 141.78125 156.496094 L 138.804688 160.039063 L 135.945313 163.675781 L 133.203125 167.402344 L 130.578125 171.214844 L 128.074219 175.109375 L 125.699219 179.078125 L 123.449219 183.125 L 121.328125 187.238281 L 119.339844 191.414063 L 117.484375 195.65625 L 115.761719 199.953125 L 114.179688 204.300781 L 112.734375 208.695313 L 111.433594 213.136719 L 110.269531 217.617188 L 109.25 222.128906 L 108.375 226.675781 L 107.644531 231.246094 L 107.058594 235.835938 L 106.617188 240.441406 L 106.324219 245.0625 L 106.175781 249.6875 L 106.175781 254.3125 L 106.324219 258.9375 L 106.617188 263.558594 L 107.058594 268.164063 L 107.644531 272.753906 L 108.375 277.324219 L 109.25 281.871094 L 110.269531 286.382813 L 111.433594 290.863281 L 112.734375 295.304688 L 114.179688 299.699219 L 115.761719 304.046875 L 117.484375 308.34375 L 119.339844 312.585938 L 121.328125 316.761719 L 123.449219 320.875 L 125.699219 324.921875 L 128.074219 328.890625 L 130.578125 332.785156 L 133.203125 336.597656 L 135.945313 340.324219 L 138.804688 343.960938 L 141.78125 347.503906 L 144.867188 350.953125 L 148.058594 354.304688 L 151.359375 357.550781 L 154.757813 360.691406 L 158.253906 363.71875 L 161.847656 366.636719 L 165.53125 369.441406 L 169.300781 372.125 L 173.152344 374.6875 L 177.085938 377.128906 L 181.09375 379.441406 L 185.171875 381.628906 L 189.320313 383.683594 L 193.527344 385.605469 L 197.796875 387.394531 L 202.121094 389.046875 L 206.492188 390.558594 L 210.910156 391.933594 L 215.371094 393.167969 L 219.871094 394.257813 L 224.398438 395.207031 L 228.957031 396.007813 L 233.539063 396.667969 L 238.136719 397.179688 L 242.75 397.546875 L 247.371094 397.765625 L 252 397.839844 Z M 252 106.160156 "/>
<path style="fill-rule:nonzero;fill:rgb(0%,0%,0%);fill-opacity:1;stroke-width:2.25;stroke-linecap:round;stroke-linejoin:round;stroke:rgb(0%,0%,0%);stroke-opacity:1;stroke-miterlimit:10;" d="M 252 106.160156 L 247.371094 106.234375 L 242.75 106.453125 L 238.136719 106.820313 L 233.539063 107.332031 L 228.957031 107.992188 L 224.398438 108.792969 L 219.871094 109.742188 L 215.371094 110.832031 L 210.910156 112.066406 L 206.492188 113.441406 L 202.121094 114.953125 L 197.796875 116.605469 L 193.527344 118.394531 L 189.320313 120.316406 L 185.171875 122.371094 L 181.09375 124.558594 L 177.085938 126.871094 L 173.152344 129.3125 L 169.300781 131.875 L 165.53125 134.558594 L 161.847656 137.363281 L 158.253906 140.28125 L 154.757813 143.308594 L 151.359375 146.449219 L 148.058594 149.695313 L 144.867188 153.046875 L 141.78125 156.496094 L 138.804688 160.039063 L 135.945313 163.675781 L 133.203125 167.402344 L 130.578125 171.214844 L 128.074219 175.109375 L 125.699219 179.078125 L 123.449219 183.125 L 121.328125 187.238281 L 119.339844 191.414063 L 117.484375 195.65625 L 115.761719 199.953125 L 114.179688 204.300781 L 112.734375 208.695313 L 111.433594 213.136719 L 110.269531 217.617188 L 109.25 222.128906 L 108.375 226.675781 L 107.644531 231.246094 L 107.058594 235.835938 L 106.617188 240.441406 L 106.324219 245.0625 L 106.175781 249.6875 L 106.175781 254.3125 L 106.324219 258.9375 L 106.617188 263.558594 L 107.058594 268.164063 L 107.644531 272.753906 L 108.375 277.324219 L 109.25 281.871094 L 110.269531 286.382813 L 111.433594 290.863281 L 112.734375 295.304688 L 114.179688 299.699219 L 115.761719 304.046875 L 117.484375 308.34375 L 119.339844 312.585938 L 121.328125 316.761719 L 123.449219 320.875 L 125.699219 324.921875 L 128.074219 328.890625 L 130.578125 332.785156 L 133.203125 336.597656 L 135.945313 340.324219 L 138.804688 343.960938 L 141.78125 347.503906 L 144.867188 350.953125 L 148.058594 354.304688 L 151.359375 357.550781 L 154.757813 360.691406 L 158.253906 363.71875 L 161.847656 366.636719 L 165.53125 369.441406 L 169.300781 372.125 L 173.152344 374.6875 L 177.085938 377.128906 L 181.09375 379.441406 L 185.171875 381.628906 L 189.320313 383.683594 L 193.527344 385.605469 L 197.796875 387.394531 L 202.121094 389.046875 L 206.492188 390.558594 L 210.910156 391.933594 L 215.371094 393.167969 L 219.871094 394.257813 L 224.398438 395.207031 L 228.957031 396.007813 L 233.539063 396.667969 L 238.136719 397.179688 L 242.75 397.546875 L 247.371094 397.765625 L 252 397.839844 Z M 252 106.160156 "/>
<path style="fill-rule:nonzero;fill:rgb(0%,0%,0%);fill-opacity:1;stroke-width:2.25;stroke-linecap:round;stroke-linejoin:round;stroke:rgb(0%,0%,0%);stroke-opacity:1;stroke-miterlimit:10;" d="M 252 106.160156 L 247.371094 106.234375 L 242.75 106.453125 L 238.136719 106.820313 L 233.539063 107.332031 L 228.957031 107.992188 L 224.398438 108.792969 L 219.871094 109.742188 L 215.371094 110.832031 L 210.910156 112.066406 L 206.492188 113.441406 L 202.121094 114.953125 L 197.796875 116.605469 L 193.527344 118.394531 L 189.320313 120.316406 L 185.171875 122.371094 L 181.09375 124.558594 L 177.085938 126.871094 L 173.152344 129.3125 L 169.300781 131.875 L 165.53125 134.558594 L 161.847656 137.363281 L 158.253906 140.28125 L 154.757813 143.308594 L 151.359375 146.449219 L 148.058594 149.695313 L 144.867188 153.046875 L 141.78125 156.496094 L 138.804688 160.039063 L 135.945313 163.675781 L 133.203125 167.402344 L 130.578125 171.214844 L 128.074219 175.109375 L 125.699219 179.078125 L 123.449219 183.125 L 121.328125 187.238281 L 119.339844 191.414063 L 117.484375 195.65625 L 115.761719 199.953125 L 114.179688 204.300781 L 112.734375 208.695313 L 111.433594 213.136719 L 110.269531 217.617188 L 109.25 222.128906 L 108.375 226.675781 L 107.644531 231.246094 L 107.058594 235.835938 L 106.617188 240.441406 L 106.324219 245.0625 L 106.175781 249.6875 L 106.175781 254.3125 L 106.324219 258.9375 L 106.617188 263.558594 L 107.058594 268.164063 L 107.644531 272.753906 L 108.375 277.324219 L 109.25 281.871094 L 110.269531 286.382813 L 111.433594 290.863281 L 112.734375 295.304688 L 114.179688 299.699219 L 115.761719 304.046875 L 117.484375 308.34375 L 119.339844 312.585938 L 121.328125 316.761719 L 123.449219 320.875 L 125.699219 324.921875 L 128.074219 328.890625 L 130.578125 332.785156 L 133.203125 336.597656 L 135.945313 340.324219 L 138.804688 343.960938 L 141.78125 347.503906 L 144.867188 350.953125 L 148.058594 354.304688 L 151.359375 357.550781 L 154.757813 360.691406 L 158.253906 363.71875 L 161.847656 366.636719 L 165.53125 369.441406 L 169.300781 372.125 L 173.152344 374.6875 L 177.085938 377.128906 L 181.09375 379.441406 L 185.171875 381.628906 L 189.320313 383.683594 L 193.527344 385.605469 L 197.796875 387.394531 L 202.121094 389.046875 L 206.492188 390.558594 L 210.910156 391.933594 L 215.371094 393.167969 L 219.871094 394.257813 L 224.398438 395.207031 L 228.957031 396.007813 L 233.539063 396.667969 L 238.136719 397.179688 L 242.75 397.546875 L 247.371094 397.765625 L 252 397.839844 Z M 252 106.160156 "/>
<path style="fill:none;stroke-width:2.25;stroke-linecap:round;stroke-linejoin:round;stroke:rgb(0%,0%,0%);stroke-opacity:1;stroke-miterlimit:10;" d="M 458.25 252 L 355.125 73.382813 L 148.875 73.382813 L 45.75 252 L 148.875 430.617188 L 355.125 430.617188 Z M 458.25 252 "/>
</g>
</svg>
