<?xml version="1.0" encoding="UTF-8"?>
<svg xmlns="http://www.w3.org/2000/svg" xmlns:xlink="http://www.w3.org/1999/xlink" width="504pt" height="504pt" viewBox="0 0 504 504" version="1.1">
<g id="surface2296">
<rect x="0" y="0" width="504" height="504" style="fill:rgb(100%,100%,100%);fill-opacity:1;stroke:none;"/>
<path style="fill-rule:nonzero;fill:rgb(74.509804%,74.509804%,74.509804%);fill-opacity:1;stroke-width:2.25;stroke-linecap:round;stroke-linejoin:round;stroke:rgb(0%,0%,0%);stroke-opacity:1;stroke-miterlimit:10;" d="M 446.453125 57.546875 L 57.546875 57.546875 L 57.546875 446.453125 L 446.453125 446.453125 Z M 446.453125 57.546875 "/>
<path style="fill-rule:nonzero;fill:rgb(100%,100%,100%);fill-opacity:1;stroke-width:2.25;stroke-linecap:round;stroke-linejoin:round;stroke:rgb(0%,0%,0%);stroke-opacity:1;stroke-miterlimit:10;" d="M 252 226.535156 L 249.867188 226.585938 L 247.746094 226.738281 L 245.636719 226.988281 L 243.558594 227.335938 L 241.507813 227.785156 L 239.5 228.324219 L 237.542969 228.960938 L 235.644531 229.6875 L 233.808594 230.5 L 232.042969 231.398438 L 230.359375 232.378906 L 228.757813 233.4375 L 227.25 234.570313 L 225.839844 235.769531 L 224.535156 237.035156 L 223.335938 238.355469 L 222.25 239.734375 L 221.28125 241.160156 L 220.433594 242.625 L 219.710938 244.132813 L 219.117188 245.667969 L 218.652344 247.230469 L 218.316406 248.808594 L 218.117188 250.402344 L 218.050781 252 L 218.117188 253.597656 L 218.316406 255.191406 L 218.652344 256.769531 L 219.117188 258.332031 L 219.710938 259.867188 L 220.433594 261.375 L 221.28125 262.839844 L 222.25 264.265625 L 223.335938 265.644531 L 224.535156 266.964844 L 225.839844 268.230469 L 227.25 269.429688 L 228.757813 270.5625 L 230.359375 271.621094 L 232.042969 272.601563 L 233.808594 273.5 L 235.644531 274.3125 L 237.542969 275.039063 L 239.5 275.675781 L 241.507813 276.214844 L 243.558594 276.664063 L 245.636719 277.011719 L 247.746094 277.261719 L 249.867188 277.414063 L 252 277.464844 L 254.132813 277.414063 L 256.253906 277.261719 L 258.363281 277.011719 L 260.441406 276.664063 L 262.492188 276.214844 L 264.5 275.675781 L 266.457031 275.039063 L 268.355469 274.3125 L 270.191406 273.5 L 271.957031 272.601563 L 273.640625 271.621094 L 275.242188 270.5625 L 276.75 269.429688 L 278.160156 268.230469 L 279.464844 266.964844 L 280.664063 265.644531 L 281.75 264.265625 L 282.71875 262.839844 L 283.566406 261.375 L 284.289063 259.867188 L 284.882813 258.332031 L 285.347656 256.769531 L 285.683594 255.191406 L 285.882813 253.597656 L 285.949219 252 L 285.882813 250.402344 L 285.683594 248.808594 L 285.347656 247.230469 L 284.882813 245.667969 L 284.289063 244.132813 L 283.566406 242.625 L 282.71875 241.160156 L 281.75 239.734375 L 280.664063 238.355469 L 279.464844 237.035156 L 278.160156 235.769531 L 276.75 234.570313 L 275.242188 233.4375 L 273.640625 232.378906 L 271.957031 231.398438 L 270.191406 230.5 L 268.355469 229.6875 L 266.457031 228.960938 L 264.5 228.324219 L 262.492188 227.785156 L 260.441406 227.335938 L 258.363281 226.988281 L 256.253906 226.738281 L 254.132813 226.585938 Z M 252 226.535156 "/>
</g>
</svg>
