<?xml version="1.0" encoding="UTF-8"?>
<svg xmlns="http://www.w3.org/2000/svg" xmlns:xlink="http://www.w3.org/1999/xlink" width="504pt" height="504pt" viewBox="0 0 504 504" version="1.1">
<g id="surface2266">
<rect x="0" y="0" width="504" height="504" style="fill:rgb(100%,100%,100%);fill-opacity:1;stroke:none;"/>
<path style="fill-rule:nonzero;fill:rgb(74.509804%,74.509804%,74.509804%);fill-opacity:1;stroke-width:2.25;stroke-linecap:round;stroke-linejoin:round;stroke:rgb(0%,0%,0%);stroke-opacity:1;stroke-miterlimit:10;" d="M 446.453125 57.546875 L 57.546875 57.546875 L 57.546875 446.453125 L 446.453125 446.453125 Z M 446.453125 57.546875 "/>
<path style="fill-rule:nonzero;fill:rgb(100%,100%,100%);fill-opacity:1;stroke-width:2.25;stroke-linecap:round;stroke-linejoin:round;stroke:rgb(0%,0%,0%);stroke-opacity:1;stroke-miterlimit:10;" d="M 252 206.167969 L 248.164063 206.257813 L 244.339844 206.527344 L 240.550781 206.976563 L 236.800781 207.605469 L 233.117188 208.410156 L 229.503906 209.386719 L 225.980469 210.527344 L 222.558594 211.835938 L 219.253906 213.300781 L 216.078125 214.921875 L 213.046875 216.683594 L 210.167969 218.589844 L 207.453125 220.625 L 204.914063 222.785156 L 202.558594 225.058594 L 200.402344 227.441406 L 198.449219 229.917969 L 196.703125 232.484375 L 195.179688 235.128906 L 193.878906 237.835938 L 192.808594 240.601563 L 191.972656 243.410156 L 191.371094 246.253906 L 191.007813 249.121094 L 190.890625 252 L 191.007813 254.878906 L 191.371094 257.746094 L 191.972656 260.589844 L 192.808594 263.398438 L 193.878906 266.164063 L 195.179688 268.871094 L 196.703125 271.515625 L 198.449219 274.082031 L 200.402344 276.558594 L 202.558594 278.941406 L 204.914063 281.214844 L 207.453125 283.375 L 210.167969 285.410156 L 213.046875 287.316406 L 216.078125 289.078125 L 219.253906 290.699219 L 222.558594 292.164063 L 225.980469 293.472656 L 229.503906 294.613281 L 233.117188 295.589844 L 236.800781 296.394531 L 240.550781 297.023438 L 244.339844 297.472656 L 248.164063 297.742188 L 252 297.832031 L 255.835938 297.742188 L 259.660156 297.472656 L 263.449219 297.023438 L 267.199219 296.394531 L 270.882813 295.589844 L 274.496094 294.613281 L 278.019531 293.472656 L 281.441406 292.164063 L 284.746094 290.699219 L 287.921875 289.078125 L 290.953125 287.316406 L 293.832031 285.410156 L 296.546875 283.375 L 299.085938 281.214844 L 301.441406 278.941406 L 303.597656 276.558594 L 305.550781 274.082031 L 307.296875 271.515625 L 308.820313 268.871094 L 310.121094 266.164063 L 311.191406 263.398438 L 312.027344 260.589844 L 312.628906 257.746094 L 312.992188 254.878906 L 313.109375 252 L 312.992188 249.121094 L 312.628906 246.253906 L 312.027344 243.410156 L 311.191406 240.601563 L 310.121094 237.835938 L 308.820313 235.128906 L 307.296875 232.484375 L 305.550781 229.917969 L 303.597656 227.441406 L 301.441406 225.058594 L 299.085938 222.785156 L 296.546875 220.625 L 293.832031 218.589844 L 290.953125 216.683594 L 287.921875 214.921875 L 284.746094 213.300781 L 281.441406 211.835938 L 278.019531 210.527344 L 274.496094 209.386719 L 270.882813 208.410156 L 267.199219 207.605469 L 263.449219 206.976563 L 259.660156 206.527344 L 255.835938 206.257813 Z M 252 206.167969 "/>
</g>
</svg>
