<?xml version="1.0" encoding="UTF-8"?>
<svg xmlns="http://www.w3.org/2000/svg" xmlns:xlink="http://www.w3.org/1999/xlink" width="504pt" height="504pt" viewBox="0 0 504 504" version="1.1">
<g id="surface2556">
<rect x="0" y="0" width="504" height="504" style="fill:rgb(100%,100%,100%);fill-opacity:1;stroke:none;"/>
<path style="fill:none;stroke-width:0.75;stroke-linecap:round;stroke-linejoin:round;stroke:rgb(0%,0%,0%);stroke-opacity:1;stroke-miterlimit:10;" d="M 252 279.5 L 263.960938 291.460938 Z M 252 279.5 "/>
<path style="fill:none;stroke-width:0.75;stroke-linecap:round;stroke-linejoin:round;stroke:rgb(0%,0%,0%);stroke-opacity:1;stroke-miterlimit:10;" d="M 252 265.75 L 273.460938 287.210938 Z M 252 265.75 "/>
<path style="fill:none;stroke-width:0.75;stroke-linecap:round;stroke-linejoin:round;stroke:rgb(0%,0%,0%);stroke-opacity:1;stroke-miterlimit:10;" d="M 252 252 L 281.152344 281.152344 Z M 252 252 "/>
<path style="fill:none;stroke-width:0.75;stroke-linecap:round;stroke-linejoin:round;stroke:rgb(0%,0%,0%);stroke-opacity:1;stroke-miterlimit:10;" d="M 252 238.25 L 287.210938 273.460938 Z M 252 238.25 "/>
<path style="fill:none;stroke-width:0.75;stroke-linecap:round;stroke-linejoin:round;stroke:rgb(0%,0%,0%);stroke-opacity:1;stroke-miterlimit:10;" d="M 252 224.5 L 291.460938 263.960938 Z M 252 224.5 "/>
<path style="fill:none;stroke-width:0.75;stroke-linecap:round;stroke-linejoin:round;stroke:rgb(0%,0%,0%);stroke-opacity:1;stroke-miterlimit:10;" d="M 293.25 252 L 252 210.75 Z M 293.25 252 "/>
<path style="fill:none;stroke-width:0.75;stroke-linecap:round;stroke-linejoin:round;stroke:rgb(0%,0%,0%);stroke-opacity:1;stroke-miterlimit:10;" d="M 289.207031 234.207031 L 269.792969 214.792969 Z M 289.207031 234.207031 "/>
<path style="fill:none;stroke-width:0.75;stroke-linecap:round;stroke-linejoin:round;stroke:rgb(0%,0%,0%);stroke-opacity:1;stroke-miterlimit:10;" d="M 214.792969 269.792969 L 234.207031 289.207031 Z M 214.792969 269.792969 "/>
<path style="fill:none;stroke-width:0.75;stroke-linecap:round;stroke-linejoin:round;stroke:rgb(0%,0%,0%);stroke-opacity:1;stroke-miterlimit:10;" d="M 212.539063 240.039063 L 252 279.5 Z M 212.539063 240.039063 "/>
<path style="fill:none;stroke-width:0.75;stroke-linecap:round;stroke-linejoin:round;stroke:rgb(0%,0%,0%);stroke-opacity:1;stroke-miterlimit:10;" d="M 216.789063 230.539063 L 252 265.75 Z M 216.789063 230.539063 "/>
<path style="fill:none;stroke-width:0.75;stroke-linecap:round;stroke-linejoin:round;stroke:rgb(0%,0%,0%);stroke-opacity:1;stroke-miterlimit:10;" d="M 252 252 L 222.847656 222.847656 Z M 252 252 "/>
<path style="fill:none;stroke-width:0.75;stroke-linecap:round;stroke-linejoin:round;stroke:rgb(0%,0%,0%);stroke-opacity:1;stroke-miterlimit:10;" d="M 252 238.25 L 230.539063 216.789063 Z M 252 238.25 "/>
<path style="fill:none;stroke-width:0.75;stroke-linecap:round;stroke-linejoin:round;stroke:rgb(0%,0%,0%);stroke-opacity:1;stroke-miterlimit:10;" d="M 252 224.5 L 240.039063 212.539063 Z M 252 224.5 "/>
<path style="fill:none;stroke-width:0.75;stroke-linecap:round;stroke-linejoin:round;stroke:rgb(0%,0%,0%);stroke-opacity:1;stroke-miterlimit:10;" d="M 269.792969 289.207031 L 289.207031 269.792969 Z M 269.792969 289.207031 "/>
<path style="fill:none;stroke-width:0.75;stroke-linecap:round;stroke-linejoin:round;stroke:rgb(0%,0%,0%);stroke-opacity:1;stroke-miterlimit:10;" d="M 291.460938 240.039063 L 252 279.5 Z M 291.460938 240.039063 "/>
<path style="fill:none;stroke-width:0.75;stroke-linecap:round;stroke-linejoin:round;stroke:rgb(0%,0%,0%);stroke-opacity:1;stroke-miterlimit:10;" d="M 287.210938 230.539063 L 252 265.75 Z M 287.210938 230.539063 "/>
<path style="fill:none;stroke-width:0.75;stroke-linecap:round;stroke-linejoin:round;stroke:rgb(0%,0%,0%);stroke-opacity:1;stroke-miterlimit:10;" d="M 281.152344 222.847656 L 252 252 Z M 281.152344 222.847656 "/>
<path style="fill:none;stroke-width:0.75;stroke-linecap:round;stroke-linejoin:round;stroke:rgb(0%,0%,0%);stroke-opacity:1;stroke-miterlimit:10;" d="M 273.460938 216.789063 L 252 238.25 Z M 273.460938 216.789063 "/>
<path style="fill:none;stroke-width:0.75;stroke-linecap:round;stroke-linejoin:round;stroke:rgb(0%,0%,0%);stroke-opacity:1;stroke-miterlimit:10;" d="M 263.960938 212.539063 L 252 224.5 Z M 263.960938 212.539063 "/>
<path style="fill:none;stroke-width:0.75;stroke-linecap:round;stroke-linejoin:round;stroke:rgb(0%,0%,0%);stroke-opacity:1;stroke-miterlimit:10;" d="M 240.039063 291.460938 L 252 279.5 Z M 240.039063 291.460938 "/>
<path style="fill:none;stroke-width:0.75;stroke-linecap:round;stroke-linejoin:round;stroke:rgb(0%,0%,0%);stroke-opacity:1;stroke-miterlimit:10;" d="M 230.539063 287.210938 L 252 265.75 Z M 230.539063 287.210938 "/>
<path style="fill:none;stroke-width:0.75;stroke-linecap:round;stroke-linejoin:round;stroke:rgb(0%,0%,0%);stroke-opacity:1;stroke-miterlimit:10;" d="M 252 252 L 222.847656 281.152344 Z M 252 252 "/>
<path style="fill:none;stroke-width:0.75;stroke-linecap:round;stroke-linejoin:round;stroke:rgb(0%,0%,0%);stroke-opacity:1;stroke-miterlimit:10;" d="M 252 238.25 L 216.789063 273.460938 Z M 252 238.25 "/>
<path style="fill:none;stroke-width:0.75;stroke-linecap:round;stroke-linejoin:round;stroke:rgb(0%,0%,0%);stroke-opacity:1;stroke-miterlimit:10;" d="M 252 224.5 L 212.539063 263.960938 Z M 252 224.5 "/>
<path style="fill:none;stroke-width:0.75;stroke-linecap:round;stroke-linejoin:round;stroke:rgb(0%,0%,0%);stroke-opacity:1;stroke-miterlimit:10;" d="M 252 210.75 L 210.75 252 Z M 252 210.75 "/>
<path style="fill:none;stroke-width:0.75;stroke-linecap:round;stroke-linejoin:round;stroke:rgb(0%,0%,0%);stroke-opacity:1;stroke-miterlimit:10;" d="M 234.207031 214.792969 L 214.792969 234.207031 Z M 234.207031 214.792969 "/>
<path style="fill:none;stroke-width:1.5;stroke-linecap:round;stroke-linejoin:round;stroke:rgb(0%,0%,0%);stroke-opacity:1;stroke-miterlimit:10;" d="M 293.25 252 L 293.167969 249.410156 L 292.925781 246.828125 L 292.519531 244.269531 L 291.953125 241.742188 L 291.230469 239.253906 L 290.351563 236.816406 L 289.324219 234.4375 L 288.148438 232.128906 L 286.828125 229.898438 L 285.371094 227.753906 L 283.785156 225.707031 L 282.070313 223.761719 L 280.238281 221.929688 L 278.292969 220.214844 L 276.246094 218.628906 L 274.101563 217.171875 L 271.871094 215.851563 L 269.5625 214.675781 L 267.183594 213.648438 L 264.746094 212.769531 L 262.257813 212.046875 L 259.730469 211.480469 L 257.171875 211.074219 L 254.589844 210.832031 L 252 210.75 L 249.410156 210.832031 L 246.828125 211.074219 L 244.269531 211.480469 L 241.742188 212.046875 L 239.253906 212.769531 L 236.816406 213.648438 L 234.4375 214.675781 L 232.128906 215.851563 L 229.898438 217.171875 L 227.753906 218.628906 L 225.707031 220.214844 L 223.761719 221.929688 L 221.929688 223.761719 L 220.214844 225.707031 L 218.628906 227.753906 L 217.171875 229.898438 L 215.851563 232.128906 L 214.675781 234.4375 L 213.648438 236.816406 L 212.769531 239.253906 L 212.046875 241.742188 L 211.480469 244.269531 L 211.074219 246.828125 L 210.832031 249.410156 L 210.75 252 L 210.832031 254.589844 L 211.074219 257.171875 L 211.480469 259.730469 L 212.046875 262.257813 L 212.769531 264.746094 L 213.648438 267.183594 L 214.675781 269.5625 L 215.851563 271.871094 L 217.171875 274.101563 L 218.628906 276.246094 L 220.214844 278.292969 L 221.929688 280.238281 L 223.761719 282.070313 L 225.707031 283.785156 L 227.753906 285.371094 L 229.898438 286.828125 L 232.128906 288.148438 L 234.4375 289.324219 L 236.816406 290.351563 L 239.253906 291.230469 L 241.742188 291.953125 L 244.269531 292.519531 L 246.828125 292.925781 L 249.410156 293.167969 L 252 293.25 L 254.589844 293.167969 L 257.171875 292.925781 L 259.730469 292.519531 L 262.257813 291.953125 L 264.746094 291.230469 L 267.183594 290.351563 L 269.5625 289.324219 L 271.871094 288.148438 L 274.101563 286.828125 L 276.246094 285.371094 L 278.292969 283.785156 L 280.238281 282.070313 L 282.070313 280.238281 L 283.785156 278.292969 L 285.371094 276.246094 L 286.828125 274.101563 L 288.148438 271.871094 L 289.324219 269.5625 L 290.351563 267.183594 L 291.230469 264.746094 L 291.953125 262.257813 L 292.519531 259.730469 L 292.925781 257.171875 L 293.167969 254.589844 Z M 293.25 252 "/>
<path style="fill:none;stroke-width:2.25;stroke-linecap:round;stroke-linejoin:round;stroke:rgb(0%,0%,0%);stroke-opacity:1;stroke-miterlimit:10;" d="M 115.882813 115.882813 L 105.773438 126.527344 L 96.238281 137.671875 L 87.320313 149.265625 L 79.054688 161.261719 L 71.46875 173.621094 L 64.59375 186.285156 L 58.460938 199.210938 L 53.089844 212.347656 L 48.507813 225.636719 L 44.726563 239.03125 L 41.761719 252.476563 L 39.628906 265.921875 L 38.332031 279.308594 L 37.878906 292.589844 L 38.273438 305.710938 L 39.507813 318.621094 L 41.582031 331.265625 L 44.488281 343.597656 L 48.210938 355.570313 L 52.742188 367.132813 L 58.054688 378.242188 L 64.136719 388.851563 L 70.957031 398.921875 L 78.492188 408.414063 L 86.714844 417.285156 L 95.585938 425.507813 L 105.078125 433.042969 L 115.148438 439.863281 L 125.757813 445.945313 L 136.867188 451.257813 L 148.429688 455.789063 L 160.402344 459.511719 L 172.734375 462.417969 L 185.378906 464.492188 L 198.289063 465.726563 L 211.410156 466.121094 L 224.691406 465.667969 L 238.078125 464.371094 L 251.523438 462.238281 L 264.96875 459.273438 L 278.363281 455.492188 L 291.652344 450.910156 L 304.789063 445.539063 L 317.714844 439.40625 L 330.378906 432.53125 L 342.738281 424.945313 L 354.734375 416.679688 L 366.328125 407.761719 L 377.472656 398.226563 L 388.117188 388.117188 L 398.226563 377.472656 L 407.761719 366.328125 L 416.679688 354.734375 L 424.945313 342.738281 L 432.53125 330.378906 L 439.40625 317.714844 L 445.539063 304.789063 L 450.910156 291.652344 L 455.492188 278.363281 L 459.273438 264.96875 L 462.238281 251.523438 L 464.371094 238.078125 L 465.667969 224.691406 L 466.121094 211.410156 L 465.726563 198.289063 L 464.492188 185.378906 L 462.417969 172.734375 L 459.511719 160.402344 L 455.789063 148.429688 L 451.257813 136.867188 L 445.945313 125.757813 L 439.863281 115.148438 L 433.042969 105.078125 L 425.507813 95.585938 L 417.285156 86.714844 L 408.414063 78.492188 L 398.921875 70.957031 L 388.851563 64.136719 L 378.242188 58.054688 L 367.132813 52.742188 L 355.570313 48.210938 L 343.597656 44.488281 L 331.265625 41.582031 L 318.621094 39.507813 L 305.710938 38.273438 L 292.589844 37.878906 L 279.308594 38.332031 L 265.921875 39.628906 L 252.476563 41.761719 L 239.03125 44.726563 L 225.636719 48.507813 L 212.347656 53.089844 L 199.210938 58.460938 L 186.285156 64.59375 L 173.621094 71.46875 L 161.261719 79.054688 L 149.265625 87.320313 L 137.671875 96.238281 L 126.527344 105.773438 Z M 115.882813 115.882813 "/>
</g>
</svg>
