<?xml version="1.0" encoding="UTF-8"?>
<svg xmlns="http://www.w3.org/2000/svg" xmlns:xlink="http://www.w3.org/1999/xlink" width="504pt" height="504pt" viewBox="0 0 504 504" version="1.1">
<g id="surface2406">
<rect x="0" y="0" width="504" height="504" style="fill:rgb(100%,100%,100%);fill-opacity:1;stroke:none;"/>
<path style="fill-rule:nonzero;fill:rgb(74.509804%,74.509804%,74.509804%);fill-opacity:1;stroke-width:2.25;stroke-linecap:round;stroke-linejoin:round;stroke:rgb(0%,0%,0%);stroke-opacity:1;stroke-miterlimit:10;" d="M 355.125 148.875 L 351.800781 145.65625 L 348.375 142.542969 L 344.855469 139.539063 L 341.242188 136.648438 L 337.535156 133.875 L 333.746094 131.222656 L 329.871094 128.6875 L 325.921875 126.28125 L 321.894531 124 L 317.796875 121.84375 L 313.636719 119.824219 L 309.410156 117.933594 L 305.128906 116.179688 L 300.792969 114.5625 L 296.40625 113.085938 L 291.976563 111.746094 L 287.507813 110.546875 L 283 109.492188 L 278.464844 108.582031 L 273.898438 107.8125 L 269.3125 107.191406 L 264.710938 106.714844 L 260.09375 106.382813 L 255.46875 106.199219 L 250.84375 106.164063 L 246.214844 106.273438 L 241.597656 106.53125 L 236.984375 106.933594 L 232.390625 107.484375 L 227.816406 108.179688 L 223.265625 109.019531 L 218.742188 110 L 214.253906 111.128906 L 209.804688 112.398438 L 205.394531 113.804688 L 201.035156 115.355469 L 196.722656 117.039063 L 192.46875 118.863281 L 188.277344 120.816406 L 184.144531 122.90625 L 180.082031 125.125 L 176.09375 127.46875 L 172.183594 129.941406 L 168.347656 132.535156 L 164.601563 135.25 L 160.941406 138.082031 L 157.371094 141.027344 L 153.898438 144.085938 L 150.523438 147.25 L 147.25 150.523438 L 144.085938 153.898438 L 141.027344 157.371094 L 138.082031 160.941406 L 135.25 164.601563 L 132.535156 168.347656 L 129.941406 172.183594 L 127.46875 176.09375 L 125.125 180.082031 L 122.90625 184.144531 L 120.816406 188.277344 L 118.863281 192.46875 L 117.039063 196.722656 L 115.355469 201.035156 L 113.804688 205.394531 L 112.398438 209.804688 L 111.128906 214.253906 L 110 218.742188 L 109.019531 223.265625 L 108.179688 227.816406 L 107.484375 232.390625 L 106.933594 236.984375 L 106.53125 241.597656 L 106.273438 246.214844 L 106.164063 250.84375 L 106.199219 255.46875 L 106.382813 260.09375 L 106.714844 264.710938 L 107.191406 269.3125 L 107.8125 273.898438 L 108.582031 278.464844 L 109.492188 283 L 110.546875 287.507813 L 111.746094 291.976563 L 113.085938 296.40625 L 114.5625 300.792969 L 116.179688 305.128906 L 117.933594 309.410156 L 119.824219 313.636719 L 121.84375 317.796875 L 124 321.894531 L 126.28125 325.921875 L 128.6875 329.871094 L 131.222656 333.746094 L 133.875 337.535156 L 136.648438 341.242188 L 139.539063 344.855469 L 142.542969 348.375 L 145.65625 351.800781 L 148.875 355.125 Z M 355.125 148.875 "/>
<path style="fill-rule:nonzero;fill:rgb(74.509804%,74.509804%,74.509804%);fill-opacity:1;stroke-width:2.25;stroke-linecap:round;stroke-linejoin:round;stroke:rgb(0%,0%,0%);stroke-opacity:1;stroke-miterlimit:10;" d="M 355.125 148.875 L 351.800781 145.65625 L 348.375 142.542969 L 344.855469 139.539063 L 341.242188 136.648438 L 337.535156 133.875 L 333.746094 131.222656 L 329.871094 128.6875 L 325.921875 126.28125 L 321.894531 124 L 317.796875 121.84375 L 313.636719 119.824219 L 309.410156 117.933594 L 305.128906 116.179688 L 300.792969 114.5625 L 296.40625 113.085938 L 291.976563 111.746094 L 287.507813 110.546875 L 283 109.492188 L 278.464844 108.582031 L 273.898438 107.8125 L 269.3125 107.191406 L 264.710938 106.714844 L 260.09375 106.382813 L 255.46875 106.199219 L 250.84375 106.164063 L 246.214844 106.273438 L 241.597656 106.53125 L 236.984375 106.933594 L 232.390625 107.484375 L 227.816406 108.179688 L 223.265625 109.019531 L 218.742188 110 L 214.253906 111.128906 L 209.804688 112.398438 L 205.394531 113.804688 L 201.035156 115.355469 L 196.722656 117.039063 L 192.46875 118.863281 L 188.277344 120.816406 L 184.144531 122.90625 L 180.082031 125.125 L 176.09375 127.46875 L 172.183594 129.941406 L 168.347656 132.535156 L 164.601563 135.25 L 160.941406 138.082031 L 157.371094 141.027344 L 153.898438 144.085938 L 150.523438 147.25 L 147.25 150.523438 L 144.085938 153.898438 L 141.027344 157.371094 L 138.082031 160.941406 L 135.25 164.601563 L 132.535156 168.347656 L 129.941406 172.183594 L 127.46875 176.09375 L 125.125 180.082031 L 122.90625 184.144531 L 120.816406 188.277344 L 118.863281 192.46875 L 117.039063 196.722656 L 115.355469 201.035156 L 113.804688 205.394531 L 112.398438 209.804688 L 111.128906 214.253906 L 110 218.742188 L 109.019531 223.265625 L 108.179688 227.816406 L 107.484375 232.390625 L 106.933594 236.984375 L 106.53125 241.597656 L 106.273438 246.214844 L 106.164063 250.84375 L 106.199219 255.46875 L 106.382813 260.09375 L 106.714844 264.710938 L 107.191406 269.3125 L 107.8125 273.898438 L 108.582031 278.464844 L 109.492188 283 L 110.546875 287.507813 L 111.746094 291.976563 L 113.085938 296.40625 L 114.5625 300.792969 L 116.179688 305.128906 L 117.933594 309.410156 L 119.824219 313.636719 L 121.84375 317.796875 L 124 321.894531 L 126.28125 325.921875 L 128.6875 329.871094 L 131.222656 333.746094 L 133.875 337.535156 L 136.648438 341.242188 L 139.539063 344.855469 L 142.542969 348.375 L 145.65625 351.800781 L 148.875 355.125 Z M 355.125 148.875 "/>
<path style="fill-rule:nonzero;fill:rgb(74.509804%,74.509804%,74.509804%);fill-opacity:1;stroke-width:2.25;stroke-linecap:round;stroke-linejoin:round;stroke:rgb(0%,0%,0%);stroke-opacity:1;stroke-miterlimit:10;" d="M 355.125 148.875 L 351.800781 145.65625 L 348.375 142.542969 L 344.855469 139.539063 L 341.242188 136.648438 L 337.535156 133.875 L 333.746094 131.222656 L 329.871094 128.6875 L 325.921875 126.28125 L 321.894531 124 L 317.796875 121.84375 L 313.636719 119.824219 L 309.410156 117.933594 L 305.128906 116.179688 L 300.792969 114.5625 L 296.40625 113.085938 L 291.976563 111.746094 L 287.507813 110.546875 L 283 109.492188 L 278.464844 108.582031 L 273.898438 107.8125 L 269.3125 107.191406 L 264.710938 106.714844 L 260.09375 106.382813 L 255.46875 106.199219 L 250.84375 106.164063 L 246.214844 106.273438 L 241.597656 106.53125 L 236.984375 106.933594 L 232.390625 107.484375 L 227.816406 108.179688 L 223.265625 109.019531 L 218.742188 110 L 214.253906 111.128906 L 209.804688 112.398438 L 205.394531 113.804688 L 201.035156 115.355469 L 196.722656 117.039063 L 192.46875 118.863281 L 188.277344 120.816406 L 184.144531 122.90625 L 180.082031 125.125 L 176.09375 127.46875 L 172.183594 129.941406 L 168.347656 132.535156 L 164.601563 135.25 L 160.941406 138.082031 L 157.371094 141.027344 L 153.898438 144.085938 L 150.523438 147.25 L 147.25 150.523438 L 144.085938 153.898438 L 141.027344 157.371094 L 138.082031 160.941406 L 135.25 164.601563 L 132.535156 168.347656 L 129.941406 172.183594 L 127.46875 176.09375 L 125.125 180.082031 L 122.90625 184.144531 L 120.816406 188.277344 L 118.863281 192.46875 L 117.039063 196.722656 L 115.355469 201.035156 L 113.804688 205.394531 L 112.398438 209.804688 L 111.128906 214.253906 L 110 218.742188 L 109.019531 223.265625 L 108.179688 227.816406 L 107.484375 232.390625 L 106.933594 236.984375 L 106.53125 241.597656 L 106.273438 246.214844 L 106.164063 250.84375 L 106.199219 255.46875 L 106.382813 260.09375 L 106.714844 264.710938 L 107.191406 269.3125 L 107.8125 273.898438 L 108.582031 278.464844 L 109.492188 283 L 110.546875 287.507813 L 111.746094 291.976563 L 113.085938 296.40625 L 114.5625 300.792969 L 116.179688 305.128906 L 117.933594 309.410156 L 119.824219 313.636719 L 121.84375 317.796875 L 124 321.894531 L 126.28125 325.921875 L 128.6875 329.871094 L 131.222656 333.746094 L 133.875 337.535156 L 136.648438 341.242188 L 139.539063 344.855469 L 142.542969 348.375 L 145.65625 351.800781 L 148.875 355.125 Z M 355.125 148.875 "/>
<path style="fill:none;stroke-width:1.5;stroke-linecap:round;stroke-linejoin:round;stroke:rgb(0%,0%,0%);stroke-opacity:1;stroke-miterlimit:10;" d="M 458.25 252 L 457.84375 239.050781 L 456.625 226.148438 L 454.597656 213.351563 L 451.769531 200.707031 L 448.15625 188.265625 L 443.765625 176.074219 L 438.621094 164.183594 L 432.738281 152.636719 L 426.144531 141.484375 L 418.859375 130.769531 L 410.917969 120.53125 L 402.351563 110.8125 L 393.1875 101.648438 L 383.46875 93.082031 L 373.230469 85.140625 L 362.515625 77.855469 L 351.363281 71.261719 L 339.816406 65.378906 L 327.925781 60.234375 L 315.734375 55.84375 L 303.292969 52.230469 L 290.648438 49.402344 L 277.851563 47.375 L 264.949219 46.15625 L 252 45.75 L 239.050781 46.15625 L 226.148438 47.375 L 213.351563 49.402344 L 200.707031 52.230469 L 188.265625 55.84375 L 176.074219 60.234375 L 164.183594 65.378906 L 152.636719 71.261719 L 141.484375 77.855469 L 130.769531 85.140625 L 120.53125 93.082031 L 110.8125 101.648438 L 101.648438 110.8125 L 93.082031 120.53125 L 85.140625 130.769531 L 77.855469 141.484375 L 71.261719 152.636719 L 65.378906 164.183594 L 60.234375 176.074219 L 55.84375 188.265625 L 52.230469 200.707031 L 49.402344 213.351563 L 47.375 226.148438 L 46.15625 239.050781 L 45.75 252 L 46.15625 264.949219 L 47.375 277.851563 L 49.402344 290.648438 L 52.230469 303.292969 L 55.84375 315.734375 L 60.234375 327.925781 L 65.378906 339.816406 L 71.261719 351.363281 L 77.855469 362.515625 L 85.140625 373.230469 L 93.082031 383.46875 L 101.648438 393.1875 L 110.8125 402.351563 L 120.53125 410.917969 L 130.769531 418.859375 L 141.484375 426.144531 L 152.636719 432.738281 L 164.183594 438.621094 L 176.074219 443.765625 L 188.265625 448.15625 L 200.707031 451.769531 L 213.351563 454.597656 L 226.148438 456.625 L 239.050781 457.84375 L 252 458.25 L 264.949219 457.84375 L 277.851563 456.625 L 290.648438 454.597656 L 303.292969 451.769531 L 315.734375 448.15625 L 327.925781 443.765625 L 339.816406 438.621094 L 351.363281 432.738281 L 362.515625 426.144531 L 373.230469 418.859375 L 383.46875 410.917969 L 393.1875 402.351563 L 402.351563 393.1875 L 410.917969 383.46875 L 418.859375 373.230469 L 426.144531 362.515625 L 432.738281 351.363281 L 438.621094 339.816406 L 443.765625 327.925781 L 448.15625 315.734375 L 451.769531 303.292969 L 454.597656 290.648438 L 456.625 277.851563 L 457.84375 264.949219 Z M 458.25 252 "/>
<path style="fill:none;stroke-width:2.25;stroke-linecap:round;stroke-linejoin:round;stroke:rgb(0%,0%,0%);stroke-opacity:1;stroke-miterlimit:10;" d="M 417.285156 86.714844 L 86.714844 86.714844 L 86.714844 417.285156 L 417.285156 417.285156 Z M 417.285156 86.714844 "/>
</g>
</svg>
