<?xml version="1.0" encoding="UTF-8"?>
<svg xmlns="http://www.w3.org/2000/svg" xmlns:xlink="http://www.w3.org/1999/xlink" width="504pt" height="504pt" viewBox="0 0 504 504" version="1.1">
<g id="surface2561">
<rect x="0" y="0" width="504" height="504" style="fill:rgb(100%,100%,100%);fill-opacity:1;stroke:none;"/>
<path style="fill:none;stroke-width:0.75;stroke-linecap:round;stroke-linejoin:round;stroke:rgb(0%,0%,0%);stroke-opacity:1;stroke-miterlimit:10;" d="M 269.792969 289.207031 L 289.207031 269.792969 Z M 269.792969 289.207031 "/>
<path style="fill:none;stroke-width:0.75;stroke-linecap:round;stroke-linejoin:round;stroke:rgb(0%,0%,0%);stroke-opacity:1;stroke-miterlimit:10;" d="M 291.460938 240.039063 L 252 279.5 Z M 291.460938 240.039063 "/>
<path style="fill:none;stroke-width:0.75;stroke-linecap:round;stroke-linejoin:round;stroke:rgb(0%,0%,0%);stroke-opacity:1;stroke-miterlimit:10;" d="M 287.210938 230.539063 L 252 265.75 Z M 287.210938 230.539063 "/>
<path style="fill:none;stroke-width:0.75;stroke-linecap:round;stroke-linejoin:round;stroke:rgb(0%,0%,0%);stroke-opacity:1;stroke-miterlimit:10;" d="M 281.152344 222.847656 L 252 252 Z M 281.152344 222.847656 "/>
<path style="fill:none;stroke-width:0.75;stroke-linecap:round;stroke-linejoin:round;stroke:rgb(0%,0%,0%);stroke-opacity:1;stroke-miterlimit:10;" d="M 273.460938 216.789063 L 252 238.25 Z M 273.460938 216.789063 "/>
<path style="fill:none;stroke-width:0.75;stroke-linecap:round;stroke-linejoin:round;stroke:rgb(0%,0%,0%);stroke-opacity:1;stroke-miterlimit:10;" d="M 263.960938 212.539063 L 252 224.5 Z M 263.960938 212.539063 "/>
<path style="fill:none;stroke-width:0.75;stroke-linecap:round;stroke-linejoin:round;stroke:rgb(0%,0%,0%);stroke-opacity:1;stroke-miterlimit:10;" d="M 240.039063 291.460938 L 252 279.5 Z M 240.039063 291.460938 "/>
<path style="fill:none;stroke-width:0.75;stroke-linecap:round;stroke-linejoin:round;stroke:rgb(0%,0%,0%);stroke-opacity:1;stroke-miterlimit:10;" d="M 230.539063 287.210938 L 252 265.75 Z M 230.539063 287.210938 "/>
<path style="fill:none;stroke-width:0.75;stroke-linecap:round;stroke-linejoin:round;stroke:rgb(0%,0%,0%);stroke-opacity:1;stroke-miterlimit:10;" d="M 252 252 L 222.847656 281.152344 Z M 252 252 "/>
<path style="fill:none;stroke-width:0.75;stroke-linecap:round;stroke-linejoin:round;stroke:rgb(0%,0%,0%);stroke-opacity:1;stroke-miterlimit:10;" d="M 252 238.25 L 216.789063 273.460938 Z M 252 238.25 "/>
<path style="fill:none;stroke-width:0.75;stroke-linecap:round;stroke-linejoin:round;stroke:rgb(0%,0%,0%);stroke-opacity:1;stroke-miterlimit:10;" d="M 252 224.5 L 212.539063 263.960938 Z M 252 224.5 "/>
<path style="fill:none;stroke-width:0.75;stroke-linecap:round;stroke-linejoin:round;stroke:rgb(0%,0%,0%);stroke-opacity:1;stroke-miterlimit:10;" d="M 252 210.75 L 210.75 252 Z M 252 210.75 "/>
<path style="fill:none;stroke-width:0.75;stroke-linecap:round;stroke-linejoin:round;stroke:rgb(0%,0%,0%);stroke-opacity:1;stroke-miterlimit:10;" d="M 234.207031 214.792969 L 214.792969 234.207031 Z M 234.207031 214.792969 "/>
<path style="fill:none;stroke-width:1.5;stroke-linecap:round;stroke-linejoin:round;stroke:rgb(0%,0%,0%);stroke-opacity:1;stroke-miterlimit:10;" d="M 293.25 252 L 293.167969 249.410156 L 292.925781 246.828125 L 292.519531 244.269531 L 291.953125 241.742188 L 291.230469 239.253906 L 290.351563 236.816406 L 289.324219 234.4375 L 288.148438 232.128906 L 286.828125 229.898438 L 285.371094 227.753906 L 283.785156 225.707031 L 282.070313 223.761719 L 280.238281 221.929688 L 278.292969 220.214844 L 276.246094 218.628906 L 274.101563 217.171875 L 271.871094 215.851563 L 269.5625 214.675781 L 267.183594 213.648438 L 264.746094 212.769531 L 262.257813 212.046875 L 259.730469 211.480469 L 257.171875 211.074219 L 254.589844 210.832031 L 252 210.75 L 249.410156 210.832031 L 246.828125 211.074219 L 244.269531 211.480469 L 241.742188 212.046875 L 239.253906 212.769531 L 236.816406 213.648438 L 234.4375 214.675781 L 232.128906 215.851563 L 229.898438 217.171875 L 227.753906 218.628906 L 225.707031 220.214844 L 223.761719 221.929688 L 221.929688 223.761719 L 220.214844 225.707031 L 218.628906 227.753906 L 217.171875 229.898438 L 215.851563 232.128906 L 214.675781 234.4375 L 213.648438 236.816406 L 212.769531 239.253906 L 212.046875 241.742188 L 211.480469 244.269531 L 211.074219 246.828125 L 210.832031 249.410156 L 210.75 252 L 210.832031 254.589844 L 211.074219 257.171875 L 211.480469 259.730469 L 212.046875 262.257813 L 212.769531 264.746094 L 213.648438 267.183594 L 214.675781 269.5625 L 215.851563 271.871094 L 217.171875 274.101563 L 218.628906 276.246094 L 220.214844 278.292969 L 221.929688 280.238281 L 223.761719 282.070313 L 225.707031 283.785156 L 227.753906 285.371094 L 229.898438 286.828125 L 232.128906 288.148438 L 234.4375 289.324219 L 236.816406 290.351563 L 239.253906 291.230469 L 241.742188 291.953125 L 244.269531 292.519531 L 246.828125 292.925781 L 249.410156 293.167969 L 252 293.25 L 254.589844 293.167969 L 257.171875 292.925781 L 259.730469 292.519531 L 262.257813 291.953125 L 264.746094 291.230469 L 267.183594 290.351563 L 269.5625 289.324219 L 271.871094 288.148438 L 274.101563 286.828125 L 276.246094 285.371094 L 278.292969 283.785156 L 280.238281 282.070313 L 282.070313 280.238281 L 283.785156 278.292969 L 285.371094 276.246094 L 286.828125 274.101563 L 288.148438 271.871094 L 289.324219 269.5625 L 290.351563 267.183594 L 291.230469 264.746094 L 291.953125 262.257813 L 292.519531 259.730469 L 292.925781 257.171875 L 293.167969 254.589844 Z M 293.25 252 "/>
<path style="fill:none;stroke-width:2.25;stroke-linecap:round;stroke-linejoin:round;stroke:rgb(0%,0%,0%);stroke-opacity:1;stroke-miterlimit:10;" d="M 106.160156 106.160156 L 68.230469 345.636719 L 284.265625 455.710938 L 455.710938 284.265625 L 345.636719 68.230469 Z M 106.160156 106.160156 "/>
</g>
</svg>
