<?xml version="1.0" encoding="UTF-8"?>
<svg xmlns="http://www.w3.org/2000/svg" xmlns:xlink="http://www.w3.org/1999/xlink" width="504pt" height="504pt" viewBox="0 0 504 504" version="1.1">
<g id="surface2281">
<rect x="0" y="0" width="504" height="504" style="fill:rgb(100%,100%,100%);fill-opacity:1;stroke:none;"/>
<path style="fill-rule:nonzero;fill:rgb(74.509804%,74.509804%,74.509804%);fill-opacity:1;stroke-width:2.25;stroke-linecap:round;stroke-linejoin:round;stroke:rgb(0%,0%,0%);stroke-opacity:1;stroke-miterlimit:10;" d="M 446.453125 57.546875 L 57.546875 57.546875 L 57.546875 446.453125 L 446.453125 446.453125 Z M 446.453125 57.546875 "/>
<path style="fill-rule:nonzero;fill:rgb(100%,100%,100%);fill-opacity:1;stroke-width:2.25;stroke-linecap:round;stroke-linejoin:round;stroke:rgb(0%,0%,0%);stroke-opacity:1;stroke-miterlimit:10;" d="M 300.613281 203.386719 L 296.449219 199.414063 L 292.105469 195.644531 L 287.605469 192.101563 L 282.964844 188.792969 L 278.203125 185.734375 L 273.339844 182.9375 L 268.390625 180.414063 L 263.375 178.171875 L 258.316406 176.222656 L 253.230469 174.570313 L 248.140625 173.226563 L 243.066406 172.191406 L 238.027344 171.472656 L 233.042969 171.070313 L 228.136719 170.988281 L 223.320313 171.222656 L 218.621094 171.78125 L 214.050781 172.652344 L 209.628906 173.835938 L 205.375 175.332031 L 201.308594 177.128906 L 197.4375 179.222656 L 193.785156 181.601563 L 190.363281 184.257813 L 187.183594 187.183594 L 184.257813 190.363281 L 181.601563 193.785156 L 179.222656 197.4375 L 177.128906 201.308594 L 175.332031 205.375 L 173.835938 209.628906 L 172.652344 214.050781 L 171.78125 218.621094 L 171.222656 223.320313 L 170.988281 228.136719 L 171.070313 233.042969 L 171.472656 238.027344 L 172.191406 243.066406 L 173.226563 248.140625 L 174.570313 253.230469 L 176.222656 258.316406 L 178.171875 263.375 L 180.414063 268.390625 L 182.9375 273.339844 L 185.734375 278.203125 L 188.792969 282.964844 L 192.101563 287.605469 L 195.644531 292.105469 L 199.414063 296.449219 L 203.386719 300.613281 L 207.550781 304.585938 L 211.894531 308.355469 L 216.394531 311.898438 L 221.035156 315.207031 L 225.796875 318.265625 L 230.660156 321.0625 L 235.609375 323.585938 L 240.625 325.828125 L 245.683594 327.777344 L 250.769531 329.429688 L 255.859375 330.773438 L 260.933594 331.808594 L 265.972656 332.527344 L 270.957031 332.929688 L 275.863281 333.011719 L 280.679688 332.777344 L 285.378906 332.21875 L 289.949219 331.347656 L 294.371094 330.164063 L 298.625 328.667969 L 302.691406 326.871094 L 306.5625 324.777344 L 310.214844 322.398438 L 313.636719 319.742188 L 316.816406 316.816406 L 319.742188 313.636719 L 322.398438 310.214844 L 324.777344 306.5625 L 326.871094 302.691406 L 328.667969 298.625 L 330.164063 294.371094 L 331.347656 289.949219 L 332.21875 285.378906 L 332.777344 280.679688 L 333.011719 275.863281 L 332.929688 270.957031 L 332.527344 265.972656 L 331.808594 260.933594 L 330.773438 255.859375 L 329.429688 250.769531 L 327.777344 245.683594 L 325.828125 240.625 L 323.585938 235.609375 L 321.0625 230.660156 L 318.265625 225.796875 L 315.207031 221.035156 L 311.898438 216.394531 L 308.355469 211.894531 L 304.585938 207.550781 Z M 300.613281 203.386719 "/>
</g>
</svg>
