<?xml version="1.0" encoding="UTF-8"?>
<svg xmlns="http://www.w3.org/2000/svg" xmlns:xlink="http://www.w3.org/1999/xlink" width="504pt" height="504pt" viewBox="0 0 504 504" version="1.1">
<g id="surface2396">
<rect x="0" y="0" width="504" height="504" style="fill:rgb(100%,100%,100%);fill-opacity:1;stroke:none;"/>
<path style="fill-rule:nonzero;fill:rgb(100%,100%,100%);fill-opacity:1;stroke-width:2.25;stroke-linecap:round;stroke-linejoin:round;stroke:rgb(0%,0%,0%);stroke-opacity:1;stroke-miterlimit:10;" d="M 252 106.160156 L 247.371094 106.234375 L 242.75 106.453125 L 238.136719 106.820313 L 233.539063 107.332031 L 228.957031 107.992188 L 224.398438 108.792969 L 219.871094 109.742188 L 215.371094 110.832031 L 210.910156 112.066406 L 206.492188 113.441406 L 202.121094 114.953125 L 197.796875 116.605469 L 193.527344 118.394531 L 189.320313 120.316406 L 185.171875 122.371094 L 181.09375 124.558594 L 177.085938 126.871094 L 173.152344 129.3125 L 169.300781 131.875 L 165.53125 134.558594 L 161.847656 137.363281 L 158.253906 140.28125 L 154.757813 143.308594 L 151.359375 146.449219 L 148.058594 149.695313 L 144.867188 153.046875 L 141.78125 156.496094 L 138.804688 160.039063 L 135.945313 163.675781 L 133.203125 167.402344 L 130.578125 171.214844 L 128.074219 175.109375 L 125.699219 179.078125 L 123.449219 183.125 L 121.328125 187.238281 L 119.339844 191.414063 L 117.484375 195.65625 L 115.761719 199.953125 L 114.179688 204.300781 L 112.734375 208.695313 L 111.433594 213.136719 L 110.269531 217.617188 L 109.25 222.128906 L 108.375 226.675781 L 107.644531 231.246094 L 107.058594 235.835938 L 106.617188 240.441406 L 106.324219 245.0625 L 106.175781 249.6875 L 106.175781 254.3125 L 106.324219 258.9375 L 106.617188 263.558594 L 107.058594 268.164063 L 107.644531 272.753906 L 108.375 277.324219 L 109.25 281.871094 L 110.269531 286.382813 L 111.433594 290.863281 L 112.734375 295.304688 L 114.179688 299.699219 L 115.761719 304.046875 L 117.484375 308.34375 L 119.339844 312.585938 L 121.328125 316.761719 L 123.449219 320.875 L 125.699219 324.921875 L 128.074219 328.890625 L 130.578125 332.785156 L 133.203125 336.597656 L 135.945313 340.324219 L 138.804688 343.960938 L 141.78125 347.503906 L 144.867188 350.953125 L 148.058594 354.304688 L 151.359375 357.550781 L 154.757813 360.691406 L 158.253906 363.71875 L 161.847656 366.636719 L 165.53125 369.441406 L 169.300781 372.125 L 173.152344 374.6875 L 177.085938 377.128906 L 181.09375 379.441406 L 185.171875 381.628906 L 189.320313 383.683594 L 193.527344 385.605469 L 197.796875 387.394531 L 202.121094 389.046875 L 206.492188 390.558594 L 210.910156 391.933594 L 215.371094 393.167969 L 219.871094 394.257813 L 224.398438 395.207031 L 228.957031 396.007813 L 233.539063 396.667969 L 238.136719 397.179688 L 242.75 397.546875 L 247.371094 397.765625 L 252 397.839844 Z M 252 106.160156 "/>
<path style="fill-rule:nonzero;fill:rgb(100%,100%,100%);fill-opacity:1;stroke-width:2.25;stroke-linecap:round;stroke-linejoin:round;stroke:rgb(0%,0%,0%);stroke-opacity:1;stroke-miterlimit:10;" d="M 252 106.160156 L 247.371094 106.234375 L 242.75 106.453125 L 238.136719 106.820313 L 233.539063 107.332031 L 228.957031 107.992188 L 224.398438 108.792969 L 219.871094 109.742188 L 215.371094 110.832031 L 210.910156 112.066406 L 206.492188 113.441406 L 202.121094 114.953125 L 197.796875 116.605469 L 193.527344 118.394531 L 189.320313 120.316406 L 185.171875 122.371094 L 181.09375 124.558594 L 177.085938 126.871094 L 173.152344 129.3125 L 169.300781 131.875 L 165.53125 134.558594 L 161.847656 137.363281 L 158.253906 140.28125 L 154.757813 143.308594 L 151.359375 146.449219 L 148.058594 149.695313 L 144.867188 153.046875 L 141.78125 156.496094 L 138.804688 160.039063 L 135.945313 163.675781 L 133.203125 167.402344 L 130.578125 171.214844 L 128.074219 175.109375 L 125.699219 179.078125 L 123.449219 183.125 L 121.328125 187.238281 L 119.339844 191.414063 L 117.484375 195.65625 L 115.761719 199.953125 L 114.179688 204.300781 L 112.734375 208.695313 L 111.433594 213.136719 L 110.269531 217.617188 L 109.25 222.128906 L 108.375 226.675781 L 107.644531 231.246094 L 107.058594 235.835938 L 106.617188 240.441406 L 106.324219 245.0625 L 106.175781 249.6875 L 106.175781 254.3125 L 106.324219 258.9375 L 106.617188 263.558594 L 107.058594 268.164063 L 107.644531 272.753906 L 108.375 277.324219 L 109.25 281.871094 L 110.269531 286.382813 L 111.433594 290.863281 L 112.734375 295.304688 L 114.179688 299.699219 L 115.761719 304.046875 L 117.484375 308.34375 L 119.339844 312.585938 L 121.328125 316.761719 L 123.449219 320.875 L 125.699219 324.921875 L 128.074219 328.890625 L 130.578125 332.785156 L 133.203125 336.597656 L 135.945313 340.324219 L 138.804688 343.960938 L 141.78125 347.503906 L 144.867188 350.953125 L 148.058594 354.304688 L 151.359375 357.550781 L 154.757813 360.691406 L 158.253906 363.71875 L 161.847656 366.636719 L 165.53125 369.441406 L 169.300781 372.125 L 173.152344 374.6875 L 177.085938 377.128906 L 181.09375 379.441406 L 185.171875 381.628906 L 189.320313 383.683594 L 193.527344 385.605469 L 197.796875 387.394531 L 202.121094 389.046875 L 206.492188 390.558594 L 210.910156 391.933594 L 215.371094 393.167969 L 219.871094 394.257813 L 224.398438 395.207031 L 228.957031 396.007813 L 233.539063 396.667969 L 238.136719 397.179688 L 242.75 397.546875 L 247.371094 397.765625 L 252 397.839844 Z M 252 106.160156 "/>
<path style="fill:none;stroke-width:2.25;stroke-linecap:round;stroke-linejoin:round;stroke:rgb(0%,0%,0%);stroke-opacity:1;stroke-miterlimit:10;" d="M 252 106.160156 L 247.371094 106.234375 L 242.75 106.453125 L 238.136719 106.820313 L 233.539063 107.332031 L 228.957031 107.992188 L 224.398438 108.792969 L 219.871094 109.742188 L 215.371094 110.832031 L 210.910156 112.066406 L 206.492188 113.441406 L 202.121094 114.953125 L 197.796875 116.605469 L 193.527344 118.394531 L 189.320313 120.316406 L 185.171875 122.371094 L 181.09375 124.558594 L 177.085938 126.871094 L 173.152344 129.3125 L 169.300781 131.875 L 165.53125 134.558594 L 161.847656 137.363281 L 158.253906 140.28125 L 154.757813 143.308594 L 151.359375 146.449219 L 148.058594 149.695313 L 144.867188 153.046875 L 141.78125 156.496094 L 138.804688 160.039063 L 135.945313 163.675781 L 133.203125 167.402344 L 130.578125 171.214844 L 128.074219 175.109375 L 125.699219 179.078125 L 123.449219 183.125 L 121.328125 187.238281 L 119.339844 191.414063 L 117.484375 195.65625 L 115.761719 199.953125 L 114.179688 204.300781 L 112.734375 208.695313 L 111.433594 213.136719 L 110.269531 217.617188 L 109.25 222.128906 L 108.375 226.675781 L 107.644531 231.246094 L 107.058594 235.835938 L 106.617188 240.441406 L 106.324219 245.0625 L 106.175781 249.6875 L 106.175781 254.3125 L 106.324219 258.9375 L 106.617188 263.558594 L 107.058594 268.164063 L 107.644531 272.753906 L 108.375 277.324219 L 109.25 281.871094 L 110.269531 286.382813 L 111.433594 290.863281 L 112.734375 295.304688 L 114.179688 299.699219 L 115.761719 304.046875 L 117.484375 308.34375 L 119.339844 312.585938 L 121.328125 316.761719 L 123.449219 320.875 L 125.699219 324.921875 L 128.074219 328.890625 L 130.578125 332.785156 L 133.203125 336.597656 L 135.945313 340.324219 L 138.804688 343.960938 L 141.78125 347.503906 L 144.867188 350.953125 L 148.058594 354.304688 L 151.359375 357.550781 L 154.757813 360.691406 L 158.253906 363.71875 L 161.847656 366.636719 L 165.53125 369.441406 L 169.300781 372.125 L 173.152344 374.6875 L 177.085938 377.128906 L 181.09375 379.441406 L 185.171875 381.628906 L 189.320313 383.683594 L 193.527344 385.605469 L 197.796875 387.394531 L 202.121094 389.046875 L 206.492188 390.558594 L 210.910156 391.933594 L 215.371094 393.167969 L 219.871094 394.257813 L 224.398438 395.207031 L 228.957031 396.007813 L 233.539063 396.667969 L 238.136719 397.179688 L 242.75 397.546875 L 247.371094 397.765625 L 252 397.839844 Z M 252 106.160156 "/>
<path style="fill:none;stroke-width:1.5;stroke-linecap:round;stroke-linejoin:round;stroke:rgb(0%,0%,0%);stroke-opacity:1;stroke-miterlimit:10;" d="M 458.25 252 L 457.84375 239.050781 L 456.625 226.148438 L 454.597656 213.351563 L 451.769531 200.707031 L 448.15625 188.265625 L 443.765625 176.074219 L 438.621094 164.183594 L 432.738281 152.636719 L 426.144531 141.484375 L 418.859375 130.769531 L 410.917969 120.53125 L 402.351563 110.8125 L 393.1875 101.648438 L 383.46875 93.082031 L 373.230469 85.140625 L 362.515625 77.855469 L 351.363281 71.261719 L 339.816406 65.378906 L 327.925781 60.234375 L 315.734375 55.84375 L 303.292969 52.230469 L 290.648438 49.402344 L 277.851563 47.375 L 264.949219 46.15625 L 252 45.75 L 239.050781 46.15625 L 226.148438 47.375 L 213.351563 49.402344 L 200.707031 52.230469 L 188.265625 55.84375 L 176.074219 60.234375 L 164.183594 65.378906 L 152.636719 71.261719 L 141.484375 77.855469 L 130.769531 85.140625 L 120.53125 93.082031 L 110.8125 101.648438 L 101.648438 110.8125 L 93.082031 120.53125 L 85.140625 130.769531 L 77.855469 141.484375 L 71.261719 152.636719 L 65.378906 164.183594 L 60.234375 176.074219 L 55.84375 188.265625 L 52.230469 200.707031 L 49.402344 213.351563 L 47.375 226.148438 L 46.15625 239.050781 L 45.75 252 L 46.15625 264.949219 L 47.375 277.851563 L 49.402344 290.648438 L 52.230469 303.292969 L 55.84375 315.734375 L 60.234375 327.925781 L 65.378906 339.816406 L 71.261719 351.363281 L 77.855469 362.515625 L 85.140625 373.230469 L 93.082031 383.46875 L 101.648438 393.1875 L 110.8125 402.351563 L 120.53125 410.917969 L 130.769531 418.859375 L 141.484375 426.144531 L 152.636719 432.738281 L 164.183594 438.621094 L 176.074219 443.765625 L 188.265625 448.15625 L 200.707031 451.769531 L 213.351563 454.597656 L 226.148438 456.625 L 239.050781 457.84375 L 252 458.25 L 264.949219 457.84375 L 277.851563 456.625 L 290.648438 454.597656 L 303.292969 451.769531 L 315.734375 448.15625 L 327.925781 443.765625 L 339.816406 438.621094 L 351.363281 432.738281 L 362.515625 426.144531 L 373.230469 418.859375 L 383.46875 410.917969 L 393.1875 402.351563 L 402.351563 393.1875 L 410.917969 383.46875 L 418.859375 373.230469 L 426.144531 362.515625 L 432.738281 351.363281 L 438.621094 339.816406 L 443.765625 327.925781 L 448.15625 315.734375 L 451.769531 303.292969 L 454.597656 290.648438 L 456.625 277.851563 L 457.84375 264.949219 Z M 458.25 252 "/>
</g>
</svg>
