<?xml version="1.0" encoding="UTF-8"?>
<svg xmlns="http://www.w3.org/2000/svg" xmlns:xlink="http://www.w3.org/1999/xlink" width="504pt" height="504pt" viewBox="0 0 504 504" version="1.1">
<g id="surface2416">
<rect x="0" y="0" width="504" height="504" style="fill:rgb(100%,100%,100%);fill-opacity:1;stroke:none;"/>
<path style="fill-rule:nonzero;fill:rgb(0%,0%,0%);fill-opacity:1;stroke-width:2.25;stroke-linecap:round;stroke-linejoin:round;stroke:rgb(0%,0%,0%);stroke-opacity:1;stroke-miterlimit:10;" d="M 106.160156 252 L 106.234375 256.628906 L 106.453125 261.25 L 106.820313 265.863281 L 107.332031 270.460938 L 107.992188 275.042969 L 108.792969 279.601563 L 109.742188 284.128906 L 110.832031 288.628906 L 112.066406 293.089844 L 113.441406 297.507813 L 114.953125 301.878906 L 116.605469 306.203125 L 118.394531 310.472656 L 120.316406 314.679688 L 122.371094 318.828125 L 124.558594 322.90625 L 126.871094 326.914063 L 129.3125 330.847656 L 131.875 334.699219 L 134.558594 338.46875 L 137.363281 342.152344 L 140.28125 345.746094 L 143.308594 349.242188 L 146.449219 352.640625 L 149.695313 355.941406 L 153.046875 359.132813 L 156.496094 362.21875 L 160.039063 365.195313 L 163.675781 368.054688 L 167.402344 370.796875 L 171.214844 373.421875 L 175.109375 375.925781 L 179.078125 378.300781 L 183.125 380.550781 L 187.238281 382.671875 L 191.414063 384.660156 L 195.65625 386.515625 L 199.953125 388.238281 L 204.300781 389.820313 L 208.695313 391.265625 L 213.136719 392.566406 L 217.617188 393.730469 L 222.128906 394.75 L 226.675781 395.625 L 231.246094 396.355469 L 235.835938 396.941406 L 240.441406 397.382813 L 245.0625 397.675781 L 249.6875 397.824219 L 254.3125 397.824219 L 258.9375 397.675781 L 263.558594 397.382813 L 268.164063 396.941406 L 272.753906 396.355469 L 277.324219 395.625 L 281.871094 394.75 L 286.382813 393.730469 L 290.863281 392.566406 L 295.304688 391.265625 L 299.699219 389.820313 L 304.046875 388.238281 L 308.34375 386.515625 L 312.585938 384.660156 L 316.761719 382.671875 L 320.875 380.550781 L 324.921875 378.300781 L 328.890625 375.925781 L 332.785156 373.421875 L 336.597656 370.796875 L 340.324219 368.054688 L 343.960938 365.195313 L 347.503906 362.21875 L 350.953125 359.132813 L 354.304688 355.941406 L 357.550781 352.640625 L 360.691406 349.242188 L 363.71875 345.746094 L 366.636719 342.152344 L 369.441406 338.46875 L 372.125 334.699219 L 374.6875 330.847656 L 377.128906 326.914063 L 379.441406 322.90625 L 381.628906 318.828125 L 383.683594 314.679688 L 385.605469 310.472656 L 387.394531 306.203125 L 389.046875 301.878906 L 390.558594 297.507813 L 391.933594 293.089844 L 393.167969 288.628906 L 394.257813 284.128906 L 395.207031 279.601563 L 396.007813 275.042969 L 396.667969 270.460938 L 397.179688 265.863281 L 397.546875 261.25 L 397.765625 256.628906 L 397.839844 252 Z M 106.160156 252 "/>
<path style="fill-rule:nonzero;fill:rgb(0%,0%,0%);fill-opacity:1;stroke-width:2.25;stroke-linecap:round;stroke-linejoin:round;stroke:rgb(0%,0%,0%);stroke-opacity:1;stroke-miterlimit:10;" d="M 106.160156 252 L 106.234375 256.628906 L 106.453125 261.25 L 106.820313 265.863281 L 107.332031 270.460938 L 107.992188 275.042969 L 108.792969 279.601563 L 109.742188 284.128906 L 110.832031 288.628906 L 112.066406 293.089844 L 113.441406 297.507813 L 114.953125 301.878906 L 116.605469 306.203125 L 118.394531 310.472656 L 120.316406 314.679688 L 122.371094 318.828125 L 124.558594 322.90625 L 126.871094 326.914063 L 129.3125 330.847656 L 131.875 334.699219 L 134.558594 338.46875 L 137.363281 342.152344 L 140.28125 345.746094 L 143.308594 349.242188 L 146.449219 352.640625 L 149.695313 355.941406 L 153.046875 359.132813 L 156.496094 362.21875 L 160.039063 365.195313 L 163.675781 368.054688 L 167.402344 370.796875 L 171.214844 373.421875 L 175.109375 375.925781 L 179.078125 378.300781 L 183.125 380.550781 L 187.238281 382.671875 L 191.414063 384.660156 L 195.65625 386.515625 L 199.953125 388.238281 L 204.300781 389.820313 L 208.695313 391.265625 L 213.136719 392.566406 L 217.617188 393.730469 L 222.128906 394.75 L 226.675781 395.625 L 231.246094 396.355469 L 235.835938 396.941406 L 240.441406 397.382813 L 245.0625 397.675781 L 249.6875 397.824219 L 254.3125 397.824219 L 258.9375 397.675781 L 263.558594 397.382813 L 268.164063 396.941406 L 272.753906 396.355469 L 277.324219 395.625 L 281.871094 394.75 L 286.382813 393.730469 L 290.863281 392.566406 L 295.304688 391.265625 L 299.699219 389.820313 L 304.046875 388.238281 L 308.34375 386.515625 L 312.585938 384.660156 L 316.761719 382.671875 L 320.875 380.550781 L 324.921875 378.300781 L 328.890625 375.925781 L 332.785156 373.421875 L 336.597656 370.796875 L 340.324219 368.054688 L 343.960938 365.195313 L 347.503906 362.21875 L 350.953125 359.132813 L 354.304688 355.941406 L 357.550781 352.640625 L 360.691406 349.242188 L 363.71875 345.746094 L 366.636719 342.152344 L 369.441406 338.46875 L 372.125 334.699219 L 374.6875 330.847656 L 377.128906 326.914063 L 379.441406 322.90625 L 381.628906 318.828125 L 383.683594 314.679688 L 385.605469 310.472656 L 387.394531 306.203125 L 389.046875 301.878906 L 390.558594 297.507813 L 391.933594 293.089844 L 393.167969 288.628906 L 394.257813 284.128906 L 395.207031 279.601563 L 396.007813 275.042969 L 396.667969 270.460938 L 397.179688 265.863281 L 397.546875 261.25 L 397.765625 256.628906 L 397.839844 252 Z M 106.160156 252 "/>
<path style="fill:none;stroke-width:2.25;stroke-linecap:round;stroke-linejoin:round;stroke:rgb(0%,0%,0%);stroke-opacity:1;stroke-miterlimit:10;" d="M 106.160156 252 L 106.234375 256.628906 L 106.453125 261.25 L 106.820313 265.863281 L 107.332031 270.460938 L 107.992188 275.042969 L 108.792969 279.601563 L 109.742188 284.128906 L 110.832031 288.628906 L 112.066406 293.089844 L 113.441406 297.507813 L 114.953125 301.878906 L 116.605469 306.203125 L 118.394531 310.472656 L 120.316406 314.679688 L 122.371094 318.828125 L 124.558594 322.90625 L 126.871094 326.914063 L 129.3125 330.847656 L 131.875 334.699219 L 134.558594 338.46875 L 137.363281 342.152344 L 140.28125 345.746094 L 143.308594 349.242188 L 146.449219 352.640625 L 149.695313 355.941406 L 153.046875 359.132813 L 156.496094 362.21875 L 160.039063 365.195313 L 163.675781 368.054688 L 167.402344 370.796875 L 171.214844 373.421875 L 175.109375 375.925781 L 179.078125 378.300781 L 183.125 380.550781 L 187.238281 382.671875 L 191.414063 384.660156 L 195.65625 386.515625 L 199.953125 388.238281 L 204.300781 389.820313 L 208.695313 391.265625 L 213.136719 392.566406 L 217.617188 393.730469 L 222.128906 394.75 L 226.675781 395.625 L 231.246094 396.355469 L 235.835938 396.941406 L 240.441406 397.382813 L 245.0625 397.675781 L 249.6875 397.824219 L 254.3125 397.824219 L 258.9375 397.675781 L 263.558594 397.382813 L 268.164063 396.941406 L 272.753906 396.355469 L 277.324219 395.625 L 281.871094 394.75 L 286.382813 393.730469 L 290.863281 392.566406 L 295.304688 391.265625 L 299.699219 389.820313 L 304.046875 388.238281 L 308.34375 386.515625 L 312.585938 384.660156 L 316.761719 382.671875 L 320.875 380.550781 L 324.921875 378.300781 L 328.890625 375.925781 L 332.785156 373.421875 L 336.597656 370.796875 L 340.324219 368.054688 L 343.960938 365.195313 L 347.503906 362.21875 L 350.953125 359.132813 L 354.304688 355.941406 L 357.550781 352.640625 L 360.691406 349.242188 L 363.71875 345.746094 L 366.636719 342.152344 L 369.441406 338.46875 L 372.125 334.699219 L 374.6875 330.847656 L 377.128906 326.914063 L 379.441406 322.90625 L 381.628906 318.828125 L 383.683594 314.679688 L 385.605469 310.472656 L 387.394531 306.203125 L 389.046875 301.878906 L 390.558594 297.507813 L 391.933594 293.089844 L 393.167969 288.628906 L 394.257813 284.128906 L 395.207031 279.601563 L 396.007813 275.042969 L 396.667969 270.460938 L 397.179688 265.863281 L 397.546875 261.25 L 397.765625 256.628906 L 397.839844 252 Z M 106.160156 252 "/>
<path style="fill:none;stroke-width:2.25;stroke-linecap:round;stroke-linejoin:round;stroke:rgb(0%,0%,0%);stroke-opacity:1;stroke-miterlimit:10;" d="M 458.25 252 L 355.125 73.382813 L 148.875 73.382813 L 45.75 252 L 148.875 430.617188 L 355.125 430.617188 Z M 458.25 252 "/>
</g>
</svg>
