<?xml version="1.0" encoding="UTF-8"?>
<svg xmlns="http://www.w3.org/2000/svg" xmlns:xlink="http://www.w3.org/1999/xlink" width="504pt" height="504pt" viewBox="0 0 504 504" version="1.1">
<g id="surface2386">
<rect x="0" y="0" width="504" height="504" style="fill:rgb(100%,100%,100%);fill-opacity:1;stroke:none;"/>
<path style="fill-rule:nonzero;fill:rgb(0%,0%,0%);fill-opacity:1;stroke-width:2.25;stroke-linecap:round;stroke-linejoin:round;stroke:rgb(0%,0%,0%);stroke-opacity:1;stroke-miterlimit:10;" d="M 148.875 148.875 L 145.65625 152.199219 L 142.542969 155.625 L 139.539063 159.144531 L 136.648438 162.757813 L 133.875 166.464844 L 131.222656 170.253906 L 128.6875 174.128906 L 126.28125 178.078125 L 124 182.105469 L 121.84375 186.203125 L 119.824219 190.363281 L 117.933594 194.589844 L 116.179688 198.871094 L 114.5625 203.207031 L 113.085938 207.59375 L 111.746094 212.023438 L 110.546875 216.492188 L 109.492188 221 L 108.582031 225.535156 L 107.8125 230.101563 L 107.191406 234.6875 L 106.714844 239.289063 L 106.382813 243.90625 L 106.199219 248.53125 L 106.164063 253.15625 L 106.273438 257.785156 L 106.53125 262.402344 L 106.933594 267.015625 L 107.484375 271.609375 L 108.179688 276.183594 L 109.019531 280.734375 L 110 285.257813 L 111.128906 289.746094 L 112.398438 294.195313 L 113.804688 298.605469 L 115.355469 302.964844 L 117.039063 307.277344 L 118.863281 311.53125 L 120.816406 315.722656 L 122.90625 319.855469 L 125.125 323.917969 L 127.46875 327.90625 L 129.941406 331.816406 L 132.535156 335.652344 L 135.25 339.398438 L 138.082031 343.058594 L 141.027344 346.628906 L 144.085938 350.101563 L 147.25 353.476563 L 150.523438 356.75 L 153.898438 359.914063 L 157.371094 362.972656 L 160.941406 365.917969 L 164.601563 368.75 L 168.347656 371.464844 L 172.183594 374.058594 L 176.09375 376.53125 L 180.082031 378.875 L 184.144531 381.09375 L 188.277344 383.183594 L 192.46875 385.136719 L 196.722656 386.960938 L 201.035156 388.644531 L 205.394531 390.195313 L 209.804688 391.601563 L 214.253906 392.871094 L 218.742188 394 L 223.265625 394.980469 L 227.816406 395.820313 L 232.390625 396.515625 L 236.984375 397.066406 L 241.597656 397.46875 L 246.214844 397.726563 L 250.84375 397.835938 L 255.46875 397.800781 L 260.09375 397.617188 L 264.710938 397.285156 L 269.3125 396.808594 L 273.898438 396.1875 L 278.464844 395.417969 L 283 394.507813 L 287.507813 393.453125 L 291.976563 392.253906 L 296.40625 390.914063 L 300.792969 389.4375 L 305.128906 387.820313 L 309.410156 386.066406 L 313.636719 384.175781 L 317.796875 382.15625 L 321.894531 380 L 325.921875 377.71875 L 329.871094 375.3125 L 333.746094 372.777344 L 337.535156 370.125 L 341.242188 367.351563 L 344.855469 364.460938 L 348.375 361.457031 L 351.800781 358.34375 L 355.125 355.125 Z M 148.875 148.875 "/>
<path style="fill-rule:nonzero;fill:rgb(0%,0%,0%);fill-opacity:1;stroke-width:2.25;stroke-linecap:round;stroke-linejoin:round;stroke:rgb(0%,0%,0%);stroke-opacity:1;stroke-miterlimit:10;" d="M 148.875 148.875 L 145.65625 152.199219 L 142.542969 155.625 L 139.539063 159.144531 L 136.648438 162.757813 L 133.875 166.464844 L 131.222656 170.253906 L 128.6875 174.128906 L 126.28125 178.078125 L 124 182.105469 L 121.84375 186.203125 L 119.824219 190.363281 L 117.933594 194.589844 L 116.179688 198.871094 L 114.5625 203.207031 L 113.085938 207.59375 L 111.746094 212.023438 L 110.546875 216.492188 L 109.492188 221 L 108.582031 225.535156 L 107.8125 230.101563 L 107.191406 234.6875 L 106.714844 239.289063 L 106.382813 243.90625 L 106.199219 248.53125 L 106.164063 253.15625 L 106.273438 257.785156 L 106.53125 262.402344 L 106.933594 267.015625 L 107.484375 271.609375 L 108.179688 276.183594 L 109.019531 280.734375 L 110 285.257813 L 111.128906 289.746094 L 112.398438 294.195313 L 113.804688 298.605469 L 115.355469 302.964844 L 117.039063 307.277344 L 118.863281 311.53125 L 120.816406 315.722656 L 122.90625 319.855469 L 125.125 323.917969 L 127.46875 327.90625 L 129.941406 331.816406 L 132.535156 335.652344 L 135.25 339.398438 L 138.082031 343.058594 L 141.027344 346.628906 L 144.085938 350.101563 L 147.25 353.476563 L 150.523438 356.75 L 153.898438 359.914063 L 157.371094 362.972656 L 160.941406 365.917969 L 164.601563 368.75 L 168.347656 371.464844 L 172.183594 374.058594 L 176.09375 376.53125 L 180.082031 378.875 L 184.144531 381.09375 L 188.277344 383.183594 L 192.46875 385.136719 L 196.722656 386.960938 L 201.035156 388.644531 L 205.394531 390.195313 L 209.804688 391.601563 L 214.253906 392.871094 L 218.742188 394 L 223.265625 394.980469 L 227.816406 395.820313 L 232.390625 396.515625 L 236.984375 397.066406 L 241.597656 397.46875 L 246.214844 397.726563 L 250.84375 397.835938 L 255.46875 397.800781 L 260.09375 397.617188 L 264.710938 397.285156 L 269.3125 396.808594 L 273.898438 396.1875 L 278.464844 395.417969 L 283 394.507813 L 287.507813 393.453125 L 291.976563 392.253906 L 296.40625 390.914063 L 300.792969 389.4375 L 305.128906 387.820313 L 309.410156 386.066406 L 313.636719 384.175781 L 317.796875 382.15625 L 321.894531 380 L 325.921875 377.71875 L 329.871094 375.3125 L 333.746094 372.777344 L 337.535156 370.125 L 341.242188 367.351563 L 344.855469 364.460938 L 348.375 361.457031 L 351.800781 358.34375 L 355.125 355.125 Z M 148.875 148.875 "/>
<path style="fill:none;stroke-width:2.25;stroke-linecap:round;stroke-linejoin:round;stroke:rgb(0%,0%,0%);stroke-opacity:1;stroke-miterlimit:10;" d="M 148.875 148.875 L 145.65625 152.199219 L 142.542969 155.625 L 139.539063 159.144531 L 136.648438 162.757813 L 133.875 166.464844 L 131.222656 170.253906 L 128.6875 174.128906 L 126.28125 178.078125 L 124 182.105469 L 121.84375 186.203125 L 119.824219 190.363281 L 117.933594 194.589844 L 116.179688 198.871094 L 114.5625 203.207031 L 113.085938 207.59375 L 111.746094 212.023438 L 110.546875 216.492188 L 109.492188 221 L 108.582031 225.535156 L 107.8125 230.101563 L 107.191406 234.6875 L 106.714844 239.289063 L 106.382813 243.90625 L 106.199219 248.53125 L 106.164063 253.15625 L 106.273438 257.785156 L 106.53125 262.402344 L 106.933594 267.015625 L 107.484375 271.609375 L 108.179688 276.183594 L 109.019531 280.734375 L 110 285.257813 L 111.128906 289.746094 L 112.398438 294.195313 L 113.804688 298.605469 L 115.355469 302.964844 L 117.039063 307.277344 L 118.863281 311.53125 L 120.816406 315.722656 L 122.90625 319.855469 L 125.125 323.917969 L 127.46875 327.90625 L 129.941406 331.816406 L 132.535156 335.652344 L 135.25 339.398438 L 138.082031 343.058594 L 141.027344 346.628906 L 144.085938 350.101563 L 147.25 353.476563 L 150.523438 356.75 L 153.898438 359.914063 L 157.371094 362.972656 L 160.941406 365.917969 L 164.601563 368.75 L 168.347656 371.464844 L 172.183594 374.058594 L 176.09375 376.53125 L 180.082031 378.875 L 184.144531 381.09375 L 188.277344 383.183594 L 192.46875 385.136719 L 196.722656 386.960938 L 201.035156 388.644531 L 205.394531 390.195313 L 209.804688 391.601563 L 214.253906 392.871094 L 218.742188 394 L 223.265625 394.980469 L 227.816406 395.820313 L 232.390625 396.515625 L 236.984375 397.066406 L 241.597656 397.46875 L 246.214844 397.726563 L 250.84375 397.835938 L 255.46875 397.800781 L 260.09375 397.617188 L 264.710938 397.285156 L 269.3125 396.808594 L 273.898438 396.1875 L 278.464844 395.417969 L 283 394.507813 L 287.507813 393.453125 L 291.976563 392.253906 L 296.40625 390.914063 L 300.792969 389.4375 L 305.128906 387.820313 L 309.410156 386.066406 L 313.636719 384.175781 L 317.796875 382.15625 L 321.894531 380 L 325.921875 377.71875 L 329.871094 375.3125 L 333.746094 372.777344 L 337.535156 370.125 L 341.242188 367.351563 L 344.855469 364.460938 L 348.375 361.457031 L 351.800781 358.34375 L 355.125 355.125 Z M 148.875 148.875 "/>
<path style="fill:none;stroke-width:2.25;stroke-linecap:round;stroke-linejoin:round;stroke:rgb(0%,0%,0%);stroke-opacity:1;stroke-miterlimit:10;" d="M 458.25 252 L 355.125 73.382813 L 148.875 73.382813 L 45.75 252 L 148.875 430.617188 L 355.125 430.617188 Z M 458.25 252 "/>
</g>
</svg>
