<?xml version="1.0" encoding="UTF-8"?>
<svg xmlns="http://www.w3.org/2000/svg" xmlns:xlink="http://www.w3.org/1999/xlink" width="991pt" height="585pt" viewBox="0 0 991 585" version="1.1">
<g id="surface1086">
<rect x="0" y="0" width="991" height="585" style="fill:rgb(100%,100%,100%);fill-opacity:1;stroke:none;"/>
<path style="fill:none;stroke-width:2.25;stroke-linecap:round;stroke-linejoin:round;stroke:rgb(0%,0%,0%);stroke-opacity:1;stroke-miterlimit:10;" d="M 924.484375 480.296875 L 924.484375 49.984375 Z M 924.484375 480.296875 "/>
<path style="fill:none;stroke-width:2.25;stroke-linecap:round;stroke-linejoin:round;stroke:rgb(0%,0%,0%);stroke-opacity:1;stroke-miterlimit:10;" d="M 121.234375 480.296875 L 121.234375 49.984375 Z M 121.234375 480.296875 "/>
<path style="fill:none;stroke-width:2.25;stroke-linecap:round;stroke-linejoin:round;stroke:rgb(0%,0%,0%);stroke-opacity:1;stroke-miterlimit:10;" d="M 520.039063 267.960938 L 518.820313 266.765625 L 517.585938 265.585938 L 516.332031 264.429688 L 515.0625 263.289063 L 513.769531 262.171875 L 512.464844 261.074219 L 511.136719 260 L 509.796875 258.945313 L 508.4375 257.910156 L 507.0625 256.898438 L 505.671875 255.90625 L 504.269531 254.941406 L 502.847656 253.996094 L 501.410156 253.070313 L 499.960938 252.171875 L 498.496094 251.292969 L 497.019531 250.441406 L 495.527344 249.613281 L 494.023438 248.804688 L 492.503906 248.023438 L 490.976563 247.265625 L 489.433594 246.53125 L 487.882813 245.824219 L 486.316406 245.136719 L 484.742188 244.480469 L 483.160156 243.84375 L 481.5625 243.234375 L 479.960938 242.652344 L 478.347656 242.09375 L 476.726563 241.5625 L 475.09375 241.054688 L 473.457031 240.574219 L 471.8125 240.117188 L 470.160156 239.691406 L 468.5 239.285156 L 466.835938 238.910156 L 465.167969 238.5625 L 463.488281 238.238281 L 461.808594 237.941406 L 460.125 237.671875 L 458.433594 237.429688 L 456.742188 237.214844 L 455.042969 237.023438 L 453.34375 236.863281 L 451.644531 236.726563 L 449.941406 236.617188 L 448.234375 236.539063 L 446.53125 236.484375 L 444.824219 236.457031 L 443.117188 236.457031 L 441.410156 236.484375 L 439.703125 236.539063 L 438 236.617188 L 436.292969 236.726563 L 434.59375 236.863281 L 432.894531 237.023438 L 431.199219 237.214844 L 429.503906 237.429688 L 427.816406 237.671875 L 426.128906 237.941406 L 424.449219 238.238281 L 422.773438 238.5625 L 421.101563 238.910156 L 419.4375 239.285156 L 417.777344 239.691406 L 416.125 240.117188 L 414.480469 240.574219 L 412.84375 241.054688 L 411.214844 241.5625 L 409.589844 242.09375 L 407.980469 242.652344 L 406.375 243.234375 L 404.78125 243.84375 L 403.195313 244.480469 L 401.621094 245.136719 L 400.058594 245.824219 L 398.503906 246.53125 L 396.964844 247.265625 L 395.433594 248.023438 L 393.917969 248.804688 L 392.414063 249.613281 L 390.921875 250.441406 L 389.441406 251.292969 L 387.976563 252.171875 L 386.527344 253.070313 L 385.09375 253.996094 L 383.671875 254.941406 L 382.265625 255.90625 L 380.875 256.898438 L 379.5 257.910156 L 378.140625 258.945313 L 376.800781 260 L 375.476563 261.074219 L 374.167969 262.171875 L 372.878906 263.289063 L 371.605469 264.429688 L 370.351563 265.585938 L 369.117188 266.765625 L 367.898438 267.960938 L 369.117188 266.765625 L 370.351563 265.585938 L 371.605469 264.429688 L 372.878906 263.289063 L 374.167969 262.171875 L 375.476563 261.074219 L 376.800781 260 L 378.140625 258.945313 L 379.5 257.910156 L 380.875 256.898438 L 382.265625 255.90625 L 383.671875 254.941406 L 385.09375 253.996094 L 386.527344 253.070313 L 387.976563 252.171875 L 389.441406 251.292969 L 390.921875 250.441406 L 392.414063 249.613281 L 393.917969 248.804688 L 395.433594 248.023438 L 396.964844 247.265625 L 398.503906 246.53125 L 400.058594 245.824219 L 401.621094 245.136719 L 403.195313 244.480469 L 404.78125 243.84375 L 406.375 243.234375 L 407.980469 242.652344 L 409.589844 242.09375 L 411.214844 241.5625 L 412.84375 241.054688 L 414.480469 240.574219 L 416.125 240.117188 L 417.777344 239.691406 L 419.4375 239.285156 L 421.101563 238.910156 L 422.773438 238.5625 L 424.449219 238.238281 L 426.128906 237.941406 L 427.816406 237.671875 L 429.503906 237.429688 L 431.199219 237.214844 L 432.894531 237.023438 L 434.59375 236.863281 L 436.292969 236.726563 L 438 236.617188 L 439.703125 236.539063 L 441.410156 236.484375 L 443.117188 236.457031 L 444.824219 236.457031 L 446.53125 236.484375 L 448.234375 236.539063 L 449.941406 236.617188 L 451.644531 236.726563 L 453.34375 236.863281 L 455.042969 237.023438 L 456.742188 237.214844 L 458.433594 237.429688 L 460.125 237.671875 L 461.808594 237.941406 L 463.488281 238.238281 L 465.167969 238.5625 L 466.835938 238.910156 L 468.5 239.285156 L 470.160156 239.691406 L 471.8125 240.117188 L 473.457031 240.574219 L 475.09375 241.054688 L 476.726563 241.5625 L 478.347656 242.09375 L 479.960938 242.652344 L 481.5625 243.234375 L 483.160156 243.84375 L 484.742188 244.480469 L 486.316406 245.136719 L 487.882813 245.824219 L 489.433594 246.53125 L 490.976563 247.265625 L 492.503906 248.023438 L 494.023438 248.804688 L 495.527344 249.613281 L 497.019531 250.441406 L 498.496094 251.292969 L 499.960938 252.171875 L 501.410156 253.070313 L 502.847656 253.996094 L 504.269531 254.941406 L 505.671875 255.90625 L 507.0625 256.898438 L 508.4375 257.910156 L 509.796875 258.945313 L 511.136719 260 L 512.464844 261.074219 L 513.769531 262.171875 L 515.0625 263.289063 L 516.332031 264.429688 L 517.585938 265.585938 L 518.820313 266.765625 Z M 520.039063 267.960938 "/>
<path style="fill:none;stroke-width:2.25;stroke-linecap:round;stroke-linejoin:round;stroke:rgb(0%,0%,0%);stroke-opacity:1;stroke-miterlimit:10;" d="M 518.507813 269.492188 L 519.726563 270.6875 L 520.960938 271.867188 L 522.214844 273.023438 L 523.488281 274.160156 L 524.777344 275.28125 L 526.085938 276.375 L 527.410156 277.453125 L 528.75 278.507813 L 530.109375 279.542969 L 531.484375 280.554688 L 532.875 281.542969 L 534.28125 282.511719 L 535.703125 283.457031 L 537.136719 284.378906 L 538.585938 285.28125 L 540.050781 286.15625 L 541.53125 287.011719 L 543.023438 287.839844 L 544.527344 288.644531 L 546.042969 289.429688 L 547.574219 290.1875 L 549.113281 290.921875 L 550.667969 291.628906 L 552.230469 292.3125 L 553.804688 292.972656 L 555.390625 293.605469 L 556.984375 294.214844 L 558.589844 294.800781 L 560.199219 295.359375 L 561.824219 295.890625 L 563.453125 296.398438 L 565.089844 296.878906 L 566.734375 297.332031 L 568.386719 297.761719 L 570.046875 298.164063 L 571.710938 298.539063 L 573.382813 298.890625 L 575.058594 299.214844 L 576.738281 299.511719 L 578.425781 299.78125 L 580.113281 300.023438 L 581.808594 300.238281 L 583.503906 300.429688 L 585.203125 300.589844 L 586.902344 300.726563 L 588.609375 300.832031 L 590.3125 300.914063 L 592.019531 300.96875 L 593.726563 300.996094 L 595.433594 300.996094 L 597.140625 300.96875 L 598.84375 300.914063 L 600.550781 300.832031 L 602.253906 300.726563 L 603.953125 300.589844 L 605.652344 300.429688 L 607.351563 300.238281 L 609.042969 300.023438 L 610.734375 299.78125 L 612.417969 299.511719 L 614.097656 299.214844 L 615.777344 298.890625 L 617.445313 298.539063 L 619.109375 298.164063 L 620.769531 297.761719 L 622.421875 297.332031 L 624.066406 296.878906 L 625.703125 296.398438 L 627.335938 295.890625 L 628.957031 295.359375 L 630.570313 294.800781 L 632.171875 294.214844 L 633.769531 293.605469 L 635.351563 292.972656 L 636.925781 292.3125 L 638.492188 291.628906 L 640.042969 290.921875 L 641.585938 290.1875 L 643.113281 289.429688 L 644.632813 288.644531 L 646.136719 287.839844 L 647.628906 287.011719 L 649.105469 286.15625 L 650.570313 285.28125 L 652.019531 284.378906 L 653.457031 283.457031 L 654.878906 282.511719 L 656.28125 281.542969 L 657.671875 280.554688 L 659.046875 279.542969 L 660.40625 278.507813 L 661.746094 277.453125 L 663.074219 276.375 L 664.378906 275.28125 L 665.671875 274.160156 L 666.941406 273.023438 L 668.195313 271.867188 L 669.429688 270.6875 L 670.648438 269.492188 L 669.429688 270.6875 L 668.195313 271.867188 L 666.941406 273.023438 L 665.671875 274.160156 L 664.378906 275.28125 L 663.074219 276.375 L 661.746094 277.453125 L 660.40625 278.507813 L 659.046875 279.542969 L 657.671875 280.554688 L 656.28125 281.542969 L 654.878906 282.511719 L 653.457031 283.457031 L 652.019531 284.378906 L 650.570313 285.28125 L 649.105469 286.15625 L 647.628906 287.011719 L 646.136719 287.839844 L 644.632813 288.644531 L 643.113281 289.429688 L 641.585938 290.1875 L 640.042969 290.921875 L 638.492188 291.628906 L 636.925781 292.3125 L 635.351563 292.972656 L 633.769531 293.605469 L 632.171875 294.214844 L 630.570313 294.800781 L 628.957031 295.359375 L 627.335938 295.890625 L 625.703125 296.398438 L 624.066406 296.878906 L 622.421875 297.332031 L 620.769531 297.761719 L 619.109375 298.164063 L 617.445313 298.539063 L 615.777344 298.890625 L 614.097656 299.214844 L 612.417969 299.511719 L 610.734375 299.78125 L 609.042969 300.023438 L 607.351563 300.238281 L 605.652344 300.429688 L 603.953125 300.589844 L 602.253906 300.726563 L 600.550781 300.832031 L 598.84375 300.914063 L 597.140625 300.96875 L 595.433594 300.996094 L 593.726563 300.996094 L 592.019531 300.96875 L 590.3125 300.914063 L 588.609375 300.832031 L 586.902344 300.726563 L 585.203125 300.589844 L 583.503906 300.429688 L 581.808594 300.238281 L 580.113281 300.023438 L 578.425781 299.78125 L 576.738281 299.511719 L 575.058594 299.214844 L 573.382813 298.890625 L 571.710938 298.539063 L 570.046875 298.164063 L 568.386719 297.761719 L 566.734375 297.332031 L 565.089844 296.878906 L 563.453125 296.398438 L 561.824219 295.890625 L 560.199219 295.359375 L 558.589844 294.800781 L 556.984375 294.214844 L 555.390625 293.605469 L 553.804688 292.972656 L 552.230469 292.3125 L 550.667969 291.628906 L 549.113281 290.921875 L 547.574219 290.1875 L 546.042969 289.429688 L 544.527344 288.644531 L 543.023438 287.839844 L 541.53125 287.011719 L 540.050781 286.15625 L 538.585938 285.28125 L 537.136719 284.378906 L 535.703125 283.457031 L 534.28125 282.511719 L 532.875 281.542969 L 531.484375 280.554688 L 530.109375 279.542969 L 528.75 278.507813 L 527.410156 277.453125 L 526.085938 276.375 L 524.777344 275.28125 L 523.488281 274.160156 L 522.214844 273.023438 L 520.960938 271.867188 L 519.726563 270.6875 Z M 518.507813 269.492188 "/>
<path style="fill:none;stroke-width:2.25;stroke-linecap:round;stroke-linejoin:round;stroke:rgb(0%,0%,0%);stroke-opacity:1;stroke-miterlimit:10;" d="M 367.898438 269.492188 L 369.117188 270.6875 L 370.351563 271.867188 L 371.605469 273.023438 L 372.878906 274.160156 L 374.167969 275.28125 L 375.476563 276.375 L 376.800781 277.453125 L 378.140625 278.507813 L 379.5 279.542969 L 380.875 280.554688 L 382.265625 281.542969 L 383.671875 282.511719 L 385.09375 283.457031 L 386.527344 284.378906 L 387.976563 285.28125 L 389.441406 286.15625 L 390.921875 287.011719 L 392.414063 287.839844 L 393.917969 288.644531 L 395.433594 289.429688 L 396.964844 290.1875 L 398.503906 290.921875 L 400.058594 291.628906 L 401.621094 292.3125 L 403.195313 292.972656 L 404.78125 293.605469 L 406.375 294.214844 L 407.980469 294.800781 L 409.589844 295.359375 L 411.214844 295.890625 L 412.84375 296.398438 L 414.480469 296.878906 L 416.125 297.332031 L 417.777344 297.761719 L 419.4375 298.164063 L 421.101563 298.539063 L 422.773438 298.890625 L 424.449219 299.214844 L 426.128906 299.511719 L 427.816406 299.78125 L 429.503906 300.023438 L 431.199219 300.238281 L 432.894531 300.429688 L 434.59375 300.589844 L 436.292969 300.726563 L 438 300.832031 L 439.703125 300.914063 L 441.410156 300.96875 L 443.117188 300.996094 L 444.824219 300.996094 L 446.53125 300.96875 L 448.234375 300.914063 L 449.941406 300.832031 L 451.644531 300.726563 L 453.34375 300.589844 L 455.042969 300.429688 L 456.742188 300.238281 L 458.433594 300.023438 L 460.125 299.78125 L 461.808594 299.511719 L 463.488281 299.214844 L 465.167969 298.890625 L 466.835938 298.539063 L 468.5 298.164063 L 470.160156 297.761719 L 471.8125 297.332031 L 473.457031 296.878906 L 475.09375 296.398438 L 476.726563 295.890625 L 478.347656 295.359375 L 479.960938 294.800781 L 481.5625 294.214844 L 483.160156 293.605469 L 484.742188 292.972656 L 486.316406 292.3125 L 487.882813 291.628906 L 489.433594 290.921875 L 490.976563 290.1875 L 492.503906 289.429688 L 494.023438 288.644531 L 495.527344 287.839844 L 497.019531 287.011719 L 498.496094 286.15625 L 499.960938 285.28125 L 501.410156 284.378906 L 502.847656 283.457031 L 504.269531 282.511719 L 505.671875 281.542969 L 507.0625 280.554688 L 508.4375 279.542969 L 509.796875 278.507813 L 511.136719 277.453125 L 512.464844 276.375 L 513.769531 275.28125 L 515.0625 274.160156 L 516.332031 273.023438 L 517.585938 271.867188 L 518.820313 270.6875 L 520.039063 269.492188 L 518.820313 270.6875 L 517.585938 271.867188 L 516.332031 273.023438 L 515.0625 274.160156 L 513.769531 275.28125 L 512.464844 276.375 L 511.136719 277.453125 L 509.796875 278.507813 L 508.4375 279.542969 L 507.0625 280.554688 L 505.671875 281.542969 L 504.269531 282.511719 L 502.847656 283.457031 L 501.410156 284.378906 L 499.960938 285.28125 L 498.496094 286.15625 L 497.019531 287.011719 L 495.527344 287.839844 L 494.023438 288.644531 L 492.503906 289.429688 L 490.976563 290.1875 L 489.433594 290.921875 L 487.882813 291.628906 L 486.316406 292.3125 L 484.742188 292.972656 L 483.160156 293.605469 L 481.5625 294.214844 L 479.960938 294.800781 L 478.347656 295.359375 L 476.726563 295.890625 L 475.09375 296.398438 L 473.457031 296.878906 L 471.8125 297.332031 L 470.160156 297.761719 L 468.5 298.164063 L 466.835938 298.539063 L 465.167969 298.890625 L 463.488281 299.214844 L 461.808594 299.511719 L 460.125 299.78125 L 458.433594 300.023438 L 456.742188 300.238281 L 455.042969 300.429688 L 453.34375 300.589844 L 451.644531 300.726563 L 449.941406 300.832031 L 448.234375 300.914063 L 446.53125 300.96875 L 444.824219 300.996094 L 443.117188 300.996094 L 441.410156 300.96875 L 439.703125 300.914063 L 438 300.832031 L 436.292969 300.726563 L 434.59375 300.589844 L 432.894531 300.429688 L 431.199219 300.238281 L 429.503906 300.023438 L 427.816406 299.78125 L 426.128906 299.511719 L 424.449219 299.214844 L 422.773438 298.890625 L 421.101563 298.539063 L 419.4375 298.164063 L 417.777344 297.761719 L 416.125 297.332031 L 414.480469 296.878906 L 412.84375 296.398438 L 411.214844 295.890625 L 409.589844 295.359375 L 407.980469 294.800781 L 406.375 294.214844 L 404.78125 293.605469 L 403.195313 292.972656 L 401.621094 292.3125 L 400.058594 291.628906 L 398.503906 290.921875 L 396.964844 290.1875 L 395.433594 289.429688 L 393.917969 288.644531 L 392.414063 287.839844 L 390.921875 287.011719 L 389.441406 286.15625 L 387.976563 285.28125 L 386.527344 284.378906 L 385.09375 283.457031 L 383.671875 282.511719 L 382.265625 281.542969 L 380.875 280.554688 L 379.5 279.542969 L 378.140625 278.507813 L 376.800781 277.453125 L 375.476563 276.375 L 374.167969 275.28125 L 372.878906 274.160156 L 371.605469 273.023438 L 370.351563 271.867188 L 369.117188 270.6875 Z M 367.898438 269.492188 "/>
<path style="fill:none;stroke-width:2.25;stroke-linecap:round;stroke-linejoin:round;stroke:rgb(0%,0%,0%);stroke-opacity:1;stroke-miterlimit:10;" d="M 672.082031 267.960938 L 670.867188 266.765625 L 669.628906 265.585938 L 668.375 264.429688 L 667.105469 263.289063 L 665.816406 262.171875 L 664.507813 261.074219 L 663.183594 260 L 661.839844 258.945313 L 660.480469 257.910156 L 659.109375 256.898438 L 657.71875 255.90625 L 656.3125 254.941406 L 654.890625 253.996094 L 653.453125 253.070313 L 652.003906 252.171875 L 650.539063 251.292969 L 649.0625 250.441406 L 647.570313 249.613281 L 646.066406 248.804688 L 644.546875 248.023438 L 643.019531 247.265625 L 641.476563 246.53125 L 639.925781 245.824219 L 638.359375 245.136719 L 636.785156 244.480469 L 635.203125 243.84375 L 633.609375 243.234375 L 632.003906 242.652344 L 630.390625 242.09375 L 628.769531 241.5625 L 627.140625 241.054688 L 625.5 240.574219 L 623.855469 240.117188 L 622.203125 239.691406 L 620.546875 239.285156 L 618.878906 238.910156 L 617.210938 238.5625 L 615.535156 238.238281 L 613.851563 237.941406 L 612.167969 237.671875 L 610.476563 237.429688 L 608.785156 237.214844 L 607.089844 237.023438 L 605.390625 236.863281 L 603.6875 236.726563 L 601.984375 236.617188 L 600.277344 236.539063 L 598.574219 236.484375 L 596.867188 236.457031 L 595.160156 236.457031 L 593.453125 236.484375 L 591.746094 236.539063 L 590.042969 236.617188 L 588.339844 236.726563 L 586.636719 236.863281 L 584.9375 237.023438 L 583.242188 237.214844 L 581.546875 237.429688 L 579.859375 237.671875 L 578.171875 237.941406 L 576.492188 238.238281 L 574.816406 238.5625 L 573.144531 238.910156 L 571.480469 239.285156 L 569.820313 239.691406 L 568.167969 240.117188 L 566.523438 240.574219 L 564.886719 241.054688 L 563.257813 241.5625 L 561.636719 242.09375 L 560.023438 242.652344 L 558.417969 243.234375 L 556.824219 243.84375 L 555.238281 244.480469 L 553.664063 245.136719 L 552.101563 245.824219 L 550.546875 246.53125 L 549.007813 247.265625 L 547.476563 248.023438 L 545.960938 248.804688 L 544.457031 249.613281 L 542.964844 250.441406 L 541.488281 251.292969 L 540.023438 252.171875 L 538.570313 253.070313 L 537.136719 253.996094 L 535.714844 254.941406 L 534.308594 255.90625 L 532.917969 256.898438 L 531.542969 257.910156 L 530.1875 258.945313 L 528.84375 260 L 527.519531 261.074219 L 526.210938 262.171875 L 524.921875 263.289063 L 523.648438 264.429688 L 522.394531 265.585938 L 521.160156 266.765625 L 519.945313 267.960938 L 521.160156 266.765625 L 522.394531 265.585938 L 523.648438 264.429688 L 524.921875 263.289063 L 526.210938 262.171875 L 527.519531 261.074219 L 528.84375 260 L 530.1875 258.945313 L 531.542969 257.910156 L 532.917969 256.898438 L 534.308594 255.90625 L 535.714844 254.941406 L 537.136719 253.996094 L 538.570313 253.070313 L 540.023438 252.171875 L 541.488281 251.292969 L 542.964844 250.441406 L 544.457031 249.613281 L 545.960938 248.804688 L 547.476563 248.023438 L 549.007813 247.265625 L 550.546875 246.53125 L 552.101563 245.824219 L 553.664063 245.136719 L 555.238281 244.480469 L 556.824219 243.84375 L 558.417969 243.234375 L 560.023438 242.652344 L 561.636719 242.09375 L 563.257813 241.5625 L 564.886719 241.054688 L 566.523438 240.574219 L 568.167969 240.117188 L 569.820313 239.691406 L 571.480469 239.285156 L 573.144531 238.910156 L 574.816406 238.5625 L 576.492188 238.238281 L 578.171875 237.941406 L 579.859375 237.671875 L 581.546875 237.429688 L 583.242188 237.214844 L 584.9375 237.023438 L 586.636719 236.863281 L 588.339844 236.726563 L 590.042969 236.617188 L 591.746094 236.539063 L 593.453125 236.484375 L 595.160156 236.457031 L 596.867188 236.457031 L 598.574219 236.484375 L 600.277344 236.539063 L 601.984375 236.617188 L 603.6875 236.726563 L 605.390625 236.863281 L 607.089844 237.023438 L 608.785156 237.214844 L 610.476563 237.429688 L 612.167969 237.671875 L 613.851563 237.941406 L 615.535156 238.238281 L 617.210938 238.5625 L 618.878906 238.910156 L 620.546875 239.285156 L 622.203125 239.691406 L 623.855469 240.117188 L 625.5 240.574219 L 627.140625 241.054688 L 628.769531 241.5625 L 630.390625 242.09375 L 632.003906 242.652344 L 633.609375 243.234375 L 635.203125 243.84375 L 636.785156 244.480469 L 638.359375 245.136719 L 639.925781 245.824219 L 641.476563 246.53125 L 643.019531 247.265625 L 644.546875 248.023438 L 646.066406 248.804688 L 647.570313 249.613281 L 649.0625 250.441406 L 650.539063 251.292969 L 652.003906 252.171875 L 653.453125 253.070313 L 654.890625 253.996094 L 656.3125 254.941406 L 657.71875 255.90625 L 659.109375 256.898438 L 660.480469 257.910156 L 661.839844 258.945313 L 663.183594 260 L 664.507813 261.074219 L 665.816406 262.171875 L 667.105469 263.289063 L 668.375 264.429688 L 669.628906 265.585938 L 670.867188 266.765625 Z M 672.082031 267.960938 "/>
<path style="fill:none;stroke-width:2.25;stroke-linecap:round;stroke-linejoin:round;stroke:rgb(0%,0%,0%);stroke-opacity:1;stroke-miterlimit:10;" d="M 520.039063 269.492188 L 521.234375 268.273438 L 522.414063 267.039063 L 523.570313 265.785156 L 524.710938 264.511719 L 525.828125 263.222656 L 526.925781 261.914063 L 528 260.589844 L 529.054688 259.25 L 530.089844 257.890625 L 531.101563 256.515625 L 532.09375 255.125 L 533.058594 253.71875 L 534.003906 252.296875 L 534.929688 250.863281 L 535.828125 249.414063 L 536.707031 247.949219 L 537.558594 246.46875 L 538.386719 244.976563 L 539.195313 243.472656 L 539.976563 241.957031 L 540.734375 240.425781 L 541.46875 238.886719 L 542.175781 237.332031 L 542.863281 235.769531 L 543.519531 234.195313 L 544.15625 232.609375 L 544.765625 231.015625 L 545.347656 229.410156 L 545.90625 227.800781 L 546.4375 226.175781 L 546.945313 224.546875 L 547.425781 222.910156 L 547.882813 221.265625 L 548.308594 219.613281 L 548.714844 217.953125 L 549.089844 216.289063 L 549.4375 214.617188 L 549.761719 212.941406 L 550.058594 211.261719 L 550.328125 209.574219 L 550.570313 207.886719 L 550.785156 206.191406 L 550.976563 204.496094 L 551.136719 202.796875 L 551.273438 201.097656 L 551.382813 199.390625 L 551.460938 197.6875 L 551.515625 195.980469 L 551.542969 194.273438 L 551.542969 192.566406 L 551.515625 190.859375 L 551.460938 189.15625 L 551.382813 187.449219 L 551.273438 185.746094 L 551.136719 184.046875 L 550.976563 182.347656 L 550.785156 180.648438 L 550.570313 178.957031 L 550.328125 177.265625 L 550.058594 175.582031 L 549.761719 173.902344 L 549.4375 172.222656 L 549.089844 170.554688 L 548.714844 168.890625 L 548.308594 167.230469 L 547.882813 165.578125 L 547.425781 163.933594 L 546.945313 162.296875 L 546.4375 160.664063 L 545.90625 159.042969 L 545.347656 157.429688 L 544.765625 155.828125 L 544.15625 154.230469 L 543.519531 152.648438 L 542.863281 151.074219 L 542.175781 149.507813 L 541.46875 147.957031 L 540.734375 146.414063 L 539.976563 144.886719 L 539.195313 143.367188 L 538.386719 141.863281 L 537.558594 140.371094 L 536.707031 138.894531 L 535.828125 137.429688 L 534.929688 135.980469 L 534.003906 134.542969 L 533.058594 133.121094 L 532.09375 131.71875 L 531.101563 130.328125 L 530.089844 128.953125 L 529.054688 127.59375 L 528 126.253906 L 526.925781 124.925781 L 525.828125 123.621094 L 524.710938 122.328125 L 523.570313 121.058594 L 522.414063 119.804688 L 521.234375 118.570313 L 520.039063 117.351563 L 521.234375 118.570313 L 522.414063 119.804688 L 523.570313 121.058594 L 524.710938 122.328125 L 525.828125 123.621094 L 526.925781 124.925781 L 528 126.253906 L 529.054688 127.59375 L 530.089844 128.953125 L 531.101563 130.328125 L 532.09375 131.71875 L 533.058594 133.121094 L 534.003906 134.542969 L 534.929688 135.980469 L 535.828125 137.429688 L 536.707031 138.894531 L 537.558594 140.371094 L 538.386719 141.863281 L 539.195313 143.367188 L 539.976563 144.886719 L 540.734375 146.414063 L 541.46875 147.957031 L 542.175781 149.507813 L 542.863281 151.074219 L 543.519531 152.648438 L 544.15625 154.230469 L 544.765625 155.828125 L 545.347656 157.429688 L 545.90625 159.042969 L 546.4375 160.664063 L 546.945313 162.296875 L 547.425781 163.933594 L 547.882813 165.578125 L 548.308594 167.230469 L 548.714844 168.890625 L 549.089844 170.554688 L 549.4375 172.222656 L 549.761719 173.902344 L 550.058594 175.582031 L 550.328125 177.265625 L 550.570313 178.957031 L 550.785156 180.648438 L 550.976563 182.347656 L 551.136719 184.046875 L 551.273438 185.746094 L 551.382813 187.449219 L 551.460938 189.15625 L 551.515625 190.859375 L 551.542969 192.566406 L 551.542969 194.273438 L 551.515625 195.980469 L 551.460938 197.6875 L 551.382813 199.390625 L 551.273438 201.097656 L 551.136719 202.796875 L 550.976563 204.496094 L 550.785156 206.191406 L 550.570313 207.886719 L 550.328125 209.574219 L 550.058594 211.261719 L 549.761719 212.941406 L 549.4375 214.617188 L 549.089844 216.289063 L 548.714844 217.953125 L 548.308594 219.613281 L 547.882813 221.265625 L 547.425781 222.910156 L 546.945313 224.546875 L 546.4375 226.175781 L 545.90625 227.800781 L 545.347656 229.410156 L 544.765625 231.015625 L 544.15625 232.609375 L 543.519531 234.195313 L 542.863281 235.769531 L 542.175781 237.332031 L 541.46875 238.886719 L 540.734375 240.425781 L 539.976563 241.957031 L 539.195313 243.472656 L 538.386719 244.976563 L 537.558594 246.46875 L 536.707031 247.949219 L 535.828125 249.414063 L 534.929688 250.863281 L 534.003906 252.296875 L 533.058594 253.71875 L 532.09375 255.125 L 531.101563 256.515625 L 530.089844 257.890625 L 529.054688 259.25 L 528 260.589844 L 526.925781 261.914063 L 525.828125 263.222656 L 524.710938 264.511719 L 523.570313 265.785156 L 522.414063 267.039063 L 521.234375 268.273438 Z M 520.039063 269.492188 "/>
<path style="fill:none;stroke-width:2.25;stroke-linecap:round;stroke-linejoin:round;stroke:rgb(0%,0%,0%);stroke-opacity:1;stroke-miterlimit:10;" d="M 519.945313 267.960938 L 518.746094 269.179688 L 517.570313 270.414063 L 516.410156 271.667969 L 515.273438 272.9375 L 514.15625 274.230469 L 513.058594 275.535156 L 511.980469 276.863281 L 510.925781 278.203125 L 509.890625 279.5625 L 508.878906 280.9375 L 507.890625 282.328125 L 506.921875 283.730469 L 505.976563 285.152344 L 505.054688 286.589844 L 504.152344 288.039063 L 503.277344 289.503906 L 502.425781 290.980469 L 501.59375 292.472656 L 500.789063 293.976563 L 500.003906 295.496094 L 499.246094 297.023438 L 498.515625 298.566406 L 497.804688 300.117188 L 497.121094 301.683594 L 496.460938 303.257813 L 495.828125 304.839844 L 495.21875 306.4375 L 494.632813 308.039063 L 494.074219 309.652344 L 493.542969 311.273438 L 493.035156 312.90625 L 492.554688 314.542969 L 492.101563 316.1875 L 491.671875 317.839844 L 491.269531 319.5 L 490.894531 321.164063 L 490.542969 322.832031 L 490.222656 324.511719 L 489.925781 326.191406 L 489.65625 327.875 L 489.410156 329.566406 L 489.195313 331.257813 L 489.007813 332.957031 L 488.84375 334.65625 L 488.710938 336.355469 L 488.601563 338.058594 L 488.519531 339.765625 L 488.464844 341.46875 L 488.4375 343.175781 L 488.4375 344.882813 L 488.464844 346.589844 L 488.519531 348.296875 L 488.601563 350 L 488.710938 351.707031 L 488.84375 353.40625 L 489.007813 355.105469 L 489.195313 356.800781 L 489.410156 358.496094 L 489.65625 360.183594 L 489.925781 361.871094 L 490.222656 363.550781 L 490.542969 365.226563 L 490.894531 366.898438 L 491.269531 368.5625 L 491.671875 370.222656 L 492.101563 371.875 L 492.554688 373.519531 L 493.035156 375.15625 L 493.542969 376.785156 L 494.074219 378.410156 L 494.632813 380.019531 L 495.21875 381.625 L 495.828125 383.21875 L 496.460938 384.804688 L 497.121094 386.378906 L 497.804688 387.941406 L 498.515625 389.496094 L 499.246094 391.035156 L 500.003906 392.566406 L 500.789063 394.082031 L 501.59375 395.585938 L 502.425781 397.078125 L 503.277344 398.558594 L 504.152344 400.023438 L 505.054688 401.472656 L 505.976563 402.90625 L 506.921875 404.328125 L 507.890625 405.734375 L 508.878906 407.125 L 509.890625 408.5 L 510.925781 409.859375 L 511.980469 411.199219 L 513.058594 412.523438 L 514.15625 413.832031 L 515.273438 415.121094 L 516.410156 416.394531 L 517.570313 417.648438 L 518.746094 418.882813 L 519.945313 420.101563 L 518.746094 418.882813 L 517.570313 417.648438 L 516.410156 416.394531 L 515.273438 415.121094 L 514.15625 413.832031 L 513.058594 412.523438 L 511.980469 411.199219 L 510.925781 409.859375 L 509.890625 408.5 L 508.878906 407.125 L 507.890625 405.734375 L 506.921875 404.328125 L 505.976563 402.90625 L 505.054688 401.472656 L 504.152344 400.023438 L 503.277344 398.558594 L 502.425781 397.078125 L 501.59375 395.585938 L 500.789063 394.082031 L 500.003906 392.566406 L 499.246094 391.035156 L 498.515625 389.496094 L 497.804688 387.941406 L 497.121094 386.378906 L 496.460938 384.804688 L 495.828125 383.21875 L 495.21875 381.625 L 494.632813 380.019531 L 494.074219 378.410156 L 493.542969 376.785156 L 493.035156 375.15625 L 492.554688 373.519531 L 492.101563 371.875 L 491.671875 370.222656 L 491.269531 368.5625 L 490.894531 366.898438 L 490.542969 365.226563 L 490.222656 363.550781 L 489.925781 361.871094 L 489.65625 360.183594 L 489.410156 358.496094 L 489.195313 356.800781 L 489.007813 355.105469 L 488.84375 353.40625 L 488.710938 351.707031 L 488.601563 350 L 488.519531 348.296875 L 488.464844 346.589844 L 488.4375 344.882813 L 488.4375 343.175781 L 488.464844 341.46875 L 488.519531 339.765625 L 488.601563 338.058594 L 488.710938 336.355469 L 488.84375 334.65625 L 489.007813 332.957031 L 489.195313 331.257813 L 489.410156 329.566406 L 489.65625 327.875 L 489.925781 326.191406 L 490.222656 324.511719 L 490.542969 322.832031 L 490.894531 321.164063 L 491.269531 319.5 L 491.671875 317.839844 L 492.101563 316.1875 L 492.554688 314.542969 L 493.035156 312.90625 L 493.542969 311.273438 L 494.074219 309.652344 L 494.632813 308.039063 L 495.21875 306.4375 L 495.828125 304.839844 L 496.460938 303.257813 L 497.121094 301.683594 L 497.804688 300.117188 L 498.515625 298.566406 L 499.246094 297.023438 L 500.003906 295.496094 L 500.789063 293.976563 L 501.59375 292.472656 L 502.425781 290.980469 L 503.277344 289.503906 L 504.152344 288.039063 L 505.054688 286.589844 L 505.976563 285.152344 L 506.921875 283.730469 L 507.890625 282.328125 L 508.878906 280.9375 L 509.890625 279.5625 L 510.925781 278.203125 L 511.980469 276.863281 L 513.058594 275.535156 L 514.15625 274.230469 L 515.273438 272.9375 L 516.410156 271.667969 L 517.570313 270.414063 L 518.746094 269.179688 Z M 519.945313 267.960938 "/>
</g>
</svg>
