<?xml version="1.0" encoding="UTF-8"?>
<svg xmlns="http://www.w3.org/2000/svg" xmlns:xlink="http://www.w3.org/1999/xlink" width="504pt" height="504pt" viewBox="0 0 504 504" version="1.1">
<g id="surface1886">
<rect x="0" y="0" width="504" height="504" style="fill:rgb(100%,100%,100%);fill-opacity:1;stroke:none;"/>
<path style="fill:none;stroke-width:2.25;stroke-linecap:round;stroke-linejoin:round;stroke:rgb(0%,0%,0%);stroke-opacity:1;stroke-miterlimit:10;" d="M 371.078125 45.75 L 132.921875 45.75 L 252 252 Z M 371.078125 45.75 "/>
<path style="fill:none;stroke-width:2.25;stroke-linecap:round;stroke-linejoin:round;stroke:rgb(0%,0%,0%);stroke-opacity:1;stroke-miterlimit:10;" d="M 252 252 L 132.921875 458.25 L 371.078125 458.25 Z M 252 252 "/>
<path style="fill-rule:nonzero;fill:rgb(0%,0%,0%);fill-opacity:1;stroke-width:1.5;stroke-linecap:round;stroke-linejoin:round;stroke:rgb(0%,0%,0%);stroke-opacity:1;stroke-miterlimit:10;" d="M 307 252 L 306.890625 248.546875 L 306.566406 245.105469 L 306.027344 241.695313 L 305.273438 238.320313 L 304.308594 235.003906 L 303.136719 231.753906 L 301.765625 228.582031 L 300.195313 225.503906 L 298.4375 222.53125 L 296.496094 219.671875 L 294.378906 216.941406 L 292.09375 214.351563 L 289.648438 211.90625 L 287.058594 209.621094 L 284.328125 207.503906 L 281.46875 205.5625 L 278.496094 203.804688 L 275.417969 202.234375 L 272.246094 200.863281 L 268.996094 199.691406 L 265.679688 198.726563 L 262.304688 197.972656 L 258.894531 197.433594 L 255.453125 197.109375 L 252 197 L 248.546875 197.109375 L 245.105469 197.433594 L 241.695313 197.972656 L 238.320313 198.726563 L 235.003906 199.691406 L 231.753906 200.863281 L 228.582031 202.234375 L 225.503906 203.804688 L 222.53125 205.5625 L 219.671875 207.503906 L 216.941406 209.621094 L 214.351563 211.90625 L 211.90625 214.351563 L 209.621094 216.941406 L 207.503906 219.671875 L 205.5625 222.53125 L 203.804688 225.503906 L 202.234375 228.582031 L 200.863281 231.753906 L 199.691406 235.003906 L 198.726563 238.320313 L 197.972656 241.695313 L 197.433594 245.105469 L 197.109375 248.546875 L 197 252 L 197.109375 255.453125 L 197.433594 258.894531 L 197.972656 262.304688 L 198.726563 265.679688 L 199.691406 268.996094 L 200.863281 272.246094 L 202.234375 275.417969 L 203.804688 278.496094 L 205.5625 281.46875 L 207.503906 284.328125 L 209.621094 287.058594 L 211.90625 289.648438 L 214.351563 292.09375 L 216.941406 294.378906 L 219.671875 296.496094 L 222.53125 298.4375 L 225.503906 300.195313 L 228.582031 301.765625 L 231.753906 303.136719 L 235.003906 304.308594 L 238.320313 305.273438 L 241.695313 306.027344 L 245.105469 306.566406 L 248.546875 306.890625 L 252 307 L 255.453125 306.890625 L 258.894531 306.566406 L 262.304688 306.027344 L 265.679688 305.273438 L 268.996094 304.308594 L 272.246094 303.136719 L 275.417969 301.765625 L 278.496094 300.195313 L 281.46875 298.4375 L 284.328125 296.496094 L 287.058594 294.378906 L 289.648438 292.09375 L 292.09375 289.648438 L 294.378906 287.058594 L 296.496094 284.328125 L 298.4375 281.46875 L 300.195313 278.496094 L 301.765625 275.417969 L 303.136719 272.246094 L 304.308594 268.996094 L 305.273438 265.679688 L 306.027344 262.304688 L 306.566406 258.894531 L 306.890625 255.453125 Z M 307 252 "/>
</g>
</svg>
