<?xml version="1.0" encoding="UTF-8"?>
<svg xmlns="http://www.w3.org/2000/svg" xmlns:xlink="http://www.w3.org/1999/xlink" width="504pt" height="504pt" viewBox="0 0 504 504" version="1.1">
<g id="surface1971">
<rect x="0" y="0" width="504" height="504" style="fill:rgb(100%,100%,100%);fill-opacity:1;stroke:none;"/>
<path style="fill:none;stroke-width:0.75;stroke-linecap:round;stroke-linejoin:round;stroke:rgb(0%,0%,0%);stroke-opacity:1;stroke-miterlimit:10;" d="M 348.382813 430.617188 L 364.335938 414.664063 Z M 348.382813 430.617188 "/>
<path style="fill:none;stroke-width:0.75;stroke-linecap:round;stroke-linejoin:round;stroke:rgb(0%,0%,0%);stroke-opacity:1;stroke-miterlimit:10;" d="M 334.632813 430.617188 L 383.117188 382.132813 Z M 334.632813 430.617188 "/>
<path style="fill:none;stroke-width:0.75;stroke-linecap:round;stroke-linejoin:round;stroke:rgb(0%,0%,0%);stroke-opacity:1;stroke-miterlimit:10;" d="M 320.882813 430.617188 L 401.902344 349.597656 Z M 320.882813 430.617188 "/>
<path style="fill:none;stroke-width:0.75;stroke-linecap:round;stroke-linejoin:round;stroke:rgb(0%,0%,0%);stroke-opacity:1;stroke-miterlimit:10;" d="M 307.132813 430.617188 L 420.683594 317.066406 Z M 307.132813 430.617188 "/>
<path style="fill:none;stroke-width:0.75;stroke-linecap:round;stroke-linejoin:round;stroke:rgb(0%,0%,0%);stroke-opacity:1;stroke-miterlimit:10;" d="M 293.382813 430.617188 L 439.46875 284.53125 Z M 293.382813 430.617188 "/>
<path style="fill:none;stroke-width:0.75;stroke-linecap:round;stroke-linejoin:round;stroke:rgb(0%,0%,0%);stroke-opacity:1;stroke-miterlimit:10;" d="M 458.25 252 L 279.632813 430.617188 Z M 458.25 252 "/>
<path style="fill:none;stroke-width:0.75;stroke-linecap:round;stroke-linejoin:round;stroke:rgb(0%,0%,0%);stroke-opacity:1;stroke-miterlimit:10;" d="M 453.21875 243.28125 L 265.882813 430.617188 Z M 453.21875 243.28125 "/>
<path style="fill:none;stroke-width:0.75;stroke-linecap:round;stroke-linejoin:round;stroke:rgb(0%,0%,0%);stroke-opacity:1;stroke-miterlimit:10;" d="M 448.183594 234.566406 L 252.132813 430.617188 Z M 448.183594 234.566406 "/>
<path style="fill:none;stroke-width:0.75;stroke-linecap:round;stroke-linejoin:round;stroke:rgb(0%,0%,0%);stroke-opacity:1;stroke-miterlimit:10;" d="M 443.152344 225.847656 L 252 417 Z M 443.152344 225.847656 "/>
<path style="fill:none;stroke-width:0.75;stroke-linecap:round;stroke-linejoin:round;stroke:rgb(0%,0%,0%);stroke-opacity:1;stroke-miterlimit:10;" d="M 438.117188 217.132813 L 252 403.25 Z M 438.117188 217.132813 "/>
<path style="fill:none;stroke-width:0.75;stroke-linecap:round;stroke-linejoin:round;stroke:rgb(0%,0%,0%);stroke-opacity:1;stroke-miterlimit:10;" d="M 433.085938 208.414063 L 252 389.5 Z M 433.085938 208.414063 "/>
<path style="fill:none;stroke-width:0.75;stroke-linecap:round;stroke-linejoin:round;stroke:rgb(0%,0%,0%);stroke-opacity:1;stroke-miterlimit:10;" d="M 428.054688 199.695313 L 252 375.75 Z M 428.054688 199.695313 "/>
<path style="fill:none;stroke-width:0.75;stroke-linecap:round;stroke-linejoin:round;stroke:rgb(0%,0%,0%);stroke-opacity:1;stroke-miterlimit:10;" d="M 423.019531 190.980469 L 252 362 Z M 423.019531 190.980469 "/>
<path style="fill:none;stroke-width:0.75;stroke-linecap:round;stroke-linejoin:round;stroke:rgb(0%,0%,0%);stroke-opacity:1;stroke-miterlimit:10;" d="M 417.988281 182.261719 L 252 348.25 Z M 417.988281 182.261719 "/>
<path style="fill:none;stroke-width:0.75;stroke-linecap:round;stroke-linejoin:round;stroke:rgb(0%,0%,0%);stroke-opacity:1;stroke-miterlimit:10;" d="M 412.953125 173.546875 L 252 334.5 Z M 412.953125 173.546875 "/>
<path style="fill:none;stroke-width:0.75;stroke-linecap:round;stroke-linejoin:round;stroke:rgb(0%,0%,0%);stroke-opacity:1;stroke-miterlimit:10;" d="M 407.921875 164.828125 L 252 320.75 Z M 407.921875 164.828125 "/>
<path style="fill:none;stroke-width:0.75;stroke-linecap:round;stroke-linejoin:round;stroke:rgb(0%,0%,0%);stroke-opacity:1;stroke-miterlimit:10;" d="M 402.886719 156.113281 L 252 307 Z M 402.886719 156.113281 "/>
<path style="fill:none;stroke-width:0.75;stroke-linecap:round;stroke-linejoin:round;stroke:rgb(0%,0%,0%);stroke-opacity:1;stroke-miterlimit:10;" d="M 397.855469 147.394531 L 252 293.25 Z M 397.855469 147.394531 "/>
<path style="fill:none;stroke-width:0.75;stroke-linecap:round;stroke-linejoin:round;stroke:rgb(0%,0%,0%);stroke-opacity:1;stroke-miterlimit:10;" d="M 392.824219 138.675781 L 252 279.5 Z M 392.824219 138.675781 "/>
<path style="fill:none;stroke-width:0.75;stroke-linecap:round;stroke-linejoin:round;stroke:rgb(0%,0%,0%);stroke-opacity:1;stroke-miterlimit:10;" d="M 387.789063 129.960938 L 252 265.75 Z M 387.789063 129.960938 "/>
<path style="fill:none;stroke-width:0.75;stroke-linecap:round;stroke-linejoin:round;stroke:rgb(0%,0%,0%);stroke-opacity:1;stroke-miterlimit:10;" d="M 382.757813 121.242188 L 252 252 Z M 382.757813 121.242188 "/>
<path style="fill:none;stroke-width:0.75;stroke-linecap:round;stroke-linejoin:round;stroke:rgb(0%,0%,0%);stroke-opacity:1;stroke-miterlimit:10;" d="M 377.722656 112.527344 L 252 238.25 Z M 377.722656 112.527344 "/>
<path style="fill:none;stroke-width:0.75;stroke-linecap:round;stroke-linejoin:round;stroke:rgb(0%,0%,0%);stroke-opacity:1;stroke-miterlimit:10;" d="M 372.691406 103.808594 L 252 224.5 Z M 372.691406 103.808594 "/>
<path style="fill:none;stroke-width:0.75;stroke-linecap:round;stroke-linejoin:round;stroke:rgb(0%,0%,0%);stroke-opacity:1;stroke-miterlimit:10;" d="M 367.660156 95.089844 L 252 210.75 Z M 367.660156 95.089844 "/>
<path style="fill:none;stroke-width:0.75;stroke-linecap:round;stroke-linejoin:round;stroke:rgb(0%,0%,0%);stroke-opacity:1;stroke-miterlimit:10;" d="M 362.625 86.375 L 252 197 Z M 362.625 86.375 "/>
<path style="fill:none;stroke-width:0.75;stroke-linecap:round;stroke-linejoin:round;stroke:rgb(0%,0%,0%);stroke-opacity:1;stroke-miterlimit:10;" d="M 357.59375 77.65625 L 252 183.25 Z M 357.59375 77.65625 "/>
<path style="fill:none;stroke-width:0.75;stroke-linecap:round;stroke-linejoin:round;stroke:rgb(0%,0%,0%);stroke-opacity:1;stroke-miterlimit:10;" d="M 348.117188 73.382813 L 252 169.5 Z M 348.117188 73.382813 "/>
<path style="fill:none;stroke-width:0.75;stroke-linecap:round;stroke-linejoin:round;stroke:rgb(0%,0%,0%);stroke-opacity:1;stroke-miterlimit:10;" d="M 334.367188 73.382813 L 252 155.75 Z M 334.367188 73.382813 "/>
<path style="fill:none;stroke-width:0.75;stroke-linecap:round;stroke-linejoin:round;stroke:rgb(0%,0%,0%);stroke-opacity:1;stroke-miterlimit:10;" d="M 320.617188 73.382813 L 252 142 Z M 320.617188 73.382813 "/>
<path style="fill:none;stroke-width:0.75;stroke-linecap:round;stroke-linejoin:round;stroke:rgb(0%,0%,0%);stroke-opacity:1;stroke-miterlimit:10;" d="M 306.867188 73.382813 L 252 128.25 Z M 306.867188 73.382813 "/>
<path style="fill:none;stroke-width:0.75;stroke-linecap:round;stroke-linejoin:round;stroke:rgb(0%,0%,0%);stroke-opacity:1;stroke-miterlimit:10;" d="M 293.117188 73.382813 L 252 114.5 Z M 293.117188 73.382813 "/>
<path style="fill:none;stroke-width:0.75;stroke-linecap:round;stroke-linejoin:round;stroke:rgb(0%,0%,0%);stroke-opacity:1;stroke-miterlimit:10;" d="M 279.367188 73.382813 L 252 100.75 Z M 279.367188 73.382813 "/>
<path style="fill:none;stroke-width:0.75;stroke-linecap:round;stroke-linejoin:round;stroke:rgb(0%,0%,0%);stroke-opacity:1;stroke-miterlimit:10;" d="M 265.617188 73.382813 L 252 87 Z M 265.617188 73.382813 "/>
<path style="fill:none;stroke-width:2.25;stroke-linecap:round;stroke-linejoin:round;stroke:rgb(0%,0%,0%);stroke-opacity:1;stroke-miterlimit:10;" d="M 458.25 252 L 355.125 73.382813 L 148.875 73.382813 L 45.75 252 L 148.875 430.617188 L 355.125 430.617188 Z M 458.25 252 "/>
<path style="fill:none;stroke-width:2.25;stroke-linecap:round;stroke-linejoin:round;stroke:rgb(0%,0%,0%);stroke-opacity:1;stroke-miterlimit:10;" d="M 371.078125 45.75 L 132.921875 45.75 L 252 252 Z M 371.078125 45.75 "/>
<path style="fill:none;stroke-width:2.25;stroke-linecap:round;stroke-linejoin:round;stroke:rgb(0%,0%,0%);stroke-opacity:1;stroke-miterlimit:10;" d="M 252 252 L 132.921875 458.25 L 371.078125 458.25 Z M 252 252 "/>
<path style="fill:none;stroke-width:2.25;stroke-linecap:round;stroke-linejoin:round;stroke:rgb(0%,0%,0%);stroke-opacity:1;stroke-miterlimit:10;" d="M 252 252 L 45.75 132.921875 L 45.75 371.078125 Z M 252 252 "/>
<path style="fill:none;stroke-width:2.25;stroke-linecap:round;stroke-linejoin:round;stroke:rgb(0%,0%,0%);stroke-opacity:1;stroke-miterlimit:10;" d="M 249.296875 254.703125 L 248.128906 253.558594 L 246.945313 252.425781 L 245.742188 251.316406 L 244.523438 250.226563 L 243.285156 249.15625 L 242.035156 248.101563 L 240.765625 247.070313 L 239.476563 246.058594 L 238.175781 245.070313 L 236.859375 244.097656 L 235.523438 243.148438 L 234.175781 242.222656 L 232.816406 241.316406 L 231.4375 240.429688 L 230.046875 239.570313 L 228.644531 238.726563 L 227.226563 237.910156 L 225.796875 237.113281 L 224.355469 236.339844 L 222.902344 235.59375 L 221.433594 234.867188 L 219.957031 234.160156 L 218.46875 233.480469 L 216.96875 232.828125 L 215.460938 232.195313 L 213.941406 231.585938 L 212.414063 231.003906 L 210.875 230.441406 L 209.328125 229.90625 L 207.773438 229.398438 L 206.210938 228.910156 L 204.644531 228.449219 L 203.066406 228.015625 L 201.480469 227.601563 L 199.890625 227.21875 L 198.296875 226.855469 L 196.695313 226.523438 L 195.085938 226.210938 L 193.476563 225.929688 L 191.859375 225.667969 L 190.242188 225.4375 L 188.617188 225.230469 L 186.992188 225.046875 L 185.363281 224.890625 L 183.730469 224.761719 L 182.097656 224.660156 L 180.464844 224.582031 L 178.828125 224.527344 L 177.191406 224.503906 L 175.558594 224.503906 L 173.921875 224.527344 L 172.285156 224.582031 L 170.652344 224.660156 L 169.019531 224.761719 L 167.386719 224.890625 L 165.757813 225.046875 L 164.132813 225.230469 L 162.507813 225.4375 L 160.890625 225.667969 L 159.273438 225.929688 L 157.664063 226.210938 L 156.054688 226.523438 L 154.453125 226.855469 L 152.859375 227.21875 L 151.269531 227.601563 L 149.683594 228.015625 L 148.105469 228.449219 L 146.539063 228.910156 L 144.976563 229.398438 L 143.421875 229.90625 L 141.875 230.441406 L 140.335938 231.003906 L 138.808594 231.585938 L 137.289063 232.195313 L 135.78125 232.828125 L 134.28125 233.480469 L 132.792969 234.160156 L 131.316406 234.867188 L 129.847656 235.59375 L 128.394531 236.339844 L 126.953125 237.113281 L 125.523438 237.910156 L 124.105469 238.726563 L 122.703125 239.570313 L 121.3125 240.429688 L 119.933594 241.316406 L 118.574219 242.222656 L 117.226563 243.148438 L 115.890625 244.097656 L 114.574219 245.070313 L 113.273438 246.058594 L 111.984375 247.070313 L 110.714844 248.101563 L 109.464844 249.15625 L 108.226563 250.226563 L 107.007813 251.316406 L 105.804688 252.425781 L 104.621094 253.558594 L 103.453125 254.703125 L 104.621094 253.558594 L 105.804688 252.425781 L 107.007813 251.316406 L 108.226563 250.226563 L 109.464844 249.15625 L 110.714844 248.101563 L 111.984375 247.070313 L 113.273438 246.058594 L 114.574219 245.070313 L 115.890625 244.097656 L 117.226563 243.148438 L 118.574219 242.222656 L 119.933594 241.316406 L 121.3125 240.429688 L 122.703125 239.570313 L 124.105469 238.726563 L 125.523438 237.910156 L 126.953125 237.113281 L 128.394531 236.339844 L 129.847656 235.59375 L 131.316406 234.867188 L 132.792969 234.160156 L 134.28125 233.480469 L 135.78125 232.828125 L 137.289063 232.195313 L 138.808594 231.585938 L 140.335938 231.003906 L 141.875 230.441406 L 143.421875 229.90625 L 144.976563 229.398438 L 146.539063 228.910156 L 148.105469 228.449219 L 149.683594 228.015625 L 151.269531 227.601563 L 152.859375 227.21875 L 154.453125 226.855469 L 156.054688 226.523438 L 157.664063 226.210938 L 159.273438 225.929688 L 160.890625 225.667969 L 162.507813 225.4375 L 164.132813 225.230469 L 165.757813 225.046875 L 167.386719 224.890625 L 169.019531 224.761719 L 170.652344 224.660156 L 172.285156 224.582031 L 173.921875 224.527344 L 175.558594 224.503906 L 177.191406 224.503906 L 178.828125 224.527344 L 180.464844 224.582031 L 182.097656 224.660156 L 183.730469 224.761719 L 185.363281 224.890625 L 186.992188 225.046875 L 188.617188 225.230469 L 190.242188 225.4375 L 191.859375 225.667969 L 193.476563 225.929688 L 195.085938 226.210938 L 196.695313 226.523438 L 198.296875 226.855469 L 199.890625 227.21875 L 201.480469 227.601563 L 203.066406 228.015625 L 204.644531 228.449219 L 206.210938 228.910156 L 207.773438 229.398438 L 209.328125 229.90625 L 210.875 230.441406 L 212.414063 231.003906 L 213.941406 231.585938 L 215.460938 232.195313 L 216.96875 232.828125 L 218.46875 233.480469 L 219.957031 234.160156 L 221.433594 234.867188 L 222.902344 235.59375 L 224.355469 236.339844 L 225.796875 237.113281 L 227.226563 237.910156 L 228.644531 238.726563 L 230.046875 239.570313 L 231.4375 240.429688 L 232.816406 241.316406 L 234.175781 242.222656 L 235.523438 243.148438 L 236.859375 244.097656 L 238.175781 245.070313 L 239.476563 246.058594 L 240.765625 247.070313 L 242.035156 248.101563 L 243.285156 249.15625 L 244.523438 250.226563 L 245.742188 251.316406 L 246.945313 252.425781 L 248.128906 253.558594 Z M 249.296875 254.703125 "/>
<path style="fill:none;stroke-width:2.25;stroke-linecap:round;stroke-linejoin:round;stroke:rgb(0%,0%,0%);stroke-opacity:1;stroke-miterlimit:10;" d="M 247.828125 256.171875 L 248.996094 257.316406 L 250.179688 258.449219 L 251.382813 259.558594 L 252.601563 260.648438 L 253.839844 261.71875 L 255.089844 262.773438 L 256.359375 263.804688 L 257.648438 264.816406 L 258.949219 265.804688 L 260.265625 266.777344 L 261.601563 267.726563 L 262.949219 268.652344 L 264.308594 269.558594 L 265.6875 270.445313 L 267.078125 271.304688 L 268.480469 272.148438 L 269.898438 272.964844 L 271.328125 273.761719 L 272.769531 274.535156 L 274.222656 275.28125 L 275.691406 276.007813 L 277.167969 276.714844 L 278.65625 277.394531 L 280.15625 278.046875 L 281.664063 278.679688 L 283.183594 279.289063 L 284.710938 279.871094 L 286.25 280.433594 L 287.796875 280.96875 L 289.351563 281.476563 L 290.914063 281.964844 L 292.480469 282.425781 L 294.058594 282.859375 L 295.644531 283.273438 L 297.234375 283.65625 L 298.828125 284.019531 L 300.429688 284.351563 L 302.039063 284.664063 L 303.648438 284.945313 L 305.265625 285.207031 L 306.882813 285.4375 L 308.507813 285.644531 L 310.132813 285.828125 L 311.761719 285.984375 L 313.394531 286.113281 L 315.027344 286.214844 L 316.660156 286.292969 L 318.296875 286.347656 L 319.933594 286.371094 L 321.566406 286.371094 L 323.203125 286.347656 L 324.839844 286.292969 L 326.472656 286.214844 L 328.105469 286.113281 L 329.738281 285.984375 L 331.367188 285.828125 L 332.992188 285.644531 L 334.617188 285.4375 L 336.234375 285.207031 L 337.851563 284.945313 L 339.460938 284.664063 L 341.070313 284.351563 L 342.671875 284.019531 L 344.265625 283.65625 L 345.855469 283.273438 L 347.441406 282.859375 L 349.019531 282.425781 L 350.585938 281.964844 L 352.148438 281.476563 L 353.703125 280.96875 L 355.25 280.433594 L 356.789063 279.871094 L 358.316406 279.289063 L 359.835938 278.679688 L 361.34375 278.046875 L 362.84375 277.394531 L 364.332031 276.714844 L 365.808594 276.007813 L 367.277344 275.28125 L 368.730469 274.535156 L 370.171875 273.761719 L 371.601563 272.964844 L 373.019531 272.148438 L 374.421875 271.304688 L 375.8125 270.445313 L 377.191406 269.558594 L 378.550781 268.652344 L 379.898438 267.726563 L 381.234375 266.777344 L 382.550781 265.804688 L 383.851563 264.816406 L 385.140625 263.804688 L 386.410156 262.773438 L 387.660156 261.71875 L 388.898438 260.648438 L 390.117188 259.558594 L 391.320313 258.449219 L 392.503906 257.316406 L 393.671875 256.171875 L 392.503906 257.316406 L 391.320313 258.449219 L 390.117188 259.558594 L 388.898438 260.648438 L 387.660156 261.71875 L 386.410156 262.773438 L 385.140625 263.804688 L 383.851563 264.816406 L 382.550781 265.804688 L 381.234375 266.777344 L 379.898438 267.726563 L 378.550781 268.652344 L 377.191406 269.558594 L 375.8125 270.445313 L 374.421875 271.304688 L 373.019531 272.148438 L 371.601563 272.964844 L 370.171875 273.761719 L 368.730469 274.535156 L 367.277344 275.28125 L 365.808594 276.007813 L 364.332031 276.714844 L 362.84375 277.394531 L 361.34375 278.046875 L 359.835938 278.679688 L 358.316406 279.289063 L 356.789063 279.871094 L 355.25 280.433594 L 353.703125 280.96875 L 352.148438 281.476563 L 350.585938 281.964844 L 349.019531 282.425781 L 347.441406 282.859375 L 345.855469 283.273438 L 344.265625 283.65625 L 342.671875 284.019531 L 341.070313 284.351563 L 339.460938 284.664063 L 337.851563 284.945313 L 336.234375 285.207031 L 334.617188 285.4375 L 332.992188 285.644531 L 331.367188 285.828125 L 329.738281 285.984375 L 328.105469 286.113281 L 326.472656 286.214844 L 324.839844 286.292969 L 323.203125 286.347656 L 321.566406 286.371094 L 319.933594 286.371094 L 318.296875 286.347656 L 316.660156 286.292969 L 315.027344 286.214844 L 313.394531 286.113281 L 311.761719 285.984375 L 310.132813 285.828125 L 308.507813 285.644531 L 306.882813 285.4375 L 305.265625 285.207031 L 303.648438 284.945313 L 302.039063 284.664063 L 300.429688 284.351563 L 298.828125 284.019531 L 297.234375 283.65625 L 295.644531 283.273438 L 294.058594 282.859375 L 292.480469 282.425781 L 290.914063 281.964844 L 289.351563 281.476563 L 287.796875 280.96875 L 286.25 280.433594 L 284.710938 279.871094 L 283.183594 279.289063 L 281.664063 278.679688 L 280.15625 278.046875 L 278.65625 277.394531 L 277.167969 276.714844 L 275.691406 276.007813 L 274.222656 275.28125 L 272.769531 274.535156 L 271.328125 273.761719 L 269.898438 272.964844 L 268.480469 272.148438 L 267.078125 271.304688 L 265.6875 270.445313 L 264.308594 269.558594 L 262.949219 268.652344 L 261.601563 267.726563 L 260.265625 266.777344 L 258.949219 265.804688 L 257.648438 264.816406 L 256.359375 263.804688 L 255.089844 262.773438 L 253.839844 261.71875 L 252.601563 260.648438 L 251.382813 259.558594 L 250.179688 258.449219 L 248.996094 257.316406 Z M 247.828125 256.171875 "/>
</g>
</svg>
