<?xml version="1.0" encoding="UTF-8"?>
<svg xmlns="http://www.w3.org/2000/svg" xmlns:xlink="http://www.w3.org/1999/xlink" width="504pt" height="504pt" viewBox="0 0 504 504" version="1.1">
<g id="surface1881">
<rect x="0" y="0" width="504" height="504" style="fill:rgb(100%,100%,100%);fill-opacity:1;stroke:none;"/>
<path style="fill:none;stroke-width:2.25;stroke-linecap:round;stroke-linejoin:round;stroke:rgb(0%,0%,0%);stroke-opacity:1;stroke-miterlimit:10;" d="M 371.078125 45.75 L 132.921875 45.75 L 252 252 Z M 371.078125 45.75 "/>
<path style="fill:none;stroke-width:2.25;stroke-linecap:round;stroke-linejoin:round;stroke:rgb(0%,0%,0%);stroke-opacity:1;stroke-miterlimit:10;" d="M 252 252 L 45.75 132.921875 L 45.75 371.078125 Z M 252 252 "/>
<path style="fill-rule:nonzero;fill:rgb(0%,0%,0%);fill-opacity:1;stroke-width:0.75;stroke-linecap:round;stroke-linejoin:round;stroke:rgb(0%,0%,0%);stroke-opacity:1;stroke-miterlimit:10;" d="M 403.25 252 L 403.304688 253.726563 L 403.46875 255.445313 L 403.738281 257.152344 L 404.113281 258.839844 L 404.597656 260.496094 L 405.179688 262.125 L 405.867188 263.707031 L 406.652344 265.25 L 407.53125 266.734375 L 408.503906 268.164063 L 409.5625 269.527344 L 410.703125 270.824219 L 411.925781 272.046875 L 413.222656 273.1875 L 414.585938 274.246094 L 416.015625 275.21875 L 417.5 276.097656 L 419.042969 276.882813 L 420.625 277.570313 L 422.253906 278.152344 L 423.910156 278.636719 L 425.597656 279.011719 L 427.304688 279.28125 L 429.023438 279.445313 L 430.75 279.5 L 432.476563 279.445313 L 434.195313 279.28125 L 435.902344 279.011719 L 437.589844 278.636719 L 439.246094 278.152344 L 440.875 277.570313 L 442.457031 276.882813 L 444 276.097656 L 445.484375 275.21875 L 446.914063 274.246094 L 448.277344 273.1875 L 449.574219 272.046875 L 450.796875 270.824219 L 451.9375 269.527344 L 452.996094 268.164063 L 453.96875 266.734375 L 454.847656 265.25 L 455.632813 263.707031 L 456.320313 262.125 L 456.902344 260.496094 L 457.386719 258.839844 L 457.761719 257.152344 L 458.03125 255.445313 L 458.195313 253.726563 L 458.25 252 L 458.195313 250.273438 L 458.03125 248.554688 L 457.761719 246.847656 L 457.386719 245.160156 L 456.902344 243.503906 L 456.320313 241.875 L 455.632813 240.292969 L 454.847656 238.75 L 453.96875 237.265625 L 452.996094 235.835938 L 451.9375 234.472656 L 450.796875 233.175781 L 449.574219 231.953125 L 448.277344 230.8125 L 446.914063 229.753906 L 445.484375 228.78125 L 444 227.902344 L 442.457031 227.117188 L 440.875 226.429688 L 439.246094 225.847656 L 437.589844 225.363281 L 435.902344 224.988281 L 434.195313 224.71875 L 432.476563 224.554688 L 430.75 224.5 L 429.023438 224.554688 L 427.304688 224.71875 L 425.597656 224.988281 L 423.910156 225.363281 L 422.253906 225.847656 L 420.625 226.429688 L 419.042969 227.117188 L 417.5 227.902344 L 416.015625 228.78125 L 414.585938 229.753906 L 413.222656 230.8125 L 411.925781 231.953125 L 410.703125 233.175781 L 409.5625 234.472656 L 408.503906 235.835938 L 407.53125 237.265625 L 406.652344 238.75 L 405.867188 240.292969 L 405.179688 241.875 L 404.597656 243.503906 L 404.113281 245.160156 L 403.738281 246.847656 L 403.46875 248.554688 L 403.304688 250.273438 Z M 403.25 252 "/>
<path style="fill-rule:nonzero;fill:rgb(0%,0%,0%);fill-opacity:1;stroke-width:0.75;stroke-linecap:round;stroke-linejoin:round;stroke:rgb(0%,0%,0%);stroke-opacity:1;stroke-miterlimit:10;" d="M 45.75 252 L 45.804688 253.726563 L 45.96875 255.445313 L 46.238281 257.152344 L 46.613281 258.839844 L 47.097656 260.496094 L 47.679688 262.125 L 48.367188 263.707031 L 49.152344 265.25 L 50.03125 266.734375 L 51.003906 268.164063 L 52.0625 269.527344 L 53.203125 270.824219 L 54.425781 272.046875 L 55.722656 273.1875 L 57.085938 274.246094 L 58.515625 275.21875 L 60 276.097656 L 61.542969 276.882813 L 63.125 277.570313 L 64.753906 278.152344 L 66.410156 278.636719 L 68.097656 279.011719 L 69.804688 279.28125 L 71.523438 279.445313 L 73.25 279.5 L 74.976563 279.445313 L 76.695313 279.28125 L 78.402344 279.011719 L 80.089844 278.636719 L 81.746094 278.152344 L 83.375 277.570313 L 84.957031 276.882813 L 86.5 276.097656 L 87.984375 275.21875 L 89.414063 274.246094 L 90.777344 273.1875 L 92.074219 272.046875 L 93.296875 270.824219 L 94.4375 269.527344 L 95.496094 268.164063 L 96.46875 266.734375 L 97.347656 265.25 L 98.132813 263.707031 L 98.820313 262.125 L 99.402344 260.496094 L 99.886719 258.839844 L 100.261719 257.152344 L 100.53125 255.445313 L 100.695313 253.726563 L 100.75 252 L 100.695313 250.273438 L 100.53125 248.554688 L 100.261719 246.847656 L 99.886719 245.160156 L 99.402344 243.503906 L 98.820313 241.875 L 98.132813 240.292969 L 97.347656 238.75 L 96.46875 237.265625 L 95.496094 235.835938 L 94.4375 234.472656 L 93.296875 233.175781 L 92.074219 231.953125 L 90.777344 230.8125 L 89.414063 229.753906 L 87.984375 228.78125 L 86.5 227.902344 L 84.957031 227.117188 L 83.375 226.429688 L 81.746094 225.847656 L 80.089844 225.363281 L 78.402344 224.988281 L 76.695313 224.71875 L 74.976563 224.554688 L 73.25 224.5 L 71.523438 224.554688 L 69.804688 224.71875 L 68.097656 224.988281 L 66.410156 225.363281 L 64.753906 225.847656 L 63.125 226.429688 L 61.542969 227.117188 L 60 227.902344 L 58.515625 228.78125 L 57.085938 229.753906 L 55.722656 230.8125 L 54.425781 231.953125 L 53.203125 233.175781 L 52.0625 234.472656 L 51.003906 235.835938 L 50.03125 237.265625 L 49.152344 238.75 L 48.367188 240.292969 L 47.679688 241.875 L 47.097656 243.503906 L 46.613281 245.160156 L 46.238281 246.847656 L 45.96875 248.554688 L 45.804688 250.273438 Z M 45.75 252 "/>
<path style="fill-rule:nonzero;fill:rgb(0%,0%,0%);fill-opacity:1;stroke-width:0.75;stroke-linecap:round;stroke-linejoin:round;stroke:rgb(0%,0%,0%);stroke-opacity:1;stroke-miterlimit:10;" d="M 224.5 430.75 L 224.554688 432.476563 L 224.71875 434.195313 L 224.988281 435.902344 L 225.363281 437.589844 L 225.847656 439.246094 L 226.429688 440.875 L 227.117188 442.457031 L 227.902344 444 L 228.78125 445.484375 L 229.753906 446.914063 L 230.8125 448.277344 L 231.953125 449.574219 L 233.175781 450.796875 L 234.472656 451.9375 L 235.835938 452.996094 L 237.265625 453.96875 L 238.75 454.847656 L 240.292969 455.632813 L 241.875 456.320313 L 243.503906 456.902344 L 245.160156 457.386719 L 246.847656 457.761719 L 248.554688 458.03125 L 250.273438 458.195313 L 252 458.25 L 253.726563 458.195313 L 255.445313 458.03125 L 257.152344 457.761719 L 258.839844 457.386719 L 260.496094 456.902344 L 262.125 456.320313 L 263.707031 455.632813 L 265.25 454.847656 L 266.734375 453.96875 L 268.164063 452.996094 L 269.527344 451.9375 L 270.824219 450.796875 L 272.046875 449.574219 L 273.1875 448.277344 L 274.246094 446.914063 L 275.21875 445.484375 L 276.097656 444 L 276.882813 442.457031 L 277.570313 440.875 L 278.152344 439.246094 L 278.636719 437.589844 L 279.011719 435.902344 L 279.28125 434.195313 L 279.445313 432.476563 L 279.5 430.75 L 279.445313 429.023438 L 279.28125 427.304688 L 279.011719 425.597656 L 278.636719 423.910156 L 278.152344 422.253906 L 277.570313 420.625 L 276.882813 419.042969 L 276.097656 417.5 L 275.21875 416.015625 L 274.246094 414.585938 L 273.1875 413.222656 L 272.046875 411.925781 L 270.824219 410.703125 L 269.527344 409.5625 L 268.164063 408.503906 L 266.734375 407.53125 L 265.25 406.652344 L 263.707031 405.867188 L 262.125 405.179688 L 260.496094 404.597656 L 258.839844 404.113281 L 257.152344 403.738281 L 255.445313 403.46875 L 253.726563 403.304688 L 252 403.25 L 250.273438 403.304688 L 248.554688 403.46875 L 246.847656 403.738281 L 245.160156 404.113281 L 243.503906 404.597656 L 241.875 405.179688 L 240.292969 405.867188 L 238.75 406.652344 L 237.265625 407.53125 L 235.835938 408.503906 L 234.472656 409.5625 L 233.175781 410.703125 L 231.953125 411.925781 L 230.8125 413.222656 L 229.753906 414.585938 L 228.78125 416.015625 L 227.902344 417.5 L 227.117188 419.042969 L 226.429688 420.625 L 225.847656 422.253906 L 225.363281 423.910156 L 224.988281 425.597656 L 224.71875 427.304688 L 224.554688 429.023438 Z M 224.5 430.75 "/>
<path style="fill-rule:nonzero;fill:rgb(0%,0%,0%);fill-opacity:1;stroke-width:0.75;stroke-linecap:round;stroke-linejoin:round;stroke:rgb(0%,0%,0%);stroke-opacity:1;stroke-miterlimit:10;" d="M 224.5 73.25 L 224.554688 74.976563 L 224.71875 76.695313 L 224.988281 78.402344 L 225.363281 80.089844 L 225.847656 81.746094 L 226.429688 83.375 L 227.117188 84.957031 L 227.902344 86.5 L 228.78125 87.984375 L 229.753906 89.414063 L 230.8125 90.777344 L 231.953125 92.074219 L 233.175781 93.296875 L 234.472656 94.4375 L 235.835938 95.496094 L 237.265625 96.46875 L 238.75 97.347656 L 240.292969 98.132813 L 241.875 98.820313 L 243.503906 99.402344 L 245.160156 99.886719 L 246.847656 100.261719 L 248.554688 100.53125 L 250.273438 100.695313 L 252 100.75 L 253.726563 100.695313 L 255.445313 100.53125 L 257.152344 100.261719 L 258.839844 99.886719 L 260.496094 99.402344 L 262.125 98.820313 L 263.707031 98.132813 L 265.25 97.347656 L 266.734375 96.46875 L 268.164063 95.496094 L 269.527344 94.4375 L 270.824219 93.296875 L 272.046875 92.074219 L 273.1875 90.777344 L 274.246094 89.414063 L 275.21875 87.984375 L 276.097656 86.5 L 276.882813 84.957031 L 277.570313 83.375 L 278.152344 81.746094 L 278.636719 80.089844 L 279.011719 78.402344 L 279.28125 76.695313 L 279.445313 74.976563 L 279.5 73.25 L 279.445313 71.523438 L 279.28125 69.804688 L 279.011719 68.097656 L 278.636719 66.410156 L 278.152344 64.753906 L 277.570313 63.125 L 276.882813 61.542969 L 276.097656 60 L 275.21875 58.515625 L 274.246094 57.085938 L 273.1875 55.722656 L 272.046875 54.425781 L 270.824219 53.203125 L 269.527344 52.0625 L 268.164063 51.003906 L 266.734375 50.03125 L 265.25 49.152344 L 263.707031 48.367188 L 262.125 47.679688 L 260.496094 47.097656 L 258.839844 46.613281 L 257.152344 46.238281 L 255.445313 45.96875 L 253.726563 45.804688 L 252 45.75 L 250.273438 45.804688 L 248.554688 45.96875 L 246.847656 46.238281 L 245.160156 46.613281 L 243.503906 47.097656 L 241.875 47.679688 L 240.292969 48.367188 L 238.75 49.152344 L 237.265625 50.03125 L 235.835938 51.003906 L 234.472656 52.0625 L 233.175781 53.203125 L 231.953125 54.425781 L 230.8125 55.722656 L 229.753906 57.085938 L 228.78125 58.515625 L 227.902344 60 L 227.117188 61.542969 L 226.429688 63.125 L 225.847656 64.753906 L 225.363281 66.410156 L 224.988281 68.097656 L 224.71875 69.804688 L 224.554688 71.523438 Z M 224.5 73.25 "/>
</g>
</svg>
