<?xml version="1.0" encoding="UTF-8"?>
<svg xmlns="http://www.w3.org/2000/svg" xmlns:xlink="http://www.w3.org/1999/xlink" width="991pt" height="585pt" viewBox="0 0 991 585" version="1.1">
<g id="surface1066">
<rect x="0" y="0" width="991" height="585" style="fill:rgb(100%,100%,100%);fill-opacity:1;stroke:none;"/>
<path style="fill:none;stroke-width:2.25;stroke-linecap:round;stroke-linejoin:round;stroke:rgb(0%,0%,0%);stroke-opacity:1;stroke-miterlimit:10;" d="M 924.484375 480.296875 L 924.484375 49.984375 Z M 924.484375 480.296875 "/>
<path style="fill:none;stroke-width:2.25;stroke-linecap:round;stroke-linejoin:round;stroke:rgb(0%,0%,0%);stroke-opacity:1;stroke-miterlimit:10;" d="M 121.234375 480.296875 L 121.234375 49.984375 Z M 121.234375 480.296875 "/>
<path style="fill:none;stroke-width:2.25;stroke-linecap:round;stroke-linejoin:round;stroke:rgb(0%,0%,0%);stroke-opacity:1;stroke-miterlimit:10;" d="M 121.234375 49.984375 L 924.484375 49.984375 Z M 121.234375 49.984375 "/>
<path style="fill:none;stroke-width:2.25;stroke-linecap:round;stroke-linejoin:round;stroke:rgb(0%,0%,0%);stroke-opacity:1;stroke-miterlimit:10;" d="M 121.234375 480.296875 L 924.484375 480.296875 Z M 121.234375 480.296875 "/>
<path style="fill:none;stroke-width:2.25;stroke-linecap:round;stroke-linejoin:round;stroke:rgb(0%,0%,0%);stroke-opacity:1;stroke-miterlimit:10;" d="M 520.039063 267.960938 L 518.820313 266.765625 L 517.585938 265.585938 L 516.332031 264.429688 L 515.0625 263.289063 L 513.769531 262.171875 L 512.464844 261.074219 L 511.136719 260 L 509.796875 258.945313 L 508.4375 257.910156 L 507.0625 256.898438 L 505.671875 255.90625 L 504.269531 254.941406 L 502.847656 253.996094 L 501.410156 253.070313 L 499.960938 252.171875 L 498.496094 251.292969 L 497.019531 250.441406 L 495.527344 249.613281 L 494.023438 248.804688 L 492.503906 248.023438 L 490.976563 247.265625 L 489.433594 246.53125 L 487.882813 245.824219 L 486.316406 245.136719 L 484.742188 244.480469 L 483.160156 243.84375 L 481.5625 243.234375 L 479.960938 242.652344 L 478.347656 242.09375 L 476.726563 241.5625 L 475.09375 241.054688 L 473.457031 240.574219 L 471.8125 240.117188 L 470.160156 239.691406 L 468.5 239.285156 L 466.835938 238.910156 L 465.167969 238.5625 L 463.488281 238.238281 L 461.808594 237.941406 L 460.125 237.671875 L 458.433594 237.429688 L 456.742188 237.214844 L 455.042969 237.023438 L 453.34375 236.863281 L 451.644531 236.726563 L 449.941406 236.617188 L 448.234375 236.539063 L 446.53125 236.484375 L 444.824219 236.457031 L 443.117188 236.457031 L 441.410156 236.484375 L 439.703125 236.539063 L 438 236.617188 L 436.292969 236.726563 L 434.59375 236.863281 L 432.894531 237.023438 L 431.199219 237.214844 L 429.503906 237.429688 L 427.816406 237.671875 L 426.128906 237.941406 L 424.449219 238.238281 L 422.773438 238.5625 L 421.101563 238.910156 L 419.4375 239.285156 L 417.777344 239.691406 L 416.125 240.117188 L 414.480469 240.574219 L 412.84375 241.054688 L 411.214844 241.5625 L 409.589844 242.09375 L 407.980469 242.652344 L 406.375 243.234375 L 404.78125 243.84375 L 403.195313 244.480469 L 401.621094 245.136719 L 400.058594 245.824219 L 398.503906 246.53125 L 396.964844 247.265625 L 395.433594 248.023438 L 393.917969 248.804688 L 392.414063 249.613281 L 390.921875 250.441406 L 389.441406 251.292969 L 387.976563 252.171875 L 386.527344 253.070313 L 385.09375 253.996094 L 383.671875 254.941406 L 382.265625 255.90625 L 380.875 256.898438 L 379.5 257.910156 L 378.140625 258.945313 L 376.800781 260 L 375.476563 261.074219 L 374.167969 262.171875 L 372.878906 263.289063 L 371.605469 264.429688 L 370.351563 265.585938 L 369.117188 266.765625 L 367.898438 267.960938 L 369.117188 266.765625 L 370.351563 265.585938 L 371.605469 264.429688 L 372.878906 263.289063 L 374.167969 262.171875 L 375.476563 261.074219 L 376.800781 260 L 378.140625 258.945313 L 379.5 257.910156 L 380.875 256.898438 L 382.265625 255.90625 L 383.671875 254.941406 L 385.09375 253.996094 L 386.527344 253.070313 L 387.976563 252.171875 L 389.441406 251.292969 L 390.921875 250.441406 L 392.414063 249.613281 L 393.917969 248.804688 L 395.433594 248.023438 L 396.964844 247.265625 L 398.503906 246.53125 L 400.058594 245.824219 L 401.621094 245.136719 L 403.195313 244.480469 L 404.78125 243.84375 L 406.375 243.234375 L 407.980469 242.652344 L 409.589844 242.09375 L 411.214844 241.5625 L 412.84375 241.054688 L 414.480469 240.574219 L 416.125 240.117188 L 417.777344 239.691406 L 419.4375 239.285156 L 421.101563 238.910156 L 422.773438 238.5625 L 424.449219 238.238281 L 426.128906 237.941406 L 427.816406 237.671875 L 429.503906 237.429688 L 431.199219 237.214844 L 432.894531 237.023438 L 434.59375 236.863281 L 436.292969 236.726563 L 438 236.617188 L 439.703125 236.539063 L 441.410156 236.484375 L 443.117188 236.457031 L 444.824219 236.457031 L 446.53125 236.484375 L 448.234375 236.539063 L 449.941406 236.617188 L 451.644531 236.726563 L 453.34375 236.863281 L 455.042969 237.023438 L 456.742188 237.214844 L 458.433594 237.429688 L 460.125 237.671875 L 461.808594 237.941406 L 463.488281 238.238281 L 465.167969 238.5625 L 466.835938 238.910156 L 468.5 239.285156 L 470.160156 239.691406 L 471.8125 240.117188 L 473.457031 240.574219 L 475.09375 241.054688 L 476.726563 241.5625 L 478.347656 242.09375 L 479.960938 242.652344 L 481.5625 243.234375 L 483.160156 243.84375 L 484.742188 244.480469 L 486.316406 245.136719 L 487.882813 245.824219 L 489.433594 246.53125 L 490.976563 247.265625 L 492.503906 248.023438 L 494.023438 248.804688 L 495.527344 249.613281 L 497.019531 250.441406 L 498.496094 251.292969 L 499.960938 252.171875 L 501.410156 253.070313 L 502.847656 253.996094 L 504.269531 254.941406 L 505.671875 255.90625 L 507.0625 256.898438 L 508.4375 257.910156 L 509.796875 258.945313 L 511.136719 260 L 512.464844 261.074219 L 513.769531 262.171875 L 515.0625 263.289063 L 516.332031 264.429688 L 517.585938 265.585938 L 518.820313 266.765625 Z M 520.039063 267.960938 "/>
<path style="fill:none;stroke-width:2.25;stroke-linecap:round;stroke-linejoin:round;stroke:rgb(0%,0%,0%);stroke-opacity:1;stroke-miterlimit:10;" d="M 518.507813 269.492188 L 519.726563 270.6875 L 520.960938 271.867188 L 522.214844 273.023438 L 523.488281 274.160156 L 524.777344 275.28125 L 526.085938 276.375 L 527.410156 277.453125 L 528.75 278.507813 L 530.109375 279.542969 L 531.484375 280.554688 L 532.875 281.542969 L 534.28125 282.511719 L 535.703125 283.457031 L 537.136719 284.378906 L 538.585938 285.28125 L 540.050781 286.15625 L 541.53125 287.011719 L 543.023438 287.839844 L 544.527344 288.644531 L 546.042969 289.429688 L 547.574219 290.1875 L 549.113281 290.921875 L 550.667969 291.628906 L 552.230469 292.3125 L 553.804688 292.972656 L 555.390625 293.605469 L 556.984375 294.214844 L 558.589844 294.800781 L 560.199219 295.359375 L 561.824219 295.890625 L 563.453125 296.398438 L 565.089844 296.878906 L 566.734375 297.332031 L 568.386719 297.761719 L 570.046875 298.164063 L 571.710938 298.539063 L 573.382813 298.890625 L 575.058594 299.214844 L 576.738281 299.511719 L 578.425781 299.78125 L 580.113281 300.023438 L 581.808594 300.238281 L 583.503906 300.429688 L 585.203125 300.589844 L 586.902344 300.726563 L 588.609375 300.832031 L 590.3125 300.914063 L 592.019531 300.96875 L 593.726563 300.996094 L 595.433594 300.996094 L 597.140625 300.96875 L 598.84375 300.914063 L 600.550781 300.832031 L 602.253906 300.726563 L 603.953125 300.589844 L 605.652344 300.429688 L 607.351563 300.238281 L 609.042969 300.023438 L 610.734375 299.78125 L 612.417969 299.511719 L 614.097656 299.214844 L 615.777344 298.890625 L 617.445313 298.539063 L 619.109375 298.164063 L 620.769531 297.761719 L 622.421875 297.332031 L 624.066406 296.878906 L 625.703125 296.398438 L 627.335938 295.890625 L 628.957031 295.359375 L 630.570313 294.800781 L 632.171875 294.214844 L 633.769531 293.605469 L 635.351563 292.972656 L 636.925781 292.3125 L 638.492188 291.628906 L 640.042969 290.921875 L 641.585938 290.1875 L 643.113281 289.429688 L 644.632813 288.644531 L 646.136719 287.839844 L 647.628906 287.011719 L 649.105469 286.15625 L 650.570313 285.28125 L 652.019531 284.378906 L 653.457031 283.457031 L 654.878906 282.511719 L 656.28125 281.542969 L 657.671875 280.554688 L 659.046875 279.542969 L 660.40625 278.507813 L 661.746094 277.453125 L 663.074219 276.375 L 664.378906 275.28125 L 665.671875 274.160156 L 666.941406 273.023438 L 668.195313 271.867188 L 669.429688 270.6875 L 670.648438 269.492188 L 669.429688 270.6875 L 668.195313 271.867188 L 666.941406 273.023438 L 665.671875 274.160156 L 664.378906 275.28125 L 663.074219 276.375 L 661.746094 277.453125 L 660.40625 278.507813 L 659.046875 279.542969 L 657.671875 280.554688 L 656.28125 281.542969 L 654.878906 282.511719 L 653.457031 283.457031 L 652.019531 284.378906 L 650.570313 285.28125 L 649.105469 286.15625 L 647.628906 287.011719 L 646.136719 287.839844 L 644.632813 288.644531 L 643.113281 289.429688 L 641.585938 290.1875 L 640.042969 290.921875 L 638.492188 291.628906 L 636.925781 292.3125 L 635.351563 292.972656 L 633.769531 293.605469 L 632.171875 294.214844 L 630.570313 294.800781 L 628.957031 295.359375 L 627.335938 295.890625 L 625.703125 296.398438 L 624.066406 296.878906 L 622.421875 297.332031 L 620.769531 297.761719 L 619.109375 298.164063 L 617.445313 298.539063 L 615.777344 298.890625 L 614.097656 299.214844 L 612.417969 299.511719 L 610.734375 299.78125 L 609.042969 300.023438 L 607.351563 300.238281 L 605.652344 300.429688 L 603.953125 300.589844 L 602.253906 300.726563 L 600.550781 300.832031 L 598.84375 300.914063 L 597.140625 300.96875 L 595.433594 300.996094 L 593.726563 300.996094 L 592.019531 300.96875 L 590.3125 300.914063 L 588.609375 300.832031 L 586.902344 300.726563 L 585.203125 300.589844 L 583.503906 300.429688 L 581.808594 300.238281 L 580.113281 300.023438 L 578.425781 299.78125 L 576.738281 299.511719 L 575.058594 299.214844 L 573.382813 298.890625 L 571.710938 298.539063 L 570.046875 298.164063 L 568.386719 297.761719 L 566.734375 297.332031 L 565.089844 296.878906 L 563.453125 296.398438 L 561.824219 295.890625 L 560.199219 295.359375 L 558.589844 294.800781 L 556.984375 294.214844 L 555.390625 293.605469 L 553.804688 292.972656 L 552.230469 292.3125 L 550.667969 291.628906 L 549.113281 290.921875 L 547.574219 290.1875 L 546.042969 289.429688 L 544.527344 288.644531 L 543.023438 287.839844 L 541.53125 287.011719 L 540.050781 286.15625 L 538.585938 285.28125 L 537.136719 284.378906 L 535.703125 283.457031 L 534.28125 282.511719 L 532.875 281.542969 L 531.484375 280.554688 L 530.109375 279.542969 L 528.75 278.507813 L 527.410156 277.453125 L 526.085938 276.375 L 524.777344 275.28125 L 523.488281 274.160156 L 522.214844 273.023438 L 520.960938 271.867188 L 519.726563 270.6875 Z M 518.507813 269.492188 "/>
</g>
</svg>
