<?xml version="1.0" encoding="UTF-8"?>
<svg xmlns="http://www.w3.org/2000/svg" xmlns:xlink="http://www.w3.org/1999/xlink" width="991pt" height="585pt" viewBox="0 0 991 585" version="1.1">
<g id="surface1101">
<rect x="0" y="0" width="991" height="585" style="fill:rgb(100%,100%,100%);fill-opacity:1;stroke:none;"/>
<path style="fill:none;stroke-width:2.25;stroke-linecap:round;stroke-linejoin:round;stroke:rgb(0%,0%,0%);stroke-opacity:1;stroke-miterlimit:10;" d="M 924.484375 480.296875 L 924.484375 49.984375 Z M 924.484375 480.296875 "/>
<path style="fill:none;stroke-width:2.25;stroke-linecap:round;stroke-linejoin:round;stroke:rgb(0%,0%,0%);stroke-opacity:1;stroke-miterlimit:10;" d="M 121.234375 480.296875 L 121.234375 49.984375 Z M 121.234375 480.296875 "/>
<path style="fill:none;stroke-width:2.25;stroke-linecap:round;stroke-linejoin:round;stroke:rgb(0%,0%,0%);stroke-opacity:1;stroke-miterlimit:10;" d="M 121.234375 49.984375 L 924.484375 49.984375 Z M 121.234375 49.984375 "/>
<path style="fill:none;stroke-width:2.25;stroke-linecap:round;stroke-linejoin:round;stroke:rgb(0%,0%,0%);stroke-opacity:1;stroke-miterlimit:10;" d="M 121.234375 480.296875 L 924.484375 480.296875 Z M 121.234375 480.296875 "/>
<path style="fill:none;stroke-width:2.25;stroke-linecap:round;stroke-linejoin:round;stroke:rgb(0%,0%,0%);stroke-opacity:1;stroke-miterlimit:10;" d="M 518.507813 117.351563 L 517.3125 118.570313 L 516.132813 119.804688 L 514.976563 121.058594 L 513.839844 122.328125 L 512.71875 123.621094 L 511.625 124.925781 L 510.546875 126.253906 L 509.492188 127.59375 L 508.457031 128.953125 L 507.445313 130.328125 L 506.457031 131.71875 L 505.488281 133.121094 L 504.542969 134.542969 L 503.621094 135.980469 L 502.71875 137.429688 L 501.84375 138.894531 L 500.988281 140.371094 L 500.160156 141.863281 L 499.355469 143.367188 L 498.570313 144.886719 L 497.8125 146.414063 L 497.078125 147.957031 L 496.371094 149.507813 L 495.6875 151.074219 L 495.027344 152.648438 L 494.394531 154.230469 L 493.785156 155.828125 L 493.199219 157.429688 L 492.640625 159.042969 L 492.109375 160.664063 L 491.601563 162.296875 L 491.121094 163.933594 L 490.667969 165.578125 L 490.238281 167.230469 L 489.835938 168.890625 L 489.460938 170.554688 L 489.109375 172.222656 L 488.785156 173.902344 L 488.488281 175.582031 L 488.21875 177.265625 L 487.976563 178.957031 L 487.761719 180.648438 L 487.570313 182.347656 L 487.410156 184.046875 L 487.273438 185.746094 L 487.167969 187.449219 L 487.085938 189.15625 L 487.03125 190.859375 L 487.003906 192.566406 L 487.003906 194.273438 L 487.03125 195.980469 L 487.085938 197.6875 L 487.167969 199.390625 L 487.273438 201.097656 L 487.410156 202.796875 L 487.570313 204.496094 L 487.761719 206.191406 L 487.976563 207.886719 L 488.21875 209.574219 L 488.488281 211.261719 L 488.785156 212.941406 L 489.109375 214.617188 L 489.460938 216.289063 L 489.835938 217.953125 L 490.238281 219.613281 L 490.667969 221.265625 L 491.121094 222.910156 L 491.601563 224.546875 L 492.109375 226.175781 L 492.640625 227.800781 L 493.199219 229.410156 L 493.785156 231.015625 L 494.394531 232.609375 L 495.027344 234.195313 L 495.6875 235.769531 L 496.371094 237.332031 L 497.078125 238.886719 L 497.8125 240.425781 L 498.570313 241.957031 L 499.355469 243.472656 L 500.160156 244.976563 L 500.988281 246.46875 L 501.84375 247.949219 L 502.71875 249.414063 L 503.621094 250.863281 L 504.542969 252.296875 L 505.488281 253.71875 L 506.457031 255.125 L 507.445313 256.515625 L 508.457031 257.890625 L 509.492188 259.25 L 510.546875 260.589844 L 511.625 261.914063 L 512.71875 263.222656 L 513.839844 264.511719 L 514.976563 265.785156 L 516.132813 267.039063 L 517.3125 268.273438 L 518.507813 269.492188 L 517.3125 268.273438 L 516.132813 267.039063 L 514.976563 265.785156 L 513.839844 264.511719 L 512.71875 263.222656 L 511.625 261.914063 L 510.546875 260.589844 L 509.492188 259.25 L 508.457031 257.890625 L 507.445313 256.515625 L 506.457031 255.125 L 505.488281 253.71875 L 504.542969 252.296875 L 503.621094 250.863281 L 502.71875 249.414063 L 501.84375 247.949219 L 500.988281 246.46875 L 500.160156 244.976563 L 499.355469 243.472656 L 498.570313 241.957031 L 497.8125 240.425781 L 497.078125 238.886719 L 496.371094 237.332031 L 495.6875 235.769531 L 495.027344 234.195313 L 494.394531 232.609375 L 493.785156 231.015625 L 493.199219 229.410156 L 492.640625 227.800781 L 492.109375 226.175781 L 491.601563 224.546875 L 491.121094 222.910156 L 490.667969 221.265625 L 490.238281 219.613281 L 489.835938 217.953125 L 489.460938 216.289063 L 489.109375 214.617188 L 488.785156 212.941406 L 488.488281 211.261719 L 488.21875 209.574219 L 487.976563 207.886719 L 487.761719 206.191406 L 487.570313 204.496094 L 487.410156 202.796875 L 487.273438 201.097656 L 487.167969 199.390625 L 487.085938 197.6875 L 487.03125 195.980469 L 487.003906 194.273438 L 487.003906 192.566406 L 487.03125 190.859375 L 487.085938 189.15625 L 487.167969 187.449219 L 487.273438 185.746094 L 487.410156 184.046875 L 487.570313 182.347656 L 487.761719 180.648438 L 487.976563 178.957031 L 488.21875 177.265625 L 488.488281 175.582031 L 488.785156 173.902344 L 489.109375 172.222656 L 489.460938 170.554688 L 489.835938 168.890625 L 490.238281 167.230469 L 490.667969 165.578125 L 491.121094 163.933594 L 491.601563 162.296875 L 492.109375 160.664063 L 492.640625 159.042969 L 493.199219 157.429688 L 493.785156 155.828125 L 494.394531 154.230469 L 495.027344 152.648438 L 495.6875 151.074219 L 496.371094 149.507813 L 497.078125 147.957031 L 497.8125 146.414063 L 498.570313 144.886719 L 499.355469 143.367188 L 500.160156 141.863281 L 500.988281 140.371094 L 501.84375 138.894531 L 502.71875 137.429688 L 503.621094 135.980469 L 504.542969 134.542969 L 505.488281 133.121094 L 506.457031 131.71875 L 507.445313 130.328125 L 508.457031 128.953125 L 509.492188 127.59375 L 510.546875 126.253906 L 511.625 124.925781 L 512.71875 123.621094 L 513.839844 122.328125 L 514.976563 121.058594 L 516.132813 119.804688 L 517.3125 118.570313 Z M 518.507813 117.351563 "/>
<path style="fill:none;stroke-width:2.25;stroke-linecap:round;stroke-linejoin:round;stroke:rgb(0%,0%,0%);stroke-opacity:1;stroke-miterlimit:10;" d="M 520.039063 420.101563 L 521.234375 418.882813 L 522.414063 417.648438 L 523.570313 416.394531 L 524.710938 415.121094 L 525.828125 413.832031 L 526.925781 412.523438 L 528 411.199219 L 529.054688 409.859375 L 530.089844 408.5 L 531.101563 407.125 L 532.09375 405.734375 L 533.058594 404.328125 L 534.003906 402.90625 L 534.929688 401.472656 L 535.828125 400.023438 L 536.707031 398.558594 L 537.558594 397.078125 L 538.386719 395.585938 L 539.195313 394.082031 L 539.976563 392.566406 L 540.734375 391.035156 L 541.46875 389.496094 L 542.175781 387.941406 L 542.863281 386.378906 L 543.519531 384.804688 L 544.15625 383.21875 L 544.765625 381.625 L 545.347656 380.019531 L 545.90625 378.410156 L 546.4375 376.785156 L 546.945313 375.15625 L 547.425781 373.519531 L 547.882813 371.875 L 548.308594 370.222656 L 548.714844 368.5625 L 549.089844 366.898438 L 549.4375 365.226563 L 549.761719 363.550781 L 550.058594 361.871094 L 550.328125 360.183594 L 550.570313 358.496094 L 550.785156 356.800781 L 550.976563 355.105469 L 551.136719 353.40625 L 551.273438 351.707031 L 551.382813 350 L 551.460938 348.296875 L 551.515625 346.589844 L 551.542969 344.882813 L 551.542969 343.175781 L 551.515625 341.46875 L 551.460938 339.765625 L 551.382813 338.058594 L 551.273438 336.355469 L 551.136719 334.65625 L 550.976563 332.957031 L 550.785156 331.257813 L 550.570313 329.566406 L 550.328125 327.875 L 550.058594 326.191406 L 549.761719 324.511719 L 549.4375 322.832031 L 549.089844 321.164063 L 548.714844 319.5 L 548.308594 317.839844 L 547.882813 316.1875 L 547.425781 314.542969 L 546.945313 312.90625 L 546.4375 311.273438 L 545.90625 309.652344 L 545.347656 308.039063 L 544.765625 306.4375 L 544.15625 304.839844 L 543.519531 303.257813 L 542.863281 301.683594 L 542.175781 300.117188 L 541.46875 298.566406 L 540.734375 297.023438 L 539.976563 295.496094 L 539.195313 293.976563 L 538.386719 292.472656 L 537.558594 290.980469 L 536.707031 289.503906 L 535.828125 288.039063 L 534.929688 286.589844 L 534.003906 285.152344 L 533.058594 283.730469 L 532.09375 282.328125 L 531.101563 280.9375 L 530.089844 279.5625 L 529.054688 278.203125 L 528 276.863281 L 526.925781 275.535156 L 525.828125 274.230469 L 524.710938 272.9375 L 523.570313 271.667969 L 522.414063 270.414063 L 521.234375 269.179688 L 520.039063 267.960938 L 521.234375 269.179688 L 522.414063 270.414063 L 523.570313 271.667969 L 524.710938 272.9375 L 525.828125 274.230469 L 526.925781 275.535156 L 528 276.863281 L 529.054688 278.203125 L 530.089844 279.5625 L 531.101563 280.9375 L 532.09375 282.328125 L 533.058594 283.730469 L 534.003906 285.152344 L 534.929688 286.589844 L 535.828125 288.039063 L 536.707031 289.503906 L 537.558594 290.980469 L 538.386719 292.472656 L 539.195313 293.976563 L 539.976563 295.496094 L 540.734375 297.023438 L 541.46875 298.566406 L 542.175781 300.117188 L 542.863281 301.683594 L 543.519531 303.257813 L 544.15625 304.839844 L 544.765625 306.4375 L 545.347656 308.039063 L 545.90625 309.652344 L 546.4375 311.273438 L 546.945313 312.90625 L 547.425781 314.542969 L 547.882813 316.1875 L 548.308594 317.839844 L 548.714844 319.5 L 549.089844 321.164063 L 549.4375 322.832031 L 549.761719 324.511719 L 550.058594 326.191406 L 550.328125 327.875 L 550.570313 329.566406 L 550.785156 331.257813 L 550.976563 332.957031 L 551.136719 334.65625 L 551.273438 336.355469 L 551.382813 338.058594 L 551.460938 339.765625 L 551.515625 341.46875 L 551.542969 343.175781 L 551.542969 344.882813 L 551.515625 346.589844 L 551.460938 348.296875 L 551.382813 350 L 551.273438 351.707031 L 551.136719 353.40625 L 550.976563 355.105469 L 550.785156 356.800781 L 550.570313 358.496094 L 550.328125 360.183594 L 550.058594 361.871094 L 549.761719 363.550781 L 549.4375 365.226563 L 549.089844 366.898438 L 548.714844 368.5625 L 548.308594 370.222656 L 547.882813 371.875 L 547.425781 373.519531 L 546.945313 375.15625 L 546.4375 376.785156 L 545.90625 378.410156 L 545.347656 380.019531 L 544.765625 381.625 L 544.15625 383.21875 L 543.519531 384.804688 L 542.863281 386.378906 L 542.175781 387.941406 L 541.46875 389.496094 L 540.734375 391.035156 L 539.976563 392.566406 L 539.195313 394.082031 L 538.386719 395.585938 L 537.558594 397.078125 L 536.707031 398.558594 L 535.828125 400.023438 L 534.929688 401.472656 L 534.003906 402.90625 L 533.058594 404.328125 L 532.09375 405.734375 L 531.101563 407.125 L 530.089844 408.5 L 529.054688 409.859375 L 528 411.199219 L 526.925781 412.523438 L 525.828125 413.832031 L 524.710938 415.121094 L 523.570313 416.394531 L 522.414063 417.648438 L 521.234375 418.882813 Z M 520.039063 420.101563 "/>
</g>
</svg>
