<?xml version="1.0" encoding="UTF-8"?>
<svg xmlns="http://www.w3.org/2000/svg" xmlns:xlink="http://www.w3.org/1999/xlink" width="504pt" height="504pt" viewBox="0 0 504 504" version="1.1">
<g id="surface2341">
<rect x="0" y="0" width="504" height="504" style="fill:rgb(100%,100%,100%);fill-opacity:1;stroke:none;"/>
<path style="fill:none;stroke-width:2.25;stroke-linecap:round;stroke-linejoin:round;stroke:rgb(0%,0%,0%);stroke-opacity:1;stroke-miterlimit:10;" d="M 252 73.25 L 237.324219 73.601563 L 222.703125 74.660156 L 208.199219 76.417969 L 193.867188 78.867188 L 179.765625 82 L 165.949219 85.800781 L 152.472656 90.261719 L 139.390625 95.359375 L 126.75 101.078125 L 114.605469 107.386719 L 103.003906 114.269531 L 91.988281 121.695313 L 81.605469 129.636719 L 71.890625 138.058594 L 62.890625 146.933594 L 54.636719 156.222656 L 47.164063 165.886719 L 40.496094 175.890625 L 34.664063 186.199219 L 29.691406 196.761719 L 25.59375 207.546875 L 22.390625 218.503906 L 20.09375 229.597656 L 18.710938 240.777344 L 18.25 252 L 18.710938 263.222656 L 20.09375 274.402344 L 22.390625 285.496094 L 25.59375 296.453125 L 29.691406 307.238281 L 34.664063 317.800781 L 40.496094 328.109375 L 47.164063 338.113281 L 54.636719 347.777344 L 62.890625 357.066406 L 71.890625 365.941406 L 81.605469 374.363281 L 91.988281 382.304688 L 103.003906 389.730469 L 114.605469 396.613281 L 126.75 402.921875 L 139.390625 408.640625 L 152.472656 413.738281 L 165.949219 418.199219 L 179.765625 422 L 193.867188 425.132813 L 208.199219 427.582031 L 222.703125 429.339844 L 237.324219 430.398438 L 252 430.75 L 266.675781 430.398438 L 281.296875 429.339844 L 295.800781 427.582031 L 310.132813 425.132813 L 324.234375 422 L 338.050781 418.199219 L 351.527344 413.738281 L 364.609375 408.640625 L 377.25 402.921875 L 389.394531 396.613281 L 400.996094 389.730469 L 412.011719 382.304688 L 422.394531 374.363281 L 432.109375 365.941406 L 441.109375 357.066406 L 449.363281 347.777344 L 456.835938 338.113281 L 463.503906 328.109375 L 469.335938 317.800781 L 474.308594 307.238281 L 478.40625 296.453125 L 481.609375 285.496094 L 483.90625 274.402344 L 485.289063 263.222656 L 485.75 252 L 485.289063 240.777344 L 483.90625 229.597656 L 481.609375 218.503906 L 478.40625 207.546875 L 474.308594 196.761719 L 469.335938 186.199219 L 463.503906 175.890625 L 456.835938 165.886719 L 449.363281 156.222656 L 441.109375 146.933594 L 432.109375 138.058594 L 422.394531 129.636719 L 412.011719 121.695313 L 400.996094 114.269531 L 389.394531 107.386719 L 377.25 101.078125 L 364.609375 95.359375 L 351.527344 90.261719 L 338.050781 85.800781 L 324.234375 82 L 310.132813 78.867188 L 295.800781 76.417969 L 281.296875 74.660156 L 266.675781 73.601563 Z M 252 73.25 "/>
<path style="fill-rule:nonzero;fill:rgb(100%,100%,100%);fill-opacity:1;stroke-width:2.25;stroke-linecap:round;stroke-linejoin:round;stroke:rgb(0%,0%,0%);stroke-opacity:1;stroke-miterlimit:10;" d="M 311.539063 148.875 L 192.460938 148.875 L 252 252 Z M 311.539063 148.875 "/>
<path style="fill-rule:nonzero;fill:rgb(74.509804%,74.509804%,74.509804%);fill-opacity:1;stroke-width:2.25;stroke-linecap:round;stroke-linejoin:round;stroke:rgb(0%,0%,0%);stroke-opacity:1;stroke-miterlimit:10;" d="M 252 252 L 192.460938 355.125 L 311.539063 355.125 Z M 252 252 "/>
</g>
</svg>
