<?xml version="1.0" encoding="UTF-8"?>
<svg xmlns="http://www.w3.org/2000/svg" xmlns:xlink="http://www.w3.org/1999/xlink" width="504pt" height="504pt" viewBox="0 0 504 504" version="1.1">
<g id="surface2246">
<rect x="0" y="0" width="504" height="504" style="fill:rgb(100%,100%,100%);fill-opacity:1;stroke:none;"/>
<path style="fill-rule:nonzero;fill:rgb(74.509804%,74.509804%,74.509804%);fill-opacity:1;stroke-width:2.25;stroke-linecap:round;stroke-linejoin:round;stroke:rgb(0%,0%,0%);stroke-opacity:1;stroke-miterlimit:10;" d="M 252 45.75 L 55.84375 188.265625 L 130.769531 418.859375 L 373.230469 418.859375 L 448.15625 188.265625 Z M 252 45.75 "/>
<path style="fill-rule:nonzero;fill:rgb(100%,100%,100%);fill-opacity:1;stroke-width:2.25;stroke-linecap:round;stroke-linejoin:round;stroke:rgb(0%,0%,0%);stroke-opacity:1;stroke-miterlimit:10;" d="M 366.582031 137.417969 L 362.890625 133.839844 L 359.085938 130.378906 L 355.171875 127.042969 L 351.15625 123.832031 L 347.039063 120.75 L 342.828125 117.800781 L 338.523438 114.988281 L 334.132813 112.3125 L 329.660156 109.777344 L 325.109375 107.382813 L 320.484375 105.136719 L 315.789063 103.039063 L 311.03125 101.089844 L 306.214844 99.292969 L 301.339844 97.648438 L 296.417969 96.160156 L 291.453125 94.832031 L 286.445313 93.65625 L 281.402344 92.644531 L 276.332031 91.792969 L 271.238281 91.101563 L 266.125 90.570313 L 260.996094 90.203125 L 255.855469 90 L 250.714844 89.960938 L 245.574219 90.082031 L 240.441406 90.367188 L 235.316406 90.816406 L 230.210938 91.425781 L 225.128906 92.199219 L 220.070313 93.132813 L 215.046875 94.222656 L 210.058594 95.476563 L 205.113281 96.886719 L 200.214844 98.453125 L 195.371094 100.171875 L 190.582031 102.042969 L 185.855469 104.070313 L 181.195313 106.242188 L 176.605469 108.5625 L 172.09375 111.027344 L 167.660156 113.632813 L 163.3125 116.378906 L 159.054688 119.261719 L 154.890625 122.277344 L 150.824219 125.421875 L 146.859375 128.695313 L 143 132.09375 L 139.25 135.613281 L 135.613281 139.25 L 132.09375 143 L 128.695313 146.859375 L 125.421875 150.824219 L 122.277344 154.890625 L 119.261719 159.054688 L 116.378906 163.3125 L 113.632813 167.660156 L 111.027344 172.09375 L 108.5625 176.605469 L 106.242188 181.195313 L 104.070313 185.855469 L 102.042969 190.582031 L 100.171875 195.371094 L 98.453125 200.214844 L 96.886719 205.113281 L 95.476563 210.058594 L 94.222656 215.046875 L 93.132813 220.070313 L 92.199219 225.128906 L 91.425781 230.210938 L 90.816406 235.316406 L 90.367188 240.441406 L 90.082031 245.574219 L 89.960938 250.714844 L 90 255.855469 L 90.203125 260.996094 L 90.570313 266.125 L 91.101563 271.238281 L 91.792969 276.332031 L 92.644531 281.402344 L 93.65625 286.445313 L 94.832031 291.453125 L 96.160156 296.417969 L 97.648438 301.339844 L 99.292969 306.214844 L 101.089844 311.03125 L 103.039063 315.789063 L 105.136719 320.484375 L 107.382813 325.109375 L 109.777344 329.660156 L 112.3125 334.132813 L 114.988281 338.523438 L 117.800781 342.828125 L 120.75 347.039063 L 123.832031 351.15625 L 127.042969 355.171875 L 130.378906 359.085938 L 133.839844 362.890625 L 137.417969 366.582031 Z M 366.582031 137.417969 "/>
<path style="fill-rule:nonzero;fill:rgb(100%,100%,100%);fill-opacity:1;stroke-width:2.25;stroke-linecap:round;stroke-linejoin:round;stroke:rgb(0%,0%,0%);stroke-opacity:1;stroke-miterlimit:10;" d="M 366.582031 137.417969 L 361 132.09375 L 355.171875 127.042969 L 349.109375 122.277344 L 342.828125 117.800781 L 336.339844 113.632813 L 329.660156 109.777344 L 322.804688 106.242188 L 315.789063 103.039063 L 308.628906 100.171875 L 301.339844 97.648438 L 293.941406 95.476563 L 286.445313 93.65625 L 278.871094 92.199219 L 271.238281 91.101563 L 263.558594 90.367188 L 255.855469 90 L 248.144531 90 L 240.441406 90.367188 L 232.761719 91.101563 L 225.128906 92.199219 L 217.554688 93.65625 L 210.058594 95.476563 L 202.660156 97.648438 L 195.371094 100.171875 L 188.210938 103.039063 L 181.195313 106.242188 L 174.339844 109.777344 L 167.660156 113.632813 L 161.171875 117.800781 L 154.890625 122.277344 L 148.828125 127.042969 L 143 132.09375 L 137.417969 137.417969 L 132.09375 143 L 127.042969 148.828125 L 122.277344 154.890625 L 117.800781 161.171875 L 113.632813 167.660156 L 109.777344 174.339844 L 106.242188 181.195313 L 103.039063 188.210938 L 100.171875 195.371094 L 97.648438 202.660156 L 95.476563 210.058594 L 93.65625 217.554688 L 92.199219 225.128906 L 91.101563 232.761719 L 90.367188 240.441406 L 90 248.144531 L 90 255.855469 L 90.367188 263.558594 L 91.101563 271.238281 L 92.199219 278.871094 L 93.65625 286.445313 L 95.476563 293.941406 L 97.648438 301.339844 L 100.171875 308.628906 L 103.039063 315.789063 L 106.242188 322.804688 L 109.777344 329.660156 L 113.632813 336.339844 L 117.800781 342.828125 L 122.277344 349.109375 L 127.042969 355.171875 L 132.09375 361 L 137.417969 366.582031 L 143 371.90625 L 148.828125 376.957031 L 154.890625 381.722656 L 161.171875 386.199219 L 167.660156 390.367188 L 174.339844 394.222656 L 181.195313 397.757813 L 188.210938 400.960938 L 195.371094 403.828125 L 202.660156 406.351563 L 210.058594 408.523438 L 217.554688 410.34375 L 225.128906 411.800781 L 232.761719 412.898438 L 240.441406 413.632813 L 248.144531 414 L 255.855469 414 L 263.558594 413.632813 L 271.238281 412.898438 L 278.871094 411.800781 L 286.445313 410.34375 L 293.941406 408.523438 L 301.339844 406.351563 L 308.628906 403.828125 L 315.789063 400.960938 L 322.804688 397.757813 L 329.660156 394.222656 L 336.339844 390.367188 L 342.828125 386.199219 L 349.109375 381.722656 L 355.171875 376.957031 L 361 371.90625 L 366.582031 366.582031 L 252 252 Z M 366.582031 137.417969 "/>
</g>
</svg>
