<?xml version="1.0" encoding="UTF-8"?>
<svg xmlns="http://www.w3.org/2000/svg" xmlns:xlink="http://www.w3.org/1999/xlink" width="504pt" height="504pt" viewBox="0 0 504 504" version="1.1">
<g id="surface2226">
<rect x="0" y="0" width="504" height="504" style="fill:rgb(100%,100%,100%);fill-opacity:1;stroke:none;"/>
<path style="fill-rule:nonzero;fill:rgb(74.509804%,74.509804%,74.509804%);fill-opacity:1;stroke-width:2.25;stroke-linecap:round;stroke-linejoin:round;stroke:rgb(0%,0%,0%);stroke-opacity:1;stroke-miterlimit:10;" d="M 252 45.75 L 55.84375 188.265625 L 130.769531 418.859375 L 373.230469 418.859375 L 448.15625 188.265625 Z M 252 45.75 "/>
<path style="fill-rule:nonzero;fill:rgb(100%,100%,100%);fill-opacity:1;stroke-width:2.25;stroke-linecap:round;stroke-linejoin:round;stroke:rgb(0%,0%,0%);stroke-opacity:1;stroke-miterlimit:10;" d="M 252 201.074219 L 249.761719 201.175781 L 247.53125 201.476563 L 245.320313 201.976563 L 243.132813 202.675781 L 240.984375 203.566406 L 238.878906 204.648438 L 236.820313 205.921875 L 234.828125 207.375 L 232.898438 209 L 231.046875 210.800781 L 229.277344 212.761719 L 227.597656 214.875 L 226.011719 217.140625 L 224.53125 219.539063 L 223.160156 222.066406 L 221.902344 224.710938 L 220.761719 227.464844 L 219.746094 230.316406 L 218.855469 233.253906 L 218.097656 236.261719 L 217.472656 239.335938 L 216.984375 242.457031 L 216.632813 245.617188 L 216.421875 248.800781 L 216.351563 252 L 216.421875 255.199219 L 216.632813 258.382813 L 216.984375 261.542969 L 217.472656 264.664063 L 218.097656 267.738281 L 218.855469 270.746094 L 219.746094 273.683594 L 220.761719 276.535156 L 221.902344 279.289063 L 223.160156 281.933594 L 224.53125 284.460938 L 226.011719 286.859375 L 227.597656 289.125 L 229.277344 291.238281 L 231.046875 293.199219 L 232.898438 295 L 234.828125 296.625 L 236.820313 298.078125 L 238.878906 299.351563 L 240.984375 300.433594 L 243.132813 301.324219 L 245.320313 302.023438 L 247.53125 302.523438 L 249.761719 302.824219 L 252 302.925781 L 254.238281 302.824219 L 256.46875 302.523438 L 258.679688 302.023438 L 260.867188 301.324219 L 263.015625 300.433594 L 265.121094 299.351563 L 267.179688 298.078125 L 269.171875 296.625 L 271.101563 295 L 272.953125 293.199219 L 274.722656 291.238281 L 276.402344 289.125 L 277.988281 286.859375 L 279.46875 284.460938 L 280.839844 281.933594 L 282.097656 279.289063 L 283.238281 276.535156 L 284.253906 273.683594 L 285.144531 270.746094 L 285.902344 267.738281 L 286.527344 264.664063 L 287.015625 261.542969 L 287.367188 258.382813 L 287.578125 255.199219 L 287.648438 252 L 287.578125 248.800781 L 287.367188 245.617188 L 287.015625 242.457031 L 286.527344 239.335938 L 285.902344 236.261719 L 285.144531 233.253906 L 284.253906 230.316406 L 283.238281 227.464844 L 282.097656 224.710938 L 280.839844 222.066406 L 279.46875 219.539063 L 277.988281 217.140625 L 276.402344 214.875 L 274.722656 212.761719 L 272.953125 210.800781 L 271.101563 209 L 269.171875 207.375 L 267.179688 205.921875 L 265.121094 204.648438 L 263.015625 203.566406 L 260.867188 202.675781 L 258.679688 201.976563 L 256.46875 201.476563 L 254.238281 201.175781 Z M 252 201.074219 "/>
</g>
</svg>
