<?xml version="1.0" encoding="UTF-8"?>
<svg xmlns="http://www.w3.org/2000/svg" xmlns:xlink="http://www.w3.org/1999/xlink" width="504pt" height="504pt" viewBox="0 0 504 504" version="1.1">
<g id="surface2241">
<rect x="0" y="0" width="504" height="504" style="fill:rgb(100%,100%,100%);fill-opacity:1;stroke:none;"/>
<path style="fill-rule:nonzero;fill:rgb(74.509804%,74.509804%,74.509804%);fill-opacity:1;stroke-width:2.25;stroke-linecap:round;stroke-linejoin:round;stroke:rgb(0%,0%,0%);stroke-opacity:1;stroke-miterlimit:10;" d="M 252 45.75 L 55.84375 188.265625 L 130.769531 418.859375 L 373.230469 418.859375 L 448.15625 188.265625 Z M 252 45.75 "/>
<path style="fill-rule:nonzero;fill:rgb(100%,100%,100%);fill-opacity:1;stroke-width:2.25;stroke-linecap:round;stroke-linejoin:round;stroke:rgb(0%,0%,0%);stroke-opacity:1;stroke-miterlimit:10;" d="M 306.015625 197.984375 L 303.535156 195.71875 L 300.851563 193.671875 L 297.972656 191.855469 L 294.914063 190.277344 L 291.6875 188.945313 L 288.304688 187.859375 L 284.773438 187.027344 L 281.117188 186.449219 L 277.347656 186.132813 L 273.476563 186.078125 L 269.519531 186.277344 L 265.492188 186.742188 L 261.414063 187.460938 L 257.296875 188.4375 L 253.160156 189.660156 L 249.019531 191.132813 L 244.886719 192.84375 L 240.785156 194.789063 L 236.730469 196.960938 L 232.730469 199.347656 L 228.808594 201.945313 L 224.980469 204.738281 L 221.257813 207.71875 L 217.65625 210.871094 L 214.1875 214.1875 L 210.871094 217.65625 L 207.71875 221.257813 L 204.738281 224.980469 L 201.945313 228.808594 L 199.347656 232.730469 L 196.960938 236.730469 L 194.789063 240.785156 L 192.84375 244.886719 L 191.132813 249.019531 L 189.660156 253.160156 L 188.4375 257.296875 L 187.460938 261.414063 L 186.742188 265.492188 L 186.277344 269.519531 L 186.078125 273.476563 L 186.132813 277.347656 L 186.449219 281.117188 L 187.027344 284.773438 L 187.859375 288.304688 L 188.945313 291.6875 L 190.277344 294.914063 L 191.855469 297.972656 L 193.671875 300.851563 L 195.71875 303.535156 L 197.984375 306.015625 L 200.464844 308.28125 L 203.148438 310.328125 L 206.027344 312.144531 L 209.085938 313.722656 L 212.3125 315.054688 L 215.695313 316.140625 L 219.226563 316.972656 L 222.882813 317.550781 L 226.652344 317.867188 L 230.523438 317.921875 L 234.480469 317.722656 L 238.507813 317.257813 L 242.585938 316.539063 L 246.703125 315.5625 L 250.839844 314.339844 L 254.980469 312.867188 L 259.113281 311.15625 L 263.214844 309.210938 L 267.269531 307.039063 L 271.269531 304.652344 L 275.191406 302.054688 L 279.019531 299.261719 L 282.742188 296.28125 L 286.34375 293.128906 L 289.8125 289.8125 L 293.128906 286.34375 L 296.28125 282.742188 L 299.261719 279.019531 L 302.054688 275.191406 L 304.652344 271.269531 L 307.039063 267.269531 L 309.210938 263.214844 L 311.15625 259.113281 L 312.867188 254.980469 L 314.339844 250.839844 L 315.5625 246.703125 L 316.539063 242.585938 L 317.257813 238.507813 L 317.722656 234.480469 L 317.921875 230.523438 L 317.867188 226.652344 L 317.550781 222.882813 L 316.972656 219.226563 L 316.140625 215.695313 L 315.054688 212.3125 L 313.722656 209.085938 L 312.144531 206.027344 L 310.328125 203.148438 L 308.28125 200.464844 Z M 306.015625 197.984375 "/>
</g>
</svg>
