<?xml version="1.0" encoding="UTF-8"?>
<svg xmlns="http://www.w3.org/2000/svg" xmlns:xlink="http://www.w3.org/1999/xlink" width="504pt" height="504pt" viewBox="0 0 504 504" version="1.1">
<g id="surface2321">
<rect x="0" y="0" width="504" height="504" style="fill:rgb(100%,100%,100%);fill-opacity:1;stroke:none;"/>
<path style="fill:none;stroke-width:2.25;stroke-linecap:round;stroke-linejoin:round;stroke:rgb(0%,0%,0%);stroke-opacity:1;stroke-miterlimit:10;" d="M 378.394531 125.605469 L 367.765625 115.476563 L 356.683594 105.886719 L 345.183594 96.871094 L 333.320313 88.46875 L 321.132813 80.714844 L 308.671875 73.632813 L 295.992188 67.257813 L 283.132813 61.613281 L 270.15625 56.714844 L 257.101563 52.589844 L 244.03125 49.253906 L 230.992188 46.714844 L 218.035156 44.988281 L 205.210938 44.078125 L 192.574219 43.988281 L 180.171875 44.71875 L 168.050781 46.265625 L 156.261719 48.628906 L 144.851563 51.792969 L 133.863281 55.746094 L 123.339844 60.472656 L 113.324219 65.957031 L 103.859375 72.175781 L 94.976563 79.101563 L 86.714844 86.714844 L 79.101563 94.976563 L 72.175781 103.859375 L 65.957031 113.324219 L 60.472656 123.339844 L 55.746094 133.863281 L 51.792969 144.851563 L 48.628906 156.261719 L 46.265625 168.050781 L 44.71875 180.171875 L 43.988281 192.574219 L 44.078125 205.210938 L 44.988281 218.035156 L 46.714844 230.992188 L 49.253906 244.03125 L 52.589844 257.101563 L 56.714844 270.15625 L 61.613281 283.132813 L 67.257813 295.992188 L 73.632813 308.671875 L 80.714844 321.132813 L 88.46875 333.320313 L 96.871094 345.183594 L 105.886719 356.683594 L 115.476563 367.765625 L 125.605469 378.394531 L 136.234375 388.523438 L 147.316406 398.113281 L 158.816406 407.128906 L 170.679688 415.53125 L 182.867188 423.285156 L 195.328125 430.367188 L 208.007813 436.742188 L 220.867188 442.386719 L 233.84375 447.285156 L 246.898438 451.410156 L 259.96875 454.746094 L 273.007813 457.285156 L 285.964844 459.011719 L 298.789063 459.921875 L 311.425781 460.011719 L 323.828125 459.28125 L 335.949219 457.734375 L 347.738281 455.371094 L 359.148438 452.207031 L 370.136719 448.253906 L 380.660156 443.527344 L 390.675781 438.042969 L 400.140625 431.824219 L 409.023438 424.898438 L 417.285156 417.285156 L 424.898438 409.023438 L 431.824219 400.140625 L 438.042969 390.675781 L 443.527344 380.660156 L 448.253906 370.136719 L 452.207031 359.148438 L 455.371094 347.738281 L 457.734375 335.949219 L 459.28125 323.828125 L 460.011719 311.425781 L 459.921875 298.789063 L 459.011719 285.964844 L 457.285156 273.007813 L 454.746094 259.96875 L 451.410156 246.898438 L 447.285156 233.84375 L 442.386719 220.867188 L 436.742188 208.007813 L 430.367188 195.328125 L 423.285156 182.867188 L 415.53125 170.679688 L 407.128906 158.816406 L 398.113281 147.316406 L 388.523438 136.234375 Z M 378.394531 125.605469 "/>
<path style="fill-rule:nonzero;fill:rgb(74.509804%,74.509804%,74.509804%);fill-opacity:1;stroke-width:2.25;stroke-linecap:round;stroke-linejoin:round;stroke:rgb(0%,0%,0%);stroke-opacity:1;stroke-miterlimit:10;" d="M 311.539063 148.875 L 192.460938 148.875 L 252 252 Z M 311.539063 148.875 "/>
<path style="fill-rule:nonzero;fill:rgb(100%,100%,100%);fill-opacity:1;stroke-width:2.25;stroke-linecap:round;stroke-linejoin:round;stroke:rgb(0%,0%,0%);stroke-opacity:1;stroke-miterlimit:10;" d="M 252 252 L 192.460938 355.125 L 311.539063 355.125 Z M 252 252 "/>
</g>
</svg>
