<?xml version="1.0" encoding="UTF-8"?>
<svg xmlns="http://www.w3.org/2000/svg" xmlns:xlink="http://www.w3.org/1999/xlink" width="504pt" height="504pt" viewBox="0 0 504 504" version="1.1">
<g id="surface2336">
<rect x="0" y="0" width="504" height="504" style="fill:rgb(100%,100%,100%);fill-opacity:1;stroke:none;"/>
<path style="fill:none;stroke-width:2.25;stroke-linecap:round;stroke-linejoin:round;stroke:rgb(0%,0%,0%);stroke-opacity:1;stroke-miterlimit:10;" d="M 125.605469 125.605469 L 115.476563 136.234375 L 105.886719 147.316406 L 96.871094 158.816406 L 88.46875 170.679688 L 80.714844 182.867188 L 73.632813 195.328125 L 67.257813 208.007813 L 61.613281 220.867188 L 56.714844 233.84375 L 52.589844 246.898438 L 49.253906 259.96875 L 46.714844 273.007813 L 44.988281 285.964844 L 44.078125 298.789063 L 43.988281 311.425781 L 44.71875 323.828125 L 46.265625 335.949219 L 48.628906 347.738281 L 51.792969 359.148438 L 55.746094 370.136719 L 60.472656 380.660156 L 65.957031 390.675781 L 72.175781 400.140625 L 79.101563 409.023438 L 86.714844 417.285156 L 94.976563 424.898438 L 103.859375 431.824219 L 113.324219 438.042969 L 123.339844 443.527344 L 133.863281 448.253906 L 144.851563 452.207031 L 156.261719 455.371094 L 168.050781 457.734375 L 180.171875 459.28125 L 192.574219 460.011719 L 205.210938 459.921875 L 218.035156 459.011719 L 230.992188 457.285156 L 244.03125 454.746094 L 257.101563 451.410156 L 270.15625 447.285156 L 283.132813 442.386719 L 295.992188 436.742188 L 308.671875 430.367188 L 321.132813 423.285156 L 333.320313 415.53125 L 345.183594 407.128906 L 356.683594 398.113281 L 367.765625 388.523438 L 378.394531 378.394531 L 388.523438 367.765625 L 398.113281 356.683594 L 407.128906 345.183594 L 415.53125 333.320313 L 423.285156 321.132813 L 430.367188 308.671875 L 436.742188 295.992188 L 442.386719 283.132813 L 447.285156 270.15625 L 451.410156 257.101563 L 454.746094 244.03125 L 457.285156 230.992188 L 459.011719 218.035156 L 459.921875 205.210938 L 460.011719 192.574219 L 459.28125 180.171875 L 457.734375 168.050781 L 455.371094 156.261719 L 452.207031 144.851563 L 448.253906 133.863281 L 443.527344 123.339844 L 438.042969 113.324219 L 431.824219 103.859375 L 424.898438 94.976563 L 417.285156 86.714844 L 409.023438 79.101563 L 400.140625 72.175781 L 390.675781 65.957031 L 380.660156 60.472656 L 370.136719 55.746094 L 359.148438 51.792969 L 347.738281 48.628906 L 335.949219 46.265625 L 323.828125 44.71875 L 311.425781 43.988281 L 298.789063 44.078125 L 285.964844 44.988281 L 273.007813 46.714844 L 259.96875 49.253906 L 246.898438 52.589844 L 233.84375 56.714844 L 220.867188 61.613281 L 208.007813 67.257813 L 195.328125 73.632813 L 182.867188 80.714844 L 170.679688 88.46875 L 158.816406 96.871094 L 147.316406 105.886719 L 136.234375 115.476563 Z M 125.605469 125.605469 "/>
<path style="fill-rule:nonzero;fill:rgb(74.509804%,74.509804%,74.509804%);fill-opacity:1;stroke-width:2.25;stroke-linecap:round;stroke-linejoin:round;stroke:rgb(0%,0%,0%);stroke-opacity:1;stroke-miterlimit:10;" d="M 311.539063 148.875 L 192.460938 148.875 L 252 252 Z M 311.539063 148.875 "/>
<path style="fill-rule:nonzero;fill:rgb(100%,100%,100%);fill-opacity:1;stroke-width:2.25;stroke-linecap:round;stroke-linejoin:round;stroke:rgb(0%,0%,0%);stroke-opacity:1;stroke-miterlimit:10;" d="M 252 252 L 192.460938 355.125 L 311.539063 355.125 Z M 252 252 "/>
</g>
</svg>
