<?xml version="1.0" encoding="UTF-8"?>
<svg xmlns="http://www.w3.org/2000/svg" xmlns:xlink="http://www.w3.org/1999/xlink" width="504pt" height="504pt" viewBox="0 0 504 504" version="1.1">
<g id="surface2236">
<rect x="0" y="0" width="504" height="504" style="fill:rgb(100%,100%,100%);fill-opacity:1;stroke:none;"/>
<path style="fill-rule:nonzero;fill:rgb(74.509804%,74.509804%,74.509804%);fill-opacity:1;stroke-width:2.25;stroke-linecap:round;stroke-linejoin:round;stroke:rgb(0%,0%,0%);stroke-opacity:1;stroke-miterlimit:10;" d="M 252 45.75 L 55.84375 188.265625 L 130.769531 418.859375 L 373.230469 418.859375 L 448.15625 188.265625 Z M 252 45.75 "/>
<path style="fill-rule:nonzero;fill:rgb(100%,100%,100%);fill-opacity:1;stroke-width:2.25;stroke-linecap:round;stroke-linejoin:round;stroke:rgb(0%,0%,0%);stroke-opacity:1;stroke-miterlimit:10;" d="M 252 170.976563 L 249.429688 171.019531 L 246.859375 171.140625 L 244.296875 171.34375 L 241.742188 171.628906 L 239.199219 171.996094 L 236.667969 172.441406 L 234.148438 172.96875 L 231.652344 173.574219 L 229.171875 174.257813 L 226.71875 175.023438 L 224.289063 175.863281 L 221.886719 176.78125 L 219.515625 177.773438 L 217.175781 178.84375 L 214.875 179.984375 L 212.605469 181.199219 L 210.378906 182.484375 L 208.195313 183.839844 L 206.054688 185.261719 L 203.960938 186.753906 L 201.914063 188.3125 L 199.917969 189.933594 L 197.976563 191.617188 L 196.089844 193.359375 L 194.253906 195.164063 L 192.480469 197.023438 L 190.765625 198.941406 L 189.113281 200.910156 L 187.523438 202.933594 L 186 205.003906 L 184.542969 207.121094 L 183.152344 209.28125 L 181.832031 211.488281 L 180.582031 213.734375 L 179.402344 216.019531 L 178.300781 218.34375 L 177.269531 220.699219 L 176.3125 223.085938 L 175.433594 225.5 L 174.632813 227.941406 L 173.90625 230.410156 L 173.261719 232.898438 L 172.695313 235.40625 L 172.207031 237.929688 L 171.800781 240.46875 L 171.476563 243.019531 L 171.230469 245.578125 L 171.070313 248.144531 L 170.988281 250.714844 L 170.988281 253.285156 L 171.070313 255.855469 L 171.230469 258.421875 L 171.476563 260.980469 L 171.800781 263.53125 L 172.207031 266.070313 L 172.695313 268.59375 L 173.261719 271.101563 L 173.90625 273.589844 L 174.632813 276.058594 L 175.433594 278.5 L 176.3125 280.914063 L 177.269531 283.300781 L 178.300781 285.65625 L 179.402344 287.980469 L 180.582031 290.265625 L 181.832031 292.511719 L 183.152344 294.71875 L 184.542969 296.878906 L 186 298.996094 L 187.523438 301.066406 L 189.113281 303.089844 L 190.765625 305.058594 L 192.480469 306.976563 L 194.253906 308.835938 L 196.089844 310.640625 L 197.976563 312.382813 L 199.917969 314.066406 L 201.914063 315.6875 L 203.960938 317.246094 L 206.054688 318.738281 L 208.195313 320.160156 L 210.378906 321.515625 L 212.605469 322.800781 L 214.875 324.015625 L 217.175781 325.15625 L 219.515625 326.226563 L 221.886719 327.21875 L 224.289063 328.136719 L 226.71875 328.976563 L 229.171875 329.742188 L 231.652344 330.425781 L 234.148438 331.03125 L 236.667969 331.558594 L 239.199219 332.003906 L 241.742188 332.371094 L 244.296875 332.65625 L 246.859375 332.859375 L 249.429688 332.980469 L 252 333.023438 Z M 252 170.976563 "/>
</g>
</svg>
