<?xml version="1.0" encoding="UTF-8"?>
<svg xmlns="http://www.w3.org/2000/svg" xmlns:xlink="http://www.w3.org/1999/xlink" width="504pt" height="504pt" viewBox="0 0 504 504" version="1.1">
<g id="surface2231">
<rect x="0" y="0" width="504" height="504" style="fill:rgb(100%,100%,100%);fill-opacity:1;stroke:none;"/>
<path style="fill-rule:nonzero;fill:rgb(74.509804%,74.509804%,74.509804%);fill-opacity:1;stroke-width:2.25;stroke-linecap:round;stroke-linejoin:round;stroke:rgb(0%,0%,0%);stroke-opacity:1;stroke-miterlimit:10;" d="M 252 45.75 L 55.84375 188.265625 L 130.769531 418.859375 L 373.230469 418.859375 L 448.15625 188.265625 Z M 252 45.75 "/>
<path style="fill-rule:nonzero;fill:rgb(100%,100%,100%);fill-opacity:1;stroke-width:2.25;stroke-linecap:round;stroke-linejoin:round;stroke:rgb(0%,0%,0%);stroke-opacity:1;stroke-miterlimit:10;" d="M 213.804688 213.804688 L 212.03125 215.667969 L 210.347656 217.609375 L 208.757813 219.628906 L 207.265625 221.722656 L 205.878906 223.886719 L 204.59375 226.113281 L 203.414063 228.398438 L 202.347656 230.738281 L 201.390625 233.125 L 200.550781 235.554688 L 199.824219 238.019531 L 199.21875 240.519531 L 198.734375 243.042969 L 198.367188 245.585938 L 198.121094 248.148438 L 198 250.714844 L 198 253.285156 L 198.121094 255.851563 L 198.367188 258.414063 L 198.734375 260.957031 L 199.21875 263.480469 L 199.824219 265.980469 L 200.550781 268.445313 L 201.390625 270.875 L 202.347656 273.261719 L 203.414063 275.601563 L 204.59375 277.886719 L 205.878906 280.113281 L 207.265625 282.277344 L 208.757813 284.371094 L 210.347656 286.390625 L 212.03125 288.332031 L 213.804688 290.195313 L 215.667969 291.96875 L 217.609375 293.652344 L 219.628906 295.242188 L 221.722656 296.734375 L 223.886719 298.121094 L 226.113281 299.40625 L 228.398438 300.585938 L 230.738281 301.652344 L 233.125 302.609375 L 235.554688 303.449219 L 238.019531 304.175781 L 240.519531 304.78125 L 243.042969 305.265625 L 245.585938 305.632813 L 248.148438 305.878906 L 250.714844 306 L 253.285156 306 L 255.851563 305.878906 L 258.414063 305.632813 L 260.957031 305.265625 L 263.480469 304.78125 L 265.980469 304.175781 L 268.445313 303.449219 L 270.875 302.609375 L 273.261719 301.652344 L 275.601563 300.585938 L 277.886719 299.40625 L 280.113281 298.121094 L 282.277344 296.734375 L 284.371094 295.242188 L 286.390625 293.652344 L 288.332031 291.96875 L 290.195313 290.195313 L 291.96875 288.332031 L 293.652344 286.390625 L 295.242188 284.371094 L 296.734375 282.277344 L 298.121094 280.113281 L 299.40625 277.886719 L 300.585938 275.601563 L 301.652344 273.261719 L 302.609375 270.875 L 303.449219 268.445313 L 304.175781 265.980469 L 304.78125 263.480469 L 305.265625 260.957031 L 305.632813 258.414063 L 305.878906 255.851563 L 306 253.285156 L 306 250.714844 L 305.878906 248.148438 L 305.632813 245.585938 L 305.265625 243.042969 L 304.78125 240.519531 L 304.175781 238.019531 L 303.449219 235.554688 L 302.609375 233.125 L 301.652344 230.738281 L 300.585938 228.398438 L 299.40625 226.113281 L 298.121094 223.886719 L 296.734375 221.722656 L 295.242188 219.628906 L 293.652344 217.609375 L 291.96875 215.667969 L 290.195313 213.804688 L 252 252 Z M 213.804688 213.804688 "/>
</g>
</svg>
