<?xml version="1.0" encoding="UTF-8"?>
<svg xmlns="http://www.w3.org/2000/svg" xmlns:xlink="http://www.w3.org/1999/xlink" width="504pt" height="504pt" viewBox="0 0 504 504" version="1.1">
<g id="surface2526">
<rect x="0" y="0" width="504" height="504" style="fill:rgb(100%,100%,100%);fill-opacity:1;stroke:none;"/>
<path style="fill:none;stroke-width:2.25;stroke-linecap:round;stroke-linejoin:round;stroke:rgb(0%,0%,0%);stroke-opacity:1;stroke-miterlimit:10;" d="M 375.75 252 L 375.503906 246.820313 L 374.773438 241.660156 L 373.558594 236.542969 L 371.863281 231.484375 L 369.691406 226.507813 L 367.058594 221.628906 L 363.972656 216.875 L 360.441406 212.253906 L 356.484375 207.792969 L 352.117188 203.507813 L 347.351563 199.414063 L 342.210938 195.523438 L 336.710938 191.859375 L 330.882813 188.433594 L 324.738281 185.257813 L 318.308594 182.34375 L 311.617188 179.703125 L 304.691406 177.351563 L 297.554688 175.292969 L 290.242188 173.539063 L 282.773438 172.09375 L 275.1875 170.960938 L 267.511719 170.152344 L 259.769531 169.664063 L 252 169.5 L 244.230469 169.664063 L 236.488281 170.152344 L 228.8125 170.960938 L 221.226563 172.09375 L 213.757813 173.539063 L 206.445313 175.292969 L 199.308594 177.351563 L 192.382813 179.703125 L 185.691406 182.34375 L 179.261719 185.257813 L 173.117188 188.433594 L 167.289063 191.859375 L 161.789063 195.523438 L 156.648438 199.414063 L 151.882813 203.507813 L 147.515625 207.792969 L 143.558594 212.253906 L 140.027344 216.875 L 136.941406 221.628906 L 134.308594 226.507813 L 132.136719 231.484375 L 130.441406 236.542969 L 129.226563 241.660156 L 128.496094 246.820313 L 128.25 252 L 128.496094 257.179688 L 129.226563 262.339844 L 130.441406 267.457031 L 132.136719 272.515625 L 134.308594 277.492188 L 136.941406 282.371094 L 140.027344 287.125 L 143.558594 291.746094 L 147.515625 296.207031 L 151.882813 300.492188 L 156.648438 304.585938 L 161.789063 308.476563 L 167.289063 312.140625 L 173.117188 315.566406 L 179.261719 318.742188 L 185.691406 321.65625 L 192.382813 324.296875 L 199.308594 326.648438 L 206.445313 328.707031 L 213.757813 330.460938 L 221.226563 331.90625 L 228.8125 333.039063 L 236.488281 333.847656 L 244.230469 334.335938 L 252 334.5 L 259.769531 334.335938 L 267.511719 333.847656 L 275.1875 333.039063 L 282.773438 331.90625 L 290.242188 330.460938 L 297.554688 328.707031 L 304.691406 326.648438 L 311.617188 324.296875 L 318.308594 321.65625 L 324.738281 318.742188 L 330.882813 315.566406 L 336.710938 312.140625 L 342.210938 308.476563 L 347.351563 304.585938 L 352.117188 300.492188 L 356.484375 296.207031 L 360.441406 291.746094 L 363.972656 287.125 L 367.058594 282.371094 L 369.691406 277.492188 L 371.863281 272.515625 L 373.558594 267.457031 L 374.773438 262.339844 L 375.503906 257.179688 Z M 375.75 252 "/>
<path style="fill:none;stroke-width:1.5;stroke-linecap:round;stroke-linejoin:round;stroke:rgb(0%,0%,0%);stroke-opacity:1;stroke-miterlimit:10;" d="M 334.5 252 L 334.335938 246.820313 L 333.847656 241.660156 L 333.039063 236.542969 L 331.90625 231.484375 L 330.460938 226.507813 L 328.707031 221.628906 L 326.648438 216.875 L 324.296875 212.253906 L 321.65625 207.792969 L 318.742188 203.507813 L 315.566406 199.414063 L 312.140625 195.523438 L 308.476563 191.859375 L 304.585938 188.433594 L 300.492188 185.257813 L 296.207031 182.34375 L 291.746094 179.703125 L 287.125 177.351563 L 282.371094 175.292969 L 277.492188 173.539063 L 272.515625 172.09375 L 267.457031 170.960938 L 262.339844 170.152344 L 257.179688 169.664063 L 252 169.5 L 246.820313 169.664063 L 241.660156 170.152344 L 236.542969 170.960938 L 231.484375 172.09375 L 226.507813 173.539063 L 221.628906 175.292969 L 216.875 177.351563 L 212.253906 179.703125 L 207.792969 182.34375 L 203.507813 185.257813 L 199.414063 188.433594 L 195.523438 191.859375 L 191.859375 195.523438 L 188.433594 199.414063 L 185.257813 203.507813 L 182.34375 207.792969 L 179.703125 212.253906 L 177.351563 216.875 L 175.292969 221.628906 L 173.539063 226.507813 L 172.09375 231.484375 L 170.960938 236.542969 L 170.152344 241.660156 L 169.664063 246.820313 L 169.5 252 L 169.664063 257.179688 L 170.152344 262.339844 L 170.960938 267.457031 L 172.09375 272.515625 L 173.539063 277.492188 L 175.292969 282.371094 L 177.351563 287.125 L 179.703125 291.746094 L 182.34375 296.207031 L 185.257813 300.492188 L 188.433594 304.585938 L 191.859375 308.476563 L 195.523438 312.140625 L 199.414063 315.566406 L 203.507813 318.742188 L 207.792969 321.65625 L 212.253906 324.296875 L 216.875 326.648438 L 221.628906 328.707031 L 226.507813 330.460938 L 231.484375 331.90625 L 236.542969 333.039063 L 241.660156 333.847656 L 246.820313 334.335938 L 252 334.5 L 257.179688 334.335938 L 262.339844 333.847656 L 267.457031 333.039063 L 272.515625 331.90625 L 277.492188 330.460938 L 282.371094 328.707031 L 287.125 326.648438 L 291.746094 324.296875 L 296.207031 321.65625 L 300.492188 318.742188 L 304.585938 315.566406 L 308.476563 312.140625 L 312.140625 308.476563 L 315.566406 304.585938 L 318.742188 300.492188 L 321.65625 296.207031 L 324.296875 291.746094 L 326.648438 287.125 L 328.707031 282.371094 L 330.460938 277.492188 L 331.90625 272.515625 L 333.039063 267.457031 L 333.847656 262.339844 L 334.335938 257.179688 Z M 334.5 252 "/>
<path style="fill:none;stroke-width:2.25;stroke-linecap:round;stroke-linejoin:round;stroke:rgb(0%,0%,0%);stroke-opacity:1;stroke-miterlimit:10;" d="M 252 45.75 L 55.84375 188.265625 L 130.769531 418.859375 L 373.230469 418.859375 L 448.15625 188.265625 Z M 252 45.75 "/>
</g>
</svg>
