<?xml version="1.0" encoding="UTF-8"?>
<svg xmlns="http://www.w3.org/2000/svg" xmlns:xlink="http://www.w3.org/1999/xlink" width="504pt" height="504pt" viewBox="0 0 504 504" version="1.1">
<g id="surface2326">
<rect x="0" y="0" width="504" height="504" style="fill:rgb(100%,100%,100%);fill-opacity:1;stroke:none;"/>
<path style="fill:none;stroke-width:2.25;stroke-linecap:round;stroke-linejoin:round;stroke:rgb(0%,0%,0%);stroke-opacity:1;stroke-miterlimit:10;" d="M 252 45.75 L 55.84375 188.265625 L 130.769531 418.859375 L 373.230469 418.859375 L 448.15625 188.265625 Z M 252 45.75 "/>
<path style="fill:none;stroke-width:2.25;stroke-linecap:round;stroke-linejoin:round;stroke:rgb(0%,0%,0%);stroke-opacity:1;stroke-miterlimit:10;" d="M 430.75 252 L 430.398438 237.324219 L 429.339844 222.703125 L 427.582031 208.199219 L 425.132813 193.867188 L 422 179.765625 L 418.199219 165.949219 L 413.738281 152.472656 L 408.640625 139.390625 L 402.921875 126.75 L 396.613281 114.605469 L 389.730469 103.003906 L 382.304688 91.988281 L 374.363281 81.605469 L 365.941406 71.890625 L 357.066406 62.890625 L 347.777344 54.636719 L 338.113281 47.164063 L 328.109375 40.496094 L 317.800781 34.664063 L 307.238281 29.691406 L 296.453125 25.59375 L 285.496094 22.390625 L 274.402344 20.09375 L 263.222656 18.710938 L 252 18.25 L 240.777344 18.710938 L 229.597656 20.09375 L 218.503906 22.390625 L 207.546875 25.59375 L 196.761719 29.691406 L 186.199219 34.664063 L 175.890625 40.496094 L 165.886719 47.164063 L 156.222656 54.636719 L 146.933594 62.890625 L 138.058594 71.890625 L 129.636719 81.605469 L 121.695313 91.988281 L 114.269531 103.003906 L 107.386719 114.605469 L 101.078125 126.75 L 95.359375 139.390625 L 90.261719 152.472656 L 85.800781 165.949219 L 82 179.765625 L 78.867188 193.867188 L 76.417969 208.199219 L 74.660156 222.703125 L 73.601563 237.324219 L 73.25 252 L 73.601563 266.675781 L 74.660156 281.296875 L 76.417969 295.800781 L 78.867188 310.132813 L 82 324.234375 L 85.800781 338.050781 L 90.261719 351.527344 L 95.359375 364.609375 L 101.078125 377.25 L 107.386719 389.394531 L 114.269531 400.996094 L 121.695313 412.011719 L 129.636719 422.394531 L 138.058594 432.109375 L 146.933594 441.109375 L 156.222656 449.363281 L 165.886719 456.835938 L 175.890625 463.503906 L 186.199219 469.335938 L 196.761719 474.308594 L 207.546875 478.40625 L 218.503906 481.609375 L 229.597656 483.90625 L 240.777344 485.289063 L 252 485.75 L 263.222656 485.289063 L 274.402344 483.90625 L 285.496094 481.609375 L 296.453125 478.40625 L 307.238281 474.308594 L 317.800781 469.335938 L 328.109375 463.503906 L 338.113281 456.835938 L 347.777344 449.363281 L 357.066406 441.109375 L 365.941406 432.109375 L 374.363281 422.394531 L 382.304688 412.011719 L 389.730469 400.996094 L 396.613281 389.394531 L 402.921875 377.25 L 408.640625 364.609375 L 413.738281 351.527344 L 418.199219 338.050781 L 422 324.234375 L 425.132813 310.132813 L 427.582031 295.800781 L 429.339844 281.296875 L 430.398438 266.675781 Z M 430.75 252 "/>
<path style="fill-rule:nonzero;fill:rgb(74.509804%,74.509804%,74.509804%);fill-opacity:1;stroke-width:2.25;stroke-linecap:round;stroke-linejoin:round;stroke:rgb(0%,0%,0%);stroke-opacity:1;stroke-miterlimit:10;" d="M 311.539063 148.875 L 192.460938 148.875 L 252 252 Z M 311.539063 148.875 "/>
<path style="fill-rule:nonzero;fill:rgb(100%,100%,100%);fill-opacity:1;stroke-width:2.25;stroke-linecap:round;stroke-linejoin:round;stroke:rgb(0%,0%,0%);stroke-opacity:1;stroke-miterlimit:10;" d="M 252 252 L 192.460938 355.125 L 311.539063 355.125 Z M 252 252 "/>
</g>
</svg>
