<?xml version="1.0" encoding="UTF-8"?>
<svg xmlns="http://www.w3.org/2000/svg" xmlns:xlink="http://www.w3.org/1999/xlink" width="1008pt" height="612pt" viewBox="0 0 1008 612" version="1.1">
<g id="surface136">
<rect x="0" y="0" width="1008" height="612" style="fill:rgb(100%,100%,100%);fill-opacity:1;stroke:none;"/>
<path style="fill-rule:nonzero;fill:rgb(74.509804%,74.509804%,74.509804%);fill-opacity:1;stroke-width:2.25;stroke-linecap:round;stroke-linejoin:round;stroke:rgb(0%,0%,0%);stroke-opacity:1;stroke-miterlimit:10;" d="M 180.050781 306 L 140.425781 237.367188 L 61.175781 237.367188 L 21.550781 306 L 61.175781 374.632813 L 140.425781 374.632813 Z M 180.050781 306 "/>
<path style="fill-rule:nonzero;fill:rgb(0%,0%,0%);fill-opacity:1;stroke-width:2.25;stroke-linecap:round;stroke-linejoin:round;stroke:rgb(0%,0%,0%);stroke-opacity:1;stroke-miterlimit:10;" d="M 331.75 306 L 317.074219 280.582031 L 287.722656 280.582031 L 273.046875 306 L 287.722656 331.417969 L 317.074219 331.417969 Z M 331.75 306 "/>
<path style="fill-rule:nonzero;fill:rgb(0%,0%,0%);fill-opacity:1;stroke-width:2.25;stroke-linecap:round;stroke-linejoin:round;stroke:rgb(0%,0%,0%);stroke-opacity:1;stroke-miterlimit:10;" d="M 583.25 306 L 543.625 237.367188 L 464.375 237.367188 L 424.75 306 L 464.375 374.632813 L 543.625 374.632813 Z M 583.25 306 "/>
<path style="fill-rule:nonzero;fill:rgb(100%,100%,100%);fill-opacity:1;stroke-width:2.25;stroke-linecap:round;stroke-linejoin:round;stroke:rgb(0%,0%,0%);stroke-opacity:1;stroke-miterlimit:10;" d="M 784.851563 306 L 745.226563 237.367188 L 665.976563 237.367188 L 626.351563 306 L 665.976563 374.632813 L 745.226563 374.632813 Z M 784.851563 306 "/>
<path style="fill-rule:nonzero;fill:rgb(100%,100%,100%);fill-opacity:1;stroke-width:2.25;stroke-linecap:round;stroke-linejoin:round;stroke:rgb(0%,0%,0%);stroke-opacity:1;stroke-miterlimit:10;" d="M 986.449219 306 L 946.824219 237.367188 L 867.574219 237.367188 L 827.949219 306 L 867.574219 374.632813 L 946.824219 374.632813 Z M 986.449219 306 "/>
<path style="fill-rule:nonzero;fill:rgb(74.509804%,74.509804%,74.509804%);fill-opacity:1;stroke-width:2.25;stroke-linecap:round;stroke-linejoin:round;stroke:rgb(0%,0%,0%);stroke-opacity:1;stroke-miterlimit:10;" d="M 986.449219 306 L 946.824219 237.367188 L 867.574219 237.367188 L 827.949219 306 L 867.574219 374.632813 L 946.824219 374.632813 Z M 986.449219 306 "/>
<path style="fill-rule:nonzero;fill:rgb(0%,0%,0%);fill-opacity:1;stroke-width:2.25;stroke-linecap:round;stroke-linejoin:round;stroke:rgb(0%,0%,0%);stroke-opacity:1;stroke-miterlimit:10;" d="M 986.449219 306 L 946.824219 237.367188 L 867.574219 237.367188 L 827.949219 306 L 867.574219 374.632813 L 946.824219 374.632813 Z M 986.449219 306 "/>
<path style="fill-rule:nonzero;fill:rgb(100%,100%,100%);fill-opacity:1;stroke-width:2.25;stroke-linecap:round;stroke-linejoin:round;stroke:rgb(0%,0%,0%);stroke-opacity:1;stroke-miterlimit:10;" d="M 986.449219 306 L 946.824219 237.367188 L 867.574219 237.367188 L 827.949219 306 L 867.574219 374.632813 L 946.824219 374.632813 Z M 986.449219 306 "/>
<path style="fill-rule:nonzero;fill:rgb(74.509804%,74.509804%,74.509804%);fill-opacity:1;stroke-width:2.25;stroke-linecap:round;stroke-linejoin:round;stroke:rgb(0%,0%,0%);stroke-opacity:1;stroke-miterlimit:10;" d="M 986.449219 306 L 946.824219 237.367188 L 867.574219 237.367188 L 827.949219 306 L 867.574219 374.632813 L 946.824219 374.632813 Z M 986.449219 306 "/>
<path style="fill-rule:nonzero;fill:rgb(0%,0%,0%);fill-opacity:1;stroke-width:2.25;stroke-linecap:round;stroke-linejoin:round;stroke:rgb(0%,0%,0%);stroke-opacity:1;stroke-miterlimit:10;" d="M 986.449219 306 L 946.824219 237.367188 L 867.574219 237.367188 L 827.949219 306 L 867.574219 374.632813 L 946.824219 374.632813 Z M 986.449219 306 "/>
<path style="fill-rule:nonzero;fill:rgb(100%,100%,100%);fill-opacity:1;stroke-width:2.25;stroke-linecap:round;stroke-linejoin:round;stroke:rgb(0%,0%,0%);stroke-opacity:1;stroke-miterlimit:10;" d="M 986.449219 306 L 946.824219 237.367188 L 867.574219 237.367188 L 827.949219 306 L 867.574219 374.632813 L 946.824219 374.632813 Z M 986.449219 306 "/>
<path style="fill-rule:nonzero;fill:rgb(74.509804%,74.509804%,74.509804%);fill-opacity:1;stroke-width:2.25;stroke-linecap:round;stroke-linejoin:round;stroke:rgb(0%,0%,0%);stroke-opacity:1;stroke-miterlimit:10;" d="M 986.449219 306 L 946.824219 237.367188 L 867.574219 237.367188 L 827.949219 306 L 867.574219 374.632813 L 946.824219 374.632813 Z M 986.449219 306 "/>
<path style="fill:none;stroke-width:2.25;stroke-linecap:round;stroke-linejoin:round;stroke:rgb(0%,0%,0%);stroke-opacity:1;stroke-miterlimit:10;" d="M 867.574219 266.375 L 946.824219 345.625 Z M 867.574219 266.375 "/>
<path style="fill:none;stroke-width:2.25;stroke-linecap:round;stroke-linejoin:round;stroke:rgb(0%,0%,0%);stroke-opacity:1;stroke-miterlimit:10;" d="M 867.574219 345.625 L 946.824219 266.375 Z M 867.574219 345.625 "/>
</g>
</svg>
