<?xml version="1.0" encoding="UTF-8"?>
<svg xmlns="http://www.w3.org/2000/svg" xmlns:xlink="http://www.w3.org/1999/xlink" width="900pt" height="432pt" viewBox="0 0 900 432" version="1.1">
<g id="surface1">
<rect x="0" y="0" width="900" height="432" style="fill:rgb(100%,100%,100%);fill-opacity:1;stroke:none;"/>
<path style="fill-rule:nonzero;fill:rgb(0%,0%,0%);fill-opacity:1;stroke-width:2.25;stroke-linecap:round;stroke-linejoin:round;stroke:rgb(0%,0%,0%);stroke-opacity:1;stroke-miterlimit:10;" d="M 115.878906 216 L 102.941406 193.585938 L 77.058594 193.585938 L 64.121094 216 L 77.058594 238.414063 L 102.941406 238.414063 Z M 115.878906 216 "/>
<path style="fill-rule:nonzero;fill:rgb(100%,100%,100%);fill-opacity:1;stroke-width:2.25;stroke-linecap:round;stroke-linejoin:round;stroke:rgb(0%,0%,0%);stroke-opacity:1;stroke-miterlimit:10;" d="M 339.875 216 L 304.9375 155.488281 L 235.0625 155.488281 L 200.125 216 L 235.0625 276.511719 L 304.9375 276.511719 Z M 339.875 216 "/>
<path style="fill-rule:nonzero;fill:rgb(74.509804%,74.509804%,74.509804%);fill-opacity:1;stroke-width:2.25;stroke-linecap:round;stroke-linejoin:round;stroke:rgb(0%,0%,0%);stroke-opacity:1;stroke-miterlimit:10;" d="M 339.875 216 L 304.9375 155.488281 L 235.0625 155.488281 L 200.125 216 L 235.0625 276.511719 L 304.9375 276.511719 Z M 339.875 216 "/>
<path style="fill-rule:nonzero;fill:rgb(0%,0%,0%);fill-opacity:1;stroke-width:2.25;stroke-linecap:round;stroke-linejoin:round;stroke:rgb(0%,0%,0%);stroke-opacity:1;stroke-miterlimit:10;" d="M 339.875 216 L 304.9375 155.488281 L 235.0625 155.488281 L 200.125 216 L 235.0625 276.511719 L 304.9375 276.511719 Z M 339.875 216 "/>
<path style="fill-rule:nonzero;fill:rgb(100%,100%,100%);fill-opacity:1;stroke-width:2.25;stroke-linecap:round;stroke-linejoin:round;stroke:rgb(0%,0%,0%);stroke-opacity:1;stroke-miterlimit:10;" d="M 339.875 216 L 304.9375 155.488281 L 235.0625 155.488281 L 200.125 216 L 235.0625 276.511719 L 304.9375 276.511719 Z M 339.875 216 "/>
<path style="fill-rule:nonzero;fill:rgb(74.509804%,74.509804%,74.509804%);fill-opacity:1;stroke-width:2.25;stroke-linecap:round;stroke-linejoin:round;stroke:rgb(0%,0%,0%);stroke-opacity:1;stroke-miterlimit:10;" d="M 339.875 216 L 304.9375 155.488281 L 235.0625 155.488281 L 200.125 216 L 235.0625 276.511719 L 304.9375 276.511719 Z M 339.875 216 "/>
<path style="fill-rule:nonzero;fill:rgb(0%,0%,0%);fill-opacity:1;stroke-width:2.25;stroke-linecap:round;stroke-linejoin:round;stroke:rgb(0%,0%,0%);stroke-opacity:1;stroke-miterlimit:10;" d="M 339.875 216 L 304.9375 155.488281 L 235.0625 155.488281 L 200.125 216 L 235.0625 276.511719 L 304.9375 276.511719 Z M 339.875 216 "/>
<path style="fill-rule:nonzero;fill:rgb(100%,100%,100%);fill-opacity:1;stroke-width:2.25;stroke-linecap:round;stroke-linejoin:round;stroke:rgb(0%,0%,0%);stroke-opacity:1;stroke-miterlimit:10;" d="M 339.875 216 L 304.9375 155.488281 L 235.0625 155.488281 L 200.125 216 L 235.0625 276.511719 L 304.9375 276.511719 Z M 339.875 216 "/>
<path style="fill-rule:nonzero;fill:rgb(74.509804%,74.509804%,74.509804%);fill-opacity:1;stroke-width:2.25;stroke-linecap:round;stroke-linejoin:round;stroke:rgb(0%,0%,0%);stroke-opacity:1;stroke-miterlimit:10;" d="M 339.875 216 L 304.9375 155.488281 L 235.0625 155.488281 L 200.125 216 L 235.0625 276.511719 L 304.9375 276.511719 Z M 339.875 216 "/>
<path style="fill:none;stroke-width:2.25;stroke-linecap:round;stroke-linejoin:round;stroke:rgb(0%,0%,0%);stroke-opacity:1;stroke-miterlimit:10;" d="M 219.675781 217.414063 L 220.070313 217.800781 L 220.472656 218.183594 L 220.878906 218.558594 L 221.292969 218.929688 L 221.710938 219.292969 L 222.136719 219.648438 L 222.566406 220 L 223 220.339844 L 223.441406 220.675781 L 223.886719 221.007813 L 224.339844 221.328125 L 224.796875 221.640625 L 225.257813 221.949219 L 225.722656 222.25 L 226.195313 222.539063 L 226.671875 222.824219 L 227.152344 223.101563 L 227.636719 223.371094 L 228.125 223.632813 L 228.617188 223.886719 L 229.113281 224.132813 L 229.613281 224.371094 L 230.117188 224.601563 L 230.625 224.824219 L 231.136719 225.039063 L 231.652344 225.246094 L 232.167969 225.441406 L 232.691406 225.632813 L 233.214844 225.8125 L 233.742188 225.988281 L 234.269531 226.152344 L 234.800781 226.308594 L 235.335938 226.457031 L 235.875 226.59375 L 236.410156 226.726563 L 236.953125 226.847656 L 237.496094 226.960938 L 238.039063 227.066406 L 238.585938 227.160156 L 239.132813 227.25 L 239.679688 227.328125 L 240.230469 227.398438 L 240.78125 227.460938 L 241.335938 227.511719 L 241.886719 227.558594 L 242.441406 227.59375 L 242.992188 227.617188 L 243.546875 227.636719 L 244.101563 227.644531 L 244.65625 227.644531 L 245.210938 227.636719 L 245.765625 227.617188 L 246.320313 227.59375 L 246.871094 227.558594 L 247.425781 227.511719 L 247.976563 227.460938 L 248.527344 227.398438 L 249.078125 227.328125 L 249.625 227.25 L 250.171875 227.160156 L 250.71875 227.066406 L 251.261719 226.960938 L 251.804688 226.847656 L 252.347656 226.726563 L 252.886719 226.59375 L 253.421875 226.457031 L 253.957031 226.308594 L 254.488281 226.152344 L 255.015625 225.988281 L 255.542969 225.8125 L 256.066406 225.632813 L 256.589844 225.441406 L 257.105469 225.246094 L 257.621094 225.039063 L 258.132813 224.824219 L 258.640625 224.601563 L 259.144531 224.371094 L 259.644531 224.132813 L 260.140625 223.886719 L 260.632813 223.632813 L 261.121094 223.371094 L 261.605469 223.101563 L 262.085938 222.824219 L 262.5625 222.539063 L 263.035156 222.25 L 263.5 221.949219 L 263.960938 221.640625 L 264.417969 221.328125 L 264.871094 221.007813 L 265.316406 220.675781 L 265.757813 220.339844 L 266.191406 220 L 266.625 219.648438 L 267.046875 219.292969 L 267.46875 218.929688 L 267.878906 218.558594 L 268.289063 218.183594 L 268.6875 217.800781 L 269.082031 217.414063 L 268.6875 217.800781 L 268.289063 218.183594 L 267.878906 218.558594 L 267.46875 218.929688 L 267.046875 219.292969 L 266.625 219.648438 L 266.191406 220 L 265.757813 220.339844 L 265.316406 220.675781 L 264.871094 221.007813 L 264.417969 221.328125 L 263.960938 221.640625 L 263.5 221.949219 L 263.035156 222.25 L 262.5625 222.539063 L 262.085938 222.824219 L 261.605469 223.101563 L 261.121094 223.371094 L 260.632813 223.632813 L 260.140625 223.886719 L 259.644531 224.132813 L 259.144531 224.371094 L 258.640625 224.601563 L 258.132813 224.824219 L 257.621094 225.039063 L 257.105469 225.246094 L 256.589844 225.441406 L 256.066406 225.632813 L 255.542969 225.8125 L 255.015625 225.988281 L 254.488281 226.152344 L 253.957031 226.308594 L 253.421875 226.457031 L 252.886719 226.59375 L 252.347656 226.726563 L 251.804688 226.847656 L 251.261719 226.960938 L 250.71875 227.066406 L 250.171875 227.160156 L 249.625 227.25 L 249.078125 227.328125 L 248.527344 227.398438 L 247.976563 227.460938 L 247.425781 227.511719 L 246.871094 227.558594 L 246.320313 227.59375 L 245.765625 227.617188 L 245.210938 227.636719 L 244.65625 227.644531 L 244.101563 227.644531 L 243.546875 227.636719 L 242.992188 227.617188 L 242.441406 227.59375 L 241.886719 227.558594 L 241.335938 227.511719 L 240.78125 227.460938 L 240.230469 227.398438 L 239.679688 227.328125 L 239.132813 227.25 L 238.585938 227.160156 L 238.039063 227.066406 L 237.496094 226.960938 L 236.953125 226.847656 L 236.410156 226.726563 L 235.875 226.59375 L 235.335938 226.457031 L 234.800781 226.308594 L 234.269531 226.152344 L 233.742188 225.988281 L 233.214844 225.8125 L 232.691406 225.632813 L 232.167969 225.441406 L 231.652344 225.246094 L 231.136719 225.039063 L 230.625 224.824219 L 230.117188 224.601563 L 229.613281 224.371094 L 229.113281 224.132813 L 228.617188 223.886719 L 228.125 223.632813 L 227.636719 223.371094 L 227.152344 223.101563 L 226.671875 222.824219 L 226.195313 222.539063 L 225.722656 222.25 L 225.257813 221.949219 L 224.796875 221.640625 L 224.339844 221.328125 L 223.886719 221.007813 L 223.441406 220.675781 L 223 220.339844 L 222.566406 220 L 222.136719 219.648438 L 221.710938 219.292969 L 221.292969 218.929688 L 220.878906 218.558594 L 220.472656 218.183594 L 220.070313 217.800781 Z M 219.675781 217.414063 "/>
<path style="fill:none;stroke-width:2.25;stroke-linecap:round;stroke-linejoin:round;stroke:rgb(0%,0%,0%);stroke-opacity:1;stroke-miterlimit:10;" d="M 318.460938 216.917969 L 318.066406 216.527344 L 317.664063 216.144531 L 317.257813 215.769531 L 316.84375 215.398438 L 316.425781 215.035156 L 316 214.679688 L 315.570313 214.332031 L 315.136719 213.988281 L 314.695313 213.652344 L 314.25 213.324219 L 313.796875 213 L 313.339844 212.6875 L 312.878906 212.378906 L 312.414063 212.082031 L 311.941406 211.789063 L 311.464844 211.503906 L 310.984375 211.226563 L 310.5 210.957031 L 310.011719 210.695313 L 309.519531 210.441406 L 309.023438 210.195313 L 308.523438 209.957031 L 308.019531 209.726563 L 307.511719 209.503906 L 307 209.289063 L 306.484375 209.085938 L 305.96875 208.886719 L 305.445313 208.695313 L 304.921875 208.515625 L 304.394531 208.34375 L 303.867188 208.175781 L 303.335938 208.023438 L 302.800781 207.875 L 302.261719 207.734375 L 301.726563 207.605469 L 301.183594 207.480469 L 300.640625 207.367188 L 300.097656 207.261719 L 299.550781 207.167969 L 299.003906 207.078125 L 298.457031 207 L 297.90625 206.929688 L 297.355469 206.867188 L 296.800781 206.816406 L 296.25 206.773438 L 295.695313 206.738281 L 295.144531 206.710938 L 294.589844 206.691406 L 294.035156 206.683594 L 293.480469 206.683594 L 292.925781 206.691406 L 292.371094 206.710938 L 291.816406 206.738281 L 291.265625 206.773438 L 290.710938 206.816406 L 290.160156 206.867188 L 289.609375 206.929688 L 289.058594 207 L 288.511719 207.078125 L 287.964844 207.167969 L 287.417969 207.261719 L 286.875 207.367188 L 286.332031 207.480469 L 285.789063 207.605469 L 285.25 207.734375 L 284.714844 207.875 L 284.179688 208.023438 L 283.648438 208.175781 L 283.121094 208.34375 L 282.59375 208.515625 L 282.070313 208.695313 L 281.546875 208.886719 L 281.03125 209.085938 L 280.515625 209.289063 L 280.003906 209.503906 L 279.496094 209.726563 L 278.992188 209.957031 L 278.492188 210.195313 L 277.996094 210.441406 L 277.503906 210.695313 L 277.015625 210.957031 L 276.53125 211.226563 L 276.050781 211.503906 L 275.574219 211.789063 L 275.101563 212.082031 L 274.636719 212.378906 L 274.175781 212.6875 L 273.71875 213 L 273.265625 213.324219 L 272.820313 213.652344 L 272.378906 213.988281 L 271.945313 214.332031 L 271.511719 214.679688 L 271.089844 215.035156 L 270.667969 215.398438 L 270.257813 215.769531 L 269.847656 216.144531 L 269.449219 216.527344 L 269.054688 216.917969 L 269.449219 216.527344 L 269.847656 216.144531 L 270.257813 215.769531 L 270.667969 215.398438 L 271.089844 215.035156 L 271.511719 214.679688 L 271.945313 214.332031 L 272.378906 213.988281 L 272.820313 213.652344 L 273.265625 213.324219 L 273.71875 213 L 274.175781 212.6875 L 274.636719 212.378906 L 275.101563 212.082031 L 275.574219 211.789063 L 276.050781 211.503906 L 276.53125 211.226563 L 277.015625 210.957031 L 277.503906 210.695313 L 277.996094 210.441406 L 278.492188 210.195313 L 278.992188 209.957031 L 279.496094 209.726563 L 280.003906 209.503906 L 280.515625 209.289063 L 281.03125 209.085938 L 281.546875 208.886719 L 282.070313 208.695313 L 282.59375 208.515625 L 283.121094 208.34375 L 283.648438 208.175781 L 284.179688 208.023438 L 284.714844 207.875 L 285.25 207.734375 L 285.789063 207.605469 L 286.332031 207.480469 L 286.875 207.367188 L 287.417969 207.261719 L 287.964844 207.167969 L 288.511719 207.078125 L 289.058594 207 L 289.609375 206.929688 L 290.160156 206.867188 L 290.710938 206.816406 L 291.265625 206.773438 L 291.816406 206.738281 L 292.371094 206.710938 L 292.925781 206.691406 L 293.480469 206.683594 L 294.035156 206.683594 L 294.589844 206.691406 L 295.144531 206.710938 L 295.695313 206.738281 L 296.25 206.773438 L 296.800781 206.816406 L 297.355469 206.867188 L 297.90625 206.929688 L 298.457031 207 L 299.003906 207.078125 L 299.550781 207.167969 L 300.097656 207.261719 L 300.640625 207.367188 L 301.183594 207.480469 L 301.726563 207.605469 L 302.261719 207.734375 L 302.800781 207.875 L 303.335938 208.023438 L 303.867188 208.175781 L 304.394531 208.34375 L 304.921875 208.515625 L 305.445313 208.695313 L 305.96875 208.886719 L 306.484375 209.085938 L 307 209.289063 L 307.511719 209.503906 L 308.019531 209.726563 L 308.523438 209.957031 L 309.023438 210.195313 L 309.519531 210.441406 L 310.011719 210.695313 L 310.5 210.957031 L 310.984375 211.226563 L 311.464844 211.503906 L 311.941406 211.789063 L 312.414063 212.082031 L 312.878906 212.378906 L 313.339844 212.6875 L 313.796875 213 L 314.25 213.324219 L 314.695313 213.652344 L 315.136719 213.988281 L 315.570313 214.332031 L 316 214.679688 L 316.425781 215.035156 L 316.84375 215.398438 L 317.257813 215.769531 L 317.664063 216.144531 L 318.066406 216.527344 Z M 318.460938 216.917969 "/>
<path style="fill-rule:nonzero;fill:rgb(100%,100%,100%);fill-opacity:1;stroke-width:2.25;stroke-linecap:round;stroke-linejoin:round;stroke:rgb(0%,0%,0%);stroke-opacity:1;stroke-miterlimit:10;" d="M 519.875 216 L 484.9375 155.488281 L 415.0625 155.488281 L 380.125 216 L 415.0625 276.511719 L 484.9375 276.511719 Z M 519.875 216 "/>
<path style="fill-rule:nonzero;fill:rgb(0%,0%,0%);fill-opacity:1;stroke-width:2.25;stroke-linecap:round;stroke-linejoin:round;stroke:rgb(0%,0%,0%);stroke-opacity:1;stroke-miterlimit:10;" d="M 699.875 216 L 664.9375 155.488281 L 595.0625 155.488281 L 560.125 216 L 595.0625 276.511719 L 664.9375 276.511719 Z M 699.875 216 "/>
<path style="fill-rule:nonzero;fill:rgb(74.509804%,74.509804%,74.509804%);fill-opacity:1;stroke-width:2.25;stroke-linecap:round;stroke-linejoin:round;stroke:rgb(0%,0%,0%);stroke-opacity:1;stroke-miterlimit:10;" d="M 879.875 216 L 844.9375 155.488281 L 775.0625 155.488281 L 740.125 216 L 775.0625 276.511719 L 844.9375 276.511719 Z M 879.875 216 "/>
</g>
</svg>
