<?xml version="1.0" encoding="UTF-8"?>
<svg xmlns="http://www.w3.org/2000/svg" xmlns:xlink="http://www.w3.org/1999/xlink" width="504pt" height="504pt" viewBox="0 0 504 504" version="1.1">
<g id="surface1631">
<rect x="0" y="0" width="504" height="504" style="fill:rgb(100%,100%,100%);fill-opacity:1;stroke:none;"/>
<path style="fill:none;stroke-width:2.25;stroke-linecap:round;stroke-linejoin:round;stroke:rgb(0%,0%,0%);stroke-opacity:1;stroke-miterlimit:10;" d="M 355.125 148.875 L 351.800781 145.65625 L 348.375 142.542969 L 344.855469 139.539063 L 341.242188 136.648438 L 337.535156 133.875 L 333.746094 131.222656 L 329.871094 128.6875 L 325.921875 126.28125 L 321.894531 124 L 317.796875 121.84375 L 313.636719 119.824219 L 309.410156 117.933594 L 305.128906 116.179688 L 300.792969 114.5625 L 296.40625 113.085938 L 291.976563 111.746094 L 287.507813 110.546875 L 283 109.492188 L 278.464844 108.582031 L 273.898438 107.8125 L 269.3125 107.191406 L 264.710938 106.714844 L 260.09375 106.382813 L 255.46875 106.199219 L 250.84375 106.164063 L 246.214844 106.273438 L 241.597656 106.53125 L 236.984375 106.933594 L 232.390625 107.484375 L 227.816406 108.179688 L 223.265625 109.019531 L 218.742188 110 L 214.253906 111.128906 L 209.804688 112.398438 L 205.394531 113.804688 L 201.035156 115.355469 L 196.722656 117.039063 L 192.46875 118.863281 L 188.277344 120.816406 L 184.144531 122.90625 L 180.082031 125.125 L 176.09375 127.46875 L 172.183594 129.941406 L 168.347656 132.535156 L 164.601563 135.25 L 160.941406 138.082031 L 157.371094 141.027344 L 153.898438 144.085938 L 150.523438 147.25 L 147.25 150.523438 L 144.085938 153.898438 L 141.027344 157.371094 L 138.082031 160.941406 L 135.25 164.601563 L 132.535156 168.347656 L 129.941406 172.183594 L 127.46875 176.09375 L 125.125 180.082031 L 122.90625 184.144531 L 120.816406 188.277344 L 118.863281 192.46875 L 117.039063 196.722656 L 115.355469 201.035156 L 113.804688 205.394531 L 112.398438 209.804688 L 111.128906 214.253906 L 110 218.742188 L 109.019531 223.265625 L 108.179688 227.816406 L 107.484375 232.390625 L 106.933594 236.984375 L 106.53125 241.597656 L 106.273438 246.214844 L 106.164063 250.84375 L 106.199219 255.46875 L 106.382813 260.09375 L 106.714844 264.710938 L 107.191406 269.3125 L 107.8125 273.898438 L 108.582031 278.464844 L 109.492188 283 L 110.546875 287.507813 L 111.746094 291.976563 L 113.085938 296.40625 L 114.5625 300.792969 L 116.179688 305.128906 L 117.933594 309.410156 L 119.824219 313.636719 L 121.84375 317.796875 L 124 321.894531 L 126.28125 325.921875 L 128.6875 329.871094 L 131.222656 333.746094 L 133.875 337.535156 L 136.648438 341.242188 L 139.539063 344.855469 L 142.542969 348.375 L 145.65625 351.800781 L 148.875 355.125 Z M 355.125 148.875 "/>
<path style="fill:none;stroke-width:2.25;stroke-linecap:round;stroke-linejoin:round;stroke:rgb(0%,0%,0%);stroke-opacity:1;stroke-miterlimit:10;" d="M 148.875 355.125 L 152.199219 358.34375 L 155.625 361.457031 L 159.144531 364.460938 L 162.757813 367.351563 L 166.464844 370.125 L 170.253906 372.777344 L 174.128906 375.3125 L 178.078125 377.71875 L 182.105469 380 L 186.203125 382.15625 L 190.363281 384.175781 L 194.589844 386.066406 L 198.871094 387.820313 L 203.207031 389.4375 L 207.59375 390.914063 L 212.023438 392.253906 L 216.492188 393.453125 L 221 394.507813 L 225.535156 395.417969 L 230.101563 396.1875 L 234.6875 396.808594 L 239.289063 397.285156 L 243.90625 397.617188 L 248.53125 397.800781 L 253.15625 397.835938 L 257.785156 397.726563 L 262.402344 397.46875 L 267.015625 397.066406 L 271.609375 396.515625 L 276.183594 395.820313 L 280.734375 394.980469 L 285.257813 394 L 289.746094 392.871094 L 294.195313 391.601563 L 298.605469 390.195313 L 302.964844 388.644531 L 307.277344 386.960938 L 311.53125 385.136719 L 315.722656 383.183594 L 319.855469 381.09375 L 323.917969 378.875 L 327.90625 376.53125 L 331.816406 374.058594 L 335.652344 371.464844 L 339.398438 368.75 L 343.058594 365.917969 L 346.628906 362.972656 L 350.101563 359.914063 L 353.476563 356.75 L 356.75 353.476563 L 359.914063 350.101563 L 362.972656 346.628906 L 365.917969 343.058594 L 368.75 339.398438 L 371.464844 335.652344 L 374.058594 331.816406 L 376.53125 327.90625 L 378.875 323.917969 L 381.09375 319.855469 L 383.183594 315.722656 L 385.136719 311.53125 L 386.960938 307.277344 L 388.644531 302.964844 L 390.195313 298.605469 L 391.601563 294.195313 L 392.871094 289.746094 L 394 285.257813 L 394.980469 280.734375 L 395.820313 276.183594 L 396.515625 271.609375 L 397.066406 267.015625 L 397.46875 262.402344 L 397.726563 257.785156 L 397.835938 253.15625 L 397.800781 248.53125 L 397.617188 243.90625 L 397.285156 239.289063 L 396.808594 234.6875 L 396.1875 230.101563 L 395.417969 225.535156 L 394.507813 221 L 393.453125 216.492188 L 392.253906 212.023438 L 390.914063 207.59375 L 389.4375 203.207031 L 387.820313 198.871094 L 386.066406 194.589844 L 384.175781 190.363281 L 382.15625 186.203125 L 380 182.105469 L 377.71875 178.078125 L 375.3125 174.128906 L 372.777344 170.253906 L 370.125 166.464844 L 367.351563 162.757813 L 364.460938 159.144531 L 361.457031 155.625 L 358.34375 152.199219 L 355.125 148.875 Z M 148.875 355.125 "/>
</g>
</svg>
