<?xml version="1.0" encoding="UTF-8"?>
<svg xmlns="http://www.w3.org/2000/svg" xmlns:xlink="http://www.w3.org/1999/xlink" width="504pt" height="504pt" viewBox="0 0 504 504" version="1.1">
<g id="surface1641">
<rect x="0" y="0" width="504" height="504" style="fill:rgb(100%,100%,100%);fill-opacity:1;stroke:none;"/>
<path style="fill:none;stroke-width:2.25;stroke-linecap:round;stroke-linejoin:round;stroke:rgb(0%,0%,0%);stroke-opacity:1;stroke-dasharray:9,9;stroke-miterlimit:10;" d="M 355.125 148.875 L 351.800781 145.65625 L 348.375 142.542969 L 344.855469 139.539063 L 341.242188 136.648438 L 337.535156 133.875 L 333.746094 131.222656 L 329.871094 128.6875 L 325.921875 126.28125 L 321.894531 124 L 317.796875 121.84375 L 313.636719 119.824219 L 309.410156 117.933594 L 305.128906 116.179688 L 300.792969 114.5625 L 296.40625 113.085938 L 291.976563 111.746094 L 287.507813 110.546875 L 283 109.492188 L 278.464844 108.582031 L 273.898438 107.8125 L 269.3125 107.191406 L 264.710938 106.714844 L 260.09375 106.382813 L 255.46875 106.199219 L 250.84375 106.164063 L 246.214844 106.273438 L 241.597656 106.53125 L 236.984375 106.933594 L 232.390625 107.484375 L 227.816406 108.179688 L 223.265625 109.019531 L 218.742188 110 L 214.253906 111.128906 L 209.804688 112.398438 L 205.394531 113.804688 L 201.035156 115.355469 L 196.722656 117.039063 L 192.46875 118.863281 L 188.277344 120.816406 L 184.144531 122.90625 L 180.082031 125.125 L 176.09375 127.46875 L 172.183594 129.941406 L 168.347656 132.535156 L 164.601563 135.25 L 160.941406 138.082031 L 157.371094 141.027344 L 153.898438 144.085938 L 150.523438 147.25 L 147.25 150.523438 L 144.085938 153.898438 L 141.027344 157.371094 L 138.082031 160.941406 L 135.25 164.601563 L 132.535156 168.347656 L 129.941406 172.183594 L 127.46875 176.09375 L 125.125 180.082031 L 122.90625 184.144531 L 120.816406 188.277344 L 118.863281 192.46875 L 117.039063 196.722656 L 115.355469 201.035156 L 113.804688 205.394531 L 112.398438 209.804688 L 111.128906 214.253906 L 110 218.742188 L 109.019531 223.265625 L 108.179688 227.816406 L 107.484375 232.390625 L 106.933594 236.984375 L 106.53125 241.597656 L 106.273438 246.214844 L 106.164063 250.84375 L 106.199219 255.46875 L 106.382813 260.09375 L 106.714844 264.710938 L 107.191406 269.3125 L 107.8125 273.898438 L 108.582031 278.464844 L 109.492188 283 L 110.546875 287.507813 L 111.746094 291.976563 L 113.085938 296.40625 L 114.5625 300.792969 L 116.179688 305.128906 L 117.933594 309.410156 L 119.824219 313.636719 L 121.84375 317.796875 L 124 321.894531 L 126.28125 325.921875 L 128.6875 329.871094 L 131.222656 333.746094 L 133.875 337.535156 L 136.648438 341.242188 L 139.539063 344.855469 L 142.542969 348.375 L 145.65625 351.800781 L 148.875 355.125 Z M 355.125 148.875 "/>
<path style="fill:none;stroke-width:2.25;stroke-linecap:round;stroke-linejoin:round;stroke:rgb(0%,0%,0%);stroke-opacity:1;stroke-dasharray:9,9;stroke-miterlimit:10;" d="M 148.875 355.125 L 152.199219 358.34375 L 155.625 361.457031 L 159.144531 364.460938 L 162.757813 367.351563 L 166.464844 370.125 L 170.253906 372.777344 L 174.128906 375.3125 L 178.078125 377.71875 L 182.105469 380 L 186.203125 382.15625 L 190.363281 384.175781 L 194.589844 386.066406 L 198.871094 387.820313 L 203.207031 389.4375 L 207.59375 390.914063 L 212.023438 392.253906 L 216.492188 393.453125 L 221 394.507813 L 225.535156 395.417969 L 230.101563 396.1875 L 234.6875 396.808594 L 239.289063 397.285156 L 243.90625 397.617188 L 248.53125 397.800781 L 253.15625 397.835938 L 257.785156 397.726563 L 262.402344 397.46875 L 267.015625 397.066406 L 271.609375 396.515625 L 276.183594 395.820313 L 280.734375 394.980469 L 285.257813 394 L 289.746094 392.871094 L 294.195313 391.601563 L 298.605469 390.195313 L 302.964844 388.644531 L 307.277344 386.960938 L 311.53125 385.136719 L 315.722656 383.183594 L 319.855469 381.09375 L 323.917969 378.875 L 327.90625 376.53125 L 331.816406 374.058594 L 335.652344 371.464844 L 339.398438 368.75 L 343.058594 365.917969 L 346.628906 362.972656 L 350.101563 359.914063 L 353.476563 356.75 L 356.75 353.476563 L 359.914063 350.101563 L 362.972656 346.628906 L 365.917969 343.058594 L 368.75 339.398438 L 371.464844 335.652344 L 374.058594 331.816406 L 376.53125 327.90625 L 378.875 323.917969 L 381.09375 319.855469 L 383.183594 315.722656 L 385.136719 311.53125 L 386.960938 307.277344 L 388.644531 302.964844 L 390.195313 298.605469 L 391.601563 294.195313 L 392.871094 289.746094 L 394 285.257813 L 394.980469 280.734375 L 395.820313 276.183594 L 396.515625 271.609375 L 397.066406 267.015625 L 397.46875 262.402344 L 397.726563 257.785156 L 397.835938 253.15625 L 397.800781 248.53125 L 397.617188 243.90625 L 397.285156 239.289063 L 396.808594 234.6875 L 396.1875 230.101563 L 395.417969 225.535156 L 394.507813 221 L 393.453125 216.492188 L 392.253906 212.023438 L 390.914063 207.59375 L 389.4375 203.207031 L 387.820313 198.871094 L 386.066406 194.589844 L 384.175781 190.363281 L 382.15625 186.203125 L 380 182.105469 L 377.71875 178.078125 L 375.3125 174.128906 L 372.777344 170.253906 L 370.125 166.464844 L 367.351563 162.757813 L 364.460938 159.144531 L 361.457031 155.625 L 358.34375 152.199219 L 355.125 148.875 Z M 148.875 355.125 "/>
<path style="fill:none;stroke-width:2.25;stroke-linecap:round;stroke-linejoin:round;stroke:rgb(0%,0%,0%);stroke-opacity:1;stroke-dasharray:9,9;stroke-miterlimit:10;" d="M 290.195313 213.804688 L 288.964844 212.613281 L 287.695313 211.460938 L 286.390625 210.347656 L 285.050781 209.277344 L 283.679688 208.25 L 282.277344 207.265625 L 280.839844 206.328125 L 279.378906 205.4375 L 277.886719 204.59375 L 276.371094 203.792969 L 274.828125 203.046875 L 273.261719 202.347656 L 271.675781 201.695313 L 270.070313 201.097656 L 268.445313 200.550781 L 266.804688 200.054688 L 265.152344 199.609375 L 263.480469 199.21875 L 261.800781 198.882813 L 260.109375 198.597656 L 258.414063 198.367188 L 256.707031 198.191406 L 255 198.066406 L 253.285156 198 L 251.570313 197.988281 L 249.859375 198.027344 L 248.148438 198.121094 L 246.4375 198.273438 L 244.738281 198.476563 L 243.042969 198.734375 L 241.355469 199.042969 L 239.683594 199.40625 L 238.019531 199.824219 L 236.371094 200.296875 L 234.738281 200.816406 L 233.125 201.390625 L 231.527344 202.015625 L 229.953125 202.691406 L 228.398438 203.414063 L 226.867188 204.1875 L 225.363281 205.007813 L 223.886719 205.878906 L 222.4375 206.792969 L 221.019531 207.753906 L 219.628906 208.757813 L 218.273438 209.808594 L 216.953125 210.898438 L 215.667969 212.03125 L 214.417969 213.203125 L 213.203125 214.417969 L 212.03125 215.667969 L 210.898438 216.953125 L 209.808594 218.273438 L 208.757813 219.628906 L 207.753906 221.019531 L 206.792969 222.4375 L 205.878906 223.886719 L 205.007813 225.363281 L 204.1875 226.867188 L 203.414063 228.398438 L 202.691406 229.953125 L 202.015625 231.527344 L 201.390625 233.125 L 200.816406 234.738281 L 200.296875 236.371094 L 199.824219 238.019531 L 199.40625 239.683594 L 199.042969 241.355469 L 198.734375 243.042969 L 198.476563 244.738281 L 198.273438 246.4375 L 198.121094 248.148438 L 198.027344 249.859375 L 197.988281 251.570313 L 198 253.285156 L 198.066406 255 L 198.191406 256.707031 L 198.367188 258.414063 L 198.597656 260.109375 L 198.882813 261.800781 L 199.21875 263.480469 L 199.609375 265.152344 L 200.054688 266.804688 L 200.550781 268.445313 L 201.097656 270.070313 L 201.695313 271.675781 L 202.347656 273.261719 L 203.046875 274.828125 L 203.792969 276.371094 L 204.59375 277.886719 L 205.4375 279.378906 L 206.328125 280.839844 L 207.265625 282.277344 L 208.25 283.679688 L 209.277344 285.050781 L 210.347656 286.390625 L 211.460938 287.695313 L 212.613281 288.964844 L 213.804688 290.195313 Z M 290.195313 213.804688 "/>
<path style="fill:none;stroke-width:2.25;stroke-linecap:round;stroke-linejoin:round;stroke:rgb(0%,0%,0%);stroke-opacity:1;stroke-dasharray:9,9;stroke-miterlimit:10;" d="M 213.804688 290.195313 L 215.035156 291.386719 L 216.304688 292.539063 L 217.609375 293.652344 L 218.949219 294.722656 L 220.320313 295.75 L 221.722656 296.734375 L 223.160156 297.671875 L 224.621094 298.5625 L 226.113281 299.40625 L 227.628906 300.207031 L 229.171875 300.953125 L 230.738281 301.652344 L 232.324219 302.304688 L 233.929688 302.902344 L 235.554688 303.449219 L 237.195313 303.945313 L 238.847656 304.390625 L 240.519531 304.78125 L 242.199219 305.117188 L 243.890625 305.402344 L 245.585938 305.632813 L 247.292969 305.808594 L 249 305.933594 L 250.714844 306 L 252.429688 306.011719 L 254.140625 305.972656 L 255.851563 305.878906 L 257.5625 305.726563 L 259.261719 305.523438 L 260.957031 305.265625 L 262.644531 304.957031 L 264.316406 304.59375 L 265.980469 304.175781 L 267.628906 303.703125 L 269.261719 303.183594 L 270.875 302.609375 L 272.472656 301.984375 L 274.046875 301.308594 L 275.601563 300.585938 L 277.132813 299.8125 L 278.636719 298.992188 L 280.113281 298.121094 L 281.5625 297.207031 L 282.980469 296.246094 L 284.371094 295.242188 L 285.726563 294.191406 L 287.046875 293.101563 L 288.332031 291.96875 L 289.582031 290.796875 L 290.796875 289.582031 L 291.96875 288.332031 L 293.101563 287.046875 L 294.191406 285.726563 L 295.242188 284.371094 L 296.246094 282.980469 L 297.207031 281.5625 L 298.121094 280.113281 L 298.992188 278.636719 L 299.8125 277.132813 L 300.585938 275.601563 L 301.308594 274.046875 L 301.984375 272.472656 L 302.609375 270.875 L 303.183594 269.261719 L 303.703125 267.628906 L 304.175781 265.980469 L 304.59375 264.316406 L 304.957031 262.644531 L 305.265625 260.957031 L 305.523438 259.261719 L 305.726563 257.5625 L 305.878906 255.851563 L 305.972656 254.140625 L 306.011719 252.429688 L 306 250.714844 L 305.933594 249 L 305.808594 247.292969 L 305.632813 245.585938 L 305.402344 243.890625 L 305.117188 242.199219 L 304.78125 240.519531 L 304.390625 238.847656 L 303.945313 237.195313 L 303.449219 235.554688 L 302.902344 233.929688 L 302.304688 232.324219 L 301.652344 230.738281 L 300.953125 229.171875 L 300.207031 227.628906 L 299.40625 226.113281 L 298.5625 224.621094 L 297.671875 223.160156 L 296.734375 221.722656 L 295.75 220.320313 L 294.722656 218.949219 L 293.652344 217.609375 L 292.539063 216.304688 L 291.386719 215.035156 L 290.195313 213.804688 Z M 213.804688 290.195313 "/>
</g>
</svg>
