<?xml version="1.0" encoding="UTF-8"?>
<svg xmlns="http://www.w3.org/2000/svg" xmlns:xlink="http://www.w3.org/1999/xlink" width="504pt" height="504pt" viewBox="0 0 504 504" version="1.1">
<g id="surface1586">
<rect x="0" y="0" width="504" height="504" style="fill:rgb(100%,100%,100%);fill-opacity:1;stroke:none;"/>
<path style="fill:none;stroke-width:2.25;stroke-linecap:round;stroke-linejoin:round;stroke:rgb(0%,0%,0%);stroke-opacity:1;stroke-miterlimit:10;" d="M 306.015625 197.984375 L 305.152344 197.132813 L 304.273438 196.296875 L 303.382813 195.476563 L 302.480469 194.667969 L 301.566406 193.875 L 300.636719 193.09375 L 299.695313 192.332031 L 298.742188 191.582031 L 297.777344 190.847656 L 296.800781 190.128906 L 295.816406 189.425781 L 294.816406 188.738281 L 293.808594 188.066406 L 292.789063 187.410156 L 291.757813 186.773438 L 290.71875 186.148438 L 289.667969 185.542969 L 288.609375 184.953125 L 287.539063 184.382813 L 286.464844 183.828125 L 285.378906 183.289063 L 284.285156 182.769531 L 283.179688 182.265625 L 282.070313 181.777344 L 280.953125 181.308594 L 279.828125 180.859375 L 278.695313 180.425781 L 277.554688 180.011719 L 276.410156 179.617188 L 275.257813 179.238281 L 274.101563 178.878906 L 272.9375 178.535156 L 271.769531 178.214844 L 270.597656 177.910156 L 269.417969 177.625 L 268.238281 177.355469 L 267.050781 177.109375 L 265.859375 176.878906 L 264.667969 176.667969 L 263.472656 176.476563 L 262.269531 176.304688 L 261.070313 176.152344 L 259.863281 176.015625 L 258.65625 175.902344 L 257.449219 175.804688 L 256.238281 175.730469 L 255.027344 175.671875 L 253.816406 175.632813 L 252.605469 175.613281 L 251.394531 175.613281 L 250.183594 175.632813 L 248.972656 175.671875 L 247.761719 175.730469 L 246.550781 175.804688 L 245.34375 175.902344 L 244.136719 176.015625 L 242.929688 176.152344 L 241.730469 176.304688 L 240.527344 176.476563 L 239.332031 176.667969 L 238.140625 176.878906 L 236.949219 177.109375 L 235.761719 177.355469 L 234.582031 177.625 L 233.402344 177.910156 L 232.230469 178.214844 L 231.0625 178.535156 L 229.898438 178.878906 L 228.742188 179.238281 L 227.589844 179.617188 L 226.445313 180.011719 L 225.304688 180.425781 L 224.171875 180.859375 L 223.046875 181.308594 L 221.929688 181.777344 L 220.820313 182.265625 L 219.714844 182.769531 L 218.621094 183.289063 L 217.535156 183.828125 L 216.460938 184.382813 L 215.390625 184.953125 L 214.332031 185.542969 L 213.28125 186.148438 L 212.242188 186.773438 L 211.210938 187.410156 L 210.191406 188.066406 L 209.183594 188.738281 L 208.183594 189.425781 L 207.199219 190.128906 L 206.222656 190.847656 L 205.257813 191.582031 L 204.304688 192.332031 L 203.363281 193.09375 L 202.433594 193.875 L 201.519531 194.667969 L 200.617188 195.476563 L 199.726563 196.296875 L 198.847656 197.132813 L 197.984375 197.984375 L 252 252 Z M 306.015625 197.984375 "/>
<path style="fill:none;stroke-width:2.25;stroke-linecap:round;stroke-linejoin:round;stroke:rgb(0%,0%,0%);stroke-opacity:1;stroke-miterlimit:10;" d="M 197.984375 197.984375 L 197.132813 198.847656 L 196.296875 199.726563 L 195.476563 200.617188 L 194.667969 201.519531 L 193.875 202.433594 L 193.09375 203.363281 L 192.332031 204.304688 L 191.582031 205.257813 L 190.847656 206.222656 L 190.128906 207.199219 L 189.425781 208.183594 L 188.738281 209.183594 L 188.066406 210.191406 L 187.410156 211.210938 L 186.773438 212.242188 L 186.148438 213.28125 L 185.542969 214.332031 L 184.953125 215.390625 L 184.382813 216.460938 L 183.828125 217.535156 L 183.289063 218.621094 L 182.769531 219.714844 L 182.265625 220.820313 L 181.777344 221.929688 L 181.308594 223.046875 L 180.859375 224.171875 L 180.425781 225.304688 L 180.011719 226.445313 L 179.617188 227.589844 L 179.238281 228.742188 L 178.878906 229.898438 L 178.535156 231.0625 L 178.214844 232.230469 L 177.910156 233.402344 L 177.625 234.582031 L 177.355469 235.761719 L 177.109375 236.949219 L 176.878906 238.140625 L 176.667969 239.332031 L 176.476563 240.527344 L 176.304688 241.730469 L 176.152344 242.929688 L 176.015625 244.136719 L 175.902344 245.34375 L 175.804688 246.550781 L 175.730469 247.761719 L 175.671875 248.972656 L 175.632813 250.183594 L 175.613281 251.394531 L 175.613281 252.605469 L 175.632813 253.816406 L 175.671875 255.027344 L 175.730469 256.238281 L 175.804688 257.449219 L 175.902344 258.65625 L 176.015625 259.863281 L 176.152344 261.070313 L 176.304688 262.269531 L 176.476563 263.472656 L 176.667969 264.667969 L 176.878906 265.859375 L 177.109375 267.050781 L 177.355469 268.238281 L 177.625 269.417969 L 177.910156 270.597656 L 178.214844 271.769531 L 178.535156 272.9375 L 178.878906 274.101563 L 179.238281 275.257813 L 179.617188 276.410156 L 180.011719 277.554688 L 180.425781 278.695313 L 180.859375 279.828125 L 181.308594 280.953125 L 181.777344 282.070313 L 182.265625 283.179688 L 182.769531 284.285156 L 183.289063 285.378906 L 183.828125 286.464844 L 184.382813 287.539063 L 184.953125 288.609375 L 185.542969 289.667969 L 186.148438 290.71875 L 186.773438 291.757813 L 187.410156 292.789063 L 188.066406 293.808594 L 188.738281 294.816406 L 189.425781 295.816406 L 190.128906 296.800781 L 190.847656 297.777344 L 191.582031 298.742188 L 192.332031 299.695313 L 193.09375 300.636719 L 193.875 301.566406 L 194.667969 302.480469 L 195.476563 303.382813 L 196.296875 304.273438 L 197.132813 305.152344 L 197.984375 306.015625 L 252 252 Z M 197.984375 197.984375 "/>
<path style="fill:none;stroke-width:2.25;stroke-linecap:round;stroke-linejoin:round;stroke:rgb(0%,0%,0%);stroke-opacity:1;stroke-miterlimit:10;" d="M 197.984375 306.015625 L 198.847656 306.867188 L 199.726563 307.703125 L 200.617188 308.523438 L 201.519531 309.332031 L 202.433594 310.125 L 203.363281 310.90625 L 204.304688 311.667969 L 205.257813 312.417969 L 206.222656 313.152344 L 207.199219 313.871094 L 208.183594 314.574219 L 209.183594 315.261719 L 210.191406 315.933594 L 211.210938 316.589844 L 212.242188 317.226563 L 213.28125 317.851563 L 214.332031 318.457031 L 215.390625 319.046875 L 216.460938 319.617188 L 217.535156 320.171875 L 218.621094 320.710938 L 219.714844 321.230469 L 220.820313 321.734375 L 221.929688 322.222656 L 223.046875 322.691406 L 224.171875 323.140625 L 225.304688 323.574219 L 226.445313 323.988281 L 227.589844 324.382813 L 228.742188 324.761719 L 229.898438 325.121094 L 231.0625 325.464844 L 232.230469 325.785156 L 233.402344 326.089844 L 234.582031 326.375 L 235.761719 326.644531 L 236.949219 326.890625 L 238.140625 327.121094 L 239.332031 327.332031 L 240.527344 327.523438 L 241.730469 327.695313 L 242.929688 327.847656 L 244.136719 327.984375 L 245.34375 328.097656 L 246.550781 328.195313 L 247.761719 328.269531 L 248.972656 328.328125 L 250.183594 328.367188 L 251.394531 328.386719 L 252.605469 328.386719 L 253.816406 328.367188 L 255.027344 328.328125 L 256.238281 328.269531 L 257.449219 328.195313 L 258.65625 328.097656 L 259.863281 327.984375 L 261.070313 327.847656 L 262.269531 327.695313 L 263.472656 327.523438 L 264.667969 327.332031 L 265.859375 327.121094 L 267.050781 326.890625 L 268.238281 326.644531 L 269.417969 326.375 L 270.597656 326.089844 L 271.769531 325.785156 L 272.9375 325.464844 L 274.101563 325.121094 L 275.257813 324.761719 L 276.410156 324.382813 L 277.554688 323.988281 L 278.695313 323.574219 L 279.828125 323.140625 L 280.953125 322.691406 L 282.070313 322.222656 L 283.179688 321.734375 L 284.285156 321.230469 L 285.378906 320.710938 L 286.464844 320.171875 L 287.539063 319.617188 L 288.609375 319.046875 L 289.667969 318.457031 L 290.71875 317.851563 L 291.757813 317.226563 L 292.789063 316.589844 L 293.808594 315.933594 L 294.816406 315.261719 L 295.816406 314.574219 L 296.800781 313.871094 L 297.777344 313.152344 L 298.742188 312.417969 L 299.695313 311.667969 L 300.636719 310.90625 L 301.566406 310.125 L 302.480469 309.332031 L 303.382813 308.523438 L 304.273438 307.703125 L 305.152344 306.867188 L 306.015625 306.015625 L 252 252 Z M 197.984375 306.015625 "/>
<path style="fill:none;stroke-width:2.25;stroke-linecap:round;stroke-linejoin:round;stroke:rgb(0%,0%,0%);stroke-opacity:1;stroke-miterlimit:10;" d="M 306.015625 306.015625 L 306.867188 305.152344 L 307.703125 304.273438 L 308.523438 303.382813 L 309.332031 302.480469 L 310.125 301.566406 L 310.90625 300.636719 L 311.667969 299.695313 L 312.417969 298.742188 L 313.152344 297.777344 L 313.871094 296.800781 L 314.574219 295.816406 L 315.261719 294.816406 L 315.933594 293.808594 L 316.589844 292.789063 L 317.226563 291.757813 L 317.851563 290.71875 L 318.457031 289.667969 L 319.046875 288.609375 L 319.617188 287.539063 L 320.171875 286.464844 L 320.710938 285.378906 L 321.230469 284.285156 L 321.734375 283.179688 L 322.222656 282.070313 L 322.691406 280.953125 L 323.140625 279.828125 L 323.574219 278.695313 L 323.988281 277.554688 L 324.382813 276.410156 L 324.761719 275.257813 L 325.121094 274.101563 L 325.464844 272.9375 L 325.785156 271.769531 L 326.089844 270.597656 L 326.375 269.417969 L 326.644531 268.238281 L 326.890625 267.050781 L 327.121094 265.859375 L 327.332031 264.667969 L 327.523438 263.472656 L 327.695313 262.269531 L 327.847656 261.070313 L 327.984375 259.863281 L 328.097656 258.65625 L 328.195313 257.449219 L 328.269531 256.238281 L 328.328125 255.027344 L 328.367188 253.816406 L 328.386719 252.605469 L 328.386719 251.394531 L 328.367188 250.183594 L 328.328125 248.972656 L 328.269531 247.761719 L 328.195313 246.550781 L 328.097656 245.34375 L 327.984375 244.136719 L 327.847656 242.929688 L 327.695313 241.730469 L 327.523438 240.527344 L 327.332031 239.332031 L 327.121094 238.140625 L 326.890625 236.949219 L 326.644531 235.761719 L 326.375 234.582031 L 326.089844 233.402344 L 325.785156 232.230469 L 325.464844 231.0625 L 325.121094 229.898438 L 324.761719 228.742188 L 324.382813 227.589844 L 323.988281 226.445313 L 323.574219 225.304688 L 323.140625 224.171875 L 322.691406 223.046875 L 322.222656 221.929688 L 321.734375 220.820313 L 321.230469 219.714844 L 320.710938 218.621094 L 320.171875 217.535156 L 319.617188 216.460938 L 319.046875 215.390625 L 318.457031 214.332031 L 317.851563 213.28125 L 317.226563 212.242188 L 316.589844 211.210938 L 315.933594 210.191406 L 315.261719 209.183594 L 314.574219 208.183594 L 313.871094 207.199219 L 313.152344 206.222656 L 312.417969 205.257813 L 311.667969 204.304688 L 310.90625 203.363281 L 310.125 202.433594 L 309.332031 201.519531 L 308.523438 200.617188 L 307.703125 199.726563 L 306.867188 198.847656 L 306.015625 197.984375 L 252 252 Z M 306.015625 306.015625 "/>
</g>
</svg>
