<?xml version="1.0" encoding="UTF-8"?>
<svg xmlns="http://www.w3.org/2000/svg" xmlns:xlink="http://www.w3.org/1999/xlink" width="504pt" height="504pt" viewBox="0 0 504 504" version="1.1">
<g id="surface1661">
<rect x="0" y="0" width="504" height="504" style="fill:rgb(100%,100%,100%);fill-opacity:1;stroke:none;"/>
<path style="fill-rule:nonzero;fill:rgb(0%,0%,0%);fill-opacity:1;stroke-width:2.25;stroke-linecap:round;stroke-linejoin:round;stroke:rgb(0%,0%,0%);stroke-opacity:1;stroke-miterlimit:10;" d="M 389.5 252 L 389.230469 245.957031 L 388.414063 239.9375 L 387.066406 233.964844 L 385.179688 228.0625 L 382.769531 222.257813 L 379.84375 216.566406 L 376.414063 211.019531 L 372.492188 205.632813 L 368.09375 200.425781 L 363.238281 195.425781 L 357.945313 190.648438 L 352.234375 186.113281 L 346.125 181.835938 L 339.644531 177.839844 L 332.820313 174.132813 L 325.675781 170.734375 L 318.242188 167.65625 L 310.542969 164.910156 L 302.617188 162.507813 L 294.488281 160.460938 L 286.195313 158.773438 L 277.765625 157.453125 L 269.234375 156.507813 L 260.632813 155.941406 L 252 155.75 L 243.367188 155.941406 L 234.765625 156.507813 L 226.234375 157.453125 L 217.804688 158.773438 L 209.511719 160.460938 L 201.382813 162.507813 L 193.457031 164.910156 L 185.757813 167.65625 L 178.324219 170.734375 L 171.179688 174.132813 L 164.355469 177.839844 L 157.875 181.835938 L 151.765625 186.113281 L 146.054688 190.648438 L 140.761719 195.425781 L 135.90625 200.425781 L 131.507813 205.632813 L 127.585938 211.019531 L 124.15625 216.566406 L 121.230469 222.257813 L 118.820313 228.0625 L 116.933594 233.964844 L 115.585938 239.9375 L 114.769531 245.957031 L 114.5 252 L 114.769531 258.042969 L 115.585938 264.0625 L 116.933594 270.035156 L 118.820313 275.9375 L 121.230469 281.742188 L 124.15625 287.433594 L 127.585938 292.980469 L 131.507813 298.367188 L 135.90625 303.574219 L 140.761719 308.574219 L 146.054688 313.351563 L 151.765625 317.886719 L 157.875 322.164063 L 164.355469 326.160156 L 171.179688 329.867188 L 178.324219 333.265625 L 185.757813 336.34375 L 193.457031 339.089844 L 201.382813 341.492188 L 209.511719 343.539063 L 217.804688 345.226563 L 226.234375 346.546875 L 234.765625 347.492188 L 243.367188 348.058594 L 252 348.25 L 260.632813 348.058594 L 269.234375 347.492188 L 277.765625 346.546875 L 286.195313 345.226563 L 294.488281 343.539063 L 302.617188 341.492188 L 310.542969 339.089844 L 318.242188 336.34375 L 325.675781 333.265625 L 332.820313 329.867188 L 339.644531 326.160156 L 346.125 322.164063 L 352.234375 317.886719 L 357.945313 313.351563 L 363.238281 308.574219 L 368.09375 303.574219 L 372.492188 298.367188 L 376.414063 292.980469 L 379.84375 287.433594 L 382.769531 281.742188 L 385.179688 275.9375 L 387.066406 270.035156 L 388.414063 264.0625 L 389.230469 258.042969 Z M 389.5 252 "/>
</g>
</svg>
