<?xml version="1.0" encoding="UTF-8"?>
<svg xmlns="http://www.w3.org/2000/svg" xmlns:xlink="http://www.w3.org/1999/xlink" width="504pt" height="504pt" viewBox="0 0 504 504" version="1.1">
<g id="surface1591">
<rect x="0" y="0" width="504" height="504" style="fill:rgb(100%,100%,100%);fill-opacity:1;stroke:none;"/>
<path style="fill:none;stroke-width:1.5;stroke-linecap:round;stroke-linejoin:round;stroke:rgb(0%,0%,0%);stroke-opacity:1;stroke-miterlimit:10;" d="M 458.25 252 L 457.84375 239.050781 L 456.625 226.148438 L 454.597656 213.351563 L 451.769531 200.707031 L 448.15625 188.265625 L 443.765625 176.074219 L 438.621094 164.183594 L 432.738281 152.636719 L 426.144531 141.484375 L 418.859375 130.769531 L 410.917969 120.53125 L 402.351563 110.8125 L 393.1875 101.648438 L 383.46875 93.082031 L 373.230469 85.140625 L 362.515625 77.855469 L 351.363281 71.261719 L 339.816406 65.378906 L 327.925781 60.234375 L 315.734375 55.84375 L 303.292969 52.230469 L 290.648438 49.402344 L 277.851563 47.375 L 264.949219 46.15625 L 252 45.75 L 239.050781 46.15625 L 226.148438 47.375 L 213.351563 49.402344 L 200.707031 52.230469 L 188.265625 55.84375 L 176.074219 60.234375 L 164.183594 65.378906 L 152.636719 71.261719 L 141.484375 77.855469 L 130.769531 85.140625 L 120.53125 93.082031 L 110.8125 101.648438 L 101.648438 110.8125 L 93.082031 120.53125 L 85.140625 130.769531 L 77.855469 141.484375 L 71.261719 152.636719 L 65.378906 164.183594 L 60.234375 176.074219 L 55.84375 188.265625 L 52.230469 200.707031 L 49.402344 213.351563 L 47.375 226.148438 L 46.15625 239.050781 L 45.75 252 L 46.15625 264.949219 L 47.375 277.851563 L 49.402344 290.648438 L 52.230469 303.292969 L 55.84375 315.734375 L 60.234375 327.925781 L 65.378906 339.816406 L 71.261719 351.363281 L 77.855469 362.515625 L 85.140625 373.230469 L 93.082031 383.46875 L 101.648438 393.1875 L 110.8125 402.351563 L 120.53125 410.917969 L 130.769531 418.859375 L 141.484375 426.144531 L 152.636719 432.738281 L 164.183594 438.621094 L 176.074219 443.765625 L 188.265625 448.15625 L 200.707031 451.769531 L 213.351563 454.597656 L 226.148438 456.625 L 239.050781 457.84375 L 252 458.25 L 264.949219 457.84375 L 277.851563 456.625 L 290.648438 454.597656 L 303.292969 451.769531 L 315.734375 448.15625 L 327.925781 443.765625 L 339.816406 438.621094 L 351.363281 432.738281 L 362.515625 426.144531 L 373.230469 418.859375 L 383.46875 410.917969 L 393.1875 402.351563 L 402.351563 393.1875 L 410.917969 383.46875 L 418.859375 373.230469 L 426.144531 362.515625 L 432.738281 351.363281 L 438.621094 339.816406 L 443.765625 327.925781 L 448.15625 315.734375 L 451.769531 303.292969 L 454.597656 290.648438 L 456.625 277.851563 L 457.84375 264.949219 Z M 458.25 252 "/>
</g>
</svg>
