<?xml version="1.0" encoding="UTF-8"?>
<svg xmlns="http://www.w3.org/2000/svg" xmlns:xlink="http://www.w3.org/1999/xlink" width="1008pt" height="612pt" viewBox="0 0 1008 612" version="1.1">
<g id="surface741">
<rect x="0" y="0" width="1008" height="612" style="fill:rgb(100%,100%,100%);fill-opacity:1;stroke:none;"/>
<path style="fill:none;stroke-width:2.25;stroke-linecap:round;stroke-linejoin:round;stroke:rgb(0%,0%,0%);stroke-opacity:1;stroke-miterlimit:10;" d="M 718.785156 91.214844 L 289.214844 91.214844 L 289.214844 520.785156 L 718.785156 520.785156 Z M 718.785156 91.214844 "/>
<path style="fill:none;stroke-width:2.25;stroke-linecap:round;stroke-linejoin:round;stroke:rgb(0%,0%,0%);stroke-opacity:1;stroke-miterlimit:10;" d="M 377.4375 179.4375 L 371.558594 185.601563 L 365.980469 192.042969 L 360.714844 198.738281 L 355.773438 205.675781 L 351.167969 212.84375 L 346.90625 220.222656 L 343.003906 227.792969 L 339.464844 235.542969 L 336.296875 243.449219 L 333.511719 251.5 L 331.113281 259.675781 L 329.105469 267.953125 L 327.492188 276.320313 L 326.28125 284.75 L 325.46875 293.230469 L 325.0625 301.742188 L 325.0625 310.257813 L 325.46875 318.769531 L 326.28125 327.25 L 327.492188 335.679688 L 329.105469 344.046875 L 331.113281 352.324219 L 333.511719 360.5 L 336.296875 368.550781 L 339.464844 376.457031 L 343.003906 384.207031 L 346.90625 391.777344 L 351.167969 399.15625 L 355.773438 406.324219 L 360.714844 413.261719 L 365.980469 419.957031 L 371.558594 426.398438 L 377.4375 432.5625 L 383.601563 438.441406 L 390.042969 444.019531 L 396.738281 449.285156 L 403.675781 454.226563 L 410.84375 458.832031 L 418.222656 463.09375 L 425.792969 466.996094 L 433.542969 470.535156 L 441.449219 473.703125 L 449.5 476.488281 L 457.675781 478.886719 L 465.953125 480.894531 L 474.320313 482.507813 L 482.75 483.71875 L 491.230469 484.53125 L 499.742188 484.9375 L 508.257813 484.9375 L 516.769531 484.53125 L 525.25 483.71875 L 533.679688 482.507813 L 542.046875 480.894531 L 550.324219 478.886719 L 558.5 476.488281 L 566.550781 473.703125 L 574.457031 470.535156 L 582.207031 466.996094 L 589.777344 463.09375 L 597.15625 458.832031 L 604.324219 454.226563 L 611.261719 449.285156 L 617.957031 444.019531 L 624.398438 438.441406 L 630.5625 432.5625 L 636.441406 426.398438 L 642.019531 419.957031 L 647.285156 413.261719 L 652.226563 406.324219 L 656.832031 399.15625 L 661.09375 391.777344 L 664.996094 384.207031 L 668.535156 376.457031 L 671.703125 368.550781 L 674.488281 360.5 L 676.886719 352.324219 L 678.894531 344.046875 L 680.507813 335.679688 L 681.71875 327.25 L 682.53125 318.769531 L 682.9375 310.257813 L 682.9375 301.742188 L 682.53125 293.230469 L 681.71875 284.75 L 680.507813 276.320313 L 678.894531 267.953125 L 676.886719 259.675781 L 674.488281 251.5 L 671.703125 243.449219 L 668.535156 235.542969 L 664.996094 227.792969 L 661.09375 220.222656 L 656.832031 212.84375 L 652.226563 205.675781 L 647.285156 198.738281 L 642.019531 192.042969 L 636.441406 185.601563 L 630.5625 179.4375 L 504 306 Z M 377.4375 179.4375 "/>
<path style="fill-rule:nonzero;fill:rgb(100%,100%,100%);fill-opacity:1;stroke-width:1.5;stroke-linecap:round;stroke-linejoin:round;stroke:rgb(0%,0%,0%);stroke-opacity:1;stroke-miterlimit:10;" d="M 537.75 306 L 537.683594 303.878906 L 537.484375 301.769531 L 537.152344 299.675781 L 536.691406 297.605469 L 536.097656 295.570313 L 535.378906 293.574219 L 534.539063 291.628906 L 533.574219 289.742188 L 532.496094 287.914063 L 531.304688 286.164063 L 530.003906 284.488281 L 528.601563 282.898438 L 527.101563 281.398438 L 525.511719 279.996094 L 523.835938 278.695313 L 522.085938 277.503906 L 520.257813 276.425781 L 518.371094 275.460938 L 516.425781 274.621094 L 514.429688 273.902344 L 512.394531 273.308594 L 510.324219 272.847656 L 508.230469 272.515625 L 506.121094 272.316406 L 504 272.25 L 501.878906 272.316406 L 499.769531 272.515625 L 497.675781 272.847656 L 495.605469 273.308594 L 493.570313 273.902344 L 491.574219 274.621094 L 489.628906 275.460938 L 487.742188 276.425781 L 485.914063 277.503906 L 484.164063 278.695313 L 482.488281 279.996094 L 480.898438 281.398438 L 479.398438 282.898438 L 477.996094 284.488281 L 476.695313 286.164063 L 475.503906 287.914063 L 474.425781 289.742188 L 473.460938 291.628906 L 472.621094 293.574219 L 471.902344 295.570313 L 471.308594 297.605469 L 470.847656 299.675781 L 470.515625 301.769531 L 470.316406 303.878906 L 470.25 306 L 470.316406 308.121094 L 470.515625 310.230469 L 470.847656 312.324219 L 471.308594 314.394531 L 471.902344 316.429688 L 472.621094 318.425781 L 473.460938 320.371094 L 474.425781 322.257813 L 475.503906 324.085938 L 476.695313 325.835938 L 477.996094 327.511719 L 479.398438 329.101563 L 480.898438 330.601563 L 482.488281 332.003906 L 484.164063 333.304688 L 485.914063 334.496094 L 487.742188 335.574219 L 489.628906 336.539063 L 491.574219 337.378906 L 493.570313 338.097656 L 495.605469 338.691406 L 497.675781 339.152344 L 499.769531 339.484375 L 501.878906 339.683594 L 504 339.75 L 506.121094 339.683594 L 508.230469 339.484375 L 510.324219 339.152344 L 512.394531 338.691406 L 514.429688 338.097656 L 516.425781 337.378906 L 518.371094 336.539063 L 520.257813 335.574219 L 522.085938 334.496094 L 523.835938 333.304688 L 525.511719 332.003906 L 527.101563 330.601563 L 528.601563 329.101563 L 530.003906 327.511719 L 531.304688 325.835938 L 532.496094 324.085938 L 533.574219 322.257813 L 534.539063 320.371094 L 535.378906 318.425781 L 536.097656 316.429688 L 536.691406 314.394531 L 537.152344 312.324219 L 537.484375 310.230469 L 537.683594 308.121094 Z M 537.75 306 "/>
</g>
</svg>
