<?xml version="1.0" encoding="UTF-8"?>
<svg xmlns="http://www.w3.org/2000/svg" xmlns:xlink="http://www.w3.org/1999/xlink" width="1008pt" height="612pt" viewBox="0 0 1008 612" version="1.1">
<g id="surface491">
<rect x="0" y="0" width="1008" height="612" style="fill:rgb(100%,100%,100%);fill-opacity:1;stroke:none;"/>
<path style="fill:none;stroke-width:2.25;stroke-linecap:round;stroke-linejoin:round;stroke:rgb(0%,0%,0%);stroke-opacity:1;stroke-miterlimit:10;" d="M 126 78.09375 L 13.640625 153 L 126 227.90625 L 238.359375 153 Z M 126 78.09375 "/>
<path style="fill:none;stroke-width:2.25;stroke-linecap:round;stroke-linejoin:round;stroke:rgb(0%,0%,0%);stroke-opacity:1;stroke-miterlimit:10;" d="M 107.273438 134.273438 L 106.976563 134.574219 L 106.6875 134.875 L 106.402344 135.183594 L 105.847656 135.816406 L 105.578125 136.136719 L 105.3125 136.464844 L 105.054688 136.792969 L 104.796875 137.128906 L 104.304688 137.808594 L 104.066406 138.15625 L 103.835938 138.503906 L 103.609375 138.859375 L 103.386719 139.214844 L 103.171875 139.578125 L 102.960938 139.941406 L 102.753906 140.308594 L 102.363281 141.050781 L 101.996094 141.808594 L 101.824219 142.191406 L 101.65625 142.574219 L 101.492188 142.960938 L 101.335938 143.351563 L 101.1875 143.746094 L 101.042969 144.140625 L 100.90625 144.535156 L 100.773438 144.9375 L 100.648438 145.335938 L 100.53125 145.742188 L 100.417969 146.144531 L 100.3125 146.550781 L 100.214844 146.960938 L 100.121094 147.371094 L 100.035156 147.78125 L 99.957031 148.195313 L 99.882813 148.609375 L 99.816406 149.023438 L 99.757813 149.4375 L 99.703125 149.855469 L 99.65625 150.273438 L 99.617188 150.691406 L 99.582031 151.109375 L 99.558594 151.53125 L 99.535156 151.949219 L 99.523438 152.371094 L 99.515625 152.789063 L 99.515625 153.210938 L 99.523438 153.628906 L 99.535156 154.050781 L 99.558594 154.46875 L 99.582031 154.890625 L 99.617188 155.308594 L 99.65625 155.726563 L 99.703125 156.144531 L 99.757813 156.5625 L 99.816406 156.976563 L 99.882813 157.390625 L 99.957031 157.804688 L 100.035156 158.21875 L 100.121094 158.628906 L 100.214844 159.039063 L 100.3125 159.449219 L 100.417969 159.855469 L 100.53125 160.257813 L 100.648438 160.664063 L 100.773438 161.0625 L 100.90625 161.464844 L 101.042969 161.859375 L 101.1875 162.253906 L 101.335938 162.648438 L 101.492188 163.039063 L 101.65625 163.425781 L 101.824219 163.808594 L 101.996094 164.191406 L 102.363281 164.949219 L 102.753906 165.691406 L 102.960938 166.058594 L 103.171875 166.421875 L 103.386719 166.785156 L 103.609375 167.140625 L 103.835938 167.496094 L 104.066406 167.84375 L 104.304688 168.191406 L 104.796875 168.871094 L 105.054688 169.207031 L 105.3125 169.535156 L 105.578125 169.863281 L 105.847656 170.183594 L 106.402344 170.816406 L 106.6875 171.125 L 106.976563 171.425781 L 107.273438 171.726563 L 126 153 Z M 107.273438 134.273438 "/>
<path style="fill:none;stroke-width:2.25;stroke-linecap:round;stroke-linejoin:round;stroke:rgb(0%,0%,0%);stroke-opacity:1;stroke-miterlimit:10;" d="M 205.453125 73.546875 L 96.917969 44.46875 L 17.46875 123.917969 L 46.546875 232.453125 L 155.082031 261.53125 L 234.53125 182.082031 Z M 205.453125 73.546875 "/>
<path style="fill:none;stroke-width:2.25;stroke-linecap:round;stroke-linejoin:round;stroke:rgb(0%,0%,0%);stroke-opacity:1;stroke-miterlimit:10;" d="M 108.34375 170.65625 L 152.484375 179.484375 L 143.65625 135.34375 L 99.515625 126.515625 Z M 108.34375 170.65625 "/>
<path style="fill:none;stroke-width:2.25;stroke-linecap:round;stroke-linejoin:round;stroke:rgb(0%,0%,0%);stroke-opacity:1;stroke-miterlimit:10;" d="M 340.546875 153 L 359.273438 185.4375 L 396.726563 185.4375 L 415.453125 153 L 396.726563 120.5625 L 359.273438 120.5625 Z M 340.546875 153 "/>
<path style="fill:none;stroke-width:2.25;stroke-linecap:round;stroke-linejoin:round;stroke:rgb(0%,0%,0%);stroke-opacity:1;stroke-miterlimit:10;" d="M 630 78.09375 L 517.640625 153 L 630 227.90625 L 742.359375 153 Z M 630 78.09375 "/>
<path style="fill:none;stroke-width:2.25;stroke-linecap:round;stroke-linejoin:round;stroke:rgb(0%,0%,0%);stroke-opacity:1;stroke-miterlimit:10;" d="M 688.382813 51.875 L 571.617188 51.875 L 630 153 Z M 688.382813 51.875 "/>
<path style="fill:none;stroke-width:2.25;stroke-linecap:round;stroke-linejoin:round;stroke:rgb(0%,0%,0%);stroke-opacity:1;stroke-miterlimit:10;" d="M 630 153 L 571.617188 254.125 L 688.382813 254.125 Z M 630 153 "/>
<path style="fill:none;stroke-width:2.25;stroke-linecap:round;stroke-linejoin:round;stroke:rgb(0%,0%,0%);stroke-opacity:1;stroke-miterlimit:10;" d="M 697.417969 153 L 697.285156 150.035156 L 696.886719 147.085938 L 696.222656 144.15625 L 695.296875 141.265625 L 694.117188 138.417969 L 692.683594 135.628906 L 691 132.90625 L 689.078125 130.265625 L 686.921875 127.714844 L 684.542969 125.261719 L 681.945313 122.917969 L 679.144531 120.695313 L 676.148438 118.597656 L 672.972656 116.636719 L 669.625 114.820313 L 666.125 113.15625 L 662.476563 111.644531 L 658.703125 110.300781 L 654.816406 109.121094 L 650.832031 108.117188 L 646.765625 107.289063 L 642.632813 106.644531 L 638.449219 106.179688 L 634.234375 105.902344 L 630 105.808594 L 625.765625 105.902344 L 621.550781 106.179688 L 617.367188 106.644531 L 613.234375 107.289063 L 609.167969 108.117188 L 605.183594 109.121094 L 601.296875 110.300781 L 597.523438 111.644531 L 593.875 113.15625 L 590.375 114.820313 L 587.027344 116.636719 L 583.851563 118.597656 L 580.855469 120.695313 L 578.054688 122.917969 L 575.457031 125.261719 L 573.078125 127.714844 L 570.921875 130.265625 L 569 132.90625 L 567.316406 135.628906 L 565.882813 138.417969 L 564.703125 141.265625 L 563.777344 144.15625 L 563.113281 147.085938 L 562.714844 150.035156 L 562.582031 153 L 562.714844 155.964844 L 563.113281 158.914063 L 563.777344 161.84375 L 564.703125 164.734375 L 565.882813 167.582031 L 567.316406 170.371094 L 569 173.09375 L 570.921875 175.734375 L 573.078125 178.285156 L 575.457031 180.738281 L 578.054688 183.082031 L 580.855469 185.304688 L 583.851563 187.402344 L 587.027344 189.363281 L 590.375 191.179688 L 593.875 192.84375 L 597.523438 194.355469 L 601.296875 195.699219 L 605.183594 196.878906 L 609.167969 197.882813 L 613.234375 198.710938 L 617.367188 199.355469 L 621.550781 199.820313 L 625.765625 200.097656 L 630 200.191406 L 634.234375 200.097656 L 638.449219 199.820313 L 642.632813 199.355469 L 646.765625 198.710938 L 650.832031 197.882813 L 654.816406 196.878906 L 658.703125 195.699219 L 662.476563 194.355469 L 666.125 192.84375 L 669.625 191.179688 L 672.972656 189.363281 L 676.148438 187.402344 L 679.144531 185.304688 L 681.945313 183.082031 L 684.542969 180.738281 L 686.921875 178.285156 L 689.078125 175.734375 L 691 173.09375 L 692.683594 170.371094 L 694.117188 167.582031 L 695.296875 164.734375 L 696.222656 161.84375 L 696.886719 158.914063 L 697.285156 155.964844 Z M 697.417969 153 "/>
<path style="fill:none;stroke-width:2.25;stroke-linecap:round;stroke-linejoin:round;stroke:rgb(0%,0%,0%);stroke-opacity:1;stroke-miterlimit:10;" d="M 855.515625 179.484375 L 921.726563 192.726563 L 908.484375 126.515625 L 842.273438 113.273438 Z M 855.515625 179.484375 "/>
<path style="fill:none;stroke-width:2.25;stroke-linecap:round;stroke-linejoin:round;stroke:rgb(0%,0%,0%);stroke-opacity:1;stroke-miterlimit:10;" d="M 108.34375 476.65625 L 152.484375 485.484375 L 143.65625 441.34375 L 99.515625 432.515625 Z M 108.34375 476.65625 "/>
<path style="fill:none;stroke-width:2.25;stroke-linecap:round;stroke-linejoin:round;stroke:rgb(0%,0%,0%);stroke-opacity:1;stroke-miterlimit:10;" d="M 378 496.453125 L 410.4375 477.726563 L 410.4375 440.273438 L 378 421.546875 L 345.5625 440.273438 L 345.5625 477.726563 Z M 378 496.453125 "/>
<path style="fill:none;stroke-width:2.25;stroke-linecap:round;stroke-linejoin:round;stroke:rgb(0%,0%,0%);stroke-opacity:1;stroke-miterlimit:10;" d="M 616.128906 459 L 623.0625 471.011719 L 636.9375 471.011719 L 643.871094 459 L 636.9375 446.988281 L 623.0625 446.988281 Z M 616.128906 459 "/>
<path style="fill:none;stroke-width:2.25;stroke-linecap:round;stroke-linejoin:round;stroke:rgb(0%,0%,0%);stroke-opacity:1;stroke-miterlimit:10;" d="M 961.453125 379.546875 L 852.917969 350.46875 L 773.46875 429.917969 L 802.546875 538.453125 L 911.082031 567.53125 L 990.53125 488.082031 Z M 961.453125 379.546875 "/>
</g>
</svg>
