<?xml version="1.0" encoding="UTF-8"?>
<svg xmlns="http://www.w3.org/2000/svg" xmlns:xlink="http://www.w3.org/1999/xlink" width="1008pt" height="612pt" viewBox="0 0 1008 612" version="1.1">
<g id="surface351">
<rect x="0" y="0" width="1008" height="612" style="fill:rgb(100%,100%,100%);fill-opacity:1;stroke:none;"/>
<path style="fill:none;stroke-width:2.25;stroke-linecap:round;stroke-linejoin:round;stroke:rgb(0%,0%,0%);stroke-opacity:1;stroke-miterlimit:10;" d="M 126 190.453125 L 161.621094 164.574219 L 148.015625 122.699219 L 103.984375 122.699219 L 90.378906 164.574219 Z M 126 190.453125 "/>
<path style="fill:none;stroke-width:2.25;stroke-linecap:round;stroke-linejoin:round;stroke:rgb(0%,0%,0%);stroke-opacity:1;stroke-miterlimit:10;" d="M 351.515625 153 L 351.546875 154.261719 L 351.636719 155.515625 L 351.785156 156.769531 L 351.996094 158.011719 L 352.261719 159.242188 L 352.589844 160.460938 L 352.972656 161.660156 L 353.414063 162.84375 L 353.910156 164 L 354.460938 165.136719 L 355.0625 166.242188 L 355.71875 167.316406 L 356.425781 168.363281 L 357.183594 169.371094 L 357.984375 170.34375 L 358.832031 171.277344 L 359.722656 172.167969 L 360.65625 173.015625 L 361.628906 173.816406 L 362.636719 174.574219 L 363.683594 175.28125 L 364.757813 175.9375 L 365.863281 176.539063 L 367 177.089844 L 368.15625 177.585938 L 369.339844 178.027344 L 370.539063 178.410156 L 371.757813 178.738281 L 372.988281 179.003906 L 374.230469 179.214844 L 375.484375 179.363281 L 376.738281 179.453125 L 378 179.484375 L 379.261719 179.453125 L 380.515625 179.363281 L 381.769531 179.214844 L 383.011719 179.003906 L 384.242188 178.738281 L 385.460938 178.410156 L 386.660156 178.027344 L 387.84375 177.585938 L 389 177.089844 L 390.136719 176.539063 L 391.242188 175.9375 L 392.316406 175.28125 L 393.363281 174.574219 L 394.371094 173.816406 L 395.34375 173.015625 L 396.277344 172.167969 L 397.167969 171.277344 L 398.015625 170.34375 L 398.816406 169.371094 L 399.574219 168.363281 L 400.28125 167.316406 L 400.9375 166.242188 L 401.539063 165.136719 L 402.089844 164 L 402.585938 162.84375 L 403.027344 161.660156 L 403.410156 160.460938 L 403.738281 159.242188 L 404.003906 158.011719 L 404.214844 156.769531 L 404.363281 155.515625 L 404.453125 154.261719 L 404.484375 153 L 404.453125 151.738281 L 404.363281 150.484375 L 404.214844 149.230469 L 404.003906 147.988281 L 403.738281 146.757813 L 403.410156 145.539063 L 403.027344 144.339844 L 402.585938 143.15625 L 402.089844 142 L 401.539063 140.863281 L 400.9375 139.757813 L 400.28125 138.683594 L 399.574219 137.636719 L 398.816406 136.628906 L 398.015625 135.65625 L 397.167969 134.722656 L 396.277344 133.832031 L 395.34375 132.984375 L 394.371094 132.183594 L 393.363281 131.425781 L 392.316406 130.71875 L 391.242188 130.0625 L 390.136719 129.460938 L 389 128.910156 L 387.84375 128.414063 L 386.660156 127.972656 L 385.460938 127.589844 L 384.242188 127.261719 L 383.011719 126.996094 L 381.769531 126.785156 L 380.515625 126.636719 L 379.261719 126.546875 L 378 126.515625 L 378 153 Z M 351.515625 153 "/>
<path style="fill:none;stroke-width:2.25;stroke-linecap:round;stroke-linejoin:round;stroke:rgb(0%,0%,0%);stroke-opacity:1;stroke-miterlimit:10;" d="M 667.453125 153 L 641.574219 117.378906 L 599.699219 130.984375 L 599.699219 175.015625 L 641.574219 188.621094 Z M 667.453125 153 "/>
<path style="fill:none;stroke-width:2.25;stroke-linecap:round;stroke-linejoin:round;stroke:rgb(0%,0%,0%);stroke-opacity:1;stroke-miterlimit:10;" d="M 842.273438 153 L 842.320313 154.890625 L 842.453125 156.777344 L 842.679688 158.652344 L 842.992188 160.519531 L 843.394531 162.367188 L 843.882813 164.191406 L 844.460938 165.992188 L 845.121094 167.765625 L 845.863281 169.503906 L 846.691406 171.203125 L 847.597656 172.863281 L 848.582031 174.476563 L 849.640625 176.042969 L 850.773438 177.558594 L 851.976563 179.015625 L 853.25 180.414063 L 854.585938 181.75 L 855.984375 183.023438 L 857.441406 184.226563 L 858.957031 185.359375 L 860.523438 186.417969 L 862.136719 187.402344 L 863.796875 188.308594 L 865.496094 189.136719 L 867.234375 189.878906 L 869.007813 190.539063 L 870.808594 191.117188 L 872.632813 191.605469 L 874.480469 192.007813 L 876.347656 192.320313 L 878.222656 192.546875 L 880.109375 192.679688 L 882 192.726563 L 883.890625 192.679688 L 885.777344 192.546875 L 887.652344 192.320313 L 889.519531 192.007813 L 891.367188 191.605469 L 893.191406 191.117188 L 894.992188 190.539063 L 896.765625 189.878906 L 898.503906 189.136719 L 900.203125 188.308594 L 901.863281 187.402344 L 903.476563 186.417969 L 905.042969 185.359375 L 906.558594 184.226563 L 908.015625 183.023438 L 909.414063 181.75 L 910.75 180.414063 L 912.023438 179.015625 L 913.226563 177.558594 L 914.359375 176.042969 L 915.417969 174.476563 L 916.402344 172.863281 L 917.308594 171.203125 L 918.136719 169.503906 L 918.878906 167.765625 L 919.539063 165.992188 L 920.117188 164.191406 L 920.605469 162.367188 L 921.007813 160.519531 L 921.320313 158.652344 L 921.546875 156.777344 L 921.679688 154.890625 L 921.726563 153 L 921.679688 151.109375 L 921.546875 149.222656 L 921.320313 147.347656 L 921.007813 145.480469 L 920.605469 143.632813 L 920.117188 141.808594 L 919.539063 140.007813 L 918.878906 138.234375 L 918.136719 136.496094 L 917.308594 134.796875 L 916.402344 133.136719 L 915.417969 131.523438 L 914.359375 129.957031 L 913.226563 128.441406 L 912.023438 126.984375 L 910.75 125.585938 L 909.414063 124.25 L 908.015625 122.976563 L 906.558594 121.773438 L 905.042969 120.640625 L 903.476563 119.582031 L 901.863281 118.597656 L 900.203125 117.691406 L 898.503906 116.863281 L 896.765625 116.121094 L 894.992188 115.460938 L 893.191406 114.882813 L 891.367188 114.394531 L 889.519531 113.992188 L 887.652344 113.679688 L 885.777344 113.453125 L 883.890625 113.320313 L 882 113.273438 L 882 153 Z M 842.273438 153 "/>
<path style="fill:none;stroke-width:2.25;stroke-linecap:round;stroke-linejoin:round;stroke:rgb(0%,0%,0%);stroke-opacity:1;stroke-miterlimit:10;" d="M 101.03125 459 L 126 496.453125 L 150.96875 459 L 126 421.546875 Z M 101.03125 459 "/>
<path style="fill:none;stroke-width:2.25;stroke-linecap:round;stroke-linejoin:round;stroke:rgb(0%,0%,0%);stroke-opacity:1;stroke-miterlimit:10;" d="M 378 472.871094 L 391.191406 463.285156 L 386.152344 447.777344 L 369.847656 447.777344 L 364.808594 463.285156 Z M 378 472.871094 "/>
<path style="fill:none;stroke-width:2.25;stroke-linecap:round;stroke-linejoin:round;stroke:rgb(0%,0%,0%);stroke-opacity:1;stroke-miterlimit:10;" d="M 686.179688 402.820313 L 683.445313 400.210938 L 680.585938 397.734375 L 677.613281 395.394531 L 674.53125 393.203125 L 671.351563 391.15625 L 668.078125 389.265625 L 664.714844 387.535156 L 661.277344 385.964844 L 657.765625 384.558594 L 654.191406 383.320313 L 650.5625 382.257813 L 646.886719 381.363281 L 643.175781 380.648438 L 639.433594 380.109375 L 635.667969 379.75 L 631.890625 379.570313 L 628.109375 379.570313 L 624.332031 379.75 L 620.566406 380.109375 L 616.824219 380.648438 L 613.113281 381.363281 L 609.4375 382.257813 L 605.808594 383.320313 L 602.234375 384.558594 L 598.722656 385.964844 L 595.285156 387.535156 L 591.921875 389.265625 L 588.648438 391.15625 L 585.46875 393.203125 L 582.386719 395.394531 L 579.414063 397.734375 L 576.554688 400.210938 L 573.820313 402.820313 L 571.210938 405.554688 L 568.734375 408.414063 L 566.394531 411.386719 L 564.203125 414.46875 L 562.15625 417.648438 L 560.265625 420.921875 L 558.535156 424.285156 L 556.964844 427.722656 L 555.558594 431.234375 L 554.320313 434.808594 L 553.257813 438.4375 L 552.363281 442.113281 L 551.648438 445.824219 L 551.109375 449.566406 L 550.75 453.332031 L 550.570313 457.109375 L 550.570313 460.890625 L 550.75 464.667969 L 551.109375 468.433594 L 551.648438 472.175781 L 552.363281 475.886719 L 553.257813 479.5625 L 554.320313 483.191406 L 555.558594 486.765625 L 556.964844 490.277344 L 558.535156 493.714844 L 560.265625 497.078125 L 562.15625 500.351563 L 564.203125 503.53125 L 566.394531 506.613281 L 568.734375 509.585938 L 571.210938 512.445313 L 573.820313 515.179688 L 576.554688 517.789063 L 579.414063 520.265625 L 582.386719 522.605469 L 585.46875 524.796875 L 588.648438 526.84375 L 591.921875 528.734375 L 595.285156 530.464844 L 598.722656 532.035156 L 602.234375 533.441406 L 605.808594 534.679688 L 609.4375 535.742188 L 613.113281 536.636719 L 616.824219 537.351563 L 620.566406 537.890625 L 624.332031 538.25 L 628.109375 538.429688 L 631.890625 538.429688 L 635.667969 538.25 L 639.433594 537.890625 L 643.175781 537.351563 L 646.886719 536.636719 L 650.5625 535.742188 L 654.191406 534.679688 L 657.765625 533.441406 L 661.277344 532.035156 L 664.714844 530.464844 L 668.078125 528.734375 L 671.351563 526.84375 L 674.53125 524.796875 L 677.613281 522.605469 L 680.585938 520.265625 L 683.445313 517.789063 L 686.179688 515.179688 L 630 459 Z M 686.179688 402.820313 "/>
<path style="fill:none;stroke-width:2.25;stroke-linecap:round;stroke-linejoin:round;stroke:rgb(0%,0%,0%);stroke-opacity:1;stroke-miterlimit:10;" d="M 590.273438 419.273438 L 579.941406 484.503906 L 638.789063 514.488281 L 685.488281 467.789063 L 655.503906 408.941406 Z M 590.273438 419.273438 "/>
<path style="fill:none;stroke-width:2.25;stroke-linecap:round;stroke-linejoin:round;stroke:rgb(0%,0%,0%);stroke-opacity:1;stroke-miterlimit:10;" d="M 592.546875 459 L 630 515.179688 L 667.453125 459 L 630 402.820313 Z M 592.546875 459 "/>
<path style="fill:none;stroke-width:2.25;stroke-linecap:round;stroke-linejoin:round;stroke:rgb(0%,0%,0%);stroke-opacity:1;stroke-miterlimit:10;" d="M 555.09375 459 L 630 571.359375 L 704.90625 459 L 630 346.640625 Z M 555.09375 459 "/>
<path style="fill:none;stroke-width:2.25;stroke-linecap:round;stroke-linejoin:round;stroke:rgb(0%,0%,0%);stroke-opacity:1;stroke-miterlimit:10;" d="M 938.179688 402.820313 L 935.445313 400.210938 L 932.585938 397.734375 L 929.613281 395.394531 L 926.53125 393.203125 L 923.351563 391.15625 L 920.078125 389.265625 L 916.714844 387.535156 L 913.277344 385.964844 L 909.765625 384.558594 L 906.191406 383.320313 L 902.5625 382.257813 L 898.886719 381.363281 L 895.175781 380.648438 L 891.433594 380.109375 L 887.667969 379.75 L 883.890625 379.570313 L 880.109375 379.570313 L 876.332031 379.75 L 872.566406 380.109375 L 868.824219 380.648438 L 865.113281 381.363281 L 861.4375 382.257813 L 857.808594 383.320313 L 854.234375 384.558594 L 850.722656 385.964844 L 847.285156 387.535156 L 843.921875 389.265625 L 840.648438 391.15625 L 837.46875 393.203125 L 834.386719 395.394531 L 831.414063 397.734375 L 828.554688 400.210938 L 825.820313 402.820313 L 823.210938 405.554688 L 820.734375 408.414063 L 818.394531 411.386719 L 816.203125 414.46875 L 814.15625 417.648438 L 812.265625 420.921875 L 810.535156 424.285156 L 808.964844 427.722656 L 807.558594 431.234375 L 806.320313 434.808594 L 805.257813 438.4375 L 804.363281 442.113281 L 803.648438 445.824219 L 803.109375 449.566406 L 802.75 453.332031 L 802.570313 457.109375 L 802.570313 460.890625 L 802.75 464.667969 L 803.109375 468.433594 L 803.648438 472.175781 L 804.363281 475.886719 L 805.257813 479.5625 L 806.320313 483.191406 L 807.558594 486.765625 L 808.964844 490.277344 L 810.535156 493.714844 L 812.265625 497.078125 L 814.15625 500.351563 L 816.203125 503.53125 L 818.394531 506.613281 L 820.734375 509.585938 L 823.210938 512.445313 L 825.820313 515.179688 L 828.554688 517.789063 L 831.414063 520.265625 L 834.386719 522.605469 L 837.46875 524.796875 L 840.648438 526.84375 L 843.921875 528.734375 L 847.285156 530.464844 L 850.722656 532.035156 L 854.234375 533.441406 L 857.808594 534.679688 L 861.4375 535.742188 L 865.113281 536.636719 L 868.824219 537.351563 L 872.566406 537.890625 L 876.332031 538.25 L 880.109375 538.429688 L 883.890625 538.429688 L 887.667969 538.25 L 891.433594 537.890625 L 895.175781 537.351563 L 898.886719 536.636719 L 902.5625 535.742188 L 906.191406 534.679688 L 909.765625 533.441406 L 913.277344 532.035156 L 916.714844 530.464844 L 920.078125 528.734375 L 923.351563 526.84375 L 926.53125 524.796875 L 929.613281 522.605469 L 932.585938 520.265625 L 935.445313 517.789063 L 938.179688 515.179688 L 882 459 Z M 938.179688 402.820313 "/>
<path style="fill:none;stroke-width:2.25;stroke-linecap:round;stroke-linejoin:round;stroke:rgb(0%,0%,0%);stroke-opacity:1;stroke-miterlimit:10;" d="M 880.675781 460.324219 L 880.101563 459.761719 L 879.523438 459.210938 L 878.933594 458.664063 L 878.335938 458.128906 L 877.726563 457.605469 L 877.113281 457.089844 L 876.492188 456.582031 L 875.859375 456.085938 L 875.222656 455.601563 L 874.574219 455.125 L 873.921875 454.660156 L 873.261719 454.207031 L 872.59375 453.761719 L 871.917969 453.328125 L 871.238281 452.90625 L 870.546875 452.492188 L 869.855469 452.089844 L 869.152344 451.703125 L 868.445313 451.324219 L 867.734375 450.953125 L 867.015625 450.597656 L 866.289063 450.253906 L 865.558594 449.921875 L 864.824219 449.597656 L 864.085938 449.289063 L 863.339844 448.992188 L 862.589844 448.703125 L 861.835938 448.429688 L 861.078125 448.167969 L 860.316406 447.917969 L 859.550781 447.679688 L 858.78125 447.453125 L 858.007813 447.238281 L 857.230469 447.039063 L 856.453125 446.847656 L 855.667969 446.671875 L 854.882813 446.507813 L 854.09375 446.355469 L 853.304688 446.214844 L 852.511719 446.089844 L 851.71875 445.976563 L 850.921875 445.875 L 850.125 445.785156 L 849.328125 445.710938 L 848.527344 445.644531 L 847.726563 445.59375 L 846.925781 445.554688 L 846.125 445.53125 L 845.320313 445.519531 L 844.519531 445.519531 L 843.71875 445.53125 L 842.914063 445.554688 L 842.113281 445.59375 L 841.3125 445.644531 L 840.515625 445.710938 L 839.714844 445.785156 L 838.917969 445.875 L 838.121094 445.976563 L 837.328125 446.089844 L 836.535156 446.214844 L 835.746094 446.355469 L 834.957031 446.507813 L 834.171875 446.671875 L 833.390625 446.847656 L 832.609375 447.039063 L 831.835938 447.238281 L 831.0625 447.453125 L 830.292969 447.679688 L 829.523438 447.917969 L 828.761719 448.167969 L 828.003906 448.429688 L 827.25 448.703125 L 826.5 448.992188 L 825.757813 449.289063 L 825.015625 449.597656 L 824.28125 449.921875 L 823.550781 450.253906 L 822.828125 450.597656 L 822.109375 450.953125 L 821.394531 451.324219 L 820.6875 451.703125 L 819.988281 452.089844 L 819.292969 452.492188 L 818.605469 452.90625 L 817.921875 453.328125 L 817.25 453.761719 L 816.582031 454.207031 L 815.917969 454.660156 L 815.265625 455.125 L 814.621094 455.601563 L 813.980469 456.085938 L 813.351563 456.582031 L 812.726563 457.089844 L 812.113281 457.605469 L 811.507813 458.128906 L 810.910156 458.664063 L 810.320313 459.210938 L 809.738281 459.761719 L 809.167969 460.324219 L 809.738281 459.761719 L 810.320313 459.210938 L 810.910156 458.664063 L 811.507813 458.128906 L 812.113281 457.605469 L 812.726563 457.089844 L 813.351563 456.582031 L 813.980469 456.085938 L 814.621094 455.601563 L 815.265625 455.125 L 815.917969 454.660156 L 816.582031 454.207031 L 817.25 453.761719 L 817.921875 453.328125 L 818.605469 452.90625 L 819.292969 452.492188 L 819.988281 452.089844 L 820.6875 451.703125 L 821.394531 451.324219 L 822.109375 450.953125 L 822.828125 450.597656 L 823.550781 450.253906 L 824.28125 449.921875 L 825.015625 449.597656 L 825.757813 449.289063 L 826.5 448.992188 L 827.25 448.703125 L 828.003906 448.429688 L 828.761719 448.167969 L 829.523438 447.917969 L 830.292969 447.679688 L 831.0625 447.453125 L 831.835938 447.238281 L 832.609375 447.039063 L 833.390625 446.847656 L 834.171875 446.671875 L 834.957031 446.507813 L 835.746094 446.355469 L 836.535156 446.214844 L 837.328125 446.089844 L 838.121094 445.976563 L 838.917969 445.875 L 839.714844 445.785156 L 840.515625 445.710938 L 841.3125 445.644531 L 842.113281 445.59375 L 842.914063 445.554688 L 843.71875 445.53125 L 844.519531 445.519531 L 845.320313 445.519531 L 846.125 445.53125 L 846.925781 445.554688 L 847.726563 445.59375 L 848.527344 445.644531 L 849.328125 445.710938 L 850.125 445.785156 L 850.921875 445.875 L 851.71875 445.976563 L 852.511719 446.089844 L 853.304688 446.214844 L 854.09375 446.355469 L 854.882813 446.507813 L 855.667969 446.671875 L 856.453125 446.847656 L 857.230469 447.039063 L 858.007813 447.238281 L 858.78125 447.453125 L 859.550781 447.679688 L 860.316406 447.917969 L 861.078125 448.167969 L 861.835938 448.429688 L 862.589844 448.703125 L 863.339844 448.992188 L 864.085938 449.289063 L 864.824219 449.597656 L 865.558594 449.921875 L 866.289063 450.253906 L 867.015625 450.597656 L 867.734375 450.953125 L 868.445313 451.324219 L 869.152344 451.703125 L 869.855469 452.089844 L 870.546875 452.492188 L 871.238281 452.90625 L 871.917969 453.328125 L 872.59375 453.761719 L 873.261719 454.207031 L 873.921875 454.660156 L 874.574219 455.125 L 875.222656 455.601563 L 875.859375 456.085938 L 876.492188 456.582031 L 877.113281 457.089844 L 877.726563 457.605469 L 878.335938 458.128906 L 878.933594 458.664063 L 879.523438 459.210938 L 880.101563 459.761719 Z M 880.675781 460.324219 "/>
<path style="fill:none;stroke-width:2.25;stroke-linecap:round;stroke-linejoin:round;stroke:rgb(0%,0%,0%);stroke-opacity:1;stroke-miterlimit:10;" d="M 879.957031 461.042969 L 880.527344 461.609375 L 881.109375 462.160156 L 881.695313 462.707031 L 882.292969 463.242188 L 882.902344 463.765625 L 883.515625 464.28125 L 884.136719 464.789063 L 884.769531 465.28125 L 885.40625 465.769531 L 886.054688 466.246094 L 886.707031 466.710938 L 887.367188 467.164063 L 888.035156 467.609375 L 888.710938 468.042969 L 889.390625 468.464844 L 890.082031 468.878906 L 890.773438 469.277344 L 891.476563 469.667969 L 892.183594 470.046875 L 892.898438 470.414063 L 893.617188 470.773438 L 894.339844 471.117188 L 895.070313 471.449219 L 895.804688 471.773438 L 896.542969 472.082031 L 897.289063 472.378906 L 898.039063 472.667969 L 898.792969 472.941406 L 899.550781 473.203125 L 900.3125 473.453125 L 901.078125 473.691406 L 901.847656 473.917969 L 902.621094 474.132813 L 903.398438 474.332031 L 904.179688 474.523438 L 904.960938 474.699219 L 905.746094 474.863281 L 906.535156 475.015625 L 907.324219 475.152344 L 908.117188 475.28125 L 908.910156 475.394531 L 909.707031 475.496094 L 910.503906 475.585938 L 911.300781 475.660156 L 912.101563 475.726563 L 912.902344 475.777344 L 913.703125 475.8125 L 914.503906 475.839844 L 915.308594 475.851563 L 916.109375 475.851563 L 916.910156 475.839844 L 917.714844 475.8125 L 918.515625 475.777344 L 919.316406 475.726563 L 920.113281 475.660156 L 920.914063 475.585938 L 921.710938 475.496094 L 922.507813 475.394531 L 923.300781 475.28125 L 924.09375 475.152344 L 924.882813 475.015625 L 925.671875 474.863281 L 926.457031 474.699219 L 927.238281 474.523438 L 928.019531 474.332031 L 928.792969 474.132813 L 929.566406 473.917969 L 930.335938 473.691406 L 931.105469 473.453125 L 931.867188 473.203125 L 932.625 472.941406 L 933.378906 472.667969 L 934.128906 472.378906 L 934.871094 472.082031 L 935.613281 471.773438 L 936.347656 471.449219 L 937.078125 471.117188 L 937.800781 470.773438 L 938.519531 470.414063 L 939.234375 470.046875 L 939.941406 469.667969 L 940.640625 469.277344 L 941.335938 468.878906 L 942.023438 468.464844 L 942.707031 468.042969 L 943.382813 467.609375 L 944.050781 467.164063 L 944.710938 466.710938 L 945.363281 466.246094 L 946.007813 465.769531 L 946.648438 465.28125 L 947.277344 464.789063 L 947.902344 464.28125 L 948.515625 463.765625 L 949.121094 463.242188 L 949.71875 462.707031 L 950.308594 462.160156 L 950.890625 461.609375 L 951.460938 461.042969 L 950.890625 461.609375 L 950.308594 462.160156 L 949.71875 462.707031 L 949.121094 463.242188 L 948.515625 463.765625 L 947.902344 464.28125 L 947.277344 464.789063 L 946.648438 465.28125 L 946.007813 465.769531 L 945.363281 466.246094 L 944.710938 466.710938 L 944.050781 467.164063 L 943.382813 467.609375 L 942.707031 468.042969 L 942.023438 468.464844 L 941.335938 468.878906 L 940.640625 469.277344 L 939.941406 469.667969 L 939.234375 470.046875 L 938.519531 470.414063 L 937.800781 470.773438 L 937.078125 471.117188 L 936.347656 471.449219 L 935.613281 471.773438 L 934.871094 472.082031 L 934.128906 472.378906 L 933.378906 472.667969 L 932.625 472.941406 L 931.867188 473.203125 L 931.105469 473.453125 L 930.335938 473.691406 L 929.566406 473.917969 L 928.792969 474.132813 L 928.019531 474.332031 L 927.238281 474.523438 L 926.457031 474.699219 L 925.671875 474.863281 L 924.882813 475.015625 L 924.09375 475.152344 L 923.300781 475.28125 L 922.507813 475.394531 L 921.710938 475.496094 L 920.914063 475.585938 L 920.113281 475.660156 L 919.316406 475.726563 L 918.515625 475.777344 L 917.714844 475.8125 L 916.910156 475.839844 L 916.109375 475.851563 L 915.308594 475.851563 L 914.503906 475.839844 L 913.703125 475.8125 L 912.902344 475.777344 L 912.101563 475.726563 L 911.300781 475.660156 L 910.503906 475.585938 L 909.707031 475.496094 L 908.910156 475.394531 L 908.117188 475.28125 L 907.324219 475.152344 L 906.535156 475.015625 L 905.746094 474.863281 L 904.960938 474.699219 L 904.179688 474.523438 L 903.398438 474.332031 L 902.621094 474.132813 L 901.847656 473.917969 L 901.078125 473.691406 L 900.3125 473.453125 L 899.550781 473.203125 L 898.792969 472.941406 L 898.039063 472.667969 L 897.289063 472.378906 L 896.542969 472.082031 L 895.804688 471.773438 L 895.070313 471.449219 L 894.339844 471.117188 L 893.617188 470.773438 L 892.898438 470.414063 L 892.183594 470.046875 L 891.476563 469.667969 L 890.773438 469.277344 L 890.082031 468.878906 L 889.390625 468.464844 L 888.710938 468.042969 L 888.035156 467.609375 L 887.367188 467.164063 L 886.707031 466.710938 L 886.054688 466.246094 L 885.40625 465.769531 L 884.769531 465.28125 L 884.136719 464.789063 L 883.515625 464.28125 L 882.902344 463.765625 L 882.292969 463.242188 L 881.695313 462.707031 L 881.109375 462.160156 L 880.527344 461.609375 Z M 879.957031 461.042969 "/>
<path style="fill:none;stroke-width:2.25;stroke-linecap:round;stroke-linejoin:round;stroke:rgb(0%,0%,0%);stroke-opacity:1;stroke-miterlimit:10;" d="M 809.167969 461.042969 L 809.738281 461.609375 L 810.320313 462.160156 L 810.910156 462.707031 L 811.507813 463.242188 L 812.113281 463.765625 L 812.726563 464.28125 L 813.351563 464.789063 L 813.980469 465.28125 L 814.621094 465.769531 L 815.265625 466.246094 L 815.917969 466.710938 L 816.582031 467.164063 L 817.25 467.609375 L 817.921875 468.042969 L 818.605469 468.464844 L 819.292969 468.878906 L 819.988281 469.277344 L 820.6875 469.667969 L 821.394531 470.046875 L 822.109375 470.414063 L 822.828125 470.773438 L 823.550781 471.117188 L 824.28125 471.449219 L 825.015625 471.773438 L 825.757813 472.082031 L 826.5 472.378906 L 827.25 472.667969 L 828.003906 472.941406 L 828.761719 473.203125 L 829.523438 473.453125 L 830.292969 473.691406 L 831.0625 473.917969 L 831.835938 474.132813 L 832.609375 474.332031 L 833.390625 474.523438 L 834.171875 474.699219 L 834.957031 474.863281 L 835.746094 475.015625 L 836.535156 475.152344 L 837.328125 475.28125 L 838.121094 475.394531 L 838.917969 475.496094 L 839.714844 475.585938 L 840.515625 475.660156 L 841.3125 475.726563 L 842.113281 475.777344 L 842.914063 475.8125 L 843.71875 475.839844 L 844.519531 475.851563 L 845.320313 475.851563 L 846.125 475.839844 L 846.925781 475.8125 L 847.726563 475.777344 L 848.527344 475.726563 L 849.328125 475.660156 L 850.125 475.585938 L 850.921875 475.496094 L 851.71875 475.394531 L 852.511719 475.28125 L 853.304688 475.152344 L 854.09375 475.015625 L 854.882813 474.863281 L 855.667969 474.699219 L 856.453125 474.523438 L 857.230469 474.332031 L 858.007813 474.132813 L 858.78125 473.917969 L 859.550781 473.691406 L 860.316406 473.453125 L 861.078125 473.203125 L 861.835938 472.941406 L 862.589844 472.667969 L 863.339844 472.378906 L 864.085938 472.082031 L 864.824219 471.773438 L 865.558594 471.449219 L 866.289063 471.117188 L 867.015625 470.773438 L 867.734375 470.414063 L 868.445313 470.046875 L 869.152344 469.667969 L 869.855469 469.277344 L 870.546875 468.878906 L 871.238281 468.464844 L 871.917969 468.042969 L 872.59375 467.609375 L 873.261719 467.164063 L 873.921875 466.710938 L 874.574219 466.246094 L 875.222656 465.769531 L 875.859375 465.28125 L 876.492188 464.789063 L 877.113281 464.28125 L 877.726563 463.765625 L 878.335938 463.242188 L 878.933594 462.707031 L 879.523438 462.160156 L 880.101563 461.609375 L 880.675781 461.042969 L 880.101563 461.609375 L 879.523438 462.160156 L 878.933594 462.707031 L 878.335938 463.242188 L 877.726563 463.765625 L 877.113281 464.28125 L 876.492188 464.789063 L 875.859375 465.28125 L 875.222656 465.769531 L 874.574219 466.246094 L 873.921875 466.710938 L 873.261719 467.164063 L 872.59375 467.609375 L 871.917969 468.042969 L 871.238281 468.464844 L 870.546875 468.878906 L 869.855469 469.277344 L 869.152344 469.667969 L 868.445313 470.046875 L 867.734375 470.414063 L 867.015625 470.773438 L 866.289063 471.117188 L 865.558594 471.449219 L 864.824219 471.773438 L 864.085938 472.082031 L 863.339844 472.378906 L 862.589844 472.667969 L 861.835938 472.941406 L 861.078125 473.203125 L 860.316406 473.453125 L 859.550781 473.691406 L 858.78125 473.917969 L 858.007813 474.132813 L 857.230469 474.332031 L 856.453125 474.523438 L 855.667969 474.699219 L 854.882813 474.863281 L 854.09375 475.015625 L 853.304688 475.152344 L 852.511719 475.28125 L 851.71875 475.394531 L 850.921875 475.496094 L 850.125 475.585938 L 849.328125 475.660156 L 848.527344 475.726563 L 847.726563 475.777344 L 846.925781 475.8125 L 846.125 475.839844 L 845.320313 475.851563 L 844.519531 475.851563 L 843.71875 475.839844 L 842.914063 475.8125 L 842.113281 475.777344 L 841.3125 475.726563 L 840.515625 475.660156 L 839.714844 475.585938 L 838.917969 475.496094 L 838.121094 475.394531 L 837.328125 475.28125 L 836.535156 475.152344 L 835.746094 475.015625 L 834.957031 474.863281 L 834.171875 474.699219 L 833.390625 474.523438 L 832.609375 474.332031 L 831.835938 474.132813 L 831.0625 473.917969 L 830.292969 473.691406 L 829.523438 473.453125 L 828.761719 473.203125 L 828.003906 472.941406 L 827.25 472.667969 L 826.5 472.378906 L 825.757813 472.082031 L 825.015625 471.773438 L 824.28125 471.449219 L 823.550781 471.117188 L 822.828125 470.773438 L 822.109375 470.414063 L 821.394531 470.046875 L 820.6875 469.667969 L 819.988281 469.277344 L 819.292969 468.878906 L 818.605469 468.464844 L 817.921875 468.042969 L 817.25 467.609375 L 816.582031 467.164063 L 815.917969 466.710938 L 815.265625 466.246094 L 814.621094 465.769531 L 813.980469 465.28125 L 813.351563 464.789063 L 812.726563 464.28125 L 812.113281 463.765625 L 811.507813 463.242188 L 810.910156 462.707031 L 810.320313 462.160156 L 809.738281 461.609375 Z M 809.167969 461.042969 "/>
<path style="fill:none;stroke-width:2.25;stroke-linecap:round;stroke-linejoin:round;stroke:rgb(0%,0%,0%);stroke-opacity:1;stroke-miterlimit:10;" d="M 952.136719 460.324219 L 951.5625 459.761719 L 950.984375 459.210938 L 950.394531 458.664063 L 949.796875 458.128906 L 949.191406 457.605469 L 948.574219 457.089844 L 947.953125 456.582031 L 947.320313 456.085938 L 946.683594 455.601563 L 946.039063 455.125 L 945.382813 454.660156 L 944.722656 454.207031 L 944.054688 453.761719 L 943.378906 453.328125 L 942.699219 452.90625 L 942.011719 452.492188 L 941.316406 452.089844 L 940.613281 451.703125 L 939.90625 451.324219 L 939.195313 450.953125 L 938.476563 450.597656 L 937.75 450.253906 L 937.019531 449.921875 L 936.285156 449.597656 L 935.546875 449.289063 L 934.800781 448.992188 L 934.050781 448.703125 L 933.296875 448.429688 L 932.539063 448.167969 L 931.777344 447.917969 L 931.011719 447.679688 L 930.242188 447.453125 L 929.46875 447.238281 L 928.691406 447.039063 L 927.914063 446.847656 L 927.128906 446.671875 L 926.34375 446.507813 L 925.558594 446.355469 L 924.765625 446.214844 L 923.976563 446.089844 L 923.179688 445.976563 L 922.386719 445.875 L 921.589844 445.785156 L 920.789063 445.710938 L 919.988281 445.644531 L 919.1875 445.59375 L 918.386719 445.554688 L 917.585938 445.53125 L 916.785156 445.519531 L 915.980469 445.519531 L 915.179688 445.53125 L 914.378906 445.554688 L 913.574219 445.59375 L 912.777344 445.644531 L 911.976563 445.710938 L 911.175781 445.785156 L 910.378906 445.875 L 909.582031 445.976563 L 908.789063 446.089844 L 907.996094 446.214844 L 907.207031 446.355469 L 906.417969 446.507813 L 905.632813 446.671875 L 904.851563 446.847656 L 904.074219 447.039063 L 903.296875 447.238281 L 902.523438 447.453125 L 901.753906 447.679688 L 900.988281 447.917969 L 900.226563 448.167969 L 899.464844 448.429688 L 898.710938 448.703125 L 897.964844 448.992188 L 897.21875 449.289063 L 896.480469 449.597656 L 895.742188 449.921875 L 895.015625 450.253906 L 894.289063 450.597656 L 893.570313 450.953125 L 892.859375 451.324219 L 892.152344 451.703125 L 891.449219 452.089844 L 890.753906 452.492188 L 890.066406 452.90625 L 889.382813 453.328125 L 888.710938 453.761719 L 888.042969 454.207031 L 887.382813 454.660156 L 886.726563 455.125 L 886.082031 455.601563 L 885.441406 456.085938 L 884.8125 456.582031 L 884.191406 457.089844 L 883.574219 457.605469 L 882.96875 458.128906 L 882.371094 458.664063 L 881.78125 459.210938 L 881.199219 459.761719 L 880.628906 460.324219 L 881.199219 459.761719 L 881.78125 459.210938 L 882.371094 458.664063 L 882.96875 458.128906 L 883.574219 457.605469 L 884.191406 457.089844 L 884.8125 456.582031 L 885.441406 456.085938 L 886.082031 455.601563 L 886.726563 455.125 L 887.382813 454.660156 L 888.042969 454.207031 L 888.710938 453.761719 L 889.382813 453.328125 L 890.066406 452.90625 L 890.753906 452.492188 L 891.449219 452.089844 L 892.152344 451.703125 L 892.859375 451.324219 L 893.570313 450.953125 L 894.289063 450.597656 L 895.015625 450.253906 L 895.742188 449.921875 L 896.480469 449.597656 L 897.21875 449.289063 L 897.964844 448.992188 L 898.710938 448.703125 L 899.464844 448.429688 L 900.226563 448.167969 L 900.988281 447.917969 L 901.753906 447.679688 L 902.523438 447.453125 L 903.296875 447.238281 L 904.074219 447.039063 L 904.851563 446.847656 L 905.632813 446.671875 L 906.417969 446.507813 L 907.207031 446.355469 L 907.996094 446.214844 L 908.789063 446.089844 L 909.582031 445.976563 L 910.378906 445.875 L 911.175781 445.785156 L 911.976563 445.710938 L 912.777344 445.644531 L 913.574219 445.59375 L 914.378906 445.554688 L 915.179688 445.53125 L 915.980469 445.519531 L 916.785156 445.519531 L 917.585938 445.53125 L 918.386719 445.554688 L 919.1875 445.59375 L 919.988281 445.644531 L 920.789063 445.710938 L 921.589844 445.785156 L 922.386719 445.875 L 923.179688 445.976563 L 923.976563 446.089844 L 924.765625 446.214844 L 925.558594 446.355469 L 926.34375 446.507813 L 927.128906 446.671875 L 927.914063 446.847656 L 928.691406 447.039063 L 929.46875 447.238281 L 930.242188 447.453125 L 931.011719 447.679688 L 931.777344 447.917969 L 932.539063 448.167969 L 933.296875 448.429688 L 934.050781 448.703125 L 934.800781 448.992188 L 935.546875 449.289063 L 936.285156 449.597656 L 937.019531 449.921875 L 937.75 450.253906 L 938.476563 450.597656 L 939.195313 450.953125 L 939.90625 451.324219 L 940.613281 451.703125 L 941.316406 452.089844 L 942.011719 452.492188 L 942.699219 452.90625 L 943.378906 453.328125 L 944.054688 453.761719 L 944.722656 454.207031 L 945.382813 454.660156 L 946.039063 455.125 L 946.683594 455.601563 L 947.320313 456.085938 L 947.953125 456.582031 L 948.574219 457.089844 L 949.191406 457.605469 L 949.796875 458.128906 L 950.394531 458.664063 L 950.984375 459.210938 L 951.5625 459.761719 Z M 952.136719 460.324219 "/>
<path style="fill:none;stroke-width:2.25;stroke-linecap:round;stroke-linejoin:round;stroke:rgb(0%,0%,0%);stroke-opacity:1;stroke-miterlimit:10;" d="M 879.957031 389.539063 L 879.390625 390.109375 L 878.839844 390.691406 L 878.292969 391.28125 L 877.757813 391.878906 L 877.234375 392.484375 L 876.71875 393.097656 L 876.210938 393.722656 L 875.71875 394.351563 L 875.230469 394.992188 L 874.753906 395.636719 L 874.289063 396.289063 L 873.835938 396.949219 L 873.390625 397.617188 L 872.957031 398.292969 L 872.535156 398.976563 L 872.121094 399.664063 L 871.722656 400.359375 L 871.332031 401.058594 L 870.953125 401.765625 L 870.585938 402.480469 L 870.226563 403.199219 L 869.882813 403.921875 L 869.550781 404.652344 L 869.226563 405.386719 L 868.917969 406.128906 L 868.621094 406.871094 L 868.332031 407.621094 L 868.058594 408.375 L 867.796875 409.132813 L 867.546875 409.894531 L 867.308594 410.664063 L 867.082031 411.433594 L 866.867188 412.207031 L 866.667969 412.980469 L 866.476563 413.761719 L 866.300781 414.542969 L 866.136719 415.328125 L 865.984375 416.117188 L 865.847656 416.90625 L 865.71875 417.699219 L 865.605469 418.492188 L 865.503906 419.289063 L 865.414063 420.085938 L 865.339844 420.886719 L 865.273438 421.683594 L 865.222656 422.484375 L 865.1875 423.285156 L 865.160156 424.089844 L 865.148438 424.890625 L 865.148438 425.691406 L 865.160156 426.496094 L 865.1875 427.296875 L 865.222656 428.097656 L 865.273438 428.898438 L 865.339844 429.699219 L 865.414063 430.496094 L 865.503906 431.292969 L 865.605469 432.089844 L 865.71875 432.882813 L 865.847656 433.675781 L 865.984375 434.464844 L 866.136719 435.253906 L 866.300781 436.039063 L 866.476563 436.820313 L 866.667969 437.601563 L 866.867188 438.378906 L 867.082031 439.152344 L 867.308594 439.921875 L 867.546875 440.6875 L 867.796875 441.449219 L 868.058594 442.207031 L 868.332031 442.960938 L 868.621094 443.710938 L 868.917969 444.457031 L 869.226563 445.195313 L 869.550781 445.929688 L 869.882813 446.660156 L 870.226563 447.382813 L 870.585938 448.101563 L 870.953125 448.816406 L 871.332031 449.523438 L 871.722656 450.226563 L 872.121094 450.917969 L 872.535156 451.609375 L 872.957031 452.289063 L 873.390625 452.964844 L 873.835938 453.632813 L 874.289063 454.292969 L 874.753906 454.945313 L 875.230469 455.59375 L 875.71875 456.230469 L 876.210938 456.863281 L 876.71875 457.484375 L 877.234375 458.097656 L 877.757813 458.707031 L 878.292969 459.304688 L 878.839844 459.890625 L 879.390625 460.472656 L 879.957031 461.042969 L 879.390625 460.472656 L 878.839844 459.890625 L 878.292969 459.304688 L 877.757813 458.707031 L 877.234375 458.097656 L 876.71875 457.484375 L 876.210938 456.863281 L 875.71875 456.230469 L 875.230469 455.59375 L 874.753906 454.945313 L 874.289063 454.292969 L 873.835938 453.632813 L 873.390625 452.964844 L 872.957031 452.289063 L 872.535156 451.609375 L 872.121094 450.917969 L 871.722656 450.226563 L 871.332031 449.523438 L 870.953125 448.816406 L 870.585938 448.101563 L 870.226563 447.382813 L 869.882813 446.660156 L 869.550781 445.929688 L 869.226563 445.195313 L 868.917969 444.457031 L 868.621094 443.710938 L 868.332031 442.960938 L 868.058594 442.207031 L 867.796875 441.449219 L 867.546875 440.6875 L 867.308594 439.921875 L 867.082031 439.152344 L 866.867188 438.378906 L 866.667969 437.601563 L 866.476563 436.820313 L 866.300781 436.039063 L 866.136719 435.253906 L 865.984375 434.464844 L 865.847656 433.675781 L 865.71875 432.882813 L 865.605469 432.089844 L 865.503906 431.292969 L 865.414063 430.496094 L 865.339844 429.699219 L 865.273438 428.898438 L 865.222656 428.097656 L 865.1875 427.296875 L 865.160156 426.496094 L 865.148438 425.691406 L 865.148438 424.890625 L 865.160156 424.089844 L 865.1875 423.285156 L 865.222656 422.484375 L 865.273438 421.683594 L 865.339844 420.886719 L 865.414063 420.085938 L 865.503906 419.289063 L 865.605469 418.492188 L 865.71875 417.699219 L 865.847656 416.90625 L 865.984375 416.117188 L 866.136719 415.328125 L 866.300781 414.542969 L 866.476563 413.761719 L 866.667969 412.980469 L 866.867188 412.207031 L 867.082031 411.433594 L 867.308594 410.664063 L 867.546875 409.894531 L 867.796875 409.132813 L 868.058594 408.375 L 868.332031 407.621094 L 868.621094 406.871094 L 868.917969 406.128906 L 869.226563 405.386719 L 869.550781 404.652344 L 869.882813 403.921875 L 870.226563 403.199219 L 870.585938 402.480469 L 870.953125 401.765625 L 871.332031 401.058594 L 871.722656 400.359375 L 872.121094 399.664063 L 872.535156 398.976563 L 872.957031 398.292969 L 873.390625 397.617188 L 873.835938 396.949219 L 874.289063 396.289063 L 874.753906 395.636719 L 875.230469 394.992188 L 875.71875 394.351563 L 876.210938 393.722656 L 876.71875 393.097656 L 877.234375 392.484375 L 877.757813 391.878906 L 878.292969 391.28125 L 878.839844 390.691406 L 879.390625 390.109375 Z M 879.957031 389.539063 "/>
<path style="fill:none;stroke-width:2.25;stroke-linecap:round;stroke-linejoin:round;stroke:rgb(0%,0%,0%);stroke-opacity:1;stroke-miterlimit:10;" d="M 880.675781 531.832031 L 881.238281 531.261719 L 881.789063 530.679688 L 882.335938 530.089844 L 882.871094 529.492188 L 883.394531 528.886719 L 883.910156 528.273438 L 884.417969 527.648438 L 884.914063 527.019531 L 885.398438 526.378906 L 885.875 525.734375 L 886.339844 525.082031 L 886.792969 524.417969 L 887.238281 523.75 L 887.671875 523.078125 L 888.09375 522.394531 L 888.507813 521.707031 L 888.910156 521.011719 L 889.296875 520.3125 L 889.675781 519.605469 L 890.046875 518.890625 L 890.402344 518.171875 L 890.746094 517.449219 L 891.078125 516.71875 L 891.402344 515.984375 L 891.710938 515.242188 L 892.007813 514.5 L 892.296875 513.75 L 892.570313 512.996094 L 892.832031 512.238281 L 893.082031 511.476563 L 893.320313 510.707031 L 893.546875 509.9375 L 893.761719 509.164063 L 893.960938 508.390625 L 894.152344 507.609375 L 894.328125 506.828125 L 894.492188 506.042969 L 894.644531 505.253906 L 894.785156 504.464844 L 894.910156 503.671875 L 895.023438 502.878906 L 895.125 502.082031 L 895.214844 501.285156 L 895.289063 500.484375 L 895.355469 499.6875 L 895.40625 498.886719 L 895.445313 498.085938 L 895.46875 497.28125 L 895.480469 496.480469 L 895.480469 495.679688 L 895.46875 494.875 L 895.445313 494.074219 L 895.40625 493.273438 L 895.355469 492.472656 L 895.289063 491.671875 L 895.214844 490.875 L 895.125 490.078125 L 895.023438 489.28125 L 894.910156 488.488281 L 894.785156 487.695313 L 894.644531 486.90625 L 894.492188 486.117188 L 894.328125 485.332031 L 894.152344 484.546875 L 893.960938 483.769531 L 893.761719 482.992188 L 893.546875 482.21875 L 893.320313 481.449219 L 893.082031 480.683594 L 892.832031 479.921875 L 892.570313 479.164063 L 892.296875 478.410156 L 892.007813 477.660156 L 891.710938 476.914063 L 891.402344 476.175781 L 891.078125 475.441406 L 890.746094 474.710938 L 890.402344 473.984375 L 890.046875 473.265625 L 889.675781 472.554688 L 889.296875 471.847656 L 888.910156 471.144531 L 888.507813 470.453125 L 888.09375 469.761719 L 887.671875 469.082031 L 887.238281 468.40625 L 886.792969 467.738281 L 886.339844 467.078125 L 885.875 466.425781 L 885.398438 465.777344 L 884.914063 465.140625 L 884.417969 464.507813 L 883.910156 463.886719 L 883.394531 463.273438 L 882.871094 462.664063 L 882.335938 462.066406 L 881.789063 461.476563 L 881.238281 460.898438 L 880.675781 460.324219 L 881.238281 460.898438 L 881.789063 461.476563 L 882.335938 462.066406 L 882.871094 462.664063 L 883.394531 463.273438 L 883.910156 463.886719 L 884.417969 464.507813 L 884.914063 465.140625 L 885.398438 465.777344 L 885.875 466.425781 L 886.339844 467.078125 L 886.792969 467.738281 L 887.238281 468.40625 L 887.671875 469.082031 L 888.09375 469.761719 L 888.507813 470.453125 L 888.910156 471.144531 L 889.296875 471.847656 L 889.675781 472.554688 L 890.046875 473.265625 L 890.402344 473.984375 L 890.746094 474.710938 L 891.078125 475.441406 L 891.402344 476.175781 L 891.710938 476.914063 L 892.007813 477.660156 L 892.296875 478.410156 L 892.570313 479.164063 L 892.832031 479.921875 L 893.082031 480.683594 L 893.320313 481.449219 L 893.546875 482.21875 L 893.761719 482.992188 L 893.960938 483.769531 L 894.152344 484.546875 L 894.328125 485.332031 L 894.492188 486.117188 L 894.644531 486.90625 L 894.785156 487.695313 L 894.910156 488.488281 L 895.023438 489.28125 L 895.125 490.078125 L 895.214844 490.875 L 895.289063 491.671875 L 895.355469 492.472656 L 895.40625 493.273438 L 895.445313 494.074219 L 895.46875 494.875 L 895.480469 495.679688 L 895.480469 496.480469 L 895.46875 497.28125 L 895.445313 498.085938 L 895.40625 498.886719 L 895.355469 499.6875 L 895.289063 500.484375 L 895.214844 501.285156 L 895.125 502.082031 L 895.023438 502.878906 L 894.910156 503.671875 L 894.785156 504.464844 L 894.644531 505.253906 L 894.492188 506.042969 L 894.328125 506.828125 L 894.152344 507.609375 L 893.960938 508.390625 L 893.761719 509.164063 L 893.546875 509.9375 L 893.320313 510.707031 L 893.082031 511.476563 L 892.832031 512.238281 L 892.570313 512.996094 L 892.296875 513.75 L 892.007813 514.5 L 891.710938 515.242188 L 891.402344 515.984375 L 891.078125 516.71875 L 890.746094 517.449219 L 890.402344 518.171875 L 890.046875 518.890625 L 889.675781 519.605469 L 889.296875 520.3125 L 888.910156 521.011719 L 888.507813 521.707031 L 888.09375 522.394531 L 887.671875 523.078125 L 887.238281 523.75 L 886.792969 524.417969 L 886.339844 525.082031 L 885.875 525.734375 L 885.398438 526.378906 L 884.914063 527.019531 L 884.417969 527.648438 L 883.910156 528.273438 L 883.394531 528.886719 L 882.871094 529.492188 L 882.335938 530.089844 L 881.789063 530.679688 L 881.238281 531.261719 Z M 880.675781 531.832031 "/>
<path style="fill:none;stroke-width:2.25;stroke-linecap:round;stroke-linejoin:round;stroke:rgb(0%,0%,0%);stroke-opacity:1;stroke-miterlimit:10;" d="M 880.675781 461.042969 L 881.238281 460.472656 L 881.789063 459.890625 L 882.335938 459.304688 L 882.871094 458.707031 L 883.394531 458.097656 L 883.910156 457.484375 L 884.417969 456.863281 L 884.914063 456.230469 L 885.398438 455.59375 L 885.875 454.945313 L 886.339844 454.292969 L 886.792969 453.632813 L 887.238281 452.964844 L 887.671875 452.289063 L 888.09375 451.609375 L 888.507813 450.917969 L 888.910156 450.226563 L 889.296875 449.523438 L 889.675781 448.816406 L 890.046875 448.101563 L 890.402344 447.382813 L 890.746094 446.660156 L 891.078125 445.929688 L 891.402344 445.195313 L 891.710938 444.457031 L 892.007813 443.710938 L 892.296875 442.960938 L 892.570313 442.207031 L 892.832031 441.449219 L 893.082031 440.6875 L 893.320313 439.921875 L 893.546875 439.152344 L 893.761719 438.378906 L 893.960938 437.601563 L 894.152344 436.820313 L 894.328125 436.039063 L 894.492188 435.253906 L 894.644531 434.464844 L 894.785156 433.675781 L 894.910156 432.882813 L 895.023438 432.089844 L 895.125 431.292969 L 895.214844 430.496094 L 895.289063 429.699219 L 895.355469 428.898438 L 895.40625 428.097656 L 895.445313 427.296875 L 895.46875 426.496094 L 895.480469 425.691406 L 895.480469 424.890625 L 895.46875 424.089844 L 895.445313 423.285156 L 895.40625 422.484375 L 895.355469 421.683594 L 895.289063 420.886719 L 895.214844 420.085938 L 895.125 419.289063 L 895.023438 418.492188 L 894.910156 417.699219 L 894.785156 416.90625 L 894.644531 416.117188 L 894.492188 415.328125 L 894.328125 414.542969 L 894.152344 413.761719 L 893.960938 412.980469 L 893.761719 412.207031 L 893.546875 411.433594 L 893.320313 410.664063 L 893.082031 409.894531 L 892.832031 409.132813 L 892.570313 408.375 L 892.296875 407.621094 L 892.007813 406.871094 L 891.710938 406.128906 L 891.402344 405.386719 L 891.078125 404.652344 L 890.746094 403.921875 L 890.402344 403.199219 L 890.046875 402.480469 L 889.675781 401.765625 L 889.296875 401.058594 L 888.910156 400.359375 L 888.507813 399.664063 L 888.09375 398.976563 L 887.671875 398.292969 L 887.238281 397.617188 L 886.792969 396.949219 L 886.339844 396.289063 L 885.875 395.636719 L 885.398438 394.992188 L 884.914063 394.351563 L 884.417969 393.722656 L 883.910156 393.097656 L 883.394531 392.484375 L 882.871094 391.878906 L 882.335938 391.28125 L 881.789063 390.691406 L 881.238281 390.109375 L 880.675781 389.539063 L 881.238281 390.109375 L 881.789063 390.691406 L 882.335938 391.28125 L 882.871094 391.878906 L 883.394531 392.484375 L 883.910156 393.097656 L 884.417969 393.722656 L 884.914063 394.351563 L 885.398438 394.992188 L 885.875 395.636719 L 886.339844 396.289063 L 886.792969 396.949219 L 887.238281 397.617188 L 887.671875 398.292969 L 888.09375 398.976563 L 888.507813 399.664063 L 888.910156 400.359375 L 889.296875 401.058594 L 889.675781 401.765625 L 890.046875 402.480469 L 890.402344 403.199219 L 890.746094 403.921875 L 891.078125 404.652344 L 891.402344 405.386719 L 891.710938 406.128906 L 892.007813 406.871094 L 892.296875 407.621094 L 892.570313 408.375 L 892.832031 409.132813 L 893.082031 409.894531 L 893.320313 410.664063 L 893.546875 411.433594 L 893.761719 412.207031 L 893.960938 412.980469 L 894.152344 413.761719 L 894.328125 414.542969 L 894.492188 415.328125 L 894.644531 416.117188 L 894.785156 416.90625 L 894.910156 417.699219 L 895.023438 418.492188 L 895.125 419.289063 L 895.214844 420.085938 L 895.289063 420.886719 L 895.355469 421.683594 L 895.40625 422.484375 L 895.445313 423.285156 L 895.46875 424.089844 L 895.480469 424.890625 L 895.480469 425.691406 L 895.46875 426.496094 L 895.445313 427.296875 L 895.40625 428.097656 L 895.355469 428.898438 L 895.289063 429.699219 L 895.214844 430.496094 L 895.125 431.292969 L 895.023438 432.089844 L 894.910156 432.882813 L 894.785156 433.675781 L 894.644531 434.464844 L 894.492188 435.253906 L 894.328125 436.039063 L 894.152344 436.820313 L 893.960938 437.601563 L 893.761719 438.378906 L 893.546875 439.152344 L 893.320313 439.921875 L 893.082031 440.6875 L 892.832031 441.449219 L 892.570313 442.207031 L 892.296875 442.960938 L 892.007813 443.710938 L 891.710938 444.457031 L 891.402344 445.195313 L 891.078125 445.929688 L 890.746094 446.660156 L 890.402344 447.382813 L 890.046875 448.101563 L 889.675781 448.816406 L 889.296875 449.523438 L 888.910156 450.226563 L 888.507813 450.917969 L 888.09375 451.609375 L 887.671875 452.289063 L 887.238281 452.964844 L 886.792969 453.632813 L 886.339844 454.292969 L 885.875 454.945313 L 885.398438 455.59375 L 884.914063 456.230469 L 884.417969 456.863281 L 883.910156 457.484375 L 883.394531 458.097656 L 882.871094 458.707031 L 882.335938 459.304688 L 881.789063 459.890625 L 881.238281 460.472656 Z M 880.675781 461.042969 "/>
<path style="fill:none;stroke-width:2.25;stroke-linecap:round;stroke-linejoin:round;stroke:rgb(0%,0%,0%);stroke-opacity:1;stroke-miterlimit:10;" d="M 880.628906 460.324219 L 880.066406 460.898438 L 879.511719 461.476563 L 878.96875 462.066406 L 878.433594 462.664063 L 877.910156 463.273438 L 877.394531 463.886719 L 876.886719 464.507813 L 876.390625 465.140625 L 875.90625 465.777344 L 875.429688 466.425781 L 874.964844 467.078125 L 874.507813 467.738281 L 874.066406 468.40625 L 873.632813 469.082031 L 873.207031 469.761719 L 872.796875 470.453125 L 872.394531 471.144531 L 872.003906 471.847656 L 871.625 472.554688 L 871.257813 473.265625 L 870.902344 473.984375 L 870.558594 474.710938 L 870.222656 475.441406 L 869.902344 476.175781 L 869.59375 476.914063 L 869.292969 477.660156 L 869.007813 478.410156 L 868.734375 479.164063 L 868.472656 479.921875 L 868.222656 480.683594 L 867.984375 481.449219 L 867.757813 482.21875 L 867.542969 482.992188 L 867.339844 483.769531 L 867.152344 484.546875 L 866.976563 485.332031 L 866.8125 486.117188 L 866.660156 486.90625 L 866.519531 487.695313 L 866.394531 488.488281 L 866.277344 489.28125 L 866.175781 490.078125 L 866.089844 490.875 L 866.011719 491.671875 L 865.949219 492.472656 L 865.898438 493.273438 L 865.859375 494.074219 L 865.835938 494.875 L 865.820313 495.679688 L 865.820313 496.480469 L 865.835938 497.28125 L 865.859375 498.085938 L 865.898438 498.886719 L 865.949219 499.6875 L 866.011719 500.484375 L 866.089844 501.285156 L 866.175781 502.082031 L 866.277344 502.878906 L 866.394531 503.671875 L 866.519531 504.464844 L 866.660156 505.253906 L 866.8125 506.042969 L 866.976563 506.828125 L 867.152344 507.609375 L 867.339844 508.390625 L 867.542969 509.164063 L 867.757813 509.9375 L 867.984375 510.707031 L 868.222656 511.476563 L 868.472656 512.238281 L 868.734375 512.996094 L 869.007813 513.75 L 869.292969 514.5 L 869.59375 515.242188 L 869.902344 515.984375 L 870.222656 516.71875 L 870.558594 517.449219 L 870.902344 518.171875 L 871.257813 518.890625 L 871.625 519.605469 L 872.003906 520.3125 L 872.394531 521.011719 L 872.796875 521.707031 L 873.207031 522.394531 L 873.632813 523.078125 L 874.066406 523.75 L 874.507813 524.417969 L 874.964844 525.082031 L 875.429688 525.734375 L 875.90625 526.378906 L 876.390625 527.019531 L 876.886719 527.648438 L 877.394531 528.273438 L 877.910156 528.886719 L 878.433594 529.492188 L 878.96875 530.089844 L 879.511719 530.679688 L 880.066406 531.261719 L 880.628906 531.832031 L 880.066406 531.261719 L 879.511719 530.679688 L 878.96875 530.089844 L 878.433594 529.492188 L 877.910156 528.886719 L 877.394531 528.273438 L 876.886719 527.648438 L 876.390625 527.019531 L 875.90625 526.378906 L 875.429688 525.734375 L 874.964844 525.082031 L 874.507813 524.417969 L 874.066406 523.75 L 873.632813 523.078125 L 873.207031 522.394531 L 872.796875 521.707031 L 872.394531 521.011719 L 872.003906 520.3125 L 871.625 519.605469 L 871.257813 518.890625 L 870.902344 518.171875 L 870.558594 517.449219 L 870.222656 516.71875 L 869.902344 515.984375 L 869.59375 515.242188 L 869.292969 514.5 L 869.007813 513.75 L 868.734375 512.996094 L 868.472656 512.238281 L 868.222656 511.476563 L 867.984375 510.707031 L 867.757813 509.9375 L 867.542969 509.164063 L 867.339844 508.390625 L 867.152344 507.609375 L 866.976563 506.828125 L 866.8125 506.042969 L 866.660156 505.253906 L 866.519531 504.464844 L 866.394531 503.671875 L 866.277344 502.878906 L 866.175781 502.082031 L 866.089844 501.285156 L 866.011719 500.484375 L 865.949219 499.6875 L 865.898438 498.886719 L 865.859375 498.085938 L 865.835938 497.28125 L 865.820313 496.480469 L 865.820313 495.679688 L 865.835938 494.875 L 865.859375 494.074219 L 865.898438 493.273438 L 865.949219 492.472656 L 866.011719 491.671875 L 866.089844 490.875 L 866.175781 490.078125 L 866.277344 489.28125 L 866.394531 488.488281 L 866.519531 487.695313 L 866.660156 486.90625 L 866.8125 486.117188 L 866.976563 485.332031 L 867.152344 484.546875 L 867.339844 483.769531 L 867.542969 482.992188 L 867.757813 482.21875 L 867.984375 481.449219 L 868.222656 480.683594 L 868.472656 479.921875 L 868.734375 479.164063 L 869.007813 478.410156 L 869.292969 477.660156 L 869.59375 476.914063 L 869.902344 476.175781 L 870.222656 475.441406 L 870.558594 474.710938 L 870.902344 473.984375 L 871.257813 473.265625 L 871.625 472.554688 L 872.003906 471.847656 L 872.394531 471.144531 L 872.796875 470.453125 L 873.207031 469.761719 L 873.632813 469.082031 L 874.066406 468.40625 L 874.507813 467.738281 L 874.964844 467.078125 L 875.429688 466.425781 L 875.90625 465.777344 L 876.390625 465.140625 L 876.886719 464.507813 L 877.394531 463.886719 L 877.910156 463.273438 L 878.433594 462.664063 L 878.96875 462.066406 L 879.511719 461.476563 L 880.066406 460.898438 Z M 880.628906 460.324219 "/>
</g>
</svg>
