<?xml version="1.0" encoding="UTF-8"?>
<svg xmlns="http://www.w3.org/2000/svg" xmlns:xlink="http://www.w3.org/1999/xlink" width="601pt" height="411pt" viewBox="0 0 601 411" version="1.1">
<g id="surface21">
<rect x="0" y="0" width="601" height="411" style="fill:rgb(100%,100%,100%);fill-opacity:1;stroke:none;"/>
<path style="fill-rule:nonzero;fill:rgb(74.509804%,74.509804%,74.509804%);fill-opacity:1;stroke-width:2.25;stroke-linecap:round;stroke-linejoin:round;stroke:rgb(0%,0%,0%);stroke-opacity:1;stroke-miterlimit:10;" d="M 134.578125 187.441406 L 114.351563 152.40625 L 73.898438 152.40625 L 53.667969 187.441406 L 73.898438 222.476563 L 114.351563 222.476563 Z M 134.578125 187.441406 "/>
<path style="fill-rule:nonzero;fill:rgb(100%,100%,100%);fill-opacity:1;stroke-width:2.25;stroke-linecap:round;stroke-linejoin:round;stroke:rgb(0%,0%,0%);stroke-opacity:1;stroke-miterlimit:10;" d="M 246.796875 187.441406 L 226.570313 152.40625 L 186.113281 152.40625 L 165.886719 187.441406 L 186.113281 222.476563 L 226.570313 222.476563 Z M 246.796875 187.441406 "/>
<path style="fill-rule:nonzero;fill:rgb(0%,0%,0%);fill-opacity:1;stroke-width:2.25;stroke-linecap:round;stroke-linejoin:round;stroke:rgb(0%,0%,0%);stroke-opacity:1;stroke-miterlimit:10;" d="M 359.011719 187.441406 L 338.785156 152.40625 L 298.328125 152.40625 L 278.101563 187.441406 L 298.328125 222.476563 L 338.785156 222.476563 Z M 359.011719 187.441406 "/>
<path style="fill-rule:nonzero;fill:rgb(100%,100%,100%);fill-opacity:1;stroke-width:2.25;stroke-linecap:round;stroke-linejoin:round;stroke:rgb(0%,0%,0%);stroke-opacity:1;stroke-miterlimit:10;" d="M 471.230469 187.441406 L 451 152.40625 L 410.546875 152.40625 L 390.320313 187.441406 L 410.546875 222.476563 L 451 222.476563 Z M 471.230469 187.441406 "/>
<path style="fill-rule:nonzero;fill:rgb(74.509804%,74.509804%,74.509804%);fill-opacity:1;stroke-width:2.25;stroke-linecap:round;stroke-linejoin:round;stroke:rgb(0%,0%,0%);stroke-opacity:1;stroke-miterlimit:10;" d="M 471.230469 187.441406 L 451 152.40625 L 410.546875 152.40625 L 390.320313 187.441406 L 410.546875 222.476563 L 451 222.476563 Z M 471.230469 187.441406 "/>
<path style="fill-rule:nonzero;fill:rgb(0%,0%,0%);fill-opacity:1;stroke-width:2.25;stroke-linecap:round;stroke-linejoin:round;stroke:rgb(0%,0%,0%);stroke-opacity:1;stroke-miterlimit:10;" d="M 471.230469 187.441406 L 451 152.40625 L 410.546875 152.40625 L 390.320313 187.441406 L 410.546875 222.476563 L 451 222.476563 Z M 471.230469 187.441406 "/>
<path style="fill-rule:nonzero;fill:rgb(74.509804%,74.509804%,74.509804%);fill-opacity:1;stroke-width:2.25;stroke-linecap:round;stroke-linejoin:round;stroke:rgb(0%,0%,0%);stroke-opacity:1;stroke-miterlimit:10;" d="M 471.230469 187.441406 L 451 152.40625 L 410.546875 152.40625 L 390.320313 187.441406 L 410.546875 222.476563 L 451 222.476563 Z M 471.230469 187.441406 "/>
<path style="fill-rule:nonzero;fill:rgb(0%,0%,0%);fill-opacity:1;stroke-width:2.25;stroke-linecap:round;stroke-linejoin:round;stroke:rgb(0%,0%,0%);stroke-opacity:1;stroke-miterlimit:10;" d="M 471.230469 187.441406 L 451 152.40625 L 410.546875 152.40625 L 390.320313 187.441406 L 410.546875 222.476563 L 451 222.476563 Z M 471.230469 187.441406 "/>
<path style="fill-rule:nonzero;fill:rgb(100%,100%,100%);fill-opacity:1;stroke-width:2.25;stroke-linecap:round;stroke-linejoin:round;stroke:rgb(0%,0%,0%);stroke-opacity:1;stroke-miterlimit:10;" d="M 471.230469 187.441406 L 451 152.40625 L 410.546875 152.40625 L 390.320313 187.441406 L 410.546875 222.476563 L 451 222.476563 Z M 471.230469 187.441406 "/>
<path style="fill-rule:nonzero;fill:rgb(74.509804%,74.509804%,74.509804%);fill-opacity:1;stroke-width:2.25;stroke-linecap:round;stroke-linejoin:round;stroke:rgb(0%,0%,0%);stroke-opacity:1;stroke-miterlimit:10;" d="M 471.230469 187.441406 L 451 152.40625 L 410.546875 152.40625 L 390.320313 187.441406 L 410.546875 222.476563 L 451 222.476563 Z M 471.230469 187.441406 "/>
<path style="fill:none;stroke-width:2.25;stroke-linecap:round;stroke-linejoin:round;stroke:rgb(0%,0%,0%);stroke-opacity:1;stroke-miterlimit:10;" d="M 430.773438 216.046875 L 430.773438 158.835938 Z M 430.773438 216.046875 "/>
<path style="fill:none;stroke-width:2.25;stroke-linecap:round;stroke-linejoin:round;stroke:rgb(0%,0%,0%);stroke-opacity:1;stroke-miterlimit:10;" d="M 402.167969 187.441406 L 459.378906 187.441406 Z M 402.167969 187.441406 "/>
<path style="fill-rule:nonzero;fill:rgb(0%,0%,0%);fill-opacity:1;stroke-width:0.75;stroke-linecap:round;stroke-linejoin:round;stroke:rgb(0%,0%,0%);stroke-opacity:1;stroke-miterlimit:10;" d="M 460.441406 152.382813 L 460.453125 152.71875 L 460.484375 153.058594 L 460.535156 153.390625 L 460.609375 153.722656 L 460.707031 154.046875 L 460.820313 154.367188 L 460.953125 154.679688 L 461.109375 154.980469 L 461.28125 155.273438 L 461.472656 155.550781 L 461.679688 155.820313 L 461.902344 156.074219 L 462.144531 156.3125 L 462.398438 156.539063 L 462.664063 156.746094 L 462.945313 156.9375 L 463.238281 157.109375 L 463.539063 157.261719 L 463.851563 157.398438 L 464.167969 157.511719 L 464.492188 157.605469 L 464.824219 157.679688 L 465.160156 157.734375 L 465.496094 157.765625 L 465.835938 157.773438 L 466.175781 157.765625 L 466.511719 157.734375 L 466.847656 157.679688 L 467.175781 157.605469 L 467.503906 157.511719 L 467.820313 157.398438 L 468.132813 157.261719 L 468.433594 157.109375 L 468.726563 156.9375 L 469.007813 156.746094 L 469.273438 156.539063 L 469.527344 156.3125 L 469.765625 156.074219 L 469.992188 155.820313 L 470.199219 155.550781 L 470.390625 155.273438 L 470.5625 154.980469 L 470.714844 154.679688 L 470.851563 154.367188 L 470.964844 154.046875 L 471.058594 153.722656 L 471.132813 153.390625 L 471.1875 153.058594 L 471.21875 152.71875 L 471.230469 152.382813 L 471.21875 152.042969 L 471.1875 151.707031 L 471.132813 151.371094 L 471.058594 151.039063 L 470.964844 150.714844 L 470.851563 150.394531 L 470.714844 150.085938 L 470.5625 149.78125 L 470.390625 149.492188 L 470.199219 149.210938 L 469.992188 148.941406 L 469.765625 148.6875 L 469.527344 148.449219 L 469.273438 148.226563 L 469.007813 148.015625 L 468.726563 147.828125 L 468.433594 147.65625 L 468.132813 147.5 L 467.820313 147.367188 L 467.503906 147.25 L 467.175781 147.15625 L 466.847656 147.082031 L 466.511719 147.03125 L 466.175781 146.996094 L 465.835938 146.988281 L 465.496094 146.996094 L 465.160156 147.03125 L 464.824219 147.082031 L 464.492188 147.15625 L 464.167969 147.25 L 463.851563 147.367188 L 463.539063 147.5 L 463.238281 147.65625 L 462.945313 147.828125 L 462.664063 148.015625 L 462.398438 148.226563 L 462.144531 148.449219 L 461.902344 148.6875 L 461.679688 148.941406 L 461.472656 149.210938 L 461.28125 149.492188 L 461.109375 149.78125 L 460.953125 150.085938 L 460.820313 150.394531 L 460.707031 150.714844 L 460.609375 151.039063 L 460.535156 151.371094 L 460.484375 151.707031 L 460.453125 152.042969 Z M 460.441406 152.382813 "/>
<path style="fill-rule:nonzero;fill:rgb(0%,0%,0%);fill-opacity:1;stroke-width:0.75;stroke-linecap:round;stroke-linejoin:round;stroke:rgb(0%,0%,0%);stroke-opacity:1;stroke-miterlimit:10;" d="M 390.320313 152.382813 L 390.328125 152.71875 L 390.363281 153.058594 L 390.414063 153.390625 L 390.488281 153.722656 L 390.582031 154.046875 L 390.699219 154.367188 L 390.832031 154.679688 L 390.984375 154.980469 L 391.160156 155.273438 L 391.347656 155.550781 L 391.558594 155.820313 L 391.78125 156.074219 L 392.019531 156.3125 L 392.273438 156.539063 L 392.542969 156.746094 L 392.824219 156.9375 L 393.113281 157.109375 L 393.417969 157.261719 L 393.726563 157.398438 L 394.046875 157.511719 L 394.371094 157.605469 L 394.703125 157.679688 L 395.035156 157.734375 L 395.375 157.765625 L 395.714844 157.773438 L 396.050781 157.765625 L 396.390625 157.734375 L 396.722656 157.679688 L 397.054688 157.605469 L 397.378906 157.511719 L 397.699219 157.398438 L 398.011719 157.261719 L 398.3125 157.109375 L 398.601563 156.9375 L 398.882813 156.746094 L 399.152344 156.539063 L 399.40625 156.3125 L 399.644531 156.074219 L 399.871094 155.820313 L 400.078125 155.550781 L 400.265625 155.273438 L 400.441406 154.980469 L 400.59375 154.679688 L 400.726563 154.367188 L 400.84375 154.046875 L 400.9375 153.722656 L 401.011719 153.390625 L 401.066406 153.058594 L 401.097656 152.71875 L 401.105469 152.382813 L 401.097656 152.042969 L 401.066406 151.707031 L 401.011719 151.371094 L 400.9375 151.039063 L 400.84375 150.714844 L 400.726563 150.394531 L 400.59375 150.085938 L 400.441406 149.78125 L 400.265625 149.492188 L 400.078125 149.210938 L 399.871094 148.941406 L 399.644531 148.6875 L 399.40625 148.449219 L 399.152344 148.226563 L 398.882813 148.015625 L 398.601563 147.828125 L 398.3125 147.65625 L 398.011719 147.5 L 397.699219 147.367188 L 397.378906 147.25 L 397.054688 147.15625 L 396.722656 147.082031 L 396.390625 147.03125 L 396.050781 146.996094 L 395.714844 146.988281 L 395.375 146.996094 L 395.035156 147.03125 L 394.703125 147.082031 L 394.371094 147.15625 L 394.046875 147.25 L 393.726563 147.367188 L 393.417969 147.5 L 393.113281 147.65625 L 392.824219 147.828125 L 392.542969 148.015625 L 392.273438 148.226563 L 392.019531 148.449219 L 391.78125 148.6875 L 391.558594 148.941406 L 391.347656 149.210938 L 391.160156 149.492188 L 390.984375 149.78125 L 390.832031 150.085938 L 390.699219 150.394531 L 390.582031 150.714844 L 390.488281 151.039063 L 390.414063 151.371094 L 390.363281 151.707031 L 390.328125 152.042969 Z M 390.320313 152.382813 "/>
<path style="fill-rule:nonzero;fill:rgb(0%,0%,0%);fill-opacity:1;stroke-width:0.75;stroke-linecap:round;stroke-linejoin:round;stroke:rgb(0%,0%,0%);stroke-opacity:1;stroke-miterlimit:10;" d="M 460.441406 222.503906 L 460.453125 222.84375 L 460.484375 223.179688 L 460.535156 223.515625 L 460.609375 223.84375 L 460.707031 224.171875 L 460.820313 224.488281 L 460.953125 224.800781 L 461.109375 225.101563 L 461.28125 225.394531 L 461.472656 225.675781 L 461.679688 225.941406 L 461.902344 226.195313 L 462.144531 226.4375 L 462.398438 226.660156 L 462.664063 226.867188 L 462.945313 227.058594 L 463.238281 227.230469 L 463.539063 227.382813 L 463.851563 227.519531 L 464.167969 227.632813 L 464.492188 227.726563 L 464.824219 227.800781 L 465.160156 227.855469 L 465.496094 227.886719 L 465.835938 227.898438 L 466.175781 227.886719 L 466.511719 227.855469 L 466.847656 227.800781 L 467.175781 227.726563 L 467.503906 227.632813 L 467.820313 227.519531 L 468.132813 227.382813 L 468.433594 227.230469 L 468.726563 227.058594 L 469.007813 226.867188 L 469.273438 226.660156 L 469.527344 226.4375 L 469.765625 226.195313 L 469.992188 225.941406 L 470.199219 225.675781 L 470.390625 225.394531 L 470.5625 225.101563 L 470.714844 224.800781 L 470.851563 224.488281 L 470.964844 224.171875 L 471.058594 223.84375 L 471.132813 223.515625 L 471.1875 223.179688 L 471.21875 222.84375 L 471.230469 222.503906 L 471.21875 222.164063 L 471.1875 221.828125 L 471.132813 221.492188 L 471.058594 221.160156 L 470.964844 220.835938 L 470.851563 220.519531 L 470.714844 220.207031 L 470.5625 219.90625 L 470.390625 219.613281 L 470.199219 219.332031 L 469.992188 219.066406 L 469.765625 218.8125 L 469.527344 218.570313 L 469.273438 218.347656 L 469.007813 218.140625 L 468.726563 217.949219 L 468.433594 217.777344 L 468.132813 217.621094 L 467.820313 217.488281 L 467.503906 217.375 L 467.175781 217.277344 L 466.847656 217.203125 L 466.511719 217.152344 L 466.175781 217.121094 L 465.835938 217.109375 L 465.496094 217.121094 L 465.160156 217.152344 L 464.824219 217.203125 L 464.492188 217.277344 L 464.167969 217.375 L 463.851563 217.488281 L 463.539063 217.621094 L 463.238281 217.777344 L 462.945313 217.949219 L 462.664063 218.140625 L 462.398438 218.347656 L 462.144531 218.570313 L 461.902344 218.8125 L 461.679688 219.066406 L 461.472656 219.332031 L 461.28125 219.613281 L 461.109375 219.90625 L 460.953125 220.207031 L 460.820313 220.519531 L 460.707031 220.835938 L 460.609375 221.160156 L 460.535156 221.492188 L 460.484375 221.828125 L 460.453125 222.164063 Z M 460.441406 222.503906 "/>
<path style="fill-rule:nonzero;fill:rgb(0%,0%,0%);fill-opacity:1;stroke-width:0.75;stroke-linecap:round;stroke-linejoin:round;stroke:rgb(0%,0%,0%);stroke-opacity:1;stroke-miterlimit:10;" d="M 390.320313 222.503906 L 390.328125 222.84375 L 390.363281 223.179688 L 390.414063 223.515625 L 390.488281 223.84375 L 390.582031 224.171875 L 390.699219 224.488281 L 390.832031 224.800781 L 390.984375 225.101563 L 391.160156 225.394531 L 391.347656 225.675781 L 391.558594 225.941406 L 391.78125 226.195313 L 392.019531 226.4375 L 392.273438 226.660156 L 392.542969 226.867188 L 392.824219 227.058594 L 393.113281 227.230469 L 393.417969 227.382813 L 393.726563 227.519531 L 394.046875 227.632813 L 394.371094 227.726563 L 394.703125 227.800781 L 395.035156 227.855469 L 395.375 227.886719 L 395.714844 227.898438 L 396.050781 227.886719 L 396.390625 227.855469 L 396.722656 227.800781 L 397.054688 227.726563 L 397.378906 227.632813 L 397.699219 227.519531 L 398.011719 227.382813 L 398.3125 227.230469 L 398.601563 227.058594 L 398.882813 226.867188 L 399.152344 226.660156 L 399.40625 226.4375 L 399.644531 226.195313 L 399.871094 225.941406 L 400.078125 225.675781 L 400.265625 225.394531 L 400.441406 225.101563 L 400.59375 224.800781 L 400.726563 224.488281 L 400.84375 224.171875 L 400.9375 223.84375 L 401.011719 223.515625 L 401.066406 223.179688 L 401.097656 222.84375 L 401.105469 222.503906 L 401.097656 222.164063 L 401.066406 221.828125 L 401.011719 221.492188 L 400.9375 221.160156 L 400.84375 220.835938 L 400.726563 220.519531 L 400.59375 220.207031 L 400.441406 219.90625 L 400.265625 219.613281 L 400.078125 219.332031 L 399.871094 219.066406 L 399.644531 218.8125 L 399.40625 218.570313 L 399.152344 218.347656 L 398.882813 218.140625 L 398.601563 217.949219 L 398.3125 217.777344 L 398.011719 217.621094 L 397.699219 217.488281 L 397.378906 217.375 L 397.054688 217.277344 L 396.722656 217.203125 L 396.390625 217.152344 L 396.050781 217.121094 L 395.714844 217.109375 L 395.375 217.121094 L 395.035156 217.152344 L 394.703125 217.203125 L 394.371094 217.277344 L 394.046875 217.375 L 393.726563 217.488281 L 393.417969 217.621094 L 393.113281 217.777344 L 392.824219 217.949219 L 392.542969 218.140625 L 392.273438 218.347656 L 392.019531 218.570313 L 391.78125 218.8125 L 391.558594 219.066406 L 391.347656 219.332031 L 391.160156 219.613281 L 390.984375 219.90625 L 390.832031 220.207031 L 390.699219 220.519531 L 390.582031 220.835938 L 390.488281 221.160156 L 390.414063 221.492188 L 390.363281 221.828125 L 390.328125 222.164063 Z M 390.320313 222.503906 "/>
<path style="fill:none;stroke-width:2.25;stroke-linecap:round;stroke-linejoin:round;stroke:rgb(0%,0%,0%);stroke-opacity:1;stroke-miterlimit:10;" d="M 410.546875 167.214844 L 451 207.671875 Z M 410.546875 167.214844 "/>
<path style="fill:none;stroke-width:2.25;stroke-linecap:round;stroke-linejoin:round;stroke:rgb(0%,0%,0%);stroke-opacity:1;stroke-miterlimit:10;" d="M 410.546875 207.671875 L 451 167.214844 Z M 410.546875 207.671875 "/>
<path style="fill-rule:nonzero;fill:rgb(0%,0%,0%);fill-opacity:1;stroke-width:2.25;stroke-linecap:round;stroke-linejoin:round;stroke:rgb(0%,0%,0%);stroke-opacity:1;stroke-miterlimit:10;" d="M 542.992188 146.988281 L 507.957031 167.214844 L 507.957031 207.671875 L 542.992188 227.898438 L 578.027344 207.671875 L 578.027344 167.214844 Z M 542.992188 146.988281 "/>
</g>
</svg>
