<?xml version="1.0" encoding="UTF-8"?>
<svg xmlns="http://www.w3.org/2000/svg" xmlns:xlink="http://www.w3.org/1999/xlink" width="900pt" height="602pt" viewBox="0 0 900 602" version="1.1">
<g id="surface1">
<rect x="0" y="0" width="900" height="602" style="fill:rgb(100%,100%,100%);fill-opacity:1;stroke:none;"/>
<path style="fill-rule:nonzero;fill:rgb(100%,100%,100%);fill-opacity:1;stroke-width:2.25;stroke-linecap:round;stroke-linejoin:round;stroke:rgb(0%,0%,0%);stroke-opacity:1;stroke-miterlimit:10;" d="M 254.433594 95.582031 L 217.898438 32.300781 L 144.828125 32.300781 L 108.292969 95.582031 L 144.828125 158.863281 L 217.898438 158.863281 Z M 254.433594 95.582031 "/>
<path style="fill-rule:nonzero;fill:rgb(74.509804%,74.509804%,74.509804%);fill-opacity:1;stroke-width:2.25;stroke-linecap:round;stroke-linejoin:round;stroke:rgb(0%,0%,0%);stroke-opacity:1;stroke-miterlimit:10;" d="M 541.128906 95.582031 L 504.59375 32.300781 L 431.523438 32.300781 L 394.988281 95.582031 L 431.523438 158.863281 L 504.59375 158.863281 Z M 541.128906 95.582031 "/>
<path style="fill-rule:nonzero;fill:rgb(0%,0%,0%);fill-opacity:1;stroke-width:2.25;stroke-linecap:round;stroke-linejoin:round;stroke:rgb(0%,0%,0%);stroke-opacity:1;stroke-miterlimit:10;" d="M 827.820313 95.582031 L 791.285156 32.300781 L 718.21875 32.300781 L 681.683594 95.582031 L 718.21875 158.863281 L 791.285156 158.863281 Z M 827.820313 95.582031 "/>
<path style="fill-rule:nonzero;fill:rgb(100%,100%,100%);fill-opacity:1;stroke-width:2.25;stroke-linecap:round;stroke-linejoin:round;stroke:rgb(0%,0%,0%);stroke-opacity:1;stroke-miterlimit:10;" d="M 254.433594 282.941406 L 217.898438 219.660156 L 144.828125 219.660156 L 108.292969 282.941406 L 144.828125 346.222656 L 217.898438 346.222656 Z M 254.433594 282.941406 "/>
<path style="fill-rule:nonzero;fill:rgb(74.509804%,74.509804%,74.509804%);fill-opacity:1;stroke-width:2.25;stroke-linecap:round;stroke-linejoin:round;stroke:rgb(0%,0%,0%);stroke-opacity:1;stroke-miterlimit:10;" d="M 541.128906 282.941406 L 504.59375 219.660156 L 431.523438 219.660156 L 394.988281 282.941406 L 431.523438 346.222656 L 504.59375 346.222656 Z M 541.128906 282.941406 "/>
<path style="fill-rule:nonzero;fill:rgb(0%,0%,0%);fill-opacity:1;stroke-width:2.25;stroke-linecap:round;stroke-linejoin:round;stroke:rgb(0%,0%,0%);stroke-opacity:1;stroke-miterlimit:10;" d="M 827.820313 282.941406 L 791.285156 219.660156 L 718.21875 219.660156 L 681.683594 282.941406 L 718.21875 346.222656 L 791.285156 346.222656 Z M 827.820313 282.941406 "/>
<path style="fill-rule:nonzero;fill:rgb(100%,100%,100%);fill-opacity:1;stroke-width:2.25;stroke-linecap:round;stroke-linejoin:round;stroke:rgb(0%,0%,0%);stroke-opacity:1;stroke-miterlimit:10;" d="M 254.433594 470.304688 L 217.898438 407.023438 L 144.828125 407.023438 L 108.292969 470.304688 L 144.828125 533.582031 L 217.898438 533.582031 Z M 254.433594 470.304688 "/>
<path style="fill-rule:nonzero;fill:rgb(74.509804%,74.509804%,74.509804%);fill-opacity:1;stroke-width:2.25;stroke-linecap:round;stroke-linejoin:round;stroke:rgb(0%,0%,0%);stroke-opacity:1;stroke-miterlimit:10;" d="M 541.128906 470.304688 L 504.59375 407.023438 L 431.523438 407.023438 L 394.988281 470.304688 L 431.523438 533.582031 L 504.59375 533.582031 Z M 541.128906 470.304688 "/>
</g>
</svg>
