<?xml version="1.0" encoding="UTF-8"?>
<svg xmlns="http://www.w3.org/2000/svg" xmlns:xlink="http://www.w3.org/1999/xlink" width="1008pt" height="612pt" viewBox="0 0 1008 612" version="1.1">
<g id="surface86">
<rect x="0" y="0" width="1008" height="612" style="fill:rgb(100%,100%,100%);fill-opacity:1;stroke:none;"/>
<path style="fill:none;stroke-width:2.25;stroke-linecap:round;stroke-linejoin:round;stroke:rgb(0%,0%,0%);stroke-opacity:1;stroke-miterlimit:10;" d="M 257.910156 38.703125 L 256.972656 37.78125 L 256.023438 36.875 L 255.058594 35.984375 L 254.078125 35.105469 L 253.085938 34.246094 L 252.078125 33.402344 L 251.058594 32.574219 L 250.027344 31.761719 L 248.980469 30.964844 L 247.921875 30.1875 L 246.851563 29.425781 L 245.769531 28.679688 L 244.675781 27.953125 L 243.574219 27.242188 L 242.457031 26.550781 L 241.328125 25.875 L 240.191406 25.21875 L 239.042969 24.578125 L 237.886719 23.960938 L 236.71875 23.355469 L 235.539063 22.773438 L 234.355469 22.210938 L 233.160156 21.664063 L 231.957031 21.136719 L 230.746094 20.628906 L 229.523438 20.140625 L 228.296875 19.671875 L 227.0625 19.222656 L 225.820313 18.792969 L 224.574219 18.382813 L 223.320313 17.992188 L 222.058594 17.621094 L 220.792969 17.273438 L 219.519531 16.941406 L 218.246094 16.632813 L 216.960938 16.34375 L 215.675781 16.074219 L 214.386719 15.828125 L 213.09375 15.597656 L 211.796875 15.390625 L 210.496094 15.203125 L 209.191406 15.039063 L 207.886719 14.890625 L 206.578125 14.765625 L 205.269531 14.664063 L 203.957031 14.578125 L 202.648438 14.515625 L 201.332031 14.476563 L 200.019531 14.453125 L 198.707031 14.453125 L 197.394531 14.476563 L 196.078125 14.515625 L 194.769531 14.578125 L 193.457031 14.664063 L 192.148438 14.765625 L 190.839844 14.890625 L 189.535156 15.039063 L 188.230469 15.203125 L 186.929688 15.390625 L 185.632813 15.597656 L 184.339844 15.828125 L 183.050781 16.074219 L 181.761719 16.34375 L 180.480469 16.632813 L 179.207031 16.941406 L 177.933594 17.273438 L 176.667969 17.621094 L 175.40625 17.992188 L 174.152344 18.382813 L 172.90625 18.792969 L 171.664063 19.222656 L 170.429688 19.671875 L 169.203125 20.140625 L 167.980469 20.628906 L 166.769531 21.136719 L 165.566406 21.664063 L 164.371094 22.210938 L 163.1875 22.773438 L 162.007813 23.355469 L 160.839844 23.960938 L 159.683594 24.578125 L 158.535156 25.21875 L 157.398438 25.875 L 156.269531 26.550781 L 155.152344 27.242188 L 154.050781 27.953125 L 152.957031 28.679688 L 151.875 29.425781 L 150.804688 30.1875 L 149.746094 30.964844 L 148.699219 31.761719 L 147.667969 32.574219 L 146.648438 33.402344 L 145.640625 34.246094 L 144.648438 35.105469 L 143.667969 35.984375 L 142.703125 36.875 L 141.753906 37.78125 L 140.816406 38.703125 L 199.363281 97.246094 Z M 257.910156 38.703125 "/>
<path style="fill:none;stroke-width:2.25;stroke-linecap:round;stroke-linejoin:round;stroke:rgb(0%,0%,0%);stroke-opacity:1;stroke-miterlimit:10;" d="M 140.816406 38.703125 L 139.894531 39.636719 L 138.988281 40.589844 L 138.097656 41.554688 L 137.222656 42.535156 L 136.363281 43.527344 L 135.515625 44.53125 L 134.6875 45.550781 L 133.875 46.585938 L 133.082031 47.628906 L 132.300781 48.6875 L 131.539063 49.757813 L 130.796875 50.839844 L 130.066406 51.933594 L 129.359375 53.039063 L 128.664063 54.15625 L 127.988281 55.28125 L 127.332031 56.421875 L 126.695313 57.566406 L 126.074219 58.726563 L 125.472656 59.894531 L 124.890625 61.070313 L 124.324219 62.257813 L 123.777344 63.453125 L 123.25 64.65625 L 122.746094 65.867188 L 122.257813 67.085938 L 121.789063 68.3125 L 121.339844 69.546875 L 120.910156 70.789063 L 120.5 72.039063 L 120.109375 73.292969 L 119.738281 74.550781 L 119.386719 75.820313 L 119.058594 77.089844 L 118.75 78.367188 L 118.460938 79.648438 L 118.191406 80.933594 L 117.941406 82.222656 L 117.714844 83.519531 L 117.503906 84.816406 L 117.320313 86.117188 L 117.152344 87.417969 L 117.007813 88.722656 L 116.882813 90.03125 L 116.777344 91.339844 L 116.695313 92.652344 L 116.632813 93.964844 L 116.589844 95.277344 L 116.570313 96.589844 L 116.570313 97.90625 L 116.589844 99.21875 L 116.632813 100.53125 L 116.695313 101.84375 L 116.777344 103.15625 L 116.882813 104.464844 L 117.007813 105.773438 L 117.152344 107.078125 L 117.320313 108.378906 L 117.503906 109.679688 L 117.714844 110.976563 L 117.941406 112.273438 L 118.191406 113.5625 L 118.460938 114.847656 L 118.75 116.128906 L 119.058594 117.40625 L 119.386719 118.675781 L 119.738281 119.945313 L 120.109375 121.203125 L 120.5 122.457031 L 120.910156 123.707031 L 121.339844 124.949219 L 121.789063 126.183594 L 122.257813 127.410156 L 122.746094 128.628906 L 123.25 129.839844 L 123.777344 131.042969 L 124.324219 132.238281 L 124.890625 133.425781 L 125.472656 134.601563 L 126.074219 135.769531 L 126.695313 136.929688 L 127.332031 138.074219 L 127.988281 139.214844 L 128.664063 140.339844 L 129.359375 141.457031 L 130.066406 142.5625 L 130.796875 143.65625 L 131.539063 144.738281 L 132.300781 145.808594 L 133.082031 146.867188 L 133.875 147.910156 L 134.6875 148.945313 L 135.515625 149.964844 L 136.363281 150.96875 L 137.222656 151.960938 L 138.097656 152.941406 L 138.988281 153.90625 L 139.894531 154.859375 L 140.816406 155.792969 L 199.363281 97.246094 Z M 140.816406 38.703125 "/>
<path style="fill:none;stroke-width:2.25;stroke-linecap:round;stroke-linejoin:round;stroke:rgb(0%,0%,0%);stroke-opacity:1;stroke-miterlimit:10;" d="M 140.816406 155.792969 L 141.753906 156.714844 L 142.703125 157.621094 L 143.667969 158.511719 L 144.648438 159.390625 L 145.640625 160.25 L 146.648438 161.09375 L 147.667969 161.921875 L 148.699219 162.734375 L 149.746094 163.53125 L 150.804688 164.308594 L 151.875 165.070313 L 152.957031 165.816406 L 154.050781 166.542969 L 155.152344 167.253906 L 156.269531 167.945313 L 157.398438 168.621094 L 158.535156 169.277344 L 159.683594 169.917969 L 160.839844 170.535156 L 162.007813 171.140625 L 163.1875 171.722656 L 164.371094 172.285156 L 165.566406 172.832031 L 166.769531 173.359375 L 167.980469 173.867188 L 169.203125 174.355469 L 170.429688 174.824219 L 171.664063 175.273438 L 172.90625 175.703125 L 174.152344 176.113281 L 175.40625 176.503906 L 176.667969 176.871094 L 177.933594 177.222656 L 179.207031 177.554688 L 180.480469 177.863281 L 181.761719 178.152344 L 183.050781 178.421875 L 184.339844 178.667969 L 185.632813 178.898438 L 186.929688 179.105469 L 188.230469 179.292969 L 189.535156 179.457031 L 190.839844 179.605469 L 192.148438 179.730469 L 193.457031 179.832031 L 194.769531 179.917969 L 196.078125 179.980469 L 197.394531 180.019531 L 198.707031 180.042969 L 200.019531 180.042969 L 201.332031 180.019531 L 202.648438 179.980469 L 203.957031 179.917969 L 205.269531 179.832031 L 206.578125 179.730469 L 207.886719 179.605469 L 209.191406 179.457031 L 210.496094 179.292969 L 211.796875 179.105469 L 213.09375 178.898438 L 214.386719 178.667969 L 215.675781 178.421875 L 216.960938 178.152344 L 218.246094 177.863281 L 219.519531 177.554688 L 220.792969 177.222656 L 222.058594 176.871094 L 223.320313 176.503906 L 224.574219 176.113281 L 225.820313 175.703125 L 227.0625 175.273438 L 228.296875 174.824219 L 229.523438 174.355469 L 230.746094 173.867188 L 231.957031 173.359375 L 233.160156 172.832031 L 234.355469 172.285156 L 235.539063 171.722656 L 236.71875 171.140625 L 237.886719 170.535156 L 239.042969 169.917969 L 240.191406 169.277344 L 241.328125 168.621094 L 242.457031 167.945313 L 243.574219 167.253906 L 244.675781 166.542969 L 245.769531 165.816406 L 246.851563 165.070313 L 247.921875 164.308594 L 248.980469 163.53125 L 250.027344 162.734375 L 251.058594 161.921875 L 252.078125 161.09375 L 253.085938 160.25 L 254.078125 159.390625 L 255.058594 158.511719 L 256.023438 157.621094 L 256.972656 156.714844 L 257.910156 155.792969 L 199.363281 97.246094 Z M 140.816406 155.792969 "/>
<path style="fill:none;stroke-width:2.25;stroke-linecap:round;stroke-linejoin:round;stroke:rgb(0%,0%,0%);stroke-opacity:1;stroke-miterlimit:10;" d="M 257.910156 155.792969 L 258.832031 154.859375 L 259.738281 153.90625 L 260.628906 152.941406 L 261.503906 151.960938 L 262.363281 150.96875 L 263.210938 149.964844 L 264.039063 148.945313 L 264.847656 147.910156 L 265.644531 146.867188 L 266.425781 145.808594 L 267.1875 144.738281 L 267.929688 143.65625 L 268.660156 142.5625 L 269.367188 141.457031 L 270.0625 140.339844 L 270.734375 139.214844 L 271.394531 138.074219 L 272.03125 136.929688 L 272.652344 135.769531 L 273.253906 134.601563 L 273.835938 133.425781 L 274.402344 132.238281 L 274.949219 131.042969 L 275.472656 129.839844 L 275.980469 128.628906 L 276.46875 127.410156 L 276.9375 126.183594 L 277.386719 124.949219 L 277.816406 123.707031 L 278.226563 122.457031 L 278.617188 121.203125 L 278.988281 119.945313 L 279.339844 118.675781 L 279.667969 117.40625 L 279.976563 116.128906 L 280.265625 114.847656 L 280.535156 113.5625 L 280.785156 112.273438 L 281.011719 110.976563 L 281.21875 109.679688 L 281.40625 108.378906 L 281.574219 107.078125 L 281.71875 105.773438 L 281.84375 104.464844 L 281.949219 103.15625 L 282.03125 101.84375 L 282.09375 100.53125 L 282.136719 99.21875 L 282.15625 97.90625 L 282.15625 96.589844 L 282.136719 95.277344 L 282.09375 93.964844 L 282.03125 92.652344 L 281.949219 91.339844 L 281.84375 90.03125 L 281.71875 88.722656 L 281.574219 87.417969 L 281.40625 86.117188 L 281.21875 84.816406 L 281.011719 83.519531 L 280.785156 82.222656 L 280.535156 80.933594 L 280.265625 79.648438 L 279.976563 78.367188 L 279.667969 77.089844 L 279.339844 75.820313 L 278.988281 74.550781 L 278.617188 73.292969 L 278.226563 72.039063 L 277.816406 70.789063 L 277.386719 69.546875 L 276.9375 68.3125 L 276.46875 67.085938 L 275.980469 65.867188 L 275.472656 64.65625 L 274.949219 63.453125 L 274.402344 62.257813 L 273.835938 61.070313 L 273.253906 59.894531 L 272.652344 58.726563 L 272.03125 57.566406 L 271.394531 56.421875 L 270.734375 55.28125 L 270.0625 54.15625 L 269.367188 53.039063 L 268.660156 51.933594 L 267.929688 50.839844 L 267.1875 49.757813 L 266.425781 48.6875 L 265.644531 47.628906 L 264.847656 46.585938 L 264.039063 45.550781 L 263.210938 44.53125 L 262.363281 43.527344 L 261.503906 42.535156 L 260.628906 41.554688 L 259.738281 40.589844 L 258.832031 39.636719 L 257.910156 38.703125 L 199.363281 97.246094 Z M 257.910156 155.792969 "/>
<path style="fill:none;stroke-width:2.25;stroke-linecap:round;stroke-linejoin:round;stroke:rgb(0%,0%,0%);stroke-opacity:1;stroke-miterlimit:10;" d="M 580.601563 38.703125 L 579.667969 37.78125 L 578.714844 36.875 L 577.75 35.984375 L 576.773438 35.105469 L 575.78125 34.246094 L 574.773438 33.402344 L 573.753906 32.574219 L 572.722656 31.761719 L 571.675781 30.964844 L 570.617188 30.1875 L 569.546875 29.425781 L 568.464844 28.679688 L 567.371094 27.953125 L 566.265625 27.242188 L 565.152344 26.550781 L 564.023438 25.875 L 562.886719 25.21875 L 561.738281 24.578125 L 560.578125 23.960938 L 559.410156 23.355469 L 558.234375 22.773438 L 557.046875 22.210938 L 555.855469 21.664063 L 554.648438 21.136719 L 553.4375 20.628906 L 552.21875 20.140625 L 550.992188 19.671875 L 549.757813 19.222656 L 548.515625 18.792969 L 547.269531 18.382813 L 546.011719 17.992188 L 544.753906 17.621094 L 543.488281 17.273438 L 542.214844 16.941406 L 540.9375 16.632813 L 539.65625 16.34375 L 538.371094 16.074219 L 537.082031 15.828125 L 535.789063 15.597656 L 534.492188 15.390625 L 533.191406 15.203125 L 531.886719 15.039063 L 530.582031 14.890625 L 529.273438 14.765625 L 527.964844 14.664063 L 526.652344 14.578125 L 525.339844 14.515625 L 524.027344 14.476563 L 522.714844 14.453125 L 521.402344 14.453125 L 520.085938 14.476563 L 518.773438 14.515625 L 517.460938 14.578125 L 516.152344 14.664063 L 514.839844 14.765625 L 513.535156 14.890625 L 512.226563 15.039063 L 510.925781 15.203125 L 509.625 15.390625 L 508.328125 15.597656 L 507.035156 15.828125 L 505.742188 16.074219 L 504.457031 16.34375 L 503.175781 16.632813 L 501.898438 16.941406 L 500.628906 17.273438 L 499.363281 17.621094 L 498.101563 17.992188 L 496.847656 18.382813 L 495.597656 18.792969 L 494.359375 19.222656 L 493.125 19.671875 L 491.894531 20.140625 L 490.675781 20.628906 L 489.464844 21.136719 L 488.261719 21.664063 L 487.066406 22.210938 L 485.878906 22.773438 L 484.703125 23.355469 L 483.535156 23.960938 L 482.378906 24.578125 L 481.230469 25.21875 L 480.09375 25.875 L 478.964844 26.550781 L 477.847656 27.242188 L 476.742188 27.953125 L 475.648438 28.679688 L 474.566406 29.425781 L 473.496094 30.1875 L 472.441406 30.964844 L 471.394531 31.761719 L 470.363281 32.574219 L 469.34375 33.402344 L 468.335938 34.246094 L 467.34375 35.105469 L 466.363281 35.984375 L 465.398438 36.875 L 464.449219 37.78125 L 463.511719 38.703125 L 522.058594 97.246094 Z M 580.601563 38.703125 "/>
<path style="fill:none;stroke-width:2.25;stroke-linecap:round;stroke-linejoin:round;stroke:rgb(0%,0%,0%);stroke-opacity:1;stroke-miterlimit:10;" d="M 463.511719 38.703125 L 462.589844 39.636719 L 461.683594 40.589844 L 460.792969 41.554688 L 459.917969 42.535156 L 459.054688 43.527344 L 458.210938 44.53125 L 457.382813 45.550781 L 456.570313 46.585938 L 455.777344 47.628906 L 454.996094 48.6875 L 454.234375 49.757813 L 453.488281 50.839844 L 452.761719 51.933594 L 452.050781 53.039063 L 451.359375 54.15625 L 450.683594 55.28125 L 450.027344 56.421875 L 449.390625 57.566406 L 448.769531 58.726563 L 448.167969 59.894531 L 447.582031 61.070313 L 447.019531 62.257813 L 446.472656 63.453125 L 445.945313 64.65625 L 445.4375 65.867188 L 444.949219 67.085938 L 444.480469 68.3125 L 444.03125 69.546875 L 443.601563 70.789063 L 443.191406 72.039063 L 442.800781 73.292969 L 442.433594 74.550781 L 442.082031 75.820313 L 441.753906 77.089844 L 441.441406 78.367188 L 441.152344 79.648438 L 440.882813 80.933594 L 440.636719 82.222656 L 440.40625 83.519531 L 440.199219 84.816406 L 440.011719 86.117188 L 439.847656 87.417969 L 439.703125 88.722656 L 439.578125 90.03125 L 439.472656 91.339844 L 439.390625 92.652344 L 439.328125 93.964844 L 439.285156 95.277344 L 439.265625 96.589844 L 439.265625 97.90625 L 439.285156 99.21875 L 439.328125 100.53125 L 439.390625 101.84375 L 439.472656 103.15625 L 439.578125 104.464844 L 439.703125 105.773438 L 439.847656 107.078125 L 440.011719 108.378906 L 440.199219 109.679688 L 440.40625 110.976563 L 440.636719 112.273438 L 440.882813 113.5625 L 441.152344 114.847656 L 441.441406 116.128906 L 441.753906 117.40625 L 442.082031 118.675781 L 442.433594 119.945313 L 442.800781 121.203125 L 443.191406 122.457031 L 443.601563 123.707031 L 444.03125 124.949219 L 444.480469 126.183594 L 444.949219 127.410156 L 445.4375 128.628906 L 445.945313 129.839844 L 446.472656 131.042969 L 447.019531 132.238281 L 447.582031 133.425781 L 448.167969 134.601563 L 448.769531 135.769531 L 449.390625 136.929688 L 450.027344 138.074219 L 450.683594 139.214844 L 451.359375 140.339844 L 452.050781 141.457031 L 452.761719 142.5625 L 453.488281 143.65625 L 454.234375 144.738281 L 454.996094 145.808594 L 455.777344 146.867188 L 456.570313 147.910156 L 457.382813 148.945313 L 458.210938 149.964844 L 459.054688 150.96875 L 459.917969 151.960938 L 460.792969 152.941406 L 461.683594 153.90625 L 462.589844 154.859375 L 463.511719 155.792969 L 522.058594 97.246094 Z M 463.511719 38.703125 "/>
<path style="fill:none;stroke-width:2.25;stroke-linecap:round;stroke-linejoin:round;stroke:rgb(0%,0%,0%);stroke-opacity:1;stroke-miterlimit:10;" d="M 463.511719 155.792969 L 464.449219 156.714844 L 465.398438 157.621094 L 466.363281 158.511719 L 467.34375 159.390625 L 468.335938 160.25 L 469.34375 161.09375 L 470.363281 161.921875 L 471.394531 162.734375 L 472.441406 163.53125 L 473.496094 164.308594 L 474.566406 165.070313 L 475.648438 165.816406 L 476.742188 166.542969 L 477.847656 167.253906 L 478.964844 167.945313 L 480.09375 168.621094 L 481.230469 169.277344 L 482.378906 169.917969 L 483.535156 170.535156 L 484.703125 171.140625 L 485.878906 171.722656 L 487.066406 172.285156 L 488.261719 172.832031 L 489.464844 173.359375 L 490.675781 173.867188 L 491.894531 174.355469 L 493.125 174.824219 L 494.359375 175.273438 L 495.597656 175.703125 L 496.847656 176.113281 L 498.101563 176.503906 L 499.363281 176.871094 L 500.628906 177.222656 L 501.898438 177.554688 L 503.175781 177.863281 L 504.457031 178.152344 L 505.742188 178.421875 L 507.035156 178.667969 L 508.328125 178.898438 L 509.625 179.105469 L 510.925781 179.292969 L 512.226563 179.457031 L 513.535156 179.605469 L 514.839844 179.730469 L 516.152344 179.832031 L 517.460938 179.917969 L 518.773438 179.980469 L 520.085938 180.019531 L 521.402344 180.042969 L 522.714844 180.042969 L 524.027344 180.019531 L 525.339844 179.980469 L 526.652344 179.917969 L 527.964844 179.832031 L 529.273438 179.730469 L 530.582031 179.605469 L 531.886719 179.457031 L 533.191406 179.292969 L 534.492188 179.105469 L 535.789063 178.898438 L 537.082031 178.667969 L 538.371094 178.421875 L 539.65625 178.152344 L 540.9375 177.863281 L 542.214844 177.554688 L 543.488281 177.222656 L 544.753906 176.871094 L 546.011719 176.503906 L 547.269531 176.113281 L 548.515625 175.703125 L 549.757813 175.273438 L 550.992188 174.824219 L 552.21875 174.355469 L 553.4375 173.867188 L 554.648438 173.359375 L 555.855469 172.832031 L 557.046875 172.285156 L 558.234375 171.722656 L 559.410156 171.140625 L 560.578125 170.535156 L 561.738281 169.917969 L 562.886719 169.277344 L 564.023438 168.621094 L 565.152344 167.945313 L 566.265625 167.253906 L 567.371094 166.542969 L 568.464844 165.816406 L 569.546875 165.070313 L 570.617188 164.308594 L 571.675781 163.53125 L 572.722656 162.734375 L 573.753906 161.921875 L 574.773438 161.09375 L 575.78125 160.25 L 576.773438 159.390625 L 577.75 158.511719 L 578.714844 157.621094 L 579.667969 156.714844 L 580.601563 155.792969 L 522.058594 97.246094 Z M 463.511719 155.792969 "/>
<path style="fill:none;stroke-width:2.25;stroke-linecap:round;stroke-linejoin:round;stroke:rgb(0%,0%,0%);stroke-opacity:1;stroke-miterlimit:10;" d="M 580.601563 155.792969 L 581.523438 154.859375 L 582.429688 153.90625 L 583.324219 152.941406 L 584.199219 151.960938 L 585.058594 150.96875 L 585.902344 149.964844 L 586.730469 148.945313 L 587.542969 147.910156 L 588.339844 146.867188 L 589.117188 145.808594 L 589.878906 144.738281 L 590.625 143.65625 L 591.351563 142.5625 L 592.0625 141.457031 L 592.753906 140.339844 L 593.429688 139.214844 L 594.085938 138.074219 L 594.726563 136.929688 L 595.347656 135.769531 L 595.949219 134.601563 L 596.53125 133.425781 L 597.097656 132.238281 L 597.640625 131.042969 L 598.167969 129.839844 L 598.675781 128.628906 L 599.164063 127.410156 L 599.632813 126.183594 L 600.082031 124.949219 L 600.511719 123.707031 L 600.921875 122.457031 L 601.3125 121.203125 L 601.683594 119.945313 L 602.03125 118.675781 L 602.363281 117.40625 L 602.671875 116.128906 L 602.960938 114.847656 L 603.230469 113.5625 L 603.480469 112.273438 L 603.707031 110.976563 L 603.914063 109.679688 L 604.101563 108.378906 L 604.269531 107.078125 L 604.414063 105.773438 L 604.539063 104.464844 L 604.644531 103.15625 L 604.726563 101.84375 L 604.789063 100.53125 L 604.832031 99.21875 L 604.851563 97.90625 L 604.851563 96.589844 L 604.832031 95.277344 L 604.789063 93.964844 L 604.726563 92.652344 L 604.644531 91.339844 L 604.539063 90.03125 L 604.414063 88.722656 L 604.269531 87.417969 L 604.101563 86.117188 L 603.914063 84.816406 L 603.707031 83.519531 L 603.480469 82.222656 L 603.230469 80.933594 L 602.960938 79.648438 L 602.671875 78.367188 L 602.363281 77.089844 L 602.03125 75.820313 L 601.683594 74.550781 L 601.3125 73.292969 L 600.921875 72.039063 L 600.511719 70.789063 L 600.082031 69.546875 L 599.632813 68.3125 L 599.164063 67.085938 L 598.675781 65.867188 L 598.167969 64.65625 L 597.640625 63.453125 L 597.097656 62.257813 L 596.53125 61.070313 L 595.949219 59.894531 L 595.347656 58.726563 L 594.726563 57.566406 L 594.085938 56.421875 L 593.429688 55.28125 L 592.753906 54.15625 L 592.0625 53.039063 L 591.351563 51.933594 L 590.625 50.839844 L 589.878906 49.757813 L 589.117188 48.6875 L 588.339844 47.628906 L 587.542969 46.585938 L 586.730469 45.550781 L 585.902344 44.53125 L 585.058594 43.527344 L 584.199219 42.535156 L 583.324219 41.554688 L 582.429688 40.589844 L 581.523438 39.636719 L 580.601563 38.703125 L 522.058594 97.246094 Z M 580.601563 155.792969 "/>
<path style="fill:none;stroke-width:2.25;stroke-linecap:round;stroke-linejoin:round;stroke:rgb(0%,0%,0%);stroke-opacity:1;stroke-miterlimit:10;" d="M 903.296875 38.703125 L 902.363281 37.78125 L 901.410156 36.875 L 900.445313 35.984375 L 899.464844 35.105469 L 898.472656 34.246094 L 897.46875 33.402344 L 896.449219 32.574219 L 895.414063 31.761719 L 894.371094 30.964844 L 893.3125 30.1875 L 892.242188 29.425781 L 891.160156 28.679688 L 890.066406 27.953125 L 888.960938 27.242188 L 887.84375 26.550781 L 886.71875 25.875 L 885.578125 25.21875 L 884.433594 24.578125 L 883.273438 23.960938 L 882.105469 23.355469 L 880.929688 22.773438 L 879.742188 22.210938 L 878.546875 21.664063 L 877.34375 21.136719 L 876.132813 20.628906 L 874.914063 20.140625 L 873.6875 19.671875 L 872.453125 19.222656 L 871.210938 18.792969 L 869.960938 18.382813 L 868.707031 17.992188 L 867.449219 17.621094 L 866.179688 17.273438 L 864.910156 16.941406 L 863.632813 16.632813 L 862.351563 16.34375 L 861.066406 16.074219 L 859.777344 15.828125 L 858.480469 15.597656 L 857.183594 15.390625 L 855.882813 15.203125 L 854.582031 15.039063 L 853.277344 14.890625 L 851.96875 14.765625 L 850.660156 14.664063 L 849.347656 14.578125 L 848.035156 14.515625 L 846.722656 14.476563 L 845.410156 14.453125 L 844.09375 14.453125 L 842.78125 14.476563 L 841.46875 14.515625 L 840.15625 14.578125 L 838.84375 14.664063 L 837.535156 14.765625 L 836.226563 14.890625 L 834.921875 15.039063 L 833.621094 15.203125 L 832.320313 15.390625 L 831.023438 15.597656 L 829.726563 15.828125 L 828.4375 16.074219 L 827.152344 16.34375 L 825.871094 16.632813 L 824.59375 16.941406 L 823.324219 17.273438 L 822.054688 17.621094 L 820.796875 17.992188 L 819.542969 18.382813 L 818.292969 18.792969 L 817.050781 19.222656 L 815.816406 19.671875 L 814.589844 20.140625 L 813.371094 20.628906 L 812.160156 21.136719 L 810.957031 21.664063 L 809.761719 22.210938 L 808.574219 22.773438 L 807.398438 23.355469 L 806.230469 23.960938 L 805.070313 24.578125 L 803.925781 25.21875 L 802.785156 25.875 L 801.660156 26.550781 L 800.542969 27.242188 L 799.4375 27.953125 L 798.34375 28.679688 L 797.261719 29.425781 L 796.191406 30.1875 L 795.132813 30.964844 L 794.089844 31.761719 L 793.054688 32.574219 L 792.035156 33.402344 L 791.03125 34.246094 L 790.039063 35.105469 L 789.058594 35.984375 L 788.09375 36.875 L 787.140625 37.78125 L 786.207031 38.703125 L 844.753906 97.246094 Z M 903.296875 38.703125 "/>
<path style="fill:none;stroke-width:2.25;stroke-linecap:round;stroke-linejoin:round;stroke:rgb(0%,0%,0%);stroke-opacity:1;stroke-miterlimit:10;" d="M 786.207031 38.703125 L 785.285156 39.636719 L 784.378906 40.589844 L 783.488281 41.554688 L 782.609375 42.535156 L 781.75 43.527344 L 780.90625 44.53125 L 780.078125 45.550781 L 779.265625 46.585938 L 778.46875 47.628906 L 777.691406 48.6875 L 776.929688 49.757813 L 776.183594 50.839844 L 775.457031 51.933594 L 774.746094 53.039063 L 774.054688 54.15625 L 773.378906 55.28125 L 772.722656 56.421875 L 772.082031 57.566406 L 771.464844 58.726563 L 770.859375 59.894531 L 770.277344 61.070313 L 769.714844 62.257813 L 769.167969 63.453125 L 768.640625 64.65625 L 768.132813 65.867188 L 767.644531 67.085938 L 767.175781 68.3125 L 766.726563 69.546875 L 766.296875 70.789063 L 765.886719 72.039063 L 765.496094 73.292969 L 765.128906 74.550781 L 764.777344 75.820313 L 764.445313 77.089844 L 764.136719 78.367188 L 763.847656 79.648438 L 763.578125 80.933594 L 763.332031 82.222656 L 763.101563 83.519531 L 762.894531 84.816406 L 762.707031 86.117188 L 762.542969 87.417969 L 762.394531 88.722656 L 762.269531 90.03125 L 762.167969 91.339844 L 762.082031 92.652344 L 762.019531 93.964844 L 761.980469 95.277344 L 761.957031 96.589844 L 761.957031 97.90625 L 761.980469 99.21875 L 762.019531 100.53125 L 762.082031 101.84375 L 762.167969 103.15625 L 762.269531 104.464844 L 762.394531 105.773438 L 762.542969 107.078125 L 762.707031 108.378906 L 762.894531 109.679688 L 763.101563 110.976563 L 763.332031 112.273438 L 763.578125 113.5625 L 763.847656 114.847656 L 764.136719 116.128906 L 764.445313 117.40625 L 764.777344 118.675781 L 765.128906 119.945313 L 765.496094 121.203125 L 765.886719 122.457031 L 766.296875 123.707031 L 766.726563 124.949219 L 767.175781 126.183594 L 767.644531 127.410156 L 768.132813 128.628906 L 768.640625 129.839844 L 769.167969 131.042969 L 769.714844 132.238281 L 770.277344 133.425781 L 770.859375 134.601563 L 771.464844 135.769531 L 772.082031 136.929688 L 772.722656 138.074219 L 773.378906 139.214844 L 774.054688 140.339844 L 774.746094 141.457031 L 775.457031 142.5625 L 776.183594 143.65625 L 776.929688 144.738281 L 777.691406 145.808594 L 778.46875 146.867188 L 779.265625 147.910156 L 780.078125 148.945313 L 780.90625 149.964844 L 781.75 150.96875 L 782.609375 151.960938 L 783.488281 152.941406 L 784.378906 153.90625 L 785.285156 154.859375 L 786.207031 155.792969 L 844.753906 97.246094 Z M 786.207031 38.703125 "/>
<path style="fill:none;stroke-width:2.25;stroke-linecap:round;stroke-linejoin:round;stroke:rgb(0%,0%,0%);stroke-opacity:1;stroke-miterlimit:10;" d="M 786.207031 155.792969 L 787.140625 156.714844 L 788.09375 157.621094 L 789.058594 158.511719 L 790.039063 159.390625 L 791.03125 160.25 L 792.035156 161.09375 L 793.054688 161.921875 L 794.089844 162.734375 L 795.132813 163.53125 L 796.191406 164.308594 L 797.261719 165.070313 L 798.34375 165.816406 L 799.4375 166.542969 L 800.542969 167.253906 L 801.660156 167.945313 L 802.785156 168.621094 L 803.925781 169.277344 L 805.070313 169.917969 L 806.230469 170.535156 L 807.398438 171.140625 L 808.574219 171.722656 L 809.761719 172.285156 L 810.957031 172.832031 L 812.160156 173.359375 L 813.371094 173.867188 L 814.589844 174.355469 L 815.816406 174.824219 L 817.050781 175.273438 L 818.292969 175.703125 L 819.542969 176.113281 L 820.796875 176.503906 L 822.054688 176.871094 L 823.324219 177.222656 L 824.59375 177.554688 L 825.871094 177.863281 L 827.152344 178.152344 L 828.4375 178.421875 L 829.726563 178.667969 L 831.023438 178.898438 L 832.320313 179.105469 L 833.621094 179.292969 L 834.921875 179.457031 L 836.226563 179.605469 L 837.535156 179.730469 L 838.84375 179.832031 L 840.15625 179.917969 L 841.46875 179.980469 L 842.78125 180.019531 L 844.09375 180.042969 L 845.410156 180.042969 L 846.722656 180.019531 L 848.035156 179.980469 L 849.347656 179.917969 L 850.660156 179.832031 L 851.96875 179.730469 L 853.277344 179.605469 L 854.582031 179.457031 L 855.882813 179.292969 L 857.183594 179.105469 L 858.480469 178.898438 L 859.777344 178.667969 L 861.066406 178.421875 L 862.351563 178.152344 L 863.632813 177.863281 L 864.910156 177.554688 L 866.179688 177.222656 L 867.449219 176.871094 L 868.707031 176.503906 L 869.960938 176.113281 L 871.210938 175.703125 L 872.453125 175.273438 L 873.6875 174.824219 L 874.914063 174.355469 L 876.132813 173.867188 L 877.34375 173.359375 L 878.546875 172.832031 L 879.742188 172.285156 L 880.929688 171.722656 L 882.105469 171.140625 L 883.273438 170.535156 L 884.433594 169.917969 L 885.578125 169.277344 L 886.71875 168.621094 L 887.84375 167.945313 L 888.960938 167.253906 L 890.066406 166.542969 L 891.160156 165.816406 L 892.242188 165.070313 L 893.3125 164.308594 L 894.371094 163.53125 L 895.414063 162.734375 L 896.449219 161.921875 L 897.46875 161.09375 L 898.472656 160.25 L 899.464844 159.390625 L 900.445313 158.511719 L 901.410156 157.621094 L 902.363281 156.714844 L 903.296875 155.792969 L 844.753906 97.246094 Z M 786.207031 155.792969 "/>
<path style="fill:none;stroke-width:2.25;stroke-linecap:round;stroke-linejoin:round;stroke:rgb(0%,0%,0%);stroke-opacity:1;stroke-miterlimit:10;" d="M 903.296875 155.792969 L 904.21875 154.859375 L 905.125 153.90625 L 906.015625 152.941406 L 906.894531 151.960938 L 907.753906 150.96875 L 908.597656 149.964844 L 909.425781 148.945313 L 910.238281 147.910156 L 911.035156 146.867188 L 911.8125 145.808594 L 912.574219 144.738281 L 913.320313 143.65625 L 914.046875 142.5625 L 914.757813 141.457031 L 915.449219 140.339844 L 916.125 139.214844 L 916.78125 138.074219 L 917.421875 136.929688 L 918.039063 135.769531 L 918.644531 134.601563 L 919.226563 133.425781 L 919.789063 132.238281 L 920.335938 131.042969 L 920.863281 129.839844 L 921.371094 128.628906 L 921.859375 127.410156 L 922.328125 126.183594 L 922.777344 124.949219 L 923.207031 123.707031 L 923.617188 122.457031 L 924.007813 121.203125 L 924.378906 119.945313 L 924.726563 118.675781 L 925.058594 117.40625 L 925.367188 116.128906 L 925.65625 114.847656 L 925.925781 113.5625 L 926.171875 112.273438 L 926.402344 110.976563 L 926.609375 109.679688 L 926.796875 108.378906 L 926.960938 107.078125 L 927.109375 105.773438 L 927.234375 104.464844 L 927.335938 103.15625 L 927.421875 101.84375 L 927.484375 100.53125 L 927.523438 99.21875 L 927.546875 97.90625 L 927.546875 96.589844 L 927.523438 95.277344 L 927.484375 93.964844 L 927.421875 92.652344 L 927.335938 91.339844 L 927.234375 90.03125 L 927.109375 88.722656 L 926.960938 87.417969 L 926.796875 86.117188 L 926.609375 84.816406 L 926.402344 83.519531 L 926.171875 82.222656 L 925.925781 80.933594 L 925.65625 79.648438 L 925.367188 78.367188 L 925.058594 77.089844 L 924.726563 75.820313 L 924.378906 74.550781 L 924.007813 73.292969 L 923.617188 72.039063 L 923.207031 70.789063 L 922.777344 69.546875 L 922.328125 68.3125 L 921.859375 67.085938 L 921.371094 65.867188 L 920.863281 64.65625 L 920.335938 63.453125 L 919.789063 62.257813 L 919.226563 61.070313 L 918.644531 59.894531 L 918.039063 58.726563 L 917.421875 57.566406 L 916.78125 56.421875 L 916.125 55.28125 L 915.449219 54.15625 L 914.757813 53.039063 L 914.046875 51.933594 L 913.320313 50.839844 L 912.574219 49.757813 L 911.8125 48.6875 L 911.035156 47.628906 L 910.238281 46.585938 L 909.425781 45.550781 L 908.597656 44.53125 L 907.753906 43.527344 L 906.894531 42.535156 L 906.015625 41.554688 L 905.125 40.589844 L 904.21875 39.636719 L 903.296875 38.703125 L 844.753906 97.246094 Z M 903.296875 155.792969 "/>
<path style="fill:none;stroke-width:2.25;stroke-linecap:round;stroke-linejoin:round;stroke:rgb(0%,0%,0%);stroke-opacity:1;stroke-miterlimit:10;" d="M 228.636719 258.667969 L 228.167969 258.207031 L 227.691406 257.753906 L 227.210938 257.308594 L 226.71875 256.871094 L 226.222656 256.441406 L 225.722656 256.019531 L 225.210938 255.605469 L 224.695313 255.199219 L 224.171875 254.800781 L 223.644531 254.410156 L 223.109375 254.03125 L 222.566406 253.660156 L 222.019531 253.292969 L 221.46875 252.941406 L 220.910156 252.59375 L 220.347656 252.257813 L 219.777344 251.925781 L 219.203125 251.609375 L 218.625 251.296875 L 218.039063 250.996094 L 217.453125 250.707031 L 216.859375 250.421875 L 216.261719 250.148438 L 215.660156 249.886719 L 215.054688 249.632813 L 214.445313 249.390625 L 213.832031 249.15625 L 213.214844 248.929688 L 212.59375 248.714844 L 211.96875 248.511719 L 211.339844 248.316406 L 210.710938 248.128906 L 210.078125 247.953125 L 209.441406 247.789063 L 208.804688 247.636719 L 208.164063 247.492188 L 207.519531 247.355469 L 206.875 247.230469 L 206.226563 247.117188 L 205.578125 247.011719 L 204.929688 246.921875 L 204.277344 246.835938 L 203.625 246.765625 L 202.972656 246.703125 L 202.316406 246.648438 L 201.660156 246.609375 L 201.003906 246.578125 L 200.347656 246.554688 L 199.691406 246.546875 L 199.035156 246.546875 L 198.378906 246.554688 L 197.722656 246.578125 L 197.066406 246.609375 L 196.410156 246.648438 L 195.753906 246.703125 L 195.101563 246.765625 L 194.449219 246.835938 L 193.796875 246.921875 L 193.148438 247.011719 L 192.5 247.117188 L 191.851563 247.230469 L 191.207031 247.355469 L 190.5625 247.492188 L 189.921875 247.636719 L 189.285156 247.789063 L 188.648438 247.953125 L 188.015625 248.128906 L 187.386719 248.316406 L 186.757813 248.511719 L 186.132813 248.714844 L 185.511719 248.929688 L 184.894531 249.15625 L 184.28125 249.390625 L 183.671875 249.632813 L 183.066406 249.886719 L 182.464844 250.148438 L 181.867188 250.421875 L 181.273438 250.707031 L 180.6875 250.996094 L 180.101563 251.296875 L 179.523438 251.609375 L 178.949219 251.925781 L 178.378906 252.257813 L 177.816406 252.59375 L 177.257813 252.941406 L 176.707031 253.292969 L 176.160156 253.660156 L 175.617188 254.03125 L 175.082031 254.410156 L 174.554688 254.800781 L 174.03125 255.199219 L 173.515625 255.605469 L 173.003906 256.019531 L 172.503906 256.441406 L 172.003906 256.871094 L 171.515625 257.308594 L 171.035156 257.753906 L 170.558594 258.207031 L 170.089844 258.667969 L 199.363281 287.941406 Z M 228.636719 258.667969 "/>
<path style="fill:none;stroke-width:2.25;stroke-linecap:round;stroke-linejoin:round;stroke:rgb(0%,0%,0%);stroke-opacity:1;stroke-miterlimit:10;" d="M 170.089844 258.667969 L 169.628906 259.136719 L 169.175781 259.613281 L 168.730469 260.09375 L 168.292969 260.585938 L 167.863281 261.082031 L 167.441406 261.585938 L 167.027344 262.09375 L 166.621094 262.609375 L 166.222656 263.132813 L 165.832031 263.664063 L 165.453125 264.199219 L 165.078125 264.738281 L 164.714844 265.285156 L 164.359375 265.835938 L 164.015625 266.394531 L 163.675781 266.960938 L 163.347656 267.527344 L 163.027344 268.101563 L 162.71875 268.679688 L 162.417969 269.265625 L 162.125 269.855469 L 161.84375 270.445313 L 161.570313 271.042969 L 161.308594 271.644531 L 161.054688 272.25 L 160.808594 272.863281 L 160.574219 273.476563 L 160.351563 274.09375 L 160.136719 274.714844 L 159.929688 275.335938 L 159.734375 275.964844 L 159.550781 276.59375 L 159.375 277.226563 L 159.210938 277.863281 L 159.054688 278.5 L 158.910156 279.144531 L 158.777344 279.785156 L 158.652344 280.429688 L 158.539063 281.078125 L 158.433594 281.726563 L 158.339844 282.375 L 158.257813 283.027344 L 158.183594 283.679688 L 158.121094 284.335938 L 158.070313 284.988281 L 158.027344 285.644531 L 157.996094 286.300781 L 157.976563 286.957031 L 157.964844 287.613281 L 157.964844 288.269531 L 157.976563 288.925781 L 157.996094 289.585938 L 158.027344 290.238281 L 158.070313 290.894531 L 158.121094 291.550781 L 158.183594 292.203125 L 158.257813 292.855469 L 158.339844 293.507813 L 158.433594 294.160156 L 158.539063 294.808594 L 158.652344 295.453125 L 158.777344 296.097656 L 158.910156 296.742188 L 159.054688 297.382813 L 159.210938 298.019531 L 159.375 298.65625 L 159.550781 299.289063 L 159.734375 299.921875 L 159.929688 300.546875 L 160.136719 301.171875 L 160.351563 301.792969 L 160.574219 302.410156 L 160.808594 303.023438 L 161.054688 303.632813 L 161.308594 304.238281 L 161.570313 304.839844 L 161.84375 305.4375 L 162.125 306.03125 L 162.417969 306.621094 L 162.71875 307.203125 L 163.027344 307.78125 L 163.347656 308.355469 L 163.675781 308.925781 L 164.015625 309.488281 L 164.359375 310.046875 L 164.714844 310.597656 L 165.078125 311.144531 L 165.453125 311.6875 L 165.832031 312.222656 L 166.222656 312.75 L 166.621094 313.273438 L 167.027344 313.789063 L 167.441406 314.300781 L 167.863281 314.804688 L 168.292969 315.300781 L 168.730469 315.789063 L 169.175781 316.273438 L 169.628906 316.746094 L 170.089844 317.214844 L 199.363281 287.941406 Z M 170.089844 258.667969 "/>
<path style="fill:none;stroke-width:2.25;stroke-linecap:round;stroke-linejoin:round;stroke:rgb(0%,0%,0%);stroke-opacity:1;stroke-miterlimit:10;" d="M 170.089844 317.214844 L 170.558594 317.675781 L 171.035156 318.128906 L 171.515625 318.574219 L 172.003906 319.011719 L 172.503906 319.441406 L 173.003906 319.867188 L 173.515625 320.28125 L 174.03125 320.683594 L 174.554688 321.082031 L 175.082031 321.472656 L 175.617188 321.855469 L 176.160156 322.226563 L 176.707031 322.589844 L 177.257813 322.945313 L 177.816406 323.292969 L 178.378906 323.628906 L 178.949219 323.957031 L 179.523438 324.277344 L 180.101563 324.585938 L 180.6875 324.886719 L 181.273438 325.179688 L 181.867188 325.460938 L 182.464844 325.734375 L 183.066406 326 L 183.671875 326.25 L 184.28125 326.496094 L 184.894531 326.730469 L 185.511719 326.953125 L 186.132813 327.167969 L 186.757813 327.375 L 187.386719 327.570313 L 188.015625 327.753906 L 188.648438 327.929688 L 189.285156 328.09375 L 189.921875 328.25 L 190.5625 328.394531 L 191.207031 328.527344 L 191.851563 328.652344 L 192.5 328.765625 L 193.148438 328.871094 L 193.796875 328.964844 L 194.449219 329.046875 L 195.101563 329.121094 L 195.753906 329.183594 L 196.410156 329.234375 L 197.066406 329.277344 L 197.722656 329.308594 L 198.378906 329.328125 L 199.035156 329.339844 L 199.691406 329.339844 L 200.347656 329.328125 L 201.003906 329.308594 L 201.660156 329.277344 L 202.316406 329.234375 L 202.972656 329.183594 L 203.625 329.121094 L 204.277344 329.046875 L 204.929688 328.964844 L 205.578125 328.871094 L 206.226563 328.765625 L 206.875 328.652344 L 207.519531 328.527344 L 208.164063 328.394531 L 208.804688 328.25 L 209.441406 328.09375 L 210.078125 327.929688 L 210.710938 327.753906 L 211.339844 327.570313 L 211.96875 327.375 L 212.59375 327.167969 L 213.214844 326.953125 L 213.832031 326.730469 L 214.445313 326.496094 L 215.054688 326.25 L 215.660156 326 L 216.261719 325.734375 L 216.859375 325.460938 L 217.453125 325.179688 L 218.039063 324.886719 L 218.625 324.585938 L 219.203125 324.277344 L 219.777344 323.957031 L 220.347656 323.628906 L 220.910156 323.292969 L 221.46875 322.945313 L 222.019531 322.589844 L 222.566406 322.226563 L 223.109375 321.855469 L 223.644531 321.472656 L 224.171875 321.082031 L 224.695313 320.683594 L 225.210938 320.28125 L 225.722656 319.867188 L 226.222656 319.441406 L 226.71875 319.011719 L 227.210938 318.574219 L 227.691406 318.128906 L 228.167969 317.675781 L 228.636719 317.214844 L 199.363281 287.941406 Z M 170.089844 317.214844 "/>
<path style="fill:none;stroke-width:2.25;stroke-linecap:round;stroke-linejoin:round;stroke:rgb(0%,0%,0%);stroke-opacity:1;stroke-miterlimit:10;" d="M 228.636719 317.214844 L 229.097656 316.746094 L 229.550781 316.273438 L 229.996094 315.789063 L 230.433594 315.300781 L 230.863281 314.804688 L 231.285156 314.300781 L 231.699219 313.789063 L 232.105469 313.273438 L 232.503906 312.75 L 232.894531 312.222656 L 233.273438 311.6875 L 233.648438 311.144531 L 234.011719 310.597656 L 234.367188 310.046875 L 234.710938 309.488281 L 235.050781 308.925781 L 235.378906 308.355469 L 235.699219 307.78125 L 236.007813 307.203125 L 236.308594 306.621094 L 236.601563 306.03125 L 236.882813 305.4375 L 237.15625 304.839844 L 237.417969 304.238281 L 237.671875 303.632813 L 237.917969 303.023438 L 238.152344 302.410156 L 238.375 301.792969 L 238.589844 301.171875 L 238.796875 300.546875 L 238.992188 299.921875 L 239.175781 299.289063 L 239.351563 298.65625 L 239.515625 298.019531 L 239.671875 297.382813 L 239.816406 296.742188 L 239.949219 296.097656 L 240.074219 295.453125 L 240.1875 294.808594 L 240.292969 294.160156 L 240.386719 293.507813 L 240.46875 292.855469 L 240.542969 292.203125 L 240.605469 291.550781 L 240.65625 290.894531 L 240.699219 290.238281 L 240.730469 289.585938 L 240.75 288.925781 L 240.761719 288.269531 L 240.761719 287.613281 L 240.75 286.957031 L 240.730469 286.300781 L 240.699219 285.644531 L 240.65625 284.988281 L 240.605469 284.335938 L 240.542969 283.679688 L 240.46875 283.027344 L 240.386719 282.375 L 240.292969 281.726563 L 240.1875 281.078125 L 240.074219 280.429688 L 239.949219 279.785156 L 239.816406 279.144531 L 239.671875 278.5 L 239.515625 277.863281 L 239.351563 277.226563 L 239.175781 276.59375 L 238.992188 275.964844 L 238.796875 275.335938 L 238.589844 274.714844 L 238.375 274.09375 L 238.152344 273.476563 L 237.917969 272.863281 L 237.671875 272.25 L 237.417969 271.644531 L 237.15625 271.042969 L 236.882813 270.445313 L 236.601563 269.855469 L 236.308594 269.265625 L 236.007813 268.679688 L 235.699219 268.101563 L 235.378906 267.527344 L 235.050781 266.960938 L 234.710938 266.394531 L 234.367188 265.835938 L 234.011719 265.285156 L 233.648438 264.738281 L 233.273438 264.199219 L 232.894531 263.664063 L 232.503906 263.132813 L 232.105469 262.609375 L 231.699219 262.09375 L 231.285156 261.585938 L 230.863281 261.082031 L 230.433594 260.585938 L 229.996094 260.09375 L 229.550781 259.613281 L 229.097656 259.136719 L 228.636719 258.667969 L 199.363281 287.941406 Z M 228.636719 317.214844 "/>
<path style="fill:none;stroke-width:2.25;stroke-linecap:round;stroke-linejoin:round;stroke:rgb(0%,0%,0%);stroke-opacity:1;stroke-miterlimit:10;" d="M 551.332031 258.667969 L 550.863281 258.207031 L 550.386719 257.753906 L 549.90625 257.308594 L 549.414063 256.871094 L 548.917969 256.441406 L 548.414063 256.019531 L 547.90625 255.605469 L 547.390625 255.199219 L 546.867188 254.800781 L 546.335938 254.410156 L 545.800781 254.03125 L 545.261719 253.660156 L 544.714844 253.292969 L 544.164063 252.941406 L 543.605469 252.59375 L 543.039063 252.257813 L 542.472656 251.925781 L 541.898438 251.609375 L 541.320313 251.296875 L 540.734375 250.996094 L 540.144531 250.707031 L 539.554688 250.421875 L 538.957031 250.148438 L 538.355469 249.886719 L 537.75 249.632813 L 537.136719 249.390625 L 536.523438 249.15625 L 535.90625 248.929688 L 535.285156 248.714844 L 534.664063 248.511719 L 534.035156 248.316406 L 533.40625 248.128906 L 532.773438 247.953125 L 532.136719 247.789063 L 531.5 247.636719 L 530.855469 247.492188 L 530.214844 247.355469 L 529.570313 247.230469 L 528.921875 247.117188 L 528.273438 247.011719 L 527.625 246.921875 L 526.972656 246.835938 L 526.320313 246.765625 L 525.664063 246.703125 L 525.011719 246.648438 L 524.355469 246.609375 L 523.699219 246.578125 L 523.042969 246.554688 L 522.386719 246.546875 L 521.730469 246.546875 L 521.074219 246.554688 L 520.414063 246.578125 L 519.761719 246.609375 L 519.105469 246.648438 L 518.449219 246.703125 L 517.796875 246.765625 L 517.144531 246.835938 L 516.492188 246.921875 L 515.839844 247.011719 L 515.191406 247.117188 L 514.546875 247.230469 L 513.902344 247.355469 L 513.257813 247.492188 L 512.617188 247.636719 L 511.980469 247.789063 L 511.34375 247.953125 L 510.710938 248.128906 L 510.078125 248.316406 L 509.453125 248.511719 L 508.828125 248.714844 L 508.207031 248.929688 L 507.589844 249.15625 L 506.976563 249.390625 L 506.367188 249.632813 L 505.761719 249.886719 L 505.160156 250.148438 L 504.5625 250.421875 L 503.96875 250.707031 L 503.378906 250.996094 L 502.796875 251.296875 L 502.21875 251.609375 L 501.644531 251.925781 L 501.074219 252.257813 L 500.511719 252.59375 L 499.953125 252.941406 L 499.402344 253.292969 L 498.855469 253.660156 L 498.3125 254.03125 L 497.777344 254.410156 L 497.25 254.800781 L 496.726563 255.199219 L 496.210938 255.605469 L 495.699219 256.019531 L 495.195313 256.441406 L 494.699219 256.871094 L 494.210938 257.308594 L 493.726563 257.753906 L 493.253906 258.207031 L 492.785156 258.667969 L 522.058594 287.941406 Z M 551.332031 258.667969 "/>
<path style="fill:none;stroke-width:2.25;stroke-linecap:round;stroke-linejoin:round;stroke:rgb(0%,0%,0%);stroke-opacity:1;stroke-miterlimit:10;" d="M 492.785156 258.667969 L 492.324219 259.136719 L 491.871094 259.613281 L 491.425781 260.09375 L 490.988281 260.585938 L 490.558594 261.082031 L 490.132813 261.585938 L 489.71875 262.09375 L 489.316406 262.609375 L 488.917969 263.132813 L 488.527344 263.664063 L 488.144531 264.199219 L 487.773438 264.738281 L 487.410156 265.285156 L 487.054688 265.835938 L 486.707031 266.394531 L 486.371094 266.960938 L 486.042969 267.527344 L 485.722656 268.101563 L 485.414063 268.679688 L 485.113281 269.265625 L 484.820313 269.855469 L 484.539063 270.445313 L 484.265625 271.042969 L 484 271.644531 L 483.75 272.25 L 483.503906 272.863281 L 483.269531 273.476563 L 483.046875 274.09375 L 482.832031 274.714844 L 482.625 275.335938 L 482.429688 275.964844 L 482.246094 276.59375 L 482.070313 277.226563 L 481.90625 277.863281 L 481.75 278.5 L 481.605469 279.144531 L 481.472656 279.785156 L 481.347656 280.429688 L 481.234375 281.078125 L 481.128906 281.726563 L 481.035156 282.375 L 480.953125 283.027344 L 480.878906 283.679688 L 480.816406 284.335938 L 480.765625 284.988281 L 480.722656 285.644531 L 480.691406 286.300781 L 480.671875 286.957031 L 480.660156 287.613281 L 480.660156 288.269531 L 480.671875 288.925781 L 480.691406 289.585938 L 480.722656 290.238281 L 480.765625 290.894531 L 480.816406 291.550781 L 480.878906 292.203125 L 480.953125 292.855469 L 481.035156 293.507813 L 481.128906 294.160156 L 481.234375 294.808594 L 481.347656 295.453125 L 481.472656 296.097656 L 481.605469 296.742188 L 481.75 297.382813 L 481.90625 298.019531 L 482.070313 298.65625 L 482.246094 299.289063 L 482.429688 299.921875 L 482.625 300.546875 L 482.832031 301.171875 L 483.046875 301.792969 L 483.269531 302.410156 L 483.503906 303.023438 L 483.75 303.632813 L 484 304.238281 L 484.265625 304.839844 L 484.539063 305.4375 L 484.820313 306.03125 L 485.113281 306.621094 L 485.414063 307.203125 L 485.722656 307.78125 L 486.042969 308.355469 L 486.371094 308.925781 L 486.707031 309.488281 L 487.054688 310.046875 L 487.410156 310.597656 L 487.773438 311.144531 L 488.144531 311.6875 L 488.527344 312.222656 L 488.917969 312.75 L 489.316406 313.273438 L 489.71875 313.789063 L 490.132813 314.300781 L 490.558594 314.804688 L 490.988281 315.300781 L 491.425781 315.789063 L 491.871094 316.273438 L 492.324219 316.746094 L 492.785156 317.214844 L 522.058594 287.941406 Z M 492.785156 258.667969 "/>
<path style="fill:none;stroke-width:2.25;stroke-linecap:round;stroke-linejoin:round;stroke:rgb(0%,0%,0%);stroke-opacity:1;stroke-miterlimit:10;" d="M 492.785156 317.214844 L 493.253906 317.675781 L 493.726563 318.128906 L 494.210938 318.574219 L 494.699219 319.011719 L 495.195313 319.441406 L 495.699219 319.867188 L 496.210938 320.28125 L 496.726563 320.683594 L 497.25 321.082031 L 497.777344 321.472656 L 498.3125 321.855469 L 498.855469 322.226563 L 499.402344 322.589844 L 499.953125 322.945313 L 500.511719 323.292969 L 501.074219 323.628906 L 501.644531 323.957031 L 502.21875 324.277344 L 502.796875 324.585938 L 503.378906 324.886719 L 503.96875 325.179688 L 504.5625 325.460938 L 505.160156 325.734375 L 505.761719 326 L 506.367188 326.25 L 506.976563 326.496094 L 507.589844 326.730469 L 508.207031 326.953125 L 508.828125 327.167969 L 509.453125 327.375 L 510.078125 327.570313 L 510.710938 327.753906 L 511.34375 327.929688 L 511.980469 328.09375 L 512.617188 328.25 L 513.257813 328.394531 L 513.902344 328.527344 L 514.546875 328.652344 L 515.191406 328.765625 L 515.839844 328.871094 L 516.492188 328.964844 L 517.144531 329.046875 L 517.796875 329.121094 L 518.449219 329.183594 L 519.105469 329.234375 L 519.761719 329.277344 L 520.414063 329.308594 L 521.074219 329.328125 L 521.730469 329.339844 L 522.386719 329.339844 L 523.042969 329.328125 L 523.699219 329.308594 L 524.355469 329.277344 L 525.011719 329.234375 L 525.664063 329.183594 L 526.320313 329.121094 L 526.972656 329.046875 L 527.625 328.964844 L 528.273438 328.871094 L 528.921875 328.765625 L 529.570313 328.652344 L 530.214844 328.527344 L 530.855469 328.394531 L 531.5 328.25 L 532.136719 328.09375 L 532.773438 327.929688 L 533.40625 327.753906 L 534.035156 327.570313 L 534.664063 327.375 L 535.285156 327.167969 L 535.90625 326.953125 L 536.523438 326.730469 L 537.136719 326.496094 L 537.75 326.25 L 538.355469 326 L 538.957031 325.734375 L 539.554688 325.460938 L 540.144531 325.179688 L 540.734375 324.886719 L 541.320313 324.585938 L 541.898438 324.277344 L 542.472656 323.957031 L 543.039063 323.628906 L 543.605469 323.292969 L 544.164063 322.945313 L 544.714844 322.589844 L 545.261719 322.226563 L 545.800781 321.855469 L 546.335938 321.472656 L 546.867188 321.082031 L 547.390625 320.683594 L 547.90625 320.28125 L 548.414063 319.867188 L 548.917969 319.441406 L 549.414063 319.011719 L 549.90625 318.574219 L 550.386719 318.128906 L 550.863281 317.675781 L 551.332031 317.214844 L 522.058594 287.941406 Z M 492.785156 317.214844 "/>
<path style="fill:none;stroke-width:2.25;stroke-linecap:round;stroke-linejoin:round;stroke:rgb(0%,0%,0%);stroke-opacity:1;stroke-miterlimit:10;" d="M 551.332031 317.214844 L 551.792969 316.746094 L 552.246094 316.273438 L 552.691406 315.789063 L 553.128906 315.300781 L 553.558594 314.804688 L 553.980469 314.300781 L 554.394531 313.789063 L 554.800781 313.273438 L 555.199219 312.75 L 555.589844 312.222656 L 555.96875 311.6875 L 556.339844 311.144531 L 556.707031 310.597656 L 557.058594 310.046875 L 557.40625 309.488281 L 557.742188 308.925781 L 558.074219 308.355469 L 558.390625 307.78125 L 558.703125 307.203125 L 559.003906 306.621094 L 559.292969 306.03125 L 559.578125 305.4375 L 559.851563 304.839844 L 560.113281 304.238281 L 560.367188 303.632813 L 560.609375 303.023438 L 560.84375 302.410156 L 561.070313 301.792969 L 561.285156 301.171875 L 561.488281 300.546875 L 561.683594 299.921875 L 561.871094 299.289063 L 562.046875 298.65625 L 562.210938 298.019531 L 562.363281 297.382813 L 562.507813 296.742188 L 562.644531 296.097656 L 562.769531 295.453125 L 562.882813 294.808594 L 562.988281 294.160156 L 563.078125 293.507813 L 563.164063 292.855469 L 563.234375 292.203125 L 563.296875 291.550781 L 563.351563 290.894531 L 563.390625 290.238281 L 563.421875 289.585938 L 563.445313 288.925781 L 563.453125 288.269531 L 563.453125 287.613281 L 563.445313 286.957031 L 563.421875 286.300781 L 563.390625 285.644531 L 563.351563 284.988281 L 563.296875 284.335938 L 563.234375 283.679688 L 563.164063 283.027344 L 563.078125 282.375 L 562.988281 281.726563 L 562.882813 281.078125 L 562.769531 280.429688 L 562.644531 279.785156 L 562.507813 279.144531 L 562.363281 278.5 L 562.210938 277.863281 L 562.046875 277.226563 L 561.871094 276.59375 L 561.683594 275.964844 L 561.488281 275.335938 L 561.285156 274.714844 L 561.070313 274.09375 L 560.84375 273.476563 L 560.609375 272.863281 L 560.367188 272.25 L 560.113281 271.644531 L 559.851563 271.042969 L 559.578125 270.445313 L 559.292969 269.855469 L 559.003906 269.265625 L 558.703125 268.679688 L 558.390625 268.101563 L 558.074219 267.527344 L 557.742188 266.960938 L 557.40625 266.394531 L 557.058594 265.835938 L 556.707031 265.285156 L 556.339844 264.738281 L 555.96875 264.199219 L 555.589844 263.664063 L 555.199219 263.132813 L 554.800781 262.609375 L 554.394531 262.09375 L 553.980469 261.585938 L 553.558594 261.082031 L 553.128906 260.585938 L 552.691406 260.09375 L 552.246094 259.613281 L 551.792969 259.136719 L 551.332031 258.667969 L 522.058594 287.941406 Z M 551.332031 317.214844 "/>
<path style="fill:none;stroke-width:2.25;stroke-linecap:round;stroke-linejoin:round;stroke:rgb(0%,0%,0%);stroke-opacity:1;stroke-miterlimit:10;" d="M 874.023438 258.667969 L 873.558594 258.207031 L 873.082031 257.753906 L 872.597656 257.308594 L 872.109375 256.871094 L 871.613281 256.441406 L 871.109375 256.019531 L 870.601563 255.605469 L 870.082031 255.199219 L 869.5625 254.800781 L 869.03125 254.410156 L 868.496094 254.03125 L 867.957031 253.660156 L 867.410156 253.292969 L 866.855469 252.941406 L 866.296875 252.59375 L 865.734375 252.257813 L 865.164063 251.925781 L 864.59375 251.609375 L 864.011719 251.296875 L 863.429688 250.996094 L 862.839844 250.707031 L 862.246094 250.421875 L 861.648438 250.148438 L 861.046875 249.886719 L 860.441406 249.632813 L 859.832031 249.390625 L 859.21875 249.15625 L 858.601563 248.929688 L 857.980469 248.714844 L 857.355469 248.511719 L 856.730469 248.316406 L 856.101563 248.128906 L 855.464844 247.953125 L 854.832031 247.789063 L 854.191406 247.636719 L 853.550781 247.492188 L 852.910156 247.355469 L 852.265625 247.230469 L 851.617188 247.117188 L 850.96875 247.011719 L 850.316406 246.921875 L 849.667969 246.835938 L 849.015625 246.765625 L 848.359375 246.703125 L 847.707031 246.648438 L 847.050781 246.609375 L 846.394531 246.578125 L 845.738281 246.554688 L 845.082031 246.546875 L 844.421875 246.546875 L 843.765625 246.554688 L 843.109375 246.578125 L 842.453125 246.609375 L 841.796875 246.648438 L 841.144531 246.703125 L 840.488281 246.765625 L 839.835938 246.835938 L 839.1875 246.921875 L 838.535156 247.011719 L 837.886719 247.117188 L 837.238281 247.230469 L 836.59375 247.355469 L 835.953125 247.492188 L 835.3125 247.636719 L 834.671875 247.789063 L 834.039063 247.953125 L 833.402344 248.128906 L 832.773438 248.316406 L 832.148438 248.511719 L 831.523438 248.714844 L 830.902344 248.929688 L 830.285156 249.15625 L 829.671875 249.390625 L 829.0625 249.632813 L 828.457031 249.886719 L 827.855469 250.148438 L 827.257813 250.421875 L 826.664063 250.707031 L 826.074219 250.996094 L 825.492188 251.296875 L 824.910156 251.609375 L 824.339844 251.925781 L 823.769531 252.257813 L 823.207031 252.59375 L 822.648438 252.941406 L 822.09375 253.292969 L 821.546875 253.660156 L 821.007813 254.03125 L 820.472656 254.410156 L 819.941406 254.800781 L 819.421875 255.199219 L 818.902344 255.605469 L 818.394531 256.019531 L 817.890625 256.441406 L 817.394531 256.871094 L 816.90625 257.308594 L 816.421875 257.753906 L 815.945313 258.207031 L 815.480469 258.667969 L 844.753906 287.941406 Z M 874.023438 258.667969 "/>
<path style="fill:none;stroke-width:2.25;stroke-linecap:round;stroke-linejoin:round;stroke:rgb(0%,0%,0%);stroke-opacity:1;stroke-miterlimit:10;" d="M 815.480469 258.667969 L 815.019531 259.136719 L 814.566406 259.613281 L 814.121094 260.09375 L 813.679688 260.585938 L 813.25 261.082031 L 812.828125 261.585938 L 812.414063 262.09375 L 812.007813 262.609375 L 811.609375 263.132813 L 811.222656 263.664063 L 810.839844 264.199219 L 810.46875 264.738281 L 810.105469 265.285156 L 809.75 265.835938 L 809.402344 266.394531 L 809.066406 266.960938 L 808.738281 267.527344 L 808.417969 268.101563 L 808.109375 268.679688 L 807.804688 269.265625 L 807.515625 269.855469 L 807.234375 270.445313 L 806.960938 271.042969 L 806.695313 271.644531 L 806.441406 272.25 L 806.199219 272.863281 L 805.964844 273.476563 L 805.738281 274.09375 L 805.523438 274.714844 L 805.320313 275.335938 L 805.125 275.964844 L 804.941406 276.59375 L 804.765625 277.226563 L 804.597656 277.863281 L 804.445313 278.5 L 804.300781 279.144531 L 804.164063 279.785156 L 804.042969 280.429688 L 803.925781 281.078125 L 803.824219 281.726563 L 803.730469 282.375 L 803.648438 283.027344 L 803.574219 283.679688 L 803.511719 284.335938 L 803.460938 284.988281 L 803.417969 285.644531 L 803.386719 286.300781 L 803.367188 286.957031 L 803.355469 287.613281 L 803.355469 288.269531 L 803.367188 288.925781 L 803.386719 289.585938 L 803.417969 290.238281 L 803.460938 290.894531 L 803.511719 291.550781 L 803.574219 292.203125 L 803.648438 292.855469 L 803.730469 293.507813 L 803.824219 294.160156 L 803.925781 294.808594 L 804.042969 295.453125 L 804.164063 296.097656 L 804.300781 296.742188 L 804.445313 297.382813 L 804.597656 298.019531 L 804.765625 298.65625 L 804.941406 299.289063 L 805.125 299.921875 L 805.320313 300.546875 L 805.523438 301.171875 L 805.738281 301.792969 L 805.964844 302.410156 L 806.199219 303.023438 L 806.441406 303.632813 L 806.695313 304.238281 L 806.960938 304.839844 L 807.234375 305.4375 L 807.515625 306.03125 L 807.804688 306.621094 L 808.109375 307.203125 L 808.417969 307.78125 L 808.738281 308.355469 L 809.066406 308.925781 L 809.402344 309.488281 L 809.75 310.046875 L 810.105469 310.597656 L 810.46875 311.144531 L 810.839844 311.6875 L 811.222656 312.222656 L 811.609375 312.75 L 812.007813 313.273438 L 812.414063 313.789063 L 812.828125 314.300781 L 813.25 314.804688 L 813.679688 315.300781 L 814.121094 315.789063 L 814.566406 316.273438 L 815.019531 316.746094 L 815.480469 317.214844 L 844.753906 287.941406 Z M 815.480469 258.667969 "/>
<path style="fill:none;stroke-width:2.25;stroke-linecap:round;stroke-linejoin:round;stroke:rgb(0%,0%,0%);stroke-opacity:1;stroke-miterlimit:10;" d="M 815.480469 317.214844 L 815.945313 317.675781 L 816.421875 318.128906 L 816.90625 318.574219 L 817.394531 319.011719 L 817.890625 319.441406 L 818.394531 319.867188 L 818.902344 320.28125 L 819.421875 320.683594 L 819.941406 321.082031 L 820.472656 321.472656 L 821.007813 321.855469 L 821.546875 322.226563 L 822.09375 322.589844 L 822.648438 322.945313 L 823.207031 323.292969 L 823.769531 323.628906 L 824.339844 323.957031 L 824.910156 324.277344 L 825.492188 324.585938 L 826.074219 324.886719 L 826.664063 325.179688 L 827.257813 325.460938 L 827.855469 325.734375 L 828.457031 326 L 829.0625 326.25 L 829.671875 326.496094 L 830.285156 326.730469 L 830.902344 326.953125 L 831.523438 327.167969 L 832.148438 327.375 L 832.773438 327.570313 L 833.402344 327.753906 L 834.039063 327.929688 L 834.671875 328.09375 L 835.3125 328.25 L 835.953125 328.394531 L 836.59375 328.527344 L 837.238281 328.652344 L 837.886719 328.765625 L 838.535156 328.871094 L 839.1875 328.964844 L 839.835938 329.046875 L 840.488281 329.121094 L 841.144531 329.183594 L 841.796875 329.234375 L 842.453125 329.277344 L 843.109375 329.308594 L 843.765625 329.328125 L 844.421875 329.339844 L 845.082031 329.339844 L 845.738281 329.328125 L 846.394531 329.308594 L 847.050781 329.277344 L 847.707031 329.234375 L 848.359375 329.183594 L 849.015625 329.121094 L 849.667969 329.046875 L 850.316406 328.964844 L 850.96875 328.871094 L 851.617188 328.765625 L 852.265625 328.652344 L 852.910156 328.527344 L 853.550781 328.394531 L 854.191406 328.25 L 854.832031 328.09375 L 855.464844 327.929688 L 856.101563 327.753906 L 856.730469 327.570313 L 857.355469 327.375 L 857.980469 327.167969 L 858.601563 326.953125 L 859.21875 326.730469 L 859.832031 326.496094 L 860.441406 326.25 L 861.046875 326 L 861.648438 325.734375 L 862.246094 325.460938 L 862.839844 325.179688 L 863.429688 324.886719 L 864.011719 324.585938 L 864.59375 324.277344 L 865.164063 323.957031 L 865.734375 323.628906 L 866.296875 323.292969 L 866.855469 322.945313 L 867.410156 322.589844 L 867.957031 322.226563 L 868.496094 321.855469 L 869.03125 321.472656 L 869.5625 321.082031 L 870.082031 320.683594 L 870.601563 320.28125 L 871.109375 319.867188 L 871.613281 319.441406 L 872.109375 319.011719 L 872.597656 318.574219 L 873.082031 318.128906 L 873.558594 317.675781 L 874.023438 317.214844 L 844.753906 287.941406 Z M 815.480469 317.214844 "/>
<path style="fill:none;stroke-width:2.25;stroke-linecap:round;stroke-linejoin:round;stroke:rgb(0%,0%,0%);stroke-opacity:1;stroke-miterlimit:10;" d="M 874.023438 317.214844 L 874.484375 316.746094 L 874.9375 316.273438 L 875.382813 315.789063 L 875.824219 315.300781 L 876.253906 314.804688 L 876.675781 314.300781 L 877.089844 313.789063 L 877.496094 313.273438 L 877.894531 312.75 L 878.28125 312.222656 L 878.664063 311.6875 L 879.035156 311.144531 L 879.398438 310.597656 L 879.753906 310.046875 L 880.101563 309.488281 L 880.4375 308.925781 L 880.765625 308.355469 L 881.085938 307.78125 L 881.398438 307.203125 L 881.699219 306.621094 L 881.988281 306.03125 L 882.269531 305.4375 L 882.542969 304.839844 L 882.808594 304.238281 L 883.0625 303.632813 L 883.304688 303.023438 L 883.539063 302.410156 L 883.765625 301.792969 L 883.980469 301.171875 L 884.183594 300.546875 L 884.378906 299.921875 L 884.566406 299.289063 L 884.738281 298.65625 L 884.90625 298.019531 L 885.058594 297.382813 L 885.203125 296.742188 L 885.339844 296.097656 L 885.464844 295.453125 L 885.578125 294.808594 L 885.679688 294.160156 L 885.773438 293.507813 L 885.855469 292.855469 L 885.929688 292.203125 L 885.992188 291.550781 L 886.042969 290.894531 L 886.085938 290.238281 L 886.117188 289.585938 L 886.136719 288.925781 L 886.148438 288.269531 L 886.148438 287.613281 L 886.136719 286.957031 L 886.117188 286.300781 L 886.085938 285.644531 L 886.042969 284.988281 L 885.992188 284.335938 L 885.929688 283.679688 L 885.855469 283.027344 L 885.773438 282.375 L 885.679688 281.726563 L 885.578125 281.078125 L 885.464844 280.429688 L 885.339844 279.785156 L 885.203125 279.144531 L 885.058594 278.5 L 884.90625 277.863281 L 884.738281 277.226563 L 884.566406 276.59375 L 884.378906 275.964844 L 884.183594 275.335938 L 883.980469 274.714844 L 883.765625 274.09375 L 883.539063 273.476563 L 883.304688 272.863281 L 883.0625 272.25 L 882.808594 271.644531 L 882.542969 271.042969 L 882.269531 270.445313 L 881.988281 269.855469 L 881.699219 269.265625 L 881.398438 268.679688 L 881.085938 268.101563 L 880.765625 267.527344 L 880.4375 266.960938 L 880.101563 266.394531 L 879.753906 265.835938 L 879.398438 265.285156 L 879.035156 264.738281 L 878.664063 264.199219 L 878.28125 263.664063 L 877.894531 263.132813 L 877.496094 262.609375 L 877.089844 262.09375 L 876.675781 261.585938 L 876.253906 261.082031 L 875.824219 260.585938 L 875.382813 260.09375 L 874.9375 259.613281 L 874.484375 259.136719 L 874.023438 258.667969 L 844.753906 287.941406 Z M 874.023438 317.214844 "/>
<path style="fill:none;stroke-width:2.25;stroke-linecap:round;stroke-linejoin:round;stroke:rgb(0%,0%,0%);stroke-opacity:1;stroke-miterlimit:10;" d="M 218.878906 459.121094 L 218.566406 458.8125 L 218.25 458.511719 L 217.929688 458.214844 L 217.601563 457.921875 L 217.269531 457.636719 L 216.933594 457.355469 L 216.59375 457.078125 L 216.25 456.808594 L 215.902344 456.542969 L 215.550781 456.285156 L 215.191406 456.027344 L 214.832031 455.78125 L 214.46875 455.539063 L 214.097656 455.300781 L 213.726563 455.070313 L 213.351563 454.847656 L 212.972656 454.625 L 212.589844 454.414063 L 212.203125 454.207031 L 211.816406 454.007813 L 211.421875 453.8125 L 211.027344 453.625 L 210.628906 453.441406 L 210.226563 453.265625 L 209.824219 453.097656 L 209.417969 452.933594 L 209.007813 452.777344 L 208.597656 452.628906 L 208.183594 452.484375 L 207.765625 452.347656 L 207.347656 452.21875 L 206.929688 452.09375 L 206.507813 451.976563 L 206.082031 451.867188 L 205.65625 451.765625 L 205.230469 451.667969 L 204.800781 451.578125 L 204.371094 451.496094 L 203.941406 451.421875 L 203.507813 451.351563 L 203.074219 451.289063 L 202.640625 451.234375 L 202.203125 451.183594 L 201.769531 451.144531 L 201.332031 451.109375 L 200.894531 451.082031 L 200.457031 451.058594 L 200.019531 451.046875 L 199.582031 451.039063 L 199.144531 451.039063 L 198.707031 451.046875 L 198.269531 451.058594 L 197.832031 451.082031 L 197.394531 451.109375 L 196.957031 451.144531 L 196.523438 451.183594 L 196.085938 451.234375 L 195.652344 451.289063 L 195.21875 451.351563 L 194.785156 451.421875 L 194.355469 451.496094 L 193.925781 451.578125 L 193.496094 451.667969 L 193.070313 451.765625 L 192.644531 451.867188 L 192.21875 451.976563 L 191.796875 452.09375 L 191.378906 452.21875 L 190.960938 452.347656 L 190.542969 452.484375 L 190.128906 452.628906 L 189.71875 452.777344 L 189.308594 452.933594 L 188.902344 453.097656 L 188.5 453.265625 L 188.097656 453.441406 L 187.699219 453.625 L 187.304688 453.8125 L 186.910156 454.007813 L 186.523438 454.207031 L 186.136719 454.414063 L 185.753906 454.625 L 185.375 454.847656 L 185 455.070313 L 184.625 455.300781 L 184.257813 455.539063 L 183.894531 455.78125 L 183.53125 456.027344 L 183.175781 456.285156 L 182.824219 456.542969 L 182.476563 456.808594 L 182.132813 457.078125 L 181.792969 457.355469 L 181.457031 457.636719 L 181.125 457.921875 L 180.796875 458.214844 L 180.476563 458.511719 L 180.160156 458.8125 L 179.847656 459.121094 L 199.363281 478.636719 Z M 218.878906 459.121094 "/>
<path style="fill:none;stroke-width:2.25;stroke-linecap:round;stroke-linejoin:round;stroke:rgb(0%,0%,0%);stroke-opacity:1;stroke-miterlimit:10;" d="M 179.847656 459.121094 L 179.539063 459.433594 L 179.238281 459.75 L 178.941406 460.070313 L 178.648438 460.398438 L 178.363281 460.730469 L 178.082031 461.066406 L 177.804688 461.40625 L 177.535156 461.75 L 177.269531 462.097656 L 177.007813 462.449219 L 176.753906 462.808594 L 176.507813 463.167969 L 176.265625 463.53125 L 176.027344 463.902344 L 175.796875 464.273438 L 175.570313 464.648438 L 175.351563 465.027344 L 175.140625 465.410156 L 174.933594 465.796875 L 174.734375 466.183594 L 174.539063 466.578125 L 174.351563 466.972656 L 174.167969 467.371094 L 173.992188 467.773438 L 173.824219 468.175781 L 173.660156 468.582031 L 173.503906 468.992188 L 173.355469 469.402344 L 173.210938 469.816406 L 173.074219 470.234375 L 172.945313 470.652344 L 172.820313 471.070313 L 172.703125 471.492188 L 172.59375 471.917969 L 172.492188 472.34375 L 172.394531 472.769531 L 172.304688 473.199219 L 172.222656 473.628906 L 172.148438 474.058594 L 172.078125 474.492188 L 172.015625 474.925781 L 171.960938 475.359375 L 171.910156 475.796875 L 171.871094 476.230469 L 171.835938 476.667969 L 171.808594 477.105469 L 171.785156 477.542969 L 171.773438 477.980469 L 171.765625 478.417969 L 171.765625 478.855469 L 171.773438 479.292969 L 171.785156 479.730469 L 171.808594 480.167969 L 171.835938 480.605469 L 171.871094 481.042969 L 171.910156 481.476563 L 171.960938 481.914063 L 172.015625 482.347656 L 172.078125 482.78125 L 172.148438 483.214844 L 172.222656 483.644531 L 172.304688 484.074219 L 172.394531 484.503906 L 172.492188 484.929688 L 172.59375 485.355469 L 172.703125 485.78125 L 172.820313 486.203125 L 172.945313 486.621094 L 173.074219 487.039063 L 173.210938 487.457031 L 173.355469 487.871094 L 173.503906 488.28125 L 173.660156 488.691406 L 173.824219 489.097656 L 173.992188 489.5 L 174.167969 489.902344 L 174.351563 490.300781 L 174.539063 490.695313 L 174.734375 491.089844 L 174.933594 491.476563 L 175.140625 491.863281 L 175.351563 492.246094 L 175.570313 492.625 L 175.796875 493 L 176.027344 493.375 L 176.265625 493.742188 L 176.507813 494.105469 L 176.753906 494.46875 L 177.007813 494.824219 L 177.269531 495.175781 L 177.535156 495.523438 L 177.804688 495.867188 L 178.082031 496.207031 L 178.363281 496.542969 L 178.648438 496.875 L 178.941406 497.203125 L 179.238281 497.523438 L 179.539063 497.839844 L 179.847656 498.152344 L 199.363281 478.636719 Z M 179.847656 459.121094 "/>
<path style="fill:none;stroke-width:2.25;stroke-linecap:round;stroke-linejoin:round;stroke:rgb(0%,0%,0%);stroke-opacity:1;stroke-miterlimit:10;" d="M 179.847656 498.152344 L 180.160156 498.460938 L 180.476563 498.761719 L 180.796875 499.058594 L 181.125 499.351563 L 181.457031 499.636719 L 181.792969 499.917969 L 182.132813 500.195313 L 182.476563 500.464844 L 182.824219 500.730469 L 183.175781 500.992188 L 183.53125 501.246094 L 183.894531 501.492188 L 184.257813 501.734375 L 184.625 501.972656 L 185 502.203125 L 185.375 502.429688 L 185.753906 502.648438 L 186.136719 502.859375 L 186.523438 503.066406 L 186.910156 503.265625 L 187.304688 503.460938 L 187.699219 503.648438 L 188.097656 503.832031 L 188.5 504.007813 L 188.902344 504.175781 L 189.308594 504.339844 L 189.71875 504.496094 L 190.128906 504.644531 L 190.542969 504.789063 L 190.960938 504.925781 L 191.378906 505.054688 L 191.796875 505.179688 L 192.21875 505.296875 L 192.644531 505.40625 L 193.070313 505.507813 L 193.496094 505.605469 L 193.925781 505.695313 L 194.355469 505.777344 L 194.785156 505.851563 L 195.21875 505.921875 L 195.652344 505.984375 L 196.085938 506.039063 L 196.523438 506.089844 L 196.957031 506.128906 L 197.394531 506.164063 L 197.832031 506.191406 L 198.269531 506.214844 L 198.707031 506.226563 L 199.144531 506.234375 L 199.582031 506.234375 L 200.019531 506.226563 L 200.457031 506.214844 L 200.894531 506.191406 L 201.332031 506.164063 L 201.769531 506.128906 L 202.203125 506.089844 L 202.640625 506.039063 L 203.074219 505.984375 L 203.507813 505.921875 L 203.941406 505.851563 L 204.371094 505.777344 L 204.800781 505.695313 L 205.230469 505.605469 L 205.65625 505.507813 L 206.082031 505.40625 L 206.507813 505.296875 L 206.929688 505.179688 L 207.347656 505.054688 L 207.765625 504.925781 L 208.183594 504.789063 L 208.597656 504.644531 L 209.007813 504.496094 L 209.417969 504.339844 L 209.824219 504.175781 L 210.226563 504.007813 L 210.628906 503.832031 L 211.027344 503.648438 L 211.421875 503.460938 L 211.816406 503.265625 L 212.203125 503.066406 L 212.589844 502.859375 L 212.972656 502.648438 L 213.351563 502.429688 L 213.726563 502.203125 L 214.097656 501.972656 L 214.46875 501.734375 L 214.832031 501.492188 L 215.191406 501.246094 L 215.550781 500.992188 L 215.902344 500.730469 L 216.25 500.464844 L 216.59375 500.195313 L 216.933594 499.917969 L 217.269531 499.636719 L 217.601563 499.351563 L 217.929688 499.058594 L 218.25 498.761719 L 218.566406 498.460938 L 218.878906 498.152344 L 199.363281 478.636719 Z M 179.847656 498.152344 "/>
<path style="fill:none;stroke-width:2.25;stroke-linecap:round;stroke-linejoin:round;stroke:rgb(0%,0%,0%);stroke-opacity:1;stroke-miterlimit:10;" d="M 218.878906 498.152344 L 219.1875 497.839844 L 219.488281 497.523438 L 219.785156 497.203125 L 220.078125 496.875 L 220.363281 496.542969 L 220.644531 496.207031 L 220.921875 495.867188 L 221.191406 495.523438 L 221.457031 495.175781 L 221.714844 494.824219 L 221.972656 494.46875 L 222.21875 494.105469 L 222.460938 493.742188 L 222.699219 493.375 L 222.929688 493 L 223.152344 492.625 L 223.375 492.246094 L 223.585938 491.863281 L 223.792969 491.476563 L 223.992188 491.089844 L 224.1875 490.695313 L 224.375 490.300781 L 224.558594 489.902344 L 224.734375 489.5 L 224.902344 489.097656 L 225.066406 488.691406 L 225.222656 488.28125 L 225.371094 487.871094 L 225.515625 487.457031 L 225.652344 487.039063 L 225.78125 486.621094 L 225.90625 486.203125 L 226.023438 485.78125 L 226.132813 485.355469 L 226.234375 484.929688 L 226.332031 484.503906 L 226.421875 484.074219 L 226.503906 483.644531 L 226.578125 483.214844 L 226.648438 482.78125 L 226.710938 482.347656 L 226.765625 481.914063 L 226.816406 481.476563 L 226.855469 481.042969 L 226.890625 480.605469 L 226.917969 480.167969 L 226.941406 479.730469 L 226.953125 479.292969 L 226.960938 478.855469 L 226.960938 478.417969 L 226.953125 477.980469 L 226.941406 477.542969 L 226.917969 477.105469 L 226.890625 476.667969 L 226.855469 476.230469 L 226.816406 475.796875 L 226.765625 475.359375 L 226.710938 474.925781 L 226.648438 474.492188 L 226.578125 474.058594 L 226.503906 473.628906 L 226.421875 473.199219 L 226.332031 472.769531 L 226.234375 472.34375 L 226.132813 471.917969 L 226.023438 471.492188 L 225.90625 471.070313 L 225.78125 470.652344 L 225.652344 470.234375 L 225.515625 469.816406 L 225.371094 469.402344 L 225.222656 468.992188 L 225.066406 468.582031 L 224.902344 468.175781 L 224.734375 467.773438 L 224.558594 467.371094 L 224.375 466.972656 L 224.1875 466.578125 L 223.992188 466.183594 L 223.792969 465.796875 L 223.585938 465.410156 L 223.375 465.027344 L 223.152344 464.648438 L 222.929688 464.273438 L 222.699219 463.902344 L 222.460938 463.53125 L 222.21875 463.167969 L 221.972656 462.808594 L 221.714844 462.449219 L 221.457031 462.097656 L 221.191406 461.75 L 220.921875 461.40625 L 220.644531 461.066406 L 220.363281 460.730469 L 220.078125 460.398438 L 219.785156 460.070313 L 219.488281 459.75 L 219.1875 459.433594 L 218.878906 459.121094 L 199.363281 478.636719 Z M 218.878906 498.152344 "/>
<path style="fill:none;stroke-width:2.25;stroke-linecap:round;stroke-linejoin:round;stroke:rgb(0%,0%,0%);stroke-opacity:1;stroke-miterlimit:10;" d="M 541.574219 459.121094 L 541.261719 458.8125 L 540.945313 458.511719 L 540.621094 458.214844 L 540.296875 457.921875 L 539.964844 457.636719 L 539.628906 457.355469 L 539.289063 457.078125 L 538.945313 456.808594 L 538.597656 456.542969 L 538.246094 456.285156 L 537.886719 456.027344 L 537.527344 455.78125 L 537.164063 455.539063 L 536.792969 455.300781 L 536.421875 455.070313 L 536.046875 454.847656 L 535.667969 454.625 L 535.285156 454.414063 L 534.898438 454.207031 L 534.507813 454.007813 L 534.117188 453.8125 L 533.722656 453.625 L 533.324219 453.441406 L 532.921875 453.265625 L 532.519531 453.097656 L 532.113281 452.933594 L 531.703125 452.777344 L 531.289063 452.628906 L 530.878906 452.484375 L 530.460938 452.347656 L 530.042969 452.21875 L 529.621094 452.09375 L 529.199219 451.976563 L 528.777344 451.867188 L 528.351563 451.765625 L 527.925781 451.667969 L 527.496094 451.578125 L 527.066406 451.496094 L 526.632813 451.421875 L 526.203125 451.351563 L 525.769531 451.289063 L 525.335938 451.234375 L 524.898438 451.183594 L 524.464844 451.144531 L 524.027344 451.109375 L 523.589844 451.082031 L 523.152344 451.058594 L 522.714844 451.046875 L 522.277344 451.039063 L 521.839844 451.039063 L 521.402344 451.046875 L 520.964844 451.058594 L 520.527344 451.082031 L 520.089844 451.109375 L 519.652344 451.144531 L 519.214844 451.183594 L 518.78125 451.234375 L 518.347656 451.289063 L 517.914063 451.351563 L 517.480469 451.421875 L 517.050781 451.496094 L 516.621094 451.578125 L 516.191406 451.667969 L 515.765625 451.765625 L 515.339844 451.867188 L 514.914063 451.976563 L 514.492188 452.09375 L 514.074219 452.21875 L 513.652344 452.347656 L 513.238281 452.484375 L 512.824219 452.628906 L 512.414063 452.777344 L 512.003906 452.933594 L 511.597656 453.097656 L 511.191406 453.265625 L 510.792969 453.441406 L 510.394531 453.625 L 510 453.8125 L 509.605469 454.007813 L 509.21875 454.207031 L 508.832031 454.414063 L 508.449219 454.625 L 507.691406 455.070313 L 507.320313 455.300781 L 506.953125 455.539063 L 506.589844 455.78125 L 506.226563 456.027344 L 505.871094 456.285156 L 505.519531 456.542969 L 505.167969 456.808594 L 504.824219 457.078125 L 504.484375 457.355469 L 504.148438 457.636719 L 503.820313 457.921875 L 503.492188 458.214844 L 503.171875 458.511719 L 502.855469 458.8125 L 502.542969 459.121094 L 522.058594 478.636719 Z M 541.574219 459.121094 "/>
<path style="fill:none;stroke-width:2.25;stroke-linecap:round;stroke-linejoin:round;stroke:rgb(0%,0%,0%);stroke-opacity:1;stroke-miterlimit:10;" d="M 502.542969 459.121094 L 502.234375 459.433594 L 501.933594 459.75 L 501.636719 460.070313 L 501.34375 460.398438 L 501.058594 460.730469 L 500.777344 461.066406 L 500.5 461.40625 L 500.230469 461.75 L 499.964844 462.097656 L 499.703125 462.449219 L 499.449219 462.808594 L 499.203125 463.167969 L 498.960938 463.53125 L 498.722656 463.902344 L 498.492188 464.273438 L 498.265625 464.648438 L 498.046875 465.027344 L 497.835938 465.410156 L 497.628906 465.796875 L 497.425781 466.183594 L 497.042969 466.972656 L 496.863281 467.371094 L 496.6875 467.773438 L 496.519531 468.175781 L 496.355469 468.582031 L 496.199219 468.992188 L 496.050781 469.402344 L 495.90625 469.816406 L 495.769531 470.234375 L 495.640625 470.652344 L 495.515625 471.070313 L 495.398438 471.492188 L 495.289063 471.917969 L 495.1875 472.34375 L 495.089844 472.769531 L 495 473.199219 L 494.917969 473.628906 L 494.839844 474.058594 L 494.773438 474.492188 L 494.710938 474.925781 L 494.652344 475.359375 L 494.605469 475.796875 L 494.5625 476.230469 L 494.527344 476.667969 L 494.5 477.105469 L 494.480469 477.542969 L 494.464844 477.980469 L 494.460938 478.417969 L 494.460938 478.855469 L 494.464844 479.292969 L 494.480469 479.730469 L 494.5 480.167969 L 494.527344 480.605469 L 494.5625 481.042969 L 494.605469 481.476563 L 494.652344 481.914063 L 494.710938 482.347656 L 494.773438 482.78125 L 494.839844 483.214844 L 494.917969 483.644531 L 495 484.074219 L 495.089844 484.503906 L 495.1875 484.929688 L 495.289063 485.355469 L 495.398438 485.78125 L 495.515625 486.203125 L 495.640625 486.621094 L 495.769531 487.039063 L 495.90625 487.457031 L 496.050781 487.871094 L 496.199219 488.28125 L 496.355469 488.691406 L 496.519531 489.097656 L 496.6875 489.5 L 496.863281 489.902344 L 497.042969 490.300781 L 497.425781 491.089844 L 497.628906 491.476563 L 497.835938 491.863281 L 498.046875 492.246094 L 498.265625 492.625 L 498.492188 493 L 498.722656 493.375 L 498.960938 493.742188 L 499.203125 494.105469 L 499.449219 494.46875 L 499.703125 494.824219 L 499.964844 495.175781 L 500.230469 495.523438 L 500.5 495.867188 L 500.777344 496.207031 L 501.058594 496.542969 L 501.34375 496.875 L 501.636719 497.203125 L 501.933594 497.523438 L 502.234375 497.839844 L 502.542969 498.152344 L 522.058594 478.636719 Z M 502.542969 459.121094 "/>
<path style="fill:none;stroke-width:2.25;stroke-linecap:round;stroke-linejoin:round;stroke:rgb(0%,0%,0%);stroke-opacity:1;stroke-miterlimit:10;" d="M 502.542969 498.152344 L 502.855469 498.460938 L 503.171875 498.761719 L 503.492188 499.058594 L 503.820313 499.351563 L 504.148438 499.636719 L 504.484375 499.917969 L 504.824219 500.195313 L 505.167969 500.464844 L 505.519531 500.730469 L 505.871094 500.992188 L 506.226563 501.246094 L 506.589844 501.492188 L 506.953125 501.734375 L 507.320313 501.972656 L 507.691406 502.203125 L 508.070313 502.429688 L 508.449219 502.648438 L 508.832031 502.859375 L 509.21875 503.066406 L 509.605469 503.265625 L 510 503.460938 L 510.394531 503.648438 L 510.792969 503.832031 L 511.191406 504.007813 L 511.597656 504.175781 L 512.003906 504.339844 L 512.414063 504.496094 L 512.824219 504.644531 L 513.238281 504.789063 L 513.652344 504.925781 L 514.074219 505.054688 L 514.492188 505.179688 L 514.914063 505.296875 L 515.339844 505.40625 L 515.765625 505.507813 L 516.191406 505.605469 L 516.621094 505.695313 L 517.050781 505.777344 L 517.480469 505.851563 L 517.914063 505.921875 L 518.347656 505.984375 L 518.78125 506.039063 L 519.214844 506.089844 L 519.652344 506.128906 L 520.089844 506.164063 L 520.527344 506.191406 L 520.964844 506.214844 L 521.402344 506.226563 L 521.839844 506.234375 L 522.277344 506.234375 L 522.714844 506.226563 L 523.152344 506.214844 L 523.589844 506.191406 L 524.027344 506.164063 L 524.464844 506.128906 L 524.898438 506.089844 L 525.335938 506.039063 L 525.769531 505.984375 L 526.203125 505.921875 L 526.632813 505.851563 L 527.066406 505.777344 L 527.496094 505.695313 L 527.925781 505.605469 L 528.351563 505.507813 L 528.777344 505.40625 L 529.199219 505.296875 L 529.621094 505.179688 L 530.042969 505.054688 L 530.460938 504.925781 L 530.878906 504.789063 L 531.289063 504.644531 L 531.703125 504.496094 L 532.113281 504.339844 L 532.519531 504.175781 L 532.921875 504.007813 L 533.324219 503.832031 L 533.722656 503.648438 L 534.117188 503.460938 L 534.507813 503.265625 L 534.898438 503.066406 L 535.285156 502.859375 L 535.667969 502.648438 L 536.046875 502.429688 L 536.421875 502.203125 L 536.792969 501.972656 L 537.164063 501.734375 L 537.527344 501.492188 L 537.886719 501.246094 L 538.246094 500.992188 L 538.597656 500.730469 L 538.945313 500.464844 L 539.289063 500.195313 L 539.628906 499.917969 L 539.964844 499.636719 L 540.296875 499.351563 L 540.621094 499.058594 L 540.945313 498.761719 L 541.261719 498.460938 L 541.574219 498.152344 L 522.058594 478.636719 Z M 502.542969 498.152344 "/>
<path style="fill:none;stroke-width:2.25;stroke-linecap:round;stroke-linejoin:round;stroke:rgb(0%,0%,0%);stroke-opacity:1;stroke-miterlimit:10;" d="M 541.574219 498.152344 L 541.878906 497.839844 L 542.183594 497.523438 L 542.480469 497.203125 L 542.769531 496.875 L 543.058594 496.542969 L 543.339844 496.207031 L 543.617188 495.867188 L 543.886719 495.523438 L 544.152344 495.175781 L 544.410156 494.824219 L 544.664063 494.46875 L 544.914063 494.105469 L 545.15625 493.742188 L 545.394531 493.375 L 545.625 493 L 545.847656 492.625 L 546.066406 492.246094 L 546.28125 491.863281 L 546.488281 491.476563 L 546.6875 491.089844 L 546.882813 490.695313 L 547.070313 490.300781 L 547.253906 489.902344 L 547.429688 489.5 L 547.597656 489.097656 L 547.761719 488.691406 L 547.917969 488.28125 L 548.066406 487.871094 L 548.210938 487.457031 L 548.347656 487.039063 L 548.476563 486.621094 L 548.597656 486.203125 L 548.714844 485.78125 L 548.824219 485.355469 L 548.929688 484.929688 L 549.027344 484.503906 L 549.117188 484.074219 L 549.199219 483.644531 L 549.273438 483.214844 L 549.34375 482.78125 L 549.40625 482.347656 L 549.460938 481.914063 L 549.507813 481.476563 L 549.550781 481.042969 L 549.585938 480.605469 L 549.613281 480.167969 L 549.632813 479.730469 L 549.648438 479.292969 L 549.65625 478.855469 L 549.65625 478.417969 L 549.648438 477.980469 L 549.632813 477.542969 L 549.613281 477.105469 L 549.585938 476.667969 L 549.550781 476.230469 L 549.507813 475.796875 L 549.460938 475.359375 L 549.40625 474.925781 L 549.34375 474.492188 L 549.273438 474.058594 L 549.199219 473.628906 L 549.117188 473.199219 L 549.027344 472.769531 L 548.929688 472.34375 L 548.824219 471.917969 L 548.714844 471.492188 L 548.597656 471.070313 L 548.476563 470.652344 L 548.347656 470.234375 L 548.210938 469.816406 L 548.066406 469.402344 L 547.917969 468.992188 L 547.761719 468.582031 L 547.597656 468.175781 L 547.429688 467.773438 L 547.253906 467.371094 L 547.070313 466.972656 L 546.882813 466.578125 L 546.6875 466.183594 L 546.488281 465.796875 L 546.28125 465.410156 L 546.066406 465.027344 L 545.847656 464.648438 L 545.625 464.273438 L 545.394531 463.902344 L 545.15625 463.53125 L 544.914063 463.167969 L 544.664063 462.808594 L 544.410156 462.449219 L 544.152344 462.097656 L 543.886719 461.75 L 543.617188 461.40625 L 543.339844 461.066406 L 543.058594 460.730469 L 542.769531 460.398438 L 542.480469 460.070313 L 542.183594 459.75 L 541.878906 459.433594 L 541.574219 459.121094 L 522.058594 478.636719 Z M 541.574219 498.152344 "/>
</g>
</svg>
