<?xml version="1.0" encoding="UTF-8"?>
<svg xmlns="http://www.w3.org/2000/svg" xmlns:xlink="http://www.w3.org/1999/xlink" width="900pt" height="602pt" viewBox="0 0 900 602" version="1.1">
<g id="surface6">
<rect x="0" y="0" width="900" height="602" style="fill:rgb(100%,100%,100%);fill-opacity:1;stroke:none;"/>
<path style="fill-rule:nonzero;fill:rgb(0%,0%,0%);fill-opacity:1;stroke-width:2.25;stroke-linecap:round;stroke-linejoin:round;stroke:rgb(0%,0%,0%);stroke-opacity:1;stroke-miterlimit:10;" d="M 262.550781 95.582031 L 221.957031 25.269531 L 140.769531 25.269531 L 100.175781 95.582031 L 140.769531 165.894531 L 221.957031 165.894531 Z M 262.550781 95.582031 "/>
<path style="fill-rule:nonzero;fill:rgb(0%,0%,0%);fill-opacity:1;stroke-width:2.25;stroke-linecap:round;stroke-linejoin:round;stroke:rgb(0%,0%,0%);stroke-opacity:1;stroke-miterlimit:10;" d="M 181.363281 176.769531 L 251.675781 136.175781 L 251.675781 54.988281 L 181.363281 14.390625 L 111.050781 54.988281 L 111.050781 136.175781 Z M 181.363281 176.769531 "/>
<path style="fill-rule:nonzero;fill:rgb(0%,0%,0%);fill-opacity:1;stroke-width:2.25;stroke-linecap:round;stroke-linejoin:round;stroke:rgb(0%,0%,0%);stroke-opacity:1;stroke-miterlimit:10;" d="M 549.246094 95.582031 L 508.652344 25.269531 L 427.464844 25.269531 L 386.867188 95.582031 L 427.464844 165.894531 L 508.652344 165.894531 Z M 549.246094 95.582031 "/>
<path style="fill-rule:nonzero;fill:rgb(0%,0%,0%);fill-opacity:1;stroke-width:2.25;stroke-linecap:round;stroke-linejoin:round;stroke:rgb(0%,0%,0%);stroke-opacity:1;stroke-miterlimit:10;" d="M 468.058594 176.769531 L 538.371094 136.175781 L 538.371094 54.988281 L 468.058594 14.390625 L 397.746094 54.988281 L 397.746094 136.175781 Z M 468.058594 176.769531 "/>
<path style="fill-rule:nonzero;fill:rgb(0%,0%,0%);fill-opacity:1;stroke-width:2.25;stroke-linecap:round;stroke-linejoin:round;stroke:rgb(0%,0%,0%);stroke-opacity:1;stroke-miterlimit:10;" d="M 835.941406 95.582031 L 795.347656 25.269531 L 714.15625 25.269531 L 673.5625 95.582031 L 714.15625 165.894531 L 795.347656 165.894531 Z M 835.941406 95.582031 "/>
<path style="fill-rule:nonzero;fill:rgb(0%,0%,0%);fill-opacity:1;stroke-width:2.25;stroke-linecap:round;stroke-linejoin:round;stroke:rgb(0%,0%,0%);stroke-opacity:1;stroke-miterlimit:10;" d="M 754.753906 176.769531 L 825.0625 136.175781 L 825.0625 54.988281 L 754.753906 14.390625 L 684.441406 54.988281 L 684.441406 136.175781 Z M 754.753906 176.769531 "/>
<path style="fill-rule:nonzero;fill:rgb(0%,0%,0%);fill-opacity:1;stroke-width:2.25;stroke-linecap:round;stroke-linejoin:round;stroke:rgb(0%,0%,0%);stroke-opacity:1;stroke-miterlimit:10;" d="M 221.957031 282.941406 L 201.660156 247.785156 L 161.066406 247.785156 L 140.769531 282.941406 L 161.066406 318.097656 L 201.660156 318.097656 Z M 221.957031 282.941406 "/>
<path style="fill-rule:nonzero;fill:rgb(0%,0%,0%);fill-opacity:1;stroke-width:2.25;stroke-linecap:round;stroke-linejoin:round;stroke:rgb(0%,0%,0%);stroke-opacity:1;stroke-miterlimit:10;" d="M 181.363281 323.535156 L 216.519531 303.238281 L 216.519531 262.644531 L 181.363281 242.347656 L 146.207031 262.644531 L 146.207031 303.238281 Z M 181.363281 323.535156 "/>
<path style="fill-rule:nonzero;fill:rgb(0%,0%,0%);fill-opacity:1;stroke-width:2.25;stroke-linecap:round;stroke-linejoin:round;stroke:rgb(0%,0%,0%);stroke-opacity:1;stroke-miterlimit:10;" d="M 508.652344 282.941406 L 488.355469 247.785156 L 447.761719 247.785156 L 427.464844 282.941406 L 447.761719 318.097656 L 488.355469 318.097656 Z M 508.652344 282.941406 "/>
<path style="fill-rule:nonzero;fill:rgb(0%,0%,0%);fill-opacity:1;stroke-width:2.25;stroke-linecap:round;stroke-linejoin:round;stroke:rgb(0%,0%,0%);stroke-opacity:1;stroke-miterlimit:10;" d="M 468.058594 323.535156 L 503.214844 303.238281 L 503.214844 262.644531 L 468.058594 242.347656 L 432.902344 262.644531 L 432.902344 303.238281 Z M 468.058594 323.535156 "/>
<path style="fill-rule:nonzero;fill:rgb(0%,0%,0%);fill-opacity:1;stroke-width:2.25;stroke-linecap:round;stroke-linejoin:round;stroke:rgb(0%,0%,0%);stroke-opacity:1;stroke-miterlimit:10;" d="M 795.347656 282.941406 L 775.050781 247.785156 L 734.453125 247.785156 L 714.15625 282.941406 L 734.453125 318.097656 L 775.050781 318.097656 Z M 795.347656 282.941406 "/>
<path style="fill-rule:nonzero;fill:rgb(0%,0%,0%);fill-opacity:1;stroke-width:2.25;stroke-linecap:round;stroke-linejoin:round;stroke:rgb(0%,0%,0%);stroke-opacity:1;stroke-miterlimit:10;" d="M 754.753906 323.535156 L 789.90625 303.238281 L 789.90625 262.644531 L 754.753906 242.347656 L 719.597656 262.644531 L 719.597656 303.238281 Z M 754.753906 323.535156 "/>
<path style="fill-rule:nonzero;fill:rgb(0%,0%,0%);fill-opacity:1;stroke-width:2.25;stroke-linecap:round;stroke-linejoin:round;stroke:rgb(0%,0%,0%);stroke-opacity:1;stroke-miterlimit:10;" d="M 208.425781 470.304688 L 194.894531 446.867188 L 167.832031 446.867188 L 154.300781 470.304688 L 167.832031 493.742188 L 194.894531 493.742188 Z M 208.425781 470.304688 "/>
<path style="fill-rule:nonzero;fill:rgb(0%,0%,0%);fill-opacity:1;stroke-width:2.25;stroke-linecap:round;stroke-linejoin:round;stroke:rgb(0%,0%,0%);stroke-opacity:1;stroke-miterlimit:10;" d="M 181.363281 497.367188 L 204.800781 483.835938 L 204.800781 456.773438 L 181.363281 443.242188 L 157.925781 456.773438 L 157.925781 483.835938 Z M 181.363281 497.367188 "/>
<path style="fill-rule:nonzero;fill:rgb(0%,0%,0%);fill-opacity:1;stroke-width:2.25;stroke-linecap:round;stroke-linejoin:round;stroke:rgb(0%,0%,0%);stroke-opacity:1;stroke-miterlimit:10;" d="M 495.121094 470.304688 L 481.589844 446.867188 L 454.527344 446.867188 L 440.996094 470.304688 L 454.527344 493.742188 L 481.589844 493.742188 Z M 495.121094 470.304688 "/>
<path style="fill-rule:nonzero;fill:rgb(0%,0%,0%);fill-opacity:1;stroke-width:2.25;stroke-linecap:round;stroke-linejoin:round;stroke:rgb(0%,0%,0%);stroke-opacity:1;stroke-miterlimit:10;" d="M 468.058594 497.367188 L 491.496094 483.835938 L 491.496094 456.773438 L 468.058594 443.242188 L 444.621094 456.773438 L 444.621094 483.835938 Z M 468.058594 497.367188 "/>
</g>
</svg>
