<?xml version="1.0" encoding="UTF-8"?>
<svg xmlns="http://www.w3.org/2000/svg" xmlns:xlink="http://www.w3.org/1999/xlink" width="1008pt" height="612pt" viewBox="0 0 1008 612" version="1.1">
<g id="surface156">
<rect x="0" y="0" width="1008" height="612" style="fill:rgb(100%,100%,100%);fill-opacity:1;stroke:none;"/>
<path style="fill-rule:nonzero;fill:rgb(0%,0%,0%);fill-opacity:1;stroke-width:2.25;stroke-linecap:round;stroke-linejoin:round;stroke:rgb(0%,0%,0%);stroke-opacity:1;stroke-miterlimit:10;" d="M 282.160156 97.246094 L 240.761719 25.542969 L 157.964844 25.542969 L 116.566406 97.246094 L 157.964844 168.953125 L 240.761719 168.953125 Z M 282.160156 97.246094 "/>
<path style="fill-rule:nonzero;fill:rgb(0%,0%,0%);fill-opacity:1;stroke-width:2.25;stroke-linecap:round;stroke-linejoin:round;stroke:rgb(0%,0%,0%);stroke-opacity:1;stroke-miterlimit:10;" d="M 199.363281 180.042969 L 271.066406 138.644531 L 271.066406 55.851563 L 199.363281 14.453125 L 127.660156 55.851563 L 127.660156 138.644531 Z M 199.363281 180.042969 "/>
<path style="fill-rule:nonzero;fill:rgb(0%,0%,0%);fill-opacity:1;stroke-width:2.25;stroke-linecap:round;stroke-linejoin:round;stroke:rgb(0%,0%,0%);stroke-opacity:1;stroke-miterlimit:10;" d="M 604.855469 97.246094 L 563.457031 25.542969 L 480.660156 25.542969 L 439.261719 97.246094 L 480.660156 168.953125 L 563.457031 168.953125 Z M 604.855469 97.246094 "/>
<path style="fill-rule:nonzero;fill:rgb(0%,0%,0%);fill-opacity:1;stroke-width:2.25;stroke-linecap:round;stroke-linejoin:round;stroke:rgb(0%,0%,0%);stroke-opacity:1;stroke-miterlimit:10;" d="M 522.058594 180.042969 L 593.761719 138.644531 L 593.761719 55.851563 L 522.058594 14.453125 L 450.355469 55.851563 L 450.355469 138.644531 Z M 522.058594 180.042969 "/>
<path style="fill-rule:nonzero;fill:rgb(0%,0%,0%);fill-opacity:1;stroke-width:2.25;stroke-linecap:round;stroke-linejoin:round;stroke:rgb(0%,0%,0%);stroke-opacity:1;stroke-miterlimit:10;" d="M 927.546875 97.246094 L 886.148438 25.542969 L 803.355469 25.542969 L 761.957031 97.246094 L 803.355469 168.953125 L 886.148438 168.953125 Z M 927.546875 97.246094 "/>
<path style="fill-rule:nonzero;fill:rgb(0%,0%,0%);fill-opacity:1;stroke-width:2.25;stroke-linecap:round;stroke-linejoin:round;stroke:rgb(0%,0%,0%);stroke-opacity:1;stroke-miterlimit:10;" d="M 844.753906 180.042969 L 916.457031 138.644531 L 916.457031 55.851563 L 844.753906 14.453125 L 773.046875 55.851563 L 773.046875 138.644531 Z M 844.753906 180.042969 "/>
<path style="fill-rule:nonzero;fill:rgb(0%,0%,0%);fill-opacity:1;stroke-width:2.25;stroke-linecap:round;stroke-linejoin:round;stroke:rgb(0%,0%,0%);stroke-opacity:1;stroke-miterlimit:10;" d="M 240.761719 287.941406 L 220.0625 252.089844 L 178.664063 252.089844 L 157.964844 287.941406 L 178.664063 323.792969 L 220.0625 323.792969 Z M 240.761719 287.941406 "/>
<path style="fill-rule:nonzero;fill:rgb(0%,0%,0%);fill-opacity:1;stroke-width:2.25;stroke-linecap:round;stroke-linejoin:round;stroke:rgb(0%,0%,0%);stroke-opacity:1;stroke-miterlimit:10;" d="M 199.363281 329.339844 L 235.214844 308.640625 L 235.214844 267.242188 L 199.363281 246.542969 L 163.511719 267.242188 L 163.511719 308.640625 Z M 199.363281 329.339844 "/>
<path style="fill-rule:nonzero;fill:rgb(0%,0%,0%);fill-opacity:1;stroke-width:2.25;stroke-linecap:round;stroke-linejoin:round;stroke:rgb(0%,0%,0%);stroke-opacity:1;stroke-miterlimit:10;" d="M 563.457031 287.941406 L 542.757813 252.089844 L 501.359375 252.089844 L 480.660156 287.941406 L 501.359375 323.792969 L 542.757813 323.792969 Z M 563.457031 287.941406 "/>
<path style="fill-rule:nonzero;fill:rgb(0%,0%,0%);fill-opacity:1;stroke-width:2.25;stroke-linecap:round;stroke-linejoin:round;stroke:rgb(0%,0%,0%);stroke-opacity:1;stroke-miterlimit:10;" d="M 522.058594 329.339844 L 557.910156 308.640625 L 557.910156 267.242188 L 522.058594 246.542969 L 486.207031 267.242188 L 486.207031 308.640625 Z M 522.058594 329.339844 "/>
<path style="fill-rule:nonzero;fill:rgb(0%,0%,0%);fill-opacity:1;stroke-width:2.25;stroke-linecap:round;stroke-linejoin:round;stroke:rgb(0%,0%,0%);stroke-opacity:1;stroke-miterlimit:10;" d="M 886.148438 287.941406 L 865.449219 252.089844 L 824.054688 252.089844 L 803.355469 287.941406 L 824.054688 323.792969 L 865.449219 323.792969 Z M 886.148438 287.941406 "/>
<path style="fill-rule:nonzero;fill:rgb(0%,0%,0%);fill-opacity:1;stroke-width:2.25;stroke-linecap:round;stroke-linejoin:round;stroke:rgb(0%,0%,0%);stroke-opacity:1;stroke-miterlimit:10;" d="M 844.753906 329.339844 L 880.605469 308.640625 L 880.605469 267.242188 L 844.753906 246.542969 L 808.898438 267.242188 L 808.898438 308.640625 Z M 844.753906 329.339844 "/>
<path style="fill-rule:nonzero;fill:rgb(0%,0%,0%);fill-opacity:1;stroke-width:2.25;stroke-linecap:round;stroke-linejoin:round;stroke:rgb(0%,0%,0%);stroke-opacity:1;stroke-miterlimit:10;" d="M 226.960938 478.636719 L 213.164063 454.734375 L 185.5625 454.734375 L 171.765625 478.636719 L 185.5625 502.539063 L 213.164063 502.539063 Z M 226.960938 478.636719 "/>
<path style="fill-rule:nonzero;fill:rgb(0%,0%,0%);fill-opacity:1;stroke-width:2.25;stroke-linecap:round;stroke-linejoin:round;stroke:rgb(0%,0%,0%);stroke-opacity:1;stroke-miterlimit:10;" d="M 199.363281 506.234375 L 223.265625 492.4375 L 223.265625 464.835938 L 199.363281 451.039063 L 175.460938 464.835938 L 175.460938 492.4375 Z M 199.363281 506.234375 "/>
<path style="fill-rule:nonzero;fill:rgb(0%,0%,0%);fill-opacity:1;stroke-width:2.25;stroke-linecap:round;stroke-linejoin:round;stroke:rgb(0%,0%,0%);stroke-opacity:1;stroke-miterlimit:10;" d="M 549.65625 478.636719 L 535.855469 454.734375 L 508.257813 454.734375 L 494.457031 478.636719 L 508.257813 502.539063 L 535.855469 502.539063 Z M 549.65625 478.636719 "/>
<path style="fill-rule:nonzero;fill:rgb(0%,0%,0%);fill-opacity:1;stroke-width:2.25;stroke-linecap:round;stroke-linejoin:round;stroke:rgb(0%,0%,0%);stroke-opacity:1;stroke-miterlimit:10;" d="M 522.058594 506.234375 L 545.957031 492.4375 L 545.957031 464.835938 L 522.058594 451.039063 L 498.15625 464.835938 L 498.15625 492.4375 Z M 522.058594 506.234375 "/>
</g>
</svg>
