<?xml version="1.0" encoding="UTF-8"?>
<svg xmlns="http://www.w3.org/2000/svg" xmlns:xlink="http://www.w3.org/1999/xlink" width="647pt" height="404pt" viewBox="0 0 647 404" version="1.1">
<g id="surface16">
<rect x="0" y="0" width="647" height="404" style="fill:rgb(100%,100%,100%);fill-opacity:1;stroke:none;"/>
<path style="fill:none;stroke-width:2.25;stroke-linecap:round;stroke-linejoin:round;stroke:rgb(0%,0%,0%);stroke-opacity:1;stroke-dasharray:9,9;stroke-miterlimit:10;" d="M 161.410156 40.371094 L 161.054688 40.019531 L 160.691406 39.675781 L 160.328125 39.335938 L 159.953125 39.003906 L 159.578125 38.679688 L 159.195313 38.359375 L 158.808594 38.042969 L 158.417969 37.734375 L 158.019531 37.433594 L 157.621094 37.140625 L 157.214844 36.851563 L 156.804688 36.566406 L 156.386719 36.289063 L 155.96875 36.023438 L 155.546875 35.757813 L 155.117188 35.503906 L 154.6875 35.253906 L 154.25 35.011719 L 153.8125 34.777344 L 153.367188 34.546875 L 152.921875 34.324219 L 152.472656 34.113281 L 152.019531 33.90625 L 151.5625 33.703125 L 151.101563 33.511719 L 150.640625 33.328125 L 150.175781 33.148438 L 149.707031 32.980469 L 149.234375 32.816406 L 148.761719 32.660156 L 148.285156 32.511719 L 147.808594 32.371094 L 147.328125 32.238281 L 146.84375 32.113281 L 146.359375 31.996094 L 145.875 31.886719 L 145.386719 31.785156 L 144.898438 31.691406 L 144.40625 31.605469 L 143.914063 31.523438 L 143.421875 31.453125 L 142.925781 31.390625 L 142.429688 31.335938 L 141.933594 31.289063 L 141.4375 31.25 L 140.941406 31.21875 L 140.441406 31.195313 L 139.945313 31.175781 L 139.445313 31.167969 L 138.949219 31.167969 L 138.449219 31.175781 L 137.949219 31.195313 L 137.453125 31.21875 L 136.957031 31.25 L 136.457031 31.289063 L 135.960938 31.335938 L 135.46875 31.390625 L 134.972656 31.453125 L 134.480469 31.523438 L 133.988281 31.605469 L 133.496094 31.691406 L 133.007813 31.785156 L 132.519531 31.886719 L 132.03125 31.996094 L 131.546875 32.113281 L 131.066406 32.238281 L 130.585938 32.371094 L 130.109375 32.511719 L 129.632813 32.660156 L 129.160156 32.816406 L 128.6875 32.980469 L 128.21875 33.148438 L 127.753906 33.328125 L 127.289063 33.511719 L 126.832031 33.703125 L 126.375 33.90625 L 125.921875 34.113281 L 125.472656 34.324219 L 125.023438 34.546875 L 124.582031 34.777344 L 124.140625 35.011719 L 123.707031 35.253906 L 123.273438 35.503906 L 122.847656 35.757813 L 122.421875 36.023438 L 122.003906 36.289063 L 121.589844 36.566406 L 121.179688 36.851563 L 120.773438 37.140625 L 120.371094 37.433594 L 119.976563 37.734375 L 119.582031 38.042969 L 119.195313 38.359375 L 118.816406 38.679688 L 118.4375 39.003906 L 118.066406 39.335938 L 117.699219 39.675781 L 117.339844 40.019531 L 116.984375 40.371094 L 139.195313 62.582031 Z M 161.410156 40.371094 "/>
<path style="fill:none;stroke-width:2.25;stroke-linecap:round;stroke-linejoin:round;stroke:rgb(0%,0%,0%);stroke-opacity:1;stroke-dasharray:9,9;stroke-miterlimit:10;" d="M 116.984375 40.371094 L 116.636719 40.722656 L 116.289063 41.085938 L 115.953125 41.453125 L 115.621094 41.824219 L 115.292969 42.199219 L 114.972656 42.582031 L 114.660156 42.96875 L 114.351563 43.359375 L 114.050781 43.757813 L 113.753906 44.15625 L 113.464844 44.5625 L 113.183594 44.972656 L 112.90625 45.390625 L 112.636719 45.808594 L 112.375 46.230469 L 112.117188 46.660156 L 111.867188 47.089844 L 111.625 47.527344 L 111.390625 47.964844 L 111.164063 48.410156 L 110.941406 48.855469 L 110.726563 49.304688 L 110.519531 49.757813 L 110.320313 50.214844 L 110.128906 50.675781 L 109.941406 51.136719 L 109.765625 51.605469 L 109.59375 52.070313 L 109.429688 52.542969 L 109.277344 53.015625 L 109.128906 53.492188 L 108.988281 53.972656 L 108.855469 54.449219 L 108.730469 54.933594 L 108.613281 55.417969 L 108.5 55.902344 L 108.398438 56.390625 L 108.304688 56.882813 L 108.21875 57.371094 L 108.140625 57.863281 L 108.070313 58.359375 L 108.007813 58.851563 L 107.949219 59.347656 L 107.902344 59.84375 L 107.863281 60.339844 L 107.832031 60.835938 L 107.808594 61.335938 L 107.792969 61.832031 L 107.785156 62.332031 L 107.785156 62.832031 L 107.792969 63.328125 L 107.808594 63.828125 L 107.832031 64.324219 L 107.863281 64.824219 L 107.902344 65.320313 L 107.949219 65.816406 L 108.007813 66.3125 L 108.070313 66.804688 L 108.140625 67.296875 L 108.21875 67.789063 L 108.304688 68.28125 L 108.398438 68.769531 L 108.5 69.257813 L 108.613281 69.746094 L 108.730469 70.230469 L 108.855469 70.710938 L 108.988281 71.191406 L 109.128906 71.671875 L 109.277344 72.144531 L 109.429688 72.621094 L 109.59375 73.089844 L 109.765625 73.558594 L 109.941406 74.023438 L 110.128906 74.488281 L 110.320313 74.945313 L 110.519531 75.402344 L 110.726563 75.855469 L 110.941406 76.308594 L 111.164063 76.753906 L 111.390625 77.195313 L 111.625 77.636719 L 111.867188 78.070313 L 112.117188 78.503906 L 112.375 78.929688 L 112.636719 79.355469 L 112.90625 79.773438 L 113.183594 80.1875 L 113.464844 80.597656 L 113.753906 81.003906 L 114.050781 81.40625 L 114.351563 81.804688 L 114.660156 82.195313 L 114.972656 82.582031 L 115.292969 82.964844 L 115.621094 83.339844 L 115.953125 83.710938 L 116.289063 84.078125 L 116.636719 84.4375 L 116.984375 84.792969 L 139.195313 62.582031 Z M 116.984375 40.371094 "/>
<path style="fill:none;stroke-width:2.25;stroke-linecap:round;stroke-linejoin:round;stroke:rgb(0%,0%,0%);stroke-opacity:1;stroke-dasharray:9,9;stroke-miterlimit:10;" d="M 116.984375 84.792969 L 117.339844 85.144531 L 117.699219 85.488281 L 118.066406 85.824219 L 118.4375 86.15625 L 118.816406 86.484375 L 119.195313 86.804688 L 119.582031 87.117188 L 119.976563 87.425781 L 120.371094 87.726563 L 120.773438 88.023438 L 121.179688 88.3125 L 121.589844 88.59375 L 122.003906 88.871094 L 122.421875 89.140625 L 122.847656 89.402344 L 123.273438 89.660156 L 123.707031 89.910156 L 124.140625 90.152344 L 124.582031 90.386719 L 125.023438 90.617188 L 125.472656 90.835938 L 125.921875 91.050781 L 126.375 91.257813 L 126.832031 91.457031 L 127.289063 91.648438 L 127.753906 91.835938 L 128.21875 92.011719 L 128.6875 92.183594 L 129.160156 92.347656 L 129.632813 92.503906 L 130.109375 92.648438 L 130.585938 92.789063 L 131.066406 92.921875 L 131.546875 93.046875 L 132.03125 93.167969 L 132.519531 93.277344 L 133.007813 93.378906 L 133.496094 93.472656 L 133.988281 93.558594 L 134.480469 93.636719 L 134.972656 93.707031 L 135.46875 93.773438 L 135.960938 93.828125 L 136.457031 93.875 L 136.957031 93.914063 L 137.453125 93.945313 L 137.949219 93.96875 L 138.449219 93.984375 L 138.949219 93.992188 L 139.445313 93.992188 L 139.945313 93.984375 L 140.441406 93.96875 L 140.941406 93.945313 L 141.4375 93.914063 L 141.933594 93.875 L 142.429688 93.828125 L 142.925781 93.773438 L 143.421875 93.707031 L 143.914063 93.636719 L 144.40625 93.558594 L 144.898438 93.472656 L 145.386719 93.378906 L 145.875 93.277344 L 146.359375 93.167969 L 146.84375 93.046875 L 147.328125 92.921875 L 147.808594 92.789063 L 148.285156 92.648438 L 148.761719 92.503906 L 149.234375 92.347656 L 149.707031 92.183594 L 150.175781 92.011719 L 150.640625 91.835938 L 151.101563 91.648438 L 151.5625 91.457031 L 152.019531 91.257813 L 152.472656 91.050781 L 152.921875 90.835938 L 153.367188 90.617188 L 153.8125 90.386719 L 154.25 90.152344 L 154.6875 89.910156 L 155.117188 89.660156 L 155.546875 89.402344 L 155.96875 89.140625 L 156.386719 88.871094 L 156.804688 88.59375 L 157.214844 88.3125 L 157.621094 88.023438 L 158.019531 87.726563 L 158.417969 87.425781 L 158.808594 87.117188 L 159.195313 86.804688 L 159.578125 86.484375 L 159.953125 86.15625 L 160.328125 85.824219 L 160.691406 85.488281 L 161.054688 85.144531 L 161.410156 84.792969 L 139.195313 62.582031 Z M 116.984375 84.792969 "/>
<path style="fill:none;stroke-width:2.25;stroke-linecap:round;stroke-linejoin:round;stroke:rgb(0%,0%,0%);stroke-opacity:1;stroke-dasharray:9,9;stroke-miterlimit:10;" d="M 161.410156 84.792969 L 161.757813 84.4375 L 162.101563 84.078125 L 162.441406 83.710938 L 162.773438 83.339844 L 163.097656 82.964844 L 163.417969 82.582031 L 163.734375 82.195313 L 164.042969 81.804688 L 164.34375 81.40625 L 164.640625 81.003906 L 164.929688 80.597656 L 165.210938 80.1875 L 165.488281 79.773438 L 165.757813 79.355469 L 166.019531 78.929688 L 166.273438 78.503906 L 166.523438 78.070313 L 166.765625 77.636719 L 167.003906 77.195313 L 167.230469 76.753906 L 167.453125 76.308594 L 167.664063 75.855469 L 167.871094 75.402344 L 168.074219 74.945313 L 168.265625 74.488281 L 168.449219 74.023438 L 168.628906 73.558594 L 168.800781 73.089844 L 168.960938 72.621094 L 169.117188 72.144531 L 169.265625 71.671875 L 169.40625 71.191406 L 169.539063 70.710938 L 169.664063 70.230469 L 169.78125 69.746094 L 169.890625 69.257813 L 169.992188 68.769531 L 170.085938 68.28125 L 170.175781 67.789063 L 170.253906 67.296875 L 170.324219 66.804688 L 170.386719 66.3125 L 170.441406 65.816406 L 170.488281 65.320313 L 170.527344 64.824219 L 170.5625 64.324219 L 170.585938 63.828125 L 170.601563 63.328125 L 170.609375 62.832031 L 170.609375 62.332031 L 170.601563 61.832031 L 170.585938 61.335938 L 170.5625 60.835938 L 170.527344 60.339844 L 170.488281 59.84375 L 170.441406 59.347656 L 170.386719 58.851563 L 170.324219 58.359375 L 170.253906 57.863281 L 170.175781 57.371094 L 170.085938 56.882813 L 169.992188 56.390625 L 169.890625 55.902344 L 169.78125 55.417969 L 169.664063 54.933594 L 169.539063 54.449219 L 169.40625 53.972656 L 169.265625 53.492188 L 169.117188 53.015625 L 168.960938 52.542969 L 168.800781 52.070313 L 168.628906 51.605469 L 168.449219 51.136719 L 168.265625 50.675781 L 168.074219 50.214844 L 167.871094 49.757813 L 167.664063 49.304688 L 167.453125 48.855469 L 167.230469 48.410156 L 167.003906 47.964844 L 166.765625 47.527344 L 166.523438 47.089844 L 166.273438 46.660156 L 166.019531 46.230469 L 165.757813 45.808594 L 165.488281 45.390625 L 165.210938 44.972656 L 164.929688 44.5625 L 164.640625 44.15625 L 164.34375 43.757813 L 164.042969 43.359375 L 163.734375 42.96875 L 163.417969 42.582031 L 163.097656 42.199219 L 162.773438 41.824219 L 162.441406 41.453125 L 162.101563 41.085938 L 161.757813 40.722656 L 161.410156 40.371094 L 139.195313 62.582031 Z M 161.410156 84.792969 "/>
<path style="fill:none;stroke-width:2.25;stroke-linecap:round;stroke-linejoin:round;stroke:rgb(0%,0%,0%);stroke-opacity:1;stroke-miterlimit:10;" d="M 363.769531 40.371094 L 363.414063 40.019531 L 363.054688 39.675781 L 362.6875 39.335938 L 362.316406 39.003906 L 361.941406 38.679688 L 361.558594 38.359375 L 361.171875 38.042969 L 360.777344 37.734375 L 360.382813 37.433594 L 359.980469 37.140625 L 359.574219 36.851563 L 359.164063 36.566406 L 358.75 36.289063 L 358.332031 36.023438 L 357.90625 35.757813 L 357.480469 35.503906 L 357.046875 35.253906 L 356.613281 35.011719 L 356.171875 34.777344 L 355.730469 34.546875 L 355.28125 34.324219 L 354.832031 34.113281 L 354.378906 33.90625 L 353.921875 33.703125 L 353.464844 33.511719 L 353 33.328125 L 352.535156 33.148438 L 352.066406 32.980469 L 351.597656 32.816406 L 351.121094 32.660156 L 350.644531 32.511719 L 350.167969 32.371094 L 349.6875 32.238281 L 349.207031 32.113281 L 348.722656 31.996094 L 348.234375 31.886719 L 347.746094 31.785156 L 347.257813 31.691406 L 346.765625 31.605469 L 346.273438 31.523438 L 345.78125 31.453125 L 345.285156 31.390625 L 344.792969 31.335938 L 344.296875 31.289063 L 343.796875 31.25 L 343.300781 31.21875 L 342.804688 31.195313 L 342.304688 31.175781 L 341.808594 31.167969 L 341.308594 31.167969 L 340.808594 31.175781 L 340.3125 31.195313 L 339.8125 31.21875 L 339.316406 31.25 L 338.820313 31.289063 L 338.324219 31.335938 L 337.828125 31.390625 L 337.332031 31.453125 L 336.839844 31.523438 L 336.347656 31.605469 L 335.859375 31.691406 L 335.367188 31.785156 L 334.878906 31.886719 L 334.394531 31.996094 L 333.910156 32.113281 L 333.425781 32.238281 L 332.945313 32.371094 L 332.46875 32.511719 L 331.992188 32.660156 L 331.519531 32.816406 L 331.046875 32.980469 L 330.578125 33.148438 L 330.113281 33.328125 L 329.652344 33.511719 L 329.191406 33.703125 L 328.734375 33.90625 L 328.28125 34.113281 L 327.832031 34.324219 L 327.386719 34.546875 L 326.941406 34.777344 L 326.503906 35.011719 L 326.066406 35.253906 L 325.636719 35.503906 L 325.207031 35.757813 L 324.785156 36.023438 L 324.367188 36.289063 L 323.949219 36.566406 L 323.539063 36.851563 L 323.132813 37.140625 L 322.734375 37.433594 L 322.335938 37.734375 L 321.945313 38.042969 L 321.558594 38.359375 L 321.175781 38.679688 L 320.800781 39.003906 L 320.425781 39.335938 L 320.0625 39.675781 L 319.699219 40.019531 L 319.34375 40.371094 L 341.558594 62.582031 Z M 363.769531 40.371094 "/>
<path style="fill:none;stroke-width:2.25;stroke-linecap:round;stroke-linejoin:round;stroke:rgb(0%,0%,0%);stroke-opacity:1;stroke-miterlimit:10;" d="M 319.34375 40.371094 L 318.996094 40.722656 L 318.652344 41.085938 L 318.3125 41.453125 L 317.980469 41.824219 L 317.65625 42.199219 L 317.335938 42.582031 L 317.019531 42.96875 L 316.710938 43.359375 L 316.410156 43.757813 L 316.113281 44.15625 L 315.824219 44.5625 L 315.542969 44.972656 L 315.265625 45.390625 L 314.996094 45.808594 L 314.734375 46.230469 L 314.480469 46.660156 L 314.230469 47.089844 L 313.988281 47.527344 L 313.753906 47.964844 L 313.523438 48.410156 L 313.300781 48.855469 L 313.089844 49.304688 L 312.882813 49.757813 L 312.679688 50.214844 L 312.488281 50.675781 L 312.304688 51.136719 L 312.125 51.605469 L 311.957031 52.070313 L 311.792969 52.542969 L 311.636719 53.015625 L 311.488281 53.492188 L 311.347656 53.972656 L 311.214844 54.449219 L 311.089844 54.933594 L 310.972656 55.417969 L 310.863281 55.902344 L 310.761719 56.390625 L 310.667969 56.882813 L 310.578125 57.371094 L 310.5 57.863281 L 310.429688 58.359375 L 310.367188 58.851563 L 310.3125 59.347656 L 310.265625 59.84375 L 310.226563 60.339844 L 310.195313 60.835938 L 310.167969 61.335938 L 310.152344 61.832031 L 310.144531 62.332031 L 310.144531 62.832031 L 310.152344 63.328125 L 310.167969 63.828125 L 310.195313 64.324219 L 310.226563 64.824219 L 310.265625 65.320313 L 310.3125 65.816406 L 310.367188 66.3125 L 310.429688 66.804688 L 310.5 67.296875 L 310.578125 67.789063 L 310.667969 68.28125 L 310.761719 68.769531 L 310.863281 69.257813 L 310.972656 69.746094 L 311.089844 70.230469 L 311.214844 70.710938 L 311.347656 71.191406 L 311.488281 71.671875 L 311.636719 72.144531 L 311.792969 72.621094 L 311.957031 73.089844 L 312.125 73.558594 L 312.304688 74.023438 L 312.488281 74.488281 L 312.679688 74.945313 L 312.882813 75.402344 L 313.089844 75.855469 L 313.300781 76.308594 L 313.523438 76.753906 L 313.753906 77.195313 L 313.988281 77.636719 L 314.230469 78.070313 L 314.480469 78.503906 L 314.734375 78.929688 L 314.996094 79.355469 L 315.265625 79.773438 L 315.542969 80.1875 L 315.824219 80.597656 L 316.113281 81.003906 L 316.410156 81.40625 L 316.710938 81.804688 L 317.019531 82.195313 L 317.335938 82.582031 L 317.65625 82.964844 L 317.980469 83.339844 L 318.3125 83.710938 L 318.652344 84.078125 L 318.996094 84.4375 L 319.34375 84.792969 L 341.558594 62.582031 Z M 319.34375 40.371094 "/>
<path style="fill:none;stroke-width:2.25;stroke-linecap:round;stroke-linejoin:round;stroke:rgb(0%,0%,0%);stroke-opacity:1;stroke-miterlimit:10;" d="M 319.34375 84.792969 L 319.699219 85.144531 L 320.0625 85.488281 L 320.425781 85.824219 L 320.800781 86.15625 L 321.175781 86.484375 L 321.558594 86.804688 L 321.945313 87.117188 L 322.335938 87.425781 L 322.734375 87.726563 L 323.132813 88.023438 L 323.539063 88.3125 L 323.949219 88.59375 L 324.367188 88.871094 L 324.785156 89.140625 L 325.207031 89.402344 L 325.636719 89.660156 L 326.066406 89.910156 L 326.503906 90.152344 L 326.941406 90.386719 L 327.386719 90.617188 L 327.832031 90.835938 L 328.28125 91.050781 L 328.734375 91.257813 L 329.191406 91.457031 L 329.652344 91.648438 L 330.113281 91.835938 L 330.578125 92.011719 L 331.046875 92.183594 L 331.519531 92.347656 L 331.992188 92.503906 L 332.46875 92.648438 L 332.945313 92.789063 L 333.425781 92.921875 L 333.910156 93.046875 L 334.394531 93.167969 L 334.878906 93.277344 L 335.367188 93.378906 L 335.859375 93.472656 L 336.347656 93.558594 L 336.839844 93.636719 L 337.332031 93.707031 L 337.828125 93.773438 L 338.324219 93.828125 L 338.820313 93.875 L 339.316406 93.914063 L 339.8125 93.945313 L 340.3125 93.96875 L 340.808594 93.984375 L 341.308594 93.992188 L 341.808594 93.992188 L 342.304688 93.984375 L 342.804688 93.96875 L 343.300781 93.945313 L 343.796875 93.914063 L 344.296875 93.875 L 344.792969 93.828125 L 345.285156 93.773438 L 345.78125 93.707031 L 346.273438 93.636719 L 346.765625 93.558594 L 347.257813 93.472656 L 347.746094 93.378906 L 348.234375 93.277344 L 348.722656 93.167969 L 349.207031 93.046875 L 349.6875 92.921875 L 350.167969 92.789063 L 350.644531 92.648438 L 351.121094 92.503906 L 351.597656 92.347656 L 352.066406 92.183594 L 352.535156 92.011719 L 353 91.835938 L 353.464844 91.648438 L 353.921875 91.457031 L 354.378906 91.257813 L 354.832031 91.050781 L 355.28125 90.835938 L 355.730469 90.617188 L 356.171875 90.386719 L 356.613281 90.152344 L 357.046875 89.910156 L 357.480469 89.660156 L 357.90625 89.402344 L 358.332031 89.140625 L 358.75 88.871094 L 359.164063 88.59375 L 359.574219 88.3125 L 359.980469 88.023438 L 360.382813 87.726563 L 360.777344 87.425781 L 361.171875 87.117188 L 361.558594 86.804688 L 361.941406 86.484375 L 362.316406 86.15625 L 362.6875 85.824219 L 363.054688 85.488281 L 363.414063 85.144531 L 363.769531 84.792969 L 341.558594 62.582031 Z M 319.34375 84.792969 "/>
<path style="fill:none;stroke-width:2.25;stroke-linecap:round;stroke-linejoin:round;stroke:rgb(0%,0%,0%);stroke-opacity:1;stroke-miterlimit:10;" d="M 363.769531 84.792969 L 364.121094 84.4375 L 364.464844 84.078125 L 364.800781 83.710938 L 365.132813 83.339844 L 365.460938 82.964844 L 365.78125 82.582031 L 366.09375 82.195313 L 366.402344 81.804688 L 366.703125 81.40625 L 367 81.003906 L 367.289063 80.597656 L 367.570313 80.1875 L 367.847656 79.773438 L 368.117188 79.355469 L 368.378906 78.929688 L 368.636719 78.503906 L 368.886719 78.070313 L 369.128906 77.636719 L 369.363281 77.195313 L 369.589844 76.753906 L 369.8125 76.308594 L 370.027344 75.855469 L 370.234375 75.402344 L 370.433594 74.945313 L 370.625 74.488281 L 370.8125 74.023438 L 370.988281 73.558594 L 371.160156 73.089844 L 371.324219 72.621094 L 371.480469 72.144531 L 371.625 71.671875 L 371.765625 71.191406 L 371.898438 70.710938 L 372.023438 70.230469 L 372.140625 69.746094 L 372.253906 69.257813 L 372.355469 68.769531 L 372.449219 68.28125 L 372.535156 67.789063 L 372.613281 67.296875 L 372.683594 66.804688 L 372.746094 66.3125 L 372.804688 65.816406 L 372.851563 65.320313 L 372.890625 64.824219 L 372.921875 64.324219 L 372.945313 63.828125 L 372.960938 63.328125 L 372.96875 62.832031 L 372.96875 62.332031 L 372.960938 61.832031 L 372.945313 61.335938 L 372.921875 60.835938 L 372.890625 60.339844 L 372.851563 59.84375 L 372.804688 59.347656 L 372.746094 58.851563 L 372.683594 58.359375 L 372.613281 57.863281 L 372.535156 57.371094 L 372.449219 56.882813 L 372.355469 56.390625 L 372.253906 55.902344 L 372.140625 55.417969 L 372.023438 54.933594 L 371.898438 54.449219 L 371.765625 53.972656 L 371.625 53.492188 L 371.480469 53.015625 L 371.324219 52.542969 L 371.160156 52.070313 L 370.988281 51.605469 L 370.8125 51.136719 L 370.625 50.675781 L 370.433594 50.214844 L 370.234375 49.757813 L 370.027344 49.304688 L 369.8125 48.855469 L 369.589844 48.410156 L 369.363281 47.964844 L 369.128906 47.527344 L 368.886719 47.089844 L 368.636719 46.660156 L 368.378906 46.230469 L 368.117188 45.808594 L 367.847656 45.390625 L 367.570313 44.972656 L 367.289063 44.5625 L 367 44.15625 L 366.703125 43.757813 L 366.402344 43.359375 L 366.09375 42.96875 L 365.78125 42.582031 L 365.460938 42.199219 L 365.132813 41.824219 L 364.800781 41.453125 L 364.464844 41.085938 L 364.121094 40.722656 L 363.769531 40.371094 L 341.558594 62.582031 Z M 363.769531 84.792969 "/>
<path style="fill:none;stroke-width:2.25;stroke-linecap:round;stroke-linejoin:round;stroke:rgb(0%,0%,0%);stroke-opacity:1;stroke-dasharray:2.25,6.75;stroke-miterlimit:10;" d="M 566.128906 40.371094 L 565.777344 40.019531 L 565.414063 39.675781 L 565.046875 39.335938 L 564.675781 39.003906 L 564.300781 38.679688 L 563.917969 38.359375 L 563.53125 38.042969 L 563.140625 37.734375 L 562.742188 37.433594 L 562.34375 37.140625 L 561.9375 36.851563 L 561.527344 36.566406 L 561.109375 36.289063 L 560.691406 36.023438 L 560.269531 35.757813 L 559.839844 35.503906 L 559.410156 35.253906 L 558.972656 35.011719 L 558.535156 34.777344 L 558.089844 34.546875 L 557.644531 34.324219 L 557.195313 34.113281 L 556.742188 33.90625 L 556.285156 33.703125 L 555.824219 33.511719 L 555.363281 33.328125 L 554.894531 33.148438 L 554.429688 32.980469 L 553.957031 32.816406 L 553.484375 32.660156 L 553.007813 32.511719 L 552.527344 32.371094 L 552.050781 32.238281 L 551.566406 32.113281 L 551.082031 31.996094 L 550.597656 31.886719 L 550.109375 31.785156 L 549.617188 31.691406 L 549.128906 31.605469 L 548.636719 31.523438 L 548.140625 31.453125 L 547.648438 31.390625 L 547.152344 31.335938 L 546.65625 31.289063 L 546.160156 31.25 L 545.664063 31.21875 L 545.164063 31.195313 L 544.667969 31.175781 L 544.167969 31.167969 L 543.667969 31.167969 L 543.171875 31.175781 L 542.671875 31.195313 L 542.175781 31.21875 L 541.675781 31.25 L 541.179688 31.289063 L 540.683594 31.335938 L 540.1875 31.390625 L 539.695313 31.453125 L 539.203125 31.523438 L 538.710938 31.605469 L 538.21875 31.691406 L 537.730469 31.785156 L 537.242188 31.886719 L 536.753906 31.996094 L 536.269531 32.113281 L 535.789063 32.238281 L 535.308594 32.371094 L 534.828125 32.511719 L 534.355469 32.660156 L 533.878906 32.816406 L 533.410156 32.980469 L 532.941406 33.148438 L 532.476563 33.328125 L 532.011719 33.511719 L 531.554688 33.703125 L 531.097656 33.90625 L 530.644531 34.113281 L 530.191406 34.324219 L 529.746094 34.546875 L 529.304688 34.777344 L 528.863281 35.011719 L 528.429688 35.253906 L 527.996094 35.503906 L 527.570313 35.757813 L 527.144531 36.023438 L 526.726563 36.289063 L 526.3125 36.566406 L 525.902344 36.851563 L 525.496094 37.140625 L 525.09375 37.433594 L 524.695313 37.734375 L 524.304688 38.042969 L 523.917969 38.359375 L 523.535156 38.679688 L 523.160156 39.003906 L 522.789063 39.335938 L 522.421875 39.675781 L 522.0625 40.019531 L 521.707031 40.371094 L 543.917969 62.582031 Z M 566.128906 40.371094 "/>
<path style="fill:none;stroke-width:2.25;stroke-linecap:round;stroke-linejoin:round;stroke:rgb(0%,0%,0%);stroke-opacity:1;stroke-dasharray:2.25,6.75;stroke-miterlimit:10;" d="M 521.707031 40.371094 L 521.355469 40.722656 L 521.011719 41.085938 L 520.675781 41.453125 L 520.34375 41.824219 L 520.015625 42.199219 L 519.695313 42.582031 L 519.382813 42.96875 L 519.074219 43.359375 L 518.773438 43.757813 L 518.476563 44.15625 L 518.1875 44.5625 L 517.90625 44.972656 L 517.628906 45.390625 L 517.359375 45.808594 L 517.097656 46.230469 L 516.839844 46.660156 L 516.589844 47.089844 L 516.347656 47.527344 L 516.113281 47.964844 L 515.882813 48.410156 L 515.664063 48.855469 L 515.449219 49.304688 L 515.242188 49.757813 L 515.042969 50.214844 L 514.851563 50.675781 L 514.664063 51.136719 L 514.488281 51.605469 L 514.316406 52.070313 L 514.152344 52.542969 L 513.996094 53.015625 L 513.851563 53.492188 L 513.710938 53.972656 L 513.578125 54.449219 L 513.453125 54.933594 L 513.332031 55.417969 L 513.222656 55.902344 L 513.121094 56.390625 L 513.027344 56.882813 L 512.941406 57.371094 L 512.863281 57.863281 L 512.792969 58.359375 L 512.726563 58.851563 L 512.671875 59.347656 L 512.625 59.84375 L 512.585938 60.339844 L 512.554688 60.835938 L 512.53125 61.335938 L 512.515625 61.832031 L 512.507813 62.332031 L 512.507813 62.832031 L 512.515625 63.328125 L 512.53125 63.828125 L 512.554688 64.324219 L 512.585938 64.824219 L 512.625 65.320313 L 512.671875 65.816406 L 512.726563 66.3125 L 512.792969 66.804688 L 512.863281 67.296875 L 512.941406 67.789063 L 513.027344 68.28125 L 513.121094 68.769531 L 513.222656 69.257813 L 513.332031 69.746094 L 513.453125 70.230469 L 513.578125 70.710938 L 513.710938 71.191406 L 513.851563 71.671875 L 513.996094 72.144531 L 514.152344 72.621094 L 514.316406 73.089844 L 514.488281 73.558594 L 514.664063 74.023438 L 514.851563 74.488281 L 515.042969 74.945313 L 515.242188 75.402344 L 515.449219 75.855469 L 515.664063 76.308594 L 515.882813 76.753906 L 516.113281 77.195313 L 516.347656 77.636719 L 516.589844 78.070313 L 516.839844 78.503906 L 517.097656 78.929688 L 517.359375 79.355469 L 517.628906 79.773438 L 517.90625 80.1875 L 518.1875 80.597656 L 518.476563 81.003906 L 518.773438 81.40625 L 519.074219 81.804688 L 519.382813 82.195313 L 519.695313 82.582031 L 520.015625 82.964844 L 520.34375 83.339844 L 520.675781 83.710938 L 521.011719 84.078125 L 521.355469 84.4375 L 521.707031 84.792969 L 543.917969 62.582031 Z M 521.707031 40.371094 "/>
<path style="fill:none;stroke-width:2.25;stroke-linecap:round;stroke-linejoin:round;stroke:rgb(0%,0%,0%);stroke-opacity:1;stroke-dasharray:2.25,6.75;stroke-miterlimit:10;" d="M 521.707031 84.792969 L 522.0625 85.144531 L 522.421875 85.488281 L 522.789063 85.824219 L 523.160156 86.15625 L 523.535156 86.484375 L 523.917969 86.804688 L 524.304688 87.117188 L 524.695313 87.425781 L 525.09375 87.726563 L 525.496094 88.023438 L 525.902344 88.3125 L 526.3125 88.59375 L 526.726563 88.871094 L 527.144531 89.140625 L 527.570313 89.402344 L 527.996094 89.660156 L 528.429688 89.910156 L 528.863281 90.152344 L 529.304688 90.386719 L 529.746094 90.617188 L 530.191406 90.835938 L 530.644531 91.050781 L 531.097656 91.257813 L 531.554688 91.457031 L 532.011719 91.648438 L 532.476563 91.835938 L 532.941406 92.011719 L 533.410156 92.183594 L 533.878906 92.347656 L 534.355469 92.503906 L 534.828125 92.648438 L 535.308594 92.789063 L 535.789063 92.921875 L 536.269531 93.046875 L 536.753906 93.167969 L 537.242188 93.277344 L 537.730469 93.378906 L 538.21875 93.472656 L 538.710938 93.558594 L 539.203125 93.636719 L 539.695313 93.707031 L 540.1875 93.773438 L 540.683594 93.828125 L 541.179688 93.875 L 541.675781 93.914063 L 542.175781 93.945313 L 542.671875 93.96875 L 543.171875 93.984375 L 543.667969 93.992188 L 544.167969 93.992188 L 544.667969 93.984375 L 545.164063 93.96875 L 545.664063 93.945313 L 546.160156 93.914063 L 546.65625 93.875 L 547.152344 93.828125 L 547.648438 93.773438 L 548.140625 93.707031 L 548.636719 93.636719 L 549.128906 93.558594 L 549.617188 93.472656 L 550.109375 93.378906 L 550.597656 93.277344 L 551.082031 93.167969 L 551.566406 93.046875 L 552.050781 92.921875 L 552.527344 92.789063 L 553.007813 92.648438 L 553.484375 92.503906 L 553.957031 92.347656 L 554.429688 92.183594 L 554.894531 92.011719 L 555.363281 91.835938 L 555.824219 91.648438 L 556.285156 91.457031 L 556.742188 91.257813 L 557.195313 91.050781 L 557.644531 90.835938 L 558.089844 90.617188 L 558.535156 90.386719 L 558.972656 90.152344 L 559.410156 89.910156 L 559.839844 89.660156 L 560.269531 89.402344 L 560.691406 89.140625 L 561.109375 88.871094 L 561.527344 88.59375 L 561.9375 88.3125 L 562.34375 88.023438 L 562.742188 87.726563 L 563.140625 87.425781 L 563.53125 87.117188 L 563.917969 86.804688 L 564.300781 86.484375 L 564.675781 86.15625 L 565.046875 85.824219 L 565.414063 85.488281 L 565.777344 85.144531 L 566.128906 84.792969 L 543.917969 62.582031 Z M 521.707031 84.792969 "/>
<path style="fill:none;stroke-width:2.25;stroke-linecap:round;stroke-linejoin:round;stroke:rgb(0%,0%,0%);stroke-opacity:1;stroke-dasharray:2.25,6.75;stroke-miterlimit:10;" d="M 566.128906 84.792969 L 566.480469 84.4375 L 566.824219 84.078125 L 567.164063 83.710938 L 567.496094 83.339844 L 567.820313 82.964844 L 568.140625 82.582031 L 568.457031 82.195313 L 568.765625 81.804688 L 569.066406 81.40625 L 569.359375 81.003906 L 569.648438 80.597656 L 569.933594 80.1875 L 570.210938 79.773438 L 570.476563 79.355469 L 570.742188 78.929688 L 570.996094 78.503906 L 571.246094 78.070313 L 571.488281 77.636719 L 571.722656 77.195313 L 571.953125 76.753906 L 572.175781 76.308594 L 572.386719 75.855469 L 572.59375 75.402344 L 572.796875 74.945313 L 572.988281 74.488281 L 573.171875 74.023438 L 573.351563 73.558594 L 573.519531 73.089844 L 573.683594 72.621094 L 573.839844 72.144531 L 573.988281 71.671875 L 574.128906 71.191406 L 574.261719 70.710938 L 574.386719 70.230469 L 574.503906 69.746094 L 574.613281 69.257813 L 574.714844 68.769531 L 574.808594 68.28125 L 574.894531 67.789063 L 574.976563 67.296875 L 575.046875 66.804688 L 575.109375 66.3125 L 575.164063 65.816406 L 575.210938 65.320313 L 575.25 64.824219 L 575.28125 64.324219 L 575.304688 63.828125 L 575.324219 63.328125 L 575.332031 62.832031 L 575.332031 62.332031 L 575.324219 61.832031 L 575.304688 61.335938 L 575.28125 60.835938 L 575.25 60.339844 L 575.210938 59.84375 L 575.164063 59.347656 L 575.109375 58.851563 L 575.046875 58.359375 L 574.976563 57.863281 L 574.894531 57.371094 L 574.808594 56.882813 L 574.714844 56.390625 L 574.613281 55.902344 L 574.503906 55.417969 L 574.386719 54.933594 L 574.261719 54.449219 L 574.128906 53.972656 L 573.988281 53.492188 L 573.839844 53.015625 L 573.683594 52.542969 L 573.519531 52.070313 L 573.351563 51.605469 L 573.171875 51.136719 L 572.988281 50.675781 L 572.796875 50.214844 L 572.59375 49.757813 L 572.386719 49.304688 L 572.175781 48.855469 L 571.953125 48.410156 L 571.722656 47.964844 L 571.488281 47.527344 L 571.246094 47.089844 L 570.996094 46.660156 L 570.742188 46.230469 L 570.476563 45.808594 L 570.210938 45.390625 L 569.933594 44.972656 L 569.648438 44.5625 L 569.359375 44.15625 L 569.066406 43.757813 L 568.765625 43.359375 L 568.457031 42.96875 L 568.140625 42.582031 L 567.820313 42.199219 L 567.496094 41.824219 L 567.164063 41.453125 L 566.824219 41.085938 L 566.480469 40.722656 L 566.128906 40.371094 L 543.917969 62.582031 Z M 566.128906 84.792969 "/>
<path style="fill:none;stroke-width:2.25;stroke-linecap:round;stroke-linejoin:round;stroke:rgb(0%,0%,0%);stroke-opacity:1;stroke-dasharray:9,9;stroke-miterlimit:10;" d="M 161.410156 161.730469 L 161.054688 161.378906 L 160.691406 161.035156 L 160.328125 160.699219 L 159.953125 160.367188 L 159.578125 160.039063 L 159.195313 159.71875 L 158.808594 159.40625 L 158.417969 159.097656 L 158.019531 158.796875 L 157.621094 158.5 L 157.214844 158.210938 L 156.804688 157.929688 L 156.386719 157.652344 L 155.96875 157.382813 L 155.546875 157.121094 L 155.117188 156.863281 L 154.6875 156.613281 L 154.25 156.371094 L 153.8125 156.136719 L 153.367188 155.910156 L 152.921875 155.6875 L 152.472656 155.472656 L 152.019531 155.265625 L 151.5625 155.066406 L 151.101563 154.875 L 150.640625 154.6875 L 150.175781 154.511719 L 149.707031 154.339844 L 149.234375 154.175781 L 148.761719 154.019531 L 148.285156 153.875 L 147.808594 153.734375 L 147.328125 153.601563 L 146.84375 153.476563 L 146.359375 153.359375 L 145.875 153.246094 L 145.386719 153.144531 L 144.898438 153.050781 L 144.40625 152.964844 L 143.914063 152.886719 L 143.421875 152.816406 L 142.925781 152.753906 L 142.429688 152.695313 L 141.933594 152.648438 L 141.4375 152.609375 L 140.941406 152.578125 L 140.441406 152.554688 L 139.945313 152.539063 L 139.445313 152.53125 L 138.949219 152.53125 L 138.449219 152.539063 L 137.949219 152.554688 L 137.453125 152.578125 L 136.957031 152.609375 L 136.457031 152.648438 L 135.960938 152.695313 L 135.46875 152.753906 L 134.972656 152.816406 L 134.480469 152.886719 L 133.988281 152.964844 L 133.496094 153.050781 L 133.007813 153.144531 L 132.519531 153.246094 L 132.03125 153.359375 L 131.546875 153.476563 L 131.066406 153.601563 L 130.585938 153.734375 L 130.109375 153.875 L 129.632813 154.019531 L 129.160156 154.175781 L 128.6875 154.339844 L 128.21875 154.511719 L 127.753906 154.6875 L 127.289063 154.875 L 126.832031 155.066406 L 126.375 155.265625 L 125.921875 155.472656 L 125.472656 155.6875 L 125.023438 155.910156 L 124.582031 156.136719 L 124.140625 156.371094 L 123.707031 156.613281 L 123.273438 156.863281 L 122.847656 157.121094 L 122.421875 157.382813 L 122.003906 157.652344 L 121.589844 157.929688 L 121.179688 158.210938 L 120.773438 158.5 L 120.371094 158.796875 L 119.976563 159.097656 L 119.582031 159.40625 L 119.195313 159.71875 L 118.816406 160.039063 L 118.4375 160.367188 L 118.066406 160.699219 L 117.699219 161.035156 L 117.339844 161.378906 L 116.984375 161.730469 L 139.195313 183.941406 Z M 161.410156 161.730469 "/>
<path style="fill:none;stroke-width:2.25;stroke-linecap:round;stroke-linejoin:round;stroke:rgb(0%,0%,0%);stroke-opacity:1;stroke-dasharray:9,9;stroke-miterlimit:10;" d="M 116.984375 161.730469 L 116.636719 162.085938 L 116.289063 162.445313 L 115.953125 162.8125 L 115.621094 163.183594 L 115.292969 163.558594 L 114.972656 163.941406 L 114.660156 164.328125 L 114.351563 164.722656 L 114.050781 165.117188 L 113.753906 165.519531 L 113.464844 165.925781 L 113.183594 166.335938 L 112.90625 166.75 L 112.636719 167.167969 L 112.375 167.59375 L 112.117188 168.019531 L 111.867188 168.453125 L 111.625 168.886719 L 111.390625 169.328125 L 111.164063 169.769531 L 110.941406 170.21875 L 110.726563 170.667969 L 110.519531 171.121094 L 110.320313 171.578125 L 110.128906 172.035156 L 109.941406 172.5 L 109.765625 172.964844 L 109.59375 173.433594 L 109.429688 173.902344 L 109.277344 174.378906 L 109.128906 174.855469 L 108.988281 175.332031 L 108.855469 175.8125 L 108.730469 176.292969 L 108.613281 176.777344 L 108.5 177.265625 L 108.398438 177.753906 L 108.304688 178.242188 L 108.21875 178.734375 L 108.140625 179.226563 L 108.070313 179.71875 L 108.007813 180.214844 L 107.949219 180.707031 L 107.902344 181.203125 L 107.863281 181.703125 L 107.832031 182.199219 L 107.808594 182.695313 L 107.792969 183.195313 L 107.785156 183.691406 L 107.785156 184.191406 L 107.792969 184.691406 L 107.808594 185.1875 L 107.832031 185.6875 L 107.863281 186.183594 L 107.902344 186.679688 L 107.949219 187.175781 L 108.007813 187.671875 L 108.070313 188.167969 L 108.140625 188.660156 L 108.21875 189.152344 L 108.304688 189.640625 L 108.398438 190.132813 L 108.5 190.621094 L 108.613281 191.105469 L 108.730469 191.589844 L 108.855469 192.074219 L 108.988281 192.554688 L 109.128906 193.03125 L 109.277344 193.507813 L 109.429688 193.980469 L 109.59375 194.453125 L 109.765625 194.921875 L 109.941406 195.386719 L 110.128906 195.847656 L 110.320313 196.308594 L 110.519531 196.765625 L 110.726563 197.21875 L 110.941406 197.667969 L 111.164063 198.113281 L 111.390625 198.558594 L 111.625 198.996094 L 111.867188 199.433594 L 112.117188 199.863281 L 112.375 200.292969 L 112.636719 200.714844 L 112.90625 201.132813 L 113.183594 201.550781 L 113.464844 201.960938 L 113.753906 202.367188 L 114.050781 202.765625 L 114.351563 203.164063 L 114.660156 203.554688 L 114.972656 203.941406 L 115.292969 204.324219 L 115.621094 204.699219 L 115.953125 205.074219 L 116.289063 205.4375 L 116.636719 205.800781 L 116.984375 206.15625 L 139.195313 183.941406 Z M 116.984375 161.730469 "/>
<path style="fill:none;stroke-width:2.25;stroke-linecap:round;stroke-linejoin:round;stroke:rgb(0%,0%,0%);stroke-opacity:1;stroke-dasharray:9,9;stroke-miterlimit:10;" d="M 116.984375 206.15625 L 117.339844 206.503906 L 117.699219 206.847656 L 118.066406 207.1875 L 118.4375 207.519531 L 118.816406 207.84375 L 119.195313 208.164063 L 119.582031 208.480469 L 119.976563 208.789063 L 120.371094 209.089844 L 120.773438 209.386719 L 121.179688 209.675781 L 121.589844 209.957031 L 122.003906 210.234375 L 122.421875 210.503906 L 122.847656 210.765625 L 123.273438 211.019531 L 123.707031 211.269531 L 124.140625 211.511719 L 124.582031 211.746094 L 125.023438 211.976563 L 125.472656 212.199219 L 125.921875 212.410156 L 126.375 212.617188 L 126.832031 212.820313 L 127.289063 213.011719 L 127.753906 213.195313 L 128.21875 213.375 L 128.6875 213.542969 L 129.160156 213.707031 L 129.632813 213.863281 L 130.109375 214.011719 L 130.585938 214.152344 L 131.066406 214.285156 L 131.546875 214.410156 L 132.03125 214.527344 L 132.519531 214.636719 L 133.007813 214.738281 L 133.496094 214.832031 L 133.988281 214.921875 L 134.480469 215 L 134.972656 215.070313 L 135.46875 215.132813 L 135.960938 215.1875 L 136.457031 215.234375 L 136.957031 215.273438 L 137.453125 215.304688 L 137.949219 215.332031 L 138.449219 215.347656 L 138.949219 215.355469 L 139.445313 215.355469 L 139.945313 215.347656 L 140.441406 215.332031 L 140.941406 215.304688 L 141.4375 215.273438 L 141.933594 215.234375 L 142.429688 215.1875 L 142.925781 215.132813 L 143.421875 215.070313 L 143.914063 215 L 144.40625 214.921875 L 144.898438 214.832031 L 145.386719 214.738281 L 145.875 214.636719 L 146.359375 214.527344 L 146.84375 214.410156 L 147.328125 214.285156 L 147.808594 214.152344 L 148.285156 214.011719 L 148.761719 213.863281 L 149.234375 213.707031 L 149.707031 213.542969 L 150.175781 213.375 L 150.640625 213.195313 L 151.101563 213.011719 L 151.5625 212.820313 L 152.019531 212.617188 L 152.472656 212.410156 L 152.921875 212.199219 L 153.367188 211.976563 L 153.8125 211.746094 L 154.25 211.511719 L 154.6875 211.269531 L 155.117188 211.019531 L 155.546875 210.765625 L 155.96875 210.503906 L 156.386719 210.234375 L 156.804688 209.957031 L 157.214844 209.675781 L 157.621094 209.386719 L 158.019531 209.089844 L 158.417969 208.789063 L 158.808594 208.480469 L 159.195313 208.164063 L 159.578125 207.84375 L 159.953125 207.519531 L 160.328125 207.1875 L 160.691406 206.847656 L 161.054688 206.503906 L 161.410156 206.15625 L 139.195313 183.941406 Z M 116.984375 206.15625 "/>
<path style="fill:none;stroke-width:2.25;stroke-linecap:round;stroke-linejoin:round;stroke:rgb(0%,0%,0%);stroke-opacity:1;stroke-dasharray:9,9;stroke-miterlimit:10;" d="M 161.410156 206.15625 L 161.757813 205.800781 L 162.101563 205.4375 L 162.441406 205.074219 L 162.773438 204.699219 L 163.097656 204.324219 L 163.417969 203.941406 L 163.734375 203.554688 L 164.042969 203.164063 L 164.34375 202.765625 L 164.640625 202.367188 L 164.929688 201.960938 L 165.210938 201.550781 L 165.488281 201.132813 L 165.757813 200.714844 L 166.019531 200.292969 L 166.273438 199.863281 L 166.523438 199.433594 L 166.765625 198.996094 L 167.003906 198.558594 L 167.230469 198.113281 L 167.453125 197.667969 L 167.664063 197.21875 L 167.871094 196.765625 L 168.074219 196.308594 L 168.265625 195.847656 L 168.449219 195.386719 L 168.628906 194.921875 L 168.800781 194.453125 L 168.960938 193.980469 L 169.117188 193.507813 L 169.265625 193.03125 L 169.40625 192.554688 L 169.539063 192.074219 L 169.664063 191.589844 L 169.78125 191.105469 L 169.890625 190.621094 L 169.992188 190.132813 L 170.085938 189.640625 L 170.175781 189.152344 L 170.253906 188.660156 L 170.324219 188.167969 L 170.386719 187.671875 L 170.441406 187.175781 L 170.488281 186.679688 L 170.527344 186.183594 L 170.5625 185.6875 L 170.585938 185.1875 L 170.601563 184.691406 L 170.609375 184.191406 L 170.609375 183.691406 L 170.601563 183.195313 L 170.585938 182.695313 L 170.5625 182.199219 L 170.527344 181.703125 L 170.488281 181.203125 L 170.441406 180.707031 L 170.386719 180.214844 L 170.324219 179.71875 L 170.253906 179.226563 L 170.175781 178.734375 L 170.085938 178.242188 L 169.992188 177.753906 L 169.890625 177.265625 L 169.78125 176.777344 L 169.664063 176.292969 L 169.539063 175.8125 L 169.40625 175.332031 L 169.265625 174.855469 L 169.117188 174.378906 L 168.960938 173.902344 L 168.800781 173.433594 L 168.628906 172.964844 L 168.449219 172.5 L 168.265625 172.035156 L 168.074219 171.578125 L 167.871094 171.121094 L 167.664063 170.667969 L 167.453125 170.21875 L 167.230469 169.769531 L 167.003906 169.328125 L 166.765625 168.886719 L 166.523438 168.453125 L 166.273438 168.019531 L 166.019531 167.59375 L 165.757813 167.167969 L 165.488281 166.75 L 165.210938 166.335938 L 164.929688 165.925781 L 164.640625 165.519531 L 164.34375 165.117188 L 164.042969 164.722656 L 163.734375 164.328125 L 163.417969 163.941406 L 163.097656 163.558594 L 162.773438 163.183594 L 162.441406 162.8125 L 162.101563 162.445313 L 161.757813 162.085938 L 161.410156 161.730469 L 139.195313 183.941406 Z M 161.410156 206.15625 "/>
<path style="fill:none;stroke-width:2.25;stroke-linecap:round;stroke-linejoin:round;stroke:rgb(0%,0%,0%);stroke-opacity:1;stroke-miterlimit:10;" d="M 363.769531 161.730469 L 363.414063 161.378906 L 363.054688 161.035156 L 362.6875 160.699219 L 362.316406 160.367188 L 361.941406 160.039063 L 361.558594 159.71875 L 361.171875 159.40625 L 360.777344 159.097656 L 360.382813 158.796875 L 359.980469 158.5 L 359.574219 158.210938 L 359.164063 157.929688 L 358.75 157.652344 L 358.332031 157.382813 L 357.90625 157.121094 L 357.480469 156.863281 L 357.046875 156.613281 L 356.613281 156.371094 L 356.171875 156.136719 L 355.730469 155.910156 L 355.28125 155.6875 L 354.832031 155.472656 L 354.378906 155.265625 L 353.921875 155.066406 L 353.464844 154.875 L 353 154.6875 L 352.535156 154.511719 L 352.066406 154.339844 L 351.597656 154.175781 L 351.121094 154.019531 L 350.644531 153.875 L 350.167969 153.734375 L 349.6875 153.601563 L 349.207031 153.476563 L 348.722656 153.359375 L 348.234375 153.246094 L 347.746094 153.144531 L 347.257813 153.050781 L 346.765625 152.964844 L 346.273438 152.886719 L 345.78125 152.816406 L 345.285156 152.753906 L 344.792969 152.695313 L 344.296875 152.648438 L 343.796875 152.609375 L 343.300781 152.578125 L 342.804688 152.554688 L 342.304688 152.539063 L 341.808594 152.53125 L 341.308594 152.53125 L 340.808594 152.539063 L 340.3125 152.554688 L 339.8125 152.578125 L 339.316406 152.609375 L 338.820313 152.648438 L 338.324219 152.695313 L 337.828125 152.753906 L 337.332031 152.816406 L 336.839844 152.886719 L 336.347656 152.964844 L 335.859375 153.050781 L 335.367188 153.144531 L 334.878906 153.246094 L 334.394531 153.359375 L 333.910156 153.476563 L 333.425781 153.601563 L 332.945313 153.734375 L 332.46875 153.875 L 331.992188 154.019531 L 331.519531 154.175781 L 331.046875 154.339844 L 330.578125 154.511719 L 330.113281 154.6875 L 329.652344 154.875 L 329.191406 155.066406 L 328.734375 155.265625 L 328.28125 155.472656 L 327.832031 155.6875 L 327.386719 155.910156 L 326.941406 156.136719 L 326.503906 156.371094 L 326.066406 156.613281 L 325.636719 156.863281 L 325.207031 157.121094 L 324.785156 157.382813 L 324.367188 157.652344 L 323.949219 157.929688 L 323.539063 158.210938 L 323.132813 158.5 L 322.734375 158.796875 L 322.335938 159.097656 L 321.945313 159.40625 L 321.558594 159.71875 L 321.175781 160.039063 L 320.800781 160.367188 L 320.425781 160.699219 L 320.0625 161.035156 L 319.699219 161.378906 L 319.34375 161.730469 L 341.558594 183.941406 Z M 363.769531 161.730469 "/>
<path style="fill:none;stroke-width:2.25;stroke-linecap:round;stroke-linejoin:round;stroke:rgb(0%,0%,0%);stroke-opacity:1;stroke-miterlimit:10;" d="M 319.34375 161.730469 L 318.996094 162.085938 L 318.652344 162.445313 L 318.3125 162.8125 L 317.980469 163.183594 L 317.65625 163.558594 L 317.335938 163.941406 L 317.019531 164.328125 L 316.710938 164.722656 L 316.410156 165.117188 L 316.113281 165.519531 L 315.824219 165.925781 L 315.542969 166.335938 L 315.265625 166.75 L 314.996094 167.167969 L 314.734375 167.59375 L 314.480469 168.019531 L 314.230469 168.453125 L 313.988281 168.886719 L 313.753906 169.328125 L 313.523438 169.769531 L 313.300781 170.21875 L 313.089844 170.667969 L 312.882813 171.121094 L 312.679688 171.578125 L 312.488281 172.035156 L 312.304688 172.5 L 312.125 172.964844 L 311.957031 173.433594 L 311.792969 173.902344 L 311.636719 174.378906 L 311.488281 174.855469 L 311.347656 175.332031 L 311.214844 175.8125 L 311.089844 176.292969 L 310.972656 176.777344 L 310.863281 177.265625 L 310.761719 177.753906 L 310.667969 178.242188 L 310.578125 178.734375 L 310.5 179.226563 L 310.429688 179.71875 L 310.367188 180.214844 L 310.3125 180.707031 L 310.265625 181.203125 L 310.226563 181.703125 L 310.195313 182.199219 L 310.167969 182.695313 L 310.152344 183.195313 L 310.144531 183.691406 L 310.144531 184.191406 L 310.152344 184.691406 L 310.167969 185.1875 L 310.195313 185.6875 L 310.226563 186.183594 L 310.265625 186.679688 L 310.3125 187.175781 L 310.367188 187.671875 L 310.429688 188.167969 L 310.5 188.660156 L 310.578125 189.152344 L 310.667969 189.640625 L 310.761719 190.132813 L 310.863281 190.621094 L 310.972656 191.105469 L 311.089844 191.589844 L 311.214844 192.074219 L 311.347656 192.554688 L 311.488281 193.03125 L 311.636719 193.507813 L 311.792969 193.980469 L 311.957031 194.453125 L 312.125 194.921875 L 312.304688 195.386719 L 312.488281 195.847656 L 312.679688 196.308594 L 312.882813 196.765625 L 313.089844 197.21875 L 313.300781 197.667969 L 313.523438 198.113281 L 313.753906 198.558594 L 313.988281 198.996094 L 314.230469 199.433594 L 314.480469 199.863281 L 314.734375 200.292969 L 314.996094 200.714844 L 315.265625 201.132813 L 315.542969 201.550781 L 315.824219 201.960938 L 316.113281 202.367188 L 316.410156 202.765625 L 316.710938 203.164063 L 317.019531 203.554688 L 317.335938 203.941406 L 317.65625 204.324219 L 317.980469 204.699219 L 318.3125 205.074219 L 318.652344 205.4375 L 318.996094 205.800781 L 319.34375 206.15625 L 341.558594 183.941406 Z M 319.34375 161.730469 "/>
<path style="fill:none;stroke-width:2.25;stroke-linecap:round;stroke-linejoin:round;stroke:rgb(0%,0%,0%);stroke-opacity:1;stroke-miterlimit:10;" d="M 319.34375 206.15625 L 319.699219 206.503906 L 320.0625 206.847656 L 320.425781 207.1875 L 320.800781 207.519531 L 321.175781 207.84375 L 321.558594 208.164063 L 321.945313 208.480469 L 322.335938 208.789063 L 322.734375 209.089844 L 323.132813 209.386719 L 323.539063 209.675781 L 323.949219 209.957031 L 324.367188 210.234375 L 324.785156 210.503906 L 325.207031 210.765625 L 325.636719 211.019531 L 326.066406 211.269531 L 326.503906 211.511719 L 326.941406 211.746094 L 327.386719 211.976563 L 327.832031 212.199219 L 328.28125 212.410156 L 328.734375 212.617188 L 329.191406 212.820313 L 329.652344 213.011719 L 330.113281 213.195313 L 330.578125 213.375 L 331.046875 213.542969 L 331.519531 213.707031 L 331.992188 213.863281 L 332.46875 214.011719 L 332.945313 214.152344 L 333.425781 214.285156 L 333.910156 214.410156 L 334.394531 214.527344 L 334.878906 214.636719 L 335.367188 214.738281 L 335.859375 214.832031 L 336.347656 214.921875 L 336.839844 215 L 337.332031 215.070313 L 337.828125 215.132813 L 338.324219 215.1875 L 338.820313 215.234375 L 339.316406 215.273438 L 339.8125 215.304688 L 340.3125 215.332031 L 340.808594 215.347656 L 341.308594 215.355469 L 341.808594 215.355469 L 342.304688 215.347656 L 342.804688 215.332031 L 343.300781 215.304688 L 343.796875 215.273438 L 344.296875 215.234375 L 344.792969 215.1875 L 345.285156 215.132813 L 345.78125 215.070313 L 346.273438 215 L 346.765625 214.921875 L 347.257813 214.832031 L 347.746094 214.738281 L 348.234375 214.636719 L 348.722656 214.527344 L 349.207031 214.410156 L 349.6875 214.285156 L 350.167969 214.152344 L 350.644531 214.011719 L 351.121094 213.863281 L 351.597656 213.707031 L 352.066406 213.542969 L 352.535156 213.375 L 353 213.195313 L 353.464844 213.011719 L 353.921875 212.820313 L 354.378906 212.617188 L 354.832031 212.410156 L 355.28125 212.199219 L 355.730469 211.976563 L 356.171875 211.746094 L 356.613281 211.511719 L 357.046875 211.269531 L 357.480469 211.019531 L 357.90625 210.765625 L 358.332031 210.503906 L 358.75 210.234375 L 359.164063 209.957031 L 359.574219 209.675781 L 359.980469 209.386719 L 360.382813 209.089844 L 360.777344 208.789063 L 361.171875 208.480469 L 361.558594 208.164063 L 361.941406 207.84375 L 362.316406 207.519531 L 362.6875 207.1875 L 363.054688 206.847656 L 363.414063 206.503906 L 363.769531 206.15625 L 341.558594 183.941406 Z M 319.34375 206.15625 "/>
<path style="fill:none;stroke-width:2.25;stroke-linecap:round;stroke-linejoin:round;stroke:rgb(0%,0%,0%);stroke-opacity:1;stroke-miterlimit:10;" d="M 363.769531 206.15625 L 364.121094 205.800781 L 364.464844 205.4375 L 364.800781 205.074219 L 365.132813 204.699219 L 365.460938 204.324219 L 365.78125 203.941406 L 366.09375 203.554688 L 366.402344 203.164063 L 366.703125 202.765625 L 367 202.367188 L 367.289063 201.960938 L 367.570313 201.550781 L 367.847656 201.132813 L 368.117188 200.714844 L 368.378906 200.292969 L 368.636719 199.863281 L 368.886719 199.433594 L 369.128906 198.996094 L 369.363281 198.558594 L 369.589844 198.113281 L 369.8125 197.667969 L 370.027344 197.21875 L 370.234375 196.765625 L 370.433594 196.308594 L 370.625 195.847656 L 370.8125 195.386719 L 370.988281 194.921875 L 371.160156 194.453125 L 371.324219 193.980469 L 371.480469 193.507813 L 371.625 193.03125 L 371.765625 192.554688 L 371.898438 192.074219 L 372.023438 191.589844 L 372.140625 191.105469 L 372.253906 190.621094 L 372.355469 190.132813 L 372.449219 189.640625 L 372.535156 189.152344 L 372.613281 188.660156 L 372.683594 188.167969 L 372.746094 187.671875 L 372.804688 187.175781 L 372.851563 186.679688 L 372.890625 186.183594 L 372.921875 185.6875 L 372.945313 185.1875 L 372.960938 184.691406 L 372.96875 184.191406 L 372.96875 183.691406 L 372.960938 183.195313 L 372.945313 182.695313 L 372.921875 182.199219 L 372.890625 181.703125 L 372.851563 181.203125 L 372.804688 180.707031 L 372.746094 180.214844 L 372.683594 179.71875 L 372.613281 179.226563 L 372.535156 178.734375 L 372.449219 178.242188 L 372.355469 177.753906 L 372.253906 177.265625 L 372.140625 176.777344 L 372.023438 176.292969 L 371.898438 175.8125 L 371.765625 175.332031 L 371.625 174.855469 L 371.480469 174.378906 L 371.324219 173.902344 L 371.160156 173.433594 L 370.988281 172.964844 L 370.8125 172.5 L 370.625 172.035156 L 370.433594 171.578125 L 370.234375 171.121094 L 370.027344 170.667969 L 369.8125 170.21875 L 369.589844 169.769531 L 369.363281 169.328125 L 369.128906 168.886719 L 368.886719 168.453125 L 368.636719 168.019531 L 368.378906 167.59375 L 368.117188 167.167969 L 367.847656 166.75 L 367.570313 166.335938 L 367.289063 165.925781 L 367 165.519531 L 366.703125 165.117188 L 366.402344 164.722656 L 366.09375 164.328125 L 365.78125 163.941406 L 365.460938 163.558594 L 365.132813 163.183594 L 364.800781 162.8125 L 364.464844 162.445313 L 364.121094 162.085938 L 363.769531 161.730469 L 341.558594 183.941406 Z M 363.769531 206.15625 "/>
<path style="fill:none;stroke-width:2.25;stroke-linecap:round;stroke-linejoin:round;stroke:rgb(0%,0%,0%);stroke-opacity:1;stroke-dasharray:2.25,6.75;stroke-miterlimit:10;" d="M 566.128906 161.730469 L 565.777344 161.378906 L 565.414063 161.035156 L 565.046875 160.699219 L 564.675781 160.367188 L 564.300781 160.039063 L 563.917969 159.71875 L 563.53125 159.40625 L 563.140625 159.097656 L 562.742188 158.796875 L 562.34375 158.5 L 561.9375 158.210938 L 561.527344 157.929688 L 561.109375 157.652344 L 560.691406 157.382813 L 560.269531 157.121094 L 559.839844 156.863281 L 559.410156 156.613281 L 558.972656 156.371094 L 558.535156 156.136719 L 558.089844 155.910156 L 557.644531 155.6875 L 557.195313 155.472656 L 556.742188 155.265625 L 556.285156 155.066406 L 555.824219 154.875 L 555.363281 154.6875 L 554.894531 154.511719 L 554.429688 154.339844 L 553.957031 154.175781 L 553.484375 154.019531 L 553.007813 153.875 L 552.527344 153.734375 L 552.050781 153.601563 L 551.566406 153.476563 L 551.082031 153.359375 L 550.597656 153.246094 L 550.109375 153.144531 L 549.617188 153.050781 L 549.128906 152.964844 L 548.636719 152.886719 L 548.140625 152.816406 L 547.648438 152.753906 L 547.152344 152.695313 L 546.65625 152.648438 L 546.160156 152.609375 L 545.664063 152.578125 L 545.164063 152.554688 L 544.667969 152.539063 L 544.167969 152.53125 L 543.667969 152.53125 L 543.171875 152.539063 L 542.671875 152.554688 L 542.175781 152.578125 L 541.675781 152.609375 L 541.179688 152.648438 L 540.683594 152.695313 L 540.1875 152.753906 L 539.695313 152.816406 L 539.203125 152.886719 L 538.710938 152.964844 L 538.21875 153.050781 L 537.730469 153.144531 L 537.242188 153.246094 L 536.753906 153.359375 L 536.269531 153.476563 L 535.789063 153.601563 L 535.308594 153.734375 L 534.828125 153.875 L 534.355469 154.019531 L 533.878906 154.175781 L 533.410156 154.339844 L 532.941406 154.511719 L 532.476563 154.6875 L 532.011719 154.875 L 531.554688 155.066406 L 531.097656 155.265625 L 530.644531 155.472656 L 530.191406 155.6875 L 529.746094 155.910156 L 529.304688 156.136719 L 528.863281 156.371094 L 528.429688 156.613281 L 527.996094 156.863281 L 527.570313 157.121094 L 527.144531 157.382813 L 526.726563 157.652344 L 526.3125 157.929688 L 525.902344 158.210938 L 525.496094 158.5 L 525.09375 158.796875 L 524.695313 159.097656 L 524.304688 159.40625 L 523.917969 159.71875 L 523.535156 160.039063 L 523.160156 160.367188 L 522.789063 160.699219 L 522.421875 161.035156 L 522.0625 161.378906 L 521.707031 161.730469 L 543.917969 183.941406 Z M 566.128906 161.730469 "/>
<path style="fill:none;stroke-width:2.25;stroke-linecap:round;stroke-linejoin:round;stroke:rgb(0%,0%,0%);stroke-opacity:1;stroke-dasharray:2.25,6.75;stroke-miterlimit:10;" d="M 521.707031 161.730469 L 521.355469 162.085938 L 521.011719 162.445313 L 520.675781 162.8125 L 520.34375 163.183594 L 520.015625 163.558594 L 519.695313 163.941406 L 519.382813 164.328125 L 519.074219 164.722656 L 518.773438 165.117188 L 518.476563 165.519531 L 518.1875 165.925781 L 517.90625 166.335938 L 517.628906 166.75 L 517.359375 167.167969 L 517.097656 167.59375 L 516.839844 168.019531 L 516.589844 168.453125 L 516.347656 168.886719 L 516.113281 169.328125 L 515.882813 169.769531 L 515.664063 170.21875 L 515.449219 170.667969 L 515.242188 171.121094 L 515.042969 171.578125 L 514.851563 172.035156 L 514.664063 172.5 L 514.488281 172.964844 L 514.316406 173.433594 L 514.152344 173.902344 L 513.996094 174.378906 L 513.851563 174.855469 L 513.710938 175.332031 L 513.578125 175.8125 L 513.453125 176.292969 L 513.332031 176.777344 L 513.222656 177.265625 L 513.121094 177.753906 L 513.027344 178.242188 L 512.941406 178.734375 L 512.863281 179.226563 L 512.792969 179.71875 L 512.726563 180.214844 L 512.671875 180.707031 L 512.625 181.203125 L 512.585938 181.703125 L 512.554688 182.199219 L 512.53125 182.695313 L 512.515625 183.195313 L 512.507813 183.691406 L 512.507813 184.191406 L 512.515625 184.691406 L 512.53125 185.1875 L 512.554688 185.6875 L 512.585938 186.183594 L 512.625 186.679688 L 512.671875 187.175781 L 512.726563 187.671875 L 512.792969 188.167969 L 512.863281 188.660156 L 512.941406 189.152344 L 513.027344 189.640625 L 513.121094 190.132813 L 513.222656 190.621094 L 513.332031 191.105469 L 513.453125 191.589844 L 513.578125 192.074219 L 513.710938 192.554688 L 513.851563 193.03125 L 513.996094 193.507813 L 514.152344 193.980469 L 514.316406 194.453125 L 514.488281 194.921875 L 514.664063 195.386719 L 514.851563 195.847656 L 515.042969 196.308594 L 515.242188 196.765625 L 515.449219 197.21875 L 515.664063 197.667969 L 515.882813 198.113281 L 516.113281 198.558594 L 516.347656 198.996094 L 516.589844 199.433594 L 516.839844 199.863281 L 517.097656 200.292969 L 517.359375 200.714844 L 517.628906 201.132813 L 517.90625 201.550781 L 518.1875 201.960938 L 518.476563 202.367188 L 518.773438 202.765625 L 519.074219 203.164063 L 519.382813 203.554688 L 519.695313 203.941406 L 520.015625 204.324219 L 520.34375 204.699219 L 520.675781 205.074219 L 521.011719 205.4375 L 521.355469 205.800781 L 521.707031 206.15625 L 543.917969 183.941406 Z M 521.707031 161.730469 "/>
<path style="fill:none;stroke-width:2.25;stroke-linecap:round;stroke-linejoin:round;stroke:rgb(0%,0%,0%);stroke-opacity:1;stroke-dasharray:2.25,6.75;stroke-miterlimit:10;" d="M 521.707031 206.15625 L 522.0625 206.503906 L 522.421875 206.847656 L 522.789063 207.1875 L 523.160156 207.519531 L 523.535156 207.84375 L 523.917969 208.164063 L 524.304688 208.480469 L 524.695313 208.789063 L 525.09375 209.089844 L 525.496094 209.386719 L 525.902344 209.675781 L 526.3125 209.957031 L 526.726563 210.234375 L 527.144531 210.503906 L 527.570313 210.765625 L 527.996094 211.019531 L 528.429688 211.269531 L 528.863281 211.511719 L 529.304688 211.746094 L 529.746094 211.976563 L 530.191406 212.199219 L 530.644531 212.410156 L 531.097656 212.617188 L 531.554688 212.820313 L 532.011719 213.011719 L 532.476563 213.195313 L 532.941406 213.375 L 533.410156 213.542969 L 533.878906 213.707031 L 534.355469 213.863281 L 534.828125 214.011719 L 535.308594 214.152344 L 535.789063 214.285156 L 536.269531 214.410156 L 536.753906 214.527344 L 537.242188 214.636719 L 537.730469 214.738281 L 538.21875 214.832031 L 538.710938 214.921875 L 539.203125 215 L 539.695313 215.070313 L 540.1875 215.132813 L 540.683594 215.1875 L 541.179688 215.234375 L 541.675781 215.273438 L 542.175781 215.304688 L 542.671875 215.332031 L 543.171875 215.347656 L 543.667969 215.355469 L 544.167969 215.355469 L 544.667969 215.347656 L 545.164063 215.332031 L 545.664063 215.304688 L 546.160156 215.273438 L 546.65625 215.234375 L 547.152344 215.1875 L 547.648438 215.132813 L 548.140625 215.070313 L 548.636719 215 L 549.128906 214.921875 L 549.617188 214.832031 L 550.109375 214.738281 L 550.597656 214.636719 L 551.082031 214.527344 L 551.566406 214.410156 L 552.050781 214.285156 L 552.527344 214.152344 L 553.007813 214.011719 L 553.484375 213.863281 L 553.957031 213.707031 L 554.429688 213.542969 L 554.894531 213.375 L 555.363281 213.195313 L 555.824219 213.011719 L 556.285156 212.820313 L 556.742188 212.617188 L 557.195313 212.410156 L 557.644531 212.199219 L 558.089844 211.976563 L 558.535156 211.746094 L 558.972656 211.511719 L 559.410156 211.269531 L 559.839844 211.019531 L 560.269531 210.765625 L 560.691406 210.503906 L 561.109375 210.234375 L 561.527344 209.957031 L 561.9375 209.675781 L 562.34375 209.386719 L 562.742188 209.089844 L 563.140625 208.789063 L 563.53125 208.480469 L 563.917969 208.164063 L 564.300781 207.84375 L 564.675781 207.519531 L 565.046875 207.1875 L 565.414063 206.847656 L 565.777344 206.503906 L 566.128906 206.15625 L 543.917969 183.941406 Z M 521.707031 206.15625 "/>
<path style="fill:none;stroke-width:2.25;stroke-linecap:round;stroke-linejoin:round;stroke:rgb(0%,0%,0%);stroke-opacity:1;stroke-dasharray:2.25,6.75;stroke-miterlimit:10;" d="M 566.128906 206.15625 L 566.480469 205.800781 L 566.824219 205.4375 L 567.164063 205.074219 L 567.496094 204.699219 L 567.820313 204.324219 L 568.140625 203.941406 L 568.457031 203.554688 L 568.765625 203.164063 L 569.066406 202.765625 L 569.359375 202.367188 L 569.648438 201.960938 L 569.933594 201.550781 L 570.210938 201.132813 L 570.476563 200.714844 L 570.742188 200.292969 L 570.996094 199.863281 L 571.246094 199.433594 L 571.488281 198.996094 L 571.722656 198.558594 L 571.953125 198.113281 L 572.175781 197.667969 L 572.386719 197.21875 L 572.59375 196.765625 L 572.796875 196.308594 L 572.988281 195.847656 L 573.171875 195.386719 L 573.351563 194.921875 L 573.519531 194.453125 L 573.683594 193.980469 L 573.839844 193.507813 L 573.988281 193.03125 L 574.128906 192.554688 L 574.261719 192.074219 L 574.386719 191.589844 L 574.503906 191.105469 L 574.613281 190.621094 L 574.714844 190.132813 L 574.808594 189.640625 L 574.894531 189.152344 L 574.976563 188.660156 L 575.046875 188.167969 L 575.109375 187.671875 L 575.164063 187.175781 L 575.210938 186.679688 L 575.25 186.183594 L 575.28125 185.6875 L 575.304688 185.1875 L 575.324219 184.691406 L 575.332031 184.191406 L 575.332031 183.691406 L 575.324219 183.195313 L 575.304688 182.695313 L 575.28125 182.199219 L 575.25 181.703125 L 575.210938 181.203125 L 575.164063 180.707031 L 575.109375 180.214844 L 575.046875 179.71875 L 574.976563 179.226563 L 574.894531 178.734375 L 574.808594 178.242188 L 574.714844 177.753906 L 574.613281 177.265625 L 574.503906 176.777344 L 574.386719 176.292969 L 574.261719 175.8125 L 574.128906 175.332031 L 573.988281 174.855469 L 573.839844 174.378906 L 573.683594 173.902344 L 573.519531 173.433594 L 573.351563 172.964844 L 573.171875 172.5 L 572.988281 172.035156 L 572.796875 171.578125 L 572.59375 171.121094 L 572.386719 170.667969 L 572.175781 170.21875 L 571.953125 169.769531 L 571.722656 169.328125 L 571.488281 168.886719 L 571.246094 168.453125 L 570.996094 168.019531 L 570.742188 167.59375 L 570.476563 167.167969 L 570.210938 166.75 L 569.933594 166.335938 L 569.648438 165.925781 L 569.359375 165.519531 L 569.066406 165.117188 L 568.765625 164.722656 L 568.457031 164.328125 L 568.140625 163.941406 L 567.820313 163.558594 L 567.496094 163.183594 L 567.164063 162.8125 L 566.824219 162.445313 L 566.480469 162.085938 L 566.128906 161.730469 L 543.917969 183.941406 Z M 566.128906 206.15625 "/>
<path style="fill:none;stroke-width:2.25;stroke-linecap:round;stroke-linejoin:round;stroke:rgb(0%,0%,0%);stroke-opacity:1;stroke-dasharray:9,9;stroke-miterlimit:10;" d="M 161.410156 283.089844 L 161.054688 282.742188 L 160.691406 282.398438 L 160.328125 282.058594 L 159.953125 281.726563 L 159.578125 281.402344 L 159.195313 281.082031 L 158.808594 280.765625 L 158.417969 280.457031 L 158.019531 280.15625 L 157.621094 279.859375 L 157.214844 279.570313 L 156.804688 279.289063 L 156.386719 279.011719 L 155.96875 278.742188 L 155.546875 278.480469 L 155.117188 278.226563 L 154.6875 277.976563 L 154.25 277.734375 L 153.8125 277.496094 L 153.367188 277.269531 L 152.921875 277.046875 L 152.472656 276.835938 L 152.019531 276.628906 L 151.5625 276.425781 L 151.101563 276.234375 L 150.640625 276.050781 L 150.175781 275.871094 L 149.707031 275.699219 L 149.234375 275.539063 L 148.761719 275.382813 L 148.285156 275.234375 L 147.808594 275.09375 L 147.328125 274.960938 L 146.84375 274.835938 L 146.359375 274.71875 L 145.875 274.609375 L 145.386719 274.507813 L 144.898438 274.414063 L 144.40625 274.324219 L 143.914063 274.246094 L 143.421875 274.175781 L 142.925781 274.113281 L 142.429688 274.058594 L 141.933594 274.011719 L 141.4375 273.972656 L 140.941406 273.9375 L 140.441406 273.914063 L 139.945313 273.898438 L 139.445313 273.890625 L 138.949219 273.890625 L 138.449219 273.898438 L 137.949219 273.914063 L 137.453125 273.9375 L 136.957031 273.972656 L 136.457031 274.011719 L 135.960938 274.058594 L 135.46875 274.113281 L 134.972656 274.175781 L 134.480469 274.246094 L 133.988281 274.324219 L 133.496094 274.414063 L 133.007813 274.507813 L 132.519531 274.609375 L 132.03125 274.71875 L 131.546875 274.835938 L 131.066406 274.960938 L 130.585938 275.09375 L 130.109375 275.234375 L 129.632813 275.382813 L 129.160156 275.539063 L 128.6875 275.699219 L 128.21875 275.871094 L 127.753906 276.050781 L 127.289063 276.234375 L 126.832031 276.425781 L 126.375 276.628906 L 125.921875 276.835938 L 125.472656 277.046875 L 125.023438 277.269531 L 124.582031 277.496094 L 124.140625 277.734375 L 123.707031 277.976563 L 123.273438 278.226563 L 122.847656 278.480469 L 122.421875 278.742188 L 122.003906 279.011719 L 121.589844 279.289063 L 121.179688 279.570313 L 120.773438 279.859375 L 120.371094 280.15625 L 119.976563 280.457031 L 119.582031 280.765625 L 119.195313 281.082031 L 118.816406 281.402344 L 118.4375 281.726563 L 118.066406 282.058594 L 117.699219 282.398438 L 117.339844 282.742188 L 116.984375 283.089844 L 139.195313 305.304688 Z M 161.410156 283.089844 "/>
<path style="fill:none;stroke-width:2.25;stroke-linecap:round;stroke-linejoin:round;stroke:rgb(0%,0%,0%);stroke-opacity:1;stroke-dasharray:9,9;stroke-miterlimit:10;" d="M 116.984375 283.089844 L 116.636719 283.445313 L 116.289063 283.808594 L 115.953125 284.171875 L 115.621094 284.546875 L 115.292969 284.921875 L 114.972656 285.304688 L 114.660156 285.691406 L 114.351563 286.082031 L 114.050781 286.480469 L 113.753906 286.878906 L 113.464844 287.285156 L 113.183594 287.695313 L 112.90625 288.113281 L 112.636719 288.53125 L 112.375 288.953125 L 112.117188 289.382813 L 111.867188 289.8125 L 111.625 290.25 L 111.390625 290.6875 L 111.164063 291.132813 L 110.941406 291.578125 L 110.726563 292.027344 L 110.519531 292.480469 L 110.320313 292.9375 L 110.128906 293.398438 L 109.941406 293.859375 L 109.765625 294.324219 L 109.59375 294.792969 L 109.429688 295.265625 L 109.277344 295.738281 L 109.128906 296.214844 L 108.988281 296.691406 L 108.855469 297.171875 L 108.730469 297.65625 L 108.613281 298.140625 L 108.5 298.625 L 108.398438 299.113281 L 108.304688 299.601563 L 108.21875 300.09375 L 108.140625 300.585938 L 108.070313 301.078125 L 108.007813 301.574219 L 107.949219 302.070313 L 107.902344 302.566406 L 107.863281 303.0625 L 107.832031 303.558594 L 107.808594 304.058594 L 107.792969 304.554688 L 107.785156 305.054688 L 107.785156 305.550781 L 107.792969 306.050781 L 107.808594 306.550781 L 107.832031 307.046875 L 107.863281 307.542969 L 107.902344 308.042969 L 107.949219 308.539063 L 108.007813 309.03125 L 108.070313 309.527344 L 108.140625 310.019531 L 108.21875 310.511719 L 108.304688 311.003906 L 108.398438 311.492188 L 108.5 311.980469 L 108.613281 312.46875 L 108.730469 312.953125 L 108.855469 313.433594 L 108.988281 313.914063 L 109.128906 314.390625 L 109.277344 314.867188 L 109.429688 315.339844 L 109.59375 315.8125 L 109.765625 316.28125 L 109.941406 316.746094 L 110.128906 317.210938 L 110.320313 317.667969 L 110.519531 318.125 L 110.726563 318.578125 L 110.941406 319.027344 L 111.164063 319.476563 L 111.390625 319.917969 L 111.625 320.359375 L 111.867188 320.792969 L 112.117188 321.226563 L 112.375 321.652344 L 112.636719 322.078125 L 112.90625 322.496094 L 113.183594 322.910156 L 113.464844 323.320313 L 113.753906 323.726563 L 114.050781 324.128906 L 114.351563 324.523438 L 114.660156 324.917969 L 114.972656 325.304688 L 115.292969 325.683594 L 115.621094 326.0625 L 115.953125 326.433594 L 116.289063 326.800781 L 116.636719 327.160156 L 116.984375 327.515625 L 139.195313 305.304688 Z M 116.984375 283.089844 "/>
<path style="fill:none;stroke-width:2.25;stroke-linecap:round;stroke-linejoin:round;stroke:rgb(0%,0%,0%);stroke-opacity:1;stroke-dasharray:9,9;stroke-miterlimit:10;" d="M 116.984375 327.515625 L 117.339844 327.863281 L 117.699219 328.210938 L 118.066406 328.546875 L 118.4375 328.878906 L 118.816406 329.207031 L 119.195313 329.527344 L 119.582031 329.839844 L 119.976563 330.148438 L 120.371094 330.449219 L 120.773438 330.746094 L 121.179688 331.035156 L 121.589844 331.316406 L 122.003906 331.59375 L 122.421875 331.863281 L 122.847656 332.125 L 123.273438 332.382813 L 123.707031 332.632813 L 124.140625 332.875 L 124.582031 333.109375 L 125.023438 333.335938 L 125.472656 333.558594 L 125.921875 333.773438 L 126.375 333.980469 L 126.832031 334.179688 L 127.289063 334.371094 L 127.753906 334.558594 L 128.21875 334.734375 L 128.6875 334.90625 L 129.160156 335.070313 L 129.632813 335.222656 L 130.109375 335.371094 L 130.585938 335.511719 L 131.066406 335.644531 L 131.546875 335.769531 L 132.03125 335.886719 L 132.519531 336 L 133.007813 336.101563 L 133.496094 336.195313 L 133.988281 336.28125 L 134.480469 336.359375 L 134.972656 336.429688 L 135.46875 336.492188 L 135.960938 336.550781 L 136.457031 336.597656 L 136.957031 336.636719 L 137.453125 336.667969 L 137.949219 336.691406 L 138.449219 336.707031 L 138.949219 336.714844 L 139.445313 336.714844 L 139.945313 336.707031 L 140.441406 336.691406 L 140.941406 336.667969 L 141.4375 336.636719 L 141.933594 336.597656 L 142.429688 336.550781 L 142.925781 336.492188 L 143.421875 336.429688 L 143.914063 336.359375 L 144.40625 336.28125 L 144.898438 336.195313 L 145.386719 336.101563 L 145.875 336 L 146.359375 335.886719 L 146.84375 335.769531 L 147.328125 335.644531 L 147.808594 335.511719 L 148.285156 335.371094 L 148.761719 335.222656 L 149.234375 335.070313 L 149.707031 334.90625 L 150.175781 334.734375 L 150.640625 334.558594 L 151.101563 334.371094 L 151.5625 334.179688 L 152.019531 333.980469 L 152.472656 333.773438 L 152.921875 333.558594 L 153.367188 333.335938 L 153.8125 333.109375 L 154.25 332.875 L 154.6875 332.632813 L 155.117188 332.382813 L 155.546875 332.125 L 155.96875 331.863281 L 156.386719 331.59375 L 156.804688 331.316406 L 157.214844 331.035156 L 157.621094 330.746094 L 158.019531 330.449219 L 158.417969 330.148438 L 158.808594 329.839844 L 159.195313 329.527344 L 159.578125 329.207031 L 159.953125 328.878906 L 160.328125 328.546875 L 160.691406 328.210938 L 161.054688 327.863281 L 161.410156 327.515625 L 139.195313 305.304688 Z M 116.984375 327.515625 "/>
<path style="fill:none;stroke-width:2.25;stroke-linecap:round;stroke-linejoin:round;stroke:rgb(0%,0%,0%);stroke-opacity:1;stroke-dasharray:9,9;stroke-miterlimit:10;" d="M 161.410156 327.515625 L 161.757813 327.160156 L 162.101563 326.800781 L 162.441406 326.433594 L 162.773438 326.0625 L 163.097656 325.683594 L 163.417969 325.304688 L 163.734375 324.917969 L 164.042969 324.523438 L 164.34375 324.128906 L 164.640625 323.726563 L 164.929688 323.320313 L 165.210938 322.910156 L 165.488281 322.496094 L 165.757813 322.078125 L 166.019531 321.652344 L 166.273438 321.226563 L 166.523438 320.792969 L 166.765625 320.359375 L 167.003906 319.917969 L 167.230469 319.476563 L 167.453125 319.027344 L 167.664063 318.578125 L 167.871094 318.125 L 168.074219 317.667969 L 168.265625 317.210938 L 168.449219 316.746094 L 168.628906 316.28125 L 168.800781 315.8125 L 168.960938 315.339844 L 169.117188 314.867188 L 169.265625 314.390625 L 169.40625 313.914063 L 169.539063 313.433594 L 169.664063 312.953125 L 169.78125 312.46875 L 169.890625 311.980469 L 169.992188 311.492188 L 170.085938 311.003906 L 170.175781 310.511719 L 170.253906 310.019531 L 170.324219 309.527344 L 170.386719 309.03125 L 170.441406 308.539063 L 170.488281 308.042969 L 170.527344 307.542969 L 170.5625 307.046875 L 170.585938 306.550781 L 170.601563 306.050781 L 170.609375 305.550781 L 170.609375 305.054688 L 170.601563 304.554688 L 170.585938 304.058594 L 170.5625 303.558594 L 170.527344 303.0625 L 170.488281 302.566406 L 170.441406 302.070313 L 170.386719 301.574219 L 170.324219 301.078125 L 170.253906 300.585938 L 170.175781 300.09375 L 170.085938 299.601563 L 169.992188 299.113281 L 169.890625 298.625 L 169.78125 298.140625 L 169.664063 297.65625 L 169.539063 297.171875 L 169.40625 296.691406 L 169.265625 296.214844 L 169.117188 295.738281 L 168.960938 295.265625 L 168.800781 294.792969 L 168.628906 294.324219 L 168.449219 293.859375 L 168.265625 293.398438 L 168.074219 292.9375 L 167.871094 292.480469 L 167.664063 292.027344 L 167.453125 291.578125 L 167.230469 291.132813 L 167.003906 290.6875 L 166.765625 290.25 L 166.523438 289.8125 L 166.273438 289.382813 L 166.019531 288.953125 L 165.757813 288.53125 L 165.488281 288.113281 L 165.210938 287.695313 L 164.929688 287.285156 L 164.640625 286.878906 L 164.34375 286.480469 L 164.042969 286.082031 L 163.734375 285.691406 L 163.417969 285.304688 L 163.097656 284.921875 L 162.773438 284.546875 L 162.441406 284.171875 L 162.101563 283.808594 L 161.757813 283.445313 L 161.410156 283.089844 L 139.195313 305.304688 Z M 161.410156 327.515625 "/>
<path style="fill:none;stroke-width:2.25;stroke-linecap:round;stroke-linejoin:round;stroke:rgb(0%,0%,0%);stroke-opacity:1;stroke-miterlimit:10;" d="M 363.769531 283.089844 L 363.414063 282.742188 L 363.054688 282.398438 L 362.6875 282.058594 L 362.316406 281.726563 L 361.941406 281.402344 L 361.558594 281.082031 L 361.171875 280.765625 L 360.777344 280.457031 L 360.382813 280.15625 L 359.980469 279.859375 L 359.574219 279.570313 L 359.164063 279.289063 L 358.75 279.011719 L 358.332031 278.742188 L 357.90625 278.480469 L 357.480469 278.226563 L 357.046875 277.976563 L 356.613281 277.734375 L 356.171875 277.496094 L 355.730469 277.269531 L 355.28125 277.046875 L 354.832031 276.835938 L 354.378906 276.628906 L 353.921875 276.425781 L 353.464844 276.234375 L 353 276.050781 L 352.535156 275.871094 L 352.066406 275.699219 L 351.597656 275.539063 L 351.121094 275.382813 L 350.644531 275.234375 L 350.167969 275.09375 L 349.6875 274.960938 L 349.207031 274.835938 L 348.722656 274.71875 L 348.234375 274.609375 L 347.746094 274.507813 L 347.257813 274.414063 L 346.765625 274.324219 L 346.273438 274.246094 L 345.78125 274.175781 L 345.285156 274.113281 L 344.792969 274.058594 L 344.296875 274.011719 L 343.796875 273.972656 L 343.300781 273.9375 L 342.804688 273.914063 L 342.304688 273.898438 L 341.808594 273.890625 L 341.308594 273.890625 L 340.808594 273.898438 L 340.3125 273.914063 L 339.8125 273.9375 L 339.316406 273.972656 L 338.820313 274.011719 L 338.324219 274.058594 L 337.828125 274.113281 L 337.332031 274.175781 L 336.839844 274.246094 L 336.347656 274.324219 L 335.859375 274.414063 L 335.367188 274.507813 L 334.878906 274.609375 L 334.394531 274.71875 L 333.910156 274.835938 L 333.425781 274.960938 L 332.945313 275.09375 L 332.46875 275.234375 L 331.992188 275.382813 L 331.519531 275.539063 L 331.046875 275.699219 L 330.578125 275.871094 L 330.113281 276.050781 L 329.652344 276.234375 L 329.191406 276.425781 L 328.734375 276.628906 L 328.28125 276.835938 L 327.832031 277.046875 L 327.386719 277.269531 L 326.941406 277.496094 L 326.503906 277.734375 L 326.066406 277.976563 L 325.636719 278.226563 L 325.207031 278.480469 L 324.785156 278.742188 L 324.367188 279.011719 L 323.949219 279.289063 L 323.539063 279.570313 L 323.132813 279.859375 L 322.734375 280.15625 L 322.335938 280.457031 L 321.945313 280.765625 L 321.558594 281.082031 L 321.175781 281.402344 L 320.800781 281.726563 L 320.425781 282.058594 L 320.0625 282.398438 L 319.699219 282.742188 L 319.34375 283.089844 L 341.558594 305.304688 Z M 363.769531 283.089844 "/>
<path style="fill:none;stroke-width:2.25;stroke-linecap:round;stroke-linejoin:round;stroke:rgb(0%,0%,0%);stroke-opacity:1;stroke-miterlimit:10;" d="M 319.34375 283.089844 L 318.996094 283.445313 L 318.652344 283.808594 L 318.3125 284.171875 L 317.980469 284.546875 L 317.65625 284.921875 L 317.335938 285.304688 L 317.019531 285.691406 L 316.710938 286.082031 L 316.410156 286.480469 L 316.113281 286.878906 L 315.824219 287.285156 L 315.542969 287.695313 L 315.265625 288.113281 L 314.996094 288.53125 L 314.734375 288.953125 L 314.480469 289.382813 L 314.230469 289.8125 L 313.988281 290.25 L 313.753906 290.6875 L 313.523438 291.132813 L 313.300781 291.578125 L 313.089844 292.027344 L 312.882813 292.480469 L 312.679688 292.9375 L 312.488281 293.398438 L 312.304688 293.859375 L 312.125 294.324219 L 311.957031 294.792969 L 311.792969 295.265625 L 311.636719 295.738281 L 311.488281 296.214844 L 311.347656 296.691406 L 311.214844 297.171875 L 311.089844 297.65625 L 310.972656 298.140625 L 310.863281 298.625 L 310.761719 299.113281 L 310.667969 299.601563 L 310.578125 300.09375 L 310.5 300.585938 L 310.429688 301.078125 L 310.367188 301.574219 L 310.3125 302.070313 L 310.265625 302.566406 L 310.226563 303.0625 L 310.195313 303.558594 L 310.167969 304.058594 L 310.152344 304.554688 L 310.144531 305.054688 L 310.144531 305.550781 L 310.152344 306.050781 L 310.167969 306.550781 L 310.195313 307.046875 L 310.226563 307.542969 L 310.265625 308.042969 L 310.3125 308.539063 L 310.367188 309.03125 L 310.429688 309.527344 L 310.5 310.019531 L 310.578125 310.511719 L 310.667969 311.003906 L 310.761719 311.492188 L 310.863281 311.980469 L 310.972656 312.46875 L 311.089844 312.953125 L 311.214844 313.433594 L 311.347656 313.914063 L 311.488281 314.390625 L 311.636719 314.867188 L 311.792969 315.339844 L 311.957031 315.8125 L 312.125 316.28125 L 312.304688 316.746094 L 312.488281 317.210938 L 312.679688 317.667969 L 312.882813 318.125 L 313.089844 318.578125 L 313.300781 319.027344 L 313.523438 319.476563 L 313.753906 319.917969 L 313.988281 320.359375 L 314.230469 320.792969 L 314.480469 321.226563 L 314.734375 321.652344 L 314.996094 322.078125 L 315.265625 322.496094 L 315.542969 322.910156 L 315.824219 323.320313 L 316.113281 323.726563 L 316.410156 324.128906 L 316.710938 324.523438 L 317.019531 324.917969 L 317.335938 325.304688 L 317.65625 325.683594 L 317.980469 326.0625 L 318.3125 326.433594 L 318.652344 326.800781 L 318.996094 327.160156 L 319.34375 327.515625 L 341.558594 305.304688 Z M 319.34375 283.089844 "/>
<path style="fill:none;stroke-width:2.25;stroke-linecap:round;stroke-linejoin:round;stroke:rgb(0%,0%,0%);stroke-opacity:1;stroke-miterlimit:10;" d="M 319.34375 327.515625 L 319.699219 327.863281 L 320.0625 328.210938 L 320.425781 328.546875 L 320.800781 328.878906 L 321.175781 329.207031 L 321.558594 329.527344 L 321.945313 329.839844 L 322.335938 330.148438 L 322.734375 330.449219 L 323.132813 330.746094 L 323.539063 331.035156 L 323.949219 331.316406 L 324.367188 331.59375 L 324.785156 331.863281 L 325.207031 332.125 L 325.636719 332.382813 L 326.066406 332.632813 L 326.503906 332.875 L 326.941406 333.109375 L 327.386719 333.335938 L 327.832031 333.558594 L 328.28125 333.773438 L 328.734375 333.980469 L 329.191406 334.179688 L 329.652344 334.371094 L 330.113281 334.558594 L 330.578125 334.734375 L 331.046875 334.90625 L 331.519531 335.070313 L 331.992188 335.222656 L 332.46875 335.371094 L 332.945313 335.511719 L 333.425781 335.644531 L 333.910156 335.769531 L 334.394531 335.886719 L 334.878906 336 L 335.367188 336.101563 L 335.859375 336.195313 L 336.347656 336.28125 L 336.839844 336.359375 L 337.332031 336.429688 L 337.828125 336.492188 L 338.324219 336.550781 L 338.820313 336.597656 L 339.316406 336.636719 L 339.8125 336.667969 L 340.3125 336.691406 L 340.808594 336.707031 L 341.308594 336.714844 L 341.808594 336.714844 L 342.304688 336.707031 L 342.804688 336.691406 L 343.300781 336.667969 L 343.796875 336.636719 L 344.296875 336.597656 L 344.792969 336.550781 L 345.285156 336.492188 L 345.78125 336.429688 L 346.273438 336.359375 L 346.765625 336.28125 L 347.257813 336.195313 L 347.746094 336.101563 L 348.234375 336 L 348.722656 335.886719 L 349.207031 335.769531 L 349.6875 335.644531 L 350.167969 335.511719 L 350.644531 335.371094 L 351.121094 335.222656 L 351.597656 335.070313 L 352.066406 334.90625 L 352.535156 334.734375 L 353 334.558594 L 353.464844 334.371094 L 353.921875 334.179688 L 354.378906 333.980469 L 354.832031 333.773438 L 355.28125 333.558594 L 355.730469 333.335938 L 356.171875 333.109375 L 356.613281 332.875 L 357.046875 332.632813 L 357.480469 332.382813 L 357.90625 332.125 L 358.332031 331.863281 L 358.75 331.59375 L 359.164063 331.316406 L 359.574219 331.035156 L 359.980469 330.746094 L 360.382813 330.449219 L 360.777344 330.148438 L 361.171875 329.839844 L 361.558594 329.527344 L 361.941406 329.207031 L 362.316406 328.878906 L 362.6875 328.546875 L 363.054688 328.210938 L 363.414063 327.863281 L 363.769531 327.515625 L 341.558594 305.304688 Z M 319.34375 327.515625 "/>
<path style="fill:none;stroke-width:2.25;stroke-linecap:round;stroke-linejoin:round;stroke:rgb(0%,0%,0%);stroke-opacity:1;stroke-miterlimit:10;" d="M 363.769531 327.515625 L 364.121094 327.160156 L 364.464844 326.800781 L 364.800781 326.433594 L 365.132813 326.0625 L 365.460938 325.683594 L 365.78125 325.304688 L 366.09375 324.917969 L 366.402344 324.523438 L 366.703125 324.128906 L 367 323.726563 L 367.289063 323.320313 L 367.570313 322.910156 L 367.847656 322.496094 L 368.117188 322.078125 L 368.378906 321.652344 L 368.636719 321.226563 L 368.886719 320.792969 L 369.128906 320.359375 L 369.363281 319.917969 L 369.589844 319.476563 L 369.8125 319.027344 L 370.027344 318.578125 L 370.234375 318.125 L 370.433594 317.667969 L 370.625 317.210938 L 370.8125 316.746094 L 370.988281 316.28125 L 371.160156 315.8125 L 371.324219 315.339844 L 371.480469 314.867188 L 371.625 314.390625 L 371.765625 313.914063 L 371.898438 313.433594 L 372.023438 312.953125 L 372.140625 312.46875 L 372.253906 311.980469 L 372.355469 311.492188 L 372.449219 311.003906 L 372.535156 310.511719 L 372.613281 310.019531 L 372.683594 309.527344 L 372.746094 309.03125 L 372.804688 308.539063 L 372.851563 308.042969 L 372.890625 307.542969 L 372.921875 307.046875 L 372.945313 306.550781 L 372.960938 306.050781 L 372.96875 305.550781 L 372.96875 305.054688 L 372.960938 304.554688 L 372.945313 304.058594 L 372.921875 303.558594 L 372.890625 303.0625 L 372.851563 302.566406 L 372.804688 302.070313 L 372.746094 301.574219 L 372.683594 301.078125 L 372.613281 300.585938 L 372.535156 300.09375 L 372.449219 299.601563 L 372.355469 299.113281 L 372.253906 298.625 L 372.140625 298.140625 L 372.023438 297.65625 L 371.898438 297.171875 L 371.765625 296.691406 L 371.625 296.214844 L 371.480469 295.738281 L 371.324219 295.265625 L 371.160156 294.792969 L 370.988281 294.324219 L 370.8125 293.859375 L 370.625 293.398438 L 370.433594 292.9375 L 370.234375 292.480469 L 370.027344 292.027344 L 369.8125 291.578125 L 369.589844 291.132813 L 369.363281 290.6875 L 369.128906 290.25 L 368.886719 289.8125 L 368.636719 289.382813 L 368.378906 288.953125 L 368.117188 288.53125 L 367.847656 288.113281 L 367.570313 287.695313 L 367.289063 287.285156 L 367 286.878906 L 366.703125 286.480469 L 366.402344 286.082031 L 366.09375 285.691406 L 365.78125 285.304688 L 365.460938 284.921875 L 365.132813 284.546875 L 364.800781 284.171875 L 364.464844 283.808594 L 364.121094 283.445313 L 363.769531 283.089844 L 341.558594 305.304688 Z M 363.769531 327.515625 "/>
</g>
</svg>
