<?xml version="1.0" encoding="UTF-8"?>
<svg xmlns="http://www.w3.org/2000/svg" xmlns:xlink="http://www.w3.org/1999/xlink" width="1008pt" height="612pt" viewBox="0 0 1008 612" version="1.1">
<g id="surface11">
<rect x="0" y="0" width="1008" height="612" style="fill:rgb(100%,100%,100%);fill-opacity:1;stroke:none;"/>
<path style="fill:none;stroke-width:2.25;stroke-linecap:round;stroke-linejoin:round;stroke:rgb(0%,0%,0%);stroke-opacity:1;stroke-dasharray:9,9;stroke-miterlimit:10;" d="M 252.054688 44.558594 L 251.210938 43.726563 L 250.355469 42.910156 L 249.488281 42.109375 L 248.605469 41.320313 L 247.714844 40.546875 L 246.808594 39.785156 L 245.890625 39.042969 L 244.960938 38.308594 L 244.019531 37.59375 L 243.066406 36.894531 L 242.105469 36.207031 L 241.128906 35.535156 L 240.144531 34.882813 L 239.152344 34.242188 L 238.148438 33.621094 L 237.132813 33.011719 L 236.109375 32.421875 L 235.074219 31.847656 L 234.03125 31.289063 L 232.980469 30.746094 L 231.921875 30.222656 L 230.855469 29.714844 L 229.78125 29.222656 L 228.695313 28.746094 L 227.605469 28.289063 L 226.507813 27.851563 L 225.402344 27.429688 L 224.292969 27.023438 L 223.175781 26.636719 L 222.050781 26.269531 L 220.921875 25.917969 L 219.789063 25.585938 L 218.648438 25.269531 L 217.503906 24.972656 L 216.355469 24.695313 L 215.203125 24.433594 L 214.046875 24.191406 L 212.882813 23.96875 L 211.71875 23.761719 L 210.554688 23.578125 L 209.382813 23.40625 L 208.210938 23.257813 L 207.035156 23.128906 L 205.859375 23.015625 L 204.679688 22.921875 L 203.5 22.847656 L 202.316406 22.789063 L 201.136719 22.753906 L 199.953125 22.734375 L 198.773438 22.734375 L 197.589844 22.753906 L 196.40625 22.789063 L 195.226563 22.847656 L 194.046875 22.921875 L 192.867188 23.015625 L 191.691406 23.128906 L 190.515625 23.257813 L 189.34375 23.40625 L 188.171875 23.578125 L 187.007813 23.761719 L 185.839844 23.96875 L 184.679688 24.191406 L 183.523438 24.433594 L 182.371094 24.695313 L 181.222656 24.972656 L 180.078125 25.269531 L 178.9375 25.585938 L 177.804688 25.917969 L 176.675781 26.269531 L 175.550781 26.636719 L 174.433594 27.023438 L 173.324219 27.429688 L 172.21875 27.851563 L 171.121094 28.289063 L 170.03125 28.746094 L 168.945313 29.222656 L 167.871094 29.714844 L 166.804688 30.222656 L 165.746094 30.746094 L 164.691406 31.289063 L 163.652344 31.847656 L 162.617188 32.421875 L 161.59375 33.011719 L 160.578125 33.621094 L 159.574219 34.242188 L 158.582031 34.882813 L 157.597656 35.535156 L 156.621094 36.207031 L 155.660156 36.894531 L 154.707031 37.59375 L 153.765625 38.308594 L 152.835938 39.042969 L 151.917969 39.785156 L 151.011719 40.546875 L 150.121094 41.320313 L 149.238281 42.109375 L 148.371094 42.910156 L 147.515625 43.726563 L 146.671875 44.558594 L 199.363281 97.246094 Z M 252.054688 44.558594 "/>
<path style="fill:none;stroke-width:2.25;stroke-linecap:round;stroke-linejoin:round;stroke:rgb(0%,0%,0%);stroke-opacity:1;stroke-dasharray:9,9;stroke-miterlimit:10;" d="M 146.671875 44.558594 L 145.84375 45.398438 L 145.027344 46.253906 L 144.222656 47.125 L 143.4375 48.003906 L 142.660156 48.898438 L 141.902344 49.804688 L 141.15625 50.722656 L 140.425781 51.652344 L 139.710938 52.59375 L 139.007813 53.542969 L 138.324219 54.507813 L 137.652344 55.480469 L 136.996094 56.464844 L 136.359375 57.460938 L 135.734375 58.464844 L 135.128906 59.480469 L 134.535156 60.503906 L 133.960938 61.535156 L 133.402344 62.578125 L 132.863281 63.628906 L 132.335938 64.6875 L 131.828125 65.757813 L 131.335938 66.832031 L 130.863281 67.914063 L 130.40625 69.003906 L 129.964844 70.101563 L 129.542969 71.207031 L 129.140625 72.316406 L 128.753906 73.433594 L 128.386719 74.558594 L 128.035156 75.6875 L 127.699219 76.820313 L 127.386719 77.960938 L 127.089844 79.105469 L 126.808594 80.253906 L 126.550781 81.410156 L 126.308594 82.566406 L 126.082031 83.726563 L 125.878906 84.890625 L 125.691406 86.058594 L 125.523438 87.230469 L 125.375 88.402344 L 125.242188 89.578125 L 125.128906 90.753906 L 125.035156 91.933594 L 124.960938 93.113281 L 124.90625 94.292969 L 124.867188 95.476563 L 124.847656 96.65625 L 124.847656 97.839844 L 124.867188 99.019531 L 124.90625 100.203125 L 124.960938 101.382813 L 125.035156 102.5625 L 125.128906 103.742188 L 125.242188 104.917969 L 125.375 106.09375 L 125.523438 107.265625 L 125.691406 108.4375 L 125.878906 109.605469 L 126.082031 110.769531 L 126.308594 111.929688 L 126.550781 113.085938 L 126.808594 114.242188 L 127.089844 115.390625 L 127.386719 116.535156 L 127.699219 117.675781 L 128.035156 118.808594 L 128.386719 119.9375 L 128.753906 121.0625 L 129.140625 122.179688 L 129.542969 123.289063 L 129.964844 124.394531 L 130.40625 125.492188 L 130.863281 126.582031 L 131.335938 127.664063 L 131.828125 128.738281 L 132.335938 129.808594 L 132.863281 130.867188 L 133.402344 131.917969 L 133.960938 132.960938 L 134.535156 133.992188 L 135.128906 135.015625 L 135.734375 136.03125 L 136.359375 137.035156 L 136.996094 138.03125 L 137.652344 139.015625 L 138.324219 139.988281 L 139.007813 140.953125 L 139.710938 141.902344 L 140.425781 142.84375 L 141.15625 143.773438 L 141.902344 144.691406 L 142.660156 145.597656 L 143.4375 146.492188 L 144.222656 147.371094 L 145.027344 148.242188 L 145.84375 149.097656 L 146.671875 149.9375 L 199.363281 97.246094 Z M 146.671875 44.558594 "/>
<path style="fill:none;stroke-width:2.25;stroke-linecap:round;stroke-linejoin:round;stroke:rgb(0%,0%,0%);stroke-opacity:1;stroke-dasharray:9,9;stroke-miterlimit:10;" d="M 146.671875 149.9375 L 147.515625 150.769531 L 148.371094 151.585938 L 149.238281 152.386719 L 150.121094 153.175781 L 151.011719 153.949219 L 151.917969 154.710938 L 152.835938 155.453125 L 153.765625 156.1875 L 154.707031 156.902344 L 155.660156 157.601563 L 156.621094 158.289063 L 157.597656 158.957031 L 158.582031 159.613281 L 159.574219 160.253906 L 160.578125 160.875 L 161.59375 161.484375 L 162.617188 162.074219 L 163.652344 162.648438 L 164.691406 163.207031 L 165.746094 163.75 L 166.804688 164.273438 L 167.871094 164.78125 L 168.945313 165.273438 L 170.03125 165.75 L 171.121094 166.203125 L 172.21875 166.644531 L 173.324219 167.066406 L 174.433594 167.472656 L 175.550781 167.859375 L 176.675781 168.226563 L 177.804688 168.578125 L 178.9375 168.910156 L 180.078125 169.226563 L 181.222656 169.523438 L 182.371094 169.800781 L 183.523438 170.0625 L 184.679688 170.304688 L 185.839844 170.527344 L 187.007813 170.734375 L 188.171875 170.917969 L 189.34375 171.089844 L 190.515625 171.238281 L 191.691406 171.367188 L 192.867188 171.480469 L 194.046875 171.574219 L 195.226563 171.648438 L 196.40625 171.707031 L 197.589844 171.742188 L 198.773438 171.761719 L 199.953125 171.761719 L 201.136719 171.742188 L 202.316406 171.707031 L 203.5 171.648438 L 204.679688 171.574219 L 205.859375 171.480469 L 207.035156 171.367188 L 208.210938 171.238281 L 209.382813 171.089844 L 210.554688 170.917969 L 211.71875 170.734375 L 212.882813 170.527344 L 214.046875 170.304688 L 215.203125 170.0625 L 216.355469 169.800781 L 217.503906 169.523438 L 218.648438 169.226563 L 219.789063 168.910156 L 220.921875 168.578125 L 222.050781 168.226563 L 223.175781 167.859375 L 224.292969 167.472656 L 225.402344 167.066406 L 226.507813 166.644531 L 227.605469 166.203125 L 228.695313 165.75 L 229.78125 165.273438 L 230.855469 164.78125 L 231.921875 164.273438 L 232.980469 163.75 L 234.03125 163.207031 L 235.074219 162.648438 L 236.109375 162.074219 L 237.132813 161.484375 L 238.148438 160.875 L 239.152344 160.253906 L 240.144531 159.613281 L 241.128906 158.957031 L 242.105469 158.289063 L 243.066406 157.601563 L 244.019531 156.902344 L 244.960938 156.1875 L 245.890625 155.453125 L 246.808594 154.710938 L 247.714844 153.949219 L 248.605469 153.175781 L 249.488281 152.386719 L 250.355469 151.585938 L 251.210938 150.769531 L 252.054688 149.9375 L 199.363281 97.246094 Z M 146.671875 149.9375 "/>
<path style="fill:none;stroke-width:2.25;stroke-linecap:round;stroke-linejoin:round;stroke:rgb(0%,0%,0%);stroke-opacity:1;stroke-dasharray:9,9;stroke-miterlimit:10;" d="M 252.054688 149.9375 L 252.882813 149.097656 L 253.699219 148.242188 L 254.5 147.371094 L 255.289063 146.492188 L 256.066406 145.597656 L 256.824219 144.691406 L 257.570313 143.773438 L 258.300781 142.84375 L 259.015625 141.902344 L 259.71875 140.953125 L 260.402344 139.988281 L 261.074219 139.015625 L 261.730469 138.03125 L 262.367188 137.035156 L 262.992188 136.03125 L 263.597656 135.015625 L 264.191406 133.992188 L 264.765625 132.960938 L 265.324219 131.917969 L 265.863281 130.867188 L 266.390625 129.808594 L 266.898438 128.738281 L 267.390625 127.664063 L 267.863281 126.582031 L 268.320313 125.492188 L 268.757813 124.394531 L 269.179688 123.289063 L 269.585938 122.179688 L 269.972656 121.0625 L 270.339844 119.9375 L 270.691406 118.808594 L 271.027344 117.675781 L 271.339844 116.535156 L 271.636719 115.390625 L 271.917969 114.242188 L 272.175781 113.085938 L 272.417969 111.929688 L 272.644531 110.769531 L 272.847656 109.605469 L 273.035156 108.4375 L 273.203125 107.265625 L 273.351563 106.09375 L 273.484375 104.917969 L 273.597656 103.742188 L 273.691406 102.5625 L 273.765625 101.382813 L 273.820313 100.203125 L 273.859375 99.019531 L 273.878906 97.839844 L 273.878906 96.65625 L 273.859375 95.476563 L 273.820313 94.292969 L 273.765625 93.113281 L 273.691406 91.933594 L 273.597656 90.753906 L 273.484375 89.578125 L 273.351563 88.402344 L 273.203125 87.230469 L 273.035156 86.058594 L 272.847656 84.890625 L 272.644531 83.726563 L 272.417969 82.566406 L 272.175781 81.410156 L 271.917969 80.253906 L 271.636719 79.105469 L 271.339844 77.960938 L 271.027344 76.820313 L 270.691406 75.6875 L 270.339844 74.558594 L 269.972656 73.433594 L 269.585938 72.316406 L 269.179688 71.207031 L 268.757813 70.101563 L 268.320313 69.003906 L 267.863281 67.914063 L 267.390625 66.832031 L 266.898438 65.757813 L 266.390625 64.6875 L 265.863281 63.628906 L 265.324219 62.578125 L 264.765625 61.535156 L 264.191406 60.503906 L 263.597656 59.480469 L 262.992188 58.464844 L 262.367188 57.460938 L 261.730469 56.464844 L 261.074219 55.480469 L 260.402344 54.507813 L 259.71875 53.542969 L 259.015625 52.59375 L 258.300781 51.652344 L 257.570313 50.722656 L 256.824219 49.804688 L 256.066406 48.898438 L 255.289063 48.003906 L 254.5 47.125 L 253.699219 46.253906 L 252.882813 45.398438 L 252.054688 44.558594 L 199.363281 97.246094 Z M 252.054688 149.9375 "/>
<path style="fill:none;stroke-width:2.25;stroke-linecap:round;stroke-linejoin:round;stroke:rgb(0%,0%,0%);stroke-opacity:1;stroke-miterlimit:10;" d="M 574.75 44.558594 L 573.90625 43.726563 L 573.050781 42.910156 L 572.183594 42.109375 L 571.300781 41.320313 L 570.40625 40.546875 L 569.5 39.785156 L 568.582031 39.042969 L 567.65625 38.308594 L 566.714844 37.59375 L 565.761719 36.894531 L 564.796875 36.207031 L 563.824219 35.535156 L 562.839844 34.882813 L 561.847656 34.242188 L 560.839844 33.621094 L 559.828125 33.011719 L 558.804688 32.421875 L 557.769531 31.847656 L 556.726563 31.289063 L 555.675781 30.746094 L 554.617188 30.222656 L 553.550781 29.714844 L 552.472656 29.222656 L 551.390625 28.746094 L 550.300781 28.289063 L 549.203125 27.851563 L 548.097656 27.429688 L 546.988281 27.023438 L 545.871094 26.636719 L 544.746094 26.269531 L 543.617188 25.917969 L 542.484375 25.585938 L 541.34375 25.269531 L 540.199219 24.972656 L 539.050781 24.695313 L 537.898438 24.433594 L 536.738281 24.191406 L 535.578125 23.96875 L 534.414063 23.761719 L 533.246094 23.578125 L 532.078125 23.40625 L 530.902344 23.257813 L 529.730469 23.128906 L 528.550781 23.015625 L 527.375 22.921875 L 526.195313 22.847656 L 525.011719 22.789063 L 523.832031 22.753906 L 522.648438 22.734375 L 521.464844 22.734375 L 520.285156 22.753906 L 519.101563 22.789063 L 517.921875 22.847656 L 516.742188 22.921875 L 515.5625 23.015625 L 514.386719 23.128906 L 513.210938 23.257813 L 512.039063 23.40625 L 510.867188 23.578125 L 509.699219 23.761719 L 508.535156 23.96875 L 507.375 24.191406 L 506.21875 24.433594 L 505.066406 24.695313 L 503.914063 24.972656 L 502.769531 25.269531 L 501.632813 25.585938 L 500.496094 25.917969 L 499.367188 26.269531 L 498.246094 26.636719 L 497.128906 27.023438 L 496.015625 27.429688 L 494.914063 27.851563 L 493.816406 28.289063 L 492.722656 28.746094 L 491.640625 29.222656 L 490.566406 29.714844 L 489.496094 30.222656 L 488.4375 30.746094 L 487.386719 31.289063 L 486.34375 31.847656 L 485.3125 32.421875 L 484.289063 33.011719 L 483.273438 33.621094 L 482.269531 34.242188 L 481.273438 34.882813 L 480.289063 35.535156 L 479.316406 36.207031 L 478.351563 36.894531 L 477.402344 37.59375 L 476.460938 38.308594 L 475.53125 39.042969 L 474.613281 39.785156 L 473.707031 40.546875 L 472.8125 41.320313 L 471.933594 42.109375 L 471.066406 42.910156 L 470.210938 43.726563 L 469.367188 44.558594 L 522.058594 97.246094 Z M 574.75 44.558594 "/>
<path style="fill:none;stroke-width:2.25;stroke-linecap:round;stroke-linejoin:round;stroke:rgb(0%,0%,0%);stroke-opacity:1;stroke-miterlimit:10;" d="M 469.367188 44.558594 L 468.535156 45.398438 L 467.722656 46.253906 L 466.917969 47.125 L 466.128906 48.003906 L 465.355469 48.898438 L 464.597656 49.804688 L 463.851563 50.722656 L 463.121094 51.652344 L 462.402344 52.59375 L 461.703125 53.542969 L 461.015625 54.507813 L 460.347656 55.480469 L 459.691406 56.464844 L 459.050781 57.460938 L 458.429688 58.464844 L 457.820313 59.480469 L 457.230469 60.503906 L 456.65625 61.535156 L 456.097656 62.578125 L 455.554688 63.628906 L 455.03125 64.6875 L 454.523438 65.757813 L 454.03125 66.832031 L 453.558594 67.914063 L 453.101563 69.003906 L 452.660156 70.101563 L 452.238281 71.207031 L 451.835938 72.316406 L 451.449219 73.433594 L 451.078125 74.558594 L 450.726563 75.6875 L 450.394531 76.820313 L 450.078125 77.960938 L 449.78125 79.105469 L 449.503906 80.253906 L 449.242188 81.410156 L 449 82.566406 L 448.777344 83.726563 L 448.574219 84.890625 L 448.386719 86.058594 L 448.21875 87.230469 L 448.066406 88.402344 L 447.9375 89.578125 L 447.824219 90.753906 L 447.730469 91.933594 L 447.65625 93.113281 L 447.597656 94.292969 L 447.5625 95.476563 L 447.542969 96.65625 L 447.542969 97.839844 L 447.5625 99.019531 L 447.597656 100.203125 L 447.65625 101.382813 L 447.730469 102.5625 L 447.824219 103.742188 L 447.9375 104.917969 L 448.066406 106.09375 L 448.21875 107.265625 L 448.386719 108.4375 L 448.574219 109.605469 L 448.777344 110.769531 L 449 111.929688 L 449.242188 113.085938 L 449.503906 114.242188 L 449.78125 115.390625 L 450.078125 116.535156 L 450.394531 117.675781 L 450.726563 118.808594 L 451.078125 119.9375 L 451.449219 121.0625 L 451.835938 122.179688 L 452.238281 123.289063 L 452.660156 124.394531 L 453.101563 125.492188 L 453.558594 126.582031 L 454.03125 127.664063 L 454.523438 128.738281 L 455.03125 129.808594 L 455.554688 130.867188 L 456.097656 131.917969 L 456.65625 132.960938 L 457.230469 133.992188 L 457.820313 135.015625 L 458.429688 136.03125 L 459.050781 137.035156 L 459.691406 138.03125 L 460.347656 139.015625 L 461.015625 139.988281 L 461.703125 140.953125 L 462.402344 141.902344 L 463.121094 142.84375 L 463.851563 143.773438 L 464.597656 144.691406 L 465.355469 145.597656 L 466.128906 146.492188 L 466.917969 147.371094 L 467.722656 148.242188 L 468.535156 149.097656 L 469.367188 149.9375 L 522.058594 97.246094 Z M 469.367188 44.558594 "/>
<path style="fill:none;stroke-width:2.25;stroke-linecap:round;stroke-linejoin:round;stroke:rgb(0%,0%,0%);stroke-opacity:1;stroke-miterlimit:10;" d="M 469.367188 149.9375 L 470.210938 150.769531 L 471.066406 151.585938 L 471.933594 152.386719 L 472.8125 153.175781 L 473.707031 153.949219 L 474.613281 154.710938 L 475.53125 155.453125 L 476.460938 156.1875 L 477.402344 156.902344 L 478.351563 157.601563 L 479.316406 158.289063 L 480.289063 158.957031 L 481.273438 159.613281 L 482.269531 160.253906 L 483.273438 160.875 L 484.289063 161.484375 L 485.3125 162.074219 L 486.34375 162.648438 L 487.386719 163.207031 L 488.4375 163.75 L 489.496094 164.273438 L 490.566406 164.78125 L 491.640625 165.273438 L 492.722656 165.75 L 493.816406 166.203125 L 494.914063 166.644531 L 496.015625 167.066406 L 497.128906 167.472656 L 498.246094 167.859375 L 499.367188 168.226563 L 500.496094 168.578125 L 501.632813 168.910156 L 502.769531 169.226563 L 503.914063 169.523438 L 505.066406 169.800781 L 506.21875 170.0625 L 507.375 170.304688 L 508.535156 170.527344 L 509.699219 170.734375 L 510.867188 170.917969 L 512.039063 171.089844 L 513.210938 171.238281 L 514.386719 171.367188 L 515.5625 171.480469 L 516.742188 171.574219 L 517.921875 171.648438 L 519.101563 171.707031 L 520.285156 171.742188 L 521.464844 171.761719 L 522.648438 171.761719 L 523.832031 171.742188 L 525.011719 171.707031 L 526.195313 171.648438 L 527.375 171.574219 L 528.550781 171.480469 L 529.730469 171.367188 L 530.902344 171.238281 L 532.078125 171.089844 L 533.246094 170.917969 L 534.414063 170.734375 L 535.578125 170.527344 L 536.738281 170.304688 L 537.898438 170.0625 L 539.050781 169.800781 L 540.199219 169.523438 L 541.34375 169.226563 L 542.484375 168.910156 L 543.617188 168.578125 L 544.746094 168.226563 L 545.871094 167.859375 L 546.988281 167.472656 L 548.097656 167.066406 L 549.203125 166.644531 L 550.300781 166.203125 L 551.390625 165.75 L 552.472656 165.273438 L 553.550781 164.78125 L 554.617188 164.273438 L 555.675781 163.75 L 556.726563 163.207031 L 557.769531 162.648438 L 558.804688 162.074219 L 559.828125 161.484375 L 560.839844 160.875 L 561.847656 160.253906 L 562.839844 159.613281 L 563.824219 158.957031 L 564.796875 158.289063 L 565.761719 157.601563 L 566.714844 156.902344 L 567.65625 156.1875 L 568.582031 155.453125 L 569.5 154.710938 L 570.40625 153.949219 L 571.300781 153.175781 L 572.183594 152.386719 L 573.050781 151.585938 L 573.90625 150.769531 L 574.75 149.9375 L 522.058594 97.246094 Z M 469.367188 149.9375 "/>
<path style="fill:none;stroke-width:2.25;stroke-linecap:round;stroke-linejoin:round;stroke:rgb(0%,0%,0%);stroke-opacity:1;stroke-miterlimit:10;" d="M 574.75 149.9375 L 575.578125 149.097656 L 576.394531 148.242188 L 577.195313 147.371094 L 577.984375 146.492188 L 578.757813 145.597656 L 579.519531 144.691406 L 580.265625 143.773438 L 580.996094 142.84375 L 581.710938 141.902344 L 582.414063 140.953125 L 583.097656 139.988281 L 583.769531 139.015625 L 584.421875 138.03125 L 585.0625 137.035156 L 585.6875 136.03125 L 586.292969 135.015625 L 586.882813 133.992188 L 587.460938 132.960938 L 588.019531 131.917969 L 588.558594 130.867188 L 589.085938 129.808594 L 589.59375 128.738281 L 590.082031 127.664063 L 590.558594 126.582031 L 591.015625 125.492188 L 591.453125 124.394531 L 591.875 123.289063 L 592.28125 122.179688 L 592.667969 121.0625 L 593.035156 119.9375 L 593.386719 118.808594 L 593.71875 117.675781 L 594.035156 116.535156 L 594.332031 115.390625 L 594.609375 114.242188 L 594.871094 113.085938 L 595.113281 111.929688 L 595.335938 110.769531 L 595.542969 109.605469 L 595.730469 108.4375 L 595.898438 107.265625 L 596.046875 106.09375 L 596.179688 104.917969 L 596.289063 103.742188 L 596.382813 102.5625 L 596.460938 101.382813 L 596.515625 100.203125 L 596.554688 99.019531 L 596.570313 97.839844 L 596.570313 96.65625 L 596.554688 95.476563 L 596.515625 94.292969 L 596.460938 93.113281 L 596.382813 91.933594 L 596.289063 90.753906 L 596.179688 89.578125 L 596.046875 88.402344 L 595.898438 87.230469 L 595.730469 86.058594 L 595.542969 84.890625 L 595.335938 83.726563 L 595.113281 82.566406 L 594.871094 81.410156 L 594.609375 80.253906 L 594.332031 79.105469 L 594.035156 77.960938 L 593.71875 76.820313 L 593.386719 75.6875 L 593.035156 74.558594 L 592.667969 73.433594 L 592.28125 72.316406 L 591.875 71.207031 L 591.453125 70.101563 L 591.015625 69.003906 L 590.558594 67.914063 L 590.082031 66.832031 L 589.59375 65.757813 L 589.085938 64.6875 L 588.558594 63.628906 L 588.019531 62.578125 L 587.460938 61.535156 L 586.882813 60.503906 L 586.292969 59.480469 L 585.6875 58.464844 L 585.0625 57.460938 L 584.421875 56.464844 L 583.769531 55.480469 L 583.097656 54.507813 L 582.414063 53.542969 L 581.710938 52.59375 L 580.996094 51.652344 L 580.265625 50.722656 L 579.519531 49.804688 L 578.757813 48.898438 L 577.984375 48.003906 L 577.195313 47.125 L 576.394531 46.253906 L 575.578125 45.398438 L 574.75 44.558594 L 522.058594 97.246094 Z M 574.75 149.9375 "/>
<path style="fill:none;stroke-width:2.25;stroke-linecap:round;stroke-linejoin:round;stroke:rgb(0%,0%,0%);stroke-opacity:1;stroke-dasharray:2.25,6.75;stroke-miterlimit:10;" d="M 897.441406 44.558594 L 896.601563 43.726563 L 895.746094 42.910156 L 894.875 42.109375 L 893.996094 41.320313 L 893.101563 40.546875 L 892.195313 39.785156 L 891.277344 39.042969 L 890.347656 38.308594 L 889.40625 37.59375 L 888.457031 36.894531 L 887.492188 36.207031 L 886.519531 35.535156 L 885.535156 34.882813 L 884.539063 34.242188 L 883.535156 33.621094 L 882.519531 33.011719 L 881.496094 32.421875 L 880.464844 31.847656 L 879.421875 31.289063 L 878.371094 30.746094 L 877.3125 30.222656 L 876.242188 29.714844 L 875.167969 29.222656 L 874.085938 28.746094 L 872.996094 28.289063 L 871.898438 27.851563 L 870.792969 27.429688 L 869.683594 27.023438 L 868.566406 26.636719 L 867.441406 26.269531 L 866.3125 25.917969 L 865.179688 25.585938 L 864.039063 25.269531 L 862.894531 24.972656 L 861.746094 24.695313 L 860.589844 24.433594 L 859.433594 24.191406 L 858.273438 23.96875 L 857.109375 23.761719 L 855.941406 23.578125 L 854.769531 23.40625 L 853.597656 23.257813 L 852.421875 23.128906 L 851.246094 23.015625 L 850.066406 22.921875 L 848.886719 22.847656 L 847.707031 22.789063 L 846.523438 22.753906 L 845.34375 22.734375 L 844.160156 22.734375 L 842.980469 22.753906 L 841.796875 22.789063 L 840.617188 22.847656 L 839.4375 22.921875 L 838.257813 23.015625 L 837.082031 23.128906 L 835.90625 23.257813 L 834.734375 23.40625 L 833.5625 23.578125 L 832.394531 23.761719 L 831.230469 23.96875 L 830.070313 24.191406 L 828.914063 24.433594 L 827.757813 24.695313 L 826.609375 24.972656 L 825.464844 25.269531 L 824.324219 25.585938 L 823.191406 25.917969 L 822.0625 26.269531 L 820.9375 26.636719 L 819.820313 27.023438 L 818.710938 27.429688 L 817.605469 27.851563 L 816.507813 28.289063 L 815.417969 28.746094 L 814.335938 29.222656 L 813.261719 29.714844 L 812.191406 30.222656 L 811.132813 30.746094 L 810.082031 31.289063 L 809.039063 31.847656 L 808.007813 32.421875 L 806.984375 33.011719 L 805.96875 33.621094 L 804.964844 34.242188 L 803.96875 34.882813 L 802.984375 35.535156 L 802.011719 36.207031 L 801.046875 36.894531 L 800.097656 37.59375 L 799.15625 38.308594 L 798.226563 39.042969 L 797.308594 39.785156 L 796.402344 40.546875 L 795.507813 41.320313 L 794.628906 42.109375 L 793.757813 42.910156 L 792.902344 43.726563 L 792.0625 44.558594 L 844.753906 97.246094 Z M 897.441406 44.558594 "/>
<path style="fill:none;stroke-width:2.25;stroke-linecap:round;stroke-linejoin:round;stroke:rgb(0%,0%,0%);stroke-opacity:1;stroke-dasharray:2.25,6.75;stroke-miterlimit:10;" d="M 792.0625 44.558594 L 791.230469 45.398438 L 790.414063 46.253906 L 789.613281 47.125 L 788.824219 48.003906 L 788.050781 48.898438 L 787.289063 49.804688 L 786.546875 50.722656 L 785.8125 51.652344 L 785.097656 52.59375 L 784.398438 53.542969 L 783.710938 54.507813 L 783.042969 55.480469 L 782.386719 56.464844 L 781.746094 57.460938 L 781.125 58.464844 L 780.515625 59.480469 L 779.925781 60.503906 L 779.351563 61.535156 L 778.792969 62.578125 L 778.25 63.628906 L 777.726563 64.6875 L 777.21875 65.757813 L 776.726563 66.832031 L 776.25 67.914063 L 775.796875 69.003906 L 775.355469 70.101563 L 774.933594 71.207031 L 774.527344 72.316406 L 774.140625 73.433594 L 773.773438 74.558594 L 773.421875 75.6875 L 773.089844 76.820313 L 772.773438 77.960938 L 772.476563 79.105469 L 772.199219 80.253906 L 771.9375 81.410156 L 771.695313 82.566406 L 771.472656 83.726563 L 771.265625 84.890625 L 771.082031 86.058594 L 770.910156 87.230469 L 770.761719 88.402344 L 770.632813 89.578125 L 770.519531 90.753906 L 770.425781 91.933594 L 770.351563 93.113281 L 770.292969 94.292969 L 770.257813 95.476563 L 770.238281 96.65625 L 770.238281 97.839844 L 770.257813 99.019531 L 770.292969 100.203125 L 770.351563 101.382813 L 770.425781 102.5625 L 770.519531 103.742188 L 770.632813 104.917969 L 770.761719 106.09375 L 770.910156 107.265625 L 771.082031 108.4375 L 771.265625 109.605469 L 771.472656 110.769531 L 771.695313 111.929688 L 771.9375 113.085938 L 772.199219 114.242188 L 772.476563 115.390625 L 772.773438 116.535156 L 773.089844 117.675781 L 773.421875 118.808594 L 773.773438 119.9375 L 774.140625 121.0625 L 774.527344 122.179688 L 774.933594 123.289063 L 775.355469 124.394531 L 775.796875 125.492188 L 776.25 126.582031 L 776.726563 127.664063 L 777.21875 128.738281 L 777.726563 129.808594 L 778.25 130.867188 L 778.792969 131.917969 L 779.351563 132.960938 L 779.925781 133.992188 L 780.515625 135.015625 L 781.125 136.03125 L 781.746094 137.035156 L 782.386719 138.03125 L 783.042969 139.015625 L 783.710938 139.988281 L 784.398438 140.953125 L 785.097656 141.902344 L 785.8125 142.84375 L 786.546875 143.773438 L 787.289063 144.691406 L 788.050781 145.597656 L 788.824219 146.492188 L 789.613281 147.371094 L 790.414063 148.242188 L 791.230469 149.097656 L 792.0625 149.9375 L 844.753906 97.246094 Z M 792.0625 44.558594 "/>
<path style="fill:none;stroke-width:2.25;stroke-linecap:round;stroke-linejoin:round;stroke:rgb(0%,0%,0%);stroke-opacity:1;stroke-dasharray:2.25,6.75;stroke-miterlimit:10;" d="M 792.0625 149.9375 L 792.902344 150.769531 L 793.757813 151.585938 L 794.628906 152.386719 L 795.507813 153.175781 L 796.402344 153.949219 L 797.308594 154.710938 L 798.226563 155.453125 L 799.15625 156.1875 L 800.097656 156.902344 L 801.046875 157.601563 L 802.011719 158.289063 L 802.984375 158.957031 L 803.96875 159.613281 L 804.964844 160.253906 L 805.96875 160.875 L 806.984375 161.484375 L 808.007813 162.074219 L 809.039063 162.648438 L 810.082031 163.207031 L 811.132813 163.75 L 812.191406 164.273438 L 813.261719 164.78125 L 814.335938 165.273438 L 815.417969 165.75 L 816.507813 166.203125 L 817.605469 166.644531 L 818.710938 167.066406 L 819.820313 167.472656 L 820.9375 167.859375 L 822.0625 168.226563 L 823.191406 168.578125 L 824.324219 168.910156 L 825.464844 169.226563 L 826.609375 169.523438 L 827.757813 169.800781 L 828.914063 170.0625 L 830.070313 170.304688 L 831.230469 170.527344 L 832.394531 170.734375 L 833.5625 170.917969 L 834.734375 171.089844 L 835.90625 171.238281 L 837.082031 171.367188 L 838.257813 171.480469 L 839.4375 171.574219 L 840.617188 171.648438 L 841.796875 171.707031 L 842.980469 171.742188 L 844.160156 171.761719 L 845.34375 171.761719 L 846.523438 171.742188 L 847.707031 171.707031 L 848.886719 171.648438 L 850.066406 171.574219 L 851.246094 171.480469 L 852.421875 171.367188 L 853.597656 171.238281 L 854.769531 171.089844 L 855.941406 170.917969 L 857.109375 170.734375 L 858.273438 170.527344 L 859.433594 170.304688 L 860.589844 170.0625 L 861.746094 169.800781 L 862.894531 169.523438 L 864.039063 169.226563 L 865.179688 168.910156 L 866.3125 168.578125 L 867.441406 168.226563 L 868.566406 167.859375 L 869.683594 167.472656 L 870.792969 167.066406 L 871.898438 166.644531 L 872.996094 166.203125 L 874.085938 165.75 L 875.167969 165.273438 L 876.242188 164.78125 L 877.3125 164.273438 L 878.371094 163.75 L 879.421875 163.207031 L 880.464844 162.648438 L 881.496094 162.074219 L 882.519531 161.484375 L 883.535156 160.875 L 884.539063 160.253906 L 885.535156 159.613281 L 886.519531 158.957031 L 887.492188 158.289063 L 888.457031 157.601563 L 889.40625 156.902344 L 890.347656 156.1875 L 891.277344 155.453125 L 892.195313 154.710938 L 893.101563 153.949219 L 893.996094 153.175781 L 894.875 152.386719 L 895.746094 151.585938 L 896.601563 150.769531 L 897.441406 149.9375 L 844.753906 97.246094 Z M 792.0625 149.9375 "/>
<path style="fill:none;stroke-width:2.25;stroke-linecap:round;stroke-linejoin:round;stroke:rgb(0%,0%,0%);stroke-opacity:1;stroke-dasharray:2.25,6.75;stroke-miterlimit:10;" d="M 897.441406 149.9375 L 898.273438 149.097656 L 899.089844 148.242188 L 899.890625 147.371094 L 900.679688 146.492188 L 901.453125 145.597656 L 902.214844 144.691406 L 902.957031 143.773438 L 903.691406 142.84375 L 904.40625 141.902344 L 905.105469 140.953125 L 905.792969 139.988281 L 906.464844 139.015625 L 907.117188 138.03125 L 907.757813 137.035156 L 908.378906 136.03125 L 908.988281 135.015625 L 909.578125 133.992188 L 910.152344 132.960938 L 910.710938 131.917969 L 911.253906 130.867188 L 911.777344 129.808594 L 912.285156 128.738281 L 912.777344 127.664063 L 913.253906 126.582031 L 913.710938 125.492188 L 914.148438 124.394531 L 914.570313 123.289063 L 914.976563 122.179688 L 915.363281 121.0625 L 915.730469 119.9375 L 916.082031 118.808594 L 916.414063 117.675781 L 916.730469 116.535156 L 917.027344 115.390625 L 917.304688 114.242188 L 917.566406 113.085938 L 917.808594 111.929688 L 918.03125 110.769531 L 918.238281 109.605469 L 918.421875 108.4375 L 918.59375 107.265625 L 918.742188 106.09375 L 918.871094 104.917969 L 918.984375 103.742188 L 919.078125 102.5625 L 919.152344 101.382813 L 919.210938 100.203125 L 919.246094 99.019531 L 919.265625 97.839844 L 919.265625 96.65625 L 919.246094 95.476563 L 919.210938 94.292969 L 919.152344 93.113281 L 919.078125 91.933594 L 918.984375 90.753906 L 918.871094 89.578125 L 918.742188 88.402344 L 918.59375 87.230469 L 918.421875 86.058594 L 918.238281 84.890625 L 918.03125 83.726563 L 917.808594 82.566406 L 917.566406 81.410156 L 917.304688 80.253906 L 917.027344 79.105469 L 916.730469 77.960938 L 916.414063 76.820313 L 916.082031 75.6875 L 915.730469 74.558594 L 915.363281 73.433594 L 914.976563 72.316406 L 914.570313 71.207031 L 914.148438 70.101563 L 913.710938 69.003906 L 913.253906 67.914063 L 912.777344 66.832031 L 912.285156 65.757813 L 911.777344 64.6875 L 911.253906 63.628906 L 910.710938 62.578125 L 910.152344 61.535156 L 909.578125 60.503906 L 908.988281 59.480469 L 908.378906 58.464844 L 907.757813 57.460938 L 907.117188 56.464844 L 906.464844 55.480469 L 905.792969 54.507813 L 905.105469 53.542969 L 904.40625 52.59375 L 903.691406 51.652344 L 902.957031 50.722656 L 902.214844 49.804688 L 901.453125 48.898438 L 900.679688 48.003906 L 899.890625 47.125 L 899.089844 46.253906 L 898.273438 45.398438 L 897.441406 44.558594 L 844.753906 97.246094 Z M 897.441406 149.9375 "/>
<path style="fill:none;stroke-width:2.25;stroke-linecap:round;stroke-linejoin:round;stroke:rgb(0%,0%,0%);stroke-opacity:1;stroke-dasharray:9,9;stroke-miterlimit:10;" d="M 252.054688 235.25 L 251.210938 234.421875 L 250.355469 233.605469 L 249.488281 232.804688 L 248.605469 232.015625 L 247.714844 231.242188 L 246.808594 230.480469 L 245.890625 229.734375 L 244.960938 229.003906 L 244.019531 228.289063 L 243.066406 227.585938 L 242.105469 226.902344 L 241.128906 226.230469 L 240.144531 225.578125 L 239.152344 224.9375 L 238.148438 224.3125 L 237.132813 223.707031 L 236.109375 223.117188 L 235.074219 222.539063 L 234.03125 221.980469 L 232.980469 221.441406 L 231.921875 220.914063 L 230.855469 220.40625 L 229.78125 219.917969 L 228.695313 219.441406 L 227.605469 218.984375 L 226.507813 218.546875 L 225.402344 218.125 L 224.292969 217.71875 L 223.175781 217.332031 L 222.050781 216.964844 L 220.921875 216.613281 L 219.789063 216.28125 L 218.648438 215.964844 L 217.503906 215.667969 L 216.355469 215.390625 L 215.203125 215.128906 L 214.046875 214.886719 L 212.882813 214.664063 L 211.71875 214.457031 L 210.554688 214.269531 L 209.382813 214.101563 L 208.210938 213.953125 L 207.035156 213.820313 L 205.859375 213.710938 L 204.679688 213.617188 L 203.5 213.539063 L 202.316406 213.484375 L 201.136719 213.445313 L 199.953125 213.429688 L 198.773438 213.429688 L 197.589844 213.445313 L 196.40625 213.484375 L 195.226563 213.539063 L 194.046875 213.617188 L 192.867188 213.710938 L 191.691406 213.820313 L 190.515625 213.953125 L 189.34375 214.101563 L 188.171875 214.269531 L 187.007813 214.457031 L 185.839844 214.664063 L 184.679688 214.886719 L 183.523438 215.128906 L 182.371094 215.390625 L 181.222656 215.667969 L 180.078125 215.964844 L 178.9375 216.28125 L 177.804688 216.613281 L 176.675781 216.964844 L 175.550781 217.332031 L 174.433594 217.71875 L 173.324219 218.125 L 172.21875 218.546875 L 171.121094 218.984375 L 170.03125 219.441406 L 168.945313 219.917969 L 167.871094 220.40625 L 166.804688 220.914063 L 165.746094 221.441406 L 164.691406 221.980469 L 163.652344 222.539063 L 162.617188 223.117188 L 161.59375 223.707031 L 160.578125 224.3125 L 159.574219 224.9375 L 158.582031 225.578125 L 157.597656 226.230469 L 156.621094 226.902344 L 155.660156 227.585938 L 154.707031 228.289063 L 153.765625 229.003906 L 152.835938 229.734375 L 151.917969 230.480469 L 151.011719 231.242188 L 150.121094 232.015625 L 149.238281 232.804688 L 148.371094 233.605469 L 147.515625 234.421875 L 146.671875 235.25 L 199.363281 287.941406 Z M 252.054688 235.25 "/>
<path style="fill:none;stroke-width:2.25;stroke-linecap:round;stroke-linejoin:round;stroke:rgb(0%,0%,0%);stroke-opacity:1;stroke-dasharray:9,9;stroke-miterlimit:10;" d="M 146.671875 235.25 L 145.84375 236.09375 L 145.027344 236.949219 L 144.222656 237.816406 L 143.4375 238.699219 L 142.660156 239.59375 L 141.902344 240.5 L 141.15625 241.417969 L 140.425781 242.34375 L 139.710938 243.285156 L 139.007813 244.238281 L 138.324219 245.203125 L 137.652344 246.175781 L 136.996094 247.160156 L 136.359375 248.152344 L 135.734375 249.160156 L 135.128906 250.171875 L 134.535156 251.195313 L 133.960938 252.230469 L 133.402344 253.273438 L 132.863281 254.324219 L 132.335938 255.382813 L 131.828125 256.449219 L 131.335938 257.527344 L 130.863281 258.609375 L 130.40625 259.699219 L 129.964844 260.796875 L 129.542969 261.902344 L 129.140625 263.011719 L 128.753906 264.128906 L 128.386719 265.253906 L 128.035156 266.382813 L 127.699219 267.515625 L 127.386719 268.65625 L 127.089844 269.800781 L 126.808594 270.949219 L 126.550781 272.101563 L 126.308594 273.261719 L 126.082031 274.421875 L 125.878906 275.585938 L 125.691406 276.753906 L 125.523438 277.921875 L 125.375 279.097656 L 125.242188 280.269531 L 125.128906 281.449219 L 125.035156 282.625 L 124.960938 283.804688 L 124.90625 284.988281 L 124.867188 286.167969 L 124.847656 287.351563 L 124.847656 288.535156 L 124.867188 289.714844 L 124.90625 290.898438 L 124.960938 292.078125 L 125.035156 293.257813 L 125.128906 294.4375 L 125.242188 295.613281 L 125.375 296.789063 L 125.523438 297.960938 L 125.691406 299.132813 L 125.878906 300.300781 L 126.082031 301.464844 L 126.308594 302.625 L 126.550781 303.78125 L 126.808594 304.933594 L 127.089844 306.085938 L 127.386719 307.230469 L 127.699219 308.367188 L 128.035156 309.503906 L 128.386719 310.632813 L 128.753906 311.753906 L 129.140625 312.871094 L 129.542969 313.984375 L 129.964844 315.085938 L 130.40625 316.183594 L 130.863281 317.277344 L 131.335938 318.359375 L 131.828125 319.433594 L 132.335938 320.503906 L 132.863281 321.5625 L 133.402344 322.613281 L 133.960938 323.65625 L 134.535156 324.6875 L 135.128906 325.710938 L 135.734375 326.726563 L 136.359375 327.730469 L 136.996094 328.726563 L 137.652344 329.710938 L 138.324219 330.683594 L 139.007813 331.648438 L 139.710938 332.597656 L 140.425781 333.539063 L 141.15625 334.46875 L 141.902344 335.386719 L 142.660156 336.292969 L 143.4375 337.1875 L 144.222656 338.066406 L 145.027344 338.933594 L 145.84375 339.789063 L 146.671875 340.632813 L 199.363281 287.941406 Z M 146.671875 235.25 "/>
<path style="fill:none;stroke-width:2.25;stroke-linecap:round;stroke-linejoin:round;stroke:rgb(0%,0%,0%);stroke-opacity:1;stroke-dasharray:9,9;stroke-miterlimit:10;" d="M 146.671875 340.632813 L 147.515625 341.464844 L 148.371094 342.277344 L 149.238281 343.082031 L 150.121094 343.871094 L 151.011719 344.644531 L 151.917969 345.402344 L 152.835938 346.148438 L 153.765625 346.878906 L 154.707031 347.597656 L 155.660156 348.296875 L 156.621094 348.984375 L 157.597656 349.652344 L 158.582031 350.308594 L 159.574219 350.949219 L 160.578125 351.570313 L 161.59375 352.179688 L 162.617188 352.769531 L 163.652344 353.34375 L 164.691406 353.902344 L 165.746094 354.445313 L 166.804688 354.96875 L 167.871094 355.476563 L 168.945313 355.96875 L 170.03125 356.441406 L 171.121094 356.898438 L 172.21875 357.339844 L 173.324219 357.761719 L 174.433594 358.164063 L 175.550781 358.550781 L 176.675781 358.921875 L 177.804688 359.273438 L 178.9375 359.605469 L 180.078125 359.921875 L 181.222656 360.21875 L 182.371094 360.496094 L 183.523438 360.757813 L 184.679688 361 L 185.839844 361.222656 L 187.007813 361.425781 L 188.171875 361.613281 L 189.34375 361.78125 L 190.515625 361.933594 L 191.691406 362.0625 L 192.867188 362.175781 L 194.046875 362.269531 L 195.226563 362.34375 L 196.40625 362.402344 L 197.589844 362.4375 L 198.773438 362.457031 L 199.953125 362.457031 L 201.136719 362.4375 L 202.316406 362.402344 L 203.5 362.34375 L 204.679688 362.269531 L 205.859375 362.175781 L 207.035156 362.0625 L 208.210938 361.933594 L 209.382813 361.78125 L 210.554688 361.613281 L 211.71875 361.425781 L 212.882813 361.222656 L 214.046875 361 L 215.203125 360.757813 L 216.355469 360.496094 L 217.503906 360.21875 L 218.648438 359.921875 L 219.789063 359.605469 L 220.921875 359.273438 L 222.050781 358.921875 L 223.175781 358.550781 L 224.292969 358.164063 L 225.402344 357.761719 L 226.507813 357.339844 L 227.605469 356.898438 L 228.695313 356.441406 L 229.78125 355.96875 L 230.855469 355.476563 L 231.921875 354.96875 L 232.980469 354.445313 L 234.03125 353.902344 L 235.074219 353.34375 L 236.109375 352.769531 L 237.132813 352.179688 L 238.148438 351.570313 L 239.152344 350.949219 L 240.144531 350.308594 L 241.128906 349.652344 L 242.105469 348.984375 L 243.066406 348.296875 L 244.019531 347.597656 L 244.960938 346.878906 L 245.890625 346.148438 L 246.808594 345.402344 L 247.714844 344.644531 L 248.605469 343.871094 L 249.488281 343.082031 L 250.355469 342.277344 L 251.210938 341.464844 L 252.054688 340.632813 L 199.363281 287.941406 Z M 146.671875 340.632813 "/>
<path style="fill:none;stroke-width:2.25;stroke-linecap:round;stroke-linejoin:round;stroke:rgb(0%,0%,0%);stroke-opacity:1;stroke-dasharray:9,9;stroke-miterlimit:10;" d="M 252.054688 340.632813 L 252.882813 339.789063 L 253.699219 338.933594 L 254.5 338.066406 L 255.289063 337.1875 L 256.066406 336.292969 L 256.824219 335.386719 L 257.570313 334.46875 L 258.300781 333.539063 L 259.015625 332.597656 L 259.71875 331.648438 L 260.402344 330.683594 L 261.074219 329.710938 L 261.730469 328.726563 L 262.367188 327.730469 L 262.992188 326.726563 L 263.597656 325.710938 L 264.191406 324.6875 L 264.765625 323.65625 L 265.324219 322.613281 L 265.863281 321.5625 L 266.390625 320.503906 L 266.898438 319.433594 L 267.390625 318.359375 L 267.863281 317.277344 L 268.320313 316.183594 L 268.757813 315.085938 L 269.179688 313.984375 L 269.585938 312.871094 L 269.972656 311.753906 L 270.339844 310.632813 L 270.691406 309.503906 L 271.027344 308.367188 L 271.339844 307.230469 L 271.636719 306.085938 L 271.917969 304.933594 L 272.175781 303.78125 L 272.417969 302.625 L 272.644531 301.464844 L 272.847656 300.300781 L 273.035156 299.132813 L 273.203125 297.960938 L 273.351563 296.789063 L 273.484375 295.613281 L 273.597656 294.4375 L 273.691406 293.257813 L 273.765625 292.078125 L 273.820313 290.898438 L 273.859375 289.714844 L 273.878906 288.535156 L 273.878906 287.351563 L 273.859375 286.167969 L 273.820313 284.988281 L 273.765625 283.804688 L 273.691406 282.625 L 273.597656 281.449219 L 273.484375 280.269531 L 273.351563 279.097656 L 273.203125 277.921875 L 273.035156 276.753906 L 272.847656 275.585938 L 272.644531 274.421875 L 272.417969 273.261719 L 272.175781 272.101563 L 271.917969 270.949219 L 271.636719 269.800781 L 271.339844 268.65625 L 271.027344 267.515625 L 270.691406 266.382813 L 270.339844 265.253906 L 269.972656 264.128906 L 269.585938 263.011719 L 269.179688 261.902344 L 268.757813 260.796875 L 268.320313 259.699219 L 267.863281 258.609375 L 267.390625 257.527344 L 266.898438 256.449219 L 266.390625 255.382813 L 265.863281 254.324219 L 265.324219 253.273438 L 264.765625 252.230469 L 264.191406 251.195313 L 263.597656 250.171875 L 262.992188 249.160156 L 262.367188 248.152344 L 261.730469 247.160156 L 261.074219 246.175781 L 260.402344 245.203125 L 259.71875 244.238281 L 259.015625 243.285156 L 258.300781 242.34375 L 257.570313 241.417969 L 256.824219 240.5 L 256.066406 239.59375 L 255.289063 238.699219 L 254.5 237.816406 L 253.699219 236.949219 L 252.882813 236.09375 L 252.054688 235.25 L 199.363281 287.941406 Z M 252.054688 340.632813 "/>
<path style="fill:none;stroke-width:2.25;stroke-linecap:round;stroke-linejoin:round;stroke:rgb(0%,0%,0%);stroke-opacity:1;stroke-miterlimit:10;" d="M 574.75 235.25 L 573.90625 234.421875 L 573.050781 233.605469 L 572.183594 232.804688 L 571.300781 232.015625 L 570.40625 231.242188 L 569.5 230.480469 L 568.582031 229.734375 L 567.65625 229.003906 L 566.714844 228.289063 L 565.761719 227.585938 L 564.796875 226.902344 L 563.824219 226.230469 L 562.839844 225.578125 L 561.847656 224.9375 L 560.839844 224.3125 L 559.828125 223.707031 L 558.804688 223.117188 L 557.769531 222.539063 L 556.726563 221.980469 L 555.675781 221.441406 L 554.617188 220.914063 L 553.550781 220.40625 L 552.472656 219.917969 L 551.390625 219.441406 L 550.300781 218.984375 L 549.203125 218.546875 L 548.097656 218.125 L 546.988281 217.71875 L 545.871094 217.332031 L 544.746094 216.964844 L 543.617188 216.613281 L 542.484375 216.28125 L 541.34375 215.964844 L 540.199219 215.667969 L 539.050781 215.390625 L 537.898438 215.128906 L 536.738281 214.886719 L 535.578125 214.664063 L 534.414063 214.457031 L 533.246094 214.269531 L 532.078125 214.101563 L 530.902344 213.953125 L 529.730469 213.820313 L 528.550781 213.710938 L 527.375 213.617188 L 526.195313 213.539063 L 525.011719 213.484375 L 523.832031 213.445313 L 522.648438 213.429688 L 521.464844 213.429688 L 520.285156 213.445313 L 519.101563 213.484375 L 517.921875 213.539063 L 516.742188 213.617188 L 515.5625 213.710938 L 514.386719 213.820313 L 513.210938 213.953125 L 512.039063 214.101563 L 510.867188 214.269531 L 509.699219 214.457031 L 508.535156 214.664063 L 507.375 214.886719 L 506.21875 215.128906 L 505.066406 215.390625 L 503.914063 215.667969 L 502.769531 215.964844 L 501.632813 216.28125 L 500.496094 216.613281 L 499.367188 216.964844 L 498.246094 217.332031 L 497.128906 217.71875 L 496.015625 218.125 L 494.914063 218.546875 L 493.816406 218.984375 L 492.722656 219.441406 L 491.640625 219.917969 L 490.566406 220.40625 L 489.496094 220.914063 L 488.4375 221.441406 L 487.386719 221.980469 L 486.34375 222.539063 L 485.3125 223.117188 L 484.289063 223.707031 L 483.273438 224.3125 L 482.269531 224.9375 L 481.273438 225.578125 L 480.289063 226.230469 L 479.316406 226.902344 L 478.351563 227.585938 L 477.402344 228.289063 L 476.460938 229.003906 L 475.53125 229.734375 L 474.613281 230.480469 L 473.707031 231.242188 L 472.8125 232.015625 L 471.933594 232.804688 L 471.066406 233.605469 L 470.210938 234.421875 L 469.367188 235.25 L 522.058594 287.941406 Z M 574.75 235.25 "/>
<path style="fill:none;stroke-width:2.25;stroke-linecap:round;stroke-linejoin:round;stroke:rgb(0%,0%,0%);stroke-opacity:1;stroke-miterlimit:10;" d="M 469.367188 235.25 L 468.535156 236.09375 L 467.722656 236.949219 L 466.917969 237.816406 L 466.128906 238.699219 L 465.355469 239.59375 L 464.597656 240.5 L 463.851563 241.417969 L 463.121094 242.34375 L 462.402344 243.285156 L 461.703125 244.238281 L 461.015625 245.203125 L 460.347656 246.175781 L 459.691406 247.160156 L 459.050781 248.152344 L 458.429688 249.160156 L 457.820313 250.171875 L 457.230469 251.195313 L 456.65625 252.230469 L 456.097656 253.273438 L 455.554688 254.324219 L 455.03125 255.382813 L 454.523438 256.449219 L 454.03125 257.527344 L 453.558594 258.609375 L 453.101563 259.699219 L 452.660156 260.796875 L 452.238281 261.902344 L 451.835938 263.011719 L 451.449219 264.128906 L 451.078125 265.253906 L 450.726563 266.382813 L 450.394531 267.515625 L 450.078125 268.65625 L 449.78125 269.800781 L 449.503906 270.949219 L 449.242188 272.101563 L 449 273.261719 L 448.777344 274.421875 L 448.574219 275.585938 L 448.386719 276.753906 L 448.21875 277.921875 L 448.066406 279.097656 L 447.9375 280.269531 L 447.824219 281.449219 L 447.730469 282.625 L 447.65625 283.804688 L 447.597656 284.988281 L 447.5625 286.167969 L 447.542969 287.351563 L 447.542969 288.535156 L 447.5625 289.714844 L 447.597656 290.898438 L 447.65625 292.078125 L 447.730469 293.257813 L 447.824219 294.4375 L 447.9375 295.613281 L 448.066406 296.789063 L 448.21875 297.960938 L 448.386719 299.132813 L 448.574219 300.300781 L 448.777344 301.464844 L 449 302.625 L 449.242188 303.78125 L 449.503906 304.933594 L 449.78125 306.085938 L 450.078125 307.230469 L 450.394531 308.367188 L 450.726563 309.503906 L 451.078125 310.632813 L 451.449219 311.753906 L 451.835938 312.871094 L 452.238281 313.984375 L 452.660156 315.085938 L 453.101563 316.183594 L 453.558594 317.277344 L 454.03125 318.359375 L 454.523438 319.433594 L 455.03125 320.503906 L 455.554688 321.5625 L 456.097656 322.613281 L 456.65625 323.65625 L 457.230469 324.6875 L 457.820313 325.710938 L 458.429688 326.726563 L 459.050781 327.730469 L 459.691406 328.726563 L 460.347656 329.710938 L 461.015625 330.683594 L 461.703125 331.648438 L 462.402344 332.597656 L 463.121094 333.539063 L 463.851563 334.46875 L 464.597656 335.386719 L 465.355469 336.292969 L 466.128906 337.1875 L 466.917969 338.066406 L 467.722656 338.933594 L 468.535156 339.789063 L 469.367188 340.632813 L 522.058594 287.941406 Z M 469.367188 235.25 "/>
<path style="fill:none;stroke-width:2.25;stroke-linecap:round;stroke-linejoin:round;stroke:rgb(0%,0%,0%);stroke-opacity:1;stroke-miterlimit:10;" d="M 469.367188 340.632813 L 470.210938 341.464844 L 471.066406 342.277344 L 471.933594 343.082031 L 472.8125 343.871094 L 473.707031 344.644531 L 474.613281 345.402344 L 475.53125 346.148438 L 476.460938 346.878906 L 477.402344 347.597656 L 478.351563 348.296875 L 479.316406 348.984375 L 480.289063 349.652344 L 481.273438 350.308594 L 482.269531 350.949219 L 483.273438 351.570313 L 484.289063 352.179688 L 485.3125 352.769531 L 486.34375 353.34375 L 487.386719 353.902344 L 488.4375 354.445313 L 489.496094 354.96875 L 490.566406 355.476563 L 491.640625 355.96875 L 492.722656 356.441406 L 493.816406 356.898438 L 494.914063 357.339844 L 496.015625 357.761719 L 497.128906 358.164063 L 498.246094 358.550781 L 499.367188 358.921875 L 500.496094 359.273438 L 501.632813 359.605469 L 502.769531 359.921875 L 503.914063 360.21875 L 505.066406 360.496094 L 506.21875 360.757813 L 507.375 361 L 508.535156 361.222656 L 509.699219 361.425781 L 510.867188 361.613281 L 512.039063 361.78125 L 513.210938 361.933594 L 514.386719 362.0625 L 515.5625 362.175781 L 516.742188 362.269531 L 517.921875 362.34375 L 519.101563 362.402344 L 520.285156 362.4375 L 521.464844 362.457031 L 522.648438 362.457031 L 523.832031 362.4375 L 525.011719 362.402344 L 526.195313 362.34375 L 527.375 362.269531 L 528.550781 362.175781 L 529.730469 362.0625 L 530.902344 361.933594 L 532.078125 361.78125 L 533.246094 361.613281 L 534.414063 361.425781 L 535.578125 361.222656 L 536.738281 361 L 537.898438 360.757813 L 539.050781 360.496094 L 540.199219 360.21875 L 541.34375 359.921875 L 542.484375 359.605469 L 543.617188 359.273438 L 544.746094 358.921875 L 545.871094 358.550781 L 546.988281 358.164063 L 548.097656 357.761719 L 549.203125 357.339844 L 550.300781 356.898438 L 551.390625 356.441406 L 552.472656 355.96875 L 553.550781 355.476563 L 554.617188 354.96875 L 555.675781 354.445313 L 556.726563 353.902344 L 557.769531 353.34375 L 558.804688 352.769531 L 559.828125 352.179688 L 560.839844 351.570313 L 561.847656 350.949219 L 562.839844 350.308594 L 563.824219 349.652344 L 564.796875 348.984375 L 565.761719 348.296875 L 566.714844 347.597656 L 567.65625 346.878906 L 568.582031 346.148438 L 569.5 345.402344 L 570.40625 344.644531 L 571.300781 343.871094 L 572.183594 343.082031 L 573.050781 342.277344 L 573.90625 341.464844 L 574.75 340.632813 L 522.058594 287.941406 Z M 469.367188 340.632813 "/>
<path style="fill:none;stroke-width:2.25;stroke-linecap:round;stroke-linejoin:round;stroke:rgb(0%,0%,0%);stroke-opacity:1;stroke-miterlimit:10;" d="M 574.75 340.632813 L 575.578125 339.789063 L 576.394531 338.933594 L 577.195313 338.066406 L 577.984375 337.1875 L 578.757813 336.292969 L 579.519531 335.386719 L 580.265625 334.46875 L 580.996094 333.539063 L 581.710938 332.597656 L 582.414063 331.648438 L 583.097656 330.683594 L 583.769531 329.710938 L 584.421875 328.726563 L 585.0625 327.730469 L 585.6875 326.726563 L 586.292969 325.710938 L 586.882813 324.6875 L 587.460938 323.65625 L 588.019531 322.613281 L 588.558594 321.5625 L 589.085938 320.503906 L 589.59375 319.433594 L 590.082031 318.359375 L 590.558594 317.277344 L 591.015625 316.183594 L 591.453125 315.085938 L 591.875 313.984375 L 592.28125 312.871094 L 592.667969 311.753906 L 593.035156 310.632813 L 593.386719 309.503906 L 593.71875 308.367188 L 594.035156 307.230469 L 594.332031 306.085938 L 594.609375 304.933594 L 594.871094 303.78125 L 595.113281 302.625 L 595.335938 301.464844 L 595.542969 300.300781 L 595.730469 299.132813 L 595.898438 297.960938 L 596.046875 296.789063 L 596.179688 295.613281 L 596.289063 294.4375 L 596.382813 293.257813 L 596.460938 292.078125 L 596.515625 290.898438 L 596.554688 289.714844 L 596.570313 288.535156 L 596.570313 287.351563 L 596.554688 286.167969 L 596.515625 284.988281 L 596.460938 283.804688 L 596.382813 282.625 L 596.289063 281.449219 L 596.179688 280.269531 L 596.046875 279.097656 L 595.898438 277.921875 L 595.730469 276.753906 L 595.542969 275.585938 L 595.335938 274.421875 L 595.113281 273.261719 L 594.871094 272.101563 L 594.609375 270.949219 L 594.332031 269.800781 L 594.035156 268.65625 L 593.71875 267.515625 L 593.386719 266.382813 L 593.035156 265.253906 L 592.667969 264.128906 L 592.28125 263.011719 L 591.875 261.902344 L 591.453125 260.796875 L 591.015625 259.699219 L 590.558594 258.609375 L 590.082031 257.527344 L 589.59375 256.449219 L 589.085938 255.382813 L 588.558594 254.324219 L 588.019531 253.273438 L 587.460938 252.230469 L 586.882813 251.195313 L 586.292969 250.171875 L 585.6875 249.160156 L 585.0625 248.152344 L 584.421875 247.160156 L 583.769531 246.175781 L 583.097656 245.203125 L 582.414063 244.238281 L 581.710938 243.285156 L 580.996094 242.34375 L 580.265625 241.417969 L 579.519531 240.5 L 578.757813 239.59375 L 577.984375 238.699219 L 577.195313 237.816406 L 576.394531 236.949219 L 575.578125 236.09375 L 574.75 235.25 L 522.058594 287.941406 Z M 574.75 340.632813 "/>
<path style="fill:none;stroke-width:2.25;stroke-linecap:round;stroke-linejoin:round;stroke:rgb(0%,0%,0%);stroke-opacity:1;stroke-dasharray:2.25,6.75;stroke-miterlimit:10;" d="M 897.441406 235.25 L 896.601563 234.421875 L 895.746094 233.605469 L 894.875 232.804688 L 893.996094 232.015625 L 893.101563 231.242188 L 892.195313 230.480469 L 891.277344 229.734375 L 890.347656 229.003906 L 889.40625 228.289063 L 888.457031 227.585938 L 887.492188 226.902344 L 886.519531 226.230469 L 885.535156 225.578125 L 884.539063 224.9375 L 883.535156 224.3125 L 882.519531 223.707031 L 881.496094 223.117188 L 880.464844 222.539063 L 879.421875 221.980469 L 878.371094 221.441406 L 877.3125 220.914063 L 876.242188 220.40625 L 875.167969 219.917969 L 874.085938 219.441406 L 872.996094 218.984375 L 871.898438 218.546875 L 870.792969 218.125 L 869.683594 217.71875 L 868.566406 217.332031 L 867.441406 216.964844 L 866.3125 216.613281 L 865.179688 216.28125 L 864.039063 215.964844 L 862.894531 215.667969 L 861.746094 215.390625 L 860.589844 215.128906 L 859.433594 214.886719 L 858.273438 214.664063 L 857.109375 214.457031 L 855.941406 214.269531 L 854.769531 214.101563 L 853.597656 213.953125 L 852.421875 213.820313 L 851.246094 213.710938 L 850.066406 213.617188 L 848.886719 213.539063 L 847.707031 213.484375 L 846.523438 213.445313 L 845.34375 213.429688 L 844.160156 213.429688 L 842.980469 213.445313 L 841.796875 213.484375 L 840.617188 213.539063 L 839.4375 213.617188 L 838.257813 213.710938 L 837.082031 213.820313 L 835.90625 213.953125 L 834.734375 214.101563 L 833.5625 214.269531 L 832.394531 214.457031 L 831.230469 214.664063 L 830.070313 214.886719 L 828.914063 215.128906 L 827.757813 215.390625 L 826.609375 215.667969 L 825.464844 215.964844 L 824.324219 216.28125 L 823.191406 216.613281 L 822.0625 216.964844 L 820.9375 217.332031 L 819.820313 217.71875 L 818.710938 218.125 L 817.605469 218.546875 L 816.507813 218.984375 L 815.417969 219.441406 L 814.335938 219.917969 L 813.261719 220.40625 L 812.191406 220.914063 L 811.132813 221.441406 L 810.082031 221.980469 L 809.039063 222.539063 L 808.007813 223.117188 L 806.984375 223.707031 L 805.96875 224.3125 L 804.964844 224.9375 L 803.96875 225.578125 L 802.984375 226.230469 L 802.011719 226.902344 L 801.046875 227.585938 L 800.097656 228.289063 L 799.15625 229.003906 L 798.226563 229.734375 L 797.308594 230.480469 L 796.402344 231.242188 L 795.507813 232.015625 L 794.628906 232.804688 L 793.757813 233.605469 L 792.902344 234.421875 L 792.0625 235.25 L 844.753906 287.941406 Z M 897.441406 235.25 "/>
<path style="fill:none;stroke-width:2.25;stroke-linecap:round;stroke-linejoin:round;stroke:rgb(0%,0%,0%);stroke-opacity:1;stroke-dasharray:2.25,6.75;stroke-miterlimit:10;" d="M 792.0625 235.25 L 791.230469 236.09375 L 790.414063 236.949219 L 789.613281 237.816406 L 788.824219 238.699219 L 788.050781 239.59375 L 787.289063 240.5 L 786.546875 241.417969 L 785.8125 242.34375 L 785.097656 243.285156 L 784.398438 244.238281 L 783.710938 245.203125 L 783.042969 246.175781 L 782.386719 247.160156 L 781.746094 248.152344 L 781.125 249.160156 L 780.515625 250.171875 L 779.925781 251.195313 L 779.351563 252.230469 L 778.792969 253.273438 L 778.25 254.324219 L 777.726563 255.382813 L 777.21875 256.449219 L 776.726563 257.527344 L 776.25 258.609375 L 775.796875 259.699219 L 775.355469 260.796875 L 774.933594 261.902344 L 774.527344 263.011719 L 774.140625 264.128906 L 773.773438 265.253906 L 773.421875 266.382813 L 773.089844 267.515625 L 772.773438 268.65625 L 772.476563 269.800781 L 772.199219 270.949219 L 771.9375 272.101563 L 771.695313 273.261719 L 771.472656 274.421875 L 771.265625 275.585938 L 771.082031 276.753906 L 770.910156 277.921875 L 770.761719 279.097656 L 770.632813 280.269531 L 770.519531 281.449219 L 770.425781 282.625 L 770.351563 283.804688 L 770.292969 284.988281 L 770.257813 286.167969 L 770.238281 287.351563 L 770.238281 288.535156 L 770.257813 289.714844 L 770.292969 290.898438 L 770.351563 292.078125 L 770.425781 293.257813 L 770.519531 294.4375 L 770.632813 295.613281 L 770.761719 296.789063 L 770.910156 297.960938 L 771.082031 299.132813 L 771.265625 300.300781 L 771.472656 301.464844 L 771.695313 302.625 L 771.9375 303.78125 L 772.199219 304.933594 L 772.476563 306.085938 L 772.773438 307.230469 L 773.089844 308.367188 L 773.421875 309.503906 L 773.773438 310.632813 L 774.140625 311.753906 L 774.527344 312.871094 L 774.933594 313.984375 L 775.355469 315.085938 L 775.796875 316.183594 L 776.25 317.277344 L 776.726563 318.359375 L 777.21875 319.433594 L 777.726563 320.503906 L 778.25 321.5625 L 778.792969 322.613281 L 779.351563 323.65625 L 779.925781 324.6875 L 780.515625 325.710938 L 781.125 326.726563 L 781.746094 327.730469 L 782.386719 328.726563 L 783.042969 329.710938 L 783.710938 330.683594 L 784.398438 331.648438 L 785.097656 332.597656 L 785.8125 333.539063 L 786.546875 334.46875 L 787.289063 335.386719 L 788.050781 336.292969 L 788.824219 337.1875 L 789.613281 338.066406 L 790.414063 338.933594 L 791.230469 339.789063 L 792.0625 340.632813 L 844.753906 287.941406 Z M 792.0625 235.25 "/>
<path style="fill:none;stroke-width:2.25;stroke-linecap:round;stroke-linejoin:round;stroke:rgb(0%,0%,0%);stroke-opacity:1;stroke-dasharray:2.25,6.75;stroke-miterlimit:10;" d="M 792.0625 340.632813 L 792.902344 341.464844 L 793.757813 342.277344 L 794.628906 343.082031 L 795.507813 343.871094 L 796.402344 344.644531 L 797.308594 345.402344 L 798.226563 346.148438 L 799.15625 346.878906 L 800.097656 347.597656 L 801.046875 348.296875 L 802.011719 348.984375 L 802.984375 349.652344 L 803.96875 350.308594 L 804.964844 350.949219 L 805.96875 351.570313 L 806.984375 352.179688 L 808.007813 352.769531 L 809.039063 353.34375 L 810.082031 353.902344 L 811.132813 354.445313 L 812.191406 354.96875 L 813.261719 355.476563 L 814.335938 355.96875 L 815.417969 356.441406 L 816.507813 356.898438 L 817.605469 357.339844 L 818.710938 357.761719 L 819.820313 358.164063 L 820.9375 358.550781 L 822.0625 358.921875 L 823.191406 359.273438 L 824.324219 359.605469 L 825.464844 359.921875 L 826.609375 360.21875 L 827.757813 360.496094 L 828.914063 360.757813 L 830.070313 361 L 831.230469 361.222656 L 832.394531 361.425781 L 833.5625 361.613281 L 834.734375 361.78125 L 835.90625 361.933594 L 837.082031 362.0625 L 838.257813 362.175781 L 839.4375 362.269531 L 840.617188 362.34375 L 841.796875 362.402344 L 842.980469 362.4375 L 844.160156 362.457031 L 845.34375 362.457031 L 846.523438 362.4375 L 847.707031 362.402344 L 848.886719 362.34375 L 850.066406 362.269531 L 851.246094 362.175781 L 852.421875 362.0625 L 853.597656 361.933594 L 854.769531 361.78125 L 855.941406 361.613281 L 857.109375 361.425781 L 858.273438 361.222656 L 859.433594 361 L 860.589844 360.757813 L 861.746094 360.496094 L 862.894531 360.21875 L 864.039063 359.921875 L 865.179688 359.605469 L 866.3125 359.273438 L 867.441406 358.921875 L 868.566406 358.550781 L 869.683594 358.164063 L 870.792969 357.761719 L 871.898438 357.339844 L 872.996094 356.898438 L 874.085938 356.441406 L 875.167969 355.96875 L 876.242188 355.476563 L 877.3125 354.96875 L 878.371094 354.445313 L 879.421875 353.902344 L 880.464844 353.34375 L 881.496094 352.769531 L 882.519531 352.179688 L 883.535156 351.570313 L 884.539063 350.949219 L 885.535156 350.308594 L 886.519531 349.652344 L 887.492188 348.984375 L 888.457031 348.296875 L 889.40625 347.597656 L 890.347656 346.878906 L 891.277344 346.148438 L 892.195313 345.402344 L 893.101563 344.644531 L 893.996094 343.871094 L 894.875 343.082031 L 895.746094 342.277344 L 896.601563 341.464844 L 897.441406 340.632813 L 844.753906 287.941406 Z M 792.0625 340.632813 "/>
<path style="fill:none;stroke-width:2.25;stroke-linecap:round;stroke-linejoin:round;stroke:rgb(0%,0%,0%);stroke-opacity:1;stroke-dasharray:2.25,6.75;stroke-miterlimit:10;" d="M 897.441406 340.632813 L 898.273438 339.789063 L 899.089844 338.933594 L 899.890625 338.066406 L 900.679688 337.1875 L 901.453125 336.292969 L 902.214844 335.386719 L 902.957031 334.46875 L 903.691406 333.539063 L 904.40625 332.597656 L 905.105469 331.648438 L 905.792969 330.683594 L 906.464844 329.710938 L 907.117188 328.726563 L 907.757813 327.730469 L 908.378906 326.726563 L 908.988281 325.710938 L 909.578125 324.6875 L 910.152344 323.65625 L 910.710938 322.613281 L 911.253906 321.5625 L 911.777344 320.503906 L 912.285156 319.433594 L 912.777344 318.359375 L 913.253906 317.277344 L 913.710938 316.183594 L 914.148438 315.085938 L 914.570313 313.984375 L 914.976563 312.871094 L 915.363281 311.753906 L 915.730469 310.632813 L 916.082031 309.503906 L 916.414063 308.367188 L 916.730469 307.230469 L 917.027344 306.085938 L 917.304688 304.933594 L 917.566406 303.78125 L 917.808594 302.625 L 918.03125 301.464844 L 918.238281 300.300781 L 918.421875 299.132813 L 918.59375 297.960938 L 918.742188 296.789063 L 918.871094 295.613281 L 918.984375 294.4375 L 919.078125 293.257813 L 919.152344 292.078125 L 919.210938 290.898438 L 919.246094 289.714844 L 919.265625 288.535156 L 919.265625 287.351563 L 919.246094 286.167969 L 919.210938 284.988281 L 919.152344 283.804688 L 919.078125 282.625 L 918.984375 281.449219 L 918.871094 280.269531 L 918.742188 279.097656 L 918.59375 277.921875 L 918.421875 276.753906 L 918.238281 275.585938 L 918.03125 274.421875 L 917.808594 273.261719 L 917.566406 272.101563 L 917.304688 270.949219 L 917.027344 269.800781 L 916.730469 268.65625 L 916.414063 267.515625 L 916.082031 266.382813 L 915.730469 265.253906 L 915.363281 264.128906 L 914.976563 263.011719 L 914.570313 261.902344 L 914.148438 260.796875 L 913.710938 259.699219 L 913.253906 258.609375 L 912.777344 257.527344 L 912.285156 256.449219 L 911.777344 255.382813 L 911.253906 254.324219 L 910.710938 253.273438 L 910.152344 252.230469 L 909.578125 251.195313 L 908.988281 250.171875 L 908.378906 249.160156 L 907.757813 248.152344 L 907.117188 247.160156 L 906.464844 246.175781 L 905.792969 245.203125 L 905.105469 244.238281 L 904.40625 243.285156 L 903.691406 242.34375 L 902.957031 241.417969 L 902.214844 240.5 L 901.453125 239.59375 L 900.679688 238.699219 L 899.890625 237.816406 L 899.089844 236.949219 L 898.273438 236.09375 L 897.441406 235.25 L 844.753906 287.941406 Z M 897.441406 340.632813 "/>
<path style="fill:none;stroke-width:2.25;stroke-linecap:round;stroke-linejoin:round;stroke:rgb(0%,0%,0%);stroke-opacity:1;stroke-dasharray:9,9;stroke-miterlimit:10;" d="M 252.054688 425.945313 L 251.210938 425.117188 L 250.355469 424.300781 L 249.488281 423.5 L 248.605469 422.710938 L 247.714844 421.933594 L 246.808594 421.175781 L 245.890625 420.429688 L 244.960938 419.699219 L 244.019531 418.984375 L 243.066406 418.28125 L 242.105469 417.597656 L 241.128906 416.925781 L 240.144531 416.269531 L 239.152344 415.632813 L 238.148438 415.007813 L 237.132813 414.402344 L 236.109375 413.808594 L 235.074219 413.234375 L 234.03125 412.675781 L 232.980469 412.136719 L 231.921875 411.609375 L 230.855469 411.101563 L 229.78125 410.609375 L 228.695313 410.136719 L 227.605469 409.679688 L 226.507813 409.242188 L 225.402344 408.820313 L 224.292969 408.414063 L 223.175781 408.027344 L 222.050781 407.660156 L 220.921875 407.308594 L 219.789063 406.972656 L 218.648438 406.660156 L 217.503906 406.363281 L 216.355469 406.082031 L 215.203125 405.824219 L 214.046875 405.582031 L 212.882813 405.355469 L 211.71875 405.152344 L 210.554688 404.964844 L 209.382813 404.796875 L 208.210938 404.648438 L 207.035156 404.515625 L 205.859375 404.402344 L 204.679688 404.308594 L 203.5 404.234375 L 202.316406 404.179688 L 201.136719 404.140625 L 199.953125 404.121094 L 198.773438 404.121094 L 197.589844 404.140625 L 196.40625 404.179688 L 195.226563 404.234375 L 194.046875 404.308594 L 192.867188 404.402344 L 191.691406 404.515625 L 190.515625 404.648438 L 189.34375 404.796875 L 188.171875 404.964844 L 187.007813 405.152344 L 185.839844 405.355469 L 184.679688 405.582031 L 183.523438 405.824219 L 182.371094 406.082031 L 181.222656 406.363281 L 180.078125 406.660156 L 178.9375 406.972656 L 177.804688 407.308594 L 176.675781 407.660156 L 175.550781 408.027344 L 174.433594 408.414063 L 173.324219 408.820313 L 172.21875 409.242188 L 171.121094 409.679688 L 170.03125 410.136719 L 168.945313 410.609375 L 167.871094 411.101563 L 166.804688 411.609375 L 165.746094 412.136719 L 164.691406 412.675781 L 163.652344 413.234375 L 162.617188 413.808594 L 161.59375 414.402344 L 160.578125 415.007813 L 159.574219 415.632813 L 158.582031 416.269531 L 157.597656 416.925781 L 156.621094 417.597656 L 155.660156 418.28125 L 154.707031 418.984375 L 153.765625 419.699219 L 152.835938 420.429688 L 151.917969 421.175781 L 151.011719 421.933594 L 150.121094 422.710938 L 149.238281 423.5 L 148.371094 424.300781 L 147.515625 425.117188 L 146.671875 425.945313 L 199.363281 478.636719 Z M 252.054688 425.945313 "/>
<path style="fill:none;stroke-width:2.25;stroke-linecap:round;stroke-linejoin:round;stroke:rgb(0%,0%,0%);stroke-opacity:1;stroke-dasharray:9,9;stroke-miterlimit:10;" d="M 146.671875 425.945313 L 145.84375 426.789063 L 145.027344 427.644531 L 144.222656 428.511719 L 143.4375 429.394531 L 142.660156 430.285156 L 141.902344 431.191406 L 141.15625 432.109375 L 140.425781 433.039063 L 139.710938 433.980469 L 139.007813 434.933594 L 138.324219 435.894531 L 137.652344 436.871094 L 136.996094 437.855469 L 136.359375 438.847656 L 135.734375 439.851563 L 135.128906 440.867188 L 134.535156 441.890625 L 133.960938 442.925781 L 133.402344 443.96875 L 132.863281 445.019531 L 132.335938 446.078125 L 131.828125 447.144531 L 131.335938 448.21875 L 130.863281 449.304688 L 130.40625 450.394531 L 129.964844 451.492188 L 129.542969 452.597656 L 129.140625 453.707031 L 128.753906 454.824219 L 128.386719 455.949219 L 128.035156 457.078125 L 127.699219 458.210938 L 127.386719 459.351563 L 127.089844 460.496094 L 126.808594 461.644531 L 126.550781 462.796875 L 126.308594 463.953125 L 126.082031 465.117188 L 125.878906 466.28125 L 125.691406 467.445313 L 125.523438 468.617188 L 125.375 469.789063 L 125.242188 470.964844 L 125.128906 472.140625 L 125.035156 473.320313 L 124.960938 474.5 L 124.90625 475.683594 L 124.867188 476.863281 L 124.847656 478.046875 L 124.847656 479.226563 L 124.867188 480.410156 L 124.90625 481.59375 L 124.960938 482.773438 L 125.035156 483.953125 L 125.128906 485.132813 L 125.242188 486.308594 L 125.375 487.484375 L 125.523438 488.65625 L 125.691406 489.828125 L 125.878906 490.992188 L 126.082031 492.160156 L 126.308594 493.320313 L 126.550781 494.476563 L 126.808594 495.628906 L 127.089844 496.777344 L 127.386719 497.921875 L 127.699219 499.0625 L 128.035156 500.195313 L 128.386719 501.324219 L 128.753906 502.449219 L 129.140625 503.566406 L 129.542969 504.675781 L 129.964844 505.78125 L 130.40625 506.878906 L 130.863281 507.96875 L 131.335938 509.054688 L 131.828125 510.128906 L 132.335938 511.195313 L 132.863281 512.253906 L 133.402344 513.308594 L 133.960938 514.347656 L 134.535156 515.382813 L 135.128906 516.40625 L 135.734375 517.421875 L 136.359375 518.425781 L 136.996094 519.417969 L 137.652344 520.402344 L 138.324219 521.378906 L 139.007813 522.339844 L 139.710938 523.292969 L 140.425781 524.234375 L 141.15625 525.164063 L 141.902344 526.082031 L 142.660156 526.988281 L 143.4375 527.878906 L 144.222656 528.761719 L 145.027344 529.628906 L 145.84375 530.484375 L 146.671875 531.328125 L 199.363281 478.636719 Z M 146.671875 425.945313 "/>
<path style="fill:none;stroke-width:2.25;stroke-linecap:round;stroke-linejoin:round;stroke:rgb(0%,0%,0%);stroke-opacity:1;stroke-dasharray:9,9;stroke-miterlimit:10;" d="M 146.671875 531.328125 L 147.515625 532.15625 L 148.371094 532.972656 L 149.238281 533.777344 L 150.121094 534.5625 L 151.011719 535.339844 L 151.917969 536.097656 L 152.835938 536.84375 L 153.765625 537.574219 L 154.707031 538.289063 L 155.660156 538.992188 L 156.621094 539.675781 L 157.597656 540.347656 L 158.582031 541.003906 L 159.574219 541.640625 L 160.578125 542.265625 L 161.59375 542.871094 L 162.617188 543.464844 L 163.652344 544.039063 L 164.691406 544.597656 L 165.746094 545.136719 L 166.804688 545.664063 L 167.871094 546.171875 L 168.945313 546.664063 L 170.03125 547.136719 L 171.121094 547.59375 L 172.21875 548.035156 L 173.324219 548.457031 L 174.433594 548.859375 L 175.550781 549.246094 L 176.675781 549.613281 L 177.804688 549.964844 L 178.9375 550.300781 L 180.078125 550.613281 L 181.222656 550.910156 L 182.371094 551.191406 L 183.523438 551.449219 L 184.679688 551.691406 L 185.839844 551.917969 L 187.007813 552.121094 L 188.171875 552.308594 L 189.34375 552.476563 L 190.515625 552.625 L 191.691406 552.757813 L 192.867188 552.871094 L 194.046875 552.964844 L 195.226563 553.039063 L 196.40625 553.09375 L 197.589844 553.132813 L 198.773438 553.152344 L 199.953125 553.152344 L 201.136719 553.132813 L 202.316406 553.09375 L 203.5 553.039063 L 204.679688 552.964844 L 205.859375 552.871094 L 207.035156 552.757813 L 208.210938 552.625 L 209.382813 552.476563 L 210.554688 552.308594 L 211.71875 552.121094 L 212.882813 551.917969 L 214.046875 551.691406 L 215.203125 551.449219 L 216.355469 551.191406 L 217.503906 550.910156 L 218.648438 550.613281 L 219.789063 550.300781 L 220.921875 549.964844 L 222.050781 549.613281 L 223.175781 549.246094 L 224.292969 548.859375 L 225.402344 548.457031 L 226.507813 548.035156 L 227.605469 547.59375 L 228.695313 547.136719 L 229.78125 546.664063 L 230.855469 546.171875 L 231.921875 545.664063 L 232.980469 545.136719 L 234.03125 544.597656 L 235.074219 544.039063 L 236.109375 543.464844 L 237.132813 542.871094 L 238.148438 542.265625 L 239.152344 541.640625 L 240.144531 541.003906 L 241.128906 540.347656 L 242.105469 539.675781 L 243.066406 538.992188 L 244.019531 538.289063 L 244.960938 537.574219 L 245.890625 536.84375 L 246.808594 536.097656 L 247.714844 535.339844 L 248.605469 534.5625 L 249.488281 533.777344 L 250.355469 532.972656 L 251.210938 532.15625 L 252.054688 531.328125 L 199.363281 478.636719 Z M 146.671875 531.328125 "/>
<path style="fill:none;stroke-width:2.25;stroke-linecap:round;stroke-linejoin:round;stroke:rgb(0%,0%,0%);stroke-opacity:1;stroke-dasharray:9,9;stroke-miterlimit:10;" d="M 252.054688 531.328125 L 252.882813 530.484375 L 253.699219 529.628906 L 254.5 528.761719 L 255.289063 527.878906 L 256.066406 526.988281 L 256.824219 526.082031 L 257.570313 525.164063 L 258.300781 524.234375 L 259.015625 523.292969 L 259.71875 522.339844 L 260.402344 521.378906 L 261.074219 520.402344 L 261.730469 519.417969 L 262.367188 518.425781 L 262.992188 517.421875 L 263.597656 516.40625 L 264.191406 515.382813 L 264.765625 514.347656 L 265.324219 513.308594 L 265.863281 512.253906 L 266.390625 511.195313 L 266.898438 510.128906 L 267.390625 509.054688 L 267.863281 507.96875 L 268.320313 506.878906 L 268.757813 505.78125 L 269.179688 504.675781 L 269.585938 503.566406 L 269.972656 502.449219 L 270.339844 501.324219 L 270.691406 500.195313 L 271.027344 499.0625 L 271.339844 497.921875 L 271.636719 496.777344 L 271.917969 495.628906 L 272.175781 494.476563 L 272.417969 493.320313 L 272.644531 492.160156 L 272.847656 490.992188 L 273.035156 489.828125 L 273.203125 488.65625 L 273.351563 487.484375 L 273.484375 486.308594 L 273.597656 485.132813 L 273.691406 483.953125 L 273.765625 482.773438 L 273.820313 481.59375 L 273.859375 480.410156 L 273.878906 479.226563 L 273.878906 478.046875 L 273.859375 476.863281 L 273.820313 475.683594 L 273.765625 474.5 L 273.691406 473.320313 L 273.597656 472.140625 L 273.484375 470.964844 L 273.351563 469.789063 L 273.203125 468.617188 L 273.035156 467.445313 L 272.847656 466.28125 L 272.644531 465.117188 L 272.417969 463.953125 L 272.175781 462.796875 L 271.917969 461.644531 L 271.636719 460.496094 L 271.339844 459.351563 L 271.027344 458.210938 L 270.691406 457.078125 L 270.339844 455.949219 L 269.972656 454.824219 L 269.585938 453.707031 L 269.179688 452.597656 L 268.757813 451.492188 L 268.320313 450.394531 L 267.863281 449.304688 L 267.390625 448.21875 L 266.898438 447.144531 L 266.390625 446.078125 L 265.863281 445.019531 L 265.324219 443.96875 L 264.765625 442.925781 L 264.191406 441.890625 L 263.597656 440.867188 L 262.992188 439.851563 L 262.367188 438.847656 L 261.730469 437.855469 L 261.074219 436.871094 L 260.402344 435.894531 L 259.71875 434.933594 L 259.015625 433.980469 L 258.300781 433.039063 L 257.570313 432.109375 L 256.824219 431.191406 L 256.066406 430.285156 L 255.289063 429.394531 L 254.5 428.511719 L 253.699219 427.644531 L 252.882813 426.789063 L 252.054688 425.945313 L 199.363281 478.636719 Z M 252.054688 531.328125 "/>
<path style="fill:none;stroke-width:2.25;stroke-linecap:round;stroke-linejoin:round;stroke:rgb(0%,0%,0%);stroke-opacity:1;stroke-miterlimit:10;" d="M 574.75 425.945313 L 573.90625 425.117188 L 573.050781 424.300781 L 572.183594 423.5 L 571.300781 422.710938 L 570.40625 421.933594 L 569.5 421.175781 L 568.582031 420.429688 L 567.65625 419.699219 L 566.714844 418.984375 L 565.761719 418.28125 L 564.796875 417.597656 L 563.824219 416.925781 L 562.839844 416.269531 L 561.847656 415.632813 L 560.839844 415.007813 L 559.828125 414.402344 L 558.804688 413.808594 L 557.769531 413.234375 L 556.726563 412.675781 L 555.675781 412.136719 L 554.617188 411.609375 L 553.550781 411.101563 L 552.472656 410.609375 L 551.390625 410.136719 L 550.300781 409.679688 L 549.203125 409.242188 L 548.097656 408.820313 L 546.988281 408.414063 L 545.871094 408.027344 L 544.746094 407.660156 L 543.617188 407.308594 L 542.484375 406.972656 L 541.34375 406.660156 L 540.199219 406.363281 L 539.050781 406.082031 L 537.898438 405.824219 L 536.738281 405.582031 L 535.578125 405.355469 L 534.414063 405.152344 L 533.246094 404.964844 L 532.078125 404.796875 L 530.902344 404.648438 L 529.730469 404.515625 L 528.550781 404.402344 L 527.375 404.308594 L 526.195313 404.234375 L 525.011719 404.179688 L 523.832031 404.140625 L 522.648438 404.121094 L 521.464844 404.121094 L 520.285156 404.140625 L 519.101563 404.179688 L 517.921875 404.234375 L 516.742188 404.308594 L 515.5625 404.402344 L 514.386719 404.515625 L 513.210938 404.648438 L 512.039063 404.796875 L 510.867188 404.964844 L 509.699219 405.152344 L 508.535156 405.355469 L 507.375 405.582031 L 506.21875 405.824219 L 505.066406 406.082031 L 503.914063 406.363281 L 502.769531 406.660156 L 501.632813 406.972656 L 500.496094 407.308594 L 499.367188 407.660156 L 498.246094 408.027344 L 497.128906 408.414063 L 496.015625 408.820313 L 494.914063 409.242188 L 493.816406 409.679688 L 492.722656 410.136719 L 491.640625 410.609375 L 490.566406 411.101563 L 489.496094 411.609375 L 488.4375 412.136719 L 487.386719 412.675781 L 486.34375 413.234375 L 485.3125 413.808594 L 484.289063 414.402344 L 483.273438 415.007813 L 482.269531 415.632813 L 481.273438 416.269531 L 480.289063 416.925781 L 479.316406 417.597656 L 478.351563 418.28125 L 477.402344 418.984375 L 476.460938 419.699219 L 475.53125 420.429688 L 474.613281 421.175781 L 473.707031 421.933594 L 472.8125 422.710938 L 471.933594 423.5 L 471.066406 424.300781 L 470.210938 425.117188 L 469.367188 425.945313 L 522.058594 478.636719 Z M 574.75 425.945313 "/>
<path style="fill:none;stroke-width:2.25;stroke-linecap:round;stroke-linejoin:round;stroke:rgb(0%,0%,0%);stroke-opacity:1;stroke-miterlimit:10;" d="M 469.367188 425.945313 L 468.535156 426.789063 L 467.722656 427.644531 L 466.917969 428.511719 L 466.128906 429.394531 L 465.355469 430.285156 L 464.597656 431.191406 L 463.851563 432.109375 L 463.121094 433.039063 L 462.402344 433.980469 L 461.703125 434.933594 L 461.015625 435.894531 L 460.347656 436.871094 L 459.691406 437.855469 L 459.050781 438.847656 L 458.429688 439.851563 L 457.820313 440.867188 L 457.230469 441.890625 L 456.65625 442.925781 L 456.097656 443.96875 L 455.554688 445.019531 L 455.03125 446.078125 L 454.523438 447.144531 L 454.03125 448.21875 L 453.558594 449.304688 L 453.101563 450.394531 L 452.660156 451.492188 L 452.238281 452.597656 L 451.835938 453.707031 L 451.449219 454.824219 L 451.078125 455.949219 L 450.726563 457.078125 L 450.394531 458.210938 L 450.078125 459.351563 L 449.78125 460.496094 L 449.503906 461.644531 L 449.242188 462.796875 L 449 463.953125 L 448.777344 465.117188 L 448.574219 466.28125 L 448.386719 467.445313 L 448.21875 468.617188 L 448.066406 469.789063 L 447.9375 470.964844 L 447.824219 472.140625 L 447.730469 473.320313 L 447.65625 474.5 L 447.597656 475.683594 L 447.5625 476.863281 L 447.542969 478.046875 L 447.542969 479.226563 L 447.5625 480.410156 L 447.597656 481.59375 L 447.65625 482.773438 L 447.730469 483.953125 L 447.824219 485.132813 L 447.9375 486.308594 L 448.066406 487.484375 L 448.21875 488.65625 L 448.386719 489.828125 L 448.574219 490.992188 L 448.777344 492.160156 L 449 493.320313 L 449.242188 494.476563 L 449.503906 495.628906 L 449.78125 496.777344 L 450.078125 497.921875 L 450.394531 499.0625 L 450.726563 500.195313 L 451.078125 501.324219 L 451.449219 502.449219 L 451.835938 503.566406 L 452.238281 504.675781 L 452.660156 505.78125 L 453.101563 506.878906 L 453.558594 507.96875 L 454.03125 509.054688 L 454.523438 510.128906 L 455.03125 511.195313 L 455.554688 512.253906 L 456.097656 513.308594 L 456.65625 514.347656 L 457.230469 515.382813 L 457.820313 516.40625 L 458.429688 517.421875 L 459.050781 518.425781 L 459.691406 519.417969 L 460.347656 520.402344 L 461.015625 521.378906 L 461.703125 522.339844 L 462.402344 523.292969 L 463.121094 524.234375 L 463.851563 525.164063 L 464.597656 526.082031 L 465.355469 526.988281 L 466.128906 527.878906 L 466.917969 528.761719 L 467.722656 529.628906 L 468.535156 530.484375 L 469.367188 531.328125 L 522.058594 478.636719 Z M 469.367188 425.945313 "/>
<path style="fill:none;stroke-width:2.25;stroke-linecap:round;stroke-linejoin:round;stroke:rgb(0%,0%,0%);stroke-opacity:1;stroke-miterlimit:10;" d="M 469.367188 531.328125 L 470.210938 532.15625 L 471.066406 532.972656 L 471.933594 533.777344 L 472.8125 534.5625 L 473.707031 535.339844 L 474.613281 536.097656 L 475.53125 536.84375 L 476.460938 537.574219 L 477.402344 538.289063 L 478.351563 538.992188 L 479.316406 539.675781 L 480.289063 540.347656 L 481.273438 541.003906 L 482.269531 541.640625 L 483.273438 542.265625 L 484.289063 542.871094 L 485.3125 543.464844 L 486.34375 544.039063 L 487.386719 544.597656 L 488.4375 545.136719 L 489.496094 545.664063 L 490.566406 546.171875 L 491.640625 546.664063 L 492.722656 547.136719 L 493.816406 547.59375 L 494.914063 548.035156 L 496.015625 548.457031 L 497.128906 548.859375 L 498.246094 549.246094 L 499.367188 549.613281 L 500.496094 549.964844 L 501.632813 550.300781 L 502.769531 550.613281 L 503.914063 550.910156 L 505.066406 551.191406 L 506.21875 551.449219 L 507.375 551.691406 L 508.535156 551.917969 L 509.699219 552.121094 L 510.867188 552.308594 L 512.039063 552.476563 L 513.210938 552.625 L 514.386719 552.757813 L 515.5625 552.871094 L 516.742188 552.964844 L 517.921875 553.039063 L 519.101563 553.09375 L 520.285156 553.132813 L 521.464844 553.152344 L 522.648438 553.152344 L 523.832031 553.132813 L 525.011719 553.09375 L 526.195313 553.039063 L 527.375 552.964844 L 528.550781 552.871094 L 529.730469 552.757813 L 530.902344 552.625 L 532.078125 552.476563 L 533.246094 552.308594 L 534.414063 552.121094 L 535.578125 551.917969 L 536.738281 551.691406 L 537.898438 551.449219 L 539.050781 551.191406 L 540.199219 550.910156 L 541.34375 550.613281 L 542.484375 550.300781 L 543.617188 549.964844 L 544.746094 549.613281 L 545.871094 549.246094 L 546.988281 548.859375 L 548.097656 548.457031 L 549.203125 548.035156 L 550.300781 547.59375 L 551.390625 547.136719 L 552.472656 546.664063 L 553.550781 546.171875 L 554.617188 545.664063 L 555.675781 545.136719 L 556.726563 544.597656 L 557.769531 544.039063 L 558.804688 543.464844 L 559.828125 542.871094 L 560.839844 542.265625 L 561.847656 541.640625 L 562.839844 541.003906 L 563.824219 540.347656 L 564.796875 539.675781 L 565.761719 538.992188 L 566.714844 538.289063 L 567.65625 537.574219 L 568.582031 536.84375 L 569.5 536.097656 L 570.40625 535.339844 L 571.300781 534.5625 L 572.183594 533.777344 L 573.050781 532.972656 L 573.90625 532.15625 L 574.75 531.328125 L 522.058594 478.636719 Z M 469.367188 531.328125 "/>
<path style="fill:none;stroke-width:2.25;stroke-linecap:round;stroke-linejoin:round;stroke:rgb(0%,0%,0%);stroke-opacity:1;stroke-miterlimit:10;" d="M 574.75 531.328125 L 575.578125 530.484375 L 576.394531 529.628906 L 577.195313 528.761719 L 577.984375 527.878906 L 578.757813 526.988281 L 579.519531 526.082031 L 580.265625 525.164063 L 580.996094 524.234375 L 581.710938 523.292969 L 582.414063 522.339844 L 583.097656 521.378906 L 583.769531 520.402344 L 584.421875 519.417969 L 585.0625 518.425781 L 585.6875 517.421875 L 586.292969 516.40625 L 586.882813 515.382813 L 587.460938 514.347656 L 588.019531 513.308594 L 588.558594 512.253906 L 589.085938 511.195313 L 589.59375 510.128906 L 590.082031 509.054688 L 590.558594 507.96875 L 591.015625 506.878906 L 591.453125 505.78125 L 591.875 504.675781 L 592.28125 503.566406 L 592.667969 502.449219 L 593.035156 501.324219 L 593.386719 500.195313 L 593.71875 499.0625 L 594.035156 497.921875 L 594.332031 496.777344 L 594.609375 495.628906 L 594.871094 494.476563 L 595.113281 493.320313 L 595.335938 492.160156 L 595.542969 490.992188 L 595.730469 489.828125 L 595.898438 488.65625 L 596.046875 487.484375 L 596.179688 486.308594 L 596.289063 485.132813 L 596.382813 483.953125 L 596.460938 482.773438 L 596.515625 481.59375 L 596.554688 480.410156 L 596.570313 479.226563 L 596.570313 478.046875 L 596.554688 476.863281 L 596.515625 475.683594 L 596.460938 474.5 L 596.382813 473.320313 L 596.289063 472.140625 L 596.179688 470.964844 L 596.046875 469.789063 L 595.898438 468.617188 L 595.730469 467.445313 L 595.542969 466.28125 L 595.335938 465.117188 L 595.113281 463.953125 L 594.871094 462.796875 L 594.609375 461.644531 L 594.332031 460.496094 L 594.035156 459.351563 L 593.71875 458.210938 L 593.386719 457.078125 L 593.035156 455.949219 L 592.667969 454.824219 L 592.28125 453.707031 L 591.875 452.597656 L 591.453125 451.492188 L 591.015625 450.394531 L 590.558594 449.304688 L 590.082031 448.21875 L 589.59375 447.144531 L 589.085938 446.078125 L 588.558594 445.019531 L 588.019531 443.96875 L 587.460938 442.925781 L 586.882813 441.890625 L 586.292969 440.867188 L 585.6875 439.851563 L 585.0625 438.847656 L 584.421875 437.855469 L 583.769531 436.871094 L 583.097656 435.894531 L 582.414063 434.933594 L 581.710938 433.980469 L 580.996094 433.039063 L 580.265625 432.109375 L 579.519531 431.191406 L 578.757813 430.285156 L 577.984375 429.394531 L 577.195313 428.511719 L 576.394531 427.644531 L 575.578125 426.789063 L 574.75 425.945313 L 522.058594 478.636719 Z M 574.75 531.328125 "/>
</g>
</svg>
