<?xml version="1.0" encoding="UTF-8"?>
<svg xmlns="http://www.w3.org/2000/svg" xmlns:xlink="http://www.w3.org/1999/xlink" width="1008pt" height="612pt" viewBox="0 0 1008 612" version="1.1">
<g id="surface96">
<rect x="0" y="0" width="1008" height="612" style="fill:rgb(100%,100%,100%);fill-opacity:1;stroke:none;"/>
<path style="fill-rule:nonzero;fill:rgb(100%,100%,100%);fill-opacity:1;stroke-width:2.25;stroke-linecap:round;stroke-linejoin:round;stroke:rgb(0%,0%,0%);stroke-opacity:1;stroke-miterlimit:10;" d="M 273.878906 97.246094 L 236.621094 32.714844 L 162.105469 32.714844 L 124.847656 97.246094 L 162.105469 161.78125 L 236.621094 161.78125 Z M 273.878906 97.246094 "/>
<path style="fill-rule:nonzero;fill:rgb(74.509804%,74.509804%,74.509804%);fill-opacity:1;stroke-width:2.25;stroke-linecap:round;stroke-linejoin:round;stroke:rgb(0%,0%,0%);stroke-opacity:1;stroke-miterlimit:10;" d="M 596.574219 97.246094 L 559.316406 32.714844 L 484.800781 32.714844 L 447.539063 97.246094 L 484.800781 161.78125 L 559.316406 161.78125 Z M 596.574219 97.246094 "/>
<path style="fill-rule:nonzero;fill:rgb(0%,0%,0%);fill-opacity:1;stroke-width:2.25;stroke-linecap:round;stroke-linejoin:round;stroke:rgb(0%,0%,0%);stroke-opacity:1;stroke-miterlimit:10;" d="M 919.269531 97.246094 L 882.011719 32.714844 L 807.492188 32.714844 L 770.234375 97.246094 L 807.492188 161.78125 L 882.011719 161.78125 Z M 919.269531 97.246094 "/>
<path style="fill-rule:nonzero;fill:rgb(100%,100%,100%);fill-opacity:1;stroke-width:2.25;stroke-linecap:round;stroke-linejoin:round;stroke:rgb(0%,0%,0%);stroke-opacity:1;stroke-miterlimit:10;" d="M 273.878906 287.941406 L 236.621094 223.410156 L 162.105469 223.410156 L 124.847656 287.941406 L 162.105469 352.476563 L 236.621094 352.476563 Z M 273.878906 287.941406 "/>
<path style="fill-rule:nonzero;fill:rgb(74.509804%,74.509804%,74.509804%);fill-opacity:1;stroke-width:2.25;stroke-linecap:round;stroke-linejoin:round;stroke:rgb(0%,0%,0%);stroke-opacity:1;stroke-miterlimit:10;" d="M 596.574219 287.941406 L 559.316406 223.410156 L 484.800781 223.410156 L 447.539063 287.941406 L 484.800781 352.476563 L 559.316406 352.476563 Z M 596.574219 287.941406 "/>
<path style="fill-rule:nonzero;fill:rgb(0%,0%,0%);fill-opacity:1;stroke-width:2.25;stroke-linecap:round;stroke-linejoin:round;stroke:rgb(0%,0%,0%);stroke-opacity:1;stroke-miterlimit:10;" d="M 919.269531 287.941406 L 882.011719 223.410156 L 807.492188 223.410156 L 770.234375 287.941406 L 807.492188 352.476563 L 882.011719 352.476563 Z M 919.269531 287.941406 "/>
<path style="fill-rule:nonzero;fill:rgb(100%,100%,100%);fill-opacity:1;stroke-width:2.25;stroke-linecap:round;stroke-linejoin:round;stroke:rgb(0%,0%,0%);stroke-opacity:1;stroke-miterlimit:10;" d="M 273.878906 478.636719 L 236.621094 414.101563 L 162.105469 414.101563 L 124.847656 478.636719 L 162.105469 543.171875 L 236.621094 543.171875 Z M 273.878906 478.636719 "/>
<path style="fill-rule:nonzero;fill:rgb(74.509804%,74.509804%,74.509804%);fill-opacity:1;stroke-width:2.25;stroke-linecap:round;stroke-linejoin:round;stroke:rgb(0%,0%,0%);stroke-opacity:1;stroke-miterlimit:10;" d="M 596.574219 478.636719 L 559.316406 414.101563 L 484.800781 414.101563 L 447.539063 478.636719 L 484.800781 543.171875 L 559.316406 543.171875 Z M 596.574219 478.636719 "/>
</g>
</svg>
