<?xml version="1.0" encoding="UTF-8"?>
<svg xmlns="http://www.w3.org/2000/svg" xmlns:xlink="http://www.w3.org/1999/xlink" width="1008pt" height="612pt" viewBox="0 0 1008 612" version="1.1">
<g id="surface121">
<rect x="0" y="0" width="1008" height="612" style="fill:rgb(100%,100%,100%);fill-opacity:1;stroke:none;"/>
<path style="fill:none;stroke-width:2.25;stroke-linecap:round;stroke-linejoin:round;stroke:rgb(0%,0%,0%);stroke-opacity:1;stroke-dasharray:9,9;stroke-miterlimit:10;" d="M 236.621094 59.988281 L 236.027344 59.402344 L 235.421875 58.828125 L 234.804688 58.257813 L 234.183594 57.703125 L 233.550781 57.152344 L 232.910156 56.617188 L 232.261719 56.089844 L 231.605469 55.574219 L 230.941406 55.066406 L 230.265625 54.570313 L 229.585938 54.085938 L 228.898438 53.613281 L 228.199219 53.148438 L 227.496094 52.695313 L 226.789063 52.257813 L 226.070313 51.828125 L 225.347656 51.410156 L 224.617188 51.003906 L 223.878906 50.605469 L 223.136719 50.222656 L 222.386719 49.851563 L 221.632813 49.492188 L 220.871094 49.144531 L 220.105469 48.8125 L 219.335938 48.488281 L 218.558594 48.175781 L 217.777344 47.878906 L 216.992188 47.59375 L 216.203125 47.320313 L 215.40625 47.058594 L 214.609375 46.808594 L 213.804688 46.574219 L 213 46.351563 L 212.191406 46.140625 L 211.378906 45.945313 L 210.5625 45.761719 L 209.746094 45.589844 L 208.925781 45.429688 L 208.101563 45.285156 L 207.277344 45.152344 L 206.449219 45.035156 L 205.617188 44.929688 L 204.789063 44.835938 L 203.957031 44.757813 L 203.121094 44.691406 L 202.289063 44.636719 L 201.453125 44.597656 L 200.617188 44.570313 L 199.78125 44.558594 L 198.945313 44.558594 L 198.109375 44.570313 L 197.273438 44.597656 L 196.4375 44.636719 L 195.605469 44.691406 L 194.769531 44.757813 L 193.9375 44.835938 L 193.109375 44.929688 L 192.277344 45.035156 L 191.449219 45.152344 L 190.625 45.285156 L 189.800781 45.429688 L 188.980469 45.589844 L 188.164063 45.761719 L 187.347656 45.945313 L 186.535156 46.140625 L 185.726563 46.351563 L 184.917969 46.574219 L 184.117188 46.808594 L 183.320313 47.058594 L 182.523438 47.320313 L 181.734375 47.59375 L 180.949219 47.878906 L 180.167969 48.175781 L 179.390625 48.488281 L 178.621094 48.8125 L 177.855469 49.144531 L 177.09375 49.492188 L 176.339844 49.851563 L 175.589844 50.222656 L 174.847656 50.605469 L 174.109375 51.003906 L 173.378906 51.410156 L 172.65625 51.828125 L 171.9375 52.257813 L 171.230469 52.695313 L 170.527344 53.148438 L 169.828125 53.613281 L 169.140625 54.085938 L 168.460938 54.570313 L 167.785156 55.066406 L 167.121094 55.574219 L 166.464844 56.089844 L 165.816406 56.617188 L 165.175781 57.152344 L 164.542969 57.703125 L 163.917969 58.257813 L 163.304688 58.828125 L 162.699219 59.402344 L 162.105469 59.988281 L 199.363281 97.246094 Z M 236.621094 59.988281 "/>
<path style="fill:none;stroke-width:2.25;stroke-linecap:round;stroke-linejoin:round;stroke:rgb(0%,0%,0%);stroke-opacity:1;stroke-dasharray:9,9;stroke-miterlimit:10;" d="M 162.105469 59.988281 L 161.519531 60.585938 L 160.941406 61.191406 L 160.375 61.804688 L 159.816406 62.429688 L 159.269531 63.058594 L 158.730469 63.699219 L 158.203125 64.347656 L 157.6875 65.007813 L 157.183594 65.671875 L 156.6875 66.34375 L 156.199219 67.027344 L 155.726563 67.714844 L 155.265625 68.410156 L 154.8125 69.113281 L 154.371094 69.824219 L 153.941406 70.542969 L 153.523438 71.265625 L 153.117188 71.996094 L 152.722656 72.734375 L 152.339844 73.476563 L 151.96875 74.226563 L 151.609375 74.980469 L 151.261719 75.738281 L 150.925781 76.507813 L 150.601563 77.277344 L 150.292969 78.054688 L 149.996094 78.835938 L 149.707031 79.621094 L 149.433594 80.410156 L 149.175781 81.203125 L 148.925781 82.003906 L 148.691406 82.804688 L 148.46875 83.609375 L 148.257813 84.417969 L 148.058594 85.230469 L 147.875 86.046875 L 147.703125 86.867188 L 147.546875 87.6875 L 147.402344 88.511719 L 147.269531 89.335938 L 147.152344 90.164063 L 147.042969 90.992188 L 146.953125 91.824219 L 146.871094 92.65625 L 146.804688 93.488281 L 146.753906 94.324219 L 146.714844 95.160156 L 146.6875 95.992188 L 146.671875 96.828125 L 146.671875 97.664063 L 146.6875 98.5 L 146.714844 99.335938 L 146.753906 100.171875 L 146.804688 101.007813 L 146.871094 101.839844 L 146.953125 102.671875 L 147.042969 103.503906 L 147.152344 104.332031 L 147.269531 105.160156 L 147.402344 105.984375 L 147.546875 106.808594 L 147.703125 107.628906 L 147.875 108.449219 L 148.058594 109.265625 L 148.257813 110.078125 L 148.46875 110.886719 L 148.691406 111.691406 L 148.925781 112.492188 L 149.175781 113.292969 L 149.433594 114.085938 L 149.707031 114.875 L 149.996094 115.660156 L 150.292969 116.441406 L 150.601563 117.21875 L 150.925781 117.988281 L 151.261719 118.753906 L 151.609375 119.515625 L 151.96875 120.269531 L 152.339844 121.019531 L 152.722656 121.761719 L 153.117188 122.5 L 153.523438 123.230469 L 153.941406 123.953125 L 154.371094 124.671875 L 154.8125 125.382813 L 155.265625 126.085938 L 155.726563 126.78125 L 156.199219 127.46875 L 156.6875 128.152344 L 157.183594 128.824219 L 157.6875 129.488281 L 158.203125 130.148438 L 158.730469 130.796875 L 159.269531 131.4375 L 159.816406 132.066406 L 160.375 132.691406 L 160.941406 133.304688 L 161.519531 133.910156 L 162.105469 134.507813 L 199.363281 97.246094 Z M 162.105469 59.988281 "/>
<path style="fill:none;stroke-width:2.25;stroke-linecap:round;stroke-linejoin:round;stroke:rgb(0%,0%,0%);stroke-opacity:1;stroke-dasharray:9,9;stroke-miterlimit:10;" d="M 162.105469 134.507813 L 162.699219 135.09375 L 163.304688 135.667969 L 163.917969 136.238281 L 164.542969 136.792969 L 165.175781 137.34375 L 165.816406 137.878906 L 166.464844 138.40625 L 167.121094 138.921875 L 167.785156 139.429688 L 168.460938 139.925781 L 169.140625 140.410156 L 169.828125 140.882813 L 170.527344 141.347656 L 171.230469 141.800781 L 171.9375 142.238281 L 172.65625 142.667969 L 173.378906 143.085938 L 174.109375 143.492188 L 174.847656 143.890625 L 175.589844 144.273438 L 176.339844 144.644531 L 177.09375 145.003906 L 177.855469 145.351563 L 178.621094 145.683594 L 179.390625 146.007813 L 180.167969 146.320313 L 180.949219 146.617188 L 181.734375 146.902344 L 182.523438 147.175781 L 183.320313 147.4375 L 184.117188 147.683594 L 184.917969 147.921875 L 185.726563 148.144531 L 186.535156 148.355469 L 187.347656 148.550781 L 188.164063 148.734375 L 188.980469 148.90625 L 189.800781 149.066406 L 190.625 149.210938 L 191.449219 149.339844 L 192.277344 149.460938 L 193.109375 149.566406 L 193.9375 149.660156 L 194.769531 149.738281 L 195.605469 149.804688 L 196.4375 149.859375 L 197.273438 149.898438 L 198.109375 149.925781 L 198.945313 149.9375 L 199.78125 149.9375 L 200.617188 149.925781 L 201.453125 149.898438 L 202.289063 149.859375 L 203.121094 149.804688 L 203.957031 149.738281 L 204.789063 149.660156 L 205.617188 149.566406 L 206.449219 149.460938 L 207.277344 149.339844 L 208.101563 149.210938 L 208.925781 149.066406 L 209.746094 148.90625 L 210.5625 148.734375 L 211.378906 148.550781 L 212.191406 148.355469 L 213 148.144531 L 213.804688 147.921875 L 214.609375 147.683594 L 215.40625 147.4375 L 216.203125 147.175781 L 216.992188 146.902344 L 217.777344 146.617188 L 218.558594 146.320313 L 219.335938 146.007813 L 220.105469 145.683594 L 220.871094 145.351563 L 221.632813 145.003906 L 222.386719 144.644531 L 223.136719 144.273438 L 223.878906 143.890625 L 224.617188 143.492188 L 225.347656 143.085938 L 226.070313 142.667969 L 226.789063 142.238281 L 227.496094 141.800781 L 228.199219 141.347656 L 228.898438 140.882813 L 229.585938 140.410156 L 230.265625 139.925781 L 230.941406 139.429688 L 231.605469 138.921875 L 232.261719 138.40625 L 232.910156 137.878906 L 233.550781 137.34375 L 234.183594 136.792969 L 234.804688 136.238281 L 235.421875 135.667969 L 236.027344 135.09375 L 236.621094 134.507813 L 199.363281 97.246094 Z M 162.105469 134.507813 "/>
<path style="fill:none;stroke-width:2.25;stroke-linecap:round;stroke-linejoin:round;stroke:rgb(0%,0%,0%);stroke-opacity:1;stroke-dasharray:9,9;stroke-miterlimit:10;" d="M 236.621094 134.507813 L 237.207031 133.910156 L 237.785156 133.304688 L 238.351563 132.691406 L 238.910156 132.066406 L 239.457031 131.4375 L 239.996094 130.796875 L 240.523438 130.148438 L 241.039063 129.488281 L 241.542969 128.824219 L 242.039063 128.152344 L 242.523438 127.46875 L 243 126.78125 L 243.460938 126.085938 L 243.914063 125.382813 L 244.355469 124.671875 L 244.785156 123.953125 L 245.203125 123.230469 L 245.609375 122.5 L 246.003906 121.761719 L 246.386719 121.019531 L 246.757813 120.269531 L 247.117188 119.515625 L 247.464844 118.753906 L 247.800781 117.988281 L 248.125 117.21875 L 248.433594 116.441406 L 248.730469 115.660156 L 249.019531 114.875 L 249.292969 114.085938 L 249.550781 113.292969 L 249.800781 112.492188 L 250.035156 111.691406 L 250.257813 110.886719 L 250.46875 110.078125 L 250.667969 109.265625 L 250.851563 108.449219 L 251.023438 107.628906 L 251.179688 106.808594 L 251.324219 105.984375 L 251.457031 105.160156 L 251.574219 104.332031 L 251.683594 103.503906 L 251.773438 102.671875 L 251.855469 101.839844 L 251.921875 101.007813 L 251.972656 100.171875 L 252.011719 99.335938 L 252.039063 98.5 L 252.054688 97.664063 L 252.054688 96.828125 L 252.039063 95.992188 L 252.011719 95.160156 L 251.972656 94.324219 L 251.921875 93.488281 L 251.855469 92.65625 L 251.773438 91.824219 L 251.683594 90.992188 L 251.574219 90.164063 L 251.457031 89.335938 L 251.324219 88.511719 L 251.179688 87.6875 L 251.023438 86.867188 L 250.851563 86.046875 L 250.667969 85.230469 L 250.46875 84.417969 L 250.257813 83.609375 L 250.035156 82.804688 L 249.800781 82.003906 L 249.550781 81.203125 L 249.292969 80.410156 L 249.019531 79.621094 L 248.730469 78.835938 L 248.433594 78.054688 L 248.125 77.277344 L 247.800781 76.507813 L 247.464844 75.738281 L 247.117188 74.980469 L 246.757813 74.226563 L 246.386719 73.476563 L 246.003906 72.734375 L 245.609375 71.996094 L 245.203125 71.265625 L 244.785156 70.542969 L 244.355469 69.824219 L 243.914063 69.113281 L 243.460938 68.410156 L 243 67.714844 L 242.523438 67.027344 L 242.039063 66.34375 L 241.542969 65.671875 L 241.039063 65.007813 L 240.523438 64.347656 L 239.996094 63.699219 L 239.457031 63.058594 L 238.910156 62.429688 L 238.351563 61.804688 L 237.785156 61.191406 L 237.207031 60.585938 L 236.621094 59.988281 L 199.363281 97.246094 Z M 236.621094 134.507813 "/>
<path style="fill:none;stroke-width:2.25;stroke-linecap:round;stroke-linejoin:round;stroke:rgb(0%,0%,0%);stroke-opacity:1;stroke-miterlimit:10;" d="M 559.316406 59.988281 L 558.71875 59.402344 L 558.113281 58.828125 L 557.5 58.257813 L 556.878906 57.703125 L 556.246094 57.152344 L 555.605469 56.617188 L 554.957031 56.089844 L 554.300781 55.574219 L 553.632813 55.066406 L 552.960938 54.570313 L 552.28125 54.085938 L 551.589844 53.613281 L 550.894531 53.148438 L 550.191406 52.695313 L 549.480469 52.257813 L 548.765625 51.828125 L 548.039063 51.410156 L 547.308594 51.003906 L 546.574219 50.605469 L 545.828125 50.222656 L 545.082031 49.851563 L 544.324219 49.492188 L 543.566406 49.144531 L 542.800781 48.8125 L 542.027344 48.488281 L 541.253906 48.175781 L 540.472656 47.878906 L 539.6875 47.59375 L 538.894531 47.320313 L 538.101563 47.058594 L 537.304688 46.808594 L 536.5 46.574219 L 535.695313 46.351563 L 534.886719 46.140625 L 534.074219 45.945313 L 533.257813 45.761719 L 532.441406 45.589844 L 531.617188 45.429688 L 530.796875 45.285156 L 529.96875 45.152344 L 529.140625 45.035156 L 528.3125 44.929688 L 527.480469 44.835938 L 526.648438 44.757813 L 525.816406 44.691406 L 524.980469 44.636719 L 524.148438 44.597656 L 523.3125 44.570313 L 522.476563 44.558594 L 521.640625 44.558594 L 520.804688 44.570313 L 519.96875 44.597656 L 519.132813 44.636719 L 518.296875 44.691406 L 517.464844 44.757813 L 516.632813 44.835938 L 515.800781 44.929688 L 514.972656 45.035156 L 514.144531 45.152344 L 513.320313 45.285156 L 512.496094 45.429688 L 511.675781 45.589844 L 510.855469 45.761719 L 510.042969 45.945313 L 509.230469 46.140625 L 508.421875 46.351563 L 507.613281 46.574219 L 506.8125 46.808594 L 506.015625 47.058594 L 505.21875 47.320313 L 504.429688 47.59375 L 503.644531 47.878906 L 502.863281 48.175781 L 502.085938 48.488281 L 501.316406 48.8125 L 500.550781 49.144531 L 499.789063 49.492188 L 499.035156 49.851563 L 498.285156 50.222656 L 497.542969 50.605469 L 496.804688 51.003906 L 496.074219 51.410156 L 495.351563 51.828125 L 494.632813 52.257813 L 493.921875 52.695313 L 493.21875 53.148438 L 492.523438 53.613281 L 491.835938 54.085938 L 491.152344 54.570313 L 490.480469 55.066406 L 489.816406 55.574219 L 489.160156 56.089844 L 488.507813 56.617188 L 487.871094 57.152344 L 487.238281 57.703125 L 486.613281 58.257813 L 486 58.828125 L 485.394531 59.402344 L 484.800781 59.988281 L 522.058594 97.246094 Z M 559.316406 59.988281 "/>
<path style="fill:none;stroke-width:2.25;stroke-linecap:round;stroke-linejoin:round;stroke:rgb(0%,0%,0%);stroke-opacity:1;stroke-miterlimit:10;" d="M 484.800781 59.988281 L 484.210938 60.585938 L 483.636719 61.191406 L 483.070313 61.804688 L 482.511719 62.429688 L 481.964844 63.058594 L 481.425781 63.699219 L 480.898438 64.347656 L 480.382813 65.007813 L 479.875 65.671875 L 479.378906 66.34375 L 478.894531 67.027344 L 478.421875 67.714844 L 477.957031 68.410156 L 477.507813 69.113281 L 477.066406 69.824219 L 476.636719 70.542969 L 476.21875 71.265625 L 475.8125 71.996094 L 475.417969 72.734375 L 475.035156 73.476563 L 474.664063 74.226563 L 474.304688 74.980469 L 473.957031 75.738281 L 473.621094 76.507813 L 473.296875 77.277344 L 472.988281 78.054688 L 472.6875 78.835938 L 472.402344 79.621094 L 472.128906 80.410156 L 471.867188 81.203125 L 471.621094 82.003906 L 471.382813 82.804688 L 471.160156 83.609375 L 470.953125 84.417969 L 470.753906 85.230469 L 470.570313 86.046875 L 470.398438 86.867188 L 470.242188 87.6875 L 470.097656 88.511719 L 469.964844 89.335938 L 469.84375 90.164063 L 469.738281 90.992188 L 469.644531 91.824219 L 469.566406 92.65625 L 469.5 93.488281 L 469.449219 94.324219 L 469.40625 95.160156 L 469.382813 95.992188 L 469.367188 96.828125 L 469.367188 97.664063 L 469.382813 98.5 L 469.40625 99.335938 L 469.449219 100.171875 L 469.5 101.007813 L 469.566406 101.839844 L 469.644531 102.671875 L 469.738281 103.503906 L 469.84375 104.332031 L 469.964844 105.160156 L 470.097656 105.984375 L 470.242188 106.808594 L 470.398438 107.628906 L 470.570313 108.449219 L 470.753906 109.265625 L 470.953125 110.078125 L 471.160156 110.886719 L 471.382813 111.691406 L 471.621094 112.492188 L 471.867188 113.292969 L 472.128906 114.085938 L 472.402344 114.875 L 472.6875 115.660156 L 472.988281 116.441406 L 473.296875 117.21875 L 473.621094 117.988281 L 473.957031 118.753906 L 474.304688 119.515625 L 474.664063 120.269531 L 475.035156 121.019531 L 475.417969 121.761719 L 475.8125 122.5 L 476.21875 123.230469 L 476.636719 123.953125 L 477.066406 124.671875 L 477.507813 125.382813 L 477.957031 126.085938 L 478.421875 126.78125 L 478.894531 127.46875 L 479.378906 128.152344 L 479.875 128.824219 L 480.382813 129.488281 L 480.898438 130.148438 L 481.425781 130.796875 L 481.964844 131.4375 L 482.511719 132.066406 L 483.070313 132.691406 L 483.636719 133.304688 L 484.210938 133.910156 L 484.800781 134.507813 L 522.058594 97.246094 Z M 484.800781 59.988281 "/>
<path style="fill:none;stroke-width:2.25;stroke-linecap:round;stroke-linejoin:round;stroke:rgb(0%,0%,0%);stroke-opacity:1;stroke-miterlimit:10;" d="M 484.800781 134.507813 L 485.394531 135.09375 L 486 135.667969 L 486.613281 136.238281 L 487.238281 136.792969 L 487.871094 137.34375 L 488.507813 137.878906 L 489.160156 138.40625 L 489.816406 138.921875 L 490.480469 139.429688 L 491.152344 139.925781 L 491.835938 140.410156 L 492.523438 140.882813 L 493.21875 141.347656 L 493.921875 141.800781 L 494.632813 142.238281 L 495.351563 142.667969 L 496.074219 143.085938 L 496.804688 143.492188 L 497.542969 143.890625 L 498.285156 144.273438 L 499.035156 144.644531 L 499.789063 145.003906 L 500.550781 145.351563 L 501.316406 145.683594 L 502.085938 146.007813 L 502.863281 146.320313 L 503.644531 146.617188 L 504.429688 146.902344 L 505.21875 147.175781 L 506.015625 147.4375 L 506.8125 147.683594 L 507.613281 147.921875 L 508.421875 148.144531 L 509.230469 148.355469 L 510.042969 148.550781 L 510.855469 148.734375 L 511.675781 148.90625 L 512.496094 149.066406 L 513.320313 149.210938 L 514.144531 149.339844 L 514.972656 149.460938 L 515.800781 149.566406 L 516.632813 149.660156 L 517.464844 149.738281 L 518.296875 149.804688 L 519.132813 149.859375 L 519.96875 149.898438 L 520.804688 149.925781 L 521.640625 149.9375 L 522.476563 149.9375 L 523.3125 149.925781 L 524.148438 149.898438 L 524.980469 149.859375 L 525.816406 149.804688 L 526.648438 149.738281 L 527.480469 149.660156 L 528.3125 149.566406 L 529.140625 149.460938 L 529.96875 149.339844 L 530.796875 149.210938 L 531.617188 149.066406 L 532.441406 148.90625 L 533.257813 148.734375 L 534.074219 148.550781 L 534.886719 148.355469 L 535.695313 148.144531 L 536.5 147.921875 L 537.304688 147.683594 L 538.101563 147.4375 L 538.894531 147.175781 L 539.6875 146.902344 L 540.472656 146.617188 L 541.253906 146.320313 L 542.027344 146.007813 L 542.800781 145.683594 L 543.566406 145.351563 L 544.324219 145.003906 L 545.082031 144.644531 L 545.828125 144.273438 L 546.574219 143.890625 L 547.308594 143.492188 L 548.039063 143.085938 L 548.765625 142.667969 L 549.480469 142.238281 L 550.191406 141.800781 L 550.894531 141.347656 L 551.589844 140.882813 L 552.28125 140.410156 L 552.960938 139.925781 L 553.632813 139.429688 L 554.300781 138.921875 L 554.957031 138.40625 L 555.605469 137.878906 L 556.246094 137.34375 L 556.878906 136.792969 L 557.5 136.238281 L 558.113281 135.667969 L 558.71875 135.09375 L 559.316406 134.507813 L 522.058594 97.246094 Z M 484.800781 134.507813 "/>
<path style="fill:none;stroke-width:2.25;stroke-linecap:round;stroke-linejoin:round;stroke:rgb(0%,0%,0%);stroke-opacity:1;stroke-miterlimit:10;" d="M 559.316406 134.507813 L 559.902344 133.910156 L 560.480469 133.304688 L 561.046875 132.691406 L 561.605469 132.066406 L 562.152344 131.4375 L 562.6875 130.796875 L 563.214844 130.148438 L 563.734375 129.488281 L 564.238281 128.824219 L 564.734375 128.152344 L 565.21875 127.46875 L 565.695313 126.78125 L 566.15625 126.085938 L 566.609375 125.382813 L 567.050781 124.671875 L 567.480469 123.953125 L 567.898438 123.230469 L 568.304688 122.5 L 568.699219 121.761719 L 569.082031 121.019531 L 569.453125 120.269531 L 569.8125 119.515625 L 570.160156 118.753906 L 570.496094 117.988281 L 570.816406 117.21875 L 571.128906 116.441406 L 571.425781 115.660156 L 571.710938 114.875 L 571.984375 114.085938 L 572.246094 113.292969 L 572.496094 112.492188 L 572.730469 111.691406 L 572.953125 110.886719 L 573.164063 110.078125 L 573.359375 109.265625 L 573.542969 108.449219 L 573.714844 107.628906 L 573.875 106.808594 L 574.019531 105.984375 L 574.152344 105.160156 L 574.269531 104.332031 L 574.375 103.503906 L 574.46875 102.671875 L 574.546875 101.839844 L 574.613281 101.007813 L 574.667969 100.171875 L 574.707031 99.335938 L 574.734375 98.5 L 574.746094 97.664063 L 574.746094 96.828125 L 574.734375 95.992188 L 574.707031 95.160156 L 574.667969 94.324219 L 574.613281 93.488281 L 574.546875 92.65625 L 574.46875 91.824219 L 574.375 90.992188 L 574.269531 90.164063 L 574.152344 89.335938 L 574.019531 88.511719 L 573.875 87.6875 L 573.714844 86.867188 L 573.542969 86.046875 L 573.359375 85.230469 L 573.164063 84.417969 L 572.953125 83.609375 L 572.730469 82.804688 L 572.496094 82.003906 L 572.246094 81.203125 L 571.984375 80.410156 L 571.710938 79.621094 L 571.425781 78.835938 L 571.128906 78.054688 L 570.816406 77.277344 L 570.496094 76.507813 L 570.160156 75.738281 L 569.8125 74.980469 L 569.453125 74.226563 L 569.082031 73.476563 L 568.699219 72.734375 L 568.304688 71.996094 L 567.898438 71.265625 L 567.480469 70.542969 L 567.050781 69.824219 L 566.609375 69.113281 L 566.15625 68.410156 L 565.695313 67.714844 L 565.21875 67.027344 L 564.734375 66.34375 L 564.238281 65.671875 L 563.734375 65.007813 L 563.214844 64.347656 L 562.6875 63.699219 L 562.152344 63.058594 L 561.605469 62.429688 L 561.046875 61.804688 L 560.480469 61.191406 L 559.902344 60.585938 L 559.316406 59.988281 L 522.058594 97.246094 Z M 559.316406 134.507813 "/>
<path style="fill:none;stroke-width:2.25;stroke-linecap:round;stroke-linejoin:round;stroke:rgb(0%,0%,0%);stroke-opacity:1;stroke-dasharray:2.25,6.75;stroke-miterlimit:10;" d="M 882.011719 59.988281 L 881.414063 59.402344 L 880.808594 58.828125 L 880.195313 58.257813 L 879.570313 57.703125 L 878.941406 57.152344 L 878.300781 56.617188 L 877.652344 56.089844 L 876.992188 55.574219 L 876.328125 55.066406 L 875.65625 54.570313 L 874.972656 54.085938 L 874.285156 53.613281 L 873.589844 53.148438 L 872.886719 52.695313 L 872.175781 52.257813 L 871.457031 51.828125 L 870.734375 51.410156 L 870.003906 51.003906 L 869.265625 50.605469 L 868.523438 50.222656 L 867.773438 49.851563 L 867.019531 49.492188 L 866.261719 49.144531 L 865.492188 48.8125 L 864.722656 48.488281 L 863.945313 48.175781 L 863.164063 47.878906 L 862.378906 47.59375 L 861.589844 47.320313 L 860.796875 47.058594 L 859.996094 46.808594 L 859.195313 46.574219 L 858.390625 46.351563 L 857.582031 46.140625 L 856.769531 45.945313 L 855.953125 45.761719 L 855.132813 45.589844 L 854.3125 45.429688 L 853.488281 45.285156 L 852.664063 45.152344 L 851.835938 45.035156 L 851.007813 44.929688 L 850.175781 44.835938 L 849.34375 44.757813 L 848.511719 44.691406 L 847.675781 44.636719 L 846.839844 44.597656 L 846.007813 44.570313 L 845.171875 44.558594 L 844.335938 44.558594 L 843.5 44.570313 L 842.664063 44.597656 L 841.828125 44.636719 L 840.992188 44.691406 L 840.160156 44.757813 L 839.328125 44.835938 L 838.496094 44.929688 L 837.667969 45.035156 L 836.839844 45.152344 L 836.015625 45.285156 L 835.191406 45.429688 L 834.371094 45.589844 L 833.550781 45.761719 L 832.734375 45.945313 L 831.921875 46.140625 L 831.113281 46.351563 L 830.308594 46.574219 L 829.507813 46.808594 L 828.707031 47.058594 L 827.914063 47.320313 L 827.125 47.59375 L 826.339844 47.878906 L 825.558594 48.175781 L 824.78125 48.488281 L 824.011719 48.8125 L 823.246094 49.144531 L 822.484375 49.492188 L 821.730469 49.851563 L 820.980469 50.222656 L 820.238281 50.605469 L 819.5 51.003906 L 818.769531 51.410156 L 818.046875 51.828125 L 817.328125 52.257813 L 816.617188 52.695313 L 815.914063 53.148438 L 815.21875 53.613281 L 814.53125 54.085938 L 813.847656 54.570313 L 813.175781 55.066406 L 812.511719 55.574219 L 811.851563 56.089844 L 811.203125 56.617188 L 810.5625 57.152344 L 809.933594 57.703125 L 809.308594 58.257813 L 808.695313 58.828125 L 808.089844 59.402344 L 807.492188 59.988281 L 844.753906 97.246094 Z M 882.011719 59.988281 "/>
<path style="fill:none;stroke-width:2.25;stroke-linecap:round;stroke-linejoin:round;stroke:rgb(0%,0%,0%);stroke-opacity:1;stroke-dasharray:2.25,6.75;stroke-miterlimit:10;" d="M 807.492188 59.988281 L 806.90625 60.585938 L 806.332031 61.191406 L 805.761719 61.804688 L 805.207031 62.429688 L 804.65625 63.058594 L 804.121094 63.699219 L 803.59375 64.347656 L 803.078125 65.007813 L 802.570313 65.671875 L 802.074219 66.34375 L 801.589844 67.027344 L 801.117188 67.714844 L 800.652344 68.410156 L 800.199219 69.113281 L 799.761719 69.824219 L 799.332031 70.542969 L 798.914063 71.265625 L 798.507813 71.996094 L 798.109375 72.734375 L 797.726563 73.476563 L 797.355469 74.226563 L 796.996094 74.980469 L 796.648438 75.738281 L 796.316406 76.507813 L 795.992188 77.277344 L 795.679688 78.054688 L 795.382813 78.835938 L 795.097656 79.621094 L 794.824219 80.410156 L 794.5625 81.203125 L 794.316406 82.003906 L 794.078125 82.804688 L 793.855469 83.609375 L 793.644531 84.417969 L 793.449219 85.230469 L 793.265625 86.046875 L 793.09375 86.867188 L 792.933594 87.6875 L 792.789063 88.511719 L 792.660156 89.335938 L 792.539063 90.164063 L 792.433594 90.992188 L 792.339844 91.824219 L 792.261719 92.65625 L 792.195313 93.488281 L 792.140625 94.324219 L 792.101563 95.160156 L 792.074219 95.992188 L 792.0625 96.828125 L 792.0625 97.664063 L 792.074219 98.5 L 792.101563 99.335938 L 792.140625 100.171875 L 792.195313 101.007813 L 792.261719 101.839844 L 792.339844 102.671875 L 792.433594 103.503906 L 792.539063 104.332031 L 792.660156 105.160156 L 792.789063 105.984375 L 792.933594 106.808594 L 793.09375 107.628906 L 793.265625 108.449219 L 793.449219 109.265625 L 793.644531 110.078125 L 793.855469 110.886719 L 794.078125 111.691406 L 794.316406 112.492188 L 794.5625 113.292969 L 794.824219 114.085938 L 795.097656 114.875 L 795.382813 115.660156 L 795.679688 116.441406 L 795.992188 117.21875 L 796.316406 117.988281 L 796.648438 118.753906 L 796.996094 119.515625 L 797.355469 120.269531 L 797.726563 121.019531 L 798.109375 121.761719 L 798.507813 122.5 L 798.914063 123.230469 L 799.332031 123.953125 L 799.761719 124.671875 L 800.199219 125.382813 L 800.652344 126.085938 L 801.117188 126.78125 L 801.589844 127.46875 L 802.074219 128.152344 L 802.570313 128.824219 L 803.078125 129.488281 L 803.59375 130.148438 L 804.121094 130.796875 L 804.65625 131.4375 L 805.207031 132.066406 L 805.761719 132.691406 L 806.332031 133.304688 L 806.90625 133.910156 L 807.492188 134.507813 L 844.753906 97.246094 Z M 807.492188 59.988281 "/>
<path style="fill:none;stroke-width:2.25;stroke-linecap:round;stroke-linejoin:round;stroke:rgb(0%,0%,0%);stroke-opacity:1;stroke-dasharray:2.25,6.75;stroke-miterlimit:10;" d="M 807.492188 134.507813 L 808.089844 135.09375 L 808.695313 135.667969 L 809.308594 136.238281 L 809.933594 136.792969 L 810.5625 137.34375 L 811.203125 137.878906 L 811.851563 138.40625 L 812.511719 138.921875 L 813.175781 139.429688 L 813.847656 139.925781 L 814.53125 140.410156 L 815.21875 140.882813 L 815.914063 141.347656 L 816.617188 141.800781 L 817.328125 142.238281 L 818.046875 142.667969 L 818.769531 143.085938 L 819.5 143.492188 L 820.238281 143.890625 L 820.980469 144.273438 L 821.730469 144.644531 L 822.484375 145.003906 L 823.246094 145.351563 L 824.011719 145.683594 L 824.78125 146.007813 L 825.558594 146.320313 L 826.339844 146.617188 L 827.125 146.902344 L 827.914063 147.175781 L 828.707031 147.4375 L 829.507813 147.683594 L 830.308594 147.921875 L 831.113281 148.144531 L 831.921875 148.355469 L 832.734375 148.550781 L 833.550781 148.734375 L 834.371094 148.90625 L 835.191406 149.066406 L 836.015625 149.210938 L 836.839844 149.339844 L 837.667969 149.460938 L 838.496094 149.566406 L 839.328125 149.660156 L 840.160156 149.738281 L 840.992188 149.804688 L 841.828125 149.859375 L 842.664063 149.898438 L 843.5 149.925781 L 844.335938 149.9375 L 845.171875 149.9375 L 846.007813 149.925781 L 846.839844 149.898438 L 847.675781 149.859375 L 848.511719 149.804688 L 849.34375 149.738281 L 850.175781 149.660156 L 851.007813 149.566406 L 851.835938 149.460938 L 852.664063 149.339844 L 853.488281 149.210938 L 854.3125 149.066406 L 855.132813 148.90625 L 855.953125 148.734375 L 856.769531 148.550781 L 857.582031 148.355469 L 858.390625 148.144531 L 859.195313 147.921875 L 859.996094 147.683594 L 860.796875 147.4375 L 861.589844 147.175781 L 862.378906 146.902344 L 863.164063 146.617188 L 863.945313 146.320313 L 864.722656 146.007813 L 865.492188 145.683594 L 866.261719 145.351563 L 867.019531 145.003906 L 867.773438 144.644531 L 868.523438 144.273438 L 869.265625 143.890625 L 870.003906 143.492188 L 870.734375 143.085938 L 871.457031 142.667969 L 872.175781 142.238281 L 872.886719 141.800781 L 873.589844 141.347656 L 874.285156 140.882813 L 874.972656 140.410156 L 875.65625 139.925781 L 876.328125 139.429688 L 876.992188 138.921875 L 877.652344 138.40625 L 878.300781 137.878906 L 878.941406 137.34375 L 879.570313 136.792969 L 880.195313 136.238281 L 880.808594 135.667969 L 881.414063 135.09375 L 882.011719 134.507813 L 844.753906 97.246094 Z M 807.492188 134.507813 "/>
<path style="fill:none;stroke-width:2.25;stroke-linecap:round;stroke-linejoin:round;stroke:rgb(0%,0%,0%);stroke-opacity:1;stroke-dasharray:2.25,6.75;stroke-miterlimit:10;" d="M 882.011719 134.507813 L 882.597656 133.910156 L 883.171875 133.304688 L 883.742188 132.691406 L 884.296875 132.066406 L 884.847656 131.4375 L 885.382813 130.796875 L 885.910156 130.148438 L 886.425781 129.488281 L 886.933594 128.824219 L 887.429688 128.152344 L 887.914063 127.46875 L 888.386719 126.78125 L 888.851563 126.085938 L 889.304688 125.382813 L 889.742188 124.671875 L 890.171875 123.953125 L 890.589844 123.230469 L 890.996094 122.5 L 891.394531 121.761719 L 891.777344 121.019531 L 892.148438 120.269531 L 892.507813 119.515625 L 892.855469 118.753906 L 893.1875 117.988281 L 893.511719 117.21875 L 893.824219 116.441406 L 894.121094 115.660156 L 894.40625 114.875 L 894.679688 114.085938 L 894.941406 113.292969 L 895.191406 112.492188 L 895.425781 111.691406 L 895.648438 110.886719 L 895.859375 110.078125 L 896.054688 109.265625 L 896.238281 108.449219 L 896.410156 107.628906 L 896.570313 106.808594 L 896.714844 105.984375 L 896.847656 105.160156 L 896.964844 104.332031 L 897.070313 103.503906 L 897.164063 102.671875 L 897.242188 101.839844 L 897.308594 101.007813 L 897.363281 100.171875 L 897.402344 99.335938 L 897.429688 98.5 L 897.441406 97.664063 L 897.441406 96.828125 L 897.429688 95.992188 L 897.402344 95.160156 L 897.363281 94.324219 L 897.308594 93.488281 L 897.242188 92.65625 L 897.164063 91.824219 L 897.070313 90.992188 L 896.964844 90.164063 L 896.847656 89.335938 L 896.714844 88.511719 L 896.570313 87.6875 L 896.410156 86.867188 L 896.238281 86.046875 L 896.054688 85.230469 L 895.859375 84.417969 L 895.648438 83.609375 L 895.425781 82.804688 L 895.191406 82.003906 L 894.941406 81.203125 L 894.679688 80.410156 L 894.40625 79.621094 L 894.121094 78.835938 L 893.824219 78.054688 L 893.511719 77.277344 L 893.1875 76.507813 L 892.855469 75.738281 L 892.507813 74.980469 L 892.148438 74.226563 L 891.777344 73.476563 L 891.394531 72.734375 L 890.996094 71.996094 L 890.589844 71.265625 L 890.171875 70.542969 L 889.742188 69.824219 L 889.304688 69.113281 L 888.851563 68.410156 L 888.386719 67.714844 L 887.914063 67.027344 L 887.429688 66.34375 L 886.933594 65.671875 L 886.425781 65.007813 L 885.910156 64.347656 L 885.382813 63.699219 L 884.847656 63.058594 L 884.296875 62.429688 L 883.742188 61.804688 L 883.171875 61.191406 L 882.597656 60.585938 L 882.011719 59.988281 L 844.753906 97.246094 Z M 882.011719 134.507813 "/>
<path style="fill:none;stroke-width:2.25;stroke-linecap:round;stroke-linejoin:round;stroke:rgb(0%,0%,0%);stroke-opacity:1;stroke-dasharray:9,9;stroke-miterlimit:10;" d="M 236.621094 250.683594 L 236.027344 250.097656 L 235.421875 249.519531 L 234.804688 248.953125 L 234.183594 248.394531 L 233.550781 247.847656 L 232.910156 247.3125 L 232.261719 246.785156 L 231.605469 246.265625 L 230.941406 245.761719 L 230.265625 245.265625 L 229.585938 244.78125 L 228.898438 244.304688 L 228.199219 243.84375 L 227.496094 243.390625 L 226.789063 242.949219 L 226.070313 242.519531 L 225.347656 242.101563 L 224.617188 241.695313 L 223.878906 241.300781 L 223.136719 240.917969 L 222.386719 240.546875 L 221.632813 240.1875 L 220.871094 239.839844 L 220.105469 239.503906 L 219.335938 239.183594 L 218.558594 238.871094 L 217.777344 238.574219 L 216.992188 238.289063 L 216.203125 238.015625 L 215.40625 237.753906 L 214.609375 237.503906 L 213.804688 237.269531 L 213 237.046875 L 212.191406 236.835938 L 211.378906 236.640625 L 210.5625 236.457031 L 209.746094 236.285156 L 208.925781 236.125 L 208.101563 235.980469 L 207.277344 235.847656 L 206.449219 235.730469 L 205.617188 235.625 L 204.789063 235.53125 L 203.957031 235.453125 L 203.121094 235.386719 L 202.289063 235.332031 L 201.453125 235.292969 L 200.617188 235.265625 L 199.78125 235.253906 L 198.945313 235.253906 L 198.109375 235.265625 L 197.273438 235.292969 L 196.4375 235.332031 L 195.605469 235.386719 L 194.769531 235.453125 L 193.9375 235.53125 L 193.109375 235.625 L 192.277344 235.730469 L 191.449219 235.847656 L 190.625 235.980469 L 189.800781 236.125 L 188.980469 236.285156 L 188.164063 236.457031 L 187.347656 236.640625 L 186.535156 236.835938 L 185.726563 237.046875 L 184.917969 237.269531 L 184.117188 237.503906 L 183.320313 237.753906 L 182.523438 238.015625 L 181.734375 238.289063 L 180.949219 238.574219 L 180.167969 238.871094 L 179.390625 239.183594 L 178.621094 239.503906 L 177.855469 239.839844 L 177.09375 240.1875 L 176.339844 240.546875 L 175.589844 240.917969 L 174.847656 241.300781 L 174.109375 241.695313 L 173.378906 242.101563 L 172.65625 242.519531 L 171.9375 242.949219 L 171.230469 243.390625 L 170.527344 243.84375 L 169.828125 244.304688 L 169.140625 244.78125 L 168.460938 245.265625 L 167.785156 245.761719 L 167.121094 246.265625 L 166.464844 246.785156 L 165.816406 247.3125 L 165.175781 247.847656 L 164.542969 248.394531 L 163.917969 248.953125 L 163.304688 249.519531 L 162.699219 250.097656 L 162.105469 250.683594 L 199.363281 287.941406 Z M 236.621094 250.683594 "/>
<path style="fill:none;stroke-width:2.25;stroke-linecap:round;stroke-linejoin:round;stroke:rgb(0%,0%,0%);stroke-opacity:1;stroke-dasharray:9,9;stroke-miterlimit:10;" d="M 162.105469 250.683594 L 161.519531 251.28125 L 160.941406 251.886719 L 160.375 252.5 L 159.816406 253.121094 L 159.269531 253.753906 L 158.730469 254.394531 L 158.203125 255.042969 L 157.6875 255.699219 L 157.183594 256.367188 L 156.6875 257.039063 L 156.199219 257.71875 L 155.726563 258.410156 L 155.265625 259.105469 L 154.8125 259.808594 L 154.371094 260.519531 L 153.941406 261.234375 L 153.523438 261.960938 L 153.117188 262.691406 L 152.722656 263.425781 L 152.339844 264.171875 L 151.96875 264.917969 L 151.609375 265.675781 L 151.261719 266.433594 L 150.925781 267.199219 L 150.601563 267.972656 L 150.292969 268.746094 L 149.996094 269.527344 L 149.707031 270.3125 L 149.433594 271.105469 L 149.175781 271.898438 L 148.925781 272.695313 L 148.691406 273.5 L 148.46875 274.304688 L 148.257813 275.113281 L 148.058594 275.925781 L 147.875 276.742188 L 147.703125 277.558594 L 147.546875 278.382813 L 147.402344 279.203125 L 147.269531 280.03125 L 147.152344 280.859375 L 147.042969 281.6875 L 146.953125 282.519531 L 146.871094 283.351563 L 146.804688 284.183594 L 146.753906 285.019531 L 146.714844 285.851563 L 146.6875 286.6875 L 146.671875 287.523438 L 146.671875 288.359375 L 146.6875 289.195313 L 146.714844 290.03125 L 146.753906 290.867188 L 146.804688 291.703125 L 146.871094 292.535156 L 146.953125 293.367188 L 147.042969 294.199219 L 147.152344 295.027344 L 147.269531 295.855469 L 147.402344 296.679688 L 147.546875 297.503906 L 147.703125 298.324219 L 147.875 299.144531 L 148.058594 299.957031 L 148.257813 300.769531 L 148.46875 301.578125 L 148.691406 302.386719 L 148.925781 303.1875 L 149.175781 303.984375 L 149.433594 304.78125 L 149.707031 305.570313 L 149.996094 306.355469 L 150.292969 307.136719 L 150.601563 307.914063 L 150.925781 308.683594 L 151.261719 309.449219 L 151.609375 310.210938 L 151.96875 310.964844 L 152.339844 311.714844 L 152.722656 312.457031 L 153.117188 313.195313 L 153.523438 313.925781 L 153.941406 314.648438 L 154.371094 315.367188 L 154.8125 316.078125 L 155.265625 316.78125 L 155.726563 317.476563 L 156.199219 318.164063 L 156.6875 318.847656 L 157.183594 319.519531 L 157.6875 320.183594 L 158.203125 320.839844 L 158.730469 321.492188 L 159.269531 322.128906 L 159.816406 322.761719 L 160.375 323.386719 L 160.941406 324 L 161.519531 324.605469 L 162.105469 325.199219 L 199.363281 287.941406 Z M 162.105469 250.683594 "/>
<path style="fill:none;stroke-width:2.25;stroke-linecap:round;stroke-linejoin:round;stroke:rgb(0%,0%,0%);stroke-opacity:1;stroke-dasharray:9,9;stroke-miterlimit:10;" d="M 162.105469 325.199219 L 162.699219 325.789063 L 163.304688 326.363281 L 163.917969 326.929688 L 164.542969 327.488281 L 165.175781 328.035156 L 165.816406 328.574219 L 166.464844 329.101563 L 167.121094 329.617188 L 167.785156 330.125 L 168.460938 330.621094 L 169.140625 331.105469 L 169.828125 331.578125 L 170.527344 332.042969 L 171.230469 332.492188 L 171.9375 332.933594 L 172.65625 333.363281 L 173.378906 333.78125 L 174.109375 334.1875 L 174.847656 334.582031 L 175.589844 334.964844 L 176.339844 335.335938 L 177.09375 335.695313 L 177.855469 336.042969 L 178.621094 336.378906 L 179.390625 336.703125 L 180.167969 337.011719 L 180.949219 337.3125 L 181.734375 337.597656 L 182.523438 337.871094 L 183.320313 338.132813 L 184.117188 338.378906 L 184.917969 338.617188 L 185.726563 338.839844 L 186.535156 339.046875 L 187.347656 339.246094 L 188.164063 339.429688 L 188.980469 339.601563 L 189.800781 339.757813 L 190.625 339.902344 L 191.449219 340.035156 L 192.277344 340.15625 L 193.109375 340.261719 L 193.9375 340.355469 L 194.769531 340.433594 L 195.605469 340.5 L 196.4375 340.550781 L 197.273438 340.59375 L 198.109375 340.617188 L 198.945313 340.632813 L 199.78125 340.632813 L 200.617188 340.617188 L 201.453125 340.59375 L 202.289063 340.550781 L 203.121094 340.5 L 203.957031 340.433594 L 204.789063 340.355469 L 205.617188 340.261719 L 206.449219 340.15625 L 207.277344 340.035156 L 208.101563 339.902344 L 208.925781 339.757813 L 209.746094 339.601563 L 210.5625 339.429688 L 211.378906 339.246094 L 212.191406 339.046875 L 213 338.839844 L 213.804688 338.617188 L 214.609375 338.378906 L 215.40625 338.132813 L 216.203125 337.871094 L 216.992188 337.597656 L 217.777344 337.3125 L 218.558594 337.011719 L 219.335938 336.703125 L 220.105469 336.378906 L 220.871094 336.042969 L 221.632813 335.695313 L 222.386719 335.335938 L 223.136719 334.964844 L 223.878906 334.582031 L 224.617188 334.1875 L 225.347656 333.78125 L 226.070313 333.363281 L 226.789063 332.933594 L 227.496094 332.492188 L 228.199219 332.042969 L 228.898438 331.578125 L 229.585938 331.105469 L 230.265625 330.621094 L 230.941406 330.125 L 231.605469 329.617188 L 232.261719 329.101563 L 232.910156 328.574219 L 233.550781 328.035156 L 234.183594 327.488281 L 234.804688 326.929688 L 235.421875 326.363281 L 236.027344 325.789063 L 236.621094 325.199219 L 199.363281 287.941406 Z M 162.105469 325.199219 "/>
<path style="fill:none;stroke-width:2.25;stroke-linecap:round;stroke-linejoin:round;stroke:rgb(0%,0%,0%);stroke-opacity:1;stroke-dasharray:9,9;stroke-miterlimit:10;" d="M 236.621094 325.199219 L 237.207031 324.605469 L 237.785156 324 L 238.351563 323.386719 L 238.910156 322.761719 L 239.457031 322.128906 L 239.996094 321.492188 L 240.523438 320.839844 L 241.039063 320.183594 L 241.542969 319.519531 L 242.039063 318.847656 L 242.523438 318.164063 L 243 317.476563 L 243.460938 316.78125 L 243.914063 316.078125 L 244.355469 315.367188 L 244.785156 314.648438 L 245.203125 313.925781 L 245.609375 313.195313 L 246.003906 312.457031 L 246.386719 311.714844 L 246.757813 310.964844 L 247.117188 310.210938 L 247.464844 309.449219 L 247.800781 308.683594 L 248.125 307.914063 L 248.433594 307.136719 L 248.730469 306.355469 L 249.019531 305.570313 L 249.292969 304.78125 L 249.550781 303.984375 L 249.800781 303.1875 L 250.035156 302.386719 L 250.257813 301.578125 L 250.46875 300.769531 L 250.667969 299.957031 L 250.851563 299.144531 L 251.023438 298.324219 L 251.179688 297.503906 L 251.324219 296.679688 L 251.457031 295.855469 L 251.574219 295.027344 L 251.683594 294.199219 L 251.773438 293.367188 L 251.855469 292.535156 L 251.921875 291.703125 L 251.972656 290.867188 L 252.011719 290.03125 L 252.039063 289.195313 L 252.054688 288.359375 L 252.054688 287.523438 L 252.039063 286.6875 L 252.011719 285.851563 L 251.972656 285.019531 L 251.921875 284.183594 L 251.855469 283.351563 L 251.773438 282.519531 L 251.683594 281.6875 L 251.574219 280.859375 L 251.457031 280.03125 L 251.324219 279.203125 L 251.179688 278.382813 L 251.023438 277.558594 L 250.851563 276.742188 L 250.667969 275.925781 L 250.46875 275.113281 L 250.257813 274.304688 L 250.035156 273.5 L 249.800781 272.695313 L 249.550781 271.898438 L 249.292969 271.105469 L 249.019531 270.3125 L 248.730469 269.527344 L 248.433594 268.746094 L 248.125 267.972656 L 247.800781 267.199219 L 247.464844 266.433594 L 247.117188 265.675781 L 246.757813 264.917969 L 246.386719 264.171875 L 246.003906 263.425781 L 245.609375 262.691406 L 245.203125 261.960938 L 244.785156 261.234375 L 244.355469 260.519531 L 243.914063 259.808594 L 243.460938 259.105469 L 243 258.410156 L 242.523438 257.71875 L 242.039063 257.039063 L 241.542969 256.367188 L 241.039063 255.699219 L 240.523438 255.042969 L 239.996094 254.394531 L 239.457031 253.753906 L 238.910156 253.121094 L 238.351563 252.5 L 237.785156 251.886719 L 237.207031 251.28125 L 236.621094 250.683594 L 199.363281 287.941406 Z M 236.621094 325.199219 "/>
<path style="fill:none;stroke-width:2.25;stroke-linecap:round;stroke-linejoin:round;stroke:rgb(0%,0%,0%);stroke-opacity:1;stroke-miterlimit:10;" d="M 559.316406 250.683594 L 558.71875 250.097656 L 558.113281 249.519531 L 557.5 248.953125 L 556.878906 248.394531 L 556.246094 247.847656 L 555.605469 247.3125 L 554.957031 246.785156 L 554.300781 246.265625 L 553.632813 245.761719 L 552.960938 245.265625 L 552.28125 244.78125 L 551.589844 244.304688 L 550.894531 243.84375 L 550.191406 243.390625 L 549.480469 242.949219 L 548.765625 242.519531 L 548.039063 242.101563 L 547.308594 241.695313 L 546.574219 241.300781 L 545.828125 240.917969 L 545.082031 240.546875 L 544.324219 240.1875 L 543.566406 239.839844 L 542.800781 239.503906 L 542.027344 239.183594 L 541.253906 238.871094 L 540.472656 238.574219 L 539.6875 238.289063 L 538.894531 238.015625 L 538.101563 237.753906 L 537.304688 237.503906 L 536.5 237.269531 L 535.695313 237.046875 L 534.886719 236.835938 L 534.074219 236.640625 L 533.257813 236.457031 L 532.441406 236.285156 L 531.617188 236.125 L 530.796875 235.980469 L 529.96875 235.847656 L 529.140625 235.730469 L 528.3125 235.625 L 527.480469 235.53125 L 526.648438 235.453125 L 525.816406 235.386719 L 524.980469 235.332031 L 524.148438 235.292969 L 523.3125 235.265625 L 522.476563 235.253906 L 521.640625 235.253906 L 520.804688 235.265625 L 519.96875 235.292969 L 519.132813 235.332031 L 518.296875 235.386719 L 517.464844 235.453125 L 516.632813 235.53125 L 515.800781 235.625 L 514.972656 235.730469 L 514.144531 235.847656 L 513.320313 235.980469 L 512.496094 236.125 L 511.675781 236.285156 L 510.855469 236.457031 L 510.042969 236.640625 L 509.230469 236.835938 L 508.421875 237.046875 L 507.613281 237.269531 L 506.8125 237.503906 L 506.015625 237.753906 L 505.21875 238.015625 L 504.429688 238.289063 L 503.644531 238.574219 L 502.863281 238.871094 L 502.085938 239.183594 L 501.316406 239.503906 L 500.550781 239.839844 L 499.789063 240.1875 L 499.035156 240.546875 L 498.285156 240.917969 L 497.542969 241.300781 L 496.804688 241.695313 L 496.074219 242.101563 L 495.351563 242.519531 L 494.632813 242.949219 L 493.921875 243.390625 L 493.21875 243.84375 L 492.523438 244.304688 L 491.835938 244.78125 L 491.152344 245.265625 L 490.480469 245.761719 L 489.816406 246.265625 L 489.160156 246.785156 L 488.507813 247.3125 L 487.871094 247.847656 L 487.238281 248.394531 L 486.613281 248.953125 L 486 249.519531 L 485.394531 250.097656 L 484.800781 250.683594 L 522.058594 287.941406 Z M 559.316406 250.683594 "/>
<path style="fill:none;stroke-width:2.25;stroke-linecap:round;stroke-linejoin:round;stroke:rgb(0%,0%,0%);stroke-opacity:1;stroke-miterlimit:10;" d="M 484.800781 250.683594 L 484.210938 251.28125 L 483.636719 251.886719 L 483.070313 252.5 L 482.511719 253.121094 L 481.964844 253.753906 L 481.425781 254.394531 L 480.898438 255.042969 L 480.382813 255.699219 L 479.875 256.367188 L 479.378906 257.039063 L 478.894531 257.71875 L 478.421875 258.410156 L 477.957031 259.105469 L 477.507813 259.808594 L 477.066406 260.519531 L 476.636719 261.234375 L 476.21875 261.960938 L 475.8125 262.691406 L 475.417969 263.425781 L 475.035156 264.171875 L 474.664063 264.917969 L 474.304688 265.675781 L 473.957031 266.433594 L 473.621094 267.199219 L 473.296875 267.972656 L 472.988281 268.746094 L 472.6875 269.527344 L 472.402344 270.3125 L 472.128906 271.105469 L 471.867188 271.898438 L 471.621094 272.695313 L 471.382813 273.5 L 471.160156 274.304688 L 470.953125 275.113281 L 470.753906 275.925781 L 470.570313 276.742188 L 470.398438 277.558594 L 470.242188 278.382813 L 470.097656 279.203125 L 469.964844 280.03125 L 469.84375 280.859375 L 469.738281 281.6875 L 469.644531 282.519531 L 469.566406 283.351563 L 469.5 284.183594 L 469.449219 285.019531 L 469.40625 285.851563 L 469.382813 286.6875 L 469.367188 287.523438 L 469.367188 288.359375 L 469.382813 289.195313 L 469.40625 290.03125 L 469.449219 290.867188 L 469.5 291.703125 L 469.566406 292.535156 L 469.644531 293.367188 L 469.738281 294.199219 L 469.84375 295.027344 L 469.964844 295.855469 L 470.097656 296.679688 L 470.242188 297.503906 L 470.398438 298.324219 L 470.570313 299.144531 L 470.753906 299.957031 L 470.953125 300.769531 L 471.160156 301.578125 L 471.382813 302.386719 L 471.621094 303.1875 L 471.867188 303.984375 L 472.128906 304.78125 L 472.402344 305.570313 L 472.6875 306.355469 L 472.988281 307.136719 L 473.296875 307.914063 L 473.621094 308.683594 L 473.957031 309.449219 L 474.304688 310.210938 L 474.664063 310.964844 L 475.035156 311.714844 L 475.417969 312.457031 L 475.8125 313.195313 L 476.21875 313.925781 L 476.636719 314.648438 L 477.066406 315.367188 L 477.507813 316.078125 L 477.957031 316.78125 L 478.421875 317.476563 L 478.894531 318.164063 L 479.378906 318.847656 L 479.875 319.519531 L 480.382813 320.183594 L 480.898438 320.839844 L 481.425781 321.492188 L 481.964844 322.128906 L 482.511719 322.761719 L 483.070313 323.386719 L 483.636719 324 L 484.210938 324.605469 L 484.800781 325.199219 L 522.058594 287.941406 Z M 484.800781 250.683594 "/>
<path style="fill:none;stroke-width:2.25;stroke-linecap:round;stroke-linejoin:round;stroke:rgb(0%,0%,0%);stroke-opacity:1;stroke-miterlimit:10;" d="M 484.800781 325.199219 L 485.394531 325.789063 L 486 326.363281 L 486.613281 326.929688 L 487.238281 327.488281 L 487.871094 328.035156 L 488.507813 328.574219 L 489.160156 329.101563 L 489.816406 329.617188 L 490.480469 330.125 L 491.152344 330.621094 L 491.835938 331.105469 L 492.523438 331.578125 L 493.21875 332.042969 L 493.921875 332.492188 L 494.632813 332.933594 L 495.351563 333.363281 L 496.074219 333.78125 L 496.804688 334.1875 L 497.542969 334.582031 L 498.285156 334.964844 L 499.035156 335.335938 L 499.789063 335.695313 L 500.550781 336.042969 L 501.316406 336.378906 L 502.085938 336.703125 L 502.863281 337.011719 L 503.644531 337.3125 L 504.429688 337.597656 L 505.21875 337.871094 L 506.015625 338.132813 L 506.8125 338.378906 L 507.613281 338.617188 L 508.421875 338.839844 L 509.230469 339.046875 L 510.042969 339.246094 L 510.855469 339.429688 L 511.675781 339.601563 L 512.496094 339.757813 L 513.320313 339.902344 L 514.144531 340.035156 L 514.972656 340.15625 L 515.800781 340.261719 L 516.632813 340.355469 L 517.464844 340.433594 L 518.296875 340.5 L 519.132813 340.550781 L 519.96875 340.59375 L 520.804688 340.617188 L 521.640625 340.632813 L 522.476563 340.632813 L 523.3125 340.617188 L 524.148438 340.59375 L 524.980469 340.550781 L 525.816406 340.5 L 526.648438 340.433594 L 527.480469 340.355469 L 528.3125 340.261719 L 529.140625 340.15625 L 529.96875 340.035156 L 530.796875 339.902344 L 531.617188 339.757813 L 532.441406 339.601563 L 533.257813 339.429688 L 534.074219 339.246094 L 534.886719 339.046875 L 535.695313 338.839844 L 536.5 338.617188 L 537.304688 338.378906 L 538.101563 338.132813 L 538.894531 337.871094 L 539.6875 337.597656 L 540.472656 337.3125 L 541.253906 337.011719 L 542.027344 336.703125 L 542.800781 336.378906 L 543.566406 336.042969 L 544.324219 335.695313 L 545.082031 335.335938 L 545.828125 334.964844 L 546.574219 334.582031 L 547.308594 334.1875 L 548.039063 333.78125 L 548.765625 333.363281 L 549.480469 332.933594 L 550.191406 332.492188 L 550.894531 332.042969 L 551.589844 331.578125 L 552.28125 331.105469 L 552.960938 330.621094 L 553.632813 330.125 L 554.300781 329.617188 L 554.957031 329.101563 L 555.605469 328.574219 L 556.246094 328.035156 L 556.878906 327.488281 L 557.5 326.929688 L 558.113281 326.363281 L 558.71875 325.789063 L 559.316406 325.199219 L 522.058594 287.941406 Z M 484.800781 325.199219 "/>
<path style="fill:none;stroke-width:2.25;stroke-linecap:round;stroke-linejoin:round;stroke:rgb(0%,0%,0%);stroke-opacity:1;stroke-miterlimit:10;" d="M 559.316406 325.199219 L 559.902344 324.605469 L 560.480469 324 L 561.046875 323.386719 L 561.605469 322.761719 L 562.152344 322.128906 L 562.6875 321.492188 L 563.214844 320.839844 L 563.734375 320.183594 L 564.238281 319.519531 L 564.734375 318.847656 L 565.21875 318.164063 L 565.695313 317.476563 L 566.15625 316.78125 L 566.609375 316.078125 L 567.050781 315.367188 L 567.480469 314.648438 L 567.898438 313.925781 L 568.304688 313.195313 L 568.699219 312.457031 L 569.082031 311.714844 L 569.453125 310.964844 L 569.8125 310.210938 L 570.160156 309.449219 L 570.496094 308.683594 L 570.816406 307.914063 L 571.128906 307.136719 L 571.425781 306.355469 L 571.710938 305.570313 L 571.984375 304.78125 L 572.246094 303.984375 L 572.496094 303.1875 L 572.730469 302.386719 L 572.953125 301.578125 L 573.164063 300.769531 L 573.359375 299.957031 L 573.542969 299.144531 L 573.714844 298.324219 L 573.875 297.503906 L 574.019531 296.679688 L 574.152344 295.855469 L 574.269531 295.027344 L 574.375 294.199219 L 574.46875 293.367188 L 574.546875 292.535156 L 574.613281 291.703125 L 574.667969 290.867188 L 574.707031 290.03125 L 574.734375 289.195313 L 574.746094 288.359375 L 574.746094 287.523438 L 574.734375 286.6875 L 574.707031 285.851563 L 574.667969 285.019531 L 574.613281 284.183594 L 574.546875 283.351563 L 574.46875 282.519531 L 574.375 281.6875 L 574.269531 280.859375 L 574.152344 280.03125 L 574.019531 279.203125 L 573.875 278.382813 L 573.714844 277.558594 L 573.542969 276.742188 L 573.359375 275.925781 L 573.164063 275.113281 L 572.953125 274.304688 L 572.730469 273.5 L 572.496094 272.695313 L 572.246094 271.898438 L 571.984375 271.105469 L 571.710938 270.3125 L 571.425781 269.527344 L 571.128906 268.746094 L 570.816406 267.972656 L 570.496094 267.199219 L 570.160156 266.433594 L 569.8125 265.675781 L 569.453125 264.917969 L 569.082031 264.171875 L 568.699219 263.425781 L 568.304688 262.691406 L 567.898438 261.960938 L 567.480469 261.234375 L 567.050781 260.519531 L 566.609375 259.808594 L 566.15625 259.105469 L 565.695313 258.410156 L 565.21875 257.71875 L 564.734375 257.039063 L 564.238281 256.367188 L 563.734375 255.699219 L 563.214844 255.042969 L 562.6875 254.394531 L 562.152344 253.753906 L 561.605469 253.121094 L 561.046875 252.5 L 560.480469 251.886719 L 559.902344 251.28125 L 559.316406 250.683594 L 522.058594 287.941406 Z M 559.316406 325.199219 "/>
<path style="fill:none;stroke-width:2.25;stroke-linecap:round;stroke-linejoin:round;stroke:rgb(0%,0%,0%);stroke-opacity:1;stroke-dasharray:2.25,6.75;stroke-miterlimit:10;" d="M 882.011719 250.683594 L 881.414063 250.097656 L 880.808594 249.519531 L 880.195313 248.953125 L 879.570313 248.394531 L 878.941406 247.847656 L 878.300781 247.3125 L 877.652344 246.785156 L 876.992188 246.265625 L 876.328125 245.761719 L 875.65625 245.265625 L 874.972656 244.78125 L 874.285156 244.304688 L 873.589844 243.84375 L 872.886719 243.390625 L 872.175781 242.949219 L 871.457031 242.519531 L 870.734375 242.101563 L 870.003906 241.695313 L 869.265625 241.300781 L 868.523438 240.917969 L 867.773438 240.546875 L 867.019531 240.1875 L 866.261719 239.839844 L 865.492188 239.503906 L 864.722656 239.183594 L 863.945313 238.871094 L 863.164063 238.574219 L 862.378906 238.289063 L 861.589844 238.015625 L 860.796875 237.753906 L 859.996094 237.503906 L 859.195313 237.269531 L 858.390625 237.046875 L 857.582031 236.835938 L 856.769531 236.640625 L 855.953125 236.457031 L 855.132813 236.285156 L 854.3125 236.125 L 853.488281 235.980469 L 852.664063 235.847656 L 851.835938 235.730469 L 851.007813 235.625 L 850.175781 235.53125 L 849.34375 235.453125 L 848.511719 235.386719 L 847.675781 235.332031 L 846.839844 235.292969 L 846.007813 235.265625 L 845.171875 235.253906 L 844.335938 235.253906 L 843.5 235.265625 L 842.664063 235.292969 L 841.828125 235.332031 L 840.992188 235.386719 L 840.160156 235.453125 L 839.328125 235.53125 L 838.496094 235.625 L 837.667969 235.730469 L 836.839844 235.847656 L 836.015625 235.980469 L 835.191406 236.125 L 834.371094 236.285156 L 833.550781 236.457031 L 832.734375 236.640625 L 831.921875 236.835938 L 831.113281 237.046875 L 830.308594 237.269531 L 829.507813 237.503906 L 828.707031 237.753906 L 827.914063 238.015625 L 827.125 238.289063 L 826.339844 238.574219 L 825.558594 238.871094 L 824.78125 239.183594 L 824.011719 239.503906 L 823.246094 239.839844 L 822.484375 240.1875 L 821.730469 240.546875 L 820.980469 240.917969 L 820.238281 241.300781 L 819.5 241.695313 L 818.769531 242.101563 L 818.046875 242.519531 L 817.328125 242.949219 L 816.617188 243.390625 L 815.914063 243.84375 L 815.21875 244.304688 L 814.53125 244.78125 L 813.847656 245.265625 L 813.175781 245.761719 L 812.511719 246.265625 L 811.851563 246.785156 L 811.203125 247.3125 L 810.5625 247.847656 L 809.933594 248.394531 L 809.308594 248.953125 L 808.695313 249.519531 L 808.089844 250.097656 L 807.492188 250.683594 L 844.753906 287.941406 Z M 882.011719 250.683594 "/>
<path style="fill:none;stroke-width:2.25;stroke-linecap:round;stroke-linejoin:round;stroke:rgb(0%,0%,0%);stroke-opacity:1;stroke-dasharray:2.25,6.75;stroke-miterlimit:10;" d="M 807.492188 250.683594 L 806.90625 251.28125 L 806.332031 251.886719 L 805.761719 252.5 L 805.207031 253.121094 L 804.65625 253.753906 L 804.121094 254.394531 L 803.59375 255.042969 L 803.078125 255.699219 L 802.570313 256.367188 L 802.074219 257.039063 L 801.589844 257.71875 L 801.117188 258.410156 L 800.652344 259.105469 L 800.199219 259.808594 L 799.761719 260.519531 L 799.332031 261.234375 L 798.914063 261.960938 L 798.507813 262.691406 L 798.109375 263.425781 L 797.726563 264.171875 L 797.355469 264.917969 L 796.996094 265.675781 L 796.648438 266.433594 L 796.316406 267.199219 L 795.992188 267.972656 L 795.679688 268.746094 L 795.382813 269.527344 L 795.097656 270.3125 L 794.824219 271.105469 L 794.5625 271.898438 L 794.316406 272.695313 L 794.078125 273.5 L 793.855469 274.304688 L 793.644531 275.113281 L 793.449219 275.925781 L 793.265625 276.742188 L 793.09375 277.558594 L 792.933594 278.382813 L 792.789063 279.203125 L 792.660156 280.03125 L 792.539063 280.859375 L 792.433594 281.6875 L 792.339844 282.519531 L 792.261719 283.351563 L 792.195313 284.183594 L 792.140625 285.019531 L 792.101563 285.851563 L 792.074219 286.6875 L 792.0625 287.523438 L 792.0625 288.359375 L 792.074219 289.195313 L 792.101563 290.03125 L 792.140625 290.867188 L 792.195313 291.703125 L 792.261719 292.535156 L 792.339844 293.367188 L 792.433594 294.199219 L 792.539063 295.027344 L 792.660156 295.855469 L 792.789063 296.679688 L 792.933594 297.503906 L 793.09375 298.324219 L 793.265625 299.144531 L 793.449219 299.957031 L 793.644531 300.769531 L 793.855469 301.578125 L 794.078125 302.386719 L 794.316406 303.1875 L 794.5625 303.984375 L 794.824219 304.78125 L 795.097656 305.570313 L 795.382813 306.355469 L 795.679688 307.136719 L 795.992188 307.914063 L 796.316406 308.683594 L 796.648438 309.449219 L 796.996094 310.210938 L 797.355469 310.964844 L 797.726563 311.714844 L 798.109375 312.457031 L 798.507813 313.195313 L 798.914063 313.925781 L 799.332031 314.648438 L 799.761719 315.367188 L 800.199219 316.078125 L 800.652344 316.78125 L 801.117188 317.476563 L 801.589844 318.164063 L 802.074219 318.847656 L 802.570313 319.519531 L 803.078125 320.183594 L 803.59375 320.839844 L 804.121094 321.492188 L 804.65625 322.128906 L 805.207031 322.761719 L 805.761719 323.386719 L 806.332031 324 L 806.90625 324.605469 L 807.492188 325.199219 L 844.753906 287.941406 Z M 807.492188 250.683594 "/>
<path style="fill:none;stroke-width:2.25;stroke-linecap:round;stroke-linejoin:round;stroke:rgb(0%,0%,0%);stroke-opacity:1;stroke-dasharray:2.25,6.75;stroke-miterlimit:10;" d="M 807.492188 325.199219 L 808.089844 325.789063 L 808.695313 326.363281 L 809.308594 326.929688 L 809.933594 327.488281 L 810.5625 328.035156 L 811.203125 328.574219 L 811.851563 329.101563 L 812.511719 329.617188 L 813.175781 330.125 L 813.847656 330.621094 L 814.53125 331.105469 L 815.21875 331.578125 L 815.914063 332.042969 L 816.617188 332.492188 L 817.328125 332.933594 L 818.046875 333.363281 L 818.769531 333.78125 L 819.5 334.1875 L 820.238281 334.582031 L 820.980469 334.964844 L 821.730469 335.335938 L 822.484375 335.695313 L 823.246094 336.042969 L 824.011719 336.378906 L 824.78125 336.703125 L 825.558594 337.011719 L 826.339844 337.3125 L 827.125 337.597656 L 827.914063 337.871094 L 828.707031 338.132813 L 829.507813 338.378906 L 830.308594 338.617188 L 831.113281 338.839844 L 831.921875 339.046875 L 832.734375 339.246094 L 833.550781 339.429688 L 834.371094 339.601563 L 835.191406 339.757813 L 836.015625 339.902344 L 836.839844 340.035156 L 837.667969 340.15625 L 838.496094 340.261719 L 839.328125 340.355469 L 840.160156 340.433594 L 840.992188 340.5 L 841.828125 340.550781 L 842.664063 340.59375 L 843.5 340.617188 L 844.335938 340.632813 L 845.171875 340.632813 L 846.007813 340.617188 L 846.839844 340.59375 L 847.675781 340.550781 L 848.511719 340.5 L 849.34375 340.433594 L 850.175781 340.355469 L 851.007813 340.261719 L 851.835938 340.15625 L 852.664063 340.035156 L 853.488281 339.902344 L 854.3125 339.757813 L 855.132813 339.601563 L 855.953125 339.429688 L 856.769531 339.246094 L 857.582031 339.046875 L 858.390625 338.839844 L 859.195313 338.617188 L 859.996094 338.378906 L 860.796875 338.132813 L 861.589844 337.871094 L 862.378906 337.597656 L 863.164063 337.3125 L 863.945313 337.011719 L 864.722656 336.703125 L 865.492188 336.378906 L 866.261719 336.042969 L 867.019531 335.695313 L 867.773438 335.335938 L 868.523438 334.964844 L 869.265625 334.582031 L 870.003906 334.1875 L 870.734375 333.78125 L 871.457031 333.363281 L 872.175781 332.933594 L 872.886719 332.492188 L 873.589844 332.042969 L 874.285156 331.578125 L 874.972656 331.105469 L 875.65625 330.621094 L 876.328125 330.125 L 876.992188 329.617188 L 877.652344 329.101563 L 878.300781 328.574219 L 878.941406 328.035156 L 879.570313 327.488281 L 880.195313 326.929688 L 880.808594 326.363281 L 881.414063 325.789063 L 882.011719 325.199219 L 844.753906 287.941406 Z M 807.492188 325.199219 "/>
<path style="fill:none;stroke-width:2.25;stroke-linecap:round;stroke-linejoin:round;stroke:rgb(0%,0%,0%);stroke-opacity:1;stroke-dasharray:2.25,6.75;stroke-miterlimit:10;" d="M 882.011719 325.199219 L 882.597656 324.605469 L 883.171875 324 L 883.742188 323.386719 L 884.296875 322.761719 L 884.847656 322.128906 L 885.382813 321.492188 L 885.910156 320.839844 L 886.425781 320.183594 L 886.933594 319.519531 L 887.429688 318.847656 L 887.914063 318.164063 L 888.386719 317.476563 L 888.851563 316.78125 L 889.304688 316.078125 L 889.742188 315.367188 L 890.171875 314.648438 L 890.589844 313.925781 L 890.996094 313.195313 L 891.394531 312.457031 L 891.777344 311.714844 L 892.148438 310.964844 L 892.507813 310.210938 L 892.855469 309.449219 L 893.1875 308.683594 L 893.511719 307.914063 L 893.824219 307.136719 L 894.121094 306.355469 L 894.40625 305.570313 L 894.679688 304.78125 L 894.941406 303.984375 L 895.191406 303.1875 L 895.425781 302.386719 L 895.648438 301.578125 L 895.859375 300.769531 L 896.054688 299.957031 L 896.238281 299.144531 L 896.410156 298.324219 L 896.570313 297.503906 L 896.714844 296.679688 L 896.847656 295.855469 L 896.964844 295.027344 L 897.070313 294.199219 L 897.164063 293.367188 L 897.242188 292.535156 L 897.308594 291.703125 L 897.363281 290.867188 L 897.402344 290.03125 L 897.429688 289.195313 L 897.441406 288.359375 L 897.441406 287.523438 L 897.429688 286.6875 L 897.402344 285.851563 L 897.363281 285.019531 L 897.308594 284.183594 L 897.242188 283.351563 L 897.164063 282.519531 L 897.070313 281.6875 L 896.964844 280.859375 L 896.847656 280.03125 L 896.714844 279.203125 L 896.570313 278.382813 L 896.410156 277.558594 L 896.238281 276.742188 L 896.054688 275.925781 L 895.859375 275.113281 L 895.648438 274.304688 L 895.425781 273.5 L 895.191406 272.695313 L 894.941406 271.898438 L 894.679688 271.105469 L 894.40625 270.3125 L 894.121094 269.527344 L 893.824219 268.746094 L 893.511719 267.972656 L 893.1875 267.199219 L 892.855469 266.433594 L 892.507813 265.675781 L 892.148438 264.917969 L 891.777344 264.171875 L 891.394531 263.425781 L 890.996094 262.691406 L 890.589844 261.960938 L 890.171875 261.234375 L 889.742188 260.519531 L 889.304688 259.808594 L 888.851563 259.105469 L 888.386719 258.410156 L 887.914063 257.71875 L 887.429688 257.039063 L 886.933594 256.367188 L 886.425781 255.699219 L 885.910156 255.042969 L 885.382813 254.394531 L 884.847656 253.753906 L 884.296875 253.121094 L 883.742188 252.5 L 883.171875 251.886719 L 882.597656 251.28125 L 882.011719 250.683594 L 844.753906 287.941406 Z M 882.011719 325.199219 "/>
<path style="fill:none;stroke-width:2.25;stroke-linecap:round;stroke-linejoin:round;stroke:rgb(0%,0%,0%);stroke-opacity:1;stroke-dasharray:9,9;stroke-miterlimit:10;" d="M 236.621094 441.378906 L 236.027344 440.792969 L 235.421875 440.214844 L 234.804688 439.648438 L 234.183594 439.089844 L 233.550781 438.542969 L 232.910156 438.003906 L 232.261719 437.476563 L 231.605469 436.960938 L 230.941406 436.457031 L 230.265625 435.960938 L 229.585938 435.476563 L 228.898438 435 L 228.199219 434.539063 L 227.496094 434.085938 L 226.789063 433.644531 L 226.070313 433.214844 L 225.347656 432.796875 L 224.617188 432.390625 L 223.878906 431.996094 L 223.136719 431.613281 L 222.386719 431.242188 L 221.632813 430.882813 L 220.871094 430.535156 L 220.105469 430.199219 L 219.335938 429.875 L 218.558594 429.566406 L 217.777344 429.269531 L 216.992188 428.980469 L 216.203125 428.707031 L 215.40625 428.449219 L 214.609375 428.199219 L 213.804688 427.964844 L 213 427.742188 L 212.191406 427.53125 L 211.378906 427.332031 L 210.5625 427.148438 L 209.746094 426.976563 L 208.925781 426.820313 L 208.101563 426.675781 L 207.277344 426.542969 L 206.449219 426.425781 L 205.617188 426.316406 L 204.789063 426.226563 L 203.957031 426.144531 L 203.121094 426.078125 L 202.289063 426.027344 L 201.453125 425.988281 L 200.617188 425.960938 L 199.78125 425.945313 L 198.945313 425.945313 L 198.109375 425.960938 L 197.273438 425.988281 L 196.4375 426.027344 L 195.605469 426.078125 L 194.769531 426.144531 L 193.9375 426.226563 L 193.109375 426.316406 L 192.277344 426.425781 L 191.449219 426.542969 L 190.625 426.675781 L 189.800781 426.820313 L 188.980469 426.976563 L 188.164063 427.148438 L 187.347656 427.332031 L 186.535156 427.53125 L 185.726563 427.742188 L 184.917969 427.964844 L 184.117188 428.199219 L 183.320313 428.449219 L 182.523438 428.707031 L 181.734375 428.980469 L 180.949219 429.269531 L 180.167969 429.566406 L 179.390625 429.875 L 178.621094 430.199219 L 177.855469 430.535156 L 177.09375 430.882813 L 176.339844 431.242188 L 175.589844 431.613281 L 174.847656 431.996094 L 174.109375 432.390625 L 173.378906 432.796875 L 172.65625 433.214844 L 171.9375 433.644531 L 171.230469 434.085938 L 170.527344 434.539063 L 169.828125 435 L 169.140625 435.476563 L 168.460938 435.960938 L 167.785156 436.457031 L 167.121094 436.960938 L 166.464844 437.476563 L 165.816406 438.003906 L 165.175781 438.542969 L 164.542969 439.089844 L 163.917969 439.648438 L 163.304688 440.214844 L 162.699219 440.792969 L 162.105469 441.378906 L 199.363281 478.636719 Z M 236.621094 441.378906 "/>
<path style="fill:none;stroke-width:2.25;stroke-linecap:round;stroke-linejoin:round;stroke:rgb(0%,0%,0%);stroke-opacity:1;stroke-dasharray:9,9;stroke-miterlimit:10;" d="M 162.105469 441.378906 L 161.519531 441.972656 L 160.941406 442.578125 L 160.375 443.195313 L 159.816406 443.816406 L 159.269531 444.449219 L 158.730469 445.089844 L 158.203125 445.738281 L 157.6875 446.394531 L 157.183594 447.058594 L 156.6875 447.734375 L 156.199219 448.414063 L 155.726563 449.101563 L 155.265625 449.800781 L 154.8125 450.503906 L 154.371094 451.210938 L 153.941406 451.929688 L 153.523438 452.652344 L 153.117188 453.382813 L 152.722656 454.121094 L 152.339844 454.863281 L 151.96875 455.613281 L 151.609375 456.367188 L 151.261719 457.128906 L 150.925781 457.894531 L 150.601563 458.664063 L 150.292969 459.441406 L 149.996094 460.222656 L 149.707031 461.007813 L 149.433594 461.796875 L 149.175781 462.59375 L 148.925781 463.390625 L 148.691406 464.195313 L 148.46875 465 L 148.257813 465.808594 L 148.058594 466.621094 L 147.875 467.4375 L 147.703125 468.253906 L 147.546875 469.074219 L 147.402344 469.898438 L 147.269531 470.722656 L 147.152344 471.550781 L 147.042969 472.382813 L 146.953125 473.210938 L 146.871094 474.042969 L 146.804688 474.878906 L 146.753906 475.710938 L 146.714844 476.546875 L 146.6875 477.382813 L 146.671875 478.21875 L 146.671875 479.054688 L 146.6875 479.890625 L 146.714844 480.726563 L 146.753906 481.5625 L 146.804688 482.394531 L 146.871094 483.230469 L 146.953125 484.0625 L 147.042969 484.890625 L 147.152344 485.722656 L 147.269531 486.550781 L 147.402344 487.375 L 147.546875 488.199219 L 147.703125 489.019531 L 147.875 489.835938 L 148.058594 490.652344 L 148.257813 491.464844 L 148.46875 492.273438 L 148.691406 493.082031 L 148.925781 493.882813 L 149.175781 494.679688 L 149.433594 495.476563 L 149.707031 496.265625 L 149.996094 497.050781 L 150.292969 497.832031 L 150.601563 498.609375 L 150.925781 499.378906 L 151.261719 500.144531 L 151.609375 500.90625 L 151.96875 501.660156 L 152.339844 502.410156 L 152.722656 503.152344 L 153.117188 503.890625 L 153.523438 504.621094 L 153.941406 505.34375 L 154.371094 506.0625 L 154.8125 506.769531 L 155.265625 507.472656 L 155.726563 508.171875 L 156.199219 508.859375 L 156.6875 509.539063 L 157.183594 510.214844 L 157.6875 510.878906 L 158.203125 511.535156 L 158.730469 512.183594 L 159.269531 512.824219 L 159.816406 513.457031 L 160.375 514.082031 L 160.941406 514.695313 L 161.519531 515.300781 L 162.105469 515.894531 L 199.363281 478.636719 Z M 162.105469 441.378906 "/>
<path style="fill:none;stroke-width:2.25;stroke-linecap:round;stroke-linejoin:round;stroke:rgb(0%,0%,0%);stroke-opacity:1;stroke-dasharray:9,9;stroke-miterlimit:10;" d="M 162.105469 515.894531 L 162.699219 516.480469 L 163.304688 517.058594 L 163.917969 517.625 L 164.542969 518.183594 L 165.175781 518.730469 L 165.816406 519.269531 L 166.464844 519.796875 L 167.121094 520.3125 L 167.785156 520.816406 L 168.460938 521.3125 L 169.140625 521.800781 L 169.828125 522.273438 L 170.527344 522.734375 L 171.230469 523.1875 L 171.9375 523.628906 L 172.65625 524.058594 L 173.378906 524.476563 L 174.109375 524.882813 L 174.847656 525.277344 L 175.589844 525.660156 L 176.339844 526.03125 L 177.09375 526.390625 L 177.855469 526.738281 L 178.621094 527.074219 L 179.390625 527.398438 L 180.167969 527.707031 L 180.949219 528.003906 L 181.734375 528.292969 L 182.523438 528.566406 L 183.320313 528.824219 L 184.117188 529.074219 L 184.917969 529.308594 L 185.726563 529.53125 L 186.535156 529.742188 L 187.347656 529.941406 L 188.164063 530.125 L 188.980469 530.296875 L 189.800781 530.453125 L 190.625 530.597656 L 191.449219 530.730469 L 192.277344 530.847656 L 193.109375 530.957031 L 193.9375 531.046875 L 194.769531 531.128906 L 195.605469 531.195313 L 196.4375 531.246094 L 197.273438 531.285156 L 198.109375 531.3125 L 198.945313 531.328125 L 199.78125 531.328125 L 200.617188 531.3125 L 201.453125 531.285156 L 202.289063 531.246094 L 203.121094 531.195313 L 203.957031 531.128906 L 204.789063 531.046875 L 205.617188 530.957031 L 206.449219 530.847656 L 207.277344 530.730469 L 208.101563 530.597656 L 208.925781 530.453125 L 209.746094 530.296875 L 210.5625 530.125 L 211.378906 529.941406 L 212.191406 529.742188 L 213 529.53125 L 213.804688 529.308594 L 214.609375 529.074219 L 215.40625 528.824219 L 216.203125 528.566406 L 216.992188 528.292969 L 217.777344 528.003906 L 218.558594 527.707031 L 219.335938 527.398438 L 220.105469 527.074219 L 220.871094 526.738281 L 221.632813 526.390625 L 222.386719 526.03125 L 223.136719 525.660156 L 223.878906 525.277344 L 224.617188 524.882813 L 225.347656 524.476563 L 226.070313 524.058594 L 226.789063 523.628906 L 227.496094 523.1875 L 228.199219 522.734375 L 228.898438 522.273438 L 229.585938 521.800781 L 230.265625 521.3125 L 230.941406 520.816406 L 231.605469 520.3125 L 232.261719 519.796875 L 232.910156 519.269531 L 233.550781 518.730469 L 234.183594 518.183594 L 234.804688 517.625 L 235.421875 517.058594 L 236.027344 516.480469 L 236.621094 515.894531 L 199.363281 478.636719 Z M 162.105469 515.894531 "/>
<path style="fill:none;stroke-width:2.25;stroke-linecap:round;stroke-linejoin:round;stroke:rgb(0%,0%,0%);stroke-opacity:1;stroke-dasharray:9,9;stroke-miterlimit:10;" d="M 236.621094 515.894531 L 237.207031 515.300781 L 237.785156 514.695313 L 238.351563 514.082031 L 238.910156 513.457031 L 239.457031 512.824219 L 239.996094 512.183594 L 240.523438 511.535156 L 241.039063 510.878906 L 241.542969 510.214844 L 242.039063 509.539063 L 242.523438 508.859375 L 243 508.171875 L 243.460938 507.472656 L 243.914063 506.769531 L 244.355469 506.0625 L 244.785156 505.34375 L 245.203125 504.621094 L 245.609375 503.890625 L 246.003906 503.152344 L 246.386719 502.410156 L 246.757813 501.660156 L 247.117188 500.90625 L 247.464844 500.144531 L 247.800781 499.378906 L 248.125 498.609375 L 248.433594 497.832031 L 248.730469 497.050781 L 249.019531 496.265625 L 249.292969 495.476563 L 249.550781 494.679688 L 249.800781 493.882813 L 250.035156 493.082031 L 250.257813 492.273438 L 250.46875 491.464844 L 250.667969 490.652344 L 250.851563 489.835938 L 251.023438 489.019531 L 251.179688 488.199219 L 251.324219 487.375 L 251.457031 486.550781 L 251.574219 485.722656 L 251.683594 484.890625 L 251.773438 484.0625 L 251.855469 483.230469 L 251.921875 482.394531 L 251.972656 481.5625 L 252.011719 480.726563 L 252.039063 479.890625 L 252.054688 479.054688 L 252.054688 478.21875 L 252.039063 477.382813 L 252.011719 476.546875 L 251.972656 475.710938 L 251.921875 474.878906 L 251.855469 474.042969 L 251.773438 473.210938 L 251.683594 472.382813 L 251.574219 471.550781 L 251.457031 470.722656 L 251.324219 469.898438 L 251.179688 469.074219 L 251.023438 468.253906 L 250.851563 467.4375 L 250.667969 466.621094 L 250.46875 465.808594 L 250.257813 465 L 250.035156 464.195313 L 249.800781 463.390625 L 249.550781 462.59375 L 249.292969 461.796875 L 249.019531 461.007813 L 248.730469 460.222656 L 248.433594 459.441406 L 248.125 458.664063 L 247.800781 457.894531 L 247.464844 457.128906 L 247.117188 456.367188 L 246.757813 455.613281 L 246.386719 454.863281 L 246.003906 454.121094 L 245.609375 453.382813 L 245.203125 452.652344 L 244.785156 451.929688 L 244.355469 451.210938 L 243.914063 450.503906 L 243.460938 449.800781 L 243 449.101563 L 242.523438 448.414063 L 242.039063 447.734375 L 241.542969 447.058594 L 241.039063 446.394531 L 240.523438 445.738281 L 239.996094 445.089844 L 239.457031 444.449219 L 238.910156 443.816406 L 238.351563 443.195313 L 237.785156 442.578125 L 237.207031 441.972656 L 236.621094 441.378906 L 199.363281 478.636719 Z M 236.621094 515.894531 "/>
<path style="fill:none;stroke-width:2.25;stroke-linecap:round;stroke-linejoin:round;stroke:rgb(0%,0%,0%);stroke-opacity:1;stroke-miterlimit:10;" d="M 559.316406 441.378906 L 558.71875 440.792969 L 558.113281 440.214844 L 557.5 439.648438 L 556.878906 439.089844 L 556.246094 438.542969 L 555.605469 438.003906 L 554.957031 437.476563 L 554.300781 436.960938 L 553.632813 436.457031 L 552.960938 435.960938 L 552.28125 435.476563 L 551.589844 435 L 550.894531 434.539063 L 550.191406 434.085938 L 549.480469 433.644531 L 548.765625 433.214844 L 548.039063 432.796875 L 547.308594 432.390625 L 546.574219 431.996094 L 545.828125 431.613281 L 545.082031 431.242188 L 544.324219 430.882813 L 543.566406 430.535156 L 542.800781 430.199219 L 542.027344 429.875 L 541.253906 429.566406 L 540.472656 429.269531 L 539.6875 428.980469 L 538.894531 428.707031 L 538.101563 428.449219 L 537.304688 428.199219 L 536.5 427.964844 L 535.695313 427.742188 L 534.886719 427.53125 L 534.074219 427.332031 L 533.257813 427.148438 L 532.441406 426.976563 L 531.617188 426.820313 L 530.796875 426.675781 L 529.96875 426.542969 L 529.140625 426.425781 L 528.3125 426.316406 L 527.480469 426.226563 L 526.648438 426.144531 L 525.816406 426.078125 L 524.980469 426.027344 L 524.148438 425.988281 L 523.3125 425.960938 L 522.476563 425.945313 L 521.640625 425.945313 L 520.804688 425.960938 L 519.96875 425.988281 L 519.132813 426.027344 L 518.296875 426.078125 L 517.464844 426.144531 L 516.632813 426.226563 L 515.800781 426.316406 L 514.972656 426.425781 L 514.144531 426.542969 L 513.320313 426.675781 L 512.496094 426.820313 L 511.675781 426.976563 L 510.855469 427.148438 L 510.042969 427.332031 L 509.230469 427.53125 L 508.421875 427.742188 L 507.613281 427.964844 L 506.8125 428.199219 L 506.015625 428.449219 L 505.21875 428.707031 L 504.429688 428.980469 L 503.644531 429.269531 L 502.863281 429.566406 L 502.085938 429.875 L 501.316406 430.199219 L 500.550781 430.535156 L 499.789063 430.882813 L 499.035156 431.242188 L 498.285156 431.613281 L 497.542969 431.996094 L 496.804688 432.390625 L 496.074219 432.796875 L 495.351563 433.214844 L 494.632813 433.644531 L 493.921875 434.085938 L 493.21875 434.539063 L 492.523438 435 L 491.835938 435.476563 L 491.152344 435.960938 L 490.480469 436.457031 L 489.816406 436.960938 L 489.160156 437.476563 L 488.507813 438.003906 L 487.871094 438.542969 L 487.238281 439.089844 L 486.613281 439.648438 L 486 440.214844 L 485.394531 440.792969 L 484.800781 441.378906 L 522.058594 478.636719 Z M 559.316406 441.378906 "/>
<path style="fill:none;stroke-width:2.25;stroke-linecap:round;stroke-linejoin:round;stroke:rgb(0%,0%,0%);stroke-opacity:1;stroke-miterlimit:10;" d="M 484.800781 441.378906 L 484.210938 441.972656 L 483.636719 442.578125 L 483.070313 443.195313 L 482.511719 443.816406 L 481.964844 444.449219 L 481.425781 445.089844 L 480.898438 445.738281 L 480.382813 446.394531 L 479.875 447.058594 L 479.378906 447.734375 L 478.894531 448.414063 L 478.421875 449.101563 L 477.957031 449.800781 L 477.507813 450.503906 L 477.066406 451.210938 L 476.636719 451.929688 L 476.21875 452.652344 L 475.8125 453.382813 L 475.417969 454.121094 L 475.035156 454.863281 L 474.664063 455.613281 L 474.304688 456.367188 L 473.957031 457.128906 L 473.621094 457.894531 L 473.296875 458.664063 L 472.988281 459.441406 L 472.6875 460.222656 L 472.402344 461.007813 L 472.128906 461.796875 L 471.867188 462.59375 L 471.621094 463.390625 L 471.382813 464.195313 L 471.160156 465 L 470.953125 465.808594 L 470.753906 466.621094 L 470.570313 467.4375 L 470.398438 468.253906 L 470.242188 469.074219 L 470.097656 469.898438 L 469.964844 470.722656 L 469.84375 471.550781 L 469.738281 472.382813 L 469.644531 473.210938 L 469.566406 474.042969 L 469.5 474.878906 L 469.449219 475.710938 L 469.40625 476.546875 L 469.382813 477.382813 L 469.367188 478.21875 L 469.367188 479.054688 L 469.382813 479.890625 L 469.40625 480.726563 L 469.449219 481.5625 L 469.5 482.394531 L 469.566406 483.230469 L 469.644531 484.0625 L 469.738281 484.890625 L 469.84375 485.722656 L 469.964844 486.550781 L 470.097656 487.375 L 470.242188 488.199219 L 470.398438 489.019531 L 470.570313 489.835938 L 470.753906 490.652344 L 470.953125 491.464844 L 471.160156 492.273438 L 471.382813 493.082031 L 471.621094 493.882813 L 471.867188 494.679688 L 472.128906 495.476563 L 472.402344 496.265625 L 472.6875 497.050781 L 472.988281 497.832031 L 473.296875 498.609375 L 473.621094 499.378906 L 473.957031 500.144531 L 474.304688 500.90625 L 474.664063 501.660156 L 475.035156 502.410156 L 475.417969 503.152344 L 475.8125 503.890625 L 476.21875 504.621094 L 476.636719 505.34375 L 477.066406 506.0625 L 477.507813 506.769531 L 477.957031 507.472656 L 478.421875 508.171875 L 478.894531 508.859375 L 479.378906 509.539063 L 479.875 510.214844 L 480.382813 510.878906 L 480.898438 511.535156 L 481.425781 512.183594 L 481.964844 512.824219 L 482.511719 513.457031 L 483.070313 514.082031 L 483.636719 514.695313 L 484.210938 515.300781 L 484.800781 515.894531 L 522.058594 478.636719 Z M 484.800781 441.378906 "/>
<path style="fill:none;stroke-width:2.25;stroke-linecap:round;stroke-linejoin:round;stroke:rgb(0%,0%,0%);stroke-opacity:1;stroke-miterlimit:10;" d="M 484.800781 515.894531 L 485.394531 516.480469 L 486 517.058594 L 486.613281 517.625 L 487.238281 518.183594 L 487.871094 518.730469 L 488.507813 519.269531 L 489.160156 519.796875 L 489.816406 520.3125 L 490.480469 520.816406 L 491.152344 521.3125 L 491.835938 521.800781 L 492.523438 522.273438 L 493.21875 522.734375 L 493.921875 523.1875 L 494.632813 523.628906 L 495.351563 524.058594 L 496.074219 524.476563 L 496.804688 524.882813 L 497.542969 525.277344 L 498.285156 525.660156 L 499.035156 526.03125 L 499.789063 526.390625 L 500.550781 526.738281 L 501.316406 527.074219 L 502.085938 527.398438 L 502.863281 527.707031 L 503.644531 528.003906 L 504.429688 528.292969 L 505.21875 528.566406 L 506.015625 528.824219 L 506.8125 529.074219 L 507.613281 529.308594 L 508.421875 529.53125 L 509.230469 529.742188 L 510.042969 529.941406 L 510.855469 530.125 L 511.675781 530.296875 L 512.496094 530.453125 L 513.320313 530.597656 L 514.144531 530.730469 L 514.972656 530.847656 L 515.800781 530.957031 L 516.632813 531.046875 L 517.464844 531.128906 L 518.296875 531.195313 L 519.132813 531.246094 L 519.96875 531.285156 L 520.804688 531.3125 L 521.640625 531.328125 L 522.476563 531.328125 L 523.3125 531.3125 L 524.148438 531.285156 L 524.980469 531.246094 L 525.816406 531.195313 L 526.648438 531.128906 L 527.480469 531.046875 L 528.3125 530.957031 L 529.140625 530.847656 L 529.96875 530.730469 L 530.796875 530.597656 L 531.617188 530.453125 L 532.441406 530.296875 L 533.257813 530.125 L 534.074219 529.941406 L 534.886719 529.742188 L 535.695313 529.53125 L 536.5 529.308594 L 537.304688 529.074219 L 538.101563 528.824219 L 538.894531 528.566406 L 539.6875 528.292969 L 540.472656 528.003906 L 541.253906 527.707031 L 542.027344 527.398438 L 542.800781 527.074219 L 543.566406 526.738281 L 544.324219 526.390625 L 545.082031 526.03125 L 545.828125 525.660156 L 546.574219 525.277344 L 547.308594 524.882813 L 548.039063 524.476563 L 548.765625 524.058594 L 549.480469 523.628906 L 550.191406 523.1875 L 550.894531 522.734375 L 551.589844 522.273438 L 552.28125 521.800781 L 552.960938 521.3125 L 553.632813 520.816406 L 554.300781 520.3125 L 554.957031 519.796875 L 555.605469 519.269531 L 556.246094 518.730469 L 556.878906 518.183594 L 557.5 517.625 L 558.113281 517.058594 L 558.71875 516.480469 L 559.316406 515.894531 L 522.058594 478.636719 Z M 484.800781 515.894531 "/>
<path style="fill:none;stroke-width:2.25;stroke-linecap:round;stroke-linejoin:round;stroke:rgb(0%,0%,0%);stroke-opacity:1;stroke-miterlimit:10;" d="M 559.316406 515.894531 L 559.902344 515.300781 L 560.480469 514.695313 L 561.046875 514.082031 L 561.605469 513.457031 L 562.152344 512.824219 L 562.6875 512.183594 L 563.214844 511.535156 L 563.734375 510.878906 L 564.238281 510.214844 L 564.734375 509.539063 L 565.21875 508.859375 L 565.695313 508.171875 L 566.15625 507.472656 L 566.609375 506.769531 L 567.050781 506.0625 L 567.480469 505.34375 L 567.898438 504.621094 L 568.304688 503.890625 L 568.699219 503.152344 L 569.082031 502.410156 L 569.453125 501.660156 L 569.8125 500.90625 L 570.160156 500.144531 L 570.496094 499.378906 L 570.816406 498.609375 L 571.128906 497.832031 L 571.425781 497.050781 L 571.710938 496.265625 L 571.984375 495.476563 L 572.246094 494.679688 L 572.496094 493.882813 L 572.730469 493.082031 L 572.953125 492.273438 L 573.164063 491.464844 L 573.359375 490.652344 L 573.542969 489.835938 L 573.714844 489.019531 L 573.875 488.199219 L 574.019531 487.375 L 574.152344 486.550781 L 574.269531 485.722656 L 574.375 484.890625 L 574.46875 484.0625 L 574.546875 483.230469 L 574.613281 482.394531 L 574.667969 481.5625 L 574.707031 480.726563 L 574.734375 479.890625 L 574.746094 479.054688 L 574.746094 478.21875 L 574.734375 477.382813 L 574.707031 476.546875 L 574.667969 475.710938 L 574.613281 474.878906 L 574.546875 474.042969 L 574.46875 473.210938 L 574.375 472.382813 L 574.269531 471.550781 L 574.152344 470.722656 L 574.019531 469.898438 L 573.875 469.074219 L 573.714844 468.253906 L 573.542969 467.4375 L 573.359375 466.621094 L 573.164063 465.808594 L 572.953125 465 L 572.730469 464.195313 L 572.496094 463.390625 L 572.246094 462.59375 L 571.984375 461.796875 L 571.710938 461.007813 L 571.425781 460.222656 L 571.128906 459.441406 L 570.816406 458.664063 L 570.496094 457.894531 L 570.160156 457.128906 L 569.8125 456.367188 L 569.453125 455.613281 L 569.082031 454.863281 L 568.699219 454.121094 L 568.304688 453.382813 L 567.898438 452.652344 L 567.480469 451.929688 L 567.050781 451.210938 L 566.609375 450.503906 L 566.15625 449.800781 L 565.695313 449.101563 L 565.21875 448.414063 L 564.734375 447.734375 L 564.238281 447.058594 L 563.734375 446.394531 L 563.214844 445.738281 L 562.6875 445.089844 L 562.152344 444.449219 L 561.605469 443.816406 L 561.046875 443.195313 L 560.480469 442.578125 L 559.902344 441.972656 L 559.316406 441.378906 L 522.058594 478.636719 Z M 559.316406 515.894531 "/>
</g>
</svg>
