<?xml version="1.0" encoding="UTF-8"?>
<svg xmlns="http://www.w3.org/2000/svg" xmlns:xlink="http://www.w3.org/1999/xlink" width="504pt" height="504pt" viewBox="0 0 504 504" version="1.1">
<defs>
<clipPath id="clip1">
  <path d="M 56 44 L 175 44 L 175 147.09375 L 56 147.09375 Z M 56 44 "/>
</clipPath>
<clipPath id="clip2">
  <path d="M 356.910156 23 L 492.597656 23 L 492.597656 136 L 356.910156 136 Z M 356.910156 23 "/>
</clipPath>
<clipPath id="clip3">
  <path d="M 235 175 L 337.902344 175 L 337.902344 293 L 235 293 Z M 235 175 "/>
</clipPath>
</defs>
<g id="surface21">
<rect x="0" y="0" width="504" height="504" style="fill:rgb(100%,100%,100%);fill-opacity:1;stroke:none;"/>
<path style="fill:none;stroke-width:2.25;stroke-linecap:round;stroke-linejoin:round;stroke:rgb(0%,0%,0%);stroke-opacity:1;stroke-miterlimit:10;" d="M 115.363281 55.691406 L 91.804688 79.246094 L 115.363281 102.804688 L 138.917969 79.246094 Z M 115.363281 55.691406 "/>
<g clip-path="url(#clip1)" clip-rule="nonzero">
<path style="fill:none;stroke-width:2.25;stroke-linecap:round;stroke-linejoin:round;stroke:rgb(0%,0%,0%);stroke-opacity:1;stroke-miterlimit:10;" d="M 173.164063 45.875 L 57.5625 45.875 L 115.363281 145.992188 Z M 173.164063 45.875 "/>
</g>
<path style="fill:none;stroke-width:0.75;stroke-linecap:round;stroke-linejoin:round;stroke:rgb(0%,0%,0%);stroke-opacity:1;stroke-miterlimit:10;" d="M 272.222656 90.824219 L 281.632813 81.414063 Z M 272.222656 90.824219 "/>
<path style="fill:none;stroke-width:0.75;stroke-linecap:round;stroke-linejoin:round;stroke:rgb(0%,0%,0%);stroke-opacity:1;stroke-miterlimit:10;" d="M 281.324219 75.832031 L 270.058594 87.101563 Z M 281.324219 75.832031 "/>
<path style="fill:none;stroke-width:0.75;stroke-linecap:round;stroke-linejoin:round;stroke:rgb(0%,0%,0%);stroke-opacity:1;stroke-miterlimit:10;" d="M 279.304688 71.964844 L 270.058594 81.210938 Z M 279.304688 71.964844 "/>
<path style="fill:none;stroke-width:0.75;stroke-linecap:round;stroke-linejoin:round;stroke:rgb(0%,0%,0%);stroke-opacity:1;stroke-miterlimit:10;" d="M 276.183594 69.195313 L 270.058594 75.320313 Z M 276.183594 69.195313 "/>
<path style="fill:none;stroke-width:0.75;stroke-linecap:round;stroke-linejoin:round;stroke:rgb(0%,0%,0%);stroke-opacity:1;stroke-miterlimit:10;" d="M 271.875 67.617188 L 270.058594 69.433594 Z M 271.875 67.617188 "/>
<path style="fill:none;stroke-width:0.75;stroke-linecap:round;stroke-linejoin:round;stroke:rgb(0%,0%,0%);stroke-opacity:1;stroke-miterlimit:10;" d="M 266.644531 90.515625 L 270.058594 87.101563 Z M 266.644531 90.515625 "/>
<path style="fill:none;stroke-width:0.75;stroke-linecap:round;stroke-linejoin:round;stroke:rgb(0%,0%,0%);stroke-opacity:1;stroke-miterlimit:10;" d="M 262.773438 88.496094 L 270.058594 81.210938 Z M 262.773438 88.496094 "/>
<path style="fill:none;stroke-width:0.75;stroke-linecap:round;stroke-linejoin:round;stroke:rgb(0%,0%,0%);stroke-opacity:1;stroke-miterlimit:10;" d="M 270.058594 75.320313 L 260.003906 85.375 Z M 270.058594 75.320313 "/>
<path style="fill:none;stroke-width:0.75;stroke-linecap:round;stroke-linejoin:round;stroke:rgb(0%,0%,0%);stroke-opacity:1;stroke-miterlimit:10;" d="M 270.058594 69.433594 L 258.425781 81.0625 Z M 270.058594 69.433594 "/>
<path style="fill:none;stroke-width:0.75;stroke-linecap:round;stroke-linejoin:round;stroke:rgb(0%,0%,0%);stroke-opacity:1;stroke-miterlimit:10;" d="M 264.976563 68.625 L 259.433594 74.167969 Z M 264.976563 68.625 "/>
<path style="fill:none;stroke-width:1.5;stroke-linecap:round;stroke-linejoin:round;stroke:rgb(0%,0%,0%);stroke-opacity:1;stroke-miterlimit:10;" d="M 281.835938 79.246094 L 281.8125 78.507813 L 281.742188 77.773438 L 281.628906 77.039063 L 281.464844 76.320313 L 281.257813 75.609375 L 281.007813 74.910156 L 280.714844 74.234375 L 280.378906 73.574219 L 280.003906 72.9375 L 279.585938 72.324219 L 279.132813 71.738281 L 278.644531 71.183594 L 278.121094 70.660156 L 277.566406 70.171875 L 276.980469 69.71875 L 276.367188 69.304688 L 275.730469 68.925781 L 275.074219 68.589844 L 274.394531 68.296875 L 273.699219 68.046875 L 272.988281 67.839844 L 272.265625 67.679688 L 271.535156 67.5625 L 270.796875 67.492188 L 270.058594 67.46875 L 269.316406 67.492188 L 268.582031 67.5625 L 267.851563 67.679688 L 267.128906 67.839844 L 266.417969 68.046875 L 265.722656 68.296875 L 265.042969 68.589844 L 264.382813 68.925781 L 263.746094 69.304688 L 263.132813 69.71875 L 262.550781 70.171875 L 261.996094 70.660156 L 261.472656 71.183594 L 260.980469 71.738281 L 260.527344 72.324219 L 260.113281 72.9375 L 259.734375 73.574219 L 259.398438 74.234375 L 259.105469 74.910156 L 258.855469 75.609375 L 258.648438 76.320313 L 258.488281 77.039063 L 258.371094 77.773438 L 258.300781 78.507813 L 258.277344 79.246094 L 258.300781 79.988281 L 258.371094 80.722656 L 258.488281 81.453125 L 258.648438 82.175781 L 258.855469 82.886719 L 259.105469 83.582031 L 259.398438 84.261719 L 259.734375 84.921875 L 260.113281 85.558594 L 260.527344 86.171875 L 260.980469 86.753906 L 261.472656 87.3125 L 261.996094 87.835938 L 262.550781 88.324219 L 263.132813 88.777344 L 263.746094 89.191406 L 264.382813 89.570313 L 265.042969 89.90625 L 265.722656 90.199219 L 266.417969 90.449219 L 267.128906 90.65625 L 267.851563 90.816406 L 268.582031 90.933594 L 269.316406 91.003906 L 270.058594 91.027344 L 270.796875 91.003906 L 271.535156 90.933594 L 272.265625 90.816406 L 272.988281 90.65625 L 273.699219 90.449219 L 274.394531 90.199219 L 275.074219 89.90625 L 275.730469 89.570313 L 276.367188 89.191406 L 276.980469 88.777344 L 277.566406 88.324219 L 278.121094 87.835938 L 278.644531 87.3125 L 279.132813 86.753906 L 279.585938 86.171875 L 280.003906 85.558594 L 280.378906 84.921875 L 280.714844 84.261719 L 281.007813 83.582031 L 281.257813 82.886719 L 281.464844 82.175781 L 281.628906 81.453125 L 281.742188 80.722656 L 281.8125 79.988281 Z M 281.835938 79.246094 "/>
<path style="fill:none;stroke-width:2.25;stroke-linecap:round;stroke-linejoin:round;stroke:rgb(0%,0%,0%);stroke-opacity:1;stroke-miterlimit:10;" d="M 228.414063 37.605469 L 217.585938 105.984375 L 279.269531 137.414063 L 328.222656 88.460938 L 296.792969 26.773438 Z M 228.414063 37.605469 "/>
<path style="fill:none;stroke-width:0.75;stroke-linecap:round;stroke-linejoin:round;stroke:rgb(0%,0%,0%);stroke-opacity:1;stroke-miterlimit:10;" d="M 424.753906 98.878906 L 446.34375 77.285156 Z M 424.753906 98.878906 "/>
<path style="fill:none;stroke-width:0.75;stroke-linecap:round;stroke-linejoin:round;stroke:rgb(0%,0%,0%);stroke-opacity:1;stroke-miterlimit:10;" d="M 424.753906 92.988281 L 443.402344 74.339844 Z M 424.753906 92.988281 "/>
<path style="fill:none;stroke-width:0.75;stroke-linecap:round;stroke-linejoin:round;stroke:rgb(0%,0%,0%);stroke-opacity:1;stroke-miterlimit:10;" d="M 424.753906 87.101563 L 440.457031 71.394531 Z M 424.753906 87.101563 "/>
<path style="fill:none;stroke-width:0.75;stroke-linecap:round;stroke-linejoin:round;stroke:rgb(0%,0%,0%);stroke-opacity:1;stroke-miterlimit:10;" d="M 424.753906 81.210938 L 437.511719 68.453125 Z M 424.753906 81.210938 "/>
<path style="fill:none;stroke-width:0.75;stroke-linecap:round;stroke-linejoin:round;stroke:rgb(0%,0%,0%);stroke-opacity:1;stroke-miterlimit:10;" d="M 424.753906 75.320313 L 434.566406 65.507813 Z M 424.753906 75.320313 "/>
<path style="fill:none;stroke-width:0.75;stroke-linecap:round;stroke-linejoin:round;stroke:rgb(0%,0%,0%);stroke-opacity:1;stroke-miterlimit:10;" d="M 424.753906 69.433594 L 431.621094 62.5625 Z M 424.753906 69.433594 "/>
<path style="fill:none;stroke-width:0.75;stroke-linecap:round;stroke-linejoin:round;stroke:rgb(0%,0%,0%);stroke-opacity:1;stroke-miterlimit:10;" d="M 424.753906 63.542969 L 428.679688 59.617188 Z M 424.753906 63.542969 "/>
<path style="fill:none;stroke-width:0.75;stroke-linecap:round;stroke-linejoin:round;stroke:rgb(0%,0%,0%);stroke-opacity:1;stroke-miterlimit:10;" d="M 424.753906 57.65625 L 425.734375 56.671875 Z M 424.753906 57.65625 "/>
<path style="fill:none;stroke-width:0.75;stroke-linecap:round;stroke-linejoin:round;stroke:rgb(0%,0%,0%);stroke-opacity:1;stroke-miterlimit:10;" d="M 422.789063 100.839844 L 424.753906 98.878906 Z M 422.789063 100.839844 "/>
<path style="fill:none;stroke-width:0.75;stroke-linecap:round;stroke-linejoin:round;stroke:rgb(0%,0%,0%);stroke-opacity:1;stroke-miterlimit:10;" d="M 419.84375 97.898438 L 424.753906 92.988281 Z M 419.84375 97.898438 "/>
<path style="fill:none;stroke-width:0.75;stroke-linecap:round;stroke-linejoin:round;stroke:rgb(0%,0%,0%);stroke-opacity:1;stroke-miterlimit:10;" d="M 416.898438 94.953125 L 424.753906 87.101563 Z M 416.898438 94.953125 "/>
<path style="fill:none;stroke-width:0.75;stroke-linecap:round;stroke-linejoin:round;stroke:rgb(0%,0%,0%);stroke-opacity:1;stroke-miterlimit:10;" d="M 413.957031 92.007813 L 424.753906 81.210938 Z M 413.957031 92.007813 "/>
<path style="fill:none;stroke-width:0.75;stroke-linecap:round;stroke-linejoin:round;stroke:rgb(0%,0%,0%);stroke-opacity:1;stroke-miterlimit:10;" d="M 411.011719 89.0625 L 424.753906 75.320313 Z M 411.011719 89.0625 "/>
<path style="fill:none;stroke-width:0.75;stroke-linecap:round;stroke-linejoin:round;stroke:rgb(0%,0%,0%);stroke-opacity:1;stroke-miterlimit:10;" d="M 408.066406 86.117188 L 424.753906 69.433594 Z M 408.066406 86.117188 "/>
<path style="fill:none;stroke-width:0.75;stroke-linecap:round;stroke-linejoin:round;stroke:rgb(0%,0%,0%);stroke-opacity:1;stroke-miterlimit:10;" d="M 405.121094 83.175781 L 424.753906 63.542969 Z M 405.121094 83.175781 "/>
<path style="fill:none;stroke-width:0.75;stroke-linecap:round;stroke-linejoin:round;stroke:rgb(0%,0%,0%);stroke-opacity:1;stroke-miterlimit:10;" d="M 402.175781 80.230469 L 424.753906 57.65625 Z M 402.175781 80.230469 "/>
<path style="fill:none;stroke-width:2.25;stroke-linecap:round;stroke-linejoin:round;stroke:rgb(0%,0%,0%);stroke-opacity:1;stroke-miterlimit:10;" d="M 424.753906 55.691406 L 401.195313 79.246094 L 424.753906 102.804688 L 448.308594 79.246094 Z M 424.753906 55.691406 "/>
<g clip-path="url(#clip2)" clip-rule="nonzero">
<path style="fill:none;stroke-width:2.25;stroke-linecap:round;stroke-linejoin:round;stroke:rgb(0%,0%,0%);stroke-opacity:1;stroke-miterlimit:10;" d="M 424.753906 24.28125 L 420.5625 24.390625 L 416.386719 24.714844 L 412.246094 25.257813 L 408.152344 26.007813 L 404.128906 26.972656 L 400.183594 28.140625 L 396.332031 29.515625 L 392.597656 31.082031 L 388.988281 32.839844 L 385.519531 34.78125 L 382.207031 36.894531 L 379.0625 39.179688 L 376.097656 41.621094 L 373.324219 44.210938 L 370.753906 46.941406 L 368.398438 49.796875 L 366.265625 52.769531 L 364.359375 55.84375 L 362.695313 59.015625 L 361.273438 62.261719 L 360.105469 65.578125 L 359.191406 68.949219 L 358.535156 72.359375 L 358.140625 75.796875 L 358.007813 79.246094 L 358.140625 82.699219 L 358.535156 86.136719 L 359.191406 89.546875 L 360.105469 92.917969 L 361.273438 96.234375 L 362.695313 99.480469 L 364.359375 102.652344 L 366.265625 105.726563 L 368.398438 108.699219 L 370.753906 111.554688 L 373.324219 114.285156 L 376.097656 116.875 L 379.0625 119.316406 L 382.207031 121.601563 L 385.519531 123.714844 L 388.988281 125.65625 L 392.597656 127.414063 L 396.332031 128.980469 L 400.183594 130.355469 L 404.128906 131.523438 L 408.152344 132.488281 L 412.246094 133.238281 L 416.386719 133.78125 L 420.5625 134.105469 L 424.753906 134.214844 L 428.941406 134.105469 L 433.117188 133.78125 L 437.257813 133.238281 L 441.351563 132.488281 L 445.378906 131.523438 L 449.320313 130.355469 L 453.171875 128.980469 L 456.90625 127.414063 L 460.515625 125.65625 L 463.984375 123.714844 L 467.296875 121.601563 L 470.441406 119.316406 L 473.40625 116.875 L 476.179688 114.285156 L 478.75 111.554688 L 481.105469 108.699219 L 483.238281 105.726563 L 485.144531 102.652344 L 486.808594 99.480469 L 488.230469 96.234375 L 489.398438 92.917969 L 490.3125 89.546875 L 490.96875 86.136719 L 491.363281 82.699219 L 491.496094 79.246094 L 491.363281 75.796875 L 490.96875 72.359375 L 490.3125 68.949219 L 489.398438 65.578125 L 488.230469 62.261719 L 486.808594 59.015625 L 485.144531 55.84375 L 483.238281 52.769531 L 481.105469 49.796875 L 478.75 46.941406 L 476.179688 44.210938 L 473.40625 41.621094 L 470.441406 39.179688 L 467.296875 36.894531 L 463.984375 34.78125 L 460.515625 32.839844 L 456.90625 31.082031 L 453.171875 29.515625 L 449.320313 28.140625 L 445.378906 26.972656 L 441.351563 26.007813 L 437.257813 25.257813 L 433.117188 24.714844 L 428.941406 24.390625 Z M 424.753906 24.28125 "/>
</g>
<path style="fill:none;stroke-width:2.25;stroke-linecap:round;stroke-linejoin:round;stroke:rgb(0%,0%,0%);stroke-opacity:1;stroke-miterlimit:10;" d="M 115.363281 210.386719 L 91.804688 233.941406 L 115.363281 257.5 L 138.917969 233.941406 Z M 115.363281 210.386719 "/>
<path style="fill:none;stroke-width:2.25;stroke-linecap:round;stroke-linejoin:round;stroke:rgb(0%,0%,0%);stroke-opacity:1;stroke-miterlimit:10;" d="M 154.230469 195.074219 L 151.191406 192.1875 L 148.007813 189.46875 L 144.699219 186.921875 L 141.273438 184.558594 L 137.742188 182.394531 L 134.125 180.429688 L 130.4375 178.679688 L 126.6875 177.148438 L 122.890625 175.839844 L 119.066406 174.757813 L 115.226563 173.910156 L 111.386719 173.300781 L 107.566406 172.933594 L 103.773438 172.804688 L 100.027344 172.914063 L 96.339844 173.269531 L 92.730469 173.859375 L 89.207031 174.691406 L 85.789063 175.753906 L 82.488281 177.046875 L 79.316406 178.5625 L 76.285156 180.300781 L 73.410156 182.25 L 70.703125 184.398438 L 68.167969 186.746094 L 65.820313 189.28125 L 63.667969 191.992188 L 61.722656 194.867188 L 59.984375 197.894531 L 58.46875 201.066406 L 57.175781 204.371094 L 56.109375 207.789063 L 55.28125 211.308594 L 54.6875 214.921875 L 54.335938 218.605469 L 54.222656 222.351563 L 54.355469 226.144531 L 54.722656 229.96875 L 55.332031 233.804688 L 56.179688 237.644531 L 57.257813 241.46875 L 58.566406 245.265625 L 60.101563 249.015625 L 61.851563 252.707031 L 63.816406 256.324219 L 65.980469 259.851563 L 68.339844 263.277344 L 70.886719 266.585938 L 73.609375 269.769531 L 76.496094 272.808594 L 79.535156 275.695313 L 82.71875 278.417969 L 86.027344 280.964844 L 89.453125 283.324219 L 92.984375 285.492188 L 96.601563 287.453125 L 100.289063 289.203125 L 104.039063 290.738281 L 107.835938 292.046875 L 111.660156 293.125 L 115.5 293.972656 L 119.339844 294.582031 L 123.160156 294.953125 L 126.953125 295.082031 L 130.699219 294.96875 L 134.386719 294.617188 L 137.996094 294.023438 L 141.519531 293.195313 L 144.9375 292.132813 L 148.238281 290.839844 L 151.410156 289.320313 L 154.4375 287.585938 L 157.316406 285.636719 L 160.023438 283.484375 L 162.558594 281.136719 L 164.90625 278.605469 L 167.058594 275.894531 L 169.003906 273.019531 L 170.742188 269.988281 L 172.257813 266.816406 L 173.550781 263.515625 L 174.613281 260.097656 L 175.445313 256.574219 L 176.035156 252.964844 L 176.390625 249.277344 L 176.503906 245.53125 L 176.371094 241.738281 L 176.003906 237.917969 L 175.394531 234.078125 L 174.546875 230.238281 L 173.46875 226.414063 L 172.160156 222.621094 L 170.625 218.871094 L 168.875 215.179688 L 166.910156 211.5625 L 164.746094 208.035156 L 162.382813 204.609375 L 159.839844 201.296875 L 157.117188 198.117188 Z M 154.230469 195.074219 "/>
<path style="fill:none;stroke-width:0.75;stroke-linecap:round;stroke-linejoin:round;stroke:rgb(0%,0%,0%);stroke-opacity:1;stroke-miterlimit:10;" d="M 270.058594 241.792969 L 273.472656 245.210938 Z M 270.058594 241.792969 "/>
<path style="fill:none;stroke-width:0.75;stroke-linecap:round;stroke-linejoin:round;stroke:rgb(0%,0%,0%);stroke-opacity:1;stroke-miterlimit:10;" d="M 270.058594 235.90625 L 277.34375 243.191406 Z M 270.058594 235.90625 "/>
<path style="fill:none;stroke-width:0.75;stroke-linecap:round;stroke-linejoin:round;stroke:rgb(0%,0%,0%);stroke-opacity:1;stroke-miterlimit:10;" d="M 270.058594 230.015625 L 280.109375 240.070313 Z M 270.058594 230.015625 "/>
<path style="fill:none;stroke-width:0.75;stroke-linecap:round;stroke-linejoin:round;stroke:rgb(0%,0%,0%);stroke-opacity:1;stroke-miterlimit:10;" d="M 270.058594 224.128906 L 281.6875 235.757813 Z M 270.058594 224.128906 "/>
<path style="fill:none;stroke-width:0.75;stroke-linecap:round;stroke-linejoin:round;stroke:rgb(0%,0%,0%);stroke-opacity:1;stroke-miterlimit:10;" d="M 280.679688 228.863281 L 275.136719 223.320313 Z M 280.679688 228.863281 "/>
<path style="fill:none;stroke-width:0.75;stroke-linecap:round;stroke-linejoin:round;stroke:rgb(0%,0%,0%);stroke-opacity:1;stroke-miterlimit:10;" d="M 258.480469 236.109375 L 267.890625 245.519531 Z M 258.480469 236.109375 "/>
<path style="fill:none;stroke-width:0.75;stroke-linecap:round;stroke-linejoin:round;stroke:rgb(0%,0%,0%);stroke-opacity:1;stroke-miterlimit:10;" d="M 258.789063 230.527344 L 270.058594 241.792969 Z M 258.789063 230.527344 "/>
<path style="fill:none;stroke-width:0.75;stroke-linecap:round;stroke-linejoin:round;stroke:rgb(0%,0%,0%);stroke-opacity:1;stroke-miterlimit:10;" d="M 260.808594 226.65625 L 270.058594 235.90625 Z M 260.808594 226.65625 "/>
<path style="fill:none;stroke-width:0.75;stroke-linecap:round;stroke-linejoin:round;stroke:rgb(0%,0%,0%);stroke-opacity:1;stroke-miterlimit:10;" d="M 270.058594 230.015625 L 263.929688 223.890625 Z M 270.058594 230.015625 "/>
<path style="fill:none;stroke-width:0.75;stroke-linecap:round;stroke-linejoin:round;stroke:rgb(0%,0%,0%);stroke-opacity:1;stroke-miterlimit:10;" d="M 270.058594 224.128906 L 268.242188 222.3125 Z M 270.058594 224.128906 "/>
<path style="fill:none;stroke-width:1.5;stroke-linecap:round;stroke-linejoin:round;stroke:rgb(0%,0%,0%);stroke-opacity:1;stroke-miterlimit:10;" d="M 281.835938 233.941406 L 281.8125 233.203125 L 281.742188 232.464844 L 281.628906 231.734375 L 281.464844 231.011719 L 281.257813 230.300781 L 281.007813 229.605469 L 280.714844 228.925781 L 280.378906 228.269531 L 280.003906 227.632813 L 279.585938 227.019531 L 279.132813 226.433594 L 278.644531 225.878906 L 278.121094 225.355469 L 277.566406 224.867188 L 276.980469 224.414063 L 276.367188 223.996094 L 275.730469 223.621094 L 275.074219 223.285156 L 274.394531 222.992188 L 273.699219 222.742188 L 272.988281 222.535156 L 272.265625 222.371094 L 271.535156 222.257813 L 270.796875 222.1875 L 270.058594 222.164063 L 269.316406 222.1875 L 268.582031 222.257813 L 267.851563 222.371094 L 267.128906 222.535156 L 266.417969 222.742188 L 265.722656 222.992188 L 265.042969 223.285156 L 264.382813 223.621094 L 263.746094 223.996094 L 263.132813 224.414063 L 262.550781 224.867188 L 261.996094 225.355469 L 261.472656 225.878906 L 260.980469 226.433594 L 260.527344 227.019531 L 260.113281 227.632813 L 259.734375 228.269531 L 259.398438 228.925781 L 259.105469 229.605469 L 258.855469 230.300781 L 258.648438 231.011719 L 258.488281 231.734375 L 258.371094 232.464844 L 258.300781 233.203125 L 258.277344 233.941406 L 258.300781 234.683594 L 258.371094 235.417969 L 258.488281 236.148438 L 258.648438 236.871094 L 258.855469 237.582031 L 259.105469 238.277344 L 259.398438 238.957031 L 259.734375 239.617188 L 260.113281 240.253906 L 260.527344 240.867188 L 260.980469 241.449219 L 261.472656 242.003906 L 261.996094 242.527344 L 262.550781 243.019531 L 263.132813 243.472656 L 263.746094 243.886719 L 264.382813 244.265625 L 265.042969 244.601563 L 265.722656 244.894531 L 266.417969 245.144531 L 267.128906 245.351563 L 267.851563 245.511719 L 268.582031 245.628906 L 269.316406 245.699219 L 270.058594 245.722656 L 270.796875 245.699219 L 271.535156 245.628906 L 272.265625 245.511719 L 272.988281 245.351563 L 273.699219 245.144531 L 274.394531 244.894531 L 275.074219 244.601563 L 275.730469 244.265625 L 276.367188 243.886719 L 276.980469 243.472656 L 277.566406 243.019531 L 278.121094 242.527344 L 278.644531 242.003906 L 279.132813 241.449219 L 279.585938 240.867188 L 280.003906 240.253906 L 280.378906 239.617188 L 280.714844 238.957031 L 281.007813 238.277344 L 281.257813 237.582031 L 281.464844 236.871094 L 281.628906 236.148438 L 281.742188 235.417969 L 281.8125 234.683594 Z M 281.835938 233.941406 "/>
<g clip-path="url(#clip3)" clip-rule="nonzero">
<path style="fill:none;stroke-width:2.25;stroke-linecap:round;stroke-linejoin:round;stroke:rgb(0%,0%,0%);stroke-opacity:1;stroke-miterlimit:10;" d="M 236.6875 176.140625 L 236.6875 291.746094 L 336.800781 233.941406 Z M 236.6875 176.140625 "/>
</g>
<path style="fill:none;stroke-width:0.75;stroke-linecap:round;stroke-linejoin:round;stroke:rgb(0%,0%,0%);stroke-opacity:1;stroke-miterlimit:10;" d="M 424.753906 253.574219 L 426.714844 255.535156 Z M 424.753906 253.574219 "/>
<path style="fill:none;stroke-width:0.75;stroke-linecap:round;stroke-linejoin:round;stroke:rgb(0%,0%,0%);stroke-opacity:1;stroke-miterlimit:10;" d="M 424.753906 247.683594 L 429.660156 252.589844 Z M 424.753906 247.683594 "/>
<path style="fill:none;stroke-width:0.75;stroke-linecap:round;stroke-linejoin:round;stroke:rgb(0%,0%,0%);stroke-opacity:1;stroke-miterlimit:10;" d="M 424.753906 241.792969 L 432.605469 249.648438 Z M 424.753906 241.792969 "/>
<path style="fill:none;stroke-width:0.75;stroke-linecap:round;stroke-linejoin:round;stroke:rgb(0%,0%,0%);stroke-opacity:1;stroke-miterlimit:10;" d="M 424.753906 235.90625 L 435.546875 246.703125 Z M 424.753906 235.90625 "/>
<path style="fill:none;stroke-width:0.75;stroke-linecap:round;stroke-linejoin:round;stroke:rgb(0%,0%,0%);stroke-opacity:1;stroke-miterlimit:10;" d="M 424.753906 230.015625 L 438.492188 243.757813 Z M 424.753906 230.015625 "/>
<path style="fill:none;stroke-width:0.75;stroke-linecap:round;stroke-linejoin:round;stroke:rgb(0%,0%,0%);stroke-opacity:1;stroke-miterlimit:10;" d="M 424.753906 224.128906 L 441.4375 240.8125 Z M 424.753906 224.128906 "/>
<path style="fill:none;stroke-width:0.75;stroke-linecap:round;stroke-linejoin:round;stroke:rgb(0%,0%,0%);stroke-opacity:1;stroke-miterlimit:10;" d="M 424.753906 218.238281 L 444.382813 237.867188 Z M 424.753906 218.238281 "/>
<path style="fill:none;stroke-width:0.75;stroke-linecap:round;stroke-linejoin:round;stroke:rgb(0%,0%,0%);stroke-opacity:1;stroke-miterlimit:10;" d="M 424.753906 212.347656 L 447.328125 234.925781 Z M 424.753906 212.347656 "/>
<path style="fill:none;stroke-width:0.75;stroke-linecap:round;stroke-linejoin:round;stroke:rgb(0%,0%,0%);stroke-opacity:1;stroke-miterlimit:10;" d="M 403.160156 231.980469 L 424.753906 253.574219 Z M 403.160156 231.980469 "/>
<path style="fill:none;stroke-width:0.75;stroke-linecap:round;stroke-linejoin:round;stroke:rgb(0%,0%,0%);stroke-opacity:1;stroke-miterlimit:10;" d="M 406.101563 229.035156 L 424.753906 247.683594 Z M 406.101563 229.035156 "/>
<path style="fill:none;stroke-width:0.75;stroke-linecap:round;stroke-linejoin:round;stroke:rgb(0%,0%,0%);stroke-opacity:1;stroke-miterlimit:10;" d="M 409.046875 226.089844 L 424.753906 241.792969 Z M 409.046875 226.089844 "/>
<path style="fill:none;stroke-width:0.75;stroke-linecap:round;stroke-linejoin:round;stroke:rgb(0%,0%,0%);stroke-opacity:1;stroke-miterlimit:10;" d="M 411.992188 223.144531 L 424.753906 235.90625 Z M 411.992188 223.144531 "/>
<path style="fill:none;stroke-width:0.75;stroke-linecap:round;stroke-linejoin:round;stroke:rgb(0%,0%,0%);stroke-opacity:1;stroke-miterlimit:10;" d="M 414.9375 220.199219 L 424.753906 230.015625 Z M 414.9375 220.199219 "/>
<path style="fill:none;stroke-width:0.75;stroke-linecap:round;stroke-linejoin:round;stroke:rgb(0%,0%,0%);stroke-opacity:1;stroke-miterlimit:10;" d="M 417.882813 217.257813 L 424.753906 224.128906 Z M 417.882813 217.257813 "/>
<path style="fill:none;stroke-width:0.75;stroke-linecap:round;stroke-linejoin:round;stroke:rgb(0%,0%,0%);stroke-opacity:1;stroke-miterlimit:10;" d="M 420.824219 214.3125 L 424.753906 218.238281 Z M 420.824219 214.3125 "/>
<path style="fill:none;stroke-width:0.75;stroke-linecap:round;stroke-linejoin:round;stroke:rgb(0%,0%,0%);stroke-opacity:1;stroke-miterlimit:10;" d="M 423.769531 211.367188 L 424.753906 212.347656 Z M 423.769531 211.367188 "/>
<path style="fill:none;stroke-width:2.25;stroke-linecap:round;stroke-linejoin:round;stroke:rgb(0%,0%,0%);stroke-opacity:1;stroke-miterlimit:10;" d="M 424.753906 210.386719 L 401.195313 233.941406 L 424.753906 257.5 L 448.308594 233.941406 Z M 424.753906 210.386719 "/>
<path style="fill:none;stroke-width:2.25;stroke-linecap:round;stroke-linejoin:round;stroke:rgb(0%,0%,0%);stroke-opacity:1;stroke-miterlimit:10;" d="M 383.109375 275.585938 L 451.488281 286.414063 L 482.917969 224.730469 L 433.964844 175.777344 L 372.277344 207.207031 Z M 383.109375 275.585938 "/>
<path style="fill:none;stroke-width:2.25;stroke-linecap:round;stroke-linejoin:round;stroke:rgb(0%,0%,0%);stroke-opacity:1;stroke-miterlimit:10;" d="M 115.363281 365.082031 L 91.804688 388.636719 L 115.363281 412.195313 L 138.917969 388.636719 Z M 115.363281 365.082031 "/>
<path style="fill:none;stroke-width:2.25;stroke-linecap:round;stroke-linejoin:round;stroke:rgb(0%,0%,0%);stroke-opacity:1;stroke-miterlimit:10;" d="M 56.472656 388.636719 L 97.164063 444.644531 L 163.007813 423.253906 L 163.007813 354.019531 L 97.164063 332.628906 Z M 56.472656 388.636719 "/>
<path style="fill:none;stroke-width:0.75;stroke-linecap:round;stroke-linejoin:round;stroke:rgb(0%,0%,0%);stroke-opacity:1;stroke-miterlimit:10;" d="M 270.058594 396.488281 L 273.472656 399.902344 Z M 270.058594 396.488281 "/>
<path style="fill:none;stroke-width:0.75;stroke-linecap:round;stroke-linejoin:round;stroke:rgb(0%,0%,0%);stroke-opacity:1;stroke-miterlimit:10;" d="M 270.058594 390.601563 L 277.34375 397.886719 Z M 270.058594 390.601563 "/>
<path style="fill:none;stroke-width:0.75;stroke-linecap:round;stroke-linejoin:round;stroke:rgb(0%,0%,0%);stroke-opacity:1;stroke-miterlimit:10;" d="M 270.058594 384.710938 L 280.109375 394.765625 Z M 270.058594 384.710938 "/>
<path style="fill:none;stroke-width:0.75;stroke-linecap:round;stroke-linejoin:round;stroke:rgb(0%,0%,0%);stroke-opacity:1;stroke-miterlimit:10;" d="M 270.058594 378.820313 L 281.6875 390.453125 Z M 270.058594 378.820313 "/>
<path style="fill:none;stroke-width:0.75;stroke-linecap:round;stroke-linejoin:round;stroke:rgb(0%,0%,0%);stroke-opacity:1;stroke-miterlimit:10;" d="M 280.679688 383.554688 L 275.136719 378.011719 Z M 280.679688 383.554688 "/>
<path style="fill:none;stroke-width:0.75;stroke-linecap:round;stroke-linejoin:round;stroke:rgb(0%,0%,0%);stroke-opacity:1;stroke-miterlimit:10;" d="M 258.480469 390.800781 L 267.890625 400.214844 Z M 258.480469 390.800781 "/>
<path style="fill:none;stroke-width:0.75;stroke-linecap:round;stroke-linejoin:round;stroke:rgb(0%,0%,0%);stroke-opacity:1;stroke-miterlimit:10;" d="M 258.789063 385.222656 L 270.058594 396.488281 Z M 258.789063 385.222656 "/>
<path style="fill:none;stroke-width:0.75;stroke-linecap:round;stroke-linejoin:round;stroke:rgb(0%,0%,0%);stroke-opacity:1;stroke-miterlimit:10;" d="M 260.808594 381.351563 L 270.058594 390.601563 Z M 260.808594 381.351563 "/>
<path style="fill:none;stroke-width:0.75;stroke-linecap:round;stroke-linejoin:round;stroke:rgb(0%,0%,0%);stroke-opacity:1;stroke-miterlimit:10;" d="M 270.058594 384.710938 L 263.929688 378.582031 Z M 270.058594 384.710938 "/>
<path style="fill:none;stroke-width:0.75;stroke-linecap:round;stroke-linejoin:round;stroke:rgb(0%,0%,0%);stroke-opacity:1;stroke-miterlimit:10;" d="M 270.058594 378.820313 L 268.242188 377.003906 Z M 270.058594 378.820313 "/>
<path style="fill:none;stroke-width:0.75;stroke-linecap:round;stroke-linejoin:round;stroke:rgb(0%,0%,0%);stroke-opacity:1;stroke-miterlimit:10;" d="M 272.222656 400.214844 L 281.632813 390.800781 Z M 272.222656 400.214844 "/>
<path style="fill:none;stroke-width:0.75;stroke-linecap:round;stroke-linejoin:round;stroke:rgb(0%,0%,0%);stroke-opacity:1;stroke-miterlimit:10;" d="M 281.324219 385.222656 L 270.058594 396.488281 Z M 281.324219 385.222656 "/>
<path style="fill:none;stroke-width:0.75;stroke-linecap:round;stroke-linejoin:round;stroke:rgb(0%,0%,0%);stroke-opacity:1;stroke-miterlimit:10;" d="M 279.304688 381.351563 L 270.058594 390.601563 Z M 279.304688 381.351563 "/>
<path style="fill:none;stroke-width:0.75;stroke-linecap:round;stroke-linejoin:round;stroke:rgb(0%,0%,0%);stroke-opacity:1;stroke-miterlimit:10;" d="M 276.183594 378.582031 L 270.058594 384.710938 Z M 276.183594 378.582031 "/>
<path style="fill:none;stroke-width:0.75;stroke-linecap:round;stroke-linejoin:round;stroke:rgb(0%,0%,0%);stroke-opacity:1;stroke-miterlimit:10;" d="M 271.875 377.003906 L 270.058594 378.820313 Z M 271.875 377.003906 "/>
<path style="fill:none;stroke-width:0.75;stroke-linecap:round;stroke-linejoin:round;stroke:rgb(0%,0%,0%);stroke-opacity:1;stroke-miterlimit:10;" d="M 266.644531 399.902344 L 270.058594 396.488281 Z M 266.644531 399.902344 "/>
<path style="fill:none;stroke-width:0.75;stroke-linecap:round;stroke-linejoin:round;stroke:rgb(0%,0%,0%);stroke-opacity:1;stroke-miterlimit:10;" d="M 262.773438 397.886719 L 270.058594 390.601563 Z M 262.773438 397.886719 "/>
<path style="fill:none;stroke-width:0.75;stroke-linecap:round;stroke-linejoin:round;stroke:rgb(0%,0%,0%);stroke-opacity:1;stroke-miterlimit:10;" d="M 270.058594 384.710938 L 260.003906 394.765625 Z M 270.058594 384.710938 "/>
<path style="fill:none;stroke-width:0.75;stroke-linecap:round;stroke-linejoin:round;stroke:rgb(0%,0%,0%);stroke-opacity:1;stroke-miterlimit:10;" d="M 270.058594 378.820313 L 258.425781 390.453125 Z M 270.058594 378.820313 "/>
<path style="fill:none;stroke-width:0.75;stroke-linecap:round;stroke-linejoin:round;stroke:rgb(0%,0%,0%);stroke-opacity:1;stroke-miterlimit:10;" d="M 264.976563 378.011719 L 259.433594 383.554688 Z M 264.976563 378.011719 "/>
<path style="fill:none;stroke-width:1.5;stroke-linecap:round;stroke-linejoin:round;stroke:rgb(0%,0%,0%);stroke-opacity:1;stroke-miterlimit:10;" d="M 281.835938 388.636719 L 281.8125 387.898438 L 281.742188 387.160156 L 281.628906 386.429688 L 281.464844 385.707031 L 281.257813 384.996094 L 281.007813 384.300781 L 280.714844 383.621094 L 280.378906 382.960938 L 280.003906 382.324219 L 279.585938 381.714844 L 279.132813 381.128906 L 278.644531 380.574219 L 278.121094 380.050781 L 277.566406 379.5625 L 276.980469 379.109375 L 276.367188 378.691406 L 275.730469 378.316406 L 275.074219 377.980469 L 274.394531 377.6875 L 273.699219 377.433594 L 272.988281 377.226563 L 272.265625 377.066406 L 271.535156 376.953125 L 270.796875 376.882813 L 270.058594 376.859375 L 269.316406 376.882813 L 268.582031 376.953125 L 267.851563 377.066406 L 267.128906 377.226563 L 266.417969 377.433594 L 265.722656 377.6875 L 265.042969 377.980469 L 264.382813 378.316406 L 263.746094 378.691406 L 263.132813 379.109375 L 262.550781 379.5625 L 261.996094 380.050781 L 261.472656 380.574219 L 260.980469 381.128906 L 260.527344 381.714844 L 260.113281 382.324219 L 259.734375 382.960938 L 259.398438 383.621094 L 259.105469 384.300781 L 258.855469 384.996094 L 258.648438 385.707031 L 258.488281 386.429688 L 258.371094 387.160156 L 258.300781 387.898438 L 258.277344 388.636719 L 258.300781 389.375 L 258.371094 390.113281 L 258.488281 390.84375 L 258.648438 391.566406 L 258.855469 392.277344 L 259.105469 392.972656 L 259.398438 393.652344 L 259.734375 394.3125 L 260.113281 394.949219 L 260.527344 395.558594 L 260.980469 396.144531 L 261.472656 396.699219 L 261.996094 397.222656 L 262.550781 397.710938 L 263.132813 398.164063 L 263.746094 398.582031 L 264.382813 398.957031 L 265.042969 399.292969 L 265.722656 399.589844 L 266.417969 399.839844 L 267.128906 400.046875 L 267.851563 400.207031 L 268.582031 400.320313 L 269.316406 400.390625 L 270.058594 400.414063 L 270.796875 400.390625 L 271.535156 400.320313 L 272.265625 400.207031 L 272.988281 400.046875 L 273.699219 399.839844 L 274.394531 399.589844 L 275.074219 399.292969 L 275.730469 398.957031 L 276.367188 398.582031 L 276.980469 398.164063 L 277.566406 397.710938 L 278.121094 397.222656 L 278.644531 396.699219 L 279.132813 396.144531 L 279.585938 395.558594 L 280.003906 394.949219 L 280.378906 394.3125 L 280.714844 393.652344 L 281.007813 392.972656 L 281.257813 392.277344 L 281.464844 391.566406 L 281.628906 390.84375 L 281.742188 390.113281 L 281.8125 389.375 Z M 281.835938 388.636719 "/>
<path style="fill:none;stroke-width:2.25;stroke-linecap:round;stroke-linejoin:round;stroke:rgb(0%,0%,0%);stroke-opacity:1;stroke-miterlimit:10;" d="M 231.191406 349.769531 L 228.304688 352.808594 L 225.582031 355.992188 L 223.035156 359.300781 L 220.675781 362.726563 L 218.507813 366.257813 L 216.546875 369.875 L 214.796875 373.5625 L 213.261719 377.3125 L 211.953125 381.109375 L 210.875 384.933594 L 210.027344 388.773438 L 209.417969 392.613281 L 209.046875 396.433594 L 208.917969 400.226563 L 209.03125 403.972656 L 209.382813 407.660156 L 209.976563 411.269531 L 210.804688 414.792969 L 211.867188 418.210938 L 213.160156 421.511719 L 214.679688 424.683594 L 216.414063 427.714844 L 218.363281 430.589844 L 220.515625 433.296875 L 222.863281 435.832031 L 225.394531 438.179688 L 228.105469 440.332031 L 230.980469 442.277344 L 234.011719 444.015625 L 237.183594 445.53125 L 240.484375 446.824219 L 243.902344 447.890625 L 247.425781 448.71875 L 251.035156 449.3125 L 254.722656 449.664063 L 258.46875 449.777344 L 262.261719 449.644531 L 266.082031 449.277344 L 269.921875 448.667969 L 273.761719 447.820313 L 277.585938 446.742188 L 281.378906 445.433594 L 285.128906 443.898438 L 288.820313 442.148438 L 292.4375 440.183594 L 295.964844 438.019531 L 299.390625 435.660156 L 302.703125 433.113281 L 305.882813 430.390625 L 308.925781 427.503906 L 311.8125 424.464844 L 314.53125 421.28125 L 317.078125 417.972656 L 319.441406 414.546875 L 321.605469 411.015625 L 323.570313 407.398438 L 325.320313 403.710938 L 326.851563 399.960938 L 328.160156 396.164063 L 329.242188 392.339844 L 330.089844 388.5 L 330.699219 384.660156 L 331.066406 380.839844 L 331.195313 377.046875 L 331.085938 373.300781 L 330.730469 369.613281 L 330.140625 366.003906 L 329.308594 362.480469 L 328.246094 359.0625 L 326.953125 355.761719 L 325.4375 352.589844 L 323.699219 349.5625 L 321.75 346.683594 L 319.601563 343.976563 L 317.253906 341.441406 L 314.71875 339.09375 L 312.007813 336.941406 L 309.132813 334.996094 L 306.105469 333.257813 L 302.933594 331.742188 L 299.628906 330.449219 L 296.210938 329.386719 L 292.691406 328.554688 L 289.078125 327.964844 L 285.394531 327.609375 L 281.648438 327.496094 L 277.855469 327.628906 L 274.03125 327.996094 L 270.195313 328.605469 L 266.355469 329.453125 L 262.53125 330.53125 L 258.734375 331.839844 L 254.984375 333.375 L 251.292969 335.125 L 247.675781 337.089844 L 244.148438 339.253906 L 240.722656 341.617188 L 237.414063 344.160156 L 234.230469 346.882813 Z M 231.191406 349.769531 "/>
</g>
</svg>
