<?xml version="1.0" encoding="UTF-8"?>
<svg xmlns="http://www.w3.org/2000/svg" xmlns:xlink="http://www.w3.org/1999/xlink" width="1008pt" height="612pt" viewBox="0 0 1008 612" version="1.1">
<g id="surface56">
<rect x="0" y="0" width="1008" height="612" style="fill:rgb(100%,100%,100%);fill-opacity:1;stroke:none;"/>
<path style="fill-rule:nonzero;fill:rgb(74.509804%,74.509804%,74.509804%);fill-opacity:1;stroke-width:2.25;stroke-linecap:round;stroke-linejoin:round;stroke:rgb(0%,0%,0%);stroke-opacity:1;stroke-miterlimit:10;" d="M 269.617188 26.992188 L 129.109375 26.992188 L 129.109375 167.503906 L 269.617188 167.503906 Z M 269.617188 26.992188 "/>
<path style="fill-rule:nonzero;fill:rgb(100%,100%,100%);fill-opacity:1;stroke-width:2.25;stroke-linecap:round;stroke-linejoin:round;stroke:rgb(0%,0%,0%);stroke-opacity:1;stroke-miterlimit:10;" d="M 199.363281 31.011719 L 142 130.367188 L 256.726563 130.367188 Z M 199.363281 31.011719 "/>
<path style="fill-rule:nonzero;fill:rgb(74.509804%,74.509804%,74.509804%);fill-opacity:1;stroke-width:2.25;stroke-linecap:round;stroke-linejoin:round;stroke:rgb(0%,0%,0%);stroke-opacity:1;stroke-miterlimit:10;" d="M 592.3125 26.992188 L 451.800781 26.992188 L 451.800781 167.503906 L 592.3125 167.503906 Z M 592.3125 26.992188 "/>
<path style="fill-rule:nonzero;fill:rgb(100%,100%,100%);fill-opacity:1;stroke-width:2.25;stroke-linecap:round;stroke-linejoin:round;stroke:rgb(0%,0%,0%);stroke-opacity:1;stroke-miterlimit:10;" d="M 539.621094 79.683594 L 538.117188 78.25 L 536.546875 76.886719 L 534.921875 75.605469 L 533.246094 74.414063 L 531.523438 73.308594 L 529.765625 72.296875 L 527.980469 71.386719 L 526.167969 70.574219 L 524.339844 69.871094 L 522.503906 69.273438 L 520.664063 68.789063 L 518.828125 68.414063 L 517.007813 68.152344 L 515.210938 68.007813 L 513.433594 67.976563 L 511.695313 68.0625 L 509.996094 68.265625 L 508.347656 68.582031 L 506.75 69.007813 L 505.214844 69.546875 L 503.742188 70.199219 L 502.34375 70.953125 L 501.023438 71.8125 L 499.789063 72.773438 L 498.640625 73.828125 L 497.582031 74.980469 L 496.621094 76.214844 L 495.761719 77.535156 L 495.007813 78.933594 L 494.359375 80.402344 L 493.816406 81.941406 L 493.390625 83.535156 L 493.074219 85.1875 L 492.875 86.886719 L 492.789063 88.625 L 492.816406 90.398438 L 492.964844 92.199219 L 493.222656 94.019531 L 493.597656 95.855469 L 494.082031 97.691406 L 494.679688 99.53125 L 495.382813 101.355469 L 496.195313 103.167969 L 497.105469 104.957031 L 498.117188 106.714844 L 499.222656 108.4375 L 500.417969 110.113281 L 501.695313 111.738281 L 503.058594 113.304688 L 504.492188 114.8125 L 506 116.246094 L 507.566406 117.609375 L 509.191406 118.890625 L 510.871094 120.082031 L 512.589844 121.1875 L 514.347656 122.199219 L 516.136719 123.109375 L 517.949219 123.921875 L 519.777344 124.625 L 521.613281 125.222656 L 523.453125 125.707031 L 525.285156 126.082031 L 527.105469 126.34375 L 528.90625 126.488281 L 530.679688 126.515625 L 532.417969 126.433594 L 534.117188 126.230469 L 535.769531 125.914063 L 537.367188 125.488281 L 538.902344 124.949219 L 540.371094 124.296875 L 541.769531 123.542969 L 543.089844 122.683594 L 544.328125 121.722656 L 545.476563 120.667969 L 546.53125 119.515625 L 547.492188 118.28125 L 548.351563 116.960938 L 549.109375 115.5625 L 549.757813 114.09375 L 550.296875 112.554688 L 550.726563 110.960938 L 551.039063 109.308594 L 551.242188 107.609375 L 551.328125 105.871094 L 551.296875 104.097656 L 551.152344 102.296875 L 550.890625 100.476563 L 550.519531 98.640625 L 550.03125 96.804688 L 549.433594 94.964844 L 548.730469 93.136719 L 547.921875 91.328125 L 547.007813 89.539063 L 546 87.78125 L 544.894531 86.058594 L 543.699219 84.382813 L 542.417969 82.757813 L 541.058594 81.1875 Z M 539.621094 79.683594 "/>
<path style="fill-rule:nonzero;fill:rgb(74.509804%,74.509804%,74.509804%);fill-opacity:1;stroke-width:2.25;stroke-linecap:round;stroke-linejoin:round;stroke:rgb(0%,0%,0%);stroke-opacity:1;stroke-miterlimit:10;" d="M 915.007813 26.992188 L 774.496094 26.992188 L 774.496094 167.503906 L 915.007813 167.503906 Z M 915.007813 26.992188 "/>
<path style="fill-rule:nonzero;fill:rgb(100%,100%,100%);fill-opacity:1;stroke-width:2.25;stroke-linecap:round;stroke-linejoin:round;stroke:rgb(0%,0%,0%);stroke-opacity:1;stroke-miterlimit:10;" d="M 822.671875 97.246094 L 837.929688 118.246094 L 862.613281 110.226563 L 862.613281 84.269531 L 837.929688 76.25 Z M 822.671875 97.246094 "/>
<path style="fill-rule:nonzero;fill:rgb(74.509804%,74.509804%,74.509804%);fill-opacity:1;stroke-width:2.25;stroke-linecap:round;stroke-linejoin:round;stroke:rgb(0%,0%,0%);stroke-opacity:1;stroke-miterlimit:10;" d="M 269.617188 217.6875 L 129.109375 217.6875 L 129.109375 358.199219 L 269.617188 358.199219 Z M 269.617188 217.6875 "/>
<path style="fill-rule:nonzero;fill:rgb(100%,100%,100%);fill-opacity:1;stroke-width:2.25;stroke-linecap:round;stroke-linejoin:round;stroke:rgb(0%,0%,0%);stroke-opacity:1;stroke-miterlimit:10;" d="M 249.039063 287.941406 L 248.941406 283.785156 L 248.648438 279.640625 L 248.160156 275.53125 L 247.480469 271.46875 L 246.609375 267.472656 L 245.550781 263.558594 L 244.3125 259.738281 L 242.894531 256.03125 L 241.308594 252.449219 L 239.554688 249.007813 L 237.640625 245.722656 L 235.578125 242.601563 L 233.371094 239.65625 L 231.027344 236.90625 L 228.5625 234.355469 L 225.980469 232.015625 L 223.296875 229.898438 L 220.515625 228.007813 L 217.652344 226.355469 L 214.714844 224.945313 L 211.71875 223.785156 L 208.671875 222.878906 L 205.589844 222.226563 L 202.484375 221.835938 L 199.363281 221.707031 L 196.242188 221.835938 L 193.136719 222.226563 L 190.054688 222.878906 L 187.007813 223.785156 L 184.011719 224.945313 L 181.074219 226.355469 L 178.210938 228.007813 L 175.429688 229.898438 L 172.746094 232.015625 L 170.164063 234.355469 L 167.699219 236.90625 L 165.355469 239.65625 L 163.148438 242.601563 L 161.085938 245.722656 L 159.171875 249.007813 L 157.417969 252.449219 L 155.832031 256.03125 L 154.414063 259.738281 L 153.175781 263.558594 L 152.117188 267.472656 L 151.246094 271.46875 L 150.566406 275.53125 L 150.078125 279.640625 L 149.785156 283.785156 L 149.683594 287.941406 L 149.785156 292.101563 L 150.078125 296.242188 L 150.566406 300.355469 L 151.246094 304.414063 L 152.117188 308.410156 L 153.175781 312.324219 L 154.414063 316.144531 L 155.832031 319.851563 L 157.417969 323.433594 L 159.171875 326.875 L 161.085938 330.164063 L 163.148438 333.285156 L 165.355469 336.226563 L 167.699219 338.980469 L 170.164063 341.527344 L 172.746094 343.867188 L 175.429688 345.988281 L 178.210938 347.875 L 181.074219 349.527344 L 184.011719 350.9375 L 187.007813 352.097656 L 190.054688 353.007813 L 193.136719 353.65625 L 196.242188 354.046875 L 199.363281 354.179688 L 202.484375 354.046875 L 205.589844 353.65625 L 208.671875 353.007813 L 211.71875 352.097656 L 214.714844 350.9375 L 217.652344 349.527344 L 220.515625 347.875 L 223.296875 345.988281 L 225.980469 343.867188 L 228.5625 341.527344 L 231.027344 338.980469 L 233.371094 336.226563 L 235.578125 333.285156 L 237.640625 330.164063 L 239.554688 326.875 L 241.308594 323.433594 L 242.894531 319.851563 L 244.3125 316.144531 L 245.550781 312.324219 L 246.609375 308.410156 L 247.480469 304.414063 L 248.160156 300.355469 L 248.648438 296.242188 L 248.941406 292.101563 Z M 249.039063 287.941406 "/>
<path style="fill-rule:nonzero;fill:rgb(74.509804%,74.509804%,74.509804%);fill-opacity:1;stroke-width:2.25;stroke-linecap:round;stroke-linejoin:round;stroke:rgb(0%,0%,0%);stroke-opacity:1;stroke-miterlimit:10;" d="M 592.3125 217.6875 L 451.800781 217.6875 L 451.800781 358.199219 L 592.3125 358.199219 Z M 592.3125 217.6875 "/>
<path style="fill-rule:nonzero;fill:rgb(100%,100%,100%);fill-opacity:1;stroke-width:2.25;stroke-linecap:round;stroke-linejoin:round;stroke:rgb(0%,0%,0%);stroke-opacity:1;stroke-miterlimit:10;" d="M 498.640625 264.523438 L 492.546875 302.976563 L 527.238281 320.652344 L 554.769531 293.125 L 537.09375 258.433594 Z M 498.640625 264.523438 "/>
<path style="fill-rule:nonzero;fill:rgb(74.509804%,74.509804%,74.509804%);fill-opacity:1;stroke-width:2.25;stroke-linecap:round;stroke-linejoin:round;stroke:rgb(0%,0%,0%);stroke-opacity:1;stroke-miterlimit:10;" d="M 915.007813 217.6875 L 774.496094 217.6875 L 774.496094 358.199219 L 915.007813 358.199219 Z M 915.007813 217.6875 "/>
<path style="fill-rule:nonzero;fill:rgb(100%,100%,100%);fill-opacity:1;stroke-width:2.25;stroke-linecap:round;stroke-linejoin:round;stroke:rgb(0%,0%,0%);stroke-opacity:1;stroke-miterlimit:10;" d="M 822.671875 287.941406 L 855.792969 307.0625 L 855.792969 268.820313 Z M 822.671875 287.941406 "/>
<path style="fill-rule:nonzero;fill:rgb(74.509804%,74.509804%,74.509804%);fill-opacity:1;stroke-width:2.25;stroke-linecap:round;stroke-linejoin:round;stroke:rgb(0%,0%,0%);stroke-opacity:1;stroke-miterlimit:10;" d="M 269.617188 408.382813 L 129.109375 408.382813 L 129.109375 548.890625 L 269.617188 548.890625 Z M 269.617188 408.382813 "/>
<path style="fill-rule:nonzero;fill:rgb(100%,100%,100%);fill-opacity:1;stroke-width:2.25;stroke-linecap:round;stroke-linejoin:round;stroke:rgb(0%,0%,0%);stroke-opacity:1;stroke-miterlimit:10;" d="M 199.363281 412.398438 L 136.367188 458.167969 L 160.429688 532.222656 L 238.296875 532.222656 L 262.359375 458.167969 Z M 199.363281 412.398438 "/>
<path style="fill-rule:nonzero;fill:rgb(74.509804%,74.509804%,74.509804%);fill-opacity:1;stroke-width:2.25;stroke-linecap:round;stroke-linejoin:round;stroke:rgb(0%,0%,0%);stroke-opacity:1;stroke-miterlimit:10;" d="M 592.3125 408.382813 L 451.800781 408.382813 L 451.800781 548.890625 L 592.3125 548.890625 Z M 592.3125 408.382813 "/>
<path style="fill-rule:nonzero;fill:rgb(100%,100%,100%);fill-opacity:1;stroke-width:2.25;stroke-linecap:round;stroke-linejoin:round;stroke:rgb(0%,0%,0%);stroke-opacity:1;stroke-miterlimit:10;" d="M 498.640625 455.21875 L 513.484375 510.625 L 554.046875 470.066406 Z M 498.640625 455.21875 "/>
</g>
</svg>
