<?xml version="1.0" encoding="UTF-8"?>
<svg xmlns="http://www.w3.org/2000/svg" xmlns:xlink="http://www.w3.org/1999/xlink" width="1008pt" height="612pt" viewBox="0 0 1008 612" version="1.1">
<g id="surface56">
<rect x="0" y="0" width="1008" height="612" style="fill:rgb(100%,100%,100%);fill-opacity:1;stroke:none;"/>
<path style="fill:none;stroke-width:2.25;stroke-linecap:round;stroke-linejoin:round;stroke:rgb(0%,0%,0%);stroke-opacity:1;stroke-miterlimit:10;" d="M 199.363281 14.453125 L 127.660156 138.644531 L 271.066406 138.644531 Z M 199.363281 14.453125 "/>
<path style="fill:none;stroke-width:2.25;stroke-linecap:round;stroke-linejoin:round;stroke:rgb(0%,0%,0%);stroke-opacity:1;stroke-miterlimit:10;" d="M 541.574219 77.734375 L 540.675781 76.914063 L 539.707031 76.175781 L 538.667969 75.519531 L 537.5625 74.949219 L 536.394531 74.464844 L 535.171875 74.074219 L 533.898438 73.773438 L 532.578125 73.566406 L 531.214844 73.449219 L 529.816406 73.429688 L 528.386719 73.503906 L 526.933594 73.671875 L 525.457031 73.929688 L 523.972656 74.28125 L 522.476563 74.726563 L 520.980469 75.257813 L 519.488281 75.875 L 518.007813 76.578125 L 516.539063 77.363281 L 515.097656 78.226563 L 513.679688 79.164063 L 512.296875 80.171875 L 510.949219 81.25 L 509.648438 82.390625 L 508.398438 83.585938 L 507.199219 84.839844 L 506.058594 86.140625 L 504.980469 87.484375 L 503.972656 88.871094 L 503.035156 90.285156 L 502.171875 91.730469 L 501.386719 93.195313 L 500.683594 94.679688 L 500.066406 96.171875 L 499.535156 97.667969 L 499.09375 99.160156 L 498.742188 100.648438 L 498.480469 102.121094 L 498.3125 103.578125 L 498.238281 105.007813 L 498.261719 106.40625 L 498.375 107.769531 L 498.582031 109.089844 L 498.882813 110.363281 L 499.277344 111.585938 L 499.757813 112.753906 L 500.328125 113.859375 L 500.984375 114.898438 L 501.722656 115.867188 L 502.542969 116.761719 L 503.4375 117.582031 L 504.410156 118.320313 L 505.449219 118.976563 L 506.550781 119.546875 L 507.71875 120.03125 L 508.941406 120.421875 L 510.214844 120.722656 L 511.539063 120.929688 L 512.898438 121.046875 L 514.300781 121.066406 L 515.726563 120.992188 L 517.183594 120.824219 L 518.65625 120.566406 L 520.144531 120.214844 L 521.636719 119.769531 L 523.136719 119.238281 L 524.628906 118.621094 L 526.109375 117.917969 L 527.574219 117.132813 L 529.019531 116.269531 L 530.4375 115.332031 L 531.820313 114.324219 L 533.164063 113.246094 L 534.464844 112.105469 L 535.71875 110.910156 L 536.917969 109.65625 L 538.054688 108.355469 L 539.132813 107.011719 L 540.140625 105.625 L 541.082031 104.210938 L 541.941406 102.765625 L 542.726563 101.300781 L 543.429688 99.816406 L 544.046875 98.324219 L 544.582031 96.828125 L 545.023438 95.335938 L 545.375 93.847656 L 545.636719 92.375 L 545.800781 90.917969 L 545.875 89.488281 L 545.855469 88.089844 L 545.738281 86.726563 L 545.53125 85.40625 L 545.230469 84.132813 L 544.839844 82.910156 L 544.355469 81.742188 L 543.785156 80.636719 L 543.132813 79.597656 L 542.390625 78.628906 Z M 541.574219 77.734375 "/>
<path style="fill:none;stroke-width:2.25;stroke-linecap:round;stroke-linejoin:round;stroke:rgb(0%,0%,0%);stroke-opacity:1;stroke-miterlimit:10;" d="M 817.152344 97.246094 L 836.222656 123.496094 L 867.078125 113.46875 L 867.078125 81.027344 L 836.222656 71 Z M 817.152344 97.246094 "/>
<path style="fill:none;stroke-width:2.25;stroke-linecap:round;stroke-linejoin:round;stroke:rgb(0%,0%,0%);stroke-opacity:1;stroke-miterlimit:10;" d="M 238.394531 248.910156 L 236.601563 247.273438 L 234.660156 245.796875 L 232.582031 244.484375 L 230.371094 243.34375 L 228.039063 242.378906 L 225.59375 241.59375 L 223.046875 240.992188 L 220.402344 240.578125 L 217.679688 240.347656 L 214.878906 240.308594 L 212.019531 240.453125 L 209.113281 240.789063 L 206.164063 241.308594 L 203.191406 242.011719 L 200.203125 242.898438 L 197.207031 243.960938 L 194.222656 245.199219 L 191.261719 246.601563 L 188.328125 248.171875 L 185.441406 249.898438 L 182.605469 251.773438 L 179.839844 253.792969 L 177.148438 255.945313 L 174.546875 258.222656 L 172.042969 260.621094 L 169.644531 263.125 L 167.367188 265.726563 L 165.210938 268.417969 L 163.195313 271.1875 L 161.316406 274.019531 L 159.59375 276.90625 L 158.023438 279.839844 L 156.617188 282.804688 L 155.382813 285.789063 L 154.316406 288.78125 L 153.433594 291.769531 L 152.730469 294.746094 L 152.207031 297.691406 L 151.875 300.601563 L 151.726563 303.460938 L 151.769531 306.257813 L 152 308.984375 L 152.414063 311.625 L 153.015625 314.175781 L 153.800781 316.621094 L 154.765625 318.953125 L 155.90625 321.160156 L 157.214844 323.242188 L 158.695313 325.179688 L 160.332031 326.972656 L 162.125 328.613281 L 164.066406 330.089844 L 166.144531 331.402344 L 168.351563 332.542969 L 170.6875 333.503906 L 173.132813 334.289063 L 175.679688 334.890625 L 178.324219 335.308594 L 181.046875 335.535156 L 183.847656 335.578125 L 186.703125 335.429688 L 189.613281 335.097656 L 192.5625 334.578125 L 195.535156 333.871094 L 198.523438 332.988281 L 201.519531 331.925781 L 204.503906 330.6875 L 207.464844 329.28125 L 210.398438 327.714844 L 213.285156 325.988281 L 216.121094 324.113281 L 218.886719 322.09375 L 221.578125 319.941406 L 224.179688 317.660156 L 226.683594 315.265625 L 229.082031 312.757813 L 231.359375 310.15625 L 233.515625 307.464844 L 235.53125 304.699219 L 237.410156 301.867188 L 239.132813 298.976563 L 240.703125 296.046875 L 242.109375 293.082031 L 243.34375 290.097656 L 244.410156 287.105469 L 245.292969 284.113281 L 245.996094 281.140625 L 246.519531 278.191406 L 246.851563 275.285156 L 247 272.425781 L 246.957031 269.628906 L 246.726563 266.902344 L 246.3125 264.257813 L 245.710938 261.710938 L 244.925781 259.265625 L 243.960938 256.933594 L 242.820313 254.722656 L 241.511719 252.644531 L 240.03125 250.703125 Z M 238.394531 248.910156 "/>
<path style="fill:none;stroke-width:2.25;stroke-linecap:round;stroke-linejoin:round;stroke:rgb(0%,0%,0%);stroke-opacity:1;stroke-miterlimit:10;" d="M 480.660156 287.941406 L 509.265625 327.3125 L 555.550781 312.277344 L 555.550781 263.609375 L 509.265625 248.570313 Z M 480.660156 287.941406 "/>
<path style="fill:none;stroke-width:2.25;stroke-linecap:round;stroke-linejoin:round;stroke:rgb(0%,0%,0%);stroke-opacity:1;stroke-miterlimit:10;" d="M 825.238281 307.457031 L 871.410156 295.085938 L 837.609375 261.285156 Z M 825.238281 307.457031 "/>
<path style="fill:none;stroke-width:2.25;stroke-linecap:round;stroke-linejoin:round;stroke:rgb(0%,0%,0%);stroke-opacity:1;stroke-miterlimit:10;" d="M 116.566406 478.636719 L 173.777344 557.378906 L 266.347656 527.304688 L 266.347656 429.96875 L 173.777344 399.894531 Z M 116.566406 478.636719 "/>
<path style="fill:none;stroke-width:2.25;stroke-linecap:round;stroke-linejoin:round;stroke:rgb(0%,0%,0%);stroke-opacity:1;stroke-miterlimit:10;" d="M 492.785156 507.910156 L 562.046875 489.351563 L 511.34375 438.648438 Z M 492.785156 507.910156 "/>
</g>
</svg>
