<?xml version="1.0" encoding="UTF-8"?>
<svg xmlns="http://www.w3.org/2000/svg" xmlns:xlink="http://www.w3.org/1999/xlink" width="1008pt" height="612pt" viewBox="0 0 1008 612" version="1.1">
<g id="surface254">
<rect x="0" y="0" width="1008" height="612" style="fill:rgb(100%,100%,100%);fill-opacity:1;stroke:none;"/>
<path style="fill-rule:nonzero;fill:rgb(74.509804%,74.509804%,74.509804%);fill-opacity:1;stroke-width:2.25;stroke-linecap:round;stroke-linejoin:round;stroke:rgb(0%,0%,0%);stroke-opacity:1;stroke-miterlimit:10;" d="M 236.621094 59.988281 L 235.421875 58.828125 L 234.183594 57.703125 L 232.910156 56.617188 L 231.605469 55.574219 L 230.265625 54.570313 L 228.898438 53.613281 L 227.496094 52.695313 L 226.070313 51.828125 L 224.617188 51.003906 L 223.136719 50.222656 L 221.632813 49.492188 L 220.105469 48.8125 L 218.558594 48.175781 L 216.992188 47.59375 L 215.40625 47.058594 L 213.804688 46.574219 L 212.191406 46.140625 L 210.5625 45.761719 L 208.925781 45.429688 L 207.277344 45.152344 L 205.617188 44.929688 L 203.957031 44.757813 L 202.289063 44.636719 L 200.617188 44.570313 L 198.945313 44.558594 L 197.273438 44.597656 L 195.605469 44.691406 L 193.9375 44.835938 L 192.277344 45.035156 L 190.625 45.285156 L 188.980469 45.589844 L 187.347656 45.945313 L 185.726563 46.351563 L 184.117188 46.808594 L 182.523438 47.320313 L 180.949219 47.878906 L 179.390625 48.488281 L 177.855469 49.144531 L 176.339844 49.851563 L 174.847656 50.605469 L 173.378906 51.410156 L 171.9375 52.257813 L 170.527344 53.148438 L 169.140625 54.085938 L 167.785156 55.066406 L 166.464844 56.089844 L 165.175781 57.152344 L 163.917969 58.257813 L 162.699219 59.402344 L 161.519531 60.585938 L 160.375 61.804688 L 159.269531 63.058594 L 158.203125 64.347656 L 157.183594 65.671875 L 156.199219 67.027344 L 155.265625 68.410156 L 154.371094 69.824219 L 153.523438 71.265625 L 152.722656 72.734375 L 151.96875 74.226563 L 151.261719 75.738281 L 150.601563 77.277344 L 149.996094 78.835938 L 149.433594 80.410156 L 148.925781 82.003906 L 148.46875 83.609375 L 148.058594 85.230469 L 147.703125 86.867188 L 147.402344 88.511719 L 147.152344 90.164063 L 146.953125 91.824219 L 146.804688 93.488281 L 146.714844 95.160156 L 146.671875 96.828125 L 146.6875 98.5 L 146.753906 100.171875 L 146.871094 101.839844 L 147.042969 103.503906 L 147.269531 105.160156 L 147.546875 106.808594 L 147.875 108.449219 L 148.257813 110.078125 L 148.691406 111.691406 L 149.175781 113.292969 L 149.707031 114.875 L 150.292969 116.441406 L 150.925781 117.988281 L 151.609375 119.515625 L 152.339844 121.019531 L 153.117188 122.5 L 153.941406 123.953125 L 154.8125 125.382813 L 155.726563 126.78125 L 156.6875 128.152344 L 157.6875 129.488281 L 158.730469 130.796875 L 159.816406 132.066406 L 160.941406 133.304688 L 162.105469 134.507813 L 199.363281 97.246094 Z M 236.621094 59.988281 "/>
<path style="fill-rule:nonzero;fill:rgb(74.509804%,74.509804%,74.509804%);fill-opacity:1;stroke-width:2.25;stroke-linecap:round;stroke-linejoin:round;stroke:rgb(0%,0%,0%);stroke-opacity:1;stroke-miterlimit:10;" d="M 236.621094 59.988281 L 235.421875 58.828125 L 234.183594 57.703125 L 232.910156 56.617188 L 231.605469 55.574219 L 230.265625 54.570313 L 228.898438 53.613281 L 227.496094 52.695313 L 226.070313 51.828125 L 224.617188 51.003906 L 223.136719 50.222656 L 221.632813 49.492188 L 220.105469 48.8125 L 218.558594 48.175781 L 216.992188 47.59375 L 215.40625 47.058594 L 213.804688 46.574219 L 212.191406 46.140625 L 210.5625 45.761719 L 208.925781 45.429688 L 207.277344 45.152344 L 205.617188 44.929688 L 203.957031 44.757813 L 202.289063 44.636719 L 200.617188 44.570313 L 198.945313 44.558594 L 197.273438 44.597656 L 195.605469 44.691406 L 193.9375 44.835938 L 192.277344 45.035156 L 190.625 45.285156 L 188.980469 45.589844 L 187.347656 45.945313 L 185.726563 46.351563 L 184.117188 46.808594 L 182.523438 47.320313 L 180.949219 47.878906 L 179.390625 48.488281 L 177.855469 49.144531 L 176.339844 49.851563 L 174.847656 50.605469 L 173.378906 51.410156 L 171.9375 52.257813 L 170.527344 53.148438 L 169.140625 54.085938 L 167.785156 55.066406 L 166.464844 56.089844 L 165.175781 57.152344 L 163.917969 58.257813 L 162.699219 59.402344 L 161.519531 60.585938 L 160.375 61.804688 L 159.269531 63.058594 L 158.203125 64.347656 L 157.183594 65.671875 L 156.199219 67.027344 L 155.265625 68.410156 L 154.371094 69.824219 L 153.523438 71.265625 L 152.722656 72.734375 L 151.96875 74.226563 L 151.261719 75.738281 L 150.601563 77.277344 L 149.996094 78.835938 L 149.433594 80.410156 L 148.925781 82.003906 L 148.46875 83.609375 L 148.058594 85.230469 L 147.703125 86.867188 L 147.402344 88.511719 L 147.152344 90.164063 L 146.953125 91.824219 L 146.804688 93.488281 L 146.714844 95.160156 L 146.671875 96.828125 L 146.6875 98.5 L 146.753906 100.171875 L 146.871094 101.839844 L 147.042969 103.503906 L 147.269531 105.160156 L 147.546875 106.808594 L 147.875 108.449219 L 148.257813 110.078125 L 148.691406 111.691406 L 149.175781 113.292969 L 149.707031 114.875 L 150.292969 116.441406 L 150.925781 117.988281 L 151.609375 119.515625 L 152.339844 121.019531 L 153.117188 122.5 L 153.941406 123.953125 L 154.8125 125.382813 L 155.726563 126.78125 L 156.6875 128.152344 L 157.6875 129.488281 L 158.730469 130.796875 L 159.816406 132.066406 L 160.941406 133.304688 L 162.105469 134.507813 L 199.363281 97.246094 Z M 236.621094 59.988281 "/>
<path style="fill-rule:nonzero;fill:rgb(74.509804%,74.509804%,74.509804%);fill-opacity:1;stroke-width:2.25;stroke-linecap:round;stroke-linejoin:round;stroke:rgb(0%,0%,0%);stroke-opacity:1;stroke-miterlimit:10;" d="M 236.621094 59.988281 L 235.421875 58.828125 L 234.183594 57.703125 L 232.910156 56.617188 L 231.605469 55.574219 L 230.265625 54.570313 L 228.898438 53.613281 L 227.496094 52.695313 L 226.070313 51.828125 L 224.617188 51.003906 L 223.136719 50.222656 L 221.632813 49.492188 L 220.105469 48.8125 L 218.558594 48.175781 L 216.992188 47.59375 L 215.40625 47.058594 L 213.804688 46.574219 L 212.191406 46.140625 L 210.5625 45.761719 L 208.925781 45.429688 L 207.277344 45.152344 L 205.617188 44.929688 L 203.957031 44.757813 L 202.289063 44.636719 L 200.617188 44.570313 L 198.945313 44.558594 L 197.273438 44.597656 L 195.605469 44.691406 L 193.9375 44.835938 L 192.277344 45.035156 L 190.625 45.285156 L 188.980469 45.589844 L 187.347656 45.945313 L 185.726563 46.351563 L 184.117188 46.808594 L 182.523438 47.320313 L 180.949219 47.878906 L 179.390625 48.488281 L 177.855469 49.144531 L 176.339844 49.851563 L 174.847656 50.605469 L 173.378906 51.410156 L 171.9375 52.257813 L 170.527344 53.148438 L 169.140625 54.085938 L 167.785156 55.066406 L 166.464844 56.089844 L 165.175781 57.152344 L 163.917969 58.257813 L 162.699219 59.402344 L 161.519531 60.585938 L 160.375 61.804688 L 159.269531 63.058594 L 158.203125 64.347656 L 157.183594 65.671875 L 156.199219 67.027344 L 155.265625 68.410156 L 154.371094 69.824219 L 153.523438 71.265625 L 152.722656 72.734375 L 151.96875 74.226563 L 151.261719 75.738281 L 150.601563 77.277344 L 149.996094 78.835938 L 149.433594 80.410156 L 148.925781 82.003906 L 148.46875 83.609375 L 148.058594 85.230469 L 147.703125 86.867188 L 147.402344 88.511719 L 147.152344 90.164063 L 146.953125 91.824219 L 146.804688 93.488281 L 146.714844 95.160156 L 146.671875 96.828125 L 146.6875 98.5 L 146.753906 100.171875 L 146.871094 101.839844 L 147.042969 103.503906 L 147.269531 105.160156 L 147.546875 106.808594 L 147.875 108.449219 L 148.257813 110.078125 L 148.691406 111.691406 L 149.175781 113.292969 L 149.707031 114.875 L 150.292969 116.441406 L 150.925781 117.988281 L 151.609375 119.515625 L 152.339844 121.019531 L 153.117188 122.5 L 153.941406 123.953125 L 154.8125 125.382813 L 155.726563 126.78125 L 156.6875 128.152344 L 157.6875 129.488281 L 158.730469 130.796875 L 159.816406 132.066406 L 160.941406 133.304688 L 162.105469 134.507813 L 199.363281 97.246094 Z M 236.621094 59.988281 "/>
<path style="fill:none;stroke-width:2.25;stroke-linecap:round;stroke-linejoin:round;stroke:rgb(0%,0%,0%);stroke-opacity:1;stroke-miterlimit:10;" d="M 259.078125 37.53125 L 139.644531 37.53125 L 139.644531 156.964844 L 259.078125 156.964844 Z M 259.078125 37.53125 "/>
<path style="fill-rule:nonzero;fill:rgb(0%,0%,0%);fill-opacity:1;stroke-width:2.25;stroke-linecap:round;stroke-linejoin:round;stroke:rgb(0%,0%,0%);stroke-opacity:1;stroke-miterlimit:10;" d="M 522.058594 44.558594 L 520.386719 44.582031 L 518.714844 44.664063 L 517.050781 44.796875 L 515.386719 44.980469 L 513.730469 45.21875 L 512.085938 45.507813 L 510.449219 45.851563 L 508.824219 46.246094 L 507.210938 46.691406 L 505.617188 47.1875 L 504.035156 47.734375 L 502.472656 48.332031 L 500.933594 48.976563 L 499.410156 49.671875 L 497.914063 50.414063 L 496.4375 51.203125 L 494.992188 52.039063 L 493.570313 52.921875 L 492.179688 53.847656 L 490.816406 54.816406 L 489.484375 55.828125 L 488.1875 56.882813 L 486.925781 57.980469 L 485.695313 59.113281 L 484.503906 60.285156 L 483.351563 61.496094 L 482.234375 62.742188 L 481.160156 64.023438 L 480.128906 65.335938 L 479.136719 66.683594 L 478.1875 68.0625 L 477.285156 69.46875 L 476.425781 70.902344 L 475.613281 72.363281 L 474.847656 73.847656 L 474.128906 75.359375 L 473.457031 76.890625 L 472.835938 78.441406 L 472.265625 80.015625 L 471.742188 81.601563 L 471.273438 83.207031 L 470.851563 84.824219 L 470.484375 86.457031 L 470.167969 88.097656 L 469.902344 89.75 L 469.691406 91.40625 L 469.53125 93.070313 L 469.425781 94.742188 L 469.371094 96.410156 L 469.371094 98.085938 L 469.425781 99.753906 L 469.53125 101.421875 L 469.691406 103.089844 L 469.902344 104.746094 L 470.167969 106.398438 L 470.484375 108.039063 L 470.851563 109.671875 L 471.273438 111.289063 L 471.742188 112.894531 L 472.265625 114.480469 L 472.835938 116.054688 L 473.457031 117.605469 L 474.128906 119.136719 L 474.847656 120.644531 L 475.613281 122.132813 L 476.425781 123.59375 L 477.285156 125.027344 L 478.1875 126.433594 L 479.136719 127.8125 L 480.128906 129.160156 L 481.160156 130.472656 L 482.234375 131.753906 L 483.351563 133 L 484.503906 134.210938 L 485.695313 135.382813 L 486.925781 136.515625 L 488.1875 137.613281 L 489.484375 138.667969 L 490.816406 139.679688 L 492.179688 140.648438 L 493.570313 141.574219 L 494.992188 142.457031 L 496.4375 143.292969 L 497.914063 144.082031 L 499.410156 144.824219 L 500.933594 145.519531 L 502.472656 146.164063 L 504.035156 146.761719 L 505.617188 147.308594 L 507.210938 147.804688 L 508.824219 148.25 L 510.449219 148.644531 L 512.085938 148.988281 L 513.730469 149.277344 L 515.386719 149.515625 L 517.050781 149.699219 L 518.714844 149.832031 L 520.386719 149.914063 L 522.058594 149.9375 Z M 522.058594 44.558594 "/>
<path style="fill-rule:nonzero;fill:rgb(0%,0%,0%);fill-opacity:1;stroke-width:2.25;stroke-linecap:round;stroke-linejoin:round;stroke:rgb(0%,0%,0%);stroke-opacity:1;stroke-miterlimit:10;" d="M 522.058594 44.558594 L 520.386719 44.582031 L 518.714844 44.664063 L 517.050781 44.796875 L 515.386719 44.980469 L 513.730469 45.21875 L 512.085938 45.507813 L 510.449219 45.851563 L 508.824219 46.246094 L 507.210938 46.691406 L 505.617188 47.1875 L 504.035156 47.734375 L 502.472656 48.332031 L 500.933594 48.976563 L 499.410156 49.671875 L 497.914063 50.414063 L 496.4375 51.203125 L 494.992188 52.039063 L 493.570313 52.921875 L 492.179688 53.847656 L 490.816406 54.816406 L 489.484375 55.828125 L 488.1875 56.882813 L 486.925781 57.980469 L 485.695313 59.113281 L 484.503906 60.285156 L 483.351563 61.496094 L 482.234375 62.742188 L 481.160156 64.023438 L 480.128906 65.335938 L 479.136719 66.683594 L 478.1875 68.0625 L 477.285156 69.46875 L 476.425781 70.902344 L 475.613281 72.363281 L 474.847656 73.847656 L 474.128906 75.359375 L 473.457031 76.890625 L 472.835938 78.441406 L 472.265625 80.015625 L 471.742188 81.601563 L 471.273438 83.207031 L 470.851563 84.824219 L 470.484375 86.457031 L 470.167969 88.097656 L 469.902344 89.75 L 469.691406 91.40625 L 469.53125 93.070313 L 469.425781 94.742188 L 469.371094 96.410156 L 469.371094 98.085938 L 469.425781 99.753906 L 469.53125 101.421875 L 469.691406 103.089844 L 469.902344 104.746094 L 470.167969 106.398438 L 470.484375 108.039063 L 470.851563 109.671875 L 471.273438 111.289063 L 471.742188 112.894531 L 472.265625 114.480469 L 472.835938 116.054688 L 473.457031 117.605469 L 474.128906 119.136719 L 474.847656 120.644531 L 475.613281 122.132813 L 476.425781 123.59375 L 477.285156 125.027344 L 478.1875 126.433594 L 479.136719 127.8125 L 480.128906 129.160156 L 481.160156 130.472656 L 482.234375 131.753906 L 483.351563 133 L 484.503906 134.210938 L 485.695313 135.382813 L 486.925781 136.515625 L 488.1875 137.613281 L 489.484375 138.667969 L 490.816406 139.679688 L 492.179688 140.648438 L 493.570313 141.574219 L 494.992188 142.457031 L 496.4375 143.292969 L 497.914063 144.082031 L 499.410156 144.824219 L 500.933594 145.519531 L 502.472656 146.164063 L 504.035156 146.761719 L 505.617188 147.308594 L 507.210938 147.804688 L 508.824219 148.25 L 510.449219 148.644531 L 512.085938 148.988281 L 513.730469 149.277344 L 515.386719 149.515625 L 517.050781 149.699219 L 518.714844 149.832031 L 520.386719 149.914063 L 522.058594 149.9375 Z M 522.058594 44.558594 "/>
<path style="fill-rule:nonzero;fill:rgb(0%,0%,0%);fill-opacity:1;stroke-width:2.25;stroke-linecap:round;stroke-linejoin:round;stroke:rgb(0%,0%,0%);stroke-opacity:1;stroke-miterlimit:10;" d="M 522.058594 44.558594 L 520.386719 44.582031 L 518.714844 44.664063 L 517.050781 44.796875 L 515.386719 44.980469 L 513.730469 45.21875 L 512.085938 45.507813 L 510.449219 45.851563 L 508.824219 46.246094 L 507.210938 46.691406 L 505.617188 47.1875 L 504.035156 47.734375 L 502.472656 48.332031 L 500.933594 48.976563 L 499.410156 49.671875 L 497.914063 50.414063 L 496.4375 51.203125 L 494.992188 52.039063 L 493.570313 52.921875 L 492.179688 53.847656 L 490.816406 54.816406 L 489.484375 55.828125 L 488.1875 56.882813 L 486.925781 57.980469 L 485.695313 59.113281 L 484.503906 60.285156 L 483.351563 61.496094 L 482.234375 62.742188 L 481.160156 64.023438 L 480.128906 65.335938 L 479.136719 66.683594 L 478.1875 68.0625 L 477.285156 69.46875 L 476.425781 70.902344 L 475.613281 72.363281 L 474.847656 73.847656 L 474.128906 75.359375 L 473.457031 76.890625 L 472.835938 78.441406 L 472.265625 80.015625 L 471.742188 81.601563 L 471.273438 83.207031 L 470.851563 84.824219 L 470.484375 86.457031 L 470.167969 88.097656 L 469.902344 89.75 L 469.691406 91.40625 L 469.53125 93.070313 L 469.425781 94.742188 L 469.371094 96.410156 L 469.371094 98.085938 L 469.425781 99.753906 L 469.53125 101.421875 L 469.691406 103.089844 L 469.902344 104.746094 L 470.167969 106.398438 L 470.484375 108.039063 L 470.851563 109.671875 L 471.273438 111.289063 L 471.742188 112.894531 L 472.265625 114.480469 L 472.835938 116.054688 L 473.457031 117.605469 L 474.128906 119.136719 L 474.847656 120.644531 L 475.613281 122.132813 L 476.425781 123.59375 L 477.285156 125.027344 L 478.1875 126.433594 L 479.136719 127.8125 L 480.128906 129.160156 L 481.160156 130.472656 L 482.234375 131.753906 L 483.351563 133 L 484.503906 134.210938 L 485.695313 135.382813 L 486.925781 136.515625 L 488.1875 137.613281 L 489.484375 138.667969 L 490.816406 139.679688 L 492.179688 140.648438 L 493.570313 141.574219 L 494.992188 142.457031 L 496.4375 143.292969 L 497.914063 144.082031 L 499.410156 144.824219 L 500.933594 145.519531 L 502.472656 146.164063 L 504.035156 146.761719 L 505.617188 147.308594 L 507.210938 147.804688 L 508.824219 148.25 L 510.449219 148.644531 L 512.085938 148.988281 L 513.730469 149.277344 L 515.386719 149.515625 L 517.050781 149.699219 L 518.714844 149.832031 L 520.386719 149.914063 L 522.058594 149.9375 Z M 522.058594 44.558594 "/>
<path style="fill:none;stroke-width:2.25;stroke-linecap:round;stroke-linejoin:round;stroke:rgb(0%,0%,0%);stroke-opacity:1;stroke-miterlimit:10;" d="M 596.574219 97.246094 L 559.316406 32.714844 L 484.800781 32.714844 L 447.539063 97.246094 L 484.800781 161.78125 L 559.316406 161.78125 Z M 596.574219 97.246094 "/>
<path style="fill-rule:nonzero;fill:rgb(100%,100%,100%);fill-opacity:1;stroke-width:2.25;stroke-linecap:round;stroke-linejoin:round;stroke:rgb(0%,0%,0%);stroke-opacity:1;stroke-miterlimit:10;" d="M 807.492188 59.988281 L 806.332031 61.191406 L 805.207031 62.429688 L 804.121094 63.699219 L 803.078125 65.007813 L 802.074219 66.34375 L 801.117188 67.714844 L 800.199219 69.113281 L 799.332031 70.542969 L 798.507813 71.996094 L 797.726563 73.476563 L 796.996094 74.980469 L 796.316406 76.507813 L 795.679688 78.054688 L 795.097656 79.621094 L 794.5625 81.203125 L 794.078125 82.804688 L 793.644531 84.417969 L 793.265625 86.046875 L 792.933594 87.6875 L 792.660156 89.335938 L 792.433594 90.992188 L 792.261719 92.65625 L 792.140625 94.324219 L 792.074219 95.992188 L 792.0625 97.664063 L 792.101563 99.335938 L 792.195313 101.007813 L 792.339844 102.671875 L 792.539063 104.332031 L 792.789063 105.984375 L 793.09375 107.628906 L 793.449219 109.265625 L 793.855469 110.886719 L 794.316406 112.492188 L 794.824219 114.085938 L 795.382813 115.660156 L 795.992188 117.21875 L 796.648438 118.753906 L 797.355469 120.269531 L 798.109375 121.761719 L 798.914063 123.230469 L 799.761719 124.671875 L 800.652344 126.085938 L 801.589844 127.46875 L 802.570313 128.824219 L 803.59375 130.148438 L 804.65625 131.4375 L 805.761719 132.691406 L 806.90625 133.910156 L 808.089844 135.09375 L 809.308594 136.238281 L 810.5625 137.34375 L 811.851563 138.40625 L 813.175781 139.429688 L 814.53125 140.410156 L 815.914063 141.347656 L 817.328125 142.238281 L 818.769531 143.085938 L 820.238281 143.890625 L 821.730469 144.644531 L 823.246094 145.351563 L 824.78125 146.007813 L 826.339844 146.617188 L 827.914063 147.175781 L 829.507813 147.683594 L 831.113281 148.144531 L 832.734375 148.550781 L 834.371094 148.90625 L 836.015625 149.210938 L 837.667969 149.460938 L 839.328125 149.660156 L 840.992188 149.804688 L 842.664063 149.898438 L 844.335938 149.9375 L 846.007813 149.925781 L 847.675781 149.859375 L 849.34375 149.738281 L 851.007813 149.566406 L 852.664063 149.339844 L 854.3125 149.066406 L 855.953125 148.734375 L 857.582031 148.355469 L 859.195313 147.921875 L 860.796875 147.4375 L 862.378906 146.902344 L 863.945313 146.320313 L 865.492188 145.683594 L 867.019531 145.003906 L 868.523438 144.273438 L 870.003906 143.492188 L 871.457031 142.667969 L 872.886719 141.800781 L 874.285156 140.882813 L 875.65625 139.925781 L 876.992188 138.921875 L 878.300781 137.878906 L 879.570313 136.792969 L 880.808594 135.667969 L 882.011719 134.507813 L 844.753906 97.246094 Z M 807.492188 59.988281 "/>
<path style="fill-rule:nonzero;fill:rgb(100%,100%,100%);fill-opacity:1;stroke-width:2.25;stroke-linecap:round;stroke-linejoin:round;stroke:rgb(0%,0%,0%);stroke-opacity:1;stroke-miterlimit:10;" d="M 807.492188 59.988281 L 806.332031 61.191406 L 805.207031 62.429688 L 804.121094 63.699219 L 803.078125 65.007813 L 802.074219 66.34375 L 801.117188 67.714844 L 800.199219 69.113281 L 799.332031 70.542969 L 798.507813 71.996094 L 797.726563 73.476563 L 796.996094 74.980469 L 796.316406 76.507813 L 795.679688 78.054688 L 795.097656 79.621094 L 794.5625 81.203125 L 794.078125 82.804688 L 793.644531 84.417969 L 793.265625 86.046875 L 792.933594 87.6875 L 792.660156 89.335938 L 792.433594 90.992188 L 792.261719 92.65625 L 792.140625 94.324219 L 792.074219 95.992188 L 792.0625 97.664063 L 792.101563 99.335938 L 792.195313 101.007813 L 792.339844 102.671875 L 792.539063 104.332031 L 792.789063 105.984375 L 793.09375 107.628906 L 793.449219 109.265625 L 793.855469 110.886719 L 794.316406 112.492188 L 794.824219 114.085938 L 795.382813 115.660156 L 795.992188 117.21875 L 796.648438 118.753906 L 797.355469 120.269531 L 798.109375 121.761719 L 798.914063 123.230469 L 799.761719 124.671875 L 800.652344 126.085938 L 801.589844 127.46875 L 802.570313 128.824219 L 803.59375 130.148438 L 804.65625 131.4375 L 805.761719 132.691406 L 806.90625 133.910156 L 808.089844 135.09375 L 809.308594 136.238281 L 810.5625 137.34375 L 811.851563 138.40625 L 813.175781 139.429688 L 814.53125 140.410156 L 815.914063 141.347656 L 817.328125 142.238281 L 818.769531 143.085938 L 820.238281 143.890625 L 821.730469 144.644531 L 823.246094 145.351563 L 824.78125 146.007813 L 826.339844 146.617188 L 827.914063 147.175781 L 829.507813 147.683594 L 831.113281 148.144531 L 832.734375 148.550781 L 834.371094 148.90625 L 836.015625 149.210938 L 837.667969 149.460938 L 839.328125 149.660156 L 840.992188 149.804688 L 842.664063 149.898438 L 844.335938 149.9375 L 846.007813 149.925781 L 847.675781 149.859375 L 849.34375 149.738281 L 851.007813 149.566406 L 852.664063 149.339844 L 854.3125 149.066406 L 855.953125 148.734375 L 857.582031 148.355469 L 859.195313 147.921875 L 860.796875 147.4375 L 862.378906 146.902344 L 863.945313 146.320313 L 865.492188 145.683594 L 867.019531 145.003906 L 868.523438 144.273438 L 870.003906 143.492188 L 871.457031 142.667969 L 872.886719 141.800781 L 874.285156 140.882813 L 875.65625 139.925781 L 876.992188 138.921875 L 878.300781 137.878906 L 879.570313 136.792969 L 880.808594 135.667969 L 882.011719 134.507813 L 844.753906 97.246094 Z M 807.492188 59.988281 "/>
<path style="fill:none;stroke-width:2.25;stroke-linecap:round;stroke-linejoin:round;stroke:rgb(0%,0%,0%);stroke-opacity:1;stroke-miterlimit:10;" d="M 807.492188 59.988281 L 806.332031 61.191406 L 805.207031 62.429688 L 804.121094 63.699219 L 803.078125 65.007813 L 802.074219 66.34375 L 801.117188 67.714844 L 800.199219 69.113281 L 799.332031 70.542969 L 798.507813 71.996094 L 797.726563 73.476563 L 796.996094 74.980469 L 796.316406 76.507813 L 795.679688 78.054688 L 795.097656 79.621094 L 794.5625 81.203125 L 794.078125 82.804688 L 793.644531 84.417969 L 793.265625 86.046875 L 792.933594 87.6875 L 792.660156 89.335938 L 792.433594 90.992188 L 792.261719 92.65625 L 792.140625 94.324219 L 792.074219 95.992188 L 792.0625 97.664063 L 792.101563 99.335938 L 792.195313 101.007813 L 792.339844 102.671875 L 792.539063 104.332031 L 792.789063 105.984375 L 793.09375 107.628906 L 793.449219 109.265625 L 793.855469 110.886719 L 794.316406 112.492188 L 794.824219 114.085938 L 795.382813 115.660156 L 795.992188 117.21875 L 796.648438 118.753906 L 797.355469 120.269531 L 798.109375 121.761719 L 798.914063 123.230469 L 799.761719 124.671875 L 800.652344 126.085938 L 801.589844 127.46875 L 802.570313 128.824219 L 803.59375 130.148438 L 804.65625 131.4375 L 805.761719 132.691406 L 806.90625 133.910156 L 808.089844 135.09375 L 809.308594 136.238281 L 810.5625 137.34375 L 811.851563 138.40625 L 813.175781 139.429688 L 814.53125 140.410156 L 815.914063 141.347656 L 817.328125 142.238281 L 818.769531 143.085938 L 820.238281 143.890625 L 821.730469 144.644531 L 823.246094 145.351563 L 824.78125 146.007813 L 826.339844 146.617188 L 827.914063 147.175781 L 829.507813 147.683594 L 831.113281 148.144531 L 832.734375 148.550781 L 834.371094 148.90625 L 836.015625 149.210938 L 837.667969 149.460938 L 839.328125 149.660156 L 840.992188 149.804688 L 842.664063 149.898438 L 844.335938 149.9375 L 846.007813 149.925781 L 847.675781 149.859375 L 849.34375 149.738281 L 851.007813 149.566406 L 852.664063 149.339844 L 854.3125 149.066406 L 855.953125 148.734375 L 857.582031 148.355469 L 859.195313 147.921875 L 860.796875 147.4375 L 862.378906 146.902344 L 863.945313 146.320313 L 865.492188 145.683594 L 867.019531 145.003906 L 868.523438 144.273438 L 870.003906 143.492188 L 871.457031 142.667969 L 872.886719 141.800781 L 874.285156 140.882813 L 875.65625 139.925781 L 876.992188 138.921875 L 878.300781 137.878906 L 879.570313 136.792969 L 880.808594 135.667969 L 882.011719 134.507813 L 844.753906 97.246094 Z M 807.492188 59.988281 "/>
<path style="fill:none;stroke-width:1.5;stroke-linecap:round;stroke-linejoin:round;stroke:rgb(0%,0%,0%);stroke-opacity:1;stroke-miterlimit:10;" d="M 919.269531 97.246094 L 919.121094 92.570313 L 918.679688 87.910156 L 917.949219 83.285156 L 916.925781 78.714844 L 915.621094 74.222656 L 914.035156 69.816406 L 912.175781 65.519531 L 910.050781 61.347656 L 907.667969 57.320313 L 905.039063 53.449219 L 902.167969 49.75 L 899.074219 46.238281 L 895.761719 42.925781 L 892.25 39.832031 L 888.550781 36.960938 L 884.679688 34.332031 L 880.652344 31.949219 L 876.480469 29.824219 L 872.183594 27.964844 L 867.777344 26.378906 L 863.285156 25.074219 L 858.714844 24.050781 L 854.089844 23.320313 L 849.429688 22.878906 L 844.753906 22.730469 L 840.074219 22.878906 L 835.414063 23.320313 L 830.789063 24.050781 L 826.21875 25.074219 L 821.726563 26.378906 L 817.320313 27.964844 L 813.023438 29.824219 L 808.851563 31.949219 L 804.824219 34.332031 L 800.953125 36.960938 L 797.253906 39.832031 L 793.742188 42.925781 L 790.433594 46.238281 L 787.335938 49.75 L 784.464844 53.449219 L 781.835938 57.320313 L 779.453125 61.347656 L 777.328125 65.519531 L 775.46875 69.816406 L 773.882813 74.222656 L 772.578125 78.714844 L 771.554688 83.285156 L 770.824219 87.910156 L 770.382813 92.570313 L 770.234375 97.246094 L 770.382813 101.925781 L 770.824219 106.585938 L 771.554688 111.210938 L 772.578125 115.78125 L 773.882813 120.273438 L 775.46875 124.679688 L 777.328125 128.976563 L 779.453125 133.148438 L 781.835938 137.175781 L 784.464844 141.046875 L 787.335938 144.746094 L 790.433594 148.257813 L 793.742188 151.566406 L 797.253906 154.664063 L 800.953125 157.535156 L 804.824219 160.164063 L 808.851563 162.546875 L 813.023438 164.671875 L 817.320313 166.53125 L 821.726563 168.117188 L 826.21875 169.421875 L 830.789063 170.445313 L 835.414063 171.175781 L 840.074219 171.617188 L 844.753906 171.765625 L 849.429688 171.617188 L 854.089844 171.175781 L 858.714844 170.445313 L 863.285156 169.421875 L 867.777344 168.117188 L 872.183594 166.53125 L 876.480469 164.671875 L 880.652344 162.546875 L 884.679688 160.164063 L 888.550781 157.535156 L 892.25 154.664063 L 895.761719 151.566406 L 899.074219 148.257813 L 902.167969 144.746094 L 905.039063 141.046875 L 907.667969 137.175781 L 910.050781 133.148438 L 912.175781 128.976563 L 914.035156 124.679688 L 915.621094 120.273438 L 916.925781 115.78125 L 917.949219 111.210938 L 918.679688 106.585938 L 919.121094 101.925781 Z M 919.269531 97.246094 "/>
<path style="fill-rule:nonzero;fill:rgb(0%,0%,0%);fill-opacity:1;stroke-width:2.25;stroke-linecap:round;stroke-linejoin:round;stroke:rgb(0%,0%,0%);stroke-opacity:1;stroke-miterlimit:10;" d="M 236.621094 250.683594 L 235.421875 249.519531 L 234.183594 248.394531 L 232.910156 247.3125 L 231.605469 246.265625 L 230.265625 245.265625 L 228.898438 244.304688 L 227.496094 243.390625 L 226.070313 242.519531 L 224.617188 241.695313 L 223.136719 240.917969 L 221.632813 240.1875 L 220.105469 239.503906 L 218.558594 238.871094 L 216.992188 238.289063 L 215.40625 237.753906 L 213.804688 237.269531 L 212.191406 236.835938 L 210.5625 236.457031 L 208.925781 236.125 L 207.277344 235.847656 L 205.617188 235.625 L 203.957031 235.453125 L 202.289063 235.332031 L 200.617188 235.265625 L 198.945313 235.253906 L 197.273438 235.292969 L 195.605469 235.386719 L 193.9375 235.53125 L 192.277344 235.730469 L 190.625 235.980469 L 188.980469 236.285156 L 187.347656 236.640625 L 185.726563 237.046875 L 184.117188 237.503906 L 182.523438 238.015625 L 180.949219 238.574219 L 179.390625 239.183594 L 177.855469 239.839844 L 176.339844 240.546875 L 174.847656 241.300781 L 173.378906 242.101563 L 171.9375 242.949219 L 170.527344 243.84375 L 169.140625 244.78125 L 167.785156 245.761719 L 166.464844 246.785156 L 165.175781 247.847656 L 163.917969 248.953125 L 162.699219 250.097656 L 161.519531 251.28125 L 160.375 252.5 L 159.269531 253.753906 L 158.203125 255.042969 L 157.183594 256.367188 L 156.199219 257.71875 L 155.265625 259.105469 L 154.371094 260.519531 L 153.523438 261.960938 L 152.722656 263.425781 L 151.96875 264.917969 L 151.261719 266.433594 L 150.601563 267.972656 L 149.996094 269.527344 L 149.433594 271.105469 L 148.925781 272.695313 L 148.46875 274.304688 L 148.058594 275.925781 L 147.703125 277.558594 L 147.402344 279.203125 L 147.152344 280.859375 L 146.953125 282.519531 L 146.804688 284.183594 L 146.714844 285.851563 L 146.671875 287.523438 L 146.6875 289.195313 L 146.753906 290.867188 L 146.871094 292.535156 L 147.042969 294.199219 L 147.269531 295.855469 L 147.546875 297.503906 L 147.875 299.144531 L 148.257813 300.769531 L 148.691406 302.386719 L 149.175781 303.984375 L 149.707031 305.570313 L 150.292969 307.136719 L 150.925781 308.683594 L 151.609375 310.210938 L 152.339844 311.714844 L 153.117188 313.195313 L 153.941406 314.648438 L 154.8125 316.078125 L 155.726563 317.476563 L 156.6875 318.847656 L 157.6875 320.183594 L 158.730469 321.492188 L 159.816406 322.761719 L 160.941406 324 L 162.105469 325.199219 Z M 236.621094 250.683594 "/>
<path style="fill-rule:nonzero;fill:rgb(0%,0%,0%);fill-opacity:1;stroke-width:2.25;stroke-linecap:round;stroke-linejoin:round;stroke:rgb(0%,0%,0%);stroke-opacity:1;stroke-miterlimit:10;" d="M 236.621094 250.683594 L 235.421875 249.519531 L 234.183594 248.394531 L 232.910156 247.3125 L 231.605469 246.265625 L 230.265625 245.265625 L 228.898438 244.304688 L 227.496094 243.390625 L 226.070313 242.519531 L 224.617188 241.695313 L 223.136719 240.917969 L 221.632813 240.1875 L 220.105469 239.503906 L 218.558594 238.871094 L 216.992188 238.289063 L 215.40625 237.753906 L 213.804688 237.269531 L 212.191406 236.835938 L 210.5625 236.457031 L 208.925781 236.125 L 207.277344 235.847656 L 205.617188 235.625 L 203.957031 235.453125 L 202.289063 235.332031 L 200.617188 235.265625 L 198.945313 235.253906 L 197.273438 235.292969 L 195.605469 235.386719 L 193.9375 235.53125 L 192.277344 235.730469 L 190.625 235.980469 L 188.980469 236.285156 L 187.347656 236.640625 L 185.726563 237.046875 L 184.117188 237.503906 L 182.523438 238.015625 L 180.949219 238.574219 L 179.390625 239.183594 L 177.855469 239.839844 L 176.339844 240.546875 L 174.847656 241.300781 L 173.378906 242.101563 L 171.9375 242.949219 L 170.527344 243.84375 L 169.140625 244.78125 L 167.785156 245.761719 L 166.464844 246.785156 L 165.175781 247.847656 L 163.917969 248.953125 L 162.699219 250.097656 L 161.519531 251.28125 L 160.375 252.5 L 159.269531 253.753906 L 158.203125 255.042969 L 157.183594 256.367188 L 156.199219 257.71875 L 155.265625 259.105469 L 154.371094 260.519531 L 153.523438 261.960938 L 152.722656 263.425781 L 151.96875 264.917969 L 151.261719 266.433594 L 150.601563 267.972656 L 149.996094 269.527344 L 149.433594 271.105469 L 148.925781 272.695313 L 148.46875 274.304688 L 148.058594 275.925781 L 147.703125 277.558594 L 147.402344 279.203125 L 147.152344 280.859375 L 146.953125 282.519531 L 146.804688 284.183594 L 146.714844 285.851563 L 146.671875 287.523438 L 146.6875 289.195313 L 146.753906 290.867188 L 146.871094 292.535156 L 147.042969 294.199219 L 147.269531 295.855469 L 147.546875 297.503906 L 147.875 299.144531 L 148.257813 300.769531 L 148.691406 302.386719 L 149.175781 303.984375 L 149.707031 305.570313 L 150.292969 307.136719 L 150.925781 308.683594 L 151.609375 310.210938 L 152.339844 311.714844 L 153.117188 313.195313 L 153.941406 314.648438 L 154.8125 316.078125 L 155.726563 317.476563 L 156.6875 318.847656 L 157.6875 320.183594 L 158.730469 321.492188 L 159.816406 322.761719 L 160.941406 324 L 162.105469 325.199219 Z M 236.621094 250.683594 "/>
<path style="fill-rule:nonzero;fill:rgb(0%,0%,0%);fill-opacity:1;stroke-width:2.25;stroke-linecap:round;stroke-linejoin:round;stroke:rgb(0%,0%,0%);stroke-opacity:1;stroke-miterlimit:10;" d="M 236.621094 250.683594 L 235.421875 249.519531 L 234.183594 248.394531 L 232.910156 247.3125 L 231.605469 246.265625 L 230.265625 245.265625 L 228.898438 244.304688 L 227.496094 243.390625 L 226.070313 242.519531 L 224.617188 241.695313 L 223.136719 240.917969 L 221.632813 240.1875 L 220.105469 239.503906 L 218.558594 238.871094 L 216.992188 238.289063 L 215.40625 237.753906 L 213.804688 237.269531 L 212.191406 236.835938 L 210.5625 236.457031 L 208.925781 236.125 L 207.277344 235.847656 L 205.617188 235.625 L 203.957031 235.453125 L 202.289063 235.332031 L 200.617188 235.265625 L 198.945313 235.253906 L 197.273438 235.292969 L 195.605469 235.386719 L 193.9375 235.53125 L 192.277344 235.730469 L 190.625 235.980469 L 188.980469 236.285156 L 187.347656 236.640625 L 185.726563 237.046875 L 184.117188 237.503906 L 182.523438 238.015625 L 180.949219 238.574219 L 179.390625 239.183594 L 177.855469 239.839844 L 176.339844 240.546875 L 174.847656 241.300781 L 173.378906 242.101563 L 171.9375 242.949219 L 170.527344 243.84375 L 169.140625 244.78125 L 167.785156 245.761719 L 166.464844 246.785156 L 165.175781 247.847656 L 163.917969 248.953125 L 162.699219 250.097656 L 161.519531 251.28125 L 160.375 252.5 L 159.269531 253.753906 L 158.203125 255.042969 L 157.183594 256.367188 L 156.199219 257.71875 L 155.265625 259.105469 L 154.371094 260.519531 L 153.523438 261.960938 L 152.722656 263.425781 L 151.96875 264.917969 L 151.261719 266.433594 L 150.601563 267.972656 L 149.996094 269.527344 L 149.433594 271.105469 L 148.925781 272.695313 L 148.46875 274.304688 L 148.058594 275.925781 L 147.703125 277.558594 L 147.402344 279.203125 L 147.152344 280.859375 L 146.953125 282.519531 L 146.804688 284.183594 L 146.714844 285.851563 L 146.671875 287.523438 L 146.6875 289.195313 L 146.753906 290.867188 L 146.871094 292.535156 L 147.042969 294.199219 L 147.269531 295.855469 L 147.546875 297.503906 L 147.875 299.144531 L 148.257813 300.769531 L 148.691406 302.386719 L 149.175781 303.984375 L 149.707031 305.570313 L 150.292969 307.136719 L 150.925781 308.683594 L 151.609375 310.210938 L 152.339844 311.714844 L 153.117188 313.195313 L 153.941406 314.648438 L 154.8125 316.078125 L 155.726563 317.476563 L 156.6875 318.847656 L 157.6875 320.183594 L 158.730469 321.492188 L 159.816406 322.761719 L 160.941406 324 L 162.105469 325.199219 Z M 236.621094 250.683594 "/>
<path style="fill:none;stroke-width:2.25;stroke-linecap:round;stroke-linejoin:round;stroke:rgb(0%,0%,0%);stroke-opacity:1;stroke-miterlimit:10;" d="M 273.878906 287.941406 L 236.621094 223.410156 L 162.105469 223.410156 L 124.847656 287.941406 L 162.105469 352.476563 L 236.621094 352.476563 Z M 273.878906 287.941406 "/>
<path style="fill-rule:nonzero;fill:rgb(100%,100%,100%);fill-opacity:1;stroke-width:2.25;stroke-linecap:round;stroke-linejoin:round;stroke:rgb(0%,0%,0%);stroke-opacity:1;stroke-miterlimit:10;" d="M 522.058594 235.25 L 520.386719 235.277344 L 518.714844 235.355469 L 517.050781 235.488281 L 515.386719 235.675781 L 513.730469 235.914063 L 512.085938 236.203125 L 510.449219 236.546875 L 508.824219 236.941406 L 507.210938 237.386719 L 505.617188 237.882813 L 504.035156 238.429688 L 502.472656 239.027344 L 500.933594 239.671875 L 499.410156 240.367188 L 497.914063 241.109375 L 496.4375 241.898438 L 494.992188 242.734375 L 493.570313 243.617188 L 492.179688 244.542969 L 490.816406 245.511719 L 489.484375 246.523438 L 488.1875 247.578125 L 486.925781 248.671875 L 485.695313 249.808594 L 484.503906 250.980469 L 483.351563 252.191406 L 482.234375 253.4375 L 481.160156 254.71875 L 480.128906 256.03125 L 479.136719 257.378906 L 478.1875 258.753906 L 477.285156 260.164063 L 476.425781 261.597656 L 475.613281 263.058594 L 474.847656 264.542969 L 474.128906 266.054688 L 473.457031 267.585938 L 472.835938 269.136719 L 472.265625 270.707031 L 471.742188 272.296875 L 471.273438 273.902344 L 470.851563 275.519531 L 470.484375 277.152344 L 470.167969 278.792969 L 469.902344 280.445313 L 469.691406 282.101563 L 469.53125 283.765625 L 469.425781 285.433594 L 469.371094 287.105469 L 469.371094 288.777344 L 469.425781 290.449219 L 469.53125 292.117188 L 469.691406 293.78125 L 469.902344 295.441406 L 470.167969 297.09375 L 470.484375 298.734375 L 470.851563 300.363281 L 471.273438 301.984375 L 471.742188 303.585938 L 472.265625 305.175781 L 472.835938 306.746094 L 473.457031 308.300781 L 474.128906 309.832031 L 474.847656 311.339844 L 475.613281 312.828125 L 476.425781 314.289063 L 477.285156 315.722656 L 478.1875 317.128906 L 479.136719 318.507813 L 480.128906 319.851563 L 481.160156 321.167969 L 482.234375 322.449219 L 483.351563 323.695313 L 484.503906 324.902344 L 485.695313 326.078125 L 486.925781 327.210938 L 488.1875 328.304688 L 489.484375 329.359375 L 490.816406 330.375 L 492.179688 331.34375 L 493.570313 332.269531 L 494.992188 333.152344 L 496.4375 333.988281 L 497.914063 334.777344 L 499.410156 335.519531 L 500.933594 336.214844 L 502.472656 336.859375 L 504.035156 337.457031 L 505.617188 338.003906 L 507.210938 338.5 L 508.824219 338.945313 L 510.449219 339.339844 L 512.085938 339.679688 L 513.730469 339.972656 L 515.386719 340.210938 L 517.050781 340.394531 L 518.714844 340.527344 L 520.386719 340.605469 L 522.058594 340.632813 Z M 522.058594 235.25 "/>
<path style="fill-rule:nonzero;fill:rgb(100%,100%,100%);fill-opacity:1;stroke-width:2.25;stroke-linecap:round;stroke-linejoin:round;stroke:rgb(0%,0%,0%);stroke-opacity:1;stroke-miterlimit:10;" d="M 522.058594 235.25 L 520.386719 235.277344 L 518.714844 235.355469 L 517.050781 235.488281 L 515.386719 235.675781 L 513.730469 235.914063 L 512.085938 236.203125 L 510.449219 236.546875 L 508.824219 236.941406 L 507.210938 237.386719 L 505.617188 237.882813 L 504.035156 238.429688 L 502.472656 239.027344 L 500.933594 239.671875 L 499.410156 240.367188 L 497.914063 241.109375 L 496.4375 241.898438 L 494.992188 242.734375 L 493.570313 243.617188 L 492.179688 244.542969 L 490.816406 245.511719 L 489.484375 246.523438 L 488.1875 247.578125 L 486.925781 248.671875 L 485.695313 249.808594 L 484.503906 250.980469 L 483.351563 252.191406 L 482.234375 253.4375 L 481.160156 254.71875 L 480.128906 256.03125 L 479.136719 257.378906 L 478.1875 258.753906 L 477.285156 260.164063 L 476.425781 261.597656 L 475.613281 263.058594 L 474.847656 264.542969 L 474.128906 266.054688 L 473.457031 267.585938 L 472.835938 269.136719 L 472.265625 270.707031 L 471.742188 272.296875 L 471.273438 273.902344 L 470.851563 275.519531 L 470.484375 277.152344 L 470.167969 278.792969 L 469.902344 280.445313 L 469.691406 282.101563 L 469.53125 283.765625 L 469.425781 285.433594 L 469.371094 287.105469 L 469.371094 288.777344 L 469.425781 290.449219 L 469.53125 292.117188 L 469.691406 293.78125 L 469.902344 295.441406 L 470.167969 297.09375 L 470.484375 298.734375 L 470.851563 300.363281 L 471.273438 301.984375 L 471.742188 303.585938 L 472.265625 305.175781 L 472.835938 306.746094 L 473.457031 308.300781 L 474.128906 309.832031 L 474.847656 311.339844 L 475.613281 312.828125 L 476.425781 314.289063 L 477.285156 315.722656 L 478.1875 317.128906 L 479.136719 318.507813 L 480.128906 319.851563 L 481.160156 321.167969 L 482.234375 322.449219 L 483.351563 323.695313 L 484.503906 324.902344 L 485.695313 326.078125 L 486.925781 327.210938 L 488.1875 328.304688 L 489.484375 329.359375 L 490.816406 330.375 L 492.179688 331.34375 L 493.570313 332.269531 L 494.992188 333.152344 L 496.4375 333.988281 L 497.914063 334.777344 L 499.410156 335.519531 L 500.933594 336.214844 L 502.472656 336.859375 L 504.035156 337.457031 L 505.617188 338.003906 L 507.210938 338.5 L 508.824219 338.945313 L 510.449219 339.339844 L 512.085938 339.679688 L 513.730469 339.972656 L 515.386719 340.210938 L 517.050781 340.394531 L 518.714844 340.527344 L 520.386719 340.605469 L 522.058594 340.632813 Z M 522.058594 235.25 "/>
<path style="fill:none;stroke-width:2.25;stroke-linecap:round;stroke-linejoin:round;stroke:rgb(0%,0%,0%);stroke-opacity:1;stroke-miterlimit:10;" d="M 522.058594 235.25 L 520.386719 235.277344 L 518.714844 235.355469 L 517.050781 235.488281 L 515.386719 235.675781 L 513.730469 235.914063 L 512.085938 236.203125 L 510.449219 236.546875 L 508.824219 236.941406 L 507.210938 237.386719 L 505.617188 237.882813 L 504.035156 238.429688 L 502.472656 239.027344 L 500.933594 239.671875 L 499.410156 240.367188 L 497.914063 241.109375 L 496.4375 241.898438 L 494.992188 242.734375 L 493.570313 243.617188 L 492.179688 244.542969 L 490.816406 245.511719 L 489.484375 246.523438 L 488.1875 247.578125 L 486.925781 248.671875 L 485.695313 249.808594 L 484.503906 250.980469 L 483.351563 252.191406 L 482.234375 253.4375 L 481.160156 254.71875 L 480.128906 256.03125 L 479.136719 257.378906 L 478.1875 258.753906 L 477.285156 260.164063 L 476.425781 261.597656 L 475.613281 263.058594 L 474.847656 264.542969 L 474.128906 266.054688 L 473.457031 267.585938 L 472.835938 269.136719 L 472.265625 270.707031 L 471.742188 272.296875 L 471.273438 273.902344 L 470.851563 275.519531 L 470.484375 277.152344 L 470.167969 278.792969 L 469.902344 280.445313 L 469.691406 282.101563 L 469.53125 283.765625 L 469.425781 285.433594 L 469.371094 287.105469 L 469.371094 288.777344 L 469.425781 290.449219 L 469.53125 292.117188 L 469.691406 293.78125 L 469.902344 295.441406 L 470.167969 297.09375 L 470.484375 298.734375 L 470.851563 300.363281 L 471.273438 301.984375 L 471.742188 303.585938 L 472.265625 305.175781 L 472.835938 306.746094 L 473.457031 308.300781 L 474.128906 309.832031 L 474.847656 311.339844 L 475.613281 312.828125 L 476.425781 314.289063 L 477.285156 315.722656 L 478.1875 317.128906 L 479.136719 318.507813 L 480.128906 319.851563 L 481.160156 321.167969 L 482.234375 322.449219 L 483.351563 323.695313 L 484.503906 324.902344 L 485.695313 326.078125 L 486.925781 327.210938 L 488.1875 328.304688 L 489.484375 329.359375 L 490.816406 330.375 L 492.179688 331.34375 L 493.570313 332.269531 L 494.992188 333.152344 L 496.4375 333.988281 L 497.914063 334.777344 L 499.410156 335.519531 L 500.933594 336.214844 L 502.472656 336.859375 L 504.035156 337.457031 L 505.617188 338.003906 L 507.210938 338.5 L 508.824219 338.945313 L 510.449219 339.339844 L 512.085938 339.679688 L 513.730469 339.972656 L 515.386719 340.210938 L 517.050781 340.394531 L 518.714844 340.527344 L 520.386719 340.605469 L 522.058594 340.632813 Z M 522.058594 235.25 "/>
<path style="fill:none;stroke-width:1.5;stroke-linecap:round;stroke-linejoin:round;stroke:rgb(0%,0%,0%);stroke-opacity:1;stroke-miterlimit:10;" d="M 596.574219 287.941406 L 596.425781 283.261719 L 595.988281 278.601563 L 595.253906 273.980469 L 594.234375 269.410156 L 592.925781 264.914063 L 591.339844 260.511719 L 589.480469 256.214844 L 587.355469 252.042969 L 584.972656 248.015625 L 582.34375 244.144531 L 579.472656 240.445313 L 576.378906 236.933594 L 573.066406 233.621094 L 569.554688 230.527344 L 565.855469 227.65625 L 561.984375 225.027344 L 557.957031 222.644531 L 553.785156 220.519531 L 549.488281 218.660156 L 545.085938 217.074219 L 540.589844 215.765625 L 536.019531 214.746094 L 531.398438 214.011719 L 526.738281 213.574219 L 522.058594 213.425781 L 517.378906 213.574219 L 512.71875 214.011719 L 508.09375 214.746094 L 503.527344 215.765625 L 499.03125 217.074219 L 494.625 218.660156 L 490.328125 220.519531 L 486.160156 222.644531 L 482.128906 225.027344 L 478.257813 227.65625 L 474.558594 230.527344 L 471.046875 233.621094 L 467.738281 236.933594 L 464.640625 240.445313 L 461.773438 244.144531 L 459.140625 248.015625 L 456.757813 252.042969 L 454.632813 256.214844 L 452.773438 260.511719 L 451.1875 264.914063 L 449.882813 269.410156 L 448.859375 273.980469 L 448.128906 278.601563 L 447.6875 283.261719 L 447.539063 287.941406 L 447.6875 292.621094 L 448.128906 297.28125 L 448.859375 301.90625 L 449.882813 306.472656 L 451.1875 310.96875 L 452.773438 315.375 L 454.632813 319.671875 L 456.757813 323.839844 L 459.140625 327.871094 L 461.773438 331.742188 L 464.640625 335.441406 L 467.738281 338.953125 L 471.046875 342.261719 L 474.558594 345.359375 L 478.257813 348.226563 L 482.128906 350.859375 L 486.160156 353.242188 L 490.328125 355.367188 L 494.625 357.226563 L 499.03125 358.8125 L 503.527344 360.117188 L 508.09375 361.140625 L 512.71875 361.871094 L 517.378906 362.3125 L 522.058594 362.460938 L 526.738281 362.3125 L 531.398438 361.871094 L 536.019531 361.140625 L 540.589844 360.117188 L 545.085938 358.8125 L 549.488281 357.226563 L 553.785156 355.367188 L 557.957031 353.242188 L 561.984375 350.859375 L 565.855469 348.226563 L 569.554688 345.359375 L 573.066406 342.261719 L 576.378906 338.953125 L 579.472656 335.441406 L 582.34375 331.742188 L 584.972656 327.871094 L 587.355469 323.839844 L 589.480469 319.671875 L 591.339844 315.375 L 592.925781 310.96875 L 594.234375 306.472656 L 595.253906 301.90625 L 595.988281 297.28125 L 596.425781 292.621094 Z M 596.574219 287.941406 "/>
<path style="fill-rule:nonzero;fill:rgb(74.509804%,74.509804%,74.509804%);fill-opacity:1;stroke-width:2.25;stroke-linecap:round;stroke-linejoin:round;stroke:rgb(0%,0%,0%);stroke-opacity:1;stroke-miterlimit:10;" d="M 807.492188 250.683594 L 806.332031 251.886719 L 805.207031 253.121094 L 804.121094 254.394531 L 803.078125 255.699219 L 802.074219 257.039063 L 801.117188 258.410156 L 800.199219 259.808594 L 799.332031 261.234375 L 798.507813 262.691406 L 797.726563 264.171875 L 796.996094 265.675781 L 796.316406 267.199219 L 795.679688 268.746094 L 795.097656 270.3125 L 794.5625 271.898438 L 794.078125 273.5 L 793.644531 275.113281 L 793.265625 276.742188 L 792.933594 278.382813 L 792.660156 280.03125 L 792.433594 281.6875 L 792.261719 283.351563 L 792.140625 285.019531 L 792.074219 286.6875 L 792.0625 288.359375 L 792.101563 290.03125 L 792.195313 291.703125 L 792.339844 293.367188 L 792.539063 295.027344 L 792.789063 296.679688 L 793.09375 298.324219 L 793.449219 299.957031 L 793.855469 301.578125 L 794.316406 303.1875 L 794.824219 304.78125 L 795.382813 306.355469 L 795.992188 307.914063 L 796.648438 309.449219 L 797.355469 310.964844 L 798.109375 312.457031 L 798.914063 313.925781 L 799.761719 315.367188 L 800.652344 316.78125 L 801.589844 318.164063 L 802.570313 319.519531 L 803.59375 320.839844 L 804.65625 322.128906 L 805.761719 323.386719 L 806.90625 324.605469 L 808.089844 325.789063 L 809.308594 326.929688 L 810.5625 328.035156 L 811.851563 329.101563 L 813.175781 330.125 L 814.53125 331.105469 L 815.914063 332.042969 L 817.328125 332.933594 L 818.769531 333.78125 L 820.238281 334.582031 L 821.730469 335.335938 L 823.246094 336.042969 L 824.78125 336.703125 L 826.339844 337.3125 L 827.914063 337.871094 L 829.507813 338.378906 L 831.113281 338.839844 L 832.734375 339.246094 L 834.371094 339.601563 L 836.015625 339.902344 L 837.667969 340.15625 L 839.328125 340.355469 L 840.992188 340.5 L 842.664063 340.59375 L 844.335938 340.632813 L 846.007813 340.617188 L 847.675781 340.550781 L 849.34375 340.433594 L 851.007813 340.261719 L 852.664063 340.035156 L 854.3125 339.757813 L 855.953125 339.429688 L 857.582031 339.046875 L 859.195313 338.617188 L 860.796875 338.132813 L 862.378906 337.597656 L 863.945313 337.011719 L 865.492188 336.378906 L 867.019531 335.695313 L 868.523438 334.964844 L 870.003906 334.1875 L 871.457031 333.363281 L 872.886719 332.492188 L 874.285156 331.578125 L 875.65625 330.621094 L 876.992188 329.617188 L 878.300781 328.574219 L 879.570313 327.488281 L 880.808594 326.363281 L 882.011719 325.199219 L 844.753906 287.941406 Z M 807.492188 250.683594 "/>
<path style="fill-rule:nonzero;fill:rgb(74.509804%,74.509804%,74.509804%);fill-opacity:1;stroke-width:2.25;stroke-linecap:round;stroke-linejoin:round;stroke:rgb(0%,0%,0%);stroke-opacity:1;stroke-miterlimit:10;" d="M 807.492188 250.683594 L 806.332031 251.886719 L 805.207031 253.121094 L 804.121094 254.394531 L 803.078125 255.699219 L 802.074219 257.039063 L 801.117188 258.410156 L 800.199219 259.808594 L 799.332031 261.234375 L 798.507813 262.691406 L 797.726563 264.171875 L 796.996094 265.675781 L 796.316406 267.199219 L 795.679688 268.746094 L 795.097656 270.3125 L 794.5625 271.898438 L 794.078125 273.5 L 793.644531 275.113281 L 793.265625 276.742188 L 792.933594 278.382813 L 792.660156 280.03125 L 792.433594 281.6875 L 792.261719 283.351563 L 792.140625 285.019531 L 792.074219 286.6875 L 792.0625 288.359375 L 792.101563 290.03125 L 792.195313 291.703125 L 792.339844 293.367188 L 792.539063 295.027344 L 792.789063 296.679688 L 793.09375 298.324219 L 793.449219 299.957031 L 793.855469 301.578125 L 794.316406 303.1875 L 794.824219 304.78125 L 795.382813 306.355469 L 795.992188 307.914063 L 796.648438 309.449219 L 797.355469 310.964844 L 798.109375 312.457031 L 798.914063 313.925781 L 799.761719 315.367188 L 800.652344 316.78125 L 801.589844 318.164063 L 802.570313 319.519531 L 803.59375 320.839844 L 804.65625 322.128906 L 805.761719 323.386719 L 806.90625 324.605469 L 808.089844 325.789063 L 809.308594 326.929688 L 810.5625 328.035156 L 811.851563 329.101563 L 813.175781 330.125 L 814.53125 331.105469 L 815.914063 332.042969 L 817.328125 332.933594 L 818.769531 333.78125 L 820.238281 334.582031 L 821.730469 335.335938 L 823.246094 336.042969 L 824.78125 336.703125 L 826.339844 337.3125 L 827.914063 337.871094 L 829.507813 338.378906 L 831.113281 338.839844 L 832.734375 339.246094 L 834.371094 339.601563 L 836.015625 339.902344 L 837.667969 340.15625 L 839.328125 340.355469 L 840.992188 340.5 L 842.664063 340.59375 L 844.335938 340.632813 L 846.007813 340.617188 L 847.675781 340.550781 L 849.34375 340.433594 L 851.007813 340.261719 L 852.664063 340.035156 L 854.3125 339.757813 L 855.953125 339.429688 L 857.582031 339.046875 L 859.195313 338.617188 L 860.796875 338.132813 L 862.378906 337.597656 L 863.945313 337.011719 L 865.492188 336.378906 L 867.019531 335.695313 L 868.523438 334.964844 L 870.003906 334.1875 L 871.457031 333.363281 L 872.886719 332.492188 L 874.285156 331.578125 L 875.65625 330.621094 L 876.992188 329.617188 L 878.300781 328.574219 L 879.570313 327.488281 L 880.808594 326.363281 L 882.011719 325.199219 L 844.753906 287.941406 Z M 807.492188 250.683594 "/>
<path style="fill:none;stroke-width:2.25;stroke-linecap:round;stroke-linejoin:round;stroke:rgb(0%,0%,0%);stroke-opacity:1;stroke-miterlimit:10;" d="M 807.492188 250.683594 L 806.332031 251.886719 L 805.207031 253.121094 L 804.121094 254.394531 L 803.078125 255.699219 L 802.074219 257.039063 L 801.117188 258.410156 L 800.199219 259.808594 L 799.332031 261.234375 L 798.507813 262.691406 L 797.726563 264.171875 L 796.996094 265.675781 L 796.316406 267.199219 L 795.679688 268.746094 L 795.097656 270.3125 L 794.5625 271.898438 L 794.078125 273.5 L 793.644531 275.113281 L 793.265625 276.742188 L 792.933594 278.382813 L 792.660156 280.03125 L 792.433594 281.6875 L 792.261719 283.351563 L 792.140625 285.019531 L 792.074219 286.6875 L 792.0625 288.359375 L 792.101563 290.03125 L 792.195313 291.703125 L 792.339844 293.367188 L 792.539063 295.027344 L 792.789063 296.679688 L 793.09375 298.324219 L 793.449219 299.957031 L 793.855469 301.578125 L 794.316406 303.1875 L 794.824219 304.78125 L 795.382813 306.355469 L 795.992188 307.914063 L 796.648438 309.449219 L 797.355469 310.964844 L 798.109375 312.457031 L 798.914063 313.925781 L 799.761719 315.367188 L 800.652344 316.78125 L 801.589844 318.164063 L 802.570313 319.519531 L 803.59375 320.839844 L 804.65625 322.128906 L 805.761719 323.386719 L 806.90625 324.605469 L 808.089844 325.789063 L 809.308594 326.929688 L 810.5625 328.035156 L 811.851563 329.101563 L 813.175781 330.125 L 814.53125 331.105469 L 815.914063 332.042969 L 817.328125 332.933594 L 818.769531 333.78125 L 820.238281 334.582031 L 821.730469 335.335938 L 823.246094 336.042969 L 824.78125 336.703125 L 826.339844 337.3125 L 827.914063 337.871094 L 829.507813 338.378906 L 831.113281 338.839844 L 832.734375 339.246094 L 834.371094 339.601563 L 836.015625 339.902344 L 837.667969 340.15625 L 839.328125 340.355469 L 840.992188 340.5 L 842.664063 340.59375 L 844.335938 340.632813 L 846.007813 340.617188 L 847.675781 340.550781 L 849.34375 340.433594 L 851.007813 340.261719 L 852.664063 340.035156 L 854.3125 339.757813 L 855.953125 339.429688 L 857.582031 339.046875 L 859.195313 338.617188 L 860.796875 338.132813 L 862.378906 337.597656 L 863.945313 337.011719 L 865.492188 336.378906 L 867.019531 335.695313 L 868.523438 334.964844 L 870.003906 334.1875 L 871.457031 333.363281 L 872.886719 332.492188 L 874.285156 331.578125 L 875.65625 330.621094 L 876.992188 329.617188 L 878.300781 328.574219 L 879.570313 327.488281 L 880.808594 326.363281 L 882.011719 325.199219 L 844.753906 287.941406 Z M 807.492188 250.683594 "/>
<path style="fill:none;stroke-width:2.25;stroke-linecap:round;stroke-linejoin:round;stroke:rgb(0%,0%,0%);stroke-opacity:1;stroke-miterlimit:10;" d="M 904.46875 228.226563 L 785.035156 228.226563 L 785.035156 347.660156 L 904.46875 347.660156 Z M 904.46875 228.226563 "/>
<path style="fill-rule:nonzero;fill:rgb(100%,100%,100%);fill-opacity:1;stroke-width:2.25;stroke-linecap:round;stroke-linejoin:round;stroke:rgb(0%,0%,0%);stroke-opacity:1;stroke-miterlimit:10;" d="M 236.621094 441.378906 L 235.421875 440.214844 L 234.183594 439.089844 L 232.910156 438.003906 L 231.605469 436.960938 L 230.265625 435.960938 L 228.898438 435 L 227.496094 434.085938 L 226.070313 433.214844 L 224.617188 432.390625 L 223.136719 431.613281 L 221.632813 430.882813 L 220.105469 430.199219 L 218.558594 429.566406 L 216.992188 428.980469 L 215.40625 428.449219 L 213.804688 427.964844 L 212.191406 427.53125 L 210.5625 427.148438 L 208.925781 426.820313 L 207.277344 426.542969 L 205.617188 426.316406 L 203.957031 426.144531 L 202.289063 426.027344 L 200.617188 425.960938 L 198.945313 425.945313 L 197.273438 425.988281 L 195.605469 426.078125 L 193.9375 426.226563 L 192.277344 426.425781 L 190.625 426.675781 L 188.980469 426.976563 L 187.347656 427.332031 L 185.726563 427.742188 L 184.117188 428.199219 L 182.523438 428.707031 L 180.949219 429.269531 L 179.390625 429.875 L 177.855469 430.535156 L 176.339844 431.242188 L 174.847656 431.996094 L 173.378906 432.796875 L 171.9375 433.644531 L 170.527344 434.539063 L 169.140625 435.476563 L 167.785156 436.457031 L 166.464844 437.476563 L 165.175781 438.542969 L 163.917969 439.648438 L 162.699219 440.792969 L 161.519531 441.972656 L 160.375 443.195313 L 159.269531 444.449219 L 158.203125 445.738281 L 157.183594 447.058594 L 156.199219 448.414063 L 155.265625 449.800781 L 154.371094 451.210938 L 153.523438 452.652344 L 152.722656 454.121094 L 151.96875 455.613281 L 151.261719 457.128906 L 150.601563 458.664063 L 149.996094 460.222656 L 149.433594 461.796875 L 148.925781 463.390625 L 148.46875 465 L 148.058594 466.621094 L 147.703125 468.253906 L 147.402344 469.898438 L 147.152344 471.550781 L 146.953125 473.210938 L 146.804688 474.878906 L 146.714844 476.546875 L 146.671875 478.21875 L 146.6875 479.890625 L 146.753906 481.5625 L 146.871094 483.230469 L 147.042969 484.890625 L 147.269531 486.550781 L 147.546875 488.199219 L 147.875 489.835938 L 148.257813 491.464844 L 148.691406 493.082031 L 149.175781 494.679688 L 149.707031 496.265625 L 150.292969 497.832031 L 150.925781 499.378906 L 151.609375 500.90625 L 152.339844 502.410156 L 153.117188 503.890625 L 153.941406 505.34375 L 154.8125 506.769531 L 155.726563 508.171875 L 156.6875 509.539063 L 157.6875 510.878906 L 158.730469 512.183594 L 159.816406 513.457031 L 160.941406 514.695313 L 162.105469 515.894531 Z M 236.621094 441.378906 "/>
<path style="fill-rule:nonzero;fill:rgb(100%,100%,100%);fill-opacity:1;stroke-width:2.25;stroke-linecap:round;stroke-linejoin:round;stroke:rgb(0%,0%,0%);stroke-opacity:1;stroke-miterlimit:10;" d="M 236.621094 441.378906 L 235.421875 440.214844 L 234.183594 439.089844 L 232.910156 438.003906 L 231.605469 436.960938 L 230.265625 435.960938 L 228.898438 435 L 227.496094 434.085938 L 226.070313 433.214844 L 224.617188 432.390625 L 223.136719 431.613281 L 221.632813 430.882813 L 220.105469 430.199219 L 218.558594 429.566406 L 216.992188 428.980469 L 215.40625 428.449219 L 213.804688 427.964844 L 212.191406 427.53125 L 210.5625 427.148438 L 208.925781 426.820313 L 207.277344 426.542969 L 205.617188 426.316406 L 203.957031 426.144531 L 202.289063 426.027344 L 200.617188 425.960938 L 198.945313 425.945313 L 197.273438 425.988281 L 195.605469 426.078125 L 193.9375 426.226563 L 192.277344 426.425781 L 190.625 426.675781 L 188.980469 426.976563 L 187.347656 427.332031 L 185.726563 427.742188 L 184.117188 428.199219 L 182.523438 428.707031 L 180.949219 429.269531 L 179.390625 429.875 L 177.855469 430.535156 L 176.339844 431.242188 L 174.847656 431.996094 L 173.378906 432.796875 L 171.9375 433.644531 L 170.527344 434.539063 L 169.140625 435.476563 L 167.785156 436.457031 L 166.464844 437.476563 L 165.175781 438.542969 L 163.917969 439.648438 L 162.699219 440.792969 L 161.519531 441.972656 L 160.375 443.195313 L 159.269531 444.449219 L 158.203125 445.738281 L 157.183594 447.058594 L 156.199219 448.414063 L 155.265625 449.800781 L 154.371094 451.210938 L 153.523438 452.652344 L 152.722656 454.121094 L 151.96875 455.613281 L 151.261719 457.128906 L 150.601563 458.664063 L 149.996094 460.222656 L 149.433594 461.796875 L 148.925781 463.390625 L 148.46875 465 L 148.058594 466.621094 L 147.703125 468.253906 L 147.402344 469.898438 L 147.152344 471.550781 L 146.953125 473.210938 L 146.804688 474.878906 L 146.714844 476.546875 L 146.671875 478.21875 L 146.6875 479.890625 L 146.753906 481.5625 L 146.871094 483.230469 L 147.042969 484.890625 L 147.269531 486.550781 L 147.546875 488.199219 L 147.875 489.835938 L 148.257813 491.464844 L 148.691406 493.082031 L 149.175781 494.679688 L 149.707031 496.265625 L 150.292969 497.832031 L 150.925781 499.378906 L 151.609375 500.90625 L 152.339844 502.410156 L 153.117188 503.890625 L 153.941406 505.34375 L 154.8125 506.769531 L 155.726563 508.171875 L 156.6875 509.539063 L 157.6875 510.878906 L 158.730469 512.183594 L 159.816406 513.457031 L 160.941406 514.695313 L 162.105469 515.894531 Z M 236.621094 441.378906 "/>
<path style="fill:none;stroke-width:2.25;stroke-linecap:round;stroke-linejoin:round;stroke:rgb(0%,0%,0%);stroke-opacity:1;stroke-miterlimit:10;" d="M 236.621094 441.378906 L 235.421875 440.214844 L 234.183594 439.089844 L 232.910156 438.003906 L 231.605469 436.960938 L 230.265625 435.960938 L 228.898438 435 L 227.496094 434.085938 L 226.070313 433.214844 L 224.617188 432.390625 L 223.136719 431.613281 L 221.632813 430.882813 L 220.105469 430.199219 L 218.558594 429.566406 L 216.992188 428.980469 L 215.40625 428.449219 L 213.804688 427.964844 L 212.191406 427.53125 L 210.5625 427.148438 L 208.925781 426.820313 L 207.277344 426.542969 L 205.617188 426.316406 L 203.957031 426.144531 L 202.289063 426.027344 L 200.617188 425.960938 L 198.945313 425.945313 L 197.273438 425.988281 L 195.605469 426.078125 L 193.9375 426.226563 L 192.277344 426.425781 L 190.625 426.675781 L 188.980469 426.976563 L 187.347656 427.332031 L 185.726563 427.742188 L 184.117188 428.199219 L 182.523438 428.707031 L 180.949219 429.269531 L 179.390625 429.875 L 177.855469 430.535156 L 176.339844 431.242188 L 174.847656 431.996094 L 173.378906 432.796875 L 171.9375 433.644531 L 170.527344 434.539063 L 169.140625 435.476563 L 167.785156 436.457031 L 166.464844 437.476563 L 165.175781 438.542969 L 163.917969 439.648438 L 162.699219 440.792969 L 161.519531 441.972656 L 160.375 443.195313 L 159.269531 444.449219 L 158.203125 445.738281 L 157.183594 447.058594 L 156.199219 448.414063 L 155.265625 449.800781 L 154.371094 451.210938 L 153.523438 452.652344 L 152.722656 454.121094 L 151.96875 455.613281 L 151.261719 457.128906 L 150.601563 458.664063 L 149.996094 460.222656 L 149.433594 461.796875 L 148.925781 463.390625 L 148.46875 465 L 148.058594 466.621094 L 147.703125 468.253906 L 147.402344 469.898438 L 147.152344 471.550781 L 146.953125 473.210938 L 146.804688 474.878906 L 146.714844 476.546875 L 146.671875 478.21875 L 146.6875 479.890625 L 146.753906 481.5625 L 146.871094 483.230469 L 147.042969 484.890625 L 147.269531 486.550781 L 147.546875 488.199219 L 147.875 489.835938 L 148.257813 491.464844 L 148.691406 493.082031 L 149.175781 494.679688 L 149.707031 496.265625 L 150.292969 497.832031 L 150.925781 499.378906 L 151.609375 500.90625 L 152.339844 502.410156 L 153.117188 503.890625 L 153.941406 505.34375 L 154.8125 506.769531 L 155.726563 508.171875 L 156.6875 509.539063 L 157.6875 510.878906 L 158.730469 512.183594 L 159.816406 513.457031 L 160.941406 514.695313 L 162.105469 515.894531 Z M 236.621094 441.378906 "/>
<path style="fill:none;stroke-width:1.5;stroke-linecap:round;stroke-linejoin:round;stroke:rgb(0%,0%,0%);stroke-opacity:1;stroke-miterlimit:10;" d="M 273.878906 478.636719 L 273.734375 473.957031 L 273.292969 469.296875 L 272.558594 464.671875 L 271.539063 460.105469 L 270.234375 455.609375 L 268.648438 451.207031 L 266.789063 446.910156 L 264.664063 442.738281 L 262.28125 438.707031 L 259.648438 434.835938 L 256.777344 431.136719 L 253.683594 427.625 L 250.375 424.316406 L 246.863281 421.222656 L 243.164063 418.351563 L 239.292969 415.71875 L 235.261719 413.335938 L 231.089844 411.210938 L 226.792969 409.351563 L 222.390625 407.765625 L 217.894531 406.460938 L 213.328125 405.441406 L 208.703125 404.707031 L 204.042969 404.265625 L 199.363281 404.121094 L 194.683594 404.265625 L 190.023438 404.707031 L 185.398438 405.441406 L 180.832031 406.460938 L 176.335938 407.765625 L 171.933594 409.351563 L 167.636719 411.210938 L 163.464844 413.335938 L 159.433594 415.71875 L 155.5625 418.351563 L 151.863281 421.222656 L 148.351563 424.316406 L 145.042969 427.625 L 141.945313 431.136719 L 139.078125 434.835938 L 136.445313 438.707031 L 134.0625 442.738281 L 131.9375 446.910156 L 130.078125 451.207031 L 128.492188 455.609375 L 127.1875 460.105469 L 126.167969 464.671875 L 125.433594 469.296875 L 124.992188 473.957031 L 124.847656 478.636719 L 124.992188 483.316406 L 125.433594 487.976563 L 126.167969 492.601563 L 127.1875 497.167969 L 128.492188 501.664063 L 130.078125 506.066406 L 131.9375 510.363281 L 134.0625 514.535156 L 136.445313 518.566406 L 139.078125 522.4375 L 141.945313 526.136719 L 145.042969 529.648438 L 148.351563 532.957031 L 151.863281 536.054688 L 155.5625 538.921875 L 159.433594 541.554688 L 163.464844 543.9375 L 167.636719 546.0625 L 171.933594 547.921875 L 176.335938 549.507813 L 180.832031 550.8125 L 185.398438 551.832031 L 190.023438 552.566406 L 194.683594 553.007813 L 199.363281 553.152344 L 204.042969 553.007813 L 208.703125 552.566406 L 213.328125 551.832031 L 217.894531 550.8125 L 222.390625 549.507813 L 226.792969 547.921875 L 231.089844 546.0625 L 235.261719 543.9375 L 239.292969 541.554688 L 243.164063 538.921875 L 246.863281 536.054688 L 250.375 532.957031 L 253.683594 529.648438 L 256.777344 526.136719 L 259.648438 522.4375 L 262.28125 518.566406 L 264.664063 514.535156 L 266.789063 510.363281 L 268.648438 506.066406 L 270.234375 501.664063 L 271.539063 497.167969 L 272.558594 492.601563 L 273.292969 487.976563 L 273.734375 483.316406 Z M 273.878906 478.636719 "/>
<path style="fill-rule:nonzero;fill:rgb(74.509804%,74.509804%,74.509804%);fill-opacity:1;stroke-width:2.25;stroke-linecap:round;stroke-linejoin:round;stroke:rgb(0%,0%,0%);stroke-opacity:1;stroke-miterlimit:10;" d="M 522.058594 425.945313 L 520.386719 425.972656 L 518.714844 426.050781 L 517.050781 426.183594 L 515.386719 426.371094 L 513.730469 426.605469 L 512.085938 426.898438 L 510.449219 427.238281 L 508.824219 427.632813 L 507.210938 428.078125 L 505.617188 428.578125 L 504.035156 429.125 L 502.472656 429.71875 L 500.933594 430.367188 L 499.410156 431.058594 L 497.914063 431.804688 L 496.4375 432.59375 L 494.992188 433.429688 L 493.570313 434.308594 L 492.179688 435.234375 L 490.816406 436.207031 L 489.484375 437.21875 L 488.1875 438.273438 L 486.925781 439.367188 L 485.695313 440.503906 L 484.503906 441.675781 L 483.351563 442.886719 L 482.234375 444.132813 L 481.160156 445.414063 L 480.128906 446.726563 L 479.136719 448.074219 L 478.1875 449.449219 L 477.285156 450.855469 L 476.425781 452.292969 L 475.613281 453.753906 L 474.847656 455.238281 L 474.128906 456.75 L 473.457031 458.28125 L 472.835938 459.832031 L 472.265625 461.402344 L 471.742188 462.992188 L 471.273438 464.597656 L 470.851563 466.214844 L 470.484375 467.84375 L 470.167969 469.488281 L 469.902344 471.136719 L 469.691406 472.796875 L 469.53125 474.460938 L 469.425781 476.128906 L 469.371094 477.800781 L 469.371094 479.472656 L 469.425781 481.144531 L 469.53125 482.8125 L 469.691406 484.476563 L 469.902344 486.136719 L 470.167969 487.785156 L 470.484375 489.429688 L 470.851563 491.058594 L 471.273438 492.675781 L 471.742188 494.28125 L 472.265625 495.871094 L 472.835938 497.441406 L 473.457031 498.992188 L 474.128906 500.527344 L 474.847656 502.035156 L 475.613281 503.519531 L 476.425781 504.980469 L 477.285156 506.417969 L 478.1875 507.824219 L 479.136719 509.199219 L 480.128906 510.546875 L 481.160156 511.863281 L 482.234375 513.140625 L 483.351563 514.386719 L 484.503906 515.597656 L 485.695313 516.769531 L 486.925781 517.90625 L 488.1875 519 L 489.484375 520.054688 L 490.816406 521.066406 L 492.179688 522.039063 L 493.570313 522.964844 L 494.992188 523.84375 L 496.4375 524.679688 L 497.914063 525.46875 L 499.410156 526.214844 L 500.933594 526.90625 L 502.472656 527.554688 L 504.035156 528.148438 L 505.617188 528.695313 L 507.210938 529.195313 L 508.824219 529.640625 L 510.449219 530.035156 L 512.085938 530.375 L 513.730469 530.667969 L 515.386719 530.902344 L 517.050781 531.089844 L 518.714844 531.222656 L 520.386719 531.300781 L 522.058594 531.328125 Z M 522.058594 425.945313 "/>
<path style="fill-rule:nonzero;fill:rgb(74.509804%,74.509804%,74.509804%);fill-opacity:1;stroke-width:2.25;stroke-linecap:round;stroke-linejoin:round;stroke:rgb(0%,0%,0%);stroke-opacity:1;stroke-miterlimit:10;" d="M 522.058594 425.945313 L 520.386719 425.972656 L 518.714844 426.050781 L 517.050781 426.183594 L 515.386719 426.371094 L 513.730469 426.605469 L 512.085938 426.898438 L 510.449219 427.238281 L 508.824219 427.632813 L 507.210938 428.078125 L 505.617188 428.578125 L 504.035156 429.125 L 502.472656 429.71875 L 500.933594 430.367188 L 499.410156 431.058594 L 497.914063 431.804688 L 496.4375 432.59375 L 494.992188 433.429688 L 493.570313 434.308594 L 492.179688 435.234375 L 490.816406 436.207031 L 489.484375 437.21875 L 488.1875 438.273438 L 486.925781 439.367188 L 485.695313 440.503906 L 484.503906 441.675781 L 483.351563 442.886719 L 482.234375 444.132813 L 481.160156 445.414063 L 480.128906 446.726563 L 479.136719 448.074219 L 478.1875 449.449219 L 477.285156 450.855469 L 476.425781 452.292969 L 475.613281 453.753906 L 474.847656 455.238281 L 474.128906 456.75 L 473.457031 458.28125 L 472.835938 459.832031 L 472.265625 461.402344 L 471.742188 462.992188 L 471.273438 464.597656 L 470.851563 466.214844 L 470.484375 467.84375 L 470.167969 469.488281 L 469.902344 471.136719 L 469.691406 472.796875 L 469.53125 474.460938 L 469.425781 476.128906 L 469.371094 477.800781 L 469.371094 479.472656 L 469.425781 481.144531 L 469.53125 482.8125 L 469.691406 484.476563 L 469.902344 486.136719 L 470.167969 487.785156 L 470.484375 489.429688 L 470.851563 491.058594 L 471.273438 492.675781 L 471.742188 494.28125 L 472.265625 495.871094 L 472.835938 497.441406 L 473.457031 498.992188 L 474.128906 500.527344 L 474.847656 502.035156 L 475.613281 503.519531 L 476.425781 504.980469 L 477.285156 506.417969 L 478.1875 507.824219 L 479.136719 509.199219 L 480.128906 510.546875 L 481.160156 511.863281 L 482.234375 513.140625 L 483.351563 514.386719 L 484.503906 515.597656 L 485.695313 516.769531 L 486.925781 517.90625 L 488.1875 519 L 489.484375 520.054688 L 490.816406 521.066406 L 492.179688 522.039063 L 493.570313 522.964844 L 494.992188 523.84375 L 496.4375 524.679688 L 497.914063 525.46875 L 499.410156 526.214844 L 500.933594 526.90625 L 502.472656 527.554688 L 504.035156 528.148438 L 505.617188 528.695313 L 507.210938 529.195313 L 508.824219 529.640625 L 510.449219 530.035156 L 512.085938 530.375 L 513.730469 530.667969 L 515.386719 530.902344 L 517.050781 531.089844 L 518.714844 531.222656 L 520.386719 531.300781 L 522.058594 531.328125 Z M 522.058594 425.945313 "/>
<path style="fill:none;stroke-width:2.25;stroke-linecap:round;stroke-linejoin:round;stroke:rgb(0%,0%,0%);stroke-opacity:1;stroke-miterlimit:10;" d="M 522.058594 425.945313 L 520.386719 425.972656 L 518.714844 426.050781 L 517.050781 426.183594 L 515.386719 426.371094 L 513.730469 426.605469 L 512.085938 426.898438 L 510.449219 427.238281 L 508.824219 427.632813 L 507.210938 428.078125 L 505.617188 428.578125 L 504.035156 429.125 L 502.472656 429.71875 L 500.933594 430.367188 L 499.410156 431.058594 L 497.914063 431.804688 L 496.4375 432.59375 L 494.992188 433.429688 L 493.570313 434.308594 L 492.179688 435.234375 L 490.816406 436.207031 L 489.484375 437.21875 L 488.1875 438.273438 L 486.925781 439.367188 L 485.695313 440.503906 L 484.503906 441.675781 L 483.351563 442.886719 L 482.234375 444.132813 L 481.160156 445.414063 L 480.128906 446.726563 L 479.136719 448.074219 L 478.1875 449.449219 L 477.285156 450.855469 L 476.425781 452.292969 L 475.613281 453.753906 L 474.847656 455.238281 L 474.128906 456.75 L 473.457031 458.28125 L 472.835938 459.832031 L 472.265625 461.402344 L 471.742188 462.992188 L 471.273438 464.597656 L 470.851563 466.214844 L 470.484375 467.84375 L 470.167969 469.488281 L 469.902344 471.136719 L 469.691406 472.796875 L 469.53125 474.460938 L 469.425781 476.128906 L 469.371094 477.800781 L 469.371094 479.472656 L 469.425781 481.144531 L 469.53125 482.8125 L 469.691406 484.476563 L 469.902344 486.136719 L 470.167969 487.785156 L 470.484375 489.429688 L 470.851563 491.058594 L 471.273438 492.675781 L 471.742188 494.28125 L 472.265625 495.871094 L 472.835938 497.441406 L 473.457031 498.992188 L 474.128906 500.527344 L 474.847656 502.035156 L 475.613281 503.519531 L 476.425781 504.980469 L 477.285156 506.417969 L 478.1875 507.824219 L 479.136719 509.199219 L 480.128906 510.546875 L 481.160156 511.863281 L 482.234375 513.140625 L 483.351563 514.386719 L 484.503906 515.597656 L 485.695313 516.769531 L 486.925781 517.90625 L 488.1875 519 L 489.484375 520.054688 L 490.816406 521.066406 L 492.179688 522.039063 L 493.570313 522.964844 L 494.992188 523.84375 L 496.4375 524.679688 L 497.914063 525.46875 L 499.410156 526.214844 L 500.933594 526.90625 L 502.472656 527.554688 L 504.035156 528.148438 L 505.617188 528.695313 L 507.210938 529.195313 L 508.824219 529.640625 L 510.449219 530.035156 L 512.085938 530.375 L 513.730469 530.667969 L 515.386719 530.902344 L 517.050781 531.089844 L 518.714844 531.222656 L 520.386719 531.300781 L 522.058594 531.328125 Z M 522.058594 425.945313 "/>
<path style="fill:none;stroke-width:2.25;stroke-linecap:round;stroke-linejoin:round;stroke:rgb(0%,0%,0%);stroke-opacity:1;stroke-miterlimit:10;" d="M 581.773438 418.921875 L 462.339844 418.921875 L 462.339844 538.355469 L 581.773438 538.355469 Z M 581.773438 418.921875 "/>
</g>
</svg>
