<?xml version="1.0" encoding="UTF-8"?>
<svg xmlns="http://www.w3.org/2000/svg" xmlns:xlink="http://www.w3.org/1999/xlink" width="504pt" height="504pt" viewBox="0 0 504 504" version="1.1">
<defs>
<clipPath id="clip1">
  <path d="M 50 166.097656 L 180 166.097656 L 180 290 L 50 290 Z M 50 166.097656 "/>
</clipPath>
<clipPath id="clip2">
  <path d="M 360 166.097656 L 490 166.097656 L 490 290 L 360 290 Z M 360 166.097656 "/>
</clipPath>
<clipPath id="clip3">
  <path d="M 50 320.792969 L 180 320.792969 L 180 444 L 50 444 Z M 50 320.792969 "/>
</clipPath>
</defs>
<g id="surface41">
<rect x="0" y="0" width="504" height="504" style="fill:rgb(100%,100%,100%);fill-opacity:1;stroke:none;"/>
<path style="fill:none;stroke-width:2.25;stroke-linecap:round;stroke-linejoin:round;stroke:rgb(0%,0%,0%);stroke-opacity:1;stroke-miterlimit:10;" d="M 115.363281 20.355469 L 59.355469 61.050781 L 80.746094 126.890625 L 149.980469 126.890625 L 171.371094 61.050781 L 115.363281 20.355469 "/>
<path style="fill:none;stroke-width:2.25;stroke-linecap:round;stroke-linejoin:round;stroke:rgb(0%,0%,0%);stroke-opacity:1;stroke-dasharray:9,9;stroke-miterlimit:10;" d="M 95.734375 59.617188 L 134.992188 59.617188 L 95.734375 59.617188 "/>
<path style="fill:none;stroke-width:2.25;stroke-linecap:round;stroke-linejoin:round;stroke:rgb(0%,0%,0%);stroke-opacity:1;stroke-dasharray:9,9;stroke-miterlimit:10;" d="M 95.734375 98.878906 L 134.992188 98.878906 L 95.734375 98.878906 "/>
<path style="fill:none;stroke-width:2.25;stroke-linecap:round;stroke-linejoin:round;stroke:rgb(0%,0%,0%);stroke-opacity:1;stroke-dasharray:9,9;stroke-miterlimit:10;" d="M 95.734375 98.878906 L 95.734375 59.617188 L 95.734375 98.878906 "/>
<path style="fill:none;stroke-width:2.25;stroke-linecap:round;stroke-linejoin:round;stroke:rgb(0%,0%,0%);stroke-opacity:1;stroke-dasharray:2.25,6.75;stroke-miterlimit:10;" d="M 270.058594 28.207031 L 221.515625 63.476563 L 240.058594 120.539063 L 300.058594 120.539063 L 318.597656 63.476563 L 270.058594 28.207031 "/>
<path style="fill:none;stroke-width:2.25;stroke-linecap:round;stroke-linejoin:round;stroke:rgb(0%,0%,0%);stroke-opacity:1;stroke-dasharray:9,9;stroke-miterlimit:10;" d="M 250.425781 59.617188 L 289.6875 59.617188 L 250.425781 59.617188 "/>
<path style="fill:none;stroke-width:2.25;stroke-linecap:round;stroke-linejoin:round;stroke:rgb(0%,0%,0%);stroke-opacity:1;stroke-dasharray:9,9;stroke-miterlimit:10;" d="M 250.425781 98.878906 L 289.6875 98.878906 L 250.425781 98.878906 "/>
<path style="fill:none;stroke-width:2.25;stroke-linecap:round;stroke-linejoin:round;stroke:rgb(0%,0%,0%);stroke-opacity:1;stroke-dasharray:9,9;stroke-miterlimit:10;" d="M 289.6875 98.878906 L 289.6875 59.617188 L 289.6875 98.878906 "/>
<path style="fill:none;stroke-width:2.25;stroke-linecap:round;stroke-linejoin:round;stroke:rgb(0%,0%,0%);stroke-opacity:1;stroke-miterlimit:10;" d="M 424.753906 20.355469 L 368.742188 61.050781 L 390.136719 126.890625 L 459.367188 126.890625 L 480.761719 61.050781 L 424.753906 20.355469 "/>
<path style="fill:none;stroke-width:2.25;stroke-linecap:round;stroke-linejoin:round;stroke:rgb(0%,0%,0%);stroke-opacity:1;stroke-dasharray:2.25,6.75;stroke-miterlimit:10;" d="M 424.753906 28.207031 L 376.210938 63.476563 L 394.75 120.539063 L 454.753906 120.539063 L 473.292969 63.476563 L 424.753906 28.207031 "/>
<path style="fill:none;stroke-width:2.25;stroke-linecap:round;stroke-linejoin:round;stroke:rgb(0%,0%,0%);stroke-opacity:1;stroke-dasharray:9,9;stroke-miterlimit:10;" d="M 405.121094 59.617188 L 444.382813 59.617188 L 405.121094 59.617188 "/>
<path style="fill:none;stroke-width:2.25;stroke-linecap:round;stroke-linejoin:round;stroke:rgb(0%,0%,0%);stroke-opacity:1;stroke-dasharray:9,9;stroke-miterlimit:10;" d="M 405.121094 98.878906 L 444.382813 98.878906 L 405.121094 98.878906 "/>
<g clip-path="url(#clip1)" clip-rule="nonzero">
<path style="fill:none;stroke-width:2.25;stroke-linecap:round;stroke-linejoin:round;stroke:rgb(0%,0%,0%);stroke-opacity:1;stroke-miterlimit:10;" d="M 115.363281 167.199219 L 51.886719 213.316406 L 76.132813 287.9375 L 154.59375 287.9375 L 178.839844 213.316406 L 115.363281 167.199219 "/>
</g>
<path style="fill:none;stroke-width:2.25;stroke-linecap:round;stroke-linejoin:round;stroke:rgb(0%,0%,0%);stroke-opacity:1;stroke-dasharray:9,9;stroke-miterlimit:10;" d="M 95.734375 214.3125 L 134.992188 214.3125 L 95.734375 214.3125 "/>
<path style="fill:none;stroke-width:2.25;stroke-linecap:round;stroke-linejoin:round;stroke:rgb(0%,0%,0%);stroke-opacity:1;stroke-dasharray:9,9;stroke-miterlimit:10;" d="M 134.992188 253.574219 L 134.992188 214.3125 L 134.992188 253.574219 "/>
<path style="fill:none;stroke-width:2.25;stroke-linecap:round;stroke-linejoin:round;stroke:rgb(0%,0%,0%);stroke-opacity:1;stroke-dasharray:9,9;stroke-miterlimit:10;" d="M 95.734375 253.574219 L 95.734375 214.3125 L 95.734375 253.574219 "/>
<path style="fill-rule:nonzero;fill:rgb(0%,0%,0%);fill-opacity:1;stroke-width:0.75;stroke-linecap:round;stroke-linejoin:round;stroke:rgb(0%,0%,0%);stroke-opacity:1;stroke-miterlimit:10;" d="M 313.246094 182.902344 L 313.261719 183.394531 L 313.308594 183.886719 L 313.382813 184.375 L 313.492188 184.855469 L 313.628906 185.328125 L 313.796875 185.792969 L 313.992188 186.246094 L 314.214844 186.6875 L 314.46875 187.109375 L 314.746094 187.519531 L 315.046875 187.90625 L 315.371094 188.277344 L 315.722656 188.628906 L 316.09375 188.953125 L 316.480469 189.253906 L 316.890625 189.53125 L 317.3125 189.785156 L 317.753906 190.007813 L 318.207031 190.203125 L 318.671875 190.371094 L 319.144531 190.507813 L 319.625 190.617188 L 320.113281 190.691406 L 320.605469 190.738281 L 321.097656 190.753906 L 321.589844 190.738281 L 322.082031 190.691406 L 322.570313 190.617188 L 323.050781 190.507813 L 323.523438 190.371094 L 323.988281 190.203125 L 324.441406 190.007813 L 324.878906 189.785156 L 325.304688 189.53125 L 325.710938 189.253906 L 326.101563 188.953125 L 326.472656 188.628906 L 326.820313 188.277344 L 327.148438 187.90625 L 327.449219 187.519531 L 327.726563 187.109375 L 327.976563 186.6875 L 328.203125 186.246094 L 328.398438 185.792969 L 328.566406 185.328125 L 328.703125 184.855469 L 328.808594 184.375 L 328.886719 183.886719 L 328.933594 183.394531 L 328.949219 182.902344 L 328.933594 182.410156 L 328.886719 181.917969 L 328.808594 181.429688 L 328.703125 180.949219 L 328.566406 180.476563 L 328.398438 180.011719 L 328.203125 179.558594 L 327.976563 179.121094 L 327.726563 178.695313 L 327.449219 178.289063 L 327.148438 177.898438 L 326.820313 177.527344 L 326.472656 177.179688 L 326.101563 176.851563 L 325.710938 176.550781 L 325.304688 176.273438 L 324.878906 176.023438 L 324.441406 175.796875 L 323.988281 175.601563 L 323.523438 175.433594 L 323.050781 175.296875 L 322.570313 175.191406 L 322.082031 175.113281 L 321.589844 175.066406 L 321.097656 175.050781 L 320.605469 175.066406 L 320.113281 175.113281 L 319.625 175.191406 L 319.144531 175.296875 L 318.671875 175.433594 L 318.207031 175.601563 L 317.753906 175.796875 L 317.3125 176.023438 L 316.890625 176.273438 L 316.480469 176.550781 L 316.09375 176.851563 L 315.722656 177.179688 L 315.371094 177.527344 L 315.046875 177.898438 L 314.746094 178.289063 L 314.46875 178.695313 L 314.214844 179.121094 L 313.992188 179.558594 L 313.796875 180.011719 L 313.628906 180.476563 L 313.492188 180.949219 L 313.382813 181.429688 L 313.308594 181.917969 L 313.261719 182.410156 Z M 313.246094 182.902344 "/>
<path style="fill-rule:nonzero;fill:rgb(0%,0%,0%);fill-opacity:1;stroke-width:0.75;stroke-linecap:round;stroke-linejoin:round;stroke:rgb(0%,0%,0%);stroke-opacity:1;stroke-miterlimit:10;" d="M 211.164063 182.902344 L 211.179688 183.394531 L 211.226563 183.886719 L 211.304688 184.375 L 211.414063 184.855469 L 211.550781 185.328125 L 211.71875 185.792969 L 211.914063 186.246094 L 212.136719 186.6875 L 212.386719 187.109375 L 212.664063 187.519531 L 212.96875 187.90625 L 213.292969 188.277344 L 213.644531 188.628906 L 214.011719 188.953125 L 214.402344 189.253906 L 214.8125 189.53125 L 215.234375 189.785156 L 215.675781 190.007813 L 216.128906 190.203125 L 216.589844 190.371094 L 217.066406 190.507813 L 217.546875 190.617188 L 218.035156 190.691406 L 218.523438 190.738281 L 219.019531 190.753906 L 219.511719 190.738281 L 220.003906 190.691406 L 220.488281 190.617188 L 220.972656 190.507813 L 221.445313 190.371094 L 221.910156 190.203125 L 222.363281 190.007813 L 222.800781 189.785156 L 223.226563 189.53125 L 223.632813 189.253906 L 224.023438 188.953125 L 224.394531 188.628906 L 224.742188 188.277344 L 225.070313 187.90625 L 225.371094 187.519531 L 225.648438 187.109375 L 225.898438 186.6875 L 226.125 186.246094 L 226.320313 185.792969 L 226.484375 185.328125 L 226.625 184.855469 L 226.730469 184.375 L 226.808594 183.886719 L 226.855469 183.394531 L 226.871094 182.902344 L 226.855469 182.410156 L 226.808594 181.917969 L 226.730469 181.429688 L 226.625 180.949219 L 226.484375 180.476563 L 226.320313 180.011719 L 226.125 179.558594 L 225.898438 179.121094 L 225.648438 178.695313 L 225.371094 178.289063 L 225.070313 177.898438 L 224.742188 177.527344 L 224.394531 177.179688 L 224.023438 176.851563 L 223.632813 176.550781 L 223.226563 176.273438 L 222.800781 176.023438 L 222.363281 175.796875 L 221.910156 175.601563 L 221.445313 175.433594 L 220.972656 175.296875 L 220.488281 175.191406 L 220.003906 175.113281 L 219.511719 175.066406 L 219.019531 175.050781 L 218.523438 175.066406 L 218.035156 175.113281 L 217.546875 175.191406 L 217.066406 175.296875 L 216.589844 175.433594 L 216.128906 175.601563 L 215.675781 175.796875 L 215.234375 176.023438 L 214.8125 176.273438 L 214.402344 176.550781 L 214.011719 176.851563 L 213.644531 177.179688 L 213.292969 177.527344 L 212.96875 177.898438 L 212.664063 178.289063 L 212.386719 178.695313 L 212.136719 179.121094 L 211.914063 179.558594 L 211.71875 180.011719 L 211.550781 180.476563 L 211.414063 180.949219 L 211.304688 181.429688 L 211.226563 181.917969 L 211.179688 182.410156 Z M 211.164063 182.902344 "/>
<path style="fill-rule:nonzero;fill:rgb(0%,0%,0%);fill-opacity:1;stroke-width:0.75;stroke-linecap:round;stroke-linejoin:round;stroke:rgb(0%,0%,0%);stroke-opacity:1;stroke-miterlimit:10;" d="M 313.246094 284.980469 L 313.261719 285.476563 L 313.308594 285.964844 L 313.382813 286.453125 L 313.492188 286.933594 L 313.628906 287.410156 L 313.796875 287.871094 L 313.992188 288.324219 L 314.214844 288.765625 L 314.46875 289.1875 L 314.746094 289.597656 L 315.046875 289.988281 L 315.371094 290.355469 L 315.722656 290.707031 L 316.09375 291.03125 L 316.480469 291.335938 L 316.890625 291.613281 L 317.3125 291.863281 L 317.753906 292.085938 L 318.207031 292.28125 L 318.671875 292.449219 L 319.144531 292.585938 L 319.625 292.695313 L 320.113281 292.773438 L 320.605469 292.820313 L 321.097656 292.835938 L 321.589844 292.820313 L 322.082031 292.773438 L 322.570313 292.695313 L 323.050781 292.585938 L 323.523438 292.449219 L 323.988281 292.28125 L 324.441406 292.085938 L 324.878906 291.863281 L 325.304688 291.613281 L 325.710938 291.335938 L 326.101563 291.03125 L 326.472656 290.707031 L 326.820313 290.355469 L 327.148438 289.988281 L 327.449219 289.597656 L 327.726563 289.1875 L 327.976563 288.765625 L 328.203125 288.324219 L 328.398438 287.871094 L 328.566406 287.410156 L 328.703125 286.933594 L 328.808594 286.453125 L 328.886719 285.964844 L 328.933594 285.476563 L 328.949219 284.980469 L 328.933594 284.488281 L 328.886719 283.996094 L 328.808594 283.511719 L 328.703125 283.027344 L 328.566406 282.554688 L 328.398438 282.089844 L 328.203125 281.636719 L 327.976563 281.199219 L 327.726563 280.773438 L 327.449219 280.367188 L 327.148438 279.976563 L 326.820313 279.605469 L 326.472656 279.257813 L 326.101563 278.929688 L 325.710938 278.628906 L 325.304688 278.351563 L 324.878906 278.101563 L 324.441406 277.875 L 323.988281 277.679688 L 323.523438 277.515625 L 323.050781 277.375 L 322.570313 277.269531 L 322.082031 277.191406 L 321.589844 277.144531 L 321.097656 277.128906 L 320.605469 277.144531 L 320.113281 277.191406 L 319.625 277.269531 L 319.144531 277.375 L 318.671875 277.515625 L 318.207031 277.679688 L 317.753906 277.875 L 317.3125 278.101563 L 316.890625 278.351563 L 316.480469 278.628906 L 316.09375 278.929688 L 315.722656 279.257813 L 315.371094 279.605469 L 315.046875 279.976563 L 314.746094 280.367188 L 314.46875 280.773438 L 314.214844 281.199219 L 313.992188 281.636719 L 313.796875 282.089844 L 313.628906 282.554688 L 313.492188 283.027344 L 313.382813 283.511719 L 313.308594 283.996094 L 313.261719 284.488281 Z M 313.246094 284.980469 "/>
<path style="fill-rule:nonzero;fill:rgb(0%,0%,0%);fill-opacity:1;stroke-width:0.75;stroke-linecap:round;stroke-linejoin:round;stroke:rgb(0%,0%,0%);stroke-opacity:1;stroke-miterlimit:10;" d="M 211.164063 284.980469 L 211.179688 285.476563 L 211.226563 285.964844 L 211.304688 286.453125 L 211.414063 286.933594 L 211.550781 287.410156 L 211.71875 287.871094 L 211.914063 288.324219 L 212.136719 288.765625 L 212.386719 289.1875 L 212.664063 289.597656 L 212.96875 289.988281 L 213.292969 290.355469 L 213.644531 290.707031 L 214.011719 291.03125 L 214.402344 291.335938 L 214.8125 291.613281 L 215.234375 291.863281 L 215.675781 292.085938 L 216.128906 292.28125 L 216.589844 292.449219 L 217.066406 292.585938 L 217.546875 292.695313 L 218.035156 292.773438 L 218.523438 292.820313 L 219.019531 292.835938 L 219.511719 292.820313 L 220.003906 292.773438 L 220.488281 292.695313 L 220.972656 292.585938 L 221.445313 292.449219 L 221.910156 292.28125 L 222.363281 292.085938 L 222.800781 291.863281 L 223.226563 291.613281 L 223.632813 291.335938 L 224.023438 291.03125 L 224.394531 290.707031 L 224.742188 290.355469 L 225.070313 289.988281 L 225.371094 289.597656 L 225.648438 289.1875 L 225.898438 288.765625 L 226.125 288.324219 L 226.320313 287.871094 L 226.484375 287.410156 L 226.625 286.933594 L 226.730469 286.453125 L 226.808594 285.964844 L 226.855469 285.476563 L 226.871094 284.980469 L 226.855469 284.488281 L 226.808594 283.996094 L 226.730469 283.511719 L 226.625 283.027344 L 226.484375 282.554688 L 226.320313 282.089844 L 226.125 281.636719 L 225.898438 281.199219 L 225.648438 280.773438 L 225.371094 280.367188 L 225.070313 279.976563 L 224.742188 279.605469 L 224.394531 279.257813 L 224.023438 278.929688 L 223.632813 278.628906 L 223.226563 278.351563 L 222.800781 278.101563 L 222.363281 277.875 L 221.910156 277.679688 L 221.445313 277.515625 L 220.972656 277.375 L 220.488281 277.269531 L 220.003906 277.191406 L 219.511719 277.144531 L 219.019531 277.128906 L 218.523438 277.144531 L 218.035156 277.191406 L 217.546875 277.269531 L 217.066406 277.375 L 216.589844 277.515625 L 216.128906 277.679688 L 215.675781 277.875 L 215.234375 278.101563 L 214.8125 278.351563 L 214.402344 278.628906 L 214.011719 278.929688 L 213.644531 279.257813 L 213.292969 279.605469 L 212.96875 279.976563 L 212.664063 280.367188 L 212.386719 280.773438 L 212.136719 281.199219 L 211.914063 281.636719 L 211.71875 282.089844 L 211.550781 282.554688 L 211.414063 283.027344 L 211.304688 283.511719 L 211.226563 283.996094 L 211.179688 284.488281 Z M 211.164063 284.980469 "/>
<path style="fill:none;stroke-width:2.25;stroke-linecap:round;stroke-linejoin:round;stroke:rgb(0%,0%,0%);stroke-opacity:1;stroke-dasharray:9,9;stroke-miterlimit:10;" d="M 250.425781 214.3125 L 289.6875 214.3125 L 250.425781 214.3125 "/>
<path style="fill:none;stroke-width:2.25;stroke-linecap:round;stroke-linejoin:round;stroke:rgb(0%,0%,0%);stroke-opacity:1;stroke-dasharray:9,9;stroke-miterlimit:10;" d="M 250.425781 253.574219 L 289.6875 253.574219 L 250.425781 253.574219 "/>
<path style="fill:none;stroke-width:2.25;stroke-linecap:round;stroke-linejoin:round;stroke:rgb(0%,0%,0%);stroke-opacity:1;stroke-dasharray:9,9;stroke-miterlimit:10;" d="M 250.425781 253.574219 L 250.425781 214.3125 L 250.425781 253.574219 "/>
<g clip-path="url(#clip2)" clip-rule="nonzero">
<path style="fill:none;stroke-width:2.25;stroke-linecap:round;stroke-linejoin:round;stroke:rgb(0%,0%,0%);stroke-opacity:1;stroke-miterlimit:10;" d="M 424.753906 167.199219 L 361.273438 213.316406 L 385.519531 287.9375 L 463.984375 287.9375 L 488.230469 213.316406 L 424.753906 167.199219 "/>
</g>
<path style="fill-rule:nonzero;fill:rgb(0%,0%,0%);fill-opacity:1;stroke-width:0.75;stroke-linecap:round;stroke-linejoin:round;stroke:rgb(0%,0%,0%);stroke-opacity:1;stroke-miterlimit:10;" d="M 467.9375 182.902344 L 467.953125 183.394531 L 468 183.886719 L 468.078125 184.375 L 468.1875 184.855469 L 468.324219 185.328125 L 468.492188 185.792969 L 468.6875 186.246094 L 468.910156 186.6875 L 469.160156 187.109375 L 469.4375 187.519531 L 469.742188 187.90625 L 470.066406 188.277344 L 470.417969 188.628906 L 470.785156 188.953125 L 471.175781 189.253906 L 471.585938 189.53125 L 472.007813 189.785156 L 472.449219 190.007813 L 472.902344 190.203125 L 473.363281 190.371094 L 473.839844 190.507813 L 474.320313 190.617188 L 474.808594 190.691406 L 475.296875 190.738281 L 475.792969 190.753906 L 476.285156 190.738281 L 476.777344 190.691406 L 477.261719 190.617188 L 477.746094 190.507813 L 478.21875 190.371094 L 478.683594 190.203125 L 479.132813 190.007813 L 479.574219 189.785156 L 480 189.53125 L 480.40625 189.253906 L 480.796875 188.953125 L 481.167969 188.628906 L 481.515625 188.277344 L 481.839844 187.90625 L 482.144531 187.519531 L 482.421875 187.109375 L 482.671875 186.6875 L 482.894531 186.246094 L 483.09375 185.792969 L 483.257813 185.328125 L 483.398438 184.855469 L 483.503906 184.375 L 483.582031 183.886719 L 483.628906 183.394531 L 483.644531 182.902344 L 483.628906 182.410156 L 483.582031 181.917969 L 483.503906 181.429688 L 483.398438 180.949219 L 483.257813 180.476563 L 483.09375 180.011719 L 482.894531 179.558594 L 482.671875 179.121094 L 482.421875 178.695313 L 482.144531 178.289063 L 481.839844 177.898438 L 481.515625 177.527344 L 481.167969 177.179688 L 480.796875 176.851563 L 480.40625 176.550781 L 480 176.273438 L 479.574219 176.023438 L 479.132813 175.796875 L 478.683594 175.601563 L 478.21875 175.433594 L 477.746094 175.296875 L 477.261719 175.191406 L 476.777344 175.113281 L 476.285156 175.066406 L 475.792969 175.050781 L 475.296875 175.066406 L 474.808594 175.113281 L 474.320313 175.191406 L 473.839844 175.296875 L 473.363281 175.433594 L 472.902344 175.601563 L 472.449219 175.796875 L 472.007813 176.023438 L 471.585938 176.273438 L 471.175781 176.550781 L 470.785156 176.851563 L 470.417969 177.179688 L 470.066406 177.527344 L 469.742188 177.898438 L 469.4375 178.289063 L 469.160156 178.695313 L 468.910156 179.121094 L 468.6875 179.558594 L 468.492188 180.011719 L 468.324219 180.476563 L 468.1875 180.949219 L 468.078125 181.429688 L 468 181.917969 L 467.953125 182.410156 Z M 467.9375 182.902344 "/>
<path style="fill-rule:nonzero;fill:rgb(0%,0%,0%);fill-opacity:1;stroke-width:0.75;stroke-linecap:round;stroke-linejoin:round;stroke:rgb(0%,0%,0%);stroke-opacity:1;stroke-miterlimit:10;" d="M 365.859375 182.902344 L 365.875 183.394531 L 365.921875 183.886719 L 366 184.375 L 366.105469 184.855469 L 366.246094 185.328125 L 366.410156 185.792969 L 366.609375 186.246094 L 366.832031 186.6875 L 367.082031 187.109375 L 367.359375 187.519531 L 367.664063 187.90625 L 367.988281 188.277344 L 368.335938 188.628906 L 368.707031 188.953125 L 369.097656 189.253906 L 369.503906 189.53125 L 369.929688 189.785156 L 370.371094 190.007813 L 370.820313 190.203125 L 371.285156 190.371094 L 371.761719 190.507813 L 372.242188 190.617188 L 372.726563 190.691406 L 373.21875 190.738281 L 373.710938 190.753906 L 374.207031 190.738281 L 374.695313 190.691406 L 375.183594 190.617188 L 375.664063 190.507813 L 376.140625 190.371094 L 376.601563 190.203125 L 377.054688 190.007813 L 377.496094 189.785156 L 377.921875 189.53125 L 378.328125 189.253906 L 378.71875 188.953125 L 379.085938 188.628906 L 379.4375 188.277344 L 379.761719 187.90625 L 380.066406 187.519531 L 380.34375 187.109375 L 380.59375 186.6875 L 380.816406 186.246094 L 381.011719 185.792969 L 381.179688 185.328125 L 381.316406 184.855469 L 381.425781 184.375 L 381.503906 183.886719 L 381.550781 183.394531 L 381.566406 182.902344 L 381.550781 182.410156 L 381.503906 181.917969 L 381.425781 181.429688 L 381.316406 180.949219 L 381.179688 180.476563 L 381.011719 180.011719 L 380.816406 179.558594 L 380.59375 179.121094 L 380.34375 178.695313 L 380.066406 178.289063 L 379.761719 177.898438 L 379.4375 177.527344 L 379.085938 177.179688 L 378.71875 176.851563 L 378.328125 176.550781 L 377.921875 176.273438 L 377.496094 176.023438 L 377.054688 175.796875 L 376.601563 175.601563 L 376.140625 175.433594 L 375.664063 175.296875 L 375.183594 175.191406 L 374.695313 175.113281 L 374.207031 175.066406 L 373.710938 175.050781 L 373.21875 175.066406 L 372.726563 175.113281 L 372.242188 175.191406 L 371.761719 175.296875 L 371.285156 175.433594 L 370.820313 175.601563 L 370.371094 175.796875 L 369.929688 176.023438 L 369.503906 176.273438 L 369.097656 176.550781 L 368.707031 176.851563 L 368.335938 177.179688 L 367.988281 177.527344 L 367.664063 177.898438 L 367.359375 178.289063 L 367.082031 178.695313 L 366.832031 179.121094 L 366.609375 179.558594 L 366.410156 180.011719 L 366.246094 180.476563 L 366.105469 180.949219 L 366 181.429688 L 365.921875 181.917969 L 365.875 182.410156 Z M 365.859375 182.902344 "/>
<path style="fill-rule:nonzero;fill:rgb(0%,0%,0%);fill-opacity:1;stroke-width:0.75;stroke-linecap:round;stroke-linejoin:round;stroke:rgb(0%,0%,0%);stroke-opacity:1;stroke-miterlimit:10;" d="M 467.9375 284.980469 L 467.953125 285.476563 L 468 285.964844 L 468.078125 286.453125 L 468.1875 286.933594 L 468.324219 287.410156 L 468.492188 287.871094 L 468.6875 288.324219 L 468.910156 288.765625 L 469.160156 289.1875 L 469.4375 289.597656 L 469.742188 289.988281 L 470.066406 290.355469 L 470.417969 290.707031 L 470.785156 291.03125 L 471.175781 291.335938 L 471.585938 291.613281 L 472.007813 291.863281 L 472.449219 292.085938 L 472.902344 292.28125 L 473.363281 292.449219 L 473.839844 292.585938 L 474.320313 292.695313 L 474.808594 292.773438 L 475.296875 292.820313 L 475.792969 292.835938 L 476.285156 292.820313 L 476.777344 292.773438 L 477.261719 292.695313 L 477.746094 292.585938 L 478.21875 292.449219 L 478.683594 292.28125 L 479.132813 292.085938 L 479.574219 291.863281 L 480 291.613281 L 480.40625 291.335938 L 480.796875 291.03125 L 481.167969 290.707031 L 481.515625 290.355469 L 481.839844 289.988281 L 482.144531 289.597656 L 482.421875 289.1875 L 482.671875 288.765625 L 482.894531 288.324219 L 483.09375 287.871094 L 483.257813 287.410156 L 483.398438 286.933594 L 483.503906 286.453125 L 483.582031 285.964844 L 483.628906 285.476563 L 483.644531 284.980469 L 483.628906 284.488281 L 483.582031 283.996094 L 483.503906 283.511719 L 483.398438 283.027344 L 483.257813 282.554688 L 483.09375 282.089844 L 482.894531 281.636719 L 482.671875 281.199219 L 482.421875 280.773438 L 482.144531 280.367188 L 481.839844 279.976563 L 481.515625 279.605469 L 481.167969 279.257813 L 480.796875 278.929688 L 480.40625 278.628906 L 480 278.351563 L 479.574219 278.101563 L 479.132813 277.875 L 478.683594 277.679688 L 478.21875 277.515625 L 477.746094 277.375 L 477.261719 277.269531 L 476.777344 277.191406 L 476.285156 277.144531 L 475.792969 277.128906 L 475.296875 277.144531 L 474.808594 277.191406 L 474.320313 277.269531 L 473.839844 277.375 L 473.363281 277.515625 L 472.902344 277.679688 L 472.449219 277.875 L 472.007813 278.101563 L 471.585938 278.351563 L 471.175781 278.628906 L 470.785156 278.929688 L 470.417969 279.257813 L 470.066406 279.605469 L 469.742188 279.976563 L 469.4375 280.367188 L 469.160156 280.773438 L 468.910156 281.199219 L 468.6875 281.636719 L 468.492188 282.089844 L 468.324219 282.554688 L 468.1875 283.027344 L 468.078125 283.511719 L 468 283.996094 L 467.953125 284.488281 Z M 467.9375 284.980469 "/>
<path style="fill-rule:nonzero;fill:rgb(0%,0%,0%);fill-opacity:1;stroke-width:0.75;stroke-linecap:round;stroke-linejoin:round;stroke:rgb(0%,0%,0%);stroke-opacity:1;stroke-miterlimit:10;" d="M 365.859375 284.980469 L 365.875 285.476563 L 365.921875 285.964844 L 366 286.453125 L 366.105469 286.933594 L 366.246094 287.410156 L 366.410156 287.871094 L 366.609375 288.324219 L 366.832031 288.765625 L 367.082031 289.1875 L 367.359375 289.597656 L 367.664063 289.988281 L 367.988281 290.355469 L 368.335938 290.707031 L 368.707031 291.03125 L 369.097656 291.335938 L 369.503906 291.613281 L 369.929688 291.863281 L 370.371094 292.085938 L 370.820313 292.28125 L 371.285156 292.449219 L 371.761719 292.585938 L 372.242188 292.695313 L 372.726563 292.773438 L 373.21875 292.820313 L 373.710938 292.835938 L 374.207031 292.820313 L 374.695313 292.773438 L 375.183594 292.695313 L 375.664063 292.585938 L 376.140625 292.449219 L 376.601563 292.28125 L 377.054688 292.085938 L 377.496094 291.863281 L 377.921875 291.613281 L 378.328125 291.335938 L 378.71875 291.03125 L 379.085938 290.707031 L 379.4375 290.355469 L 379.761719 289.988281 L 380.066406 289.597656 L 380.34375 289.1875 L 380.59375 288.765625 L 380.816406 288.324219 L 381.011719 287.871094 L 381.179688 287.410156 L 381.316406 286.933594 L 381.425781 286.453125 L 381.503906 285.964844 L 381.550781 285.476563 L 381.566406 284.980469 L 381.550781 284.488281 L 381.503906 283.996094 L 381.425781 283.511719 L 381.316406 283.027344 L 381.179688 282.554688 L 381.011719 282.089844 L 380.816406 281.636719 L 380.59375 281.199219 L 380.34375 280.773438 L 380.066406 280.367188 L 379.761719 279.976563 L 379.4375 279.605469 L 379.085938 279.257813 L 378.71875 278.929688 L 378.328125 278.628906 L 377.921875 278.351563 L 377.496094 278.101563 L 377.054688 277.875 L 376.601563 277.679688 L 376.140625 277.515625 L 375.664063 277.375 L 375.183594 277.269531 L 374.695313 277.191406 L 374.207031 277.144531 L 373.710938 277.128906 L 373.21875 277.144531 L 372.726563 277.191406 L 372.242188 277.269531 L 371.761719 277.375 L 371.285156 277.515625 L 370.820313 277.679688 L 370.371094 277.875 L 369.929688 278.101563 L 369.503906 278.351563 L 369.097656 278.628906 L 368.707031 278.929688 L 368.335938 279.257813 L 367.988281 279.605469 L 367.664063 279.976563 L 367.359375 280.367188 L 367.082031 280.773438 L 366.832031 281.199219 L 366.609375 281.636719 L 366.410156 282.089844 L 366.246094 282.554688 L 366.105469 283.027344 L 366 283.511719 L 365.921875 283.996094 L 365.875 284.488281 Z M 365.859375 284.980469 "/>
<path style="fill:none;stroke-width:2.25;stroke-linecap:round;stroke-linejoin:round;stroke:rgb(0%,0%,0%);stroke-opacity:1;stroke-dasharray:9,9;stroke-miterlimit:10;" d="M 405.121094 214.3125 L 444.382813 214.3125 L 405.121094 214.3125 "/>
<path style="fill:none;stroke-width:2.25;stroke-linecap:round;stroke-linejoin:round;stroke:rgb(0%,0%,0%);stroke-opacity:1;stroke-dasharray:9,9;stroke-miterlimit:10;" d="M 405.121094 253.574219 L 405.121094 214.3125 L 405.121094 253.574219 "/>
<path style="fill:none;stroke-width:2.25;stroke-linecap:round;stroke-linejoin:round;stroke:rgb(0%,0%,0%);stroke-opacity:1;stroke-miterlimit:10;" d="M 115.363281 329.746094 L 59.355469 370.4375 L 80.746094 436.28125 L 149.980469 436.28125 L 171.371094 370.4375 L 115.363281 329.746094 "/>
<g clip-path="url(#clip3)" clip-rule="nonzero">
<path style="fill:none;stroke-width:2.25;stroke-linecap:round;stroke-linejoin:round;stroke:rgb(0%,0%,0%);stroke-opacity:1;stroke-miterlimit:10;" d="M 115.363281 321.894531 L 51.886719 368.011719 L 76.132813 442.632813 L 154.59375 442.632813 L 178.839844 368.011719 L 115.363281 321.894531 "/>
</g>
<path style="fill:none;stroke-width:2.25;stroke-linecap:round;stroke-linejoin:round;stroke:rgb(0%,0%,0%);stroke-opacity:1;stroke-dasharray:9,9;stroke-miterlimit:10;" d="M 95.734375 369.007813 L 134.992188 369.007813 L 95.734375 369.007813 "/>
<path style="fill:none;stroke-width:2.25;stroke-linecap:round;stroke-linejoin:round;stroke:rgb(0%,0%,0%);stroke-opacity:1;stroke-dasharray:9,9;stroke-miterlimit:10;" d="M 95.734375 408.265625 L 95.734375 369.007813 L 95.734375 408.265625 "/>
<path style="fill:none;stroke-width:2.25;stroke-linecap:round;stroke-linejoin:round;stroke:rgb(0%,0%,0%);stroke-opacity:1;stroke-dasharray:2.25,6.75;stroke-miterlimit:10;" d="M 270.058594 337.597656 L 221.515625 372.863281 L 240.058594 429.929688 L 300.058594 429.929688 L 318.597656 372.863281 L 270.058594 337.597656 "/>
<path style="fill-rule:nonzero;fill:rgb(0%,0%,0%);fill-opacity:1;stroke-width:0.75;stroke-linecap:round;stroke-linejoin:round;stroke:rgb(0%,0%,0%);stroke-opacity:1;stroke-miterlimit:10;" d="M 313.246094 337.597656 L 313.261719 338.089844 L 313.308594 338.582031 L 313.382813 339.070313 L 313.492188 339.550781 L 313.628906 340.023438 L 313.796875 340.488281 L 313.992188 340.941406 L 314.214844 341.378906 L 314.46875 341.804688 L 314.746094 342.210938 L 315.046875 342.601563 L 315.371094 342.972656 L 315.722656 343.320313 L 316.09375 343.648438 L 316.480469 343.949219 L 316.890625 344.226563 L 317.3125 344.476563 L 317.753906 344.703125 L 318.207031 344.898438 L 318.671875 345.066406 L 319.144531 345.203125 L 319.625 345.308594 L 320.113281 345.386719 L 320.605469 345.433594 L 321.097656 345.449219 L 321.589844 345.433594 L 322.082031 345.386719 L 322.570313 345.308594 L 323.050781 345.203125 L 323.523438 345.066406 L 323.988281 344.898438 L 324.441406 344.703125 L 324.878906 344.476563 L 325.304688 344.226563 L 325.710938 343.949219 L 326.101563 343.648438 L 326.472656 343.320313 L 326.820313 342.972656 L 327.148438 342.601563 L 327.449219 342.210938 L 327.726563 341.804688 L 327.976563 341.378906 L 328.203125 340.941406 L 328.398438 340.488281 L 328.566406 340.023438 L 328.703125 339.550781 L 328.808594 339.070313 L 328.886719 338.582031 L 328.933594 338.089844 L 328.949219 337.597656 L 328.933594 337.105469 L 328.886719 336.613281 L 328.808594 336.125 L 328.703125 335.644531 L 328.566406 335.171875 L 328.398438 334.707031 L 328.203125 334.253906 L 327.976563 333.816406 L 327.726563 333.390625 L 327.449219 332.980469 L 327.148438 332.59375 L 326.820313 332.222656 L 326.472656 331.875 L 326.101563 331.546875 L 325.710938 331.246094 L 325.304688 330.96875 L 324.878906 330.714844 L 324.441406 330.492188 L 323.988281 330.296875 L 323.523438 330.128906 L 323.050781 329.992188 L 322.570313 329.882813 L 322.082031 329.808594 L 321.589844 329.761719 L 321.097656 329.746094 L 320.605469 329.761719 L 320.113281 329.808594 L 319.625 329.882813 L 319.144531 329.992188 L 318.671875 330.128906 L 318.207031 330.296875 L 317.753906 330.492188 L 317.3125 330.714844 L 316.890625 330.96875 L 316.480469 331.246094 L 316.09375 331.546875 L 315.722656 331.875 L 315.371094 332.222656 L 315.046875 332.59375 L 314.746094 332.980469 L 314.46875 333.390625 L 314.214844 333.816406 L 313.992188 334.253906 L 313.796875 334.707031 L 313.628906 335.171875 L 313.492188 335.644531 L 313.382813 336.125 L 313.308594 336.613281 L 313.261719 337.105469 Z M 313.246094 337.597656 "/>
<path style="fill-rule:nonzero;fill:rgb(0%,0%,0%);fill-opacity:1;stroke-width:0.75;stroke-linecap:round;stroke-linejoin:round;stroke:rgb(0%,0%,0%);stroke-opacity:1;stroke-miterlimit:10;" d="M 211.164063 337.597656 L 211.179688 338.089844 L 211.226563 338.582031 L 211.304688 339.070313 L 211.414063 339.550781 L 211.550781 340.023438 L 211.71875 340.488281 L 211.914063 340.941406 L 212.136719 341.378906 L 212.386719 341.804688 L 212.664063 342.210938 L 212.96875 342.601563 L 213.292969 342.972656 L 213.644531 343.320313 L 214.011719 343.648438 L 214.402344 343.949219 L 214.8125 344.226563 L 215.234375 344.476563 L 215.675781 344.703125 L 216.128906 344.898438 L 216.589844 345.066406 L 217.066406 345.203125 L 217.546875 345.308594 L 218.035156 345.386719 L 218.523438 345.433594 L 219.019531 345.449219 L 219.511719 345.433594 L 220.003906 345.386719 L 220.488281 345.308594 L 220.972656 345.203125 L 221.445313 345.066406 L 221.910156 344.898438 L 222.363281 344.703125 L 222.800781 344.476563 L 223.226563 344.226563 L 223.632813 343.949219 L 224.023438 343.648438 L 224.394531 343.320313 L 224.742188 342.972656 L 225.070313 342.601563 L 225.371094 342.210938 L 225.648438 341.804688 L 225.898438 341.378906 L 226.125 340.941406 L 226.320313 340.488281 L 226.484375 340.023438 L 226.625 339.550781 L 226.730469 339.070313 L 226.808594 338.582031 L 226.855469 338.089844 L 226.871094 337.597656 L 226.855469 337.105469 L 226.808594 336.613281 L 226.730469 336.125 L 226.625 335.644531 L 226.484375 335.171875 L 226.320313 334.707031 L 226.125 334.253906 L 225.898438 333.816406 L 225.648438 333.390625 L 225.371094 332.980469 L 225.070313 332.59375 L 224.742188 332.222656 L 224.394531 331.875 L 224.023438 331.546875 L 223.632813 331.246094 L 223.226563 330.96875 L 222.800781 330.714844 L 222.363281 330.492188 L 221.910156 330.296875 L 221.445313 330.128906 L 220.972656 329.992188 L 220.488281 329.882813 L 220.003906 329.808594 L 219.511719 329.761719 L 219.019531 329.746094 L 218.523438 329.761719 L 218.035156 329.808594 L 217.546875 329.882813 L 217.066406 329.992188 L 216.589844 330.128906 L 216.128906 330.296875 L 215.675781 330.492188 L 215.234375 330.714844 L 214.8125 330.96875 L 214.402344 331.246094 L 214.011719 331.546875 L 213.644531 331.875 L 213.292969 332.222656 L 212.96875 332.59375 L 212.664063 332.980469 L 212.386719 333.390625 L 212.136719 333.816406 L 211.914063 334.253906 L 211.71875 334.707031 L 211.550781 335.171875 L 211.414063 335.644531 L 211.304688 336.125 L 211.226563 336.613281 L 211.179688 337.105469 Z M 211.164063 337.597656 "/>
<path style="fill-rule:nonzero;fill:rgb(0%,0%,0%);fill-opacity:1;stroke-width:0.75;stroke-linecap:round;stroke-linejoin:round;stroke:rgb(0%,0%,0%);stroke-opacity:1;stroke-miterlimit:10;" d="M 313.246094 439.675781 L 313.261719 440.167969 L 313.308594 440.660156 L 313.382813 441.148438 L 313.492188 441.628906 L 313.628906 442.101563 L 313.796875 442.566406 L 313.992188 443.019531 L 314.214844 443.460938 L 314.46875 443.882813 L 314.746094 444.292969 L 315.046875 444.679688 L 315.371094 445.050781 L 315.722656 445.398438 L 316.09375 445.726563 L 316.480469 446.027344 L 316.890625 446.304688 L 317.3125 446.558594 L 317.753906 446.78125 L 318.207031 446.976563 L 318.671875 447.144531 L 319.144531 447.28125 L 319.625 447.390625 L 320.113281 447.464844 L 320.605469 447.511719 L 321.097656 447.527344 L 321.589844 447.511719 L 322.082031 447.464844 L 322.570313 447.390625 L 323.050781 447.28125 L 323.523438 447.144531 L 323.988281 446.976563 L 324.441406 446.78125 L 324.878906 446.558594 L 325.304688 446.304688 L 325.710938 446.027344 L 326.101563 445.726563 L 326.472656 445.398438 L 326.820313 445.050781 L 327.148438 444.679688 L 327.449219 444.292969 L 327.726563 443.882813 L 327.976563 443.460938 L 328.203125 443.019531 L 328.398438 442.566406 L 328.566406 442.101563 L 328.703125 441.628906 L 328.808594 441.148438 L 328.886719 440.660156 L 328.933594 440.167969 L 328.949219 439.675781 L 328.933594 439.183594 L 328.886719 438.691406 L 328.808594 438.203125 L 328.703125 437.722656 L 328.566406 437.25 L 328.398438 436.785156 L 328.203125 436.332031 L 327.976563 435.894531 L 327.726563 435.46875 L 327.449219 435.0625 L 327.148438 434.671875 L 326.820313 434.300781 L 326.472656 433.953125 L 326.101563 433.625 L 325.710938 433.324219 L 325.304688 433.046875 L 324.878906 432.796875 L 324.441406 432.570313 L 323.988281 432.375 L 323.523438 432.207031 L 323.050781 432.070313 L 322.570313 431.964844 L 322.082031 431.886719 L 321.589844 431.839844 L 321.097656 431.824219 L 320.605469 431.839844 L 320.113281 431.886719 L 319.625 431.964844 L 319.144531 432.070313 L 318.671875 432.207031 L 318.207031 432.375 L 317.753906 432.570313 L 317.3125 432.796875 L 316.890625 433.046875 L 316.480469 433.324219 L 316.09375 433.625 L 315.722656 433.953125 L 315.371094 434.300781 L 315.046875 434.671875 L 314.746094 435.0625 L 314.46875 435.46875 L 314.214844 435.894531 L 313.992188 436.332031 L 313.796875 436.785156 L 313.628906 437.25 L 313.492188 437.722656 L 313.382813 438.203125 L 313.308594 438.691406 L 313.261719 439.183594 Z M 313.246094 439.675781 "/>
<path style="fill-rule:nonzero;fill:rgb(0%,0%,0%);fill-opacity:1;stroke-width:0.75;stroke-linecap:round;stroke-linejoin:round;stroke:rgb(0%,0%,0%);stroke-opacity:1;stroke-miterlimit:10;" d="M 211.164063 439.675781 L 211.179688 440.167969 L 211.226563 440.660156 L 211.304688 441.148438 L 211.414063 441.628906 L 211.550781 442.101563 L 211.71875 442.566406 L 211.914063 443.019531 L 212.136719 443.460938 L 212.386719 443.882813 L 212.664063 444.292969 L 212.96875 444.679688 L 213.292969 445.050781 L 213.644531 445.398438 L 214.011719 445.726563 L 214.402344 446.027344 L 214.8125 446.304688 L 215.234375 446.558594 L 215.675781 446.78125 L 216.128906 446.976563 L 216.589844 447.144531 L 217.066406 447.28125 L 217.546875 447.390625 L 218.035156 447.464844 L 218.523438 447.511719 L 219.019531 447.527344 L 219.511719 447.511719 L 220.003906 447.464844 L 220.488281 447.390625 L 220.972656 447.28125 L 221.445313 447.144531 L 221.910156 446.976563 L 222.363281 446.78125 L 222.800781 446.558594 L 223.226563 446.304688 L 223.632813 446.027344 L 224.023438 445.726563 L 224.394531 445.398438 L 224.742188 445.050781 L 225.070313 444.679688 L 225.371094 444.292969 L 225.648438 443.882813 L 225.898438 443.460938 L 226.125 443.019531 L 226.320313 442.566406 L 226.484375 442.101563 L 226.625 441.628906 L 226.730469 441.148438 L 226.808594 440.660156 L 226.855469 440.167969 L 226.871094 439.675781 L 226.855469 439.183594 L 226.808594 438.691406 L 226.730469 438.203125 L 226.625 437.722656 L 226.484375 437.25 L 226.320313 436.785156 L 226.125 436.332031 L 225.898438 435.894531 L 225.648438 435.46875 L 225.371094 435.0625 L 225.070313 434.671875 L 224.742188 434.300781 L 224.394531 433.953125 L 224.023438 433.625 L 223.632813 433.324219 L 223.226563 433.046875 L 222.800781 432.796875 L 222.363281 432.570313 L 221.910156 432.375 L 221.445313 432.207031 L 220.972656 432.070313 L 220.488281 431.964844 L 220.003906 431.886719 L 219.511719 431.839844 L 219.019531 431.824219 L 218.523438 431.839844 L 218.035156 431.886719 L 217.546875 431.964844 L 217.066406 432.070313 L 216.589844 432.207031 L 216.128906 432.375 L 215.675781 432.570313 L 215.234375 432.796875 L 214.8125 433.046875 L 214.402344 433.324219 L 214.011719 433.625 L 213.644531 433.953125 L 213.292969 434.300781 L 212.96875 434.671875 L 212.664063 435.0625 L 212.386719 435.46875 L 212.136719 435.894531 L 211.914063 436.332031 L 211.71875 436.785156 L 211.550781 437.25 L 211.414063 437.722656 L 211.304688 438.203125 L 211.226563 438.691406 L 211.179688 439.183594 Z M 211.164063 439.675781 "/>
<path style="fill:none;stroke-width:2.25;stroke-linecap:round;stroke-linejoin:round;stroke:rgb(0%,0%,0%);stroke-opacity:1;stroke-dasharray:9,9;stroke-miterlimit:10;" d="M 250.425781 369.007813 L 289.6875 369.007813 L 250.425781 369.007813 "/>
<path style="fill:none;stroke-width:2.25;stroke-linecap:round;stroke-linejoin:round;stroke:rgb(0%,0%,0%);stroke-opacity:1;stroke-dasharray:9,9;stroke-miterlimit:10;" d="M 250.425781 408.265625 L 289.6875 408.265625 L 250.425781 408.265625 "/>
</g>
</svg>
