<?xml version="1.0" encoding="UTF-8"?>
<svg xmlns="http://www.w3.org/2000/svg" xmlns:xlink="http://www.w3.org/1999/xlink" width="504pt" height="504pt" viewBox="0 0 504 504" version="1.1">
<g id="surface11">
<rect x="0" y="0" width="504" height="504" style="fill:rgb(100%,100%,100%);fill-opacity:1;stroke:none;"/>
<path style="fill:none;stroke-width:2.25;stroke-linecap:round;stroke-linejoin:round;stroke:rgb(0%,0%,0%);stroke-opacity:1;stroke-miterlimit:10;" d="M 150.699219 79.246094 L 150.628906 77.769531 L 150.417969 76.296875 L 150.074219 74.832031 L 149.589844 73.390625 L 148.96875 71.96875 L 148.21875 70.578125 L 147.335938 69.21875 L 146.328125 67.898438 L 145.199219 66.625 L 143.949219 65.402344 L 142.589844 64.230469 L 141.121094 63.121094 L 139.550781 62.074219 L 137.886719 61.097656 L 136.132813 60.191406 L 134.296875 59.359375 L 132.386719 58.605469 L 130.40625 57.933594 L 128.371094 57.34375 L 126.28125 56.84375 L 124.152344 56.429688 L 121.984375 56.109375 L 119.792969 55.878906 L 117.582031 55.738281 L 115.363281 55.691406 L 113.144531 55.738281 L 110.933594 55.878906 L 108.742188 56.109375 L 106.574219 56.429688 L 104.445313 56.84375 L 102.355469 57.34375 L 100.316406 57.933594 L 98.339844 58.605469 L 96.429688 59.359375 L 94.59375 60.191406 L 92.839844 61.097656 L 91.175781 62.074219 L 89.605469 63.121094 L 88.136719 64.230469 L 86.777344 65.402344 L 85.527344 66.625 L 84.398438 67.898438 L 83.390625 69.21875 L 82.507813 70.578125 L 81.757813 71.96875 L 81.136719 73.390625 L 80.652344 74.832031 L 80.308594 76.296875 L 80.097656 77.769531 L 80.027344 79.246094 L 80.097656 80.726563 L 80.308594 82.199219 L 80.652344 83.660156 L 81.136719 85.105469 L 81.757813 86.527344 L 82.507813 87.917969 L 83.390625 89.277344 L 84.398438 90.597656 L 85.527344 91.871094 L 86.777344 93.09375 L 88.136719 94.261719 L 89.605469 95.375 L 91.175781 96.421875 L 92.839844 97.398438 L 94.59375 98.304688 L 96.429688 99.136719 L 98.339844 99.890625 L 100.316406 100.5625 L 102.355469 101.152344 L 104.445313 101.652344 L 106.574219 102.066406 L 108.742188 102.386719 L 110.933594 102.617188 L 113.144531 102.757813 L 115.363281 102.804688 L 117.582031 102.757813 L 119.792969 102.617188 L 121.984375 102.386719 L 124.152344 102.066406 L 126.28125 101.652344 L 128.371094 101.152344 L 130.40625 100.5625 L 132.386719 99.890625 L 134.296875 99.136719 L 136.132813 98.304688 L 137.886719 97.398438 L 139.550781 96.421875 L 141.121094 95.375 L 142.589844 94.261719 L 143.949219 93.09375 L 145.199219 91.871094 L 146.328125 90.597656 L 147.335938 89.277344 L 148.21875 87.917969 L 148.96875 86.527344 L 149.589844 85.105469 L 150.074219 83.660156 L 150.417969 82.199219 L 150.628906 80.726563 Z M 150.699219 79.246094 "/>
<path style="fill:none;stroke-width:2.25;stroke-linecap:round;stroke-linejoin:round;stroke:rgb(0%,0%,0%);stroke-opacity:1;stroke-miterlimit:10;" d="M 115.363281 20.355469 L 59.355469 61.050781 L 80.746094 126.890625 L 149.980469 126.890625 L 171.371094 61.050781 Z M 115.363281 20.355469 "/>
<path style="fill-rule:nonzero;fill:rgb(100%,100%,100%);fill-opacity:1;stroke-width:1.5;stroke-linecap:round;stroke-linejoin:round;stroke:rgb(0%,0%,0%);stroke-opacity:1;stroke-miterlimit:10;" d="M 293.613281 79.246094 L 293.566406 77.769531 L 293.429688 76.296875 L 293.195313 74.832031 L 292.875 73.390625 L 292.460938 71.96875 L 291.960938 70.578125 L 291.371094 69.21875 L 290.699219 67.898438 L 289.945313 66.625 L 289.117188 65.402344 L 288.207031 64.230469 L 287.230469 63.121094 L 286.183594 62.074219 L 285.074219 61.097656 L 283.902344 60.191406 L 282.679688 59.359375 L 281.40625 58.605469 L 280.085938 57.933594 L 278.730469 57.34375 L 277.335938 56.84375 L 275.914063 56.429688 L 274.472656 56.109375 L 273.011719 55.878906 L 271.535156 55.738281 L 270.058594 55.691406 L 268.578125 55.738281 L 267.105469 55.878906 L 265.644531 56.109375 L 264.199219 56.429688 L 262.777344 56.84375 L 261.386719 57.34375 L 260.027344 57.933594 L 258.710938 58.605469 L 257.433594 59.359375 L 256.210938 60.191406 L 255.042969 61.097656 L 253.933594 62.074219 L 252.886719 63.121094 L 251.90625 64.230469 L 251 65.402344 L 250.167969 66.625 L 249.414063 67.898438 L 248.742188 69.21875 L 248.15625 70.578125 L 247.652344 71.96875 L 247.242188 73.390625 L 246.917969 74.832031 L 246.6875 76.296875 L 246.546875 77.769531 L 246.5 79.246094 L 246.546875 80.726563 L 246.6875 82.199219 L 246.917969 83.660156 L 247.242188 85.105469 L 247.652344 86.527344 L 248.15625 87.917969 L 248.742188 89.277344 L 249.414063 90.597656 L 250.167969 91.871094 L 251 93.09375 L 251.90625 94.261719 L 252.886719 95.375 L 253.933594 96.421875 L 255.042969 97.398438 L 256.210938 98.304688 L 257.433594 99.136719 L 258.710938 99.890625 L 260.027344 100.5625 L 261.386719 101.152344 L 262.777344 101.652344 L 264.199219 102.066406 L 265.644531 102.386719 L 267.105469 102.617188 L 268.578125 102.757813 L 270.058594 102.804688 L 271.535156 102.757813 L 273.011719 102.617188 L 274.472656 102.386719 L 275.914063 102.066406 L 277.335938 101.652344 L 278.730469 101.152344 L 280.085938 100.5625 L 281.40625 99.890625 L 282.679688 99.136719 L 283.902344 98.304688 L 285.074219 97.398438 L 286.183594 96.421875 L 287.230469 95.375 L 288.207031 94.261719 L 289.117188 93.09375 L 289.945313 91.871094 L 290.699219 90.597656 L 291.371094 89.277344 L 291.960938 87.917969 L 292.460938 86.527344 L 292.875 85.105469 L 293.195313 83.660156 L 293.429688 82.199219 L 293.566406 80.726563 Z M 293.613281 79.246094 "/>
<path style="fill:none;stroke-width:2.25;stroke-linecap:round;stroke-linejoin:round;stroke:rgb(0%,0%,0%);stroke-opacity:1;stroke-miterlimit:10;" d="M 311.699219 37.605469 L 254.816406 22.363281 L 213.171875 64.003906 L 228.414063 120.890625 L 285.300781 136.132813 L 326.941406 94.492188 Z M 311.699219 37.605469 "/>
<path style="fill-rule:nonzero;fill:rgb(100%,100%,100%);fill-opacity:1;stroke-width:2.25;stroke-linecap:round;stroke-linejoin:round;stroke:rgb(0%,0%,0%);stroke-opacity:1;stroke-miterlimit:10;" d="M 460.085938 79.246094 L 460.015625 77.769531 L 459.808594 76.296875 L 459.460938 74.832031 L 458.976563 73.390625 L 458.359375 71.96875 L 457.605469 70.578125 L 456.722656 69.21875 L 455.714844 67.898438 L 454.585938 66.625 L 453.339844 65.402344 L 451.976563 64.230469 L 450.511719 63.121094 L 448.941406 62.074219 L 447.273438 61.097656 L 445.519531 60.191406 L 443.683594 59.359375 L 441.773438 58.605469 L 439.796875 57.933594 L 437.757813 57.34375 L 435.671875 56.84375 L 433.539063 56.429688 L 431.375 56.109375 L 429.179688 55.878906 L 426.96875 55.738281 L 424.753906 55.691406 L 422.535156 55.738281 L 420.324219 55.878906 L 418.132813 56.109375 L 415.964844 56.429688 L 413.832031 56.84375 L 411.746094 57.34375 L 409.707031 57.933594 L 407.730469 58.605469 L 405.820313 59.359375 L 403.984375 60.191406 L 402.230469 61.097656 L 400.5625 62.074219 L 398.992188 63.121094 L 397.527344 64.230469 L 396.164063 65.402344 L 394.917969 66.625 L 393.789063 67.898438 L 392.78125 69.21875 L 391.898438 70.578125 L 391.144531 71.96875 L 390.527344 73.390625 L 390.042969 74.832031 L 389.695313 76.296875 L 389.488281 77.769531 L 389.417969 79.246094 L 389.488281 80.726563 L 389.695313 82.199219 L 390.042969 83.660156 L 390.527344 85.105469 L 391.144531 86.527344 L 391.898438 87.917969 L 392.78125 89.277344 L 393.789063 90.597656 L 394.917969 91.871094 L 396.164063 93.09375 L 397.527344 94.261719 L 398.992188 95.375 L 400.5625 96.421875 L 402.230469 97.398438 L 403.984375 98.304688 L 405.820313 99.136719 L 407.730469 99.890625 L 409.707031 100.5625 L 411.746094 101.152344 L 413.832031 101.652344 L 415.964844 102.066406 L 418.132813 102.386719 L 420.324219 102.617188 L 422.535156 102.757813 L 424.753906 102.804688 L 426.96875 102.757813 L 429.179688 102.617188 L 431.375 102.386719 L 433.539063 102.066406 L 435.671875 101.652344 L 437.757813 101.152344 L 439.796875 100.5625 L 441.773438 99.890625 L 443.683594 99.136719 L 445.519531 98.304688 L 447.273438 97.398438 L 448.941406 96.421875 L 450.511719 95.375 L 451.976563 94.261719 L 453.339844 93.09375 L 454.585938 91.871094 L 455.714844 90.597656 L 456.722656 89.277344 L 457.605469 87.917969 L 458.359375 86.527344 L 458.976563 85.105469 L 459.460938 83.660156 L 459.808594 82.199219 L 460.015625 80.726563 Z M 460.085938 79.246094 "/>
<path style="fill:none;stroke-width:2.25;stroke-linecap:round;stroke-linejoin:round;stroke:rgb(0%,0%,0%);stroke-opacity:1;stroke-miterlimit:10;" d="M 383.109375 37.605469 L 383.109375 120.890625 L 466.394531 120.890625 L 466.394531 37.605469 Z M 383.109375 37.605469 "/>
<path style="fill:none;stroke-width:2.25;stroke-linecap:round;stroke-linejoin:round;stroke:rgb(0%,0%,0%);stroke-opacity:1;stroke-miterlimit:10;" d="M 150.699219 233.941406 L 150.628906 232.464844 L 150.417969 230.988281 L 150.074219 229.527344 L 149.589844 228.085938 L 148.96875 226.664063 L 148.21875 225.269531 L 147.335938 223.914063 L 146.328125 222.59375 L 145.199219 221.320313 L 143.949219 220.097656 L 142.589844 218.925781 L 141.121094 217.816406 L 139.550781 216.769531 L 137.886719 215.792969 L 136.132813 214.882813 L 134.296875 214.054688 L 132.386719 213.300781 L 130.40625 212.628906 L 128.371094 212.039063 L 126.28125 211.539063 L 124.152344 211.125 L 121.984375 210.804688 L 119.792969 210.570313 L 117.582031 210.433594 L 115.363281 210.386719 L 113.144531 210.433594 L 110.933594 210.570313 L 108.742188 210.804688 L 106.574219 211.125 L 104.445313 211.539063 L 102.355469 212.039063 L 100.316406 212.628906 L 98.339844 213.300781 L 96.429688 214.054688 L 94.59375 214.882813 L 92.839844 215.792969 L 91.175781 216.769531 L 89.605469 217.816406 L 88.136719 218.925781 L 86.777344 220.097656 L 85.527344 221.320313 L 84.398438 222.59375 L 83.390625 223.914063 L 82.507813 225.269531 L 81.757813 226.664063 L 81.136719 228.085938 L 80.652344 229.527344 L 80.308594 230.988281 L 80.097656 232.464844 L 80.027344 233.941406 L 80.097656 235.421875 L 80.308594 236.894531 L 80.652344 238.355469 L 81.136719 239.800781 L 81.757813 241.222656 L 82.507813 242.613281 L 83.390625 243.972656 L 84.398438 245.289063 L 85.527344 246.566406 L 86.777344 247.789063 L 88.136719 248.957031 L 89.605469 250.066406 L 91.175781 251.113281 L 92.839844 252.09375 L 94.59375 253 L 96.429688 253.832031 L 98.339844 254.585938 L 100.316406 255.257813 L 102.355469 255.84375 L 104.445313 256.347656 L 106.574219 256.757813 L 108.742188 257.082031 L 110.933594 257.3125 L 113.144531 257.453125 L 115.363281 257.5 L 117.582031 257.453125 L 119.792969 257.3125 L 121.984375 257.082031 L 124.152344 256.757813 L 126.28125 256.347656 L 128.371094 255.84375 L 130.40625 255.257813 L 132.386719 254.585938 L 134.296875 253.832031 L 136.132813 253 L 137.886719 252.09375 L 139.550781 251.113281 L 141.121094 250.066406 L 142.589844 248.957031 L 143.949219 247.789063 L 145.199219 246.566406 L 146.328125 245.289063 L 147.335938 243.972656 L 148.21875 242.613281 L 148.96875 241.222656 L 149.589844 239.800781 L 150.074219 238.355469 L 150.417969 236.894531 L 150.628906 235.421875 Z M 150.699219 233.941406 "/>
<path style="fill:none;stroke-width:2.25;stroke-linecap:round;stroke-linejoin:round;stroke:rgb(0%,0%,0%);stroke-opacity:1;stroke-miterlimit:10;" d="M 115.363281 175.050781 L 56.472656 233.941406 L 115.363281 292.835938 L 174.253906 233.941406 Z M 115.363281 175.050781 "/>
<path style="fill-rule:nonzero;fill:rgb(74.509804%,74.509804%,74.509804%);fill-opacity:1;stroke-width:1.5;stroke-linecap:round;stroke-linejoin:round;stroke:rgb(0%,0%,0%);stroke-opacity:1;stroke-miterlimit:10;" d="M 293.613281 233.941406 L 293.566406 232.464844 L 293.429688 230.988281 L 293.195313 229.527344 L 292.875 228.085938 L 292.460938 226.664063 L 291.960938 225.269531 L 291.371094 223.914063 L 290.699219 222.59375 L 289.945313 221.320313 L 289.117188 220.097656 L 288.207031 218.925781 L 287.230469 217.816406 L 286.183594 216.769531 L 285.074219 215.792969 L 283.902344 214.882813 L 282.679688 214.054688 L 281.40625 213.300781 L 280.085938 212.628906 L 278.730469 212.039063 L 277.335938 211.539063 L 275.914063 211.125 L 274.472656 210.804688 L 273.011719 210.570313 L 271.535156 210.433594 L 270.058594 210.386719 L 268.578125 210.433594 L 267.105469 210.570313 L 265.644531 210.804688 L 264.199219 211.125 L 262.777344 211.539063 L 261.386719 212.039063 L 260.027344 212.628906 L 258.710938 213.300781 L 257.433594 214.054688 L 256.210938 214.882813 L 255.042969 215.792969 L 253.933594 216.769531 L 252.886719 217.816406 L 251.90625 218.925781 L 251 220.097656 L 250.167969 221.320313 L 249.414063 222.59375 L 248.742188 223.914063 L 248.15625 225.269531 L 247.652344 226.664063 L 247.242188 228.085938 L 246.917969 229.527344 L 246.6875 230.988281 L 246.546875 232.464844 L 246.5 233.941406 L 246.546875 235.421875 L 246.6875 236.894531 L 246.917969 238.355469 L 247.242188 239.800781 L 247.652344 241.222656 L 248.15625 242.613281 L 248.742188 243.972656 L 249.414063 245.289063 L 250.167969 246.566406 L 251 247.789063 L 251.90625 248.957031 L 252.886719 250.066406 L 253.933594 251.113281 L 255.042969 252.09375 L 256.210938 253 L 257.433594 253.832031 L 258.710938 254.585938 L 260.027344 255.257813 L 261.386719 255.84375 L 262.777344 256.347656 L 264.199219 256.757813 L 265.644531 257.082031 L 267.105469 257.3125 L 268.578125 257.453125 L 270.058594 257.5 L 271.535156 257.453125 L 273.011719 257.3125 L 274.472656 257.082031 L 275.914063 256.757813 L 277.335938 256.347656 L 278.730469 255.84375 L 280.085938 255.257813 L 281.40625 254.585938 L 282.679688 253.832031 L 283.902344 253 L 285.074219 252.09375 L 286.183594 251.113281 L 287.230469 250.066406 L 288.207031 248.957031 L 289.117188 247.789063 L 289.945313 246.566406 L 290.699219 245.289063 L 291.371094 243.972656 L 291.960938 242.613281 L 292.460938 241.222656 L 292.875 239.800781 L 293.195313 238.355469 L 293.429688 236.894531 L 293.566406 235.421875 Z M 293.613281 233.941406 "/>
<path style="fill:none;stroke-width:2.25;stroke-linecap:round;stroke-linejoin:round;stroke:rgb(0%,0%,0%);stroke-opacity:1;stroke-miterlimit:10;" d="M 211.164063 233.941406 L 251.859375 289.953125 L 317.703125 268.558594 L 317.703125 199.328125 L 251.859375 177.933594 Z M 211.164063 233.941406 "/>
<path style="fill-rule:nonzero;fill:rgb(74.509804%,74.509804%,74.509804%);fill-opacity:1;stroke-width:2.25;stroke-linecap:round;stroke-linejoin:round;stroke:rgb(0%,0%,0%);stroke-opacity:1;stroke-miterlimit:10;" d="M 460.085938 233.941406 L 460.015625 232.464844 L 459.808594 230.988281 L 459.460938 229.527344 L 458.976563 228.085938 L 458.359375 226.664063 L 457.605469 225.269531 L 456.722656 223.914063 L 455.714844 222.59375 L 454.585938 221.320313 L 453.339844 220.097656 L 451.976563 218.925781 L 450.511719 217.816406 L 448.941406 216.769531 L 447.273438 215.792969 L 445.519531 214.882813 L 443.683594 214.054688 L 441.773438 213.300781 L 439.796875 212.628906 L 437.757813 212.039063 L 435.671875 211.539063 L 433.539063 211.125 L 431.375 210.804688 L 429.179688 210.570313 L 426.96875 210.433594 L 424.753906 210.386719 L 422.535156 210.433594 L 420.324219 210.570313 L 418.132813 210.804688 L 415.964844 211.125 L 413.832031 211.539063 L 411.746094 212.039063 L 409.707031 212.628906 L 407.730469 213.300781 L 405.820313 214.054688 L 403.984375 214.882813 L 402.230469 215.792969 L 400.5625 216.769531 L 398.992188 217.816406 L 397.527344 218.925781 L 396.164063 220.097656 L 394.917969 221.320313 L 393.789063 222.59375 L 392.78125 223.914063 L 391.898438 225.269531 L 391.144531 226.664063 L 390.527344 228.085938 L 390.042969 229.527344 L 389.695313 230.988281 L 389.488281 232.464844 L 389.417969 233.941406 L 389.488281 235.421875 L 389.695313 236.894531 L 390.042969 238.355469 L 390.527344 239.800781 L 391.144531 241.222656 L 391.898438 242.613281 L 392.78125 243.972656 L 393.789063 245.289063 L 394.917969 246.566406 L 396.164063 247.789063 L 397.527344 248.957031 L 398.992188 250.066406 L 400.5625 251.113281 L 402.230469 252.09375 L 403.984375 253 L 405.820313 253.832031 L 407.730469 254.585938 L 409.707031 255.257813 L 411.746094 255.84375 L 413.832031 256.347656 L 415.964844 256.757813 L 418.132813 257.082031 L 420.324219 257.3125 L 422.535156 257.453125 L 424.753906 257.5 L 426.96875 257.453125 L 429.179688 257.3125 L 431.375 257.082031 L 433.539063 256.757813 L 435.671875 256.347656 L 437.757813 255.84375 L 439.796875 255.257813 L 441.773438 254.585938 L 443.683594 253.832031 L 445.519531 253 L 447.273438 252.09375 L 448.941406 251.113281 L 450.511719 250.066406 L 451.976563 248.957031 L 453.339844 247.789063 L 454.585938 246.566406 L 455.714844 245.289063 L 456.722656 243.972656 L 457.605469 242.613281 L 458.359375 241.222656 L 458.976563 239.800781 L 459.460938 238.355469 L 459.808594 236.894531 L 460.015625 235.421875 Z M 460.085938 233.941406 "/>
<path style="fill:none;stroke-width:2.25;stroke-linecap:round;stroke-linejoin:round;stroke:rgb(0%,0%,0%);stroke-opacity:1;stroke-miterlimit:10;" d="M 383.109375 192.300781 L 367.867188 249.183594 L 409.507813 290.828125 L 466.394531 275.585938 L 481.636719 218.699219 L 439.996094 177.058594 Z M 383.109375 192.300781 "/>
<path style="fill:none;stroke-width:2.25;stroke-linecap:round;stroke-linejoin:round;stroke:rgb(0%,0%,0%);stroke-opacity:1;stroke-miterlimit:10;" d="M 150.699219 388.636719 L 150.628906 387.15625 L 150.417969 385.683594 L 150.074219 384.222656 L 149.589844 382.777344 L 148.96875 381.355469 L 148.21875 379.964844 L 147.335938 378.605469 L 146.328125 377.289063 L 145.199219 376.015625 L 143.949219 374.789063 L 142.589844 373.621094 L 141.121094 372.511719 L 139.550781 371.464844 L 137.886719 370.484375 L 136.132813 369.578125 L 134.296875 368.746094 L 132.386719 367.992188 L 130.40625 367.320313 L 128.371094 366.734375 L 126.28125 366.234375 L 124.152344 365.820313 L 121.984375 365.496094 L 119.792969 365.265625 L 117.582031 365.125 L 115.363281 365.082031 L 113.144531 365.125 L 110.933594 365.265625 L 108.742188 365.496094 L 106.574219 365.820313 L 104.445313 366.234375 L 102.355469 366.734375 L 100.316406 367.320313 L 98.339844 367.992188 L 96.429688 368.746094 L 94.59375 369.578125 L 92.839844 370.484375 L 91.175781 371.464844 L 89.605469 372.511719 L 88.136719 373.621094 L 86.777344 374.789063 L 85.527344 376.015625 L 84.398438 377.289063 L 83.390625 378.605469 L 82.507813 379.964844 L 81.757813 381.355469 L 81.136719 382.777344 L 80.652344 384.222656 L 80.308594 385.683594 L 80.097656 387.15625 L 80.027344 388.636719 L 80.097656 390.117188 L 80.308594 391.589844 L 80.652344 393.050781 L 81.136719 394.496094 L 81.757813 395.917969 L 82.507813 397.308594 L 83.390625 398.667969 L 84.398438 399.984375 L 85.527344 401.257813 L 86.777344 402.484375 L 88.136719 403.652344 L 89.605469 404.761719 L 91.175781 405.808594 L 92.839844 406.789063 L 94.59375 407.695313 L 96.429688 408.527344 L 98.339844 409.28125 L 100.316406 409.953125 L 102.355469 410.539063 L 104.445313 411.039063 L 106.574219 411.453125 L 108.742188 411.777344 L 110.933594 412.007813 L 113.144531 412.148438 L 115.363281 412.195313 L 117.582031 412.148438 L 119.792969 412.007813 L 121.984375 411.777344 L 124.152344 411.453125 L 126.28125 411.039063 L 128.371094 410.539063 L 130.40625 409.953125 L 132.386719 409.28125 L 134.296875 408.527344 L 136.132813 407.695313 L 137.886719 406.789063 L 139.550781 405.808594 L 141.121094 404.761719 L 142.589844 403.652344 L 143.949219 402.484375 L 145.199219 401.257813 L 146.328125 399.984375 L 147.335938 398.667969 L 148.21875 397.308594 L 148.96875 395.917969 L 149.589844 394.496094 L 150.074219 393.050781 L 150.417969 391.589844 L 150.628906 390.117188 Z M 150.699219 388.636719 "/>
<path style="fill:none;stroke-width:2.25;stroke-linecap:round;stroke-linejoin:round;stroke:rgb(0%,0%,0%);stroke-opacity:1;stroke-miterlimit:10;" d="M 115.363281 329.746094 L 64.363281 359.191406 L 64.363281 418.082031 L 115.363281 447.527344 L 166.363281 418.082031 L 166.363281 359.191406 Z M 115.363281 329.746094 "/>
<path style="fill-rule:nonzero;fill:rgb(0%,0%,0%);fill-opacity:1;stroke-width:1.5;stroke-linecap:round;stroke-linejoin:round;stroke:rgb(0%,0%,0%);stroke-opacity:1;stroke-miterlimit:10;" d="M 293.613281 388.636719 L 293.566406 387.15625 L 293.429688 385.683594 L 293.195313 384.222656 L 292.875 382.777344 L 292.460938 381.355469 L 291.960938 379.964844 L 291.371094 378.605469 L 290.699219 377.289063 L 289.945313 376.015625 L 289.117188 374.789063 L 288.207031 373.621094 L 287.230469 372.511719 L 286.183594 371.464844 L 285.074219 370.484375 L 283.902344 369.578125 L 282.679688 368.746094 L 281.40625 367.992188 L 280.085938 367.320313 L 278.730469 366.734375 L 277.335938 366.234375 L 275.914063 365.820313 L 274.472656 365.496094 L 273.011719 365.265625 L 271.535156 365.125 L 270.058594 365.082031 L 268.578125 365.125 L 267.105469 365.265625 L 265.644531 365.496094 L 264.199219 365.820313 L 262.777344 366.234375 L 261.386719 366.734375 L 260.027344 367.320313 L 258.710938 367.992188 L 257.433594 368.746094 L 256.210938 369.578125 L 255.042969 370.484375 L 253.933594 371.464844 L 252.886719 372.511719 L 251.90625 373.621094 L 251 374.789063 L 250.167969 376.015625 L 249.414063 377.289063 L 248.742188 378.605469 L 248.15625 379.964844 L 247.652344 381.355469 L 247.242188 382.777344 L 246.917969 384.222656 L 246.6875 385.683594 L 246.546875 387.15625 L 246.5 388.636719 L 246.546875 390.117188 L 246.6875 391.589844 L 246.917969 393.050781 L 247.242188 394.496094 L 247.652344 395.917969 L 248.15625 397.308594 L 248.742188 398.667969 L 249.414063 399.984375 L 250.167969 401.257813 L 251 402.484375 L 251.90625 403.652344 L 252.886719 404.761719 L 253.933594 405.808594 L 255.042969 406.789063 L 256.210938 407.695313 L 257.433594 408.527344 L 258.710938 409.28125 L 260.027344 409.953125 L 261.386719 410.539063 L 262.777344 411.039063 L 264.199219 411.453125 L 265.644531 411.777344 L 267.105469 412.007813 L 268.578125 412.148438 L 270.058594 412.195313 L 271.535156 412.148438 L 273.011719 412.007813 L 274.472656 411.777344 L 275.914063 411.453125 L 277.335938 411.039063 L 278.730469 410.539063 L 280.085938 409.953125 L 281.40625 409.28125 L 282.679688 408.527344 L 283.902344 407.695313 L 285.074219 406.789063 L 286.183594 405.808594 L 287.230469 404.761719 L 288.207031 403.652344 L 289.117188 402.484375 L 289.945313 401.257813 L 290.699219 399.984375 L 291.371094 398.667969 L 291.960938 397.308594 L 292.460938 395.917969 L 292.875 394.496094 L 293.195313 393.050781 L 293.429688 391.589844 L 293.566406 390.117188 Z M 293.613281 388.636719 "/>
<path style="fill:none;stroke-width:2.25;stroke-linecap:round;stroke-linejoin:round;stroke:rgb(0%,0%,0%);stroke-opacity:1;stroke-miterlimit:10;" d="M 211.164063 388.636719 L 270.058594 447.527344 L 328.949219 388.636719 L 270.058594 329.746094 Z M 211.164063 388.636719 "/>
</g>
</svg>
