<?xml version="1.0" encoding="UTF-8"?>
<svg xmlns="http://www.w3.org/2000/svg" xmlns:xlink="http://www.w3.org/1999/xlink" width="1008pt" height="612pt" viewBox="0 0 1008 612" version="1.1">
<g id="surface51">
<rect x="0" y="0" width="1008" height="612" style="fill:rgb(100%,100%,100%);fill-opacity:1;stroke:none;"/>
<path style="fill:none;stroke-width:2.25;stroke-linecap:round;stroke-linejoin:round;stroke:rgb(0%,0%,0%);stroke-opacity:1;stroke-miterlimit:10;" d="M 240.761719 55.851563 L 238.746094 53.925781 L 236.640625 52.101563 L 234.449219 50.378906 L 232.179688 48.761719 L 229.835938 47.257813 L 227.421875 45.863281 L 224.945313 44.585938 L 222.410156 43.429688 L 219.824219 42.394531 L 217.191406 41.480469 L 214.515625 40.695313 L 211.808594 40.039063 L 209.070313 39.511719 L 206.3125 39.117188 L 203.539063 38.851563 L 200.757813 38.71875 L 197.96875 38.71875 L 195.1875 38.851563 L 192.414063 39.117188 L 189.65625 39.511719 L 186.917969 40.039063 L 184.210938 40.695313 L 181.535156 41.480469 L 178.902344 42.394531 L 176.316406 43.429688 L 173.78125 44.585938 L 171.304688 45.863281 L 168.890625 47.257813 L 166.546875 48.761719 L 164.277344 50.378906 L 162.085938 52.101563 L 159.980469 53.925781 L 157.964844 55.851563 L 156.042969 57.867188 L 154.21875 59.972656 L 152.496094 62.164063 L 150.878906 64.433594 L 149.371094 66.777344 L 147.980469 69.191406 L 146.703125 71.667969 L 145.542969 74.203125 L 144.507813 76.789063 L 143.597656 79.421875 L 142.8125 82.09375 L 142.15625 84.804688 L 141.628906 87.539063 L 141.230469 90.296875 L 140.964844 93.070313 L 140.832031 95.855469 L 140.832031 98.640625 L 140.964844 101.425781 L 141.230469 104.199219 L 141.628906 106.957031 L 142.15625 109.691406 L 142.8125 112.402344 L 143.597656 115.074219 L 144.507813 117.707031 L 145.542969 120.292969 L 146.703125 122.828125 L 147.980469 125.304688 L 149.371094 127.71875 L 150.878906 130.0625 L 152.496094 132.332031 L 154.21875 134.523438 L 156.042969 136.628906 L 157.964844 138.644531 L 159.980469 140.570313 L 162.085938 142.394531 L 164.277344 144.117188 L 166.546875 145.734375 L 168.890625 147.238281 L 171.304688 148.632813 L 173.78125 149.910156 L 176.316406 151.066406 L 178.902344 152.101563 L 181.535156 153.015625 L 184.210938 153.800781 L 186.917969 154.457031 L 189.65625 154.984375 L 192.414063 155.378906 L 195.1875 155.644531 L 197.96875 155.777344 L 200.757813 155.777344 L 203.539063 155.644531 L 206.3125 155.378906 L 209.070313 154.984375 L 211.808594 154.457031 L 214.515625 153.800781 L 217.191406 153.015625 L 219.824219 152.101563 L 222.410156 151.066406 L 224.945313 149.910156 L 227.421875 148.632813 L 229.835938 147.238281 L 232.179688 145.734375 L 234.449219 144.117188 L 236.640625 142.394531 L 238.746094 140.570313 L 240.761719 138.644531 L 199.363281 97.246094 Z M 240.761719 55.851563 "/>
<path style="fill:none;stroke-width:2.25;stroke-linecap:round;stroke-linejoin:round;stroke:rgb(0%,0%,0%);stroke-opacity:1;stroke-miterlimit:10;" d="M 541.574219 77.734375 L 540.675781 76.914063 L 539.707031 76.175781 L 538.667969 75.519531 L 537.5625 74.949219 L 536.394531 74.464844 L 535.171875 74.074219 L 533.898438 73.773438 L 532.578125 73.566406 L 531.214844 73.449219 L 529.816406 73.429688 L 528.386719 73.503906 L 526.933594 73.671875 L 525.457031 73.929688 L 523.972656 74.28125 L 522.476563 74.726563 L 520.980469 75.257813 L 519.488281 75.875 L 518.007813 76.578125 L 516.539063 77.363281 L 515.097656 78.226563 L 513.679688 79.164063 L 512.296875 80.171875 L 510.949219 81.25 L 509.648438 82.390625 L 508.398438 83.585938 L 507.199219 84.839844 L 506.058594 86.140625 L 504.980469 87.484375 L 503.972656 88.871094 L 503.035156 90.285156 L 502.171875 91.730469 L 501.386719 93.195313 L 500.683594 94.679688 L 500.066406 96.171875 L 499.535156 97.667969 L 499.09375 99.160156 L 498.742188 100.648438 L 498.480469 102.121094 L 498.3125 103.578125 L 498.238281 105.007813 L 498.261719 106.40625 L 498.375 107.769531 L 498.582031 109.089844 L 498.882813 110.363281 L 499.277344 111.585938 L 499.757813 112.753906 L 500.328125 113.859375 L 500.984375 114.898438 L 501.722656 115.867188 L 502.542969 116.761719 L 503.4375 117.582031 L 504.410156 118.320313 L 505.449219 118.976563 L 506.550781 119.546875 L 507.71875 120.03125 L 508.941406 120.421875 L 510.214844 120.722656 L 511.539063 120.929688 L 512.898438 121.046875 L 514.300781 121.066406 L 515.726563 120.992188 L 517.183594 120.824219 L 518.65625 120.566406 L 520.144531 120.214844 L 521.636719 119.769531 L 523.136719 119.238281 L 524.628906 118.621094 L 526.109375 117.917969 L 527.574219 117.132813 L 529.019531 116.269531 L 530.4375 115.332031 L 531.820313 114.324219 L 533.164063 113.246094 L 534.464844 112.105469 L 535.71875 110.910156 L 536.917969 109.65625 L 538.054688 108.355469 L 539.132813 107.011719 L 540.140625 105.625 L 541.082031 104.210938 L 541.941406 102.765625 L 542.726563 101.300781 L 543.429688 99.816406 L 544.046875 98.324219 L 544.582031 96.828125 L 545.023438 95.335938 L 545.375 93.847656 L 545.636719 92.375 L 545.800781 90.917969 L 545.875 89.488281 L 545.855469 88.089844 L 545.738281 86.726563 L 545.53125 85.40625 L 545.230469 84.132813 L 544.839844 82.910156 L 544.355469 81.742188 L 543.785156 80.636719 L 543.132813 79.597656 L 542.390625 78.628906 Z M 541.574219 77.734375 "/>
<path style="fill:none;stroke-width:2.25;stroke-linecap:round;stroke-linejoin:round;stroke:rgb(0%,0%,0%);stroke-opacity:1;stroke-miterlimit:10;" d="M 830.953125 83.449219 L 830.523438 83.894531 L 830.105469 84.351563 L 829.703125 84.824219 L 829.316406 85.304688 L 828.945313 85.800781 L 828.589844 86.308594 L 828.25 86.828125 L 827.929688 87.355469 L 827.625 87.894531 L 827.335938 88.445313 L 827.066406 89 L 826.8125 89.566406 L 826.578125 90.140625 L 826.359375 90.71875 L 826.164063 91.304688 L 825.984375 91.898438 L 825.824219 92.496094 L 825.683594 93.101563 L 825.5625 93.707031 L 825.457031 94.316406 L 825.375 94.929688 L 825.3125 95.546875 L 825.265625 96.164063 L 825.242188 96.785156 L 825.238281 97.402344 L 825.253906 98.023438 L 825.285156 98.640625 L 825.339844 99.257813 L 825.414063 99.871094 L 825.507813 100.484375 L 825.621094 101.09375 L 825.75 101.699219 L 825.902344 102.300781 L 826.070313 102.894531 L 826.261719 103.484375 L 826.46875 104.066406 L 826.691406 104.644531 L 826.9375 105.214844 L 827.199219 105.773438 L 827.476563 106.328125 L 827.773438 106.871094 L 828.089844 107.40625 L 828.417969 107.929688 L 828.765625 108.441406 L 829.128906 108.941406 L 829.507813 109.433594 L 829.902344 109.910156 L 830.3125 110.375 L 830.734375 110.828125 L 831.171875 111.265625 L 831.625 111.6875 L 832.089844 112.097656 L 832.566406 112.492188 L 833.058594 112.871094 L 833.558594 113.234375 L 834.070313 113.582031 L 834.59375 113.910156 L 835.128906 114.226563 L 835.671875 114.523438 L 836.226563 114.800781 L 836.785156 115.0625 L 837.355469 115.308594 L 837.933594 115.53125 L 838.515625 115.738281 L 839.105469 115.929688 L 839.699219 116.097656 L 840.300781 116.25 L 840.90625 116.378906 L 841.515625 116.492188 L 842.128906 116.585938 L 842.742188 116.660156 L 843.359375 116.714844 L 843.976563 116.746094 L 844.597656 116.761719 L 845.214844 116.757813 L 845.835938 116.734375 L 846.453125 116.6875 L 847.070313 116.625 L 847.683594 116.542969 L 848.292969 116.4375 L 848.898438 116.316406 L 849.503906 116.175781 L 850.101563 116.015625 L 850.695313 115.835938 L 851.28125 115.640625 L 851.859375 115.421875 L 852.433594 115.1875 L 853 114.933594 L 853.554688 114.664063 L 854.105469 114.375 L 854.644531 114.070313 L 855.171875 113.75 L 855.691406 113.410156 L 856.199219 113.054688 L 856.695313 112.683594 L 857.175781 112.296875 L 857.648438 111.894531 L 858.105469 111.476563 L 858.550781 111.046875 L 844.753906 97.246094 Z M 830.953125 83.449219 "/>
<path style="fill:none;stroke-width:2.25;stroke-linecap:round;stroke-linejoin:round;stroke:rgb(0%,0%,0%);stroke-opacity:1;stroke-miterlimit:10;" d="M 238.394531 248.910156 L 236.601563 247.273438 L 234.660156 245.796875 L 232.582031 244.484375 L 230.371094 243.34375 L 228.039063 242.378906 L 225.59375 241.59375 L 223.046875 240.992188 L 220.402344 240.578125 L 217.679688 240.347656 L 214.878906 240.308594 L 212.019531 240.453125 L 209.113281 240.789063 L 206.164063 241.308594 L 203.191406 242.011719 L 200.203125 242.898438 L 197.207031 243.960938 L 194.222656 245.199219 L 191.261719 246.601563 L 188.328125 248.171875 L 185.441406 249.898438 L 182.605469 251.773438 L 179.839844 253.792969 L 177.148438 255.945313 L 174.546875 258.222656 L 172.042969 260.621094 L 169.644531 263.125 L 167.367188 265.726563 L 165.210938 268.417969 L 163.195313 271.1875 L 161.316406 274.019531 L 159.59375 276.90625 L 158.023438 279.839844 L 156.617188 282.804688 L 155.382813 285.789063 L 154.316406 288.78125 L 153.433594 291.769531 L 152.730469 294.746094 L 152.207031 297.691406 L 151.875 300.601563 L 151.726563 303.460938 L 151.769531 306.257813 L 152 308.984375 L 152.414063 311.625 L 153.015625 314.175781 L 153.800781 316.621094 L 154.765625 318.953125 L 155.90625 321.160156 L 157.214844 323.242188 L 158.695313 325.179688 L 160.332031 326.972656 L 162.125 328.613281 L 164.066406 330.089844 L 166.144531 331.402344 L 168.351563 332.542969 L 170.6875 333.503906 L 173.132813 334.289063 L 175.679688 334.890625 L 178.324219 335.308594 L 181.046875 335.535156 L 183.847656 335.578125 L 186.703125 335.429688 L 189.613281 335.097656 L 192.5625 334.578125 L 195.535156 333.871094 L 198.523438 332.988281 L 201.519531 331.925781 L 204.503906 330.6875 L 207.464844 329.28125 L 210.398438 327.714844 L 213.285156 325.988281 L 216.121094 324.113281 L 218.886719 322.09375 L 221.578125 319.941406 L 224.179688 317.660156 L 226.683594 315.265625 L 229.082031 312.757813 L 231.359375 310.15625 L 233.515625 307.464844 L 235.53125 304.699219 L 237.410156 301.867188 L 239.132813 298.976563 L 240.703125 296.046875 L 242.109375 293.082031 L 243.34375 290.097656 L 244.410156 287.105469 L 245.292969 284.113281 L 245.996094 281.140625 L 246.519531 278.191406 L 246.851563 275.285156 L 247 272.425781 L 246.957031 269.628906 L 246.726563 266.902344 L 246.3125 264.257813 L 245.710938 261.710938 L 244.925781 259.265625 L 243.960938 256.933594 L 242.820313 254.722656 L 241.511719 252.644531 L 240.03125 250.703125 Z M 238.394531 248.910156 "/>
<path style="fill:none;stroke-width:2.25;stroke-linecap:round;stroke-linejoin:round;stroke:rgb(0%,0%,0%);stroke-opacity:1;stroke-miterlimit:10;" d="M 501.359375 267.242188 L 500.710938 267.910156 L 500.085938 268.597656 L 499.484375 269.304688 L 498.90625 270.03125 L 498.347656 270.773438 L 497.816406 271.535156 L 497.308594 272.3125 L 496.824219 273.105469 L 496.367188 273.914063 L 495.933594 274.734375 L 495.527344 275.570313 L 495.148438 276.417969 L 494.796875 277.277344 L 494.472656 278.148438 L 494.175781 279.027344 L 493.90625 279.917969 L 493.664063 280.816406 L 493.453125 281.71875 L 493.269531 282.628906 L 493.117188 283.546875 L 492.992188 284.46875 L 492.894531 285.390625 L 492.828125 286.316406 L 492.792969 287.246094 L 492.785156 288.175781 L 492.808594 289.101563 L 492.859375 290.03125 L 492.941406 290.957031 L 493.050781 291.878906 L 493.191406 292.796875 L 493.359375 293.710938 L 493.554688 294.617188 L 493.78125 295.519531 L 494.035156 296.410156 L 494.320313 297.296875 L 494.628906 298.171875 L 494.96875 299.039063 L 495.335938 299.890625 L 495.726563 300.734375 L 496.144531 301.5625 L 496.589844 302.378906 L 497.0625 303.179688 L 497.558594 303.964844 L 498.078125 304.734375 L 498.625 305.484375 L 499.191406 306.21875 L 499.785156 306.9375 L 500.398438 307.632813 L 501.03125 308.308594 L 501.691406 308.96875 L 502.367188 309.601563 L 503.0625 310.214844 L 503.78125 310.808594 L 504.515625 311.375 L 505.265625 311.921875 L 506.035156 312.441406 L 506.820313 312.9375 L 507.621094 313.410156 L 508.4375 313.855469 L 509.265625 314.273438 L 510.109375 314.664063 L 510.960938 315.03125 L 511.828125 315.371094 L 512.703125 315.679688 L 513.589844 315.964844 L 514.480469 316.21875 L 515.382813 316.445313 L 516.289063 316.640625 L 517.203125 316.808594 L 518.121094 316.949219 L 519.042969 317.058594 L 519.96875 317.140625 L 520.898438 317.191406 L 521.824219 317.214844 L 522.753906 317.207031 L 523.683594 317.171875 L 524.609375 317.105469 L 525.53125 317.007813 L 526.453125 316.882813 L 527.371094 316.730469 L 528.28125 316.546875 L 529.183594 316.335938 L 530.082031 316.09375 L 530.972656 315.824219 L 531.851563 315.527344 L 532.722656 315.203125 L 533.582031 314.851563 L 534.429688 314.472656 L 535.265625 314.066406 L 536.085938 313.632813 L 536.894531 313.175781 L 537.6875 312.691406 L 538.464844 312.183594 L 539.226563 311.652344 L 539.96875 311.09375 L 540.695313 310.515625 L 541.402344 309.914063 L 542.089844 309.289063 L 542.757813 308.640625 Z M 501.359375 267.242188 "/>
<path style="fill:none;stroke-width:2.25;stroke-linecap:round;stroke-linejoin:round;stroke:rgb(0%,0%,0%);stroke-opacity:1;stroke-miterlimit:10;" d="M 825.238281 287.941406 L 825.257813 288.871094 L 825.324219 289.796875 L 825.433594 290.71875 L 825.589844 291.636719 L 825.785156 292.542969 L 826.027344 293.441406 L 826.308594 294.324219 L 826.632813 295.195313 L 827 296.050781 L 827.40625 296.886719 L 827.851563 297.699219 L 828.335938 298.492188 L 828.855469 299.261719 L 829.410156 300.007813 L 830.003906 300.722656 L 830.628906 301.410156 L 831.285156 302.066406 L 831.972656 302.691406 L 832.6875 303.28125 L 833.433594 303.839844 L 834.203125 304.359375 L 834.996094 304.84375 L 835.808594 305.289063 L 836.644531 305.695313 L 837.5 306.058594 L 838.371094 306.382813 L 839.253906 306.667969 L 840.152344 306.90625 L 841.058594 307.105469 L 841.976563 307.257813 L 842.898438 307.371094 L 843.824219 307.4375 L 844.753906 307.457031 L 845.679688 307.4375 L 846.605469 307.371094 L 847.53125 307.257813 L 848.445313 307.105469 L 849.351563 306.90625 L 850.25 306.667969 L 851.136719 306.382813 L 852.003906 306.058594 L 852.859375 305.695313 L 853.695313 305.289063 L 854.507813 304.84375 L 855.304688 304.359375 L 856.070313 303.839844 L 856.816406 303.28125 L 857.53125 302.691406 L 858.21875 302.066406 L 858.875 301.410156 L 859.5 300.722656 L 860.09375 300.007813 L 860.648438 299.261719 L 861.167969 298.492188 L 861.652344 297.699219 L 862.097656 296.886719 L 862.503906 296.050781 L 862.871094 295.195313 L 863.195313 294.324219 L 863.476563 293.441406 L 863.71875 292.542969 L 863.914063 291.636719 L 864.070313 290.71875 L 864.179688 289.796875 L 864.246094 288.871094 L 864.265625 287.941406 L 864.246094 287.015625 L 864.179688 286.085938 L 864.070313 285.164063 L 863.914063 284.25 L 863.71875 283.339844 L 863.476563 282.445313 L 863.195313 281.558594 L 862.871094 280.6875 L 862.503906 279.835938 L 862.097656 279 L 861.652344 278.183594 L 861.167969 277.390625 L 860.648438 276.621094 L 860.09375 275.878906 L 859.5 275.164063 L 858.875 274.476563 L 858.21875 273.820313 L 857.53125 273.195313 L 856.816406 272.601563 L 856.070313 272.046875 L 855.304688 271.523438 L 854.507813 271.042969 L 853.695313 270.597656 L 852.859375 270.191406 L 852.003906 269.824219 L 851.136719 269.5 L 850.25 269.21875 L 849.351563 268.976563 L 848.445313 268.78125 L 847.53125 268.625 L 846.605469 268.515625 L 845.679688 268.449219 L 844.753906 268.425781 L 844.753906 287.941406 Z M 825.238281 287.941406 "/>
<path style="fill:none;stroke-width:2.25;stroke-linecap:round;stroke-linejoin:round;stroke:rgb(0%,0%,0%);stroke-opacity:1;stroke-miterlimit:10;" d="M 157.964844 437.238281 L 156.671875 438.574219 L 155.421875 439.949219 L 154.21875 441.359375 L 153.058594 442.8125 L 151.945313 444.300781 L 150.878906 445.820313 L 149.863281 447.375 L 148.894531 448.960938 L 147.980469 450.578125 L 147.113281 452.222656 L 146.300781 453.894531 L 145.542969 455.589844 L 144.839844 457.308594 L 144.191406 459.050781 L 143.597656 460.808594 L 143.058594 462.589844 L 142.578125 464.382813 L 142.15625 466.191406 L 141.789063 468.011719 L 141.480469 469.84375 L 141.230469 471.6875 L 141.039063 473.535156 L 140.90625 475.386719 L 140.832031 477.242188 L 140.820313 479.101563 L 140.863281 480.957031 L 140.964844 482.8125 L 141.128906 484.664063 L 141.347656 486.507813 L 141.628906 488.34375 L 141.964844 490.171875 L 142.359375 491.988281 L 142.8125 493.789063 L 143.320313 495.578125 L 143.886719 497.347656 L 144.507813 499.097656 L 145.183594 500.828125 L 145.917969 502.535156 L 146.703125 504.21875 L 147.539063 505.875 L 148.429688 507.507813 L 149.371094 509.109375 L 150.363281 510.679688 L 151.40625 512.21875 L 152.496094 513.722656 L 153.632813 515.191406 L 154.816406 516.625 L 156.042969 518.019531 L 157.3125 519.371094 L 158.628906 520.6875 L 159.980469 521.957031 L 161.375 523.183594 L 162.808594 524.367188 L 164.277344 525.503906 L 165.78125 526.59375 L 167.320313 527.636719 L 168.890625 528.628906 L 170.492188 529.570313 L 172.125 530.460938 L 173.78125 531.296875 L 175.464844 532.082031 L 177.171875 532.816406 L 178.902344 533.492188 L 180.652344 534.113281 L 182.421875 534.679688 L 184.210938 535.1875 L 186.011719 535.640625 L 187.828125 536.035156 L 189.65625 536.371094 L 191.492188 536.652344 L 193.335938 536.871094 L 195.1875 537.035156 L 197.042969 537.136719 L 198.898438 537.179688 L 200.757813 537.167969 L 202.613281 537.09375 L 204.464844 536.960938 L 206.3125 536.769531 L 208.15625 536.519531 L 209.988281 536.210938 L 211.808594 535.84375 L 213.617188 535.421875 L 215.410156 534.941406 L 217.191406 534.402344 L 218.949219 533.808594 L 220.691406 533.160156 L 222.410156 532.457031 L 224.105469 531.699219 L 225.777344 530.886719 L 227.421875 530.019531 L 229.039063 529.105469 L 230.625 528.136719 L 232.179688 527.121094 L 233.699219 526.054688 L 235.1875 524.941406 L 236.640625 523.78125 L 238.050781 522.578125 L 239.425781 521.328125 L 240.761719 520.035156 Z M 157.964844 437.238281 "/>
<path style="fill:none;stroke-width:2.25;stroke-linecap:round;stroke-linejoin:round;stroke:rgb(0%,0%,0%);stroke-opacity:1;stroke-miterlimit:10;" d="M 492.785156 478.636719 L 492.816406 480.03125 L 492.917969 481.417969 L 493.082031 482.804688 L 493.3125 484.175781 L 493.609375 485.539063 L 493.96875 486.882813 L 494.394531 488.210938 L 494.882813 489.515625 L 495.429688 490.796875 L 496.039063 492.050781 L 496.707031 493.273438 L 497.433594 494.464844 L 498.210938 495.617188 L 499.046875 496.730469 L 499.933594 497.804688 L 500.871094 498.835938 L 501.855469 499.824219 L 502.886719 500.761719 L 503.960938 501.648438 L 505.078125 502.480469 L 506.230469 503.261719 L 507.421875 503.988281 L 508.644531 504.65625 L 509.898438 505.265625 L 511.179688 505.8125 L 512.484375 506.300781 L 513.808594 506.722656 L 515.15625 507.085938 L 516.519531 507.378906 L 517.890625 507.613281 L 519.273438 507.777344 L 520.664063 507.875 L 522.058594 507.910156 L 523.449219 507.875 L 524.839844 507.777344 L 526.222656 507.613281 L 527.597656 507.378906 L 528.957031 507.085938 L 530.304688 506.722656 L 531.632813 506.300781 L 532.9375 505.8125 L 534.21875 505.265625 L 535.472656 504.65625 L 536.695313 503.988281 L 537.882813 503.261719 L 539.039063 502.480469 L 540.152344 501.648438 L 541.226563 500.761719 L 542.257813 499.824219 L 543.242188 498.835938 L 544.179688 497.804688 L 545.066406 496.730469 L 545.902344 495.617188 L 546.683594 494.464844 L 547.410156 493.273438 L 548.078125 492.050781 L 548.683594 490.796875 L 549.234375 489.515625 L 549.71875 488.210938 L 550.144531 486.882813 L 550.503906 485.539063 L 550.800781 484.175781 L 551.03125 482.804688 L 551.199219 481.417969 L 551.296875 480.03125 L 551.332031 478.636719 L 551.296875 477.242188 L 551.199219 475.855469 L 551.03125 474.472656 L 550.800781 473.097656 L 550.503906 471.734375 L 550.144531 470.390625 L 549.71875 469.0625 L 549.234375 467.757813 L 548.683594 466.476563 L 548.078125 465.222656 L 547.410156 464 L 546.683594 462.8125 L 545.902344 461.65625 L 545.066406 460.542969 L 544.179688 459.46875 L 543.242188 458.4375 L 542.257813 457.449219 L 541.226563 456.515625 L 540.152344 455.625 L 539.039063 454.792969 L 537.882813 454.011719 L 536.695313 453.285156 L 535.472656 452.617188 L 534.21875 452.007813 L 532.9375 451.460938 L 531.632813 450.972656 L 530.304688 450.550781 L 528.957031 450.1875 L 527.597656 449.894531 L 526.222656 449.660156 L 524.839844 449.496094 L 523.449219 449.398438 L 522.058594 449.363281 L 522.058594 478.636719 Z M 492.785156 478.636719 "/>
</g>
</svg>
