<?xml version="1.0" encoding="UTF-8"?>
<svg xmlns="http://www.w3.org/2000/svg" xmlns:xlink="http://www.w3.org/1999/xlink" width="1008pt" height="612pt" viewBox="0 0 1008 612" version="1.1">
<g id="surface51">
<rect x="0" y="0" width="1008" height="612" style="fill:rgb(100%,100%,100%);fill-opacity:1;stroke:none;"/>
<path style="fill-rule:nonzero;fill:rgb(74.509804%,74.509804%,74.509804%);fill-opacity:1;stroke-width:2.25;stroke-linecap:round;stroke-linejoin:round;stroke:rgb(0%,0%,0%);stroke-opacity:1;stroke-miterlimit:10;" d="M 199.363281 22.730469 L 128.492188 74.222656 L 155.5625 157.535156 L 243.164063 157.535156 L 270.234375 74.222656 Z M 199.363281 22.730469 "/>
<path style="fill-rule:nonzero;fill:rgb(100%,100%,100%);fill-opacity:1;stroke-width:2.25;stroke-linecap:round;stroke-linejoin:round;stroke:rgb(0%,0%,0%);stroke-opacity:1;stroke-miterlimit:10;" d="M 240.761719 55.851563 L 238.746094 53.925781 L 236.640625 52.101563 L 234.449219 50.378906 L 232.179688 48.761719 L 229.835938 47.257813 L 227.421875 45.863281 L 224.945313 44.585938 L 222.410156 43.429688 L 219.824219 42.394531 L 217.191406 41.480469 L 214.515625 40.695313 L 211.808594 40.039063 L 209.070313 39.511719 L 206.3125 39.117188 L 203.539063 38.851563 L 200.757813 38.71875 L 197.96875 38.71875 L 195.1875 38.851563 L 192.414063 39.117188 L 189.65625 39.511719 L 186.917969 40.039063 L 184.210938 40.695313 L 181.535156 41.480469 L 178.902344 42.394531 L 176.316406 43.429688 L 173.78125 44.585938 L 171.304688 45.863281 L 168.890625 47.257813 L 166.546875 48.761719 L 164.277344 50.378906 L 162.085938 52.101563 L 159.980469 53.925781 L 157.964844 55.851563 L 156.042969 57.867188 L 154.21875 59.972656 L 152.496094 62.164063 L 150.878906 64.433594 L 149.371094 66.777344 L 147.980469 69.191406 L 146.703125 71.667969 L 145.542969 74.203125 L 144.507813 76.789063 L 143.597656 79.421875 L 142.8125 82.09375 L 142.15625 84.804688 L 141.628906 87.539063 L 141.230469 90.296875 L 140.964844 93.070313 L 140.832031 95.855469 L 140.832031 98.640625 L 140.964844 101.425781 L 141.230469 104.199219 L 141.628906 106.957031 L 142.15625 109.691406 L 142.8125 112.402344 L 143.597656 115.074219 L 144.507813 117.707031 L 145.542969 120.292969 L 146.703125 122.828125 L 147.980469 125.304688 L 149.371094 127.71875 L 150.878906 130.0625 L 152.496094 132.332031 L 154.21875 134.523438 L 156.042969 136.628906 L 157.964844 138.644531 L 159.980469 140.570313 L 162.085938 142.394531 L 164.277344 144.117188 L 166.546875 145.734375 L 168.890625 147.238281 L 171.304688 148.632813 L 173.78125 149.910156 L 176.316406 151.066406 L 178.902344 152.101563 L 181.535156 153.015625 L 184.210938 153.800781 L 186.917969 154.457031 L 189.65625 154.984375 L 192.414063 155.378906 L 195.1875 155.644531 L 197.96875 155.777344 L 200.757813 155.777344 L 203.539063 155.644531 L 206.3125 155.378906 L 209.070313 154.984375 L 211.808594 154.457031 L 214.515625 153.800781 L 217.191406 153.015625 L 219.824219 152.101563 L 222.410156 151.066406 L 224.945313 149.910156 L 227.421875 148.632813 L 229.835938 147.238281 L 232.179688 145.734375 L 234.449219 144.117188 L 236.640625 142.394531 L 238.746094 140.570313 L 240.761719 138.644531 L 199.363281 97.246094 Z M 240.761719 55.851563 "/>
<path style="fill-rule:nonzero;fill:rgb(74.509804%,74.509804%,74.509804%);fill-opacity:1;stroke-width:2.25;stroke-linecap:round;stroke-linejoin:round;stroke:rgb(0%,0%,0%);stroke-opacity:1;stroke-miterlimit:10;" d="M 522.058594 22.730469 L 451.1875 74.222656 L 478.257813 157.535156 L 565.855469 157.535156 L 592.925781 74.222656 Z M 522.058594 22.730469 "/>
<path style="fill-rule:nonzero;fill:rgb(100%,100%,100%);fill-opacity:1;stroke-width:2.25;stroke-linecap:round;stroke-linejoin:round;stroke:rgb(0%,0%,0%);stroke-opacity:1;stroke-miterlimit:10;" d="M 541.574219 77.734375 L 540.675781 76.914063 L 539.707031 76.175781 L 538.667969 75.519531 L 537.5625 74.949219 L 536.394531 74.464844 L 535.171875 74.074219 L 533.898438 73.773438 L 532.578125 73.566406 L 531.214844 73.449219 L 529.816406 73.429688 L 528.386719 73.503906 L 526.933594 73.671875 L 525.457031 73.929688 L 523.972656 74.28125 L 522.476563 74.726563 L 520.980469 75.257813 L 519.488281 75.875 L 518.007813 76.578125 L 516.539063 77.363281 L 515.097656 78.226563 L 513.679688 79.164063 L 512.296875 80.171875 L 510.949219 81.25 L 509.648438 82.390625 L 508.398438 83.585938 L 507.199219 84.839844 L 506.058594 86.140625 L 504.980469 87.484375 L 503.972656 88.871094 L 503.035156 90.285156 L 502.171875 91.730469 L 501.386719 93.195313 L 500.683594 94.679688 L 500.066406 96.171875 L 499.535156 97.667969 L 499.09375 99.160156 L 498.742188 100.648438 L 498.480469 102.121094 L 498.3125 103.578125 L 498.238281 105.007813 L 498.261719 106.40625 L 498.375 107.769531 L 498.582031 109.089844 L 498.882813 110.363281 L 499.277344 111.585938 L 499.757813 112.753906 L 500.328125 113.859375 L 500.984375 114.898438 L 501.722656 115.867188 L 502.542969 116.761719 L 503.4375 117.582031 L 504.410156 118.320313 L 505.449219 118.976563 L 506.550781 119.546875 L 507.71875 120.03125 L 508.941406 120.421875 L 510.214844 120.722656 L 511.539063 120.929688 L 512.898438 121.046875 L 514.300781 121.066406 L 515.726563 120.992188 L 517.183594 120.824219 L 518.65625 120.566406 L 520.144531 120.214844 L 521.636719 119.769531 L 523.136719 119.238281 L 524.628906 118.621094 L 526.109375 117.917969 L 527.574219 117.132813 L 529.019531 116.269531 L 530.4375 115.332031 L 531.820313 114.324219 L 533.164063 113.246094 L 534.464844 112.105469 L 535.71875 110.910156 L 536.917969 109.65625 L 538.054688 108.355469 L 539.132813 107.011719 L 540.140625 105.625 L 541.082031 104.210938 L 541.941406 102.765625 L 542.726563 101.300781 L 543.429688 99.816406 L 544.046875 98.324219 L 544.582031 96.828125 L 545.023438 95.335938 L 545.375 93.847656 L 545.636719 92.375 L 545.800781 90.917969 L 545.875 89.488281 L 545.855469 88.089844 L 545.738281 86.726563 L 545.53125 85.40625 L 545.230469 84.132813 L 544.839844 82.910156 L 544.355469 81.742188 L 543.785156 80.636719 L 543.132813 79.597656 L 542.390625 78.628906 Z M 541.574219 77.734375 "/>
<path style="fill-rule:nonzero;fill:rgb(74.509804%,74.509804%,74.509804%);fill-opacity:1;stroke-width:2.25;stroke-linecap:round;stroke-linejoin:round;stroke:rgb(0%,0%,0%);stroke-opacity:1;stroke-miterlimit:10;" d="M 844.753906 22.730469 L 773.882813 74.222656 L 800.953125 157.535156 L 888.550781 157.535156 L 915.621094 74.222656 Z M 844.753906 22.730469 "/>
<path style="fill-rule:nonzero;fill:rgb(100%,100%,100%);fill-opacity:1;stroke-width:2.25;stroke-linecap:round;stroke-linejoin:round;stroke:rgb(0%,0%,0%);stroke-opacity:1;stroke-miterlimit:10;" d="M 830.953125 83.449219 L 830.523438 83.894531 L 830.105469 84.351563 L 829.703125 84.824219 L 829.316406 85.304688 L 828.945313 85.800781 L 828.589844 86.308594 L 828.25 86.828125 L 827.929688 87.355469 L 827.625 87.894531 L 827.335938 88.445313 L 827.066406 89 L 826.8125 89.566406 L 826.578125 90.140625 L 826.359375 90.71875 L 826.164063 91.304688 L 825.984375 91.898438 L 825.824219 92.496094 L 825.683594 93.101563 L 825.5625 93.707031 L 825.457031 94.316406 L 825.375 94.929688 L 825.3125 95.546875 L 825.265625 96.164063 L 825.242188 96.785156 L 825.238281 97.402344 L 825.253906 98.023438 L 825.285156 98.640625 L 825.339844 99.257813 L 825.414063 99.871094 L 825.507813 100.484375 L 825.621094 101.09375 L 825.75 101.699219 L 825.902344 102.300781 L 826.070313 102.894531 L 826.261719 103.484375 L 826.46875 104.066406 L 826.691406 104.644531 L 826.9375 105.214844 L 827.199219 105.773438 L 827.476563 106.328125 L 827.773438 106.871094 L 828.089844 107.40625 L 828.417969 107.929688 L 828.765625 108.441406 L 829.128906 108.941406 L 829.507813 109.433594 L 829.902344 109.910156 L 830.3125 110.375 L 830.734375 110.828125 L 831.171875 111.265625 L 831.625 111.6875 L 832.089844 112.097656 L 832.566406 112.492188 L 833.058594 112.871094 L 833.558594 113.234375 L 834.070313 113.582031 L 834.59375 113.910156 L 835.128906 114.226563 L 835.671875 114.523438 L 836.226563 114.800781 L 836.785156 115.0625 L 837.355469 115.308594 L 837.933594 115.53125 L 838.515625 115.738281 L 839.105469 115.929688 L 839.699219 116.097656 L 840.300781 116.25 L 840.90625 116.378906 L 841.515625 116.492188 L 842.128906 116.585938 L 842.742188 116.660156 L 843.359375 116.714844 L 843.976563 116.746094 L 844.597656 116.761719 L 845.214844 116.757813 L 845.835938 116.734375 L 846.453125 116.6875 L 847.070313 116.625 L 847.683594 116.542969 L 848.292969 116.4375 L 848.898438 116.316406 L 849.503906 116.175781 L 850.101563 116.015625 L 850.695313 115.835938 L 851.28125 115.640625 L 851.859375 115.421875 L 852.433594 115.1875 L 853 114.933594 L 853.554688 114.664063 L 854.105469 114.375 L 854.644531 114.070313 L 855.171875 113.75 L 855.691406 113.410156 L 856.199219 113.054688 L 856.695313 112.683594 L 857.175781 112.296875 L 857.648438 111.894531 L 858.105469 111.476563 L 858.550781 111.046875 L 844.753906 97.246094 Z M 830.953125 83.449219 "/>
<path style="fill-rule:nonzero;fill:rgb(74.509804%,74.509804%,74.509804%);fill-opacity:1;stroke-width:2.25;stroke-linecap:round;stroke-linejoin:round;stroke:rgb(0%,0%,0%);stroke-opacity:1;stroke-miterlimit:10;" d="M 199.363281 213.425781 L 128.492188 264.914063 L 155.5625 348.226563 L 243.164063 348.226563 L 270.234375 264.914063 Z M 199.363281 213.425781 "/>
<path style="fill-rule:nonzero;fill:rgb(100%,100%,100%);fill-opacity:1;stroke-width:2.25;stroke-linecap:round;stroke-linejoin:round;stroke:rgb(0%,0%,0%);stroke-opacity:1;stroke-miterlimit:10;" d="M 254.5625 287.941406 L 254.453125 285.515625 L 254.125 283.101563 L 253.582031 280.703125 L 252.828125 278.332031 L 251.859375 276.003906 L 250.683594 273.71875 L 249.308594 271.492188 L 247.734375 269.328125 L 245.96875 267.238281 L 244.019531 265.230469 L 241.894531 263.3125 L 239.601563 261.492188 L 237.148438 259.777344 L 234.546875 258.171875 L 231.808594 256.683594 L 228.941406 255.320313 L 225.953125 254.082031 L 222.863281 252.980469 L 219.683594 252.015625 L 216.421875 251.195313 L 213.089844 250.519531 L 209.707031 249.988281 L 206.28125 249.609375 L 202.828125 249.378906 L 199.363281 249.304688 L 195.898438 249.378906 L 192.445313 249.609375 L 189.019531 249.988281 L 185.636719 250.519531 L 182.304688 251.195313 L 179.042969 252.015625 L 175.859375 252.980469 L 172.773438 254.082031 L 169.785156 255.320313 L 166.917969 256.683594 L 164.179688 258.171875 L 161.578125 259.777344 L 159.125 261.492188 L 156.832031 263.3125 L 154.707031 265.230469 L 152.757813 267.238281 L 150.992188 269.328125 L 149.417969 271.492188 L 148.042969 273.71875 L 146.867188 276.003906 L 145.898438 278.332031 L 145.144531 280.703125 L 144.601563 283.101563 L 144.273438 285.515625 L 144.164063 287.941406 L 144.273438 290.367188 L 144.601563 292.785156 L 145.144531 295.183594 L 145.898438 297.550781 L 146.867188 299.882813 L 148.042969 302.167969 L 149.417969 304.394531 L 150.992188 306.554688 L 152.757813 308.644531 L 154.707031 310.652344 L 156.832031 312.570313 L 159.125 314.390625 L 161.578125 316.109375 L 164.179688 317.714844 L 166.917969 319.203125 L 169.785156 320.566406 L 172.773438 321.800781 L 175.859375 322.902344 L 179.042969 323.867188 L 182.304688 324.691406 L 185.636719 325.367188 L 189.019531 325.894531 L 192.445313 326.277344 L 195.898438 326.503906 L 199.363281 326.582031 L 202.828125 326.503906 L 206.28125 326.277344 L 209.707031 325.894531 L 213.089844 325.367188 L 216.421875 324.691406 L 219.683594 323.867188 L 222.863281 322.902344 L 225.953125 321.800781 L 228.941406 320.566406 L 231.808594 319.203125 L 234.546875 317.714844 L 237.148438 316.109375 L 239.601563 314.390625 L 241.894531 312.570313 L 244.019531 310.652344 L 245.96875 308.644531 L 247.734375 306.554688 L 249.308594 304.394531 L 250.683594 302.167969 L 251.859375 299.882813 L 252.828125 297.550781 L 253.582031 295.183594 L 254.125 292.785156 L 254.453125 290.367188 Z M 254.5625 287.941406 "/>
<path style="fill-rule:nonzero;fill:rgb(74.509804%,74.509804%,74.509804%);fill-opacity:1;stroke-width:2.25;stroke-linecap:round;stroke-linejoin:round;stroke:rgb(0%,0%,0%);stroke-opacity:1;stroke-miterlimit:10;" d="M 522.058594 213.425781 L 451.1875 264.914063 L 478.257813 348.226563 L 565.855469 348.226563 L 592.925781 264.914063 Z M 522.058594 213.425781 "/>
<path style="fill-rule:nonzero;fill:rgb(100%,100%,100%);fill-opacity:1;stroke-width:2.25;stroke-linecap:round;stroke-linejoin:round;stroke:rgb(0%,0%,0%);stroke-opacity:1;stroke-miterlimit:10;" d="M 522.058594 258.667969 L 521.128906 258.683594 L 520.199219 258.726563 L 519.273438 258.800781 L 518.351563 258.90625 L 517.433594 259.039063 L 516.519531 259.199219 L 515.609375 259.390625 L 514.707031 259.609375 L 513.808594 259.855469 L 512.921875 260.132813 L 512.046875 260.433594 L 511.179688 260.765625 L 510.320313 261.125 L 509.476563 261.511719 L 508.644531 261.921875 L 507.824219 262.363281 L 507.019531 262.828125 L 506.230469 263.316406 L 505.457031 263.832031 L 504.703125 264.371094 L 503.960938 264.933594 L 503.242188 265.519531 L 502.539063 266.125 L 501.855469 266.757813 L 501.195313 267.40625 L 500.554688 268.082031 L 499.933594 268.773438 L 499.335938 269.484375 L 498.761719 270.214844 L 498.210938 270.960938 L 497.6875 271.726563 L 497.183594 272.507813 L 496.707031 273.304688 L 496.253906 274.117188 L 495.828125 274.941406 L 495.429688 275.78125 L 495.058594 276.632813 L 494.710938 277.496094 L 494.394531 278.367188 L 494.105469 279.25 L 493.84375 280.140625 L 493.609375 281.042969 L 493.40625 281.945313 L 493.230469 282.859375 L 493.082031 283.777344 L 492.964844 284.699219 L 492.875 285.621094 L 492.816406 286.550781 L 492.789063 287.476563 L 492.789063 288.40625 L 492.816406 289.335938 L 492.875 290.261719 L 492.964844 291.1875 L 493.082031 292.109375 L 493.230469 293.027344 L 493.40625 293.9375 L 493.609375 294.84375 L 493.84375 295.742188 L 494.105469 296.632813 L 494.394531 297.515625 L 494.710938 298.390625 L 495.058594 299.25 L 495.429688 300.101563 L 495.828125 300.941406 L 496.253906 301.765625 L 496.707031 302.578125 L 497.183594 303.375 L 497.6875 304.15625 L 498.210938 304.921875 L 498.761719 305.671875 L 499.335938 306.402344 L 499.933594 307.113281 L 500.554688 307.804688 L 501.195313 308.476563 L 501.855469 309.128906 L 502.539063 309.757813 L 503.242188 310.367188 L 503.960938 310.953125 L 504.703125 311.515625 L 505.457031 312.054688 L 506.230469 312.566406 L 507.019531 313.058594 L 507.824219 313.523438 L 508.644531 313.960938 L 509.476563 314.375 L 510.320313 314.757813 L 511.179688 315.117188 L 512.046875 315.449219 L 512.921875 315.753906 L 513.808594 316.03125 L 514.707031 316.277344 L 515.609375 316.496094 L 516.519531 316.6875 L 517.433594 316.847656 L 518.351563 316.980469 L 519.273438 317.082031 L 520.199219 317.15625 L 521.128906 317.199219 L 522.058594 317.214844 Z M 522.058594 258.667969 "/>
<path style="fill-rule:nonzero;fill:rgb(74.509804%,74.509804%,74.509804%);fill-opacity:1;stroke-width:2.25;stroke-linecap:round;stroke-linejoin:round;stroke:rgb(0%,0%,0%);stroke-opacity:1;stroke-miterlimit:10;" d="M 844.753906 213.425781 L 773.882813 264.914063 L 800.953125 348.226563 L 888.550781 348.226563 L 915.621094 264.914063 Z M 844.753906 213.425781 "/>
<path style="fill-rule:nonzero;fill:rgb(100%,100%,100%);fill-opacity:1;stroke-width:2.25;stroke-linecap:round;stroke-linejoin:round;stroke:rgb(0%,0%,0%);stroke-opacity:1;stroke-miterlimit:10;" d="M 830.953125 274.144531 L 830.3125 274.816406 L 829.703125 275.515625 L 829.128906 276.246094 L 828.589844 277.003906 L 828.089844 277.785156 L 827.625 278.589844 L 827.199219 279.414063 L 826.8125 280.261719 L 826.46875 281.121094 L 826.164063 282 L 825.902344 282.890625 L 825.683594 283.792969 L 825.507813 284.707031 L 825.375 285.625 L 825.285156 286.550781 L 825.242188 287.476563 L 825.242188 288.40625 L 825.285156 289.335938 L 825.375 290.257813 L 825.507813 291.179688 L 825.683594 292.089844 L 825.902344 292.992188 L 826.164063 293.882813 L 826.46875 294.761719 L 826.8125 295.625 L 827.199219 296.46875 L 827.625 297.296875 L 828.089844 298.097656 L 828.589844 298.882813 L 829.128906 299.636719 L 829.703125 300.367188 L 830.3125 301.070313 L 830.953125 301.742188 L 831.625 302.382813 L 832.328125 302.992188 L 833.058594 303.566406 L 833.8125 304.105469 L 834.59375 304.605469 L 835.398438 305.070313 L 836.226563 305.496094 L 837.070313 305.882813 L 837.933594 306.226563 L 838.808594 306.53125 L 839.699219 306.792969 L 840.605469 307.011719 L 841.515625 307.1875 L 842.433594 307.320313 L 843.359375 307.40625 L 844.289063 307.453125 L 845.214844 307.453125 L 846.144531 307.40625 L 847.070313 307.320313 L 847.988281 307.1875 L 848.898438 307.011719 L 849.804688 306.792969 L 850.695313 306.53125 L 851.570313 306.226563 L 852.433594 305.882813 L 853.277344 305.496094 L 854.105469 305.070313 L 854.910156 304.605469 L 855.691406 304.105469 L 856.445313 303.566406 L 857.175781 302.992188 L 857.878906 302.382813 L 858.550781 301.742188 L 859.191406 301.070313 L 859.800781 300.367188 L 860.375 299.636719 L 860.914063 298.882813 L 861.414063 298.097656 L 861.878906 297.296875 L 862.304688 296.46875 L 862.691406 295.625 L 863.035156 294.761719 L 863.339844 293.882813 L 863.601563 292.992188 L 863.820313 292.089844 L 863.996094 291.179688 L 864.128906 290.257813 L 864.21875 289.335938 L 864.261719 288.40625 L 864.261719 287.476563 L 864.21875 286.550781 L 864.128906 285.625 L 863.996094 284.707031 L 863.820313 283.792969 L 863.601563 282.890625 L 863.339844 282 L 863.035156 281.121094 L 862.691406 280.261719 L 862.304688 279.414063 L 861.878906 278.589844 L 861.414063 277.785156 L 860.914063 277.003906 L 860.375 276.246094 L 859.800781 275.515625 L 859.191406 274.816406 L 858.550781 274.144531 L 844.753906 287.941406 Z M 830.953125 274.144531 "/>
<path style="fill-rule:nonzero;fill:rgb(74.509804%,74.509804%,74.509804%);fill-opacity:1;stroke-width:2.25;stroke-linecap:round;stroke-linejoin:round;stroke:rgb(0%,0%,0%);stroke-opacity:1;stroke-miterlimit:10;" d="M 199.363281 404.121094 L 128.492188 455.609375 L 155.5625 538.921875 L 243.164063 538.921875 L 270.234375 455.609375 Z M 199.363281 404.121094 "/>
<path style="fill-rule:nonzero;fill:rgb(100%,100%,100%);fill-opacity:1;stroke-width:2.25;stroke-linecap:round;stroke-linejoin:round;stroke:rgb(0%,0%,0%);stroke-opacity:1;stroke-miterlimit:10;" d="M 240.761719 437.238281 L 239.425781 435.945313 L 238.050781 434.695313 L 236.640625 433.492188 L 235.1875 432.332031 L 233.699219 431.21875 L 232.179688 430.152344 L 230.625 429.136719 L 229.039063 428.167969 L 227.421875 427.253906 L 225.777344 426.386719 L 224.105469 425.578125 L 222.410156 424.816406 L 220.691406 424.113281 L 218.949219 423.464844 L 217.191406 422.871094 L 215.410156 422.332031 L 213.617188 421.851563 L 211.808594 421.429688 L 209.988281 421.0625 L 208.15625 420.753906 L 206.3125 420.503906 L 204.464844 420.3125 L 202.613281 420.179688 L 200.757813 420.109375 L 198.898438 420.09375 L 197.042969 420.136719 L 195.1875 420.238281 L 193.335938 420.402344 L 191.492188 420.621094 L 189.65625 420.902344 L 187.828125 421.238281 L 186.011719 421.632813 L 184.210938 422.085938 L 182.421875 422.59375 L 180.652344 423.160156 L 178.902344 423.78125 L 177.171875 424.460938 L 175.464844 425.191406 L 173.78125 425.976563 L 172.125 426.8125 L 170.492188 427.703125 L 168.890625 428.644531 L 167.320313 429.636719 L 165.78125 430.679688 L 164.277344 431.769531 L 162.808594 432.90625 L 161.375 434.089844 L 159.980469 435.316406 L 158.628906 436.585938 L 157.3125 437.902344 L 156.042969 439.253906 L 154.816406 440.648438 L 153.632813 442.082031 L 152.496094 443.550781 L 151.40625 445.054688 L 150.363281 446.59375 L 149.371094 448.164063 L 148.429688 449.765625 L 147.539063 451.398438 L 146.703125 453.054688 L 145.917969 454.738281 L 145.183594 456.445313 L 144.507813 458.175781 L 143.886719 459.929688 L 143.320313 461.699219 L 142.8125 463.484375 L 142.359375 465.285156 L 141.964844 467.101563 L 141.628906 468.929688 L 141.347656 470.765625 L 141.128906 472.609375 L 140.964844 474.460938 L 140.863281 476.316406 L 140.820313 478.171875 L 140.832031 480.03125 L 140.90625 481.886719 L 141.039063 483.738281 L 141.230469 485.585938 L 141.480469 487.429688 L 141.789063 489.261719 L 142.15625 491.082031 L 142.578125 492.890625 L 143.058594 494.683594 L 143.597656 496.464844 L 144.191406 498.222656 L 144.839844 499.964844 L 145.542969 501.683594 L 146.300781 503.378906 L 147.113281 505.050781 L 147.980469 506.695313 L 148.894531 508.3125 L 149.863281 509.898438 L 150.878906 511.453125 L 151.945313 512.972656 L 153.058594 514.460938 L 154.21875 515.914063 L 155.421875 517.324219 L 156.671875 518.699219 L 157.964844 520.035156 Z M 240.761719 437.238281 "/>
<path style="fill-rule:nonzero;fill:rgb(74.509804%,74.509804%,74.509804%);fill-opacity:1;stroke-width:2.25;stroke-linecap:round;stroke-linejoin:round;stroke:rgb(0%,0%,0%);stroke-opacity:1;stroke-miterlimit:10;" d="M 522.058594 404.121094 L 451.1875 455.609375 L 478.257813 538.921875 L 565.855469 538.921875 L 592.925781 455.609375 Z M 522.058594 404.121094 "/>
<path style="fill-rule:nonzero;fill:rgb(100%,100%,100%);fill-opacity:1;stroke-width:2.25;stroke-linecap:round;stroke-linejoin:round;stroke:rgb(0%,0%,0%);stroke-opacity:1;stroke-miterlimit:10;" d="M 522.058594 449.363281 L 520.664063 449.398438 L 519.273438 449.496094 L 517.890625 449.660156 L 516.519531 449.894531 L 515.15625 450.1875 L 513.808594 450.550781 L 512.484375 450.972656 L 511.179688 451.460938 L 509.898438 452.007813 L 508.644531 452.617188 L 507.421875 453.285156 L 506.230469 454.011719 L 505.078125 454.792969 L 503.960938 455.625 L 502.886719 456.515625 L 501.855469 457.449219 L 500.871094 458.4375 L 499.933594 459.46875 L 499.046875 460.542969 L 498.210938 461.65625 L 497.433594 462.8125 L 496.707031 464 L 496.039063 465.222656 L 495.429688 466.476563 L 494.882813 467.757813 L 494.394531 469.0625 L 493.96875 470.390625 L 493.609375 471.734375 L 493.3125 473.097656 L 493.082031 474.472656 L 492.917969 475.855469 L 492.816406 477.242188 L 492.785156 478.636719 L 492.816406 480.03125 L 492.917969 481.417969 L 493.082031 482.804688 L 493.3125 484.175781 L 493.609375 485.539063 L 493.96875 486.882813 L 494.394531 488.210938 L 494.882813 489.515625 L 495.429688 490.796875 L 496.039063 492.050781 L 496.707031 493.273438 L 497.433594 494.464844 L 498.210938 495.617188 L 499.046875 496.730469 L 499.933594 497.804688 L 500.871094 498.835938 L 501.855469 499.824219 L 502.886719 500.761719 L 503.960938 501.648438 L 505.078125 502.480469 L 506.230469 503.261719 L 507.421875 503.988281 L 508.644531 504.65625 L 509.898438 505.265625 L 511.179688 505.8125 L 512.484375 506.300781 L 513.808594 506.722656 L 515.15625 507.085938 L 516.519531 507.378906 L 517.890625 507.613281 L 519.273438 507.777344 L 520.664063 507.875 L 522.058594 507.910156 L 523.449219 507.875 L 524.839844 507.777344 L 526.222656 507.613281 L 527.597656 507.378906 L 528.957031 507.085938 L 530.304688 506.722656 L 531.632813 506.300781 L 532.9375 505.8125 L 534.21875 505.265625 L 535.472656 504.65625 L 536.695313 503.988281 L 537.882813 503.261719 L 539.039063 502.480469 L 540.152344 501.648438 L 541.226563 500.761719 L 542.257813 499.824219 L 543.242188 498.835938 L 544.179688 497.804688 L 545.066406 496.730469 L 545.902344 495.617188 L 546.683594 494.464844 L 547.410156 493.273438 L 548.078125 492.050781 L 548.683594 490.796875 L 549.234375 489.515625 L 549.71875 488.210938 L 550.144531 486.882813 L 550.503906 485.539063 L 550.800781 484.175781 L 551.03125 482.804688 L 551.199219 481.417969 L 551.296875 480.03125 L 551.332031 478.636719 L 522.058594 478.636719 Z M 522.058594 449.363281 "/>
</g>
</svg>
