<?xml version="1.0" encoding="UTF-8"?>
<svg xmlns="http://www.w3.org/2000/svg" xmlns:xlink="http://www.w3.org/1999/xlink" width="1008pt" height="612pt" viewBox="0 0 1008 612" version="1.1">
<defs>
<clipPath id="clip1">
  <path d="M 133 202.097656 L 266 202.097656 L 266 373.785156 L 133 373.785156 Z M 133 202.097656 "/>
</clipPath>
</defs>
<g id="surface71">
<rect x="0" y="0" width="1008" height="612" style="fill:rgb(100%,100%,100%);fill-opacity:1;stroke:none;"/>
<path style="fill:none;stroke-width:2.25;stroke-linecap:round;stroke-linejoin:round;stroke:rgb(0%,0%,0%);stroke-opacity:1;stroke-miterlimit:10;" d="M 273.878906 97.246094 L 236.621094 32.714844 L 162.105469 32.714844 L 124.847656 97.246094 L 162.105469 161.78125 L 236.621094 161.78125 Z M 273.878906 97.246094 "/>
<path style="fill-rule:nonzero;fill:rgb(100%,100%,100%);fill-opacity:1;stroke-width:2.25;stroke-linecap:round;stroke-linejoin:round;stroke:rgb(0%,0%,0%);stroke-opacity:1;stroke-miterlimit:10;" d="M 220.875 59.988281 L 177.851563 59.988281 L 199.363281 97.246094 Z M 220.875 59.988281 "/>
<path style="fill-rule:nonzero;fill:rgb(0%,0%,0%);fill-opacity:1;stroke-width:2.25;stroke-linecap:round;stroke-linejoin:round;stroke:rgb(0%,0%,0%);stroke-opacity:1;stroke-miterlimit:10;" d="M 199.363281 97.246094 L 177.851563 134.507813 L 220.875 134.507813 Z M 199.363281 97.246094 "/>
<path style="fill:none;stroke-width:2.25;stroke-linecap:round;stroke-linejoin:round;stroke:rgb(0%,0%,0%);stroke-opacity:1;stroke-miterlimit:10;" d="M 567.722656 51.582031 L 563.882813 47.921875 L 559.878906 44.457031 L 555.726563 41.203125 L 551.4375 38.164063 L 547.035156 35.363281 L 542.535156 32.804688 L 537.949219 30.503906 L 533.304688 28.460938 L 528.617188 26.691406 L 523.902344 25.203125 L 519.179688 23.996094 L 514.46875 23.082031 L 509.785156 22.457031 L 505.152344 22.128906 L 500.585938 22.09375 L 496.105469 22.359375 L 491.726563 22.917969 L 487.46875 23.769531 L 483.34375 24.914063 L 479.375 26.34375 L 475.574219 28.050781 L 471.957031 30.03125 L 468.535156 32.277344 L 465.324219 34.78125 L 462.339844 37.53125 L 459.589844 40.515625 L 457.089844 43.726563 L 454.839844 47.144531 L 452.859375 50.765625 L 451.152344 54.566406 L 449.722656 58.535156 L 448.582031 62.660156 L 447.726563 66.917969 L 447.167969 71.296875 L 446.902344 75.777344 L 446.9375 80.34375 L 447.265625 84.976563 L 447.890625 89.65625 L 448.808594 94.371094 L 450.011719 99.089844 L 451.503906 103.808594 L 453.273438 108.496094 L 455.3125 113.140625 L 457.617188 117.722656 L 460.171875 122.226563 L 462.976563 126.628906 L 466.011719 130.914063 L 469.265625 135.070313 L 472.730469 139.074219 L 476.390625 142.914063 L 480.230469 146.574219 L 484.238281 150.039063 L 488.390625 153.292969 L 492.675781 156.328125 L 497.082031 159.132813 L 501.582031 161.691406 L 506.164063 163.992188 L 510.808594 166.035156 L 515.5 167.800781 L 520.214844 169.292969 L 524.9375 170.5 L 529.648438 171.414063 L 534.328125 172.039063 L 538.960938 172.367188 L 543.527344 172.402344 L 548.007813 172.136719 L 552.386719 171.578125 L 556.648438 170.726563 L 560.769531 169.582031 L 564.738281 168.152344 L 568.542969 166.445313 L 572.160156 164.464844 L 575.578125 162.21875 L 578.789063 159.714844 L 581.773438 156.964844 L 584.523438 153.980469 L 587.027344 150.769531 L 589.273438 147.351563 L 591.253906 143.730469 L 592.964844 139.929688 L 594.390625 135.960938 L 595.535156 131.835938 L 596.386719 127.578125 L 596.945313 123.199219 L 597.210938 118.71875 L 597.179688 114.152344 L 596.847656 109.519531 L 596.226563 104.839844 L 595.308594 100.125 L 594.101563 95.402344 L 592.613281 90.6875 L 590.84375 86 L 588.804688 81.355469 L 586.5 76.773438 L 583.941406 72.269531 L 581.140625 67.867188 L 578.105469 63.582031 L 574.847656 59.425781 L 571.382813 55.421875 Z M 567.722656 51.582031 "/>
<path style="fill-rule:nonzero;fill:rgb(74.509804%,74.509804%,74.509804%);fill-opacity:1;stroke-width:2.25;stroke-linecap:round;stroke-linejoin:round;stroke:rgb(0%,0%,0%);stroke-opacity:1;stroke-miterlimit:10;" d="M 543.570313 59.988281 L 500.546875 59.988281 L 522.058594 97.246094 Z M 543.570313 59.988281 "/>
<path style="fill-rule:nonzero;fill:rgb(100%,100%,100%);fill-opacity:1;stroke-width:2.25;stroke-linecap:round;stroke-linejoin:round;stroke:rgb(0%,0%,0%);stroke-opacity:1;stroke-miterlimit:10;" d="M 522.058594 97.246094 L 500.546875 134.507813 L 543.570313 134.507813 Z M 522.058594 97.246094 "/>
<path style="fill:none;stroke-width:2.25;stroke-linecap:round;stroke-linejoin:round;stroke:rgb(0%,0%,0%);stroke-opacity:1;stroke-miterlimit:10;" d="M 770.234375 97.246094 L 821.726563 168.117188 L 905.039063 141.046875 L 905.039063 53.449219 L 821.726563 26.378906 Z M 770.234375 97.246094 "/>
<path style="fill-rule:nonzero;fill:rgb(0%,0%,0%);fill-opacity:1;stroke-width:2.25;stroke-linecap:round;stroke-linejoin:round;stroke:rgb(0%,0%,0%);stroke-opacity:1;stroke-miterlimit:10;" d="M 866.261719 59.988281 L 823.242188 59.988281 L 844.753906 97.246094 Z M 866.261719 59.988281 "/>
<path style="fill-rule:nonzero;fill:rgb(74.509804%,74.509804%,74.509804%);fill-opacity:1;stroke-width:2.25;stroke-linecap:round;stroke-linejoin:round;stroke:rgb(0%,0%,0%);stroke-opacity:1;stroke-miterlimit:10;" d="M 844.753906 97.246094 L 823.242188 134.507813 L 866.261719 134.507813 Z M 844.753906 97.246094 "/>
<g clip-path="url(#clip1)" clip-rule="nonzero">
<path style="fill:none;stroke-width:2.25;stroke-linecap:round;stroke-linejoin:round;stroke:rgb(0%,0%,0%);stroke-opacity:1;stroke-miterlimit:10;" d="M 263.945313 287.941406 L 263.816406 282.640625 L 263.433594 277.359375 L 262.800781 272.117188 L 261.914063 266.941406 L 260.785156 261.84375 L 259.410156 256.851563 L 257.796875 251.984375 L 255.957031 247.257813 L 253.890625 242.691406 L 251.609375 238.300781 L 249.125 234.109375 L 246.441406 230.132813 L 243.570313 226.378906 L 240.527344 222.871094 L 237.324219 219.617188 L 233.96875 216.636719 L 230.476563 213.9375 L 226.859375 211.527344 L 223.136719 209.421875 L 219.320313 207.625 L 215.425781 206.144531 L 211.464844 204.984375 L 207.457031 204.15625 L 203.417969 203.65625 L 199.363281 203.488281 L 195.308594 203.65625 L 191.269531 204.15625 L 187.261719 204.984375 L 183.300781 206.144531 L 179.40625 207.625 L 175.589844 209.421875 L 171.867188 211.527344 L 168.25 213.9375 L 164.757813 216.636719 L 161.402344 219.617188 L 158.199219 222.871094 L 155.15625 226.378906 L 152.285156 230.132813 L 149.601563 234.109375 L 147.117188 238.300781 L 144.835938 242.691406 L 142.769531 247.257813 L 140.929688 251.984375 L 139.316406 256.851563 L 137.941406 261.84375 L 136.8125 266.941406 L 135.925781 272.117188 L 135.292969 277.359375 L 134.910156 282.640625 L 134.78125 287.941406 L 134.910156 293.246094 L 135.292969 298.527344 L 135.925781 303.765625 L 136.8125 308.945313 L 137.941406 314.039063 L 139.316406 319.03125 L 140.929688 323.902344 L 142.769531 328.628906 L 144.835938 333.195313 L 147.117188 337.582031 L 149.601563 341.773438 L 152.285156 345.753906 L 155.15625 349.503906 L 158.199219 353.015625 L 161.402344 356.265625 L 164.757813 359.246094 L 168.25 361.949219 L 171.867188 364.355469 L 175.589844 366.464844 L 179.40625 368.261719 L 183.300781 369.742188 L 187.261719 370.898438 L 191.269531 371.730469 L 195.308594 372.226563 L 199.363281 372.394531 L 203.417969 372.226563 L 207.457031 371.730469 L 211.464844 370.898438 L 215.425781 369.742188 L 219.320313 368.261719 L 223.136719 366.464844 L 226.859375 364.355469 L 230.476563 361.949219 L 233.96875 359.246094 L 237.324219 356.265625 L 240.527344 353.015625 L 243.570313 349.503906 L 246.441406 345.753906 L 249.125 341.773438 L 251.609375 337.582031 L 253.890625 333.195313 L 255.957031 328.628906 L 257.796875 323.902344 L 259.410156 319.03125 L 260.785156 314.039063 L 261.914063 308.945313 L 262.800781 303.765625 L 263.433594 298.527344 L 263.816406 293.246094 Z M 263.945313 287.941406 "/>
</g>
<path style="fill-rule:nonzero;fill:rgb(74.509804%,74.509804%,74.509804%);fill-opacity:1;stroke-width:2.25;stroke-linecap:round;stroke-linejoin:round;stroke:rgb(0%,0%,0%);stroke-opacity:1;stroke-miterlimit:10;" d="M 220.875 250.683594 L 177.851563 250.683594 L 199.363281 287.941406 Z M 220.875 250.683594 "/>
<path style="fill-rule:nonzero;fill:rgb(100%,100%,100%);fill-opacity:1;stroke-width:2.25;stroke-linecap:round;stroke-linejoin:round;stroke:rgb(0%,0%,0%);stroke-opacity:1;stroke-miterlimit:10;" d="M 199.363281 287.941406 L 177.851563 325.199219 L 220.875 325.199219 Z M 199.363281 287.941406 "/>
<path style="fill:none;stroke-width:2.25;stroke-linecap:round;stroke-linejoin:round;stroke:rgb(0%,0%,0%);stroke-opacity:1;stroke-miterlimit:10;" d="M 469.367188 235.25 L 455.664063 321.773438 L 533.714844 361.542969 L 595.65625 299.597656 L 555.886719 221.546875 Z M 469.367188 235.25 "/>
<path style="fill-rule:nonzero;fill:rgb(0%,0%,0%);fill-opacity:1;stroke-width:2.25;stroke-linecap:round;stroke-linejoin:round;stroke:rgb(0%,0%,0%);stroke-opacity:1;stroke-miterlimit:10;" d="M 543.570313 250.683594 L 500.546875 250.683594 L 522.058594 287.941406 Z M 543.570313 250.683594 "/>
<path style="fill-rule:nonzero;fill:rgb(74.509804%,74.509804%,74.509804%);fill-opacity:1;stroke-width:2.25;stroke-linecap:round;stroke-linejoin:round;stroke:rgb(0%,0%,0%);stroke-opacity:1;stroke-miterlimit:10;" d="M 522.058594 287.941406 L 500.546875 325.199219 L 543.570313 325.199219 Z M 522.058594 287.941406 "/>
<path style="fill:none;stroke-width:2.25;stroke-linecap:round;stroke-linejoin:round;stroke:rgb(0%,0%,0%);stroke-opacity:1;stroke-miterlimit:10;" d="M 844.753906 213.425781 L 780.21875 250.683594 L 780.21875 325.199219 L 844.753906 362.460938 L 909.285156 325.199219 L 909.285156 250.683594 Z M 844.753906 213.425781 "/>
<path style="fill-rule:nonzero;fill:rgb(100%,100%,100%);fill-opacity:1;stroke-width:2.25;stroke-linecap:round;stroke-linejoin:round;stroke:rgb(0%,0%,0%);stroke-opacity:1;stroke-miterlimit:10;" d="M 866.261719 250.683594 L 823.242188 250.683594 L 844.753906 287.941406 Z M 866.261719 250.683594 "/>
<path style="fill-rule:nonzero;fill:rgb(0%,0%,0%);fill-opacity:1;stroke-width:2.25;stroke-linecap:round;stroke-linejoin:round;stroke:rgb(0%,0%,0%);stroke-opacity:1;stroke-miterlimit:10;" d="M 844.753906 287.941406 L 823.242188 325.199219 L 866.261719 325.199219 Z M 844.753906 287.941406 "/>
<path style="fill:none;stroke-width:2.25;stroke-linecap:round;stroke-linejoin:round;stroke:rgb(0%,0%,0%);stroke-opacity:1;stroke-miterlimit:10;" d="M 199.363281 404.121094 L 128.492188 455.609375 L 155.5625 538.921875 L 243.164063 538.921875 L 270.234375 455.609375 Z M 199.363281 404.121094 "/>
<path style="fill-rule:nonzero;fill:rgb(0%,0%,0%);fill-opacity:1;stroke-width:2.25;stroke-linecap:round;stroke-linejoin:round;stroke:rgb(0%,0%,0%);stroke-opacity:1;stroke-miterlimit:10;" d="M 220.875 441.378906 L 177.851563 441.378906 L 199.363281 478.636719 Z M 220.875 441.378906 "/>
<path style="fill-rule:nonzero;fill:rgb(74.509804%,74.509804%,74.509804%);fill-opacity:1;stroke-width:2.25;stroke-linecap:round;stroke-linejoin:round;stroke:rgb(0%,0%,0%);stroke-opacity:1;stroke-miterlimit:10;" d="M 199.363281 478.636719 L 177.851563 515.894531 L 220.875 515.894531 Z M 199.363281 478.636719 "/>
<path style="fill:none;stroke-width:2.25;stroke-linecap:round;stroke-linejoin:round;stroke:rgb(0%,0%,0%);stroke-opacity:1;stroke-miterlimit:10;" d="M 574.75 425.945313 L 502.769531 406.660156 L 450.078125 459.351563 L 469.367188 531.328125 L 541.34375 550.613281 L 594.035156 497.921875 Z M 574.75 425.945313 "/>
<path style="fill-rule:nonzero;fill:rgb(100%,100%,100%);fill-opacity:1;stroke-width:2.25;stroke-linecap:round;stroke-linejoin:round;stroke:rgb(0%,0%,0%);stroke-opacity:1;stroke-miterlimit:10;" d="M 543.570313 441.378906 L 500.546875 441.378906 L 522.058594 478.636719 Z M 543.570313 441.378906 "/>
<path style="fill-rule:nonzero;fill:rgb(0%,0%,0%);fill-opacity:1;stroke-width:2.25;stroke-linecap:round;stroke-linejoin:round;stroke:rgb(0%,0%,0%);stroke-opacity:1;stroke-miterlimit:10;" d="M 522.058594 478.636719 L 500.546875 515.894531 L 543.570313 515.894531 Z M 522.058594 478.636719 "/>
</g>
</svg>
