<?xml version="1.0" encoding="UTF-8"?>
<svg xmlns="http://www.w3.org/2000/svg" xmlns:xlink="http://www.w3.org/1999/xlink" width="504pt" height="504pt" viewBox="0 0 504 504" version="1.1">
<g id="surface16">
<rect x="0" y="0" width="504" height="504" style="fill:rgb(100%,100%,100%);fill-opacity:1;stroke:none;"/>
<path style="fill:none;stroke-width:2.25;stroke-linecap:round;stroke-linejoin:round;stroke:rgb(0%,0%,0%);stroke-opacity:1;stroke-miterlimit:10;" d="M 149.363281 20.355469 L 81.363281 20.355469 L 115.363281 79.246094 L 149.363281 20.355469 "/>
<path style="fill-rule:nonzero;fill:rgb(0%,0%,0%);fill-opacity:1;stroke-width:1.5;stroke-linecap:round;stroke-linejoin:round;stroke:rgb(0%,0%,0%);stroke-opacity:1;stroke-miterlimit:10;" d="M 131.066406 79.246094 L 131.035156 78.261719 L 130.945313 77.28125 L 130.789063 76.304688 L 130.574219 75.34375 L 130.300781 74.394531 L 129.964844 73.46875 L 129.574219 72.5625 L 129.125 71.683594 L 128.621094 70.832031 L 128.070313 70.015625 L 127.464844 69.238281 L 126.8125 68.496094 L 126.113281 67.800781 L 125.375 67.148438 L 124.59375 66.542969 L 123.777344 65.988281 L 122.929688 65.484375 L 122.050781 65.039063 L 121.144531 64.644531 L 120.214844 64.3125 L 119.269531 64.035156 L 118.304688 63.820313 L 117.332031 63.667969 L 116.347656 63.574219 L 115.363281 63.542969 L 114.378906 63.574219 L 113.394531 63.667969 L 112.421875 63.820313 L 111.457031 64.035156 L 110.511719 64.3125 L 109.582031 64.644531 L 108.675781 65.039063 L 107.796875 65.484375 L 106.949219 65.988281 L 106.132813 66.542969 L 105.351563 67.148438 L 104.613281 67.800781 L 103.914063 68.496094 L 103.261719 69.238281 L 102.65625 70.015625 L 102.101563 70.832031 L 101.601563 71.683594 L 101.152344 72.5625 L 100.761719 73.46875 L 100.425781 74.394531 L 100.152344 75.34375 L 99.9375 76.304688 L 99.78125 77.28125 L 99.691406 78.261719 L 99.660156 79.246094 L 99.691406 80.234375 L 99.78125 81.214844 L 99.9375 82.191406 L 100.152344 83.152344 L 100.425781 84.101563 L 100.761719 85.027344 L 101.152344 85.933594 L 101.601563 86.8125 L 102.101563 87.664063 L 102.65625 88.480469 L 103.261719 89.257813 L 103.914063 90 L 104.613281 90.695313 L 105.351563 91.347656 L 106.132813 91.953125 L 106.949219 92.507813 L 107.796875 93.011719 L 108.675781 93.457031 L 109.582031 93.851563 L 110.511719 94.183594 L 111.457031 94.460938 L 112.421875 94.675781 L 113.394531 94.828125 L 114.378906 94.921875 L 115.363281 94.953125 L 116.347656 94.921875 L 117.332031 94.828125 L 118.304688 94.675781 L 119.269531 94.460938 L 120.214844 94.183594 L 121.144531 93.851563 L 122.050781 93.457031 L 122.929688 93.011719 L 123.777344 92.507813 L 124.59375 91.953125 L 125.375 91.347656 L 126.113281 90.695313 L 126.8125 90 L 127.464844 89.257813 L 128.070313 88.480469 L 128.621094 87.664063 L 129.125 86.8125 L 129.574219 85.933594 L 129.964844 85.027344 L 130.300781 84.101563 L 130.574219 83.152344 L 130.789063 82.191406 L 130.945313 81.214844 L 131.035156 80.234375 Z M 131.066406 79.246094 "/>
<path style="fill:none;stroke-width:2.25;stroke-linecap:round;stroke-linejoin:round;stroke:rgb(0%,0%,0%);stroke-opacity:1;stroke-miterlimit:10;" d="M 304.058594 20.355469 L 236.054688 20.355469 L 270.058594 79.246094 L 304.058594 20.355469 "/>
<path style="fill:none;stroke-width:2.25;stroke-linecap:round;stroke-linejoin:round;stroke:rgb(0%,0%,0%);stroke-opacity:1;stroke-miterlimit:10;" d="M 270.058594 79.246094 L 211.164063 45.246094 L 211.164063 113.25 L 270.058594 79.246094 "/>
<path style="fill-rule:nonzero;fill:rgb(0%,0%,0%);fill-opacity:1;stroke-width:0.75;stroke-linecap:round;stroke-linejoin:round;stroke:rgb(0%,0%,0%);stroke-opacity:1;stroke-miterlimit:10;" d="M 313.246094 79.246094 L 313.261719 79.742188 L 313.308594 80.230469 L 313.382813 80.71875 L 313.492188 81.199219 L 313.628906 81.675781 L 313.796875 82.136719 L 313.992188 82.589844 L 314.214844 83.03125 L 314.46875 83.457031 L 314.746094 83.863281 L 315.046875 84.253906 L 315.371094 84.625 L 315.722656 84.972656 L 316.09375 85.296875 L 316.480469 85.601563 L 316.890625 85.878906 L 317.3125 86.128906 L 317.753906 86.351563 L 318.207031 86.546875 L 318.671875 86.714844 L 319.144531 86.855469 L 319.625 86.960938 L 320.113281 87.039063 L 320.605469 87.085938 L 321.097656 87.101563 L 321.589844 87.085938 L 322.082031 87.039063 L 322.570313 86.960938 L 323.050781 86.855469 L 323.523438 86.714844 L 323.988281 86.546875 L 324.441406 86.351563 L 324.878906 86.128906 L 325.304688 85.878906 L 325.710938 85.601563 L 326.101563 85.296875 L 326.472656 84.972656 L 326.820313 84.625 L 327.148438 84.253906 L 327.449219 83.863281 L 327.726563 83.457031 L 327.976563 83.03125 L 328.203125 82.589844 L 328.398438 82.136719 L 328.566406 81.675781 L 328.703125 81.199219 L 328.808594 80.71875 L 328.886719 80.230469 L 328.933594 79.742188 L 328.949219 79.246094 L 328.933594 78.753906 L 328.886719 78.265625 L 328.808594 77.777344 L 328.703125 77.296875 L 328.566406 76.820313 L 328.398438 76.355469 L 328.203125 75.90625 L 327.976563 75.464844 L 327.726563 75.039063 L 327.449219 74.632813 L 327.148438 74.242188 L 326.820313 73.871094 L 326.472656 73.523438 L 326.101563 73.199219 L 325.710938 72.894531 L 325.304688 72.617188 L 324.878906 72.367188 L 324.441406 72.144531 L 323.988281 71.945313 L 323.523438 71.78125 L 323.050781 71.640625 L 322.570313 71.535156 L 322.082031 71.457031 L 321.589844 71.410156 L 321.097656 71.394531 L 320.605469 71.410156 L 320.113281 71.457031 L 319.625 71.535156 L 319.144531 71.640625 L 318.671875 71.78125 L 318.207031 71.945313 L 317.753906 72.144531 L 317.3125 72.367188 L 316.890625 72.617188 L 316.480469 72.894531 L 316.09375 73.199219 L 315.722656 73.523438 L 315.371094 73.871094 L 315.046875 74.242188 L 314.746094 74.632813 L 314.46875 75.039063 L 314.214844 75.464844 L 313.992188 75.90625 L 313.796875 76.355469 L 313.628906 76.820313 L 313.492188 77.296875 L 313.382813 77.777344 L 313.308594 78.265625 L 313.261719 78.753906 Z M 313.246094 79.246094 "/>
<path style="fill-rule:nonzero;fill:rgb(0%,0%,0%);fill-opacity:1;stroke-width:0.75;stroke-linecap:round;stroke-linejoin:round;stroke:rgb(0%,0%,0%);stroke-opacity:1;stroke-miterlimit:10;" d="M 211.164063 79.246094 L 211.179688 79.742188 L 211.226563 80.230469 L 211.304688 80.71875 L 211.414063 81.199219 L 211.550781 81.675781 L 211.71875 82.136719 L 211.914063 82.589844 L 212.136719 83.03125 L 212.386719 83.457031 L 212.664063 83.863281 L 212.96875 84.253906 L 213.292969 84.625 L 213.644531 84.972656 L 214.011719 85.296875 L 214.402344 85.601563 L 214.8125 85.878906 L 215.234375 86.128906 L 215.675781 86.351563 L 216.128906 86.546875 L 216.589844 86.714844 L 217.066406 86.855469 L 217.546875 86.960938 L 218.035156 87.039063 L 218.523438 87.085938 L 219.019531 87.101563 L 219.511719 87.085938 L 220.003906 87.039063 L 220.488281 86.960938 L 220.972656 86.855469 L 221.445313 86.714844 L 221.910156 86.546875 L 222.363281 86.351563 L 222.800781 86.128906 L 223.226563 85.878906 L 223.632813 85.601563 L 224.023438 85.296875 L 224.394531 84.972656 L 224.742188 84.625 L 225.070313 84.253906 L 225.371094 83.863281 L 225.648438 83.457031 L 225.898438 83.03125 L 226.125 82.589844 L 226.320313 82.136719 L 226.484375 81.675781 L 226.625 81.199219 L 226.730469 80.71875 L 226.808594 80.230469 L 226.855469 79.742188 L 226.871094 79.246094 L 226.855469 78.753906 L 226.808594 78.265625 L 226.730469 77.777344 L 226.625 77.296875 L 226.484375 76.820313 L 226.320313 76.355469 L 226.125 75.90625 L 225.898438 75.464844 L 225.648438 75.039063 L 225.371094 74.632813 L 225.070313 74.242188 L 224.742188 73.871094 L 224.394531 73.523438 L 224.023438 73.199219 L 223.632813 72.894531 L 223.226563 72.617188 L 222.800781 72.367188 L 222.363281 72.144531 L 221.910156 71.945313 L 221.445313 71.78125 L 220.972656 71.640625 L 220.488281 71.535156 L 220.003906 71.457031 L 219.511719 71.410156 L 219.019531 71.394531 L 218.523438 71.410156 L 218.035156 71.457031 L 217.546875 71.535156 L 217.066406 71.640625 L 216.589844 71.78125 L 216.128906 71.945313 L 215.675781 72.144531 L 215.234375 72.367188 L 214.8125 72.617188 L 214.402344 72.894531 L 214.011719 73.199219 L 213.644531 73.523438 L 213.292969 73.871094 L 212.96875 74.242188 L 212.664063 74.632813 L 212.386719 75.039063 L 212.136719 75.464844 L 211.914063 75.90625 L 211.71875 76.355469 L 211.550781 76.820313 L 211.414063 77.296875 L 211.304688 77.777344 L 211.226563 78.265625 L 211.179688 78.753906 Z M 211.164063 79.246094 "/>
<path style="fill-rule:nonzero;fill:rgb(0%,0%,0%);fill-opacity:1;stroke-width:0.75;stroke-linecap:round;stroke-linejoin:round;stroke:rgb(0%,0%,0%);stroke-opacity:1;stroke-miterlimit:10;" d="M 262.207031 130.289063 L 262.222656 130.78125 L 262.265625 131.273438 L 262.34375 131.757813 L 262.453125 132.238281 L 262.589844 132.714844 L 262.757813 133.179688 L 262.953125 133.628906 L 263.175781 134.070313 L 263.429688 134.496094 L 263.703125 134.902344 L 264.007813 135.292969 L 264.332031 135.664063 L 264.683594 136.011719 L 265.050781 136.335938 L 265.441406 136.640625 L 265.851563 136.917969 L 266.273438 137.167969 L 266.714844 137.390625 L 267.167969 137.589844 L 267.632813 137.753906 L 268.105469 137.894531 L 268.585938 138 L 269.074219 138.078125 L 269.566406 138.125 L 270.058594 138.140625 L 270.550781 138.125 L 271.042969 138.078125 L 271.527344 138 L 272.011719 137.894531 L 272.484375 137.753906 L 272.949219 137.589844 L 273.402344 137.390625 L 273.839844 137.167969 L 274.265625 136.917969 L 274.671875 136.640625 L 275.0625 136.335938 L 275.433594 136.011719 L 275.78125 135.664063 L 276.109375 135.292969 L 276.410156 134.902344 L 276.6875 134.496094 L 276.9375 134.070313 L 277.164063 133.628906 L 277.359375 133.179688 L 277.527344 132.714844 L 277.664063 132.238281 L 277.769531 131.757813 L 277.847656 131.273438 L 277.894531 130.78125 L 277.910156 130.289063 L 277.894531 129.792969 L 277.847656 129.304688 L 277.769531 128.816406 L 277.664063 128.335938 L 277.527344 127.859375 L 277.359375 127.398438 L 277.164063 126.945313 L 276.9375 126.503906 L 276.6875 126.078125 L 276.410156 125.671875 L 276.109375 125.28125 L 275.78125 124.914063 L 275.433594 124.5625 L 275.0625 124.238281 L 274.671875 123.933594 L 274.265625 123.65625 L 273.839844 123.40625 L 273.402344 123.183594 L 272.949219 122.988281 L 272.484375 122.820313 L 272.011719 122.683594 L 271.527344 122.574219 L 271.042969 122.496094 L 270.550781 122.449219 L 270.058594 122.433594 L 269.566406 122.449219 L 269.074219 122.496094 L 268.585938 122.574219 L 268.105469 122.683594 L 267.632813 122.820313 L 267.167969 122.988281 L 266.714844 123.183594 L 266.273438 123.40625 L 265.851563 123.65625 L 265.441406 123.933594 L 265.050781 124.238281 L 264.683594 124.5625 L 264.332031 124.914063 L 264.007813 125.28125 L 263.703125 125.671875 L 263.429688 126.078125 L 263.175781 126.503906 L 262.953125 126.945313 L 262.757813 127.398438 L 262.589844 127.859375 L 262.453125 128.335938 L 262.34375 128.816406 L 262.265625 129.304688 L 262.222656 129.792969 Z M 262.207031 130.289063 "/>
<path style="fill-rule:nonzero;fill:rgb(0%,0%,0%);fill-opacity:1;stroke-width:0.75;stroke-linecap:round;stroke-linejoin:round;stroke:rgb(0%,0%,0%);stroke-opacity:1;stroke-miterlimit:10;" d="M 262.207031 28.207031 L 262.222656 28.703125 L 262.265625 29.191406 L 262.34375 29.679688 L 262.453125 30.160156 L 262.589844 30.636719 L 262.757813 31.097656 L 262.953125 31.550781 L 263.175781 31.992188 L 263.429688 32.414063 L 263.703125 32.824219 L 264.007813 33.214844 L 264.332031 33.582031 L 264.683594 33.933594 L 265.050781 34.257813 L 265.441406 34.5625 L 265.851563 34.839844 L 266.273438 35.089844 L 266.714844 35.3125 L 267.167969 35.507813 L 267.632813 35.675781 L 268.105469 35.8125 L 268.585938 35.921875 L 269.074219 36 L 269.566406 36.046875 L 270.058594 36.0625 L 270.550781 36.046875 L 271.042969 36 L 271.527344 35.921875 L 272.011719 35.8125 L 272.484375 35.675781 L 272.949219 35.507813 L 273.402344 35.3125 L 273.839844 35.089844 L 274.265625 34.839844 L 274.671875 34.5625 L 275.0625 34.257813 L 275.433594 33.933594 L 275.78125 33.582031 L 276.109375 33.214844 L 276.410156 32.824219 L 276.6875 32.414063 L 276.9375 31.992188 L 277.164063 31.550781 L 277.359375 31.097656 L 277.527344 30.636719 L 277.664063 30.160156 L 277.769531 29.679688 L 277.847656 29.191406 L 277.894531 28.703125 L 277.910156 28.207031 L 277.894531 27.714844 L 277.847656 27.222656 L 277.769531 26.738281 L 277.664063 26.253906 L 277.527344 25.78125 L 277.359375 25.316406 L 277.164063 24.867188 L 276.9375 24.425781 L 276.6875 24 L 276.410156 23.59375 L 276.109375 23.203125 L 275.78125 22.832031 L 275.433594 22.484375 L 275.0625 22.160156 L 274.671875 21.855469 L 274.265625 21.578125 L 273.839844 21.328125 L 273.402344 21.105469 L 272.949219 20.90625 L 272.484375 20.742188 L 272.011719 20.601563 L 271.527344 20.496094 L 271.042969 20.417969 L 270.550781 20.371094 L 270.058594 20.355469 L 269.566406 20.371094 L 269.074219 20.417969 L 268.585938 20.496094 L 268.105469 20.601563 L 267.632813 20.742188 L 267.167969 20.90625 L 266.714844 21.105469 L 266.273438 21.328125 L 265.851563 21.578125 L 265.441406 21.855469 L 265.050781 22.160156 L 264.683594 22.484375 L 264.332031 22.832031 L 264.007813 23.203125 L 263.703125 23.59375 L 263.429688 24 L 263.175781 24.425781 L 262.953125 24.867188 L 262.757813 25.316406 L 262.589844 25.78125 L 262.453125 26.253906 L 262.34375 26.738281 L 262.265625 27.222656 L 262.222656 27.714844 Z M 262.207031 28.207031 "/>
<path style="fill:none;stroke-width:2.25;stroke-linecap:round;stroke-linejoin:round;stroke:rgb(0%,0%,0%);stroke-opacity:1;stroke-miterlimit:10;" d="M 424.753906 79.246094 L 365.859375 45.246094 L 365.859375 113.25 L 424.753906 79.246094 "/>
<path style="fill-rule:nonzero;fill:rgb(0%,0%,0%);fill-opacity:1;stroke-width:1.5;stroke-linecap:round;stroke-linejoin:round;stroke:rgb(0%,0%,0%);stroke-opacity:1;stroke-miterlimit:10;" d="M 440.457031 79.246094 L 440.425781 78.261719 L 440.332031 77.28125 L 440.179688 76.304688 L 439.964844 75.34375 L 439.6875 74.394531 L 439.355469 73.46875 L 438.960938 72.5625 L 438.515625 71.683594 L 438.011719 70.832031 L 437.457031 70.015625 L 436.851563 69.238281 L 436.199219 68.496094 L 435.503906 67.800781 L 434.761719 67.148438 L 433.984375 66.542969 L 433.167969 65.988281 L 432.316406 65.484375 L 431.4375 65.039063 L 430.53125 64.644531 L 429.605469 64.3125 L 428.65625 64.035156 L 427.695313 63.820313 L 426.71875 63.667969 L 425.738281 63.574219 L 424.753906 63.542969 L 423.765625 63.574219 L 422.785156 63.667969 L 421.808594 63.820313 L 420.847656 64.035156 L 419.898438 64.3125 L 418.972656 64.644531 L 418.066406 65.039063 L 417.1875 65.484375 L 416.335938 65.988281 L 415.519531 66.542969 L 414.742188 67.148438 L 414 67.800781 L 413.304688 68.496094 L 412.652344 69.238281 L 412.046875 70.015625 L 411.492188 70.832031 L 410.988281 71.683594 L 410.542969 72.5625 L 410.148438 73.46875 L 409.816406 74.394531 L 409.539063 75.34375 L 409.324219 76.304688 L 409.171875 77.28125 L 409.078125 78.261719 L 409.046875 79.246094 L 409.078125 80.234375 L 409.171875 81.214844 L 409.324219 82.191406 L 409.539063 83.152344 L 409.816406 84.101563 L 410.148438 85.027344 L 410.542969 85.933594 L 410.988281 86.8125 L 411.492188 87.664063 L 412.046875 88.480469 L 412.652344 89.257813 L 413.304688 90 L 414 90.695313 L 414.742188 91.347656 L 415.519531 91.953125 L 416.335938 92.507813 L 417.1875 93.011719 L 418.066406 93.457031 L 418.972656 93.851563 L 419.898438 94.183594 L 420.847656 94.460938 L 421.808594 94.675781 L 422.785156 94.828125 L 423.765625 94.921875 L 424.753906 94.953125 L 425.738281 94.921875 L 426.71875 94.828125 L 427.695313 94.675781 L 428.65625 94.460938 L 429.605469 94.183594 L 430.53125 93.851563 L 431.4375 93.457031 L 432.316406 93.011719 L 433.167969 92.507813 L 433.984375 91.953125 L 434.761719 91.347656 L 435.503906 90.695313 L 436.199219 90 L 436.851563 89.257813 L 437.457031 88.480469 L 438.011719 87.664063 L 438.515625 86.8125 L 438.960938 85.933594 L 439.355469 85.027344 L 439.6875 84.101563 L 439.964844 83.152344 L 440.179688 82.191406 L 440.332031 81.214844 L 440.425781 80.234375 Z M 440.457031 79.246094 "/>
<path style="fill-rule:nonzero;fill:rgb(0%,0%,0%);fill-opacity:1;stroke-width:0.75;stroke-linecap:round;stroke-linejoin:round;stroke:rgb(0%,0%,0%);stroke-opacity:1;stroke-miterlimit:10;" d="M 467.9375 79.246094 L 467.953125 79.742188 L 468 80.230469 L 468.078125 80.71875 L 468.1875 81.199219 L 468.324219 81.675781 L 468.492188 82.136719 L 468.6875 82.589844 L 468.910156 83.03125 L 469.160156 83.457031 L 469.4375 83.863281 L 469.742188 84.253906 L 470.066406 84.625 L 470.417969 84.972656 L 470.785156 85.296875 L 471.175781 85.601563 L 471.585938 85.878906 L 472.007813 86.128906 L 472.449219 86.351563 L 472.902344 86.546875 L 473.363281 86.714844 L 473.839844 86.855469 L 474.320313 86.960938 L 474.808594 87.039063 L 475.296875 87.085938 L 475.792969 87.101563 L 476.285156 87.085938 L 476.777344 87.039063 L 477.261719 86.960938 L 477.746094 86.855469 L 478.21875 86.714844 L 478.683594 86.546875 L 479.132813 86.351563 L 479.574219 86.128906 L 480 85.878906 L 480.40625 85.601563 L 480.796875 85.296875 L 481.167969 84.972656 L 481.515625 84.625 L 481.839844 84.253906 L 482.144531 83.863281 L 482.421875 83.457031 L 482.671875 83.03125 L 482.894531 82.589844 L 483.09375 82.136719 L 483.257813 81.675781 L 483.398438 81.199219 L 483.503906 80.71875 L 483.582031 80.230469 L 483.628906 79.742188 L 483.644531 79.246094 L 483.628906 78.753906 L 483.582031 78.265625 L 483.503906 77.777344 L 483.398438 77.296875 L 483.257813 76.820313 L 483.09375 76.355469 L 482.894531 75.90625 L 482.671875 75.464844 L 482.421875 75.039063 L 482.144531 74.632813 L 481.839844 74.242188 L 481.515625 73.871094 L 481.167969 73.523438 L 480.796875 73.199219 L 480.40625 72.894531 L 480 72.617188 L 479.574219 72.367188 L 479.132813 72.144531 L 478.683594 71.945313 L 478.21875 71.78125 L 477.746094 71.640625 L 477.261719 71.535156 L 476.777344 71.457031 L 476.285156 71.410156 L 475.792969 71.394531 L 475.296875 71.410156 L 474.808594 71.457031 L 474.320313 71.535156 L 473.839844 71.640625 L 473.363281 71.78125 L 472.902344 71.945313 L 472.449219 72.144531 L 472.007813 72.367188 L 471.585938 72.617188 L 471.175781 72.894531 L 470.785156 73.199219 L 470.417969 73.523438 L 470.066406 73.871094 L 469.742188 74.242188 L 469.4375 74.632813 L 469.160156 75.039063 L 468.910156 75.464844 L 468.6875 75.90625 L 468.492188 76.355469 L 468.324219 76.820313 L 468.1875 77.296875 L 468.078125 77.777344 L 468 78.265625 L 467.953125 78.753906 Z M 467.9375 79.246094 "/>
<path style="fill-rule:nonzero;fill:rgb(0%,0%,0%);fill-opacity:1;stroke-width:0.75;stroke-linecap:round;stroke-linejoin:round;stroke:rgb(0%,0%,0%);stroke-opacity:1;stroke-miterlimit:10;" d="M 365.859375 79.246094 L 365.875 79.742188 L 365.921875 80.230469 L 366 80.71875 L 366.105469 81.199219 L 366.246094 81.675781 L 366.410156 82.136719 L 366.609375 82.589844 L 366.832031 83.03125 L 367.082031 83.457031 L 367.359375 83.863281 L 367.664063 84.253906 L 367.988281 84.625 L 368.335938 84.972656 L 368.707031 85.296875 L 369.097656 85.601563 L 369.503906 85.878906 L 369.929688 86.128906 L 370.371094 86.351563 L 370.820313 86.546875 L 371.285156 86.714844 L 371.761719 86.855469 L 372.242188 86.960938 L 372.726563 87.039063 L 373.21875 87.085938 L 373.710938 87.101563 L 374.207031 87.085938 L 374.695313 87.039063 L 375.183594 86.960938 L 375.664063 86.855469 L 376.140625 86.714844 L 376.601563 86.546875 L 377.054688 86.351563 L 377.496094 86.128906 L 377.921875 85.878906 L 378.328125 85.601563 L 378.71875 85.296875 L 379.085938 84.972656 L 379.4375 84.625 L 379.761719 84.253906 L 380.066406 83.863281 L 380.34375 83.457031 L 380.59375 83.03125 L 380.816406 82.589844 L 381.011719 82.136719 L 381.179688 81.675781 L 381.316406 81.199219 L 381.425781 80.71875 L 381.503906 80.230469 L 381.550781 79.742188 L 381.566406 79.246094 L 381.550781 78.753906 L 381.503906 78.265625 L 381.425781 77.777344 L 381.316406 77.296875 L 381.179688 76.820313 L 381.011719 76.355469 L 380.816406 75.90625 L 380.59375 75.464844 L 380.34375 75.039063 L 380.066406 74.632813 L 379.761719 74.242188 L 379.4375 73.871094 L 379.085938 73.523438 L 378.71875 73.199219 L 378.328125 72.894531 L 377.921875 72.617188 L 377.496094 72.367188 L 377.054688 72.144531 L 376.601563 71.945313 L 376.140625 71.78125 L 375.664063 71.640625 L 375.183594 71.535156 L 374.695313 71.457031 L 374.207031 71.410156 L 373.710938 71.394531 L 373.21875 71.410156 L 372.726563 71.457031 L 372.242188 71.535156 L 371.761719 71.640625 L 371.285156 71.78125 L 370.820313 71.945313 L 370.371094 72.144531 L 369.929688 72.367188 L 369.503906 72.617188 L 369.097656 72.894531 L 368.707031 73.199219 L 368.335938 73.523438 L 367.988281 73.871094 L 367.664063 74.242188 L 367.359375 74.632813 L 367.082031 75.039063 L 366.832031 75.464844 L 366.609375 75.90625 L 366.410156 76.355469 L 366.246094 76.820313 L 366.105469 77.296875 L 366 77.777344 L 365.921875 78.265625 L 365.875 78.753906 Z M 365.859375 79.246094 "/>
<path style="fill-rule:nonzero;fill:rgb(0%,0%,0%);fill-opacity:1;stroke-width:0.75;stroke-linecap:round;stroke-linejoin:round;stroke:rgb(0%,0%,0%);stroke-opacity:1;stroke-miterlimit:10;" d="M 416.898438 130.289063 L 416.914063 130.78125 L 416.960938 131.273438 L 417.039063 131.757813 L 417.144531 132.238281 L 417.285156 132.714844 L 417.453125 133.179688 L 417.648438 133.628906 L 417.871094 134.070313 L 418.121094 134.496094 L 418.398438 134.902344 L 418.703125 135.292969 L 419.027344 135.664063 L 419.375 136.011719 L 419.746094 136.335938 L 420.136719 136.640625 L 420.542969 136.917969 L 420.96875 137.167969 L 421.410156 137.390625 L 421.863281 137.589844 L 422.324219 137.753906 L 422.800781 137.894531 L 423.28125 138 L 423.769531 138.078125 L 424.257813 138.125 L 424.753906 138.140625 L 425.246094 138.125 L 425.734375 138.078125 L 426.222656 138 L 426.703125 137.894531 L 427.179688 137.753906 L 427.644531 137.589844 L 428.09375 137.390625 L 428.535156 137.167969 L 428.960938 136.917969 L 429.367188 136.640625 L 429.757813 136.335938 L 430.128906 136.011719 L 430.476563 135.664063 L 430.800781 135.292969 L 431.105469 134.902344 L 431.382813 134.496094 L 431.632813 134.070313 L 431.855469 133.628906 L 432.054688 133.179688 L 432.21875 132.714844 L 432.359375 132.238281 L 432.464844 131.757813 L 432.542969 131.273438 L 432.589844 130.78125 L 432.605469 130.289063 L 432.589844 129.792969 L 432.542969 129.304688 L 432.464844 128.816406 L 432.359375 128.335938 L 432.21875 127.859375 L 432.054688 127.398438 L 431.855469 126.945313 L 431.632813 126.503906 L 431.382813 126.078125 L 431.105469 125.671875 L 430.800781 125.28125 L 430.476563 124.914063 L 430.128906 124.5625 L 429.757813 124.238281 L 429.367188 123.933594 L 428.960938 123.65625 L 428.535156 123.40625 L 428.09375 123.183594 L 427.644531 122.988281 L 427.179688 122.820313 L 426.703125 122.683594 L 426.222656 122.574219 L 425.734375 122.496094 L 425.246094 122.449219 L 424.753906 122.433594 L 424.257813 122.449219 L 423.769531 122.496094 L 423.28125 122.574219 L 422.800781 122.683594 L 422.324219 122.820313 L 421.863281 122.988281 L 421.410156 123.183594 L 420.96875 123.40625 L 420.542969 123.65625 L 420.136719 123.933594 L 419.746094 124.238281 L 419.375 124.5625 L 419.027344 124.914063 L 418.703125 125.28125 L 418.398438 125.671875 L 418.121094 126.078125 L 417.871094 126.503906 L 417.648438 126.945313 L 417.453125 127.398438 L 417.285156 127.859375 L 417.144531 128.335938 L 417.039063 128.816406 L 416.960938 129.304688 L 416.914063 129.792969 Z M 416.898438 130.289063 "/>
<path style="fill-rule:nonzero;fill:rgb(0%,0%,0%);fill-opacity:1;stroke-width:0.75;stroke-linecap:round;stroke-linejoin:round;stroke:rgb(0%,0%,0%);stroke-opacity:1;stroke-miterlimit:10;" d="M 416.898438 28.207031 L 416.914063 28.703125 L 416.960938 29.191406 L 417.039063 29.679688 L 417.144531 30.160156 L 417.285156 30.636719 L 417.453125 31.097656 L 417.648438 31.550781 L 417.871094 31.992188 L 418.121094 32.414063 L 418.398438 32.824219 L 418.703125 33.214844 L 419.027344 33.582031 L 419.375 33.933594 L 419.746094 34.257813 L 420.136719 34.5625 L 420.542969 34.839844 L 420.96875 35.089844 L 421.410156 35.3125 L 421.863281 35.507813 L 422.324219 35.675781 L 422.800781 35.8125 L 423.28125 35.921875 L 423.769531 36 L 424.257813 36.046875 L 424.753906 36.0625 L 425.246094 36.046875 L 425.734375 36 L 426.222656 35.921875 L 426.703125 35.8125 L 427.179688 35.675781 L 427.644531 35.507813 L 428.09375 35.3125 L 428.535156 35.089844 L 428.960938 34.839844 L 429.367188 34.5625 L 429.757813 34.257813 L 430.128906 33.933594 L 430.476563 33.582031 L 430.800781 33.214844 L 431.105469 32.824219 L 431.382813 32.414063 L 431.632813 31.992188 L 431.855469 31.550781 L 432.054688 31.097656 L 432.21875 30.636719 L 432.359375 30.160156 L 432.464844 29.679688 L 432.542969 29.191406 L 432.589844 28.703125 L 432.605469 28.207031 L 432.589844 27.714844 L 432.542969 27.222656 L 432.464844 26.738281 L 432.359375 26.253906 L 432.21875 25.78125 L 432.054688 25.316406 L 431.855469 24.867188 L 431.632813 24.425781 L 431.382813 24 L 431.105469 23.59375 L 430.800781 23.203125 L 430.476563 22.832031 L 430.128906 22.484375 L 429.757813 22.160156 L 429.367188 21.855469 L 428.960938 21.578125 L 428.535156 21.328125 L 428.09375 21.105469 L 427.644531 20.90625 L 427.179688 20.742188 L 426.703125 20.601563 L 426.222656 20.496094 L 425.734375 20.417969 L 425.246094 20.371094 L 424.753906 20.355469 L 424.257813 20.371094 L 423.769531 20.417969 L 423.28125 20.496094 L 422.800781 20.601563 L 422.324219 20.742188 L 421.863281 20.90625 L 421.410156 21.105469 L 420.96875 21.328125 L 420.542969 21.578125 L 420.136719 21.855469 L 419.746094 22.160156 L 419.375 22.484375 L 419.027344 22.832031 L 418.703125 23.203125 L 418.398438 23.59375 L 418.121094 24 L 417.871094 24.425781 L 417.648438 24.867188 L 417.453125 25.316406 L 417.285156 25.78125 L 417.144531 26.253906 L 417.039063 26.738281 L 416.960938 27.222656 L 416.914063 27.714844 Z M 416.898438 28.207031 "/>
<path style="fill:none;stroke-width:2.25;stroke-linecap:round;stroke-linejoin:round;stroke:rgb(0%,0%,0%);stroke-opacity:1;stroke-miterlimit:10;" d="M 149.363281 175.050781 L 81.363281 175.050781 L 115.363281 233.941406 L 149.363281 175.050781 "/>
<path style="fill:none;stroke-width:2.25;stroke-linecap:round;stroke-linejoin:round;stroke:rgb(0%,0%,0%);stroke-opacity:1;stroke-miterlimit:10;" d="M 115.363281 233.941406 L 81.363281 292.835938 L 149.363281 292.835938 L 115.363281 233.941406 "/>
<path style="fill:none;stroke-width:2.25;stroke-linecap:round;stroke-linejoin:round;stroke:rgb(0%,0%,0%);stroke-opacity:1;stroke-miterlimit:10;" d="M 73.71875 233.941406 L 157.007813 233.941406 L 73.71875 233.941406 "/>
<path style="fill:none;stroke-width:2.25;stroke-linecap:round;stroke-linejoin:round;stroke:rgb(0%,0%,0%);stroke-opacity:1;stroke-miterlimit:10;" d="M 304.058594 175.050781 L 236.054688 175.050781 L 270.058594 233.941406 L 304.058594 175.050781 "/>
<path style="fill:none;stroke-width:2.25;stroke-linecap:round;stroke-linejoin:round;stroke:rgb(0%,0%,0%);stroke-opacity:1;stroke-miterlimit:10;" d="M 270.058594 233.941406 L 236.054688 292.835938 L 304.058594 292.835938 L 270.058594 233.941406 "/>
<path style="fill:none;stroke-width:2.25;stroke-linecap:round;stroke-linejoin:round;stroke:rgb(0%,0%,0%);stroke-opacity:1;stroke-miterlimit:10;" d="M 328.949219 199.941406 L 270.058594 233.941406 L 328.949219 267.945313 L 328.949219 199.941406 "/>
<path style="fill:none;stroke-width:2.25;stroke-linecap:round;stroke-linejoin:round;stroke:rgb(0%,0%,0%);stroke-opacity:1;stroke-miterlimit:10;" d="M 270.058594 233.941406 L 211.164063 199.941406 L 211.164063 267.945313 L 270.058594 233.941406 "/>
<path style="fill:none;stroke-width:2.25;stroke-linecap:round;stroke-linejoin:round;stroke:rgb(0%,0%,0%);stroke-opacity:1;stroke-miterlimit:10;" d="M 270.058594 275.585938 L 270.058594 192.300781 L 270.058594 275.585938 "/>
<path style="fill:none;stroke-width:2.25;stroke-linecap:round;stroke-linejoin:round;stroke:rgb(0%,0%,0%);stroke-opacity:1;stroke-miterlimit:10;" d="M 483.644531 199.941406 L 424.753906 233.941406 L 483.644531 267.945313 L 483.644531 199.941406 "/>
<path style="fill:none;stroke-width:2.25;stroke-linecap:round;stroke-linejoin:round;stroke:rgb(0%,0%,0%);stroke-opacity:1;stroke-miterlimit:10;" d="M 424.753906 233.941406 L 365.859375 199.941406 L 365.859375 267.945313 L 424.753906 233.941406 "/>
<path style="fill:none;stroke-width:2.25;stroke-linecap:round;stroke-linejoin:round;stroke:rgb(0%,0%,0%);stroke-opacity:1;stroke-miterlimit:10;" d="M 383.109375 233.941406 L 466.394531 233.941406 L 383.109375 233.941406 "/>
<path style="fill:none;stroke-width:2.25;stroke-linecap:round;stroke-linejoin:round;stroke:rgb(0%,0%,0%);stroke-opacity:1;stroke-miterlimit:10;" d="M 424.753906 275.585938 L 424.753906 192.300781 L 424.753906 275.585938 "/>
<path style="fill:none;stroke-width:2.25;stroke-linecap:round;stroke-linejoin:round;stroke:rgb(0%,0%,0%);stroke-opacity:1;stroke-miterlimit:10;" d="M 115.363281 388.636719 L 81.363281 447.527344 L 149.363281 447.527344 L 115.363281 388.636719 "/>
<path style="fill-rule:nonzero;fill:rgb(0%,0%,0%);fill-opacity:1;stroke-width:1.5;stroke-linecap:round;stroke-linejoin:round;stroke:rgb(0%,0%,0%);stroke-opacity:1;stroke-miterlimit:10;" d="M 131.066406 388.636719 L 131.035156 387.652344 L 130.945313 386.667969 L 130.789063 385.695313 L 130.574219 384.730469 L 130.300781 383.785156 L 129.964844 382.855469 L 129.574219 381.949219 L 129.125 381.070313 L 128.621094 380.222656 L 128.070313 379.40625 L 127.464844 378.625 L 126.8125 377.886719 L 126.113281 377.1875 L 125.375 376.535156 L 124.59375 375.929688 L 123.777344 375.378906 L 122.929688 374.875 L 122.050781 374.425781 L 121.144531 374.035156 L 120.214844 373.699219 L 119.269531 373.425781 L 118.304688 373.210938 L 117.332031 373.054688 L 116.347656 372.964844 L 115.363281 372.933594 L 114.378906 372.964844 L 113.394531 373.054688 L 112.421875 373.210938 L 111.457031 373.425781 L 110.511719 373.699219 L 109.582031 374.035156 L 108.675781 374.425781 L 107.796875 374.875 L 106.949219 375.378906 L 106.132813 375.929688 L 105.351563 376.535156 L 104.613281 377.1875 L 103.914063 377.886719 L 103.261719 378.625 L 102.65625 379.40625 L 102.101563 380.222656 L 101.601563 381.070313 L 101.152344 381.949219 L 100.761719 382.855469 L 100.425781 383.785156 L 100.152344 384.730469 L 99.9375 385.695313 L 99.78125 386.667969 L 99.691406 387.652344 L 99.660156 388.636719 L 99.691406 389.621094 L 99.78125 390.605469 L 99.9375 391.578125 L 100.152344 392.542969 L 100.425781 393.488281 L 100.761719 394.417969 L 101.152344 395.324219 L 101.601563 396.203125 L 102.101563 397.050781 L 102.65625 397.867188 L 103.261719 398.648438 L 103.914063 399.386719 L 104.613281 400.085938 L 105.351563 400.738281 L 106.132813 401.34375 L 106.949219 401.898438 L 107.796875 402.398438 L 108.675781 402.847656 L 109.582031 403.238281 L 110.511719 403.574219 L 111.457031 403.847656 L 112.421875 404.0625 L 113.394531 404.21875 L 114.378906 404.308594 L 115.363281 404.339844 L 116.347656 404.308594 L 117.332031 404.21875 L 118.304688 404.0625 L 119.269531 403.847656 L 120.214844 403.574219 L 121.144531 403.238281 L 122.050781 402.847656 L 122.929688 402.398438 L 123.777344 401.898438 L 124.59375 401.34375 L 125.375 400.738281 L 126.113281 400.085938 L 126.8125 399.386719 L 127.464844 398.648438 L 128.070313 397.867188 L 128.621094 397.050781 L 129.125 396.203125 L 129.574219 395.324219 L 129.964844 394.417969 L 130.300781 393.488281 L 130.574219 392.542969 L 130.789063 391.578125 L 130.945313 390.605469 L 131.035156 389.621094 Z M 131.066406 388.636719 "/>
<path style="fill:none;stroke-width:2.25;stroke-linecap:round;stroke-linejoin:round;stroke:rgb(0%,0%,0%);stroke-opacity:1;stroke-miterlimit:10;" d="M 73.71875 388.636719 L 157.007813 388.636719 L 73.71875 388.636719 "/>
<path style="fill:none;stroke-width:2.25;stroke-linecap:round;stroke-linejoin:round;stroke:rgb(0%,0%,0%);stroke-opacity:1;stroke-miterlimit:10;" d="M 270.058594 388.636719 L 236.054688 447.527344 L 304.058594 447.527344 L 270.058594 388.636719 "/>
<path style="fill:none;stroke-width:2.25;stroke-linecap:round;stroke-linejoin:round;stroke:rgb(0%,0%,0%);stroke-opacity:1;stroke-miterlimit:10;" d="M 328.949219 354.636719 L 270.058594 388.636719 L 328.949219 422.636719 L 328.949219 354.636719 "/>
<path style="fill-rule:nonzero;fill:rgb(0%,0%,0%);fill-opacity:1;stroke-width:0.75;stroke-linecap:round;stroke-linejoin:round;stroke:rgb(0%,0%,0%);stroke-opacity:1;stroke-miterlimit:10;" d="M 313.246094 388.636719 L 313.261719 389.128906 L 313.308594 389.621094 L 313.382813 390.109375 L 313.492188 390.589844 L 313.628906 391.0625 L 313.796875 391.527344 L 313.992188 391.980469 L 314.214844 392.417969 L 314.46875 392.84375 L 314.746094 393.253906 L 315.046875 393.640625 L 315.371094 394.011719 L 315.722656 394.359375 L 316.09375 394.6875 L 316.480469 394.988281 L 316.890625 395.265625 L 317.3125 395.519531 L 317.753906 395.742188 L 318.207031 395.9375 L 318.671875 396.105469 L 319.144531 396.242188 L 319.625 396.351563 L 320.113281 396.425781 L 320.605469 396.472656 L 321.097656 396.488281 L 321.589844 396.472656 L 322.082031 396.425781 L 322.570313 396.351563 L 323.050781 396.242188 L 323.523438 396.105469 L 323.988281 395.9375 L 324.441406 395.742188 L 324.878906 395.519531 L 325.304688 395.265625 L 325.710938 394.988281 L 326.101563 394.6875 L 326.472656 394.359375 L 326.820313 394.011719 L 327.148438 393.640625 L 327.449219 393.253906 L 327.726563 392.84375 L 327.976563 392.417969 L 328.203125 391.980469 L 328.398438 391.527344 L 328.566406 391.0625 L 328.703125 390.589844 L 328.808594 390.109375 L 328.886719 389.621094 L 328.933594 389.128906 L 328.949219 388.636719 L 328.933594 388.144531 L 328.886719 387.652344 L 328.808594 387.164063 L 328.703125 386.683594 L 328.566406 386.210938 L 328.398438 385.746094 L 328.203125 385.292969 L 327.976563 384.855469 L 327.726563 384.429688 L 327.449219 384.019531 L 327.148438 383.632813 L 326.820313 383.261719 L 326.472656 382.914063 L 326.101563 382.585938 L 325.710938 382.285156 L 325.304688 382.007813 L 324.878906 381.753906 L 324.441406 381.53125 L 323.988281 381.335938 L 323.523438 381.167969 L 323.050781 381.03125 L 322.570313 380.921875 L 322.082031 380.847656 L 321.589844 380.800781 L 321.097656 380.785156 L 320.605469 380.800781 L 320.113281 380.847656 L 319.625 380.921875 L 319.144531 381.03125 L 318.671875 381.167969 L 318.207031 381.335938 L 317.753906 381.53125 L 317.3125 381.753906 L 316.890625 382.007813 L 316.480469 382.285156 L 316.09375 382.585938 L 315.722656 382.914063 L 315.371094 383.261719 L 315.046875 383.632813 L 314.746094 384.019531 L 314.46875 384.429688 L 314.214844 384.855469 L 313.992188 385.292969 L 313.796875 385.746094 L 313.628906 386.210938 L 313.492188 386.683594 L 313.382813 387.164063 L 313.308594 387.652344 L 313.261719 388.144531 Z M 313.246094 388.636719 "/>
<path style="fill-rule:nonzero;fill:rgb(0%,0%,0%);fill-opacity:1;stroke-width:0.75;stroke-linecap:round;stroke-linejoin:round;stroke:rgb(0%,0%,0%);stroke-opacity:1;stroke-miterlimit:10;" d="M 211.164063 388.636719 L 211.179688 389.128906 L 211.226563 389.621094 L 211.304688 390.109375 L 211.414063 390.589844 L 211.550781 391.0625 L 211.71875 391.527344 L 211.914063 391.980469 L 212.136719 392.417969 L 212.386719 392.84375 L 212.664063 393.253906 L 212.96875 393.640625 L 213.292969 394.011719 L 213.644531 394.359375 L 214.011719 394.6875 L 214.402344 394.988281 L 214.8125 395.265625 L 215.234375 395.519531 L 215.675781 395.742188 L 216.128906 395.9375 L 216.589844 396.105469 L 217.066406 396.242188 L 217.546875 396.351563 L 218.035156 396.425781 L 218.523438 396.472656 L 219.019531 396.488281 L 219.511719 396.472656 L 220.003906 396.425781 L 220.488281 396.351563 L 220.972656 396.242188 L 221.445313 396.105469 L 221.910156 395.9375 L 222.363281 395.742188 L 222.800781 395.519531 L 223.226563 395.265625 L 223.632813 394.988281 L 224.023438 394.6875 L 224.394531 394.359375 L 224.742188 394.011719 L 225.070313 393.640625 L 225.371094 393.253906 L 225.648438 392.84375 L 225.898438 392.417969 L 226.125 391.980469 L 226.320313 391.527344 L 226.484375 391.0625 L 226.625 390.589844 L 226.730469 390.109375 L 226.808594 389.621094 L 226.855469 389.128906 L 226.871094 388.636719 L 226.855469 388.144531 L 226.808594 387.652344 L 226.730469 387.164063 L 226.625 386.683594 L 226.484375 386.210938 L 226.320313 385.746094 L 226.125 385.292969 L 225.898438 384.855469 L 225.648438 384.429688 L 225.371094 384.019531 L 225.070313 383.632813 L 224.742188 383.261719 L 224.394531 382.914063 L 224.023438 382.585938 L 223.632813 382.285156 L 223.226563 382.007813 L 222.800781 381.753906 L 222.363281 381.53125 L 221.910156 381.335938 L 221.445313 381.167969 L 220.972656 381.03125 L 220.488281 380.921875 L 220.003906 380.847656 L 219.511719 380.800781 L 219.019531 380.785156 L 218.523438 380.800781 L 218.035156 380.847656 L 217.546875 380.921875 L 217.066406 381.03125 L 216.589844 381.167969 L 216.128906 381.335938 L 215.675781 381.53125 L 215.234375 381.753906 L 214.8125 382.007813 L 214.402344 382.285156 L 214.011719 382.585938 L 213.644531 382.914063 L 213.292969 383.261719 L 212.96875 383.632813 L 212.664063 384.019531 L 212.386719 384.429688 L 212.136719 384.855469 L 211.914063 385.292969 L 211.71875 385.746094 L 211.550781 386.210938 L 211.414063 386.683594 L 211.304688 387.164063 L 211.226563 387.652344 L 211.179688 388.144531 Z M 211.164063 388.636719 "/>
<path style="fill-rule:nonzero;fill:rgb(0%,0%,0%);fill-opacity:1;stroke-width:0.75;stroke-linecap:round;stroke-linejoin:round;stroke:rgb(0%,0%,0%);stroke-opacity:1;stroke-miterlimit:10;" d="M 262.207031 439.675781 L 262.222656 440.167969 L 262.265625 440.660156 L 262.34375 441.148438 L 262.453125 441.628906 L 262.589844 442.101563 L 262.757813 442.566406 L 262.953125 443.019531 L 263.175781 443.460938 L 263.429688 443.882813 L 263.703125 444.292969 L 264.007813 444.679688 L 264.332031 445.050781 L 264.683594 445.398438 L 265.050781 445.726563 L 265.441406 446.027344 L 265.851563 446.304688 L 266.273438 446.558594 L 266.714844 446.78125 L 267.167969 446.976563 L 267.632813 447.144531 L 268.105469 447.28125 L 268.585938 447.390625 L 269.074219 447.464844 L 269.566406 447.511719 L 270.058594 447.527344 L 270.550781 447.511719 L 271.042969 447.464844 L 271.527344 447.390625 L 272.011719 447.28125 L 272.484375 447.144531 L 272.949219 446.976563 L 273.402344 446.78125 L 273.839844 446.558594 L 274.265625 446.304688 L 274.671875 446.027344 L 275.0625 445.726563 L 275.433594 445.398438 L 275.78125 445.050781 L 276.109375 444.679688 L 276.410156 444.292969 L 276.6875 443.882813 L 276.9375 443.460938 L 277.164063 443.019531 L 277.359375 442.566406 L 277.527344 442.101563 L 277.664063 441.628906 L 277.769531 441.148438 L 277.847656 440.660156 L 277.894531 440.167969 L 277.910156 439.675781 L 277.894531 439.183594 L 277.847656 438.691406 L 277.769531 438.203125 L 277.664063 437.722656 L 277.527344 437.25 L 277.359375 436.785156 L 277.164063 436.332031 L 276.9375 435.894531 L 276.6875 435.46875 L 276.410156 435.0625 L 276.109375 434.671875 L 275.78125 434.300781 L 275.433594 433.953125 L 275.0625 433.625 L 274.671875 433.324219 L 274.265625 433.046875 L 273.839844 432.796875 L 273.402344 432.570313 L 272.949219 432.375 L 272.484375 432.207031 L 272.011719 432.070313 L 271.527344 431.964844 L 271.042969 431.886719 L 270.550781 431.839844 L 270.058594 431.824219 L 269.566406 431.839844 L 269.074219 431.886719 L 268.585938 431.964844 L 268.105469 432.070313 L 267.632813 432.207031 L 267.167969 432.375 L 266.714844 432.570313 L 266.273438 432.796875 L 265.851563 433.046875 L 265.441406 433.324219 L 265.050781 433.625 L 264.683594 433.953125 L 264.332031 434.300781 L 264.007813 434.671875 L 263.703125 435.0625 L 263.429688 435.46875 L 263.175781 435.894531 L 262.953125 436.332031 L 262.757813 436.785156 L 262.589844 437.25 L 262.453125 437.722656 L 262.34375 438.203125 L 262.265625 438.691406 L 262.222656 439.183594 Z M 262.207031 439.675781 "/>
<path style="fill-rule:nonzero;fill:rgb(0%,0%,0%);fill-opacity:1;stroke-width:0.75;stroke-linecap:round;stroke-linejoin:round;stroke:rgb(0%,0%,0%);stroke-opacity:1;stroke-miterlimit:10;" d="M 262.207031 337.597656 L 262.222656 338.089844 L 262.265625 338.582031 L 262.34375 339.070313 L 262.453125 339.550781 L 262.589844 340.023438 L 262.757813 340.488281 L 262.953125 340.941406 L 263.175781 341.378906 L 263.429688 341.804688 L 263.703125 342.210938 L 264.007813 342.601563 L 264.332031 342.972656 L 264.683594 343.320313 L 265.050781 343.648438 L 265.441406 343.949219 L 265.851563 344.226563 L 266.273438 344.476563 L 266.714844 344.703125 L 267.167969 344.898438 L 267.632813 345.066406 L 268.105469 345.203125 L 268.585938 345.308594 L 269.074219 345.386719 L 269.566406 345.433594 L 270.058594 345.449219 L 270.550781 345.433594 L 271.042969 345.386719 L 271.527344 345.308594 L 272.011719 345.203125 L 272.484375 345.066406 L 272.949219 344.898438 L 273.402344 344.703125 L 273.839844 344.476563 L 274.265625 344.226563 L 274.671875 343.949219 L 275.0625 343.648438 L 275.433594 343.320313 L 275.78125 342.972656 L 276.109375 342.601563 L 276.410156 342.210938 L 276.6875 341.804688 L 276.9375 341.378906 L 277.164063 340.941406 L 277.359375 340.488281 L 277.527344 340.023438 L 277.664063 339.550781 L 277.769531 339.070313 L 277.847656 338.582031 L 277.894531 338.089844 L 277.910156 337.597656 L 277.894531 337.105469 L 277.847656 336.613281 L 277.769531 336.125 L 277.664063 335.644531 L 277.527344 335.171875 L 277.359375 334.707031 L 277.164063 334.253906 L 276.9375 333.816406 L 276.6875 333.390625 L 276.410156 332.980469 L 276.109375 332.59375 L 275.78125 332.222656 L 275.433594 331.875 L 275.0625 331.546875 L 274.671875 331.246094 L 274.265625 330.96875 L 273.839844 330.714844 L 273.402344 330.492188 L 272.949219 330.296875 L 272.484375 330.128906 L 272.011719 329.992188 L 271.527344 329.882813 L 271.042969 329.808594 L 270.550781 329.761719 L 270.058594 329.746094 L 269.566406 329.761719 L 269.074219 329.808594 L 268.585938 329.882813 L 268.105469 329.992188 L 267.632813 330.128906 L 267.167969 330.296875 L 266.714844 330.492188 L 266.273438 330.714844 L 265.851563 330.96875 L 265.441406 331.246094 L 265.050781 331.546875 L 264.683594 331.875 L 264.332031 332.222656 L 264.007813 332.59375 L 263.703125 332.980469 L 263.429688 333.390625 L 263.175781 333.816406 L 262.953125 334.253906 L 262.757813 334.707031 L 262.589844 335.171875 L 262.453125 335.644531 L 262.34375 336.125 L 262.265625 336.613281 L 262.222656 337.105469 Z M 262.207031 337.597656 "/>
<path style="fill:none;stroke-width:2.25;stroke-linecap:round;stroke-linejoin:round;stroke:rgb(0%,0%,0%);stroke-opacity:1;stroke-miterlimit:10;" d="M 270.058594 430.28125 L 270.058594 346.992188 L 270.058594 430.28125 "/>
</g>
</svg>
